<svg width="22" height="18" viewBox="0 0 22 18" fill="none" xmlns="http://www.w3.org/2000/svg">
<path d="M19.5135 3.13303C19.055 2.35748 18.3458 1.75917 17.501 1.44596C16.6239 1.12075 15.7262 0.861017 14.808 0.674744C14.4336 0.5988 14.0567 0.780436 13.89 1.12413C13.7089 1.49762 13.3098 1.72133 12.8973 1.67519C11.6705 1.53801 10.4361 1.53768 9.20925 1.6742C8.79089 1.72076 8.38522 1.48991 8.19567 1.11407C8.02302 0.771751 7.64511 0.598555 7.26935 0.674645C6.34997 0.860814 5.44693 1.12113 4.57213 1.45162C3.72767 1.77065 3.02547 2.37979 2.56885 3.15851C0.767738 6.23018 -0.00245672 9.24416 -0.0844049 12.2296C-0.127629 13.8043 0.700103 15.2793 2.07764 16.0434C2.94929 16.527 3.85781 16.938 4.79898 17.2702C5.2994 17.4468 5.85505 17.2628 6.14394 16.8177C6.23719 16.674 6.32741 16.5289 6.41462 16.3823C6.66077 15.9682 6.44971 15.4466 6.01263 15.2442C5.77675 15.1349 5.54526 15.0173 5.31711 14.8913C5.14217 14.7947 5.12553 14.5484 5.2823 14.4245C5.36428 14.3597 5.47701 14.3481 5.572 14.3917C9.0515 15.9881 13.0663 15.9881 16.5458 14.3917C16.6408 14.3481 16.7535 14.3597 16.8355 14.4245C16.9923 14.5484 16.9755 14.7946 16.8002 14.8904C16.5693 15.0167 16.3334 15.1345 16.0934 15.244C15.6514 15.4456 15.4385 15.9715 15.687 16.389C15.7721 16.5319 15.86 16.6732 15.9508 16.8133C16.2408 17.2604 16.8001 17.4425 17.3019 17.2632C18.2494 16.9246 19.1666 16.5136 20.0427 16.0302C21.4084 15.2767 22.223 13.8142 22.1796 12.2551C22.0865 8.91131 21.1443 5.89102 19.5135 3.13303ZM7.33179 12.1238C6.22373 12.1238 5.33728 11.1165 5.33728 9.88753C5.33728 8.65859 6.22373 7.63112 7.33179 7.63112C8.45999 7.63112 9.34644 8.63845 9.34644 9.88753C9.32629 11.1165 8.45999 12.1238 7.33179 12.1238ZM14.7457 12.1238C13.6376 12.1238 12.7512 11.1165 12.7512 9.88753C12.7512 8.65859 13.6376 7.63112 14.7457 7.63112C15.8739 7.63112 16.7604 8.63845 16.7402 9.88753C16.7201 11.1366 15.8538 12.1238 14.7457 12.1238Z" fill="#717178"/>
</svg>
