<svg width="10" height="10" viewBox="0 0 10 10" fill="none" xmlns="http://www.w3.org/2000/svg">
<path fill-rule="evenodd" clip-rule="evenodd" d="M5.3514 4.88786C5.35125 4.89018 5.3511 4.89271 5.35095 4.89547C5.34895 4.93337 5.34883 4.98567 5.34883 5.07377C5.34883 5.11157 5.34888 5.13091 5.34939 5.14499L5.35015 5.14547C5.36266 5.15226 5.38011 5.16099 5.41406 5.17788L5.87338 5.40635C5.95255 5.44573 5.99975 5.46908 6.03485 5.4843C6.03822 5.48576 6.04124 5.48704 6.04394 5.48816C6.04409 5.48584 6.04424 5.4833 6.04438 5.48054C6.04639 5.44265 6.0465 5.39034 6.0465 5.30224C6.0465 5.26445 6.04645 5.24511 6.04595 5.23103L6.04519 5.23055C6.03267 5.22376 6.01523 5.21503 5.98127 5.19814L5.52195 4.96966C5.44279 4.93029 5.39559 4.90694 5.36049 4.89171C5.35712 4.89025 5.3541 4.88897 5.3514 4.88786ZM5.34883 5.92465L5.56988 6.0346C5.63942 6.0692 5.70328 6.10097 5.75727 6.12438C5.81228 6.14824 5.88397 6.17578 5.96588 6.18529C6.28604 6.22244 6.59153 6.03578 6.70227 5.73162C6.7306 5.65381 6.73793 5.57714 6.74109 5.51739C6.74419 5.45876 6.74418 5.38762 6.74418 5.31035L6.74418 5.30224C6.74418 5.29737 6.74419 5.29237 6.7442 5.28723C6.74432 5.23274 6.74447 5.16434 6.73168 5.09782C6.69928 4.92944 6.60579 4.77925 6.46957 4.67564C6.41579 4.63473 6.35458 4.60445 6.30548 4.58016C6.30087 4.57788 6.29637 4.57565 6.29199 4.57347L5.82546 4.34141C5.75592 4.30682 5.69206 4.27505 5.63806 4.25164C5.58305 4.22778 5.51137 4.20023 5.42946 4.19073C5.10929 4.15357 4.80381 4.34024 4.69306 4.6444C4.66473 4.72221 4.65741 4.79888 4.65425 4.85862C4.65185 4.90404 4.65131 4.95696 4.65119 5.01443L4.65116 5.04992C4.65116 5.05514 4.65116 5.06039 4.65116 5.06567V5.07377C4.65116 5.07864 4.65115 5.08365 4.65113 5.08878C4.65111 5.09943 4.65109 5.11062 4.65116 5.12221V6.11313C4.54196 6.07465 4.42452 6.05373 4.30232 6.05373C3.72606 6.05373 3.25581 6.51895 3.25581 7.09663C3.25581 7.67431 3.72606 8.13954 4.30232 8.13954C4.87859 8.13954 5.34883 7.67431 5.34883 7.09663V5.92465ZM4.65116 7.09663C4.65116 6.90767 4.49668 6.7514 4.30232 6.7514C4.10796 6.7514 3.95348 6.90767 3.95348 7.09663C3.95348 7.28559 4.10796 7.44186 4.30232 7.44186C4.49668 7.44186 4.65116 7.28559 4.65116 7.09663Z" fill="black"/>
<path fill-rule="evenodd" clip-rule="evenodd" d="M3.46481 3.32884e-06H6.53507C6.63732 -2.43942e-05 6.71572 -4.56304e-05 6.78426 0.00730919C7.41411 0.0749025 7.8962 0.592127 7.92544 1.21866C8.47927 1.38405 8.87391 1.89651 8.88106 2.48427C9.16059 2.56814 9.4017 2.70044 9.59908 2.91364C9.90233 3.24119 9.9963 3.64487 9.99988 4.11643C10.0033 4.56976 9.92254 5.14266 9.82222 5.8541L9.61804 7.30227C9.53962 7.85859 9.47591 8.3105 9.37679 8.66465C9.27308 9.03516 9.12021 9.34001 8.83719 9.57434C8.5564 9.80683 8.22328 9.90708 7.82954 9.95433C7.44882 10 6.96988 10 6.37356 10H3.62645C3.03013 10 2.55116 10 2.17045 9.95433C1.77671 9.90708 1.44359 9.80683 1.1628 9.57434C0.879778 9.34001 0.726911 9.03516 0.623202 8.66465C0.524075 8.3105 0.460368 7.85858 0.381943 7.30227L0.177765 5.85409C0.0774475 5.14265 -0.00333471 4.56976 0.000105977 4.11643C0.00368503 3.64487 0.0976602 3.24119 0.40091 2.91364C0.598238 2.70049 0.839279 2.5682 1.11873 2.48432C1.12585 1.89651 1.52054 1.384 2.07444 1.21863C2.1037 0.592111 2.58578 0.0749015 3.21562 0.00730919C3.28416 -4.56582e-05 3.36255 -2.43942e-05 3.46481 3.32884e-06ZM1.8321 2.36179C2.2627 2.32557 2.79057 2.32558 3.42602 2.32559H6.57397C7.20931 2.32558 7.73712 2.32557 8.16769 2.36177C8.10388 2.07915 7.85143 1.86047 7.54032 1.86047H2.45947C2.14835 1.86047 1.8959 2.07916 1.8321 2.36179ZM6.70981 0.701C6.96572 0.728463 7.16797 0.919221 7.21751 1.1628H2.78237C2.83191 0.919221 3.03416 0.728463 3.29007 0.701C3.31624 0.698191 3.35355 0.697681 3.48418 0.697681H6.5157C6.64633 0.697681 6.68364 0.698191 6.70981 0.701ZM0.91287 3.38761C1.05375 3.23543 1.26561 3.13449 1.67727 3.07974C2.0964 3.02399 2.65747 3.02326 3.45227 3.02326H6.54772C7.34251 3.02326 7.90359 3.02399 8.32272 3.07974C8.73438 3.13449 8.94624 3.23543 9.08712 3.38761C9.22473 3.53625 9.29932 3.73852 9.30223 4.12172C9.30523 4.51711 9.23264 5.03851 9.12735 5.78525L8.93062 7.1806C8.84794 7.76704 8.79004 8.17255 8.70493 8.47659C8.62298 8.7694 8.52652 8.92579 8.39225 9.03696C8.25574 9.14999 8.07247 9.22249 7.74641 9.26162C7.41212 9.30174 6.97512 9.30233 6.35099 9.30233H3.649C3.02487 9.30233 2.58787 9.30174 2.25358 9.26162C1.92752 9.22249 1.74425 9.14999 1.60774 9.03696C1.47347 8.92579 1.37701 8.7694 1.29505 8.47659C1.20995 8.17255 1.15204 7.76704 1.06936 7.18059L0.872633 5.78525C0.767351 5.03851 0.694759 4.51711 0.69776 4.12172C0.700668 3.73852 0.775259 3.53625 0.91287 3.38761Z" fill="black"/>
</svg>
