<svg width="9" height="9" viewBox="0 0 9 9" fill="none" xmlns="http://www.w3.org/2000/svg">
<path fill-rule="evenodd" clip-rule="evenodd" d="M5.99999 2.50005C5.99999 3.23643 5.40304 3.83338 4.66666 3.83338C3.93028 3.83338 3.33332 3.23643 3.33332 2.50005C3.33332 1.76367 3.93028 1.16671 4.66666 1.16671C5.40304 1.16671 5.99999 1.76367 5.99999 2.50005ZM4.66666 4.50005C5.77123 4.50005 6.66666 3.60462 6.66666 2.50005C6.66666 1.39548 5.77123 0.500046 4.66666 0.500046C3.56209 0.500046 2.66666 1.39548 2.66666 2.50005C2.66666 3.60462 3.56209 4.50005 4.66666 4.50005ZM8.66666 7.83338C8.66666 8.50005 7.99999 8.50005 7.99999 8.50005H1.33332C1.33332 8.50005 0.666656 8.50005 0.666656 7.83338C0.666656 7.16671 1.33332 5.16671 4.66666 5.16671C7.99999 5.16671 8.66666 7.16671 8.66666 7.83338ZM7.99849 7.83101C7.99754 7.66649 7.89599 7.17363 7.44376 6.7214C7.00892 6.28657 6.19123 5.83333 4.66516 5.83333C3.13909 5.83333 2.3214 6.28657 1.88657 6.7214C1.43434 7.17363 1.33278 7.66649 1.33184 7.83101H7.99849Z" fill="#85858C"/>
</svg>
