<svg xmlns="http://www.w3.org/2000/svg" width="22" height="22" fill="none">
  <path fill="#ffffff" fill-rule="evenodd"
        d="M11.26 1.286c.15 0 .295.072.41.18l3.1 3.12a.645.645 0 0 1 0 .956.756.756 0 0 1-1.02 0l-1.781-1.885v9.38h-1.444V3.68L8.797 5.542a.756.756 0 0 1-1.02 0 .645.645 0 0 1 0-.956l3.072-3.12a.613.613 0 0 1 .41-.18Zm2.385 5.434v1.358h2.585c.322 0 .582.24.582.533v8.784c0 .293-.26.532-.582.532H6.341c-.322 0-.582-.238-.582-.532V8.61c0-.294.26-.533.582-.533h2.637V6.72H6.34c-1.135 0-2.055.846-2.055 1.89v8.785c0 1.045.92 1.89 2.055 1.89h9.89c1.134 0 2.055-.845 2.055-1.89V8.61c0-1.045-.921-1.891-2.056-1.891h-2.585Z"
        clip-rule="evenodd"/>
</svg>
