<svg width="20" height="19" viewBox="0 0 20 19" fill="none" xmlns="http://www.w3.org/2000/svg">
  <path d="M18.656 0.142578L11.1508 5.69589L12.5464 2.42314L18.656 0.142578Z" fill="#E17726" stroke="#E17726" stroke-width="0.25" stroke-linecap="round" stroke-linejoin="round"/>
  <path d="M1.34436 0.142578L8.78274 5.74772L7.45394 2.42314L1.34436 0.142578Z" fill="#E27625" stroke="#E27625" stroke-width="0.25" stroke-linecap="round" stroke-linejoin="round"/>
  <path d="M15.9535 13.0186L13.9565 16.0692L18.2325 17.2465L19.4574 13.0852L15.9535 13.0186Z" fill="#E27625" stroke="#E27625" stroke-width="0.25" stroke-linecap="round" stroke-linejoin="round"/>
  <path d="M0.549744 13.0852L1.7672 17.2465L6.03574 16.0692L4.04622 13.0186L0.549744 13.0852Z" fill="#E27625" stroke="#E27625" stroke-width="0.25" stroke-linecap="round" stroke-linejoin="round"/>
  <path d="M5.80554 7.86521L4.6178 9.6571L8.8492 9.84961L8.70817 5.2959L5.80554 7.86521Z" fill="#E27625" stroke="#E27625" stroke-width="0.25" stroke-linecap="round" stroke-linejoin="round"/>
  <path d="M14.1944 7.86529L11.2473 5.24414L11.1508 9.84969L15.3821 9.65718L14.1944 7.86529Z" fill="#E27625" stroke="#E27625" stroke-width="0.25" stroke-linecap="round" stroke-linejoin="round"/>
  <path d="M6.03577 16.0696L8.59685 14.8331L6.39211 13.1152L6.03577 16.0696Z" fill="#E27625" stroke="#E27625" stroke-width="0.25" stroke-linecap="round" stroke-linejoin="round"/>
  <path d="M11.403 14.8331L13.9566 16.0696L13.6077 13.1152L11.403 14.8331Z" fill="#E27625" stroke="#E27625" stroke-width="0.25" stroke-linecap="round" stroke-linejoin="round"/>
  <path d="M13.9566 16.0695L11.403 14.833L11.6108 16.4916L11.5885 17.195L13.9566 16.0695Z" fill="#D5BFB2" stroke="#D5BFB2" stroke-width="0.25" stroke-linecap="round" stroke-linejoin="round"/>
  <path d="M6.03577 16.0695L8.41131 17.195L8.39645 16.4916L8.59685 14.833L6.03577 16.0695Z" fill="#D5BFB2" stroke="#D5BFB2" stroke-width="0.25" stroke-linecap="round" stroke-linejoin="round"/>
  <path d="M8.45578 12.0186L6.33264 11.3966L7.83218 10.708L8.45578 12.0186Z" fill="#233447" stroke="#233447" stroke-width="0.25" stroke-linecap="round" stroke-linejoin="round"/>
  <path d="M11.5441 12.0186L12.1677 10.708L13.6747 11.3966L11.5441 12.0186Z" fill="#233447" stroke="#233447" stroke-width="0.25" stroke-linecap="round" stroke-linejoin="round"/>
  <path d="M6.03587 16.0692L6.40707 13.0186L4.04639 13.0852L6.03587 16.0692Z" fill="#CC6228" stroke="#CC6228" stroke-width="0.25" stroke-linecap="round" stroke-linejoin="round"/>
  <path d="M13.5927 13.0186L13.9565 16.0692L15.9534 13.0852L13.5927 13.0186Z" fill="#CC6228" stroke="#CC6228" stroke-width="0.25" stroke-linecap="round" stroke-linejoin="round"/>
  <path d="M15.3821 9.65723L11.1508 9.84974L11.5442 12.0193L12.1678 10.7087L13.6748 11.3973L15.3821 9.65723Z" fill="#CC6228" stroke="#CC6228" stroke-width="0.25" stroke-linecap="round" stroke-linejoin="round"/>
  <path d="M6.33263 11.3973L7.83217 10.7087L8.45577 12.0193L8.8492 9.84974L4.6178 9.65723L6.33263 11.3973Z" fill="#CC6228" stroke="#CC6228" stroke-width="0.25" stroke-linecap="round" stroke-linejoin="round"/>
  <path d="M4.61835 9.65723L6.39258 13.1151L6.33315 11.3973L4.61835 9.65723Z" fill="#E27525" stroke="#E27525" stroke-width="0.25" stroke-linecap="round" stroke-linejoin="round"/>
  <path d="M13.6746 11.3973L13.6078 13.1151L15.382 9.65723L13.6746 11.3973Z" fill="#E27525" stroke="#E27525" stroke-width="0.25" stroke-linecap="round" stroke-linejoin="round"/>
  <path d="M8.84948 9.84961L8.45599 12.0192L8.95337 14.581L9.06474 11.2046L8.84948 9.84961Z" fill="#E27525" stroke="#E27525" stroke-width="0.25" stroke-linecap="round" stroke-linejoin="round"/>
  <path d="M11.1505 9.84961L10.9426 11.1973L11.0465 14.581L11.5439 12.0192L11.1505 9.84961Z" fill="#E27525" stroke="#E27525" stroke-width="0.25" stroke-linecap="round" stroke-linejoin="round"/>
  <path d="M11.5443 12.0195L11.0469 14.5813L11.4033 14.8331L13.6081 13.1153L13.6749 11.3975L11.5443 12.0195Z" fill="#F5841F" stroke="#F5841F" stroke-width="0.25" stroke-linecap="round" stroke-linejoin="round"/>
  <path d="M6.33264 11.3975L6.39207 13.1153L8.59681 14.8331L8.95316 14.5813L8.45578 12.0195L6.33264 11.3975Z" fill="#F5841F" stroke="#F5841F" stroke-width="0.25" stroke-linecap="round" stroke-linejoin="round"/>
  <path d="M11.5886 17.1948L11.6108 16.4914L11.4178 16.3285H8.58205L8.39645 16.4914L8.41131 17.1948L6.03577 16.0693L6.8672 16.7505L8.55234 17.913H11.4401L13.1326 16.7505L13.9566 16.0693L11.5886 17.1948Z" fill="#C0AC9D" stroke="#C0AC9D" stroke-width="0.25" stroke-linecap="round" stroke-linejoin="round"/>
  <path d="M11.4034 14.8328L11.047 14.5811H8.95359L8.59731 14.8328L8.39685 16.4914L8.58245 16.3285H11.4182L11.6113 16.4914L11.4034 14.8328Z" fill="#161616" stroke="#161616" stroke-width="0.25" stroke-linecap="round" stroke-linejoin="round"/>
  <path d="M18.9749 6.05869L19.6059 2.99328L18.6557 0.142578L11.403 5.51081L14.1942 7.86538L18.136 9.01309L19.0046 7.99869L18.626 7.72469L19.2273 7.17681L18.7671 6.82138L19.3684 6.36229L18.9749 6.05869Z" fill="#763E1A" stroke="#763E1A" stroke-width="0.25" stroke-linecap="round" stroke-linejoin="round"/>
  <path d="M0.394043 2.99328L1.03247 6.05869L0.624174 6.36229L1.2329 6.82138L0.772643 7.17681L1.37395 7.72469L0.995346 7.99869L1.8639 9.01309L5.80581 7.86538L8.59701 5.51081L1.34425 0.142578L0.394043 2.99328Z" fill="#763E1A" stroke="#763E1A" stroke-width="0.25" stroke-linecap="round" stroke-linejoin="round"/>
  <path d="M18.1361 9.01289L14.1942 7.86523L15.382 9.65712L13.6078 13.1149L15.9536 13.0853H19.4575L18.1361 9.01289Z" fill="#F5841F" stroke="#F5841F" stroke-width="0.25" stroke-linecap="round" stroke-linejoin="round"/>
  <path d="M5.80557 7.86523L1.8637 9.01289L0.549744 13.0853H4.04622L6.39202 13.1149L4.61783 9.65712L5.80557 7.86523Z" fill="#F5841F" stroke="#F5841F" stroke-width="0.25" stroke-linecap="round" stroke-linejoin="round"/>
  <path d="M11.1506 9.8495L11.403 5.51047L12.5462 2.42285H7.45374L8.59694 5.51047L8.84934 9.8495L8.94585 11.2119L8.95328 14.5809H11.0467L11.0541 11.2119L11.1506 9.8495Z" fill="#F5841F" stroke="#F5841F" stroke-width="0.25" stroke-linecap="round" stroke-linejoin="round"/>
</svg>
