<svg width="18" height="18" viewBox="0 0 18 18" fill="none" xmlns="http://www.w3.org/2000/svg">
<circle cx="8.99935" cy="8.99999" r="8.33333" fill="#FFE562"/>
<path fill-rule="evenodd" clip-rule="evenodd" d="M8.67627 4.12323C8.35237 4.21704 8.10835 4.46279 8.05323 4.75068C8.00734 4.9904 8.00875 9.72531 8.0548 9.97148C8.10173 10.2223 8.32518 10.4714 8.58544 10.5631C8.84117 10.6532 9.20707 10.6464 9.44624 10.5471C9.70663 10.4389 9.90371 10.2083 9.95021 9.95733C9.97431 9.82726 9.98204 9.0165 9.976 7.24984L9.96738 4.72802L9.88627 4.57347C9.78431 4.37922 9.73247 4.32723 9.52383 4.21007C9.38254 4.13075 9.31019 4.11433 9.064 4.10575C8.90331 4.10015 8.72882 4.10801 8.67627 4.12323ZM8.84236 11.7877C8.658 11.8196 8.4108 11.9703 8.28999 12.1245C8.23805 12.1907 8.16148 12.3283 8.11982 12.4303C8.05388 12.5916 8.04575 12.6519 8.05719 12.8958C8.07736 13.3265 8.24158 13.6158 8.58109 13.8187C8.68927 13.8834 8.75834 13.8961 9.00174 13.8961C9.24514 13.8961 9.31421 13.8834 9.42239 13.8187C9.62766 13.696 9.75807 13.5475 9.85865 13.3221C9.93841 13.1433 9.95205 13.0742 9.95205 12.849C9.95205 12.6237 9.93841 12.5547 9.85865 12.3759C9.66632 11.9447 9.26764 11.714 8.84236 11.7877Z" fill="#161616"/>
</svg>
