<svg width="13" height="12" viewBox="0 0 13 12" fill="none" xmlns="http://www.w3.org/2000/svg">
  <g id="Frame">
    <path id="Vector" fill-rule="evenodd" clip-rule="evenodd" d="M6.14359 0.0421424C5.81697 0.131605 5.69502 0.220076 5.209 0.719992C4.91502 1.02239 4.74411 1.18034 4.69875 1.19162C4.66123 1.20092 4.40857 1.18534 4.13727 1.15697C3.55588 1.09615 3.36336 1.09332 3.15668 1.14255C2.68138 1.25582 2.26491 1.67048 2.14017 2.15462C2.12045 2.23109 2.08727 2.5344 2.06641 2.82868C2.0449 3.13197 2.01365 3.40557 1.99425 3.46033C1.96341 3.54745 1.91361 3.58897 1.48791 3.88257C1.22827 4.06166 0.955514 4.27054 0.881805 4.34674C0.635231 4.60162 0.502148 4.93703 0.500046 5.30896C0.497824 5.70695 0.575141 5.88921 0.998377 6.48371C1.17026 6.72517 1.32248 6.94454 1.3366 6.97121C1.38315 7.05915 1.36384 7.17438 1.21673 7.68713C1.00124 8.43803 0.997804 8.7276 1.19934 9.14835C1.29551 9.34912 1.57764 9.6378 1.78514 9.74767C1.88425 9.80017 2.12757 9.87683 2.52061 9.97927C2.84835 10.0648 3.12763 10.1505 3.15248 10.1732C3.17697 10.1957 3.30257 10.4492 3.43161 10.7368C3.56064 11.0243 3.7077 11.3225 3.75844 11.3993C4.01601 11.7892 4.48758 12.0211 4.96438 11.9925C5.23143 11.9764 5.35857 11.9314 5.94029 11.647C6.2055 11.5175 6.44904 11.4135 6.49128 11.412C6.54212 11.4101 6.74194 11.4937 7.10054 11.6669C7.39399 11.8087 7.6982 11.9412 7.77652 11.9615C8.30825 12.0991 8.93727 11.8575 9.23997 11.3993C9.29075 11.3225 9.43775 11.0243 9.56682 10.7368C9.69582 10.4492 9.82055 10.1965 9.84387 10.1751C9.86728 10.1537 10.1376 10.0712 10.4447 9.9918C11.1484 9.8097 11.2913 9.74452 11.5401 9.49215C11.7456 9.28365 11.8479 9.09937 11.9129 8.81985C11.9778 8.54062 11.95 8.30385 11.7814 7.69913C11.6345 7.17247 11.6157 7.05826 11.6618 6.97121C11.676 6.94454 11.8271 6.72622 11.9978 6.48607C12.1684 6.2459 12.3343 5.99691 12.3665 5.93273C12.4599 5.74632 12.4999 5.55826 12.5 5.30413C12.5001 5.10948 12.4887 5.03719 12.4311 4.86832C12.3531 4.63964 12.2368 4.44926 12.0856 4.30239C12.0289 4.24742 11.7837 4.06639 11.5406 3.90007C11.2975 3.73376 11.0728 3.56991 11.0415 3.53593C10.9874 3.47747 10.982 3.44214 10.9397 2.87549C10.9031 2.38461 10.884 2.2415 10.8337 2.0805C10.6525 1.50105 10.1223 1.10714 9.52168 1.10574C9.42965 1.10555 9.13243 1.12858 8.86115 1.15697C8.58988 1.18534 8.3372 1.201 8.2997 1.19177C8.25418 1.18056 8.0843 1.02359 7.78942 0.720209C7.33287 0.250485 7.23845 0.177085 6.95604 0.0724059C6.73075 -0.0110905 6.38493 -0.0239881 6.14359 0.0421424ZM8.89175 4.11938C8.9801 4.16576 9.04393 4.22276 9.09725 4.30276C9.2429 4.52146 9.25565 4.7255 9.13723 4.94534C9.0947 5.02435 8.64178 5.49697 7.6976 6.4476C6.17843 7.97715 6.2156 7.94565 5.83021 8.02763C5.53196 8.09107 5.19904 8.0292 4.93423 7.86105C4.75852 7.74952 3.93881 6.92518 3.86231 6.7831C3.6392 6.36871 3.92001 5.88653 4.38341 5.88822C4.62162 5.88909 4.69564 5.93858 5.16198 6.40855L5.58084 6.83069L6.92383 5.48861C7.88944 4.52365 8.29542 4.13342 8.36855 4.09982C8.52515 4.02802 8.73252 4.03574 8.89175 4.11938Z" fill="#49BF63"/>
  </g>
</svg>
