<svg width="22" height="23" viewBox="0 0 22 23" fill="none" xmlns="http://www.w3.org/2000/svg">
  <path fill-rule="evenodd" clip-rule="evenodd" d="M15 8.5C15 10.7091 13.2091 12.5 11 12.5C8.79086 12.5 7 10.7091 7 8.5C7 6.29086 8.79086 4.5 11 4.5C13.2091 4.5 15 6.29086 15 8.5ZM13 8.5C13 9.60457 12.1046 10.5 11 10.5C9.89543 10.5 9 9.60457 9 8.5C9 7.39543 9.89543 6.5 11 6.5C12.1046 6.5 13 7.39543 13 8.5Z" fill="#616161"/>
  <path fill-rule="evenodd" clip-rule="evenodd" d="M11 0.5C4.92487 0.5 0 5.42487 0 11.5C0 17.5751 4.92487 22.5 11 22.5C17.0751 22.5 22 17.5751 22 11.5C22 5.42487 17.0751 0.5 11 0.5ZM2 11.5C2 13.5902 2.71255 15.514 3.90798 17.0417C5.55245 14.8889 8.14627 13.5 11.0645 13.5C13.9448 13.5 16.5092 14.8531 18.1565 16.9583C19.313 15.4443 20 13.5524 20 11.5C20 6.52944 15.9706 2.5 11 2.5C6.02944 2.5 2 6.52944 2 11.5ZM11 20.5C8.84977 20.5 6.87565 19.7459 5.32767 18.4878C6.59352 16.6812 8.69106 15.5 11.0645 15.5C13.4084 15.5 15.4833 16.6521 16.7538 18.4209C15.1939 19.7191 13.1881 20.5 11 20.5Z" fill="#616161"/>
</svg>
