<svg width="16" height="17" viewBox="0 0 16 17" fill="none" xmlns="http://www.w3.org/2000/svg">
<g clip-path="url(#clip0_13487_101916)">
<path d="M8 16.5C12.4113 16.5 16 12.9113 16 8.5C16 4.08867 12.4113 0.5 8 0.500001C3.58866 0.500001 -1.08503e-06 4.08867 -6.99382e-07 8.5C-3.13731e-07 12.9113 3.58867 16.5 8 16.5Z" fill="#2196F3"/>
<path d="M8 16.5C12.4113 16.5 16 12.9113 16 8.5C16 4.08867 12.4113 0.5 8 0.500001L8 16.5Z" fill="#1D83D4"/>
<path d="M8.84536 3.97299L13.1787 8.13966C13.2767 8.23433 13.332 8.36433 13.332 8.50033C13.332 8.63633 13.2767 8.76633 13.1787 8.861L8.84536 13.0277C8.52869 13.333 7.99869 13.107 7.99869 12.667L7.99869 10.5003L4.16535 10.5003C3.70602 10.5003 3.33202 10.1263 3.33202 9.667L3.33202 7.33366C3.33202 6.87433 3.70602 6.50033 4.16535 6.50033L7.99869 6.50033L7.99869 4.33366C7.99869 3.89099 8.53069 3.67032 8.84536 3.97299Z" fill="white"/>
<path d="M3.33202 8.5L13.332 8.5C13.332 8.364 13.2767 8.234 13.1787 8.13933L8.84536 3.97268C8.74536 3.87601 8.62269 3.83268 8.50269 3.83268C8.24602 3.83335 7.99869 4.03201 7.99869 4.33335L7.99869 6.50001L4.16535 6.50001C3.70602 6.50001 3.33202 6.87401 3.33202 7.33334L3.33202 8.5Z" fill="#DEDEDE"/>
</g>
<defs>
<clipPath id="clip0_13487_101916">
<rect width="16" height="16" fill="white" transform="translate(16 16.5) rotate(180)"/>
</clipPath>
</defs>
</svg>
