<svg width="18" height="18" viewBox="0 0 18 18" fill="none" xmlns="http://www.w3.org/2000/svg">
<circle cx="8.9974" cy="9.0013" r="8.33333" fill="#E6C05D"/>
<path fill-rule="evenodd" clip-rule="evenodd" d="M8.67237 4.12475C8.34846 4.21856 8.10445 4.46432 8.04933 4.75221C8.00344 4.99192 8.00485 9.72683 8.05089 9.973C8.09782 10.2238 8.32127 10.473 8.58153 10.5646C8.83726 10.6547 9.20316 10.6479 9.44234 10.5486C9.70272 10.4404 9.8998 10.2098 9.94631 9.95886C9.9704 9.82878 9.97813 9.01803 9.97209 7.25137L9.96348 4.72955L9.88236 4.57499C9.7804 4.38074 9.72856 4.32875 9.51992 4.21159C9.37863 4.13227 9.30629 4.11586 9.06009 4.10727C8.8994 4.10168 8.72491 4.10954 8.67237 4.12475ZM8.83846 11.7892C8.6541 11.8211 8.40689 11.9719 8.28608 12.126C8.23415 12.1922 8.15757 12.3299 8.11591 12.4318C8.04997 12.5932 8.04185 12.6534 8.05328 12.8973C8.07345 13.328 8.23767 13.6173 8.57718 13.8202C8.68536 13.8849 8.75443 13.8976 8.99783 13.8976C9.24124 13.8976 9.3103 13.8849 9.41849 13.8202C9.62375 13.6975 9.75416 13.5491 9.85474 13.3236C9.93451 13.1448 9.94815 13.0757 9.94815 12.8505C9.94815 12.6253 9.93451 12.5562 9.85474 12.3774C9.66241 11.9463 9.26374 11.7155 8.83846 11.7892Z" fill="#F8F8FA"/>
</svg>
