<svg width="14" height="17" viewBox="0 0 14 17" fill="none" xmlns="http://www.w3.org/2000/svg">
<path fill-rule="evenodd" clip-rule="evenodd" d="M6.73647 0.0508348C6.67306 0.0785342 6.57908 0.141472 6.52766 0.190693C6.3478 0.362801 6.32599 0.440718 6.30824 0.974247L6.29176 1.46905L5.99022 1.53039C5.40848 1.64873 4.78065 1.91769 4.23294 2.28322C3.84717 2.54066 3.18416 3.21275 2.91964 3.61449C2.57053 4.14476 2.32067 4.73671 2.18219 5.36174C2.12322 5.62784 2.11331 5.83572 2.0917 7.25486C2.06488 9.01623 2.04743 9.19704 1.84408 9.81702C1.59435 10.5784 1.22027 11.1734 0.599233 11.7971C0.0608753 12.3378 0 12.4533 0 12.9342C0 13.2289 0.0101459 13.2872 0.0901271 13.4514C0.264419 13.8092 0.608358 14.0715 1.00095 14.146C1.25644 14.1945 12.7508 14.1922 13.0139 14.1436C13.3921 14.0738 13.7362 13.808 13.9099 13.4514C13.9899 13.2872 14 13.2289 14 12.9342C14 12.4567 13.9345 12.3295 13.4303 11.828C13.0022 11.4021 12.8093 11.1622 12.5787 10.7689C12.2917 10.2796 12.0954 9.74495 11.9895 9.16459C11.9427 8.90779 11.9276 8.55235 11.9081 7.25486C11.8869 5.83356 11.8771 5.62824 11.8179 5.36174C11.5986 4.37353 11.1807 3.61087 10.461 2.88517C9.75033 2.16857 8.93684 1.71897 8.00978 1.53039L7.70824 1.46905L7.69176 0.974247C7.67401 0.440718 7.6522 0.362868 7.47234 0.190627C7.27911 0.00556594 6.97322 -0.0525562 6.73647 0.0508348ZM4.43059 14.926C4.43059 15.0361 4.63644 15.5324 4.7737 15.7533C5.34026 16.665 6.43898 17.1556 7.46651 16.9558C8.18937 16.8152 8.79183 16.4108 9.20047 15.7918C9.34587 15.5716 9.56599 15.059 9.56833 14.9353C9.56935 14.8804 9.42552 14.8772 7 14.8772C4.7604 14.8772 4.43059 14.8834 4.43059 14.926Z" fill="#161616"/>
</svg>
