<svg width="17" height="14" viewBox="0 0 17 14" fill="none" xmlns="http://www.w3.org/2000/svg">
  <path d="M0.675326 2.00034V1.99992C0.675326 1.34778 1.18807 0.833252 1.83366 0.833252H15.167C15.8159 0.833252 16.3337 1.35106 16.3337 1.99992V11.9999C16.3337 12.6488 15.8159 13.1666 15.167 13.1666H1.83366C1.18486 13.1666 0.667091 12.6489 0.666992 12.0001C0.666992 12 0.666992 12 0.666992 11.9999L0.675326 2.00034ZM15.167 12.4999H15.667V11.9999V6.99992V6.49992H15.167H1.83366H1.33366V6.99992V11.9999V12.4999H1.83366H15.167ZM15.167 4.16658H15.667V3.66658V1.99992V1.49992H15.167H1.83366H1.33366V1.99992V3.66658V4.16658H1.83366H15.167Z" fill="#8C8C94" stroke="#8C8C94"/>
</svg>
