<svg width="93" height="76" viewBox="0 0 93 76" fill="none" xmlns="http://www.w3.org/2000/svg">
<path d="M46.4769 76C67.3791 76 84.3249 59.0197 84.3249 38C84.3249 16.9803 67.3045 0 46.4769 0C25.5747 0 8.62891 16.9803 8.62891 38C8.62891 59.0197 25.5747 76 46.4769 76Z" fill="#E0E0E7" fill-opacity="0.5"/>
<path d="M86.1857 25.96C87.8761 25.96 89.2464 24.5869 89.2464 22.8931C89.2464 21.1993 87.8761 19.8262 86.1857 19.8262C84.4953 19.8262 83.125 21.1993 83.125 22.8931C83.125 24.5869 84.4953 25.96 86.1857 25.96Z" fill="#E0E0E7"/>
<path d="M90.6644 13.9917C91.8188 13.9917 92.7547 13.054 92.7547 11.8972C92.7547 10.7405 91.8188 9.80273 90.6644 9.80273C89.51 9.80273 88.5742 10.7405 88.5742 11.8972C88.5742 13.054 89.51 13.9917 90.6644 13.9917Z" fill="#E0E0E7"/>
<path d="M10.7191 13.0913C11.8735 13.0913 12.8094 12.1536 12.8094 10.9968C12.8094 9.84008 11.8735 8.90234 10.7191 8.90234C9.56473 8.90234 8.62891 9.84008 8.62891 10.9968C8.62891 12.1536 9.56473 13.0913 10.7191 13.0913Z" fill="#E0E0E7"/>
<path d="M4.12794 53.4846C6.27182 53.4846 8.00978 51.7431 8.00978 49.5948C8.00978 47.4466 6.27182 45.7051 4.12794 45.7051C1.98406 45.7051 0.246094 47.4466 0.246094 49.5948C0.246094 51.7431 1.98406 53.4846 4.12794 53.4846Z" fill="#E0E0E7"/>
<path fill-rule="evenodd" clip-rule="evenodd" d="M45.0516 14.0535C43.0161 14.2312 40.591 14.7674 38.7482 15.4475C36.2808 16.358 36.2814 16.3567 37.3484 18.4951C37.7719 19.344 38.2117 20.14 38.3257 20.2638C38.6037 20.5658 38.9276 20.5482 39.81 20.1832C42.438 19.096 45.8697 18.5954 48.7536 18.8786C55.5861 19.5493 61.341 23.5577 64.3128 29.7159C67.0933 35.478 66.7858 42.2893 63.4964 47.7969C63.2141 48.2695 62.9662 48.6758 62.9454 48.6997C62.9246 48.7237 62.2856 48.1271 61.5256 47.3739C60.3261 46.1853 60.1012 46.0046 59.822 46.0046C59.6139 46.0046 59.4137 46.0912 59.2548 46.2502L59.0091 46.4958V51.2077V55.9197L59.2548 56.1653L59.5003 56.4109H64.212H68.9236L69.1691 56.1653C69.3283 56.0062 69.4148 55.8063 69.4148 55.5972C69.4148 55.3156 69.2251 55.0836 67.9139 53.7625C67.0885 52.9308 66.4131 52.2206 66.4131 52.1842C66.4131 52.1479 66.708 51.6769 67.0683 51.1377C67.919 49.8644 69.2014 47.2622 69.6969 45.8044C72.6699 37.0553 70.4711 27.5521 63.9655 21.0336C59.4058 16.4648 53.2073 13.923 46.817 14.0018C46.0662 14.0111 45.2717 14.0343 45.0516 14.0535ZM24.8362 19.834C24.677 19.9931 24.5906 20.1931 24.5906 20.4021C24.5906 20.6838 24.7803 20.9157 26.0914 22.2368C26.9168 23.0685 27.5922 23.7721 27.5922 23.8002C27.5922 23.8283 27.2956 24.2993 26.9332 24.8468C25.5353 26.958 24.2428 29.9635 23.6435 32.4963C23.0742 34.9024 22.8705 37.621 23.0812 40.0009C23.9424 49.7281 30.4179 57.8565 39.6987 60.8602C45.0111 62.5793 50.9495 62.3457 56.1066 60.2144C57.6638 59.5708 57.6708 59.536 56.6533 57.4968C56.2318 56.6519 55.7936 55.8594 55.6797 55.7355C55.3961 55.4275 55.0665 55.4505 54.0836 55.8469C49.9633 57.5081 45.1885 57.6365 40.8494 56.2027C39.6767 55.8152 37.5832 54.7857 36.447 54.0378C27.5866 48.2055 25.1448 36.2877 30.9878 27.3938C31.0669 27.2734 31.3564 27.5122 32.4738 28.6195C33.6788 29.8136 33.904 29.9948 34.1834 29.9948C34.3915 29.9948 34.5917 29.9081 34.7506 29.7491L34.9962 29.5036V24.7916V20.0796L34.7506 19.834L34.505 19.5884H29.7934H25.0818L24.8362 19.834ZM45.6019 25.2542C43.5233 25.5188 41.5329 26.2625 39.7988 27.4225C38.8347 28.0675 37.0712 29.8311 36.4263 30.7953C35.4737 32.2196 34.7992 33.8133 34.436 35.4981C34.1797 36.6874 34.1797 39.312 34.436 40.5012C34.9901 43.0718 36.1276 45.1606 37.9849 47.0181C39.5198 48.553 41.0224 49.4872 43.0334 50.1564C44.8693 50.7674 46.924 50.9475 48.8036 50.6619C51.662 50.2279 53.9824 49.0562 56.0204 47.0181C57.8777 45.1606 59.0153 43.0718 59.5694 40.5012C59.8257 39.312 59.8257 36.6874 59.5694 35.4981C59.0099 32.9029 57.8999 30.8677 56.017 28.9846C54.1675 27.135 52.2223 26.0556 49.7041 25.4814C48.8689 25.291 46.391 25.1537 45.6019 25.2542ZM47.5575 28.6394C47.7856 28.8675 47.8031 28.9565 47.8031 29.8882V30.8915L48.0783 30.9578C49.5369 31.309 50.8239 32.8509 50.9708 34.4233C51.028 35.0365 51.0149 35.0968 50.7729 35.3389C50.2597 35.8522 49.404 35.5082 49.404 34.7888C49.404 34.1668 49.1727 33.6592 48.6496 33.1328C48.0006 32.4798 47.3407 32.2888 46.4348 32.4915C45.9645 32.5968 45.7789 32.707 45.3558 33.1328C44.3655 34.1293 44.3487 35.522 45.3156 36.4889C45.774 36.9475 46.337 37.1554 47.343 37.2379C49.5169 37.4161 51.174 39.3999 50.9704 41.5805C50.8947 42.3913 50.4721 43.3255 49.9009 43.9452C49.5089 44.3707 48.2677 45.104 47.9398 45.104C47.8333 45.104 47.8031 45.3264 47.8031 46.1091C47.8031 47.043 47.7857 47.1318 47.5575 47.3599C47.4027 47.5148 47.1976 47.6055 47.0027 47.6055C46.8078 47.6055 46.6027 47.5148 46.4479 47.3599C46.2197 47.1318 46.2022 47.043 46.2022 46.1091C46.2022 45.3264 46.172 45.104 46.0656 45.104C45.7387 45.104 44.4965 44.3707 44.1064 43.9474C43.3663 43.1445 42.8529 41.703 43.0407 40.9551C43.1182 40.6464 43.633 40.3624 43.9643 40.4456C44.3411 40.5401 44.6014 40.8621 44.6014 41.2338C44.6014 42.047 45.1778 42.9784 45.918 43.3611C46.7776 43.8057 47.975 43.5954 48.6803 42.8759C49.623 41.9144 49.6435 40.6116 48.7318 39.5975C48.2352 39.0452 47.7545 38.851 46.6624 38.7614C45.265 38.6469 44.0685 37.8186 43.4279 36.5225C43.0711 35.8002 43.0505 35.7067 43.0505 34.8029C43.0505 33.9356 43.0802 33.7847 43.37 33.1726C43.872 32.1129 44.9278 31.1984 45.9271 30.9578L46.2022 30.8915V29.8882C46.2022 28.9565 46.2198 28.8675 46.4479 28.6394C46.6027 28.4845 46.8078 28.3938 47.0027 28.3938C47.1976 28.3938 47.4027 28.4845 47.5575 28.6394Z" fill="#7F7FB3" fill-opacity="0.5"/>
</svg>
