<svg width="28" height="28" viewBox="0 0 28 28" fill="none" xmlns="http://www.w3.org/2000/svg">
<path fill-rule="evenodd" clip-rule="evenodd" d="M14 11.8461C11.9506 11.8461 9.14526 12.0064 7.42162 12.1196C6.86495 12.1562 6.42428 12.577 6.36416 13.1197C6.23968 14.2434 6.10252 15.7431 6.10252 16.8718C6.10252 18.0004 6.23968 19.5001 6.36416 20.6238C6.42428 21.1665 6.86495 21.5873 7.42162 21.6239C9.14526 21.7371 11.9506 21.8974 14 21.8974C16.0493 21.8974 18.8547 21.7371 20.5783 21.6239C21.135 21.5873 21.5756 21.1665 21.6358 20.6238C21.7602 19.5001 21.8974 18.0004 21.8974 16.8718C21.8974 15.7431 21.7602 14.2434 21.6358 13.1197C21.5756 12.577 21.135 12.1562 20.5783 12.1196C18.8547 12.0064 16.0493 11.8461 14 11.8461ZM7.3275 10.6868C9.05165 10.5736 11.8988 10.4102 14 10.4102C16.1011 10.4102 18.9483 10.5736 20.6724 10.6868C21.9118 10.7682 22.9249 11.7153 23.0629 12.9616C23.1881 14.0912 23.3333 15.6581 23.3333 16.8718C23.3333 18.0854 23.1881 19.6523 23.0629 20.7819C22.9249 22.0282 21.9118 22.9753 20.6724 23.0567C18.9483 23.17 16.1011 23.3333 14 23.3333C11.8988 23.3333 9.05166 23.17 7.3275 23.0567C6.08813 22.9753 5.07506 22.0282 4.93699 20.7819C4.81185 19.6523 4.66663 18.0854 4.66663 16.8718C4.66663 15.6581 4.81185 14.0912 4.93699 12.9616C5.07506 11.7153 6.08813 10.7682 7.3275 10.6868Z" fill="#161616"/>
<path fill-rule="evenodd" clip-rule="evenodd" d="M14 8.97432C12.5062 8.97432 10.4981 9.04453 9.14652 9.09999C8.59952 9.12244 8.17779 9.50552 8.11171 9.99068C8.05626 10.3977 8.01705 10.8047 8.01705 11.1282C8.01705 11.5247 7.69562 11.8461 7.2991 11.8461C6.90259 11.8461 6.58116 11.5247 6.58116 11.1282C6.58116 10.709 6.63026 10.2277 6.68895 9.79687C6.85664 8.56576 7.90398 7.71388 9.08765 7.6653C10.4405 7.60979 12.4742 7.53842 14 7.53842C15.5258 7.53842 17.5595 7.60979 18.9123 7.6653C20.0959 7.71388 21.1433 8.56576 21.311 9.79687C21.3697 10.2277 21.4188 10.709 21.4188 11.1282C21.4188 11.5247 21.0973 11.8461 20.7008 11.8461C20.3043 11.8461 19.9829 11.5247 19.9829 11.1282C19.9829 10.8047 19.9437 10.3977 19.8882 9.99068C19.8221 9.50552 19.4004 9.12244 18.8534 9.09999C17.5018 9.04453 15.4938 8.97432 14 8.97432Z" fill="#161616"/>
<path fill-rule="evenodd" clip-rule="evenodd" d="M14 6.10252C13.1086 6.10252 11.9521 6.1522 11.03 6.20124C10.473 6.23087 10.0425 6.64377 9.99383 7.16134C9.95732 7.54965 9.93158 7.93898 9.93158 8.25637C9.93158 8.65288 9.61015 8.97432 9.21363 8.97432C8.81712 8.97432 8.49569 8.65288 8.49569 8.25637C8.49569 7.87361 8.52602 7.43336 8.56424 7.02692C8.68307 5.76314 9.72412 4.83277 10.9538 4.76737C11.8802 4.7181 13.0683 4.66663 14 4.66663C14.9316 4.66663 16.1197 4.7181 17.0462 4.76737C18.2758 4.83277 19.3168 5.76314 19.4357 7.02692C19.4739 7.43336 19.5042 7.87361 19.5042 8.25637C19.5042 8.65288 19.1828 8.97432 18.7863 8.97432C18.3898 8.97432 18.0683 8.65288 18.0683 8.25637C18.0683 7.93898 18.0426 7.54965 18.0061 7.16134C17.9574 6.64377 17.5269 6.23087 16.9699 6.20124C16.0478 6.1522 14.8914 6.10252 14 6.10252Z" fill="#161616"/>
<path fill-rule="evenodd" clip-rule="evenodd" d="M16.4888 15.4837C16.7268 15.8009 16.6625 16.2509 16.3453 16.4888L13.7926 18.4034C13.5373 18.5948 13.1863 18.5948 12.931 18.4034L11.6547 17.4461C11.3375 17.2082 11.2732 16.7582 11.5111 16.441C11.749 16.1238 12.199 16.0595 12.5162 16.2974L13.3618 16.9316L15.4837 15.3401C15.8009 15.1022 16.2509 15.1665 16.4888 15.4837Z" fill="#161616"/>
</svg>
