<svg width="21" height="17" viewBox="0 0 21 17" fill="none" xmlns="http://www.w3.org/2000/svg">
<path fill-rule="evenodd" clip-rule="evenodd" d="M19.6747 0.0545235C19.6039 0.0848024 19.4854 0.171665 19.4115 0.247546C19.3181 0.343422 18.5276 1.93653 16.8222 5.46617C14.1629 10.9699 14.2572 10.7484 14.375 11.2172C14.4038 11.3322 14.4844 11.5013 14.554 11.5931L14.6806 11.76L14.432 11.7332C13.6872 11.653 12.8802 12.0793 12.5328 12.7366C12.2222 13.3242 12.1559 14.0176 12.3171 14.9923C12.4501 15.7968 12.4247 16.2458 12.2085 16.9078C12.182 16.989 12.1934 17 12.3039 17C12.4916 17 13.0989 16.8446 13.4472 16.7075C14.5209 16.2846 15.4043 15.5008 15.9164 14.5166C16.1302 14.1056 16.1777 13.935 16.178 13.576C16.1784 13.0921 16.0047 12.667 15.6612 12.3111L15.5004 12.1444L15.6897 12.1374C16.1588 12.1201 16.5981 11.8498 16.7956 11.457C16.8547 11.3394 17.7921 8.93418 18.8788 6.1119C20.9232 0.801949 20.9253 0.795762 20.8089 0.500881C20.7472 0.344447 20.52 0.121801 20.3517 0.0528846C20.178 -0.0183261 19.8431 -0.0174657 19.6747 0.0545235ZM9.93608 0.473593C9.86529 0.481501 9.62397 0.507846 9.39981 0.532225C7.99089 0.685299 6.40342 1.21139 5.15259 1.93976C3.73744 2.76385 2.36477 4.08202 1.53489 5.41393C-0.0721046 7.99296 -0.433591 11.0337 0.527741 13.8861C0.622682 14.1678 0.765071 14.533 0.844095 14.6977C1.62104 16.3159 3.43791 17.2419 5.24349 16.9399C6.36918 16.7516 7.25089 16.2111 7.95254 15.2791C8.90465 14.0146 9.93707 13.1829 11.213 12.6525C11.6278 12.4801 11.6333 12.4759 11.7819 12.2222C12.0711 11.7282 12.6557 11.2379 13.1861 11.0444C13.3765 10.975 13.3863 10.9634 13.411 10.7798C13.4252 10.6742 13.456 10.5048 13.4795 10.4034C13.5029 10.302 14.3514 8.50102 15.365 6.40129C16.3786 4.30156 17.2073 2.56841 17.2067 2.54985C17.2052 2.50453 16.7621 2.20609 16.2933 1.93464C14.601 0.954572 12.5989 0.431555 10.6225 0.453189C10.3158 0.456548 10.0069 0.465726 9.93608 0.473593ZM12.4272 2.41751C13.2003 2.55358 13.7826 3.11855 13.9159 3.86216C14.0132 4.40473 13.8238 4.95606 13.4018 5.35812C12.6498 6.07469 11.5129 6.05146 10.7813 5.30457C10.4188 4.93446 10.3249 4.69383 10.3249 4.13455C10.3249 3.57867 10.4194 3.33398 10.7739 2.97215C11.0655 2.67432 11.3526 2.5126 11.7273 2.43484C12.0672 2.36432 12.1178 2.36309 12.4272 2.41751ZM7.40829 4.09182C8.53831 4.62204 8.79873 5.98943 7.93568 6.86096C7.05809 7.74716 5.54745 7.51653 4.97794 6.4094C4.83739 6.13623 4.83083 6.10325 4.83083 5.67189C4.83083 5.24991 4.83971 5.20238 4.96661 4.94663C5.19592 4.48438 5.55444 4.17835 6.07441 4.0011C6.23756 3.94546 6.38866 3.93075 6.70042 3.94014C7.06676 3.95116 7.14359 3.96763 7.40829 4.09182ZM20.0026 5.72225C19.9766 5.7842 19.4361 7.18407 18.8013 8.83306C18.0492 10.7872 17.6 11.8982 17.5114 12.0236C17.4366 12.1294 17.3861 12.2261 17.399 12.2385C17.4405 12.2782 18.1192 12.1214 18.452 11.9953C19.4403 11.6207 20.3498 10.7544 20.7217 9.83341C20.9539 9.25848 21.0011 9.00761 21 8.35475C20.9988 7.65632 20.9301 7.35591 20.6032 6.61918C20.4191 6.20413 20.1014 5.60957 20.0639 5.60957C20.0561 5.60957 20.0285 5.6603 20.0026 5.72225ZM4.64245 8.9702C5.61352 9.14605 6.2905 10.0261 6.14438 10.9226C6.0164 11.7075 5.4027 12.2937 4.58076 12.4159C3.62466 12.558 2.70631 11.8981 2.53003 10.9423C2.40017 10.2381 2.84407 9.43995 3.53813 9.12975C3.95796 8.94209 4.25247 8.89956 4.64245 8.9702Z" fill="black"/>
</svg>

