<svg width="19" height="18" viewBox="0 0 19 18" fill="none" xmlns="http://www.w3.org/2000/svg">
  <path d="M9.52177 12.0854V12.8996H8.53257V12.0472C7.58574 11.9222 6.69811 11.4451 6 10.6862L6.78258 9.55411C7.27049 10.0975 7.87535 10.4757 8.53257 10.6482V8.16769C7.1955 7.76059 6.29345 7.20125 6.29345 5.69996C6.29345 4.32624 7.19558 3.27006 8.53257 3.07962V2.30371H9.52177V3.09242C10.3702 3.19509 11.1692 3.60914 11.8044 4.27534L11.0651 5.44555C10.6264 4.98235 10.096 4.65448 9.52177 4.49163V6.88297C11.0109 7.27728 12 7.87509 12 9.42691C12 10.8898 11.0978 11.9582 9.52177 12.0854ZM8.53257 6.57767V4.46614C8.00003 4.61874 7.66293 5.06395 7.66293 5.56005C7.66293 6.06886 7.9456 6.33597 8.53257 6.57767ZM10.6413 9.57951C10.6413 8.99441 10.2934 8.7273 9.52177 8.4602V10.7244C10.2609 10.6226 10.6413 10.1393 10.6413 9.57951Z" fill="#F8F8FA"/>
  <path d="M4.50027 10.9275C6.9857 10.9275 9.00054 8.9275 9.00054 6.46034C9.00054 3.99319 6.9857 1.99316 4.50027 1.99316C2.01484 1.99316 0 3.99319 0 6.46034C0 8.9275 2.01484 10.9275 4.50027 10.9275Z" fill="#FFE14D"/>
  <path d="M9.00027 6.46034C9.00027 3.99713 6.98145 1.99316 4.5 1.99316V10.9275C6.98145 10.9275 9.00027 8.92354 9.00027 6.46034Z" fill="#FFBB33"/>
  <path d="M4.49825 9.86306C2.60814 9.86306 1.07031 8.33656 1.07031 6.46035C1.07031 4.58413 2.60814 3.05762 4.49825 3.05762C6.38836 3.05762 7.92617 4.58413 7.92617 6.46035C7.92617 8.33656 6.38836 9.86306 4.49825 9.86306Z" fill="#FFBB33"/>
  <path d="M7.92792 6.46035C7.92792 4.58413 6.39011 3.05762 4.5 3.05762V9.86306C6.39011 9.86306 7.92792 8.33656 7.92792 6.46035Z" fill="#E68A2E"/>
  <path fill-rule="evenodd" clip-rule="evenodd" d="M4.76572 6.21674V5.18185C5.06899 5.25572 5.29309 5.44941 5.29309 5.67206C5.29309 5.81674 5.41103 5.9338 5.55678 5.9338C5.70253 5.9338 5.82047 5.81674 5.82047 5.67206C5.82047 5.16632 5.36691 4.74348 4.76572 4.64625V4.36331C4.76572 4.21863 4.64778 4.10156 4.50203 4.10156C4.35628 4.10156 4.23834 4.21863 4.23834 4.36331V4.64625C3.63715 4.74348 3.18359 5.16632 3.18359 5.67206C3.18359 6.17779 3.63715 6.60064 4.23834 6.69787V7.73275C3.93507 7.65889 3.71097 7.46519 3.71097 7.24254C3.71097 7.09787 3.59303 6.9808 3.44728 6.9808C3.30153 6.9808 3.18359 7.09787 3.18359 7.24254C3.18359 7.74828 3.63715 8.17112 4.23834 8.26835V8.55385C4.23834 8.69852 4.35628 8.81556 4.50203 8.81556C4.64778 8.81556 4.76572 8.69852 4.76572 8.55385V8.26835C5.36691 8.17112 5.82047 7.74828 5.82047 7.24254C5.82047 6.73681 5.36691 6.31395 4.76572 6.21674ZM3.71239 5.67201C3.71239 5.44937 3.93649 5.25567 4.23976 5.18181V6.16221C3.93649 6.08833 3.71239 5.89464 3.71239 5.67201ZM4.76462 6.75256V7.73296C5.06789 7.65908 5.29199 7.4654 5.29199 7.24276C5.29199 7.02012 5.06789 6.82642 4.76462 6.75256Z" fill="#FFE14D"/>
  <path fill-rule="evenodd" clip-rule="evenodd" d="M4.7676 8.26835V8.55385C4.7676 8.69852 4.64966 8.81556 4.50391 8.81556V4.10156C4.64966 4.10156 4.7676 4.21863 4.7676 4.36331V4.64625C5.36879 4.74348 5.82234 5.16632 5.82234 5.67206C5.82234 5.81674 5.7044 5.9338 5.55865 5.9338C5.41291 5.9338 5.29497 5.81674 5.29497 5.67206C5.29497 5.44941 5.07087 5.25572 4.7676 5.18185V6.21674C5.36879 6.31397 5.82234 6.73681 5.82234 7.24254C5.82234 7.74828 5.36879 8.17112 4.7676 8.26835ZM5.29417 7.24276C5.29417 7.02011 5.07007 6.82642 4.7668 6.75256V7.73296C5.07007 7.65909 5.29417 7.4654 5.29417 7.24276Z" fill="#FFBB33"/>
  <path d="M13.0003 10.9271C15.7715 10.9271 18.0006 8.71432 18.0006 5.96353C18.0006 3.21274 15.7715 1 13.0003 1C10.2291 1 8 3.21274 8 5.96353C8 8.71432 10.2291 10.9271 13.0003 10.9271Z" fill="#2775CA" stroke="white" stroke-width="0.470002"/>
  <path d="M14.381 6.74876C14.381 6.02507 13.9435 5.7769 13.0684 5.67316C12.4434 5.59027 12.3184 5.42498 12.3184 5.13561C12.3184 4.84623 12.5269 4.6601 12.9434 4.6601C13.3184 4.6601 13.527 4.78419 13.631 5.09441C13.652 5.15646 13.7145 5.19765 13.777 5.19765H14.1105C14.194 5.19765 14.2565 5.13561 14.2565 5.05272V5.03187C14.173 4.57671 13.798 4.2253 13.3189 4.1841V3.68775C13.3189 3.60486 13.2564 3.54281 13.1524 3.52246H12.8399C12.7564 3.52246 12.6939 3.58451 12.6734 3.68775V4.16325C12.0484 4.24614 11.6523 4.65961 11.6523 5.17681C11.6523 5.85929 12.0689 6.12831 12.9439 6.23156C13.5275 6.3348 13.715 6.45889 13.715 6.78995C13.715 7.12102 13.4235 7.34835 13.0274 7.34835C12.4859 7.34835 12.2984 7.12102 12.2359 6.8108C12.2149 6.72791 12.1524 6.68671 12.0899 6.68671H11.7359C11.6523 6.68671 11.5898 6.74876 11.5898 6.83165V6.85249C11.6733 7.36969 12.0064 7.74196 12.6939 7.8452V8.34155C12.6939 8.42444 12.7564 8.48649 12.8604 8.50684H13.1729C13.2564 8.50684 13.3189 8.44479 13.3394 8.34155V7.8452C13.964 7.74146 14.381 7.30715 14.381 6.74876Z" fill="white"/>
  <path fill-rule="evenodd" clip-rule="evenodd" d="M10.0821 4.95036C9.4776 6.54266 10.3112 8.34194 11.9363 8.92118C11.9988 8.96288 12.0613 9.04527 12.0613 9.10781V9.39719C12.0613 9.43888 12.0613 9.45923 12.0403 9.48008C12.0193 9.56297 11.9363 9.60416 11.8527 9.56297C10.6862 9.1907 9.79012 8.30124 9.4151 7.14325C8.79006 5.17818 9.87363 3.08953 11.8527 2.46909C11.8737 2.44824 11.9152 2.44824 11.9363 2.44824C12.0198 2.46859 12.0613 2.53064 12.0613 2.61353V2.9029C12.0613 3.00664 12.0198 3.06868 11.9363 3.10988C11.0822 3.4201 10.3947 4.08174 10.0821 4.95036ZM13.9583 2.55133C13.9793 2.46844 14.0623 2.42725 14.1458 2.46844C15.2919 2.84071 16.2084 3.73017 16.5835 4.90851C17.2085 6.87358 16.1249 8.96223 14.1458 9.58267C14.1248 9.60352 14.0833 9.60352 14.0623 9.60352C13.9788 9.58317 13.9373 9.52112 13.9373 9.43823V9.14886C13.9373 9.04512 13.9788 8.98308 14.0623 8.94188C14.9164 8.63166 15.6039 7.97002 15.9164 7.1014C16.521 5.5091 15.6874 3.70982 14.0623 3.13058C13.9998 3.08888 13.9373 3.00649 13.9373 2.9236V2.63422C13.9373 2.59253 13.9373 2.57218 13.9583 2.55133Z" fill="white"/>
  <path d="M14.7657 11.9562C14.7657 15.1144 12.1861 17.6775 9.00036 17.6775C5.8146 17.6775 3.235 15.1144 3.235 11.9562C3.235 8.79812 5.8146 6.235 9.00036 6.235C12.1861 6.235 14.7657 8.79812 14.7657 11.9562Z" fill="#E4E2E2" stroke="white" stroke-width="0.470002"/>
  <path d="M9.09315 15.7913C7.27124 15.7913 5.85589 14.9143 5.39929 13.5027L5.29688 13.1868L5.59633 13.0434C5.62799 13.0279 6.41355 12.6326 6.36469 11.8553C6.31309 11.0347 5.64851 10.6496 5.62017 10.6337L5.32815 10.4685L5.45422 10.1566C6.05175 8.71168 7.41237 7.84961 9.09335 7.84961C10.4145 7.84961 11.5724 8.36669 12.2694 9.26811L12.4453 9.49601L11.0564 11.3676L10.7464 11.0678C10.7403 11.0621 10.08 10.438 9.31363 10.4344C8.57517 10.4309 8.28413 10.7091 8.27201 10.7211L7.72491 10.1956C7.77495 10.1421 8.24387 9.66772 9.31695 9.67575C10.0007 9.67888 10.5914 10.0057 10.9399 10.2529L11.4846 9.51892C10.9198 8.93742 10.0648 8.60869 9.09354 8.60869C7.83926 8.60869 6.80917 9.18999 6.28142 10.1783C6.60041 10.446 7.06855 10.976 7.12133 11.8075C7.17781 12.7062 6.60296 13.2712 6.22904 13.541C6.67157 14.4677 7.73937 15.0316 9.09373 15.0316C10.0317 15.0316 10.9919 14.6665 11.5847 14.102L10.9653 13.3257C10.6355 13.5593 10.072 13.8627 9.33513 13.9011C8.28882 13.9549 7.67018 13.4735 7.64438 13.4529L8.11486 12.8581C8.12932 12.8687 8.54957 13.1823 9.29565 13.143C10.1787 13.0976 10.7452 12.5304 10.7505 12.5243L11.0501 12.2191L11.3181 12.5521L12.57 14.1221L12.3781 14.3592C11.6739 15.2291 10.385 15.7913 9.09315 15.7913Z" fill="url(#paint0_linear_11918_91666)"/>
  <defs>
    <linearGradient id="paint0_linear_11918_91666" x1="9.7045" y1="5.8316" x2="3.2772" y2="10.8422" gradientUnits="userSpaceOnUse">
      <stop offset="0.0733" stop-color="#F46881"/>
      <stop offset="0.083" stop-color="#F36682"/>
      <stop offset="0.2596" stop-color="#E74596"/>
      <stop offset="0.407" stop-color="#E031A2"/>
      <stop offset="0.5065" stop-color="#DD2AA6"/>
      <stop offset="0.8882" stop-color="#5210E2"/>
    </linearGradient>
  </defs>
</svg>
