<svg width="88" height="88" viewBox="0 0 88 88" fill="none" xmlns="http://www.w3.org/2000/svg">
<path d="M46.5781 70.2247L44 69.0938L41.4219 70.2247C39.2281 71.0028 37.4871 72.7437 36.7091 74.9375L34.7188 77.5156L36.7091 80.0938C37.7733 83.0943 40.639 85.25 44 85.25C47.361 85.25 50.2267 83.0943 51.2909 80.0938L53.625 77.5156L51.2909 74.9375C50.5129 72.7437 48.7719 71.0028 46.5781 70.2247ZM71.4149 23.9327C68.1888 11.5545 56.9377 2.75 44 2.75C31.0623 2.75 19.8113 11.5546 16.5849 23.9327C7.01061 25.9017 0 34.2292 0 44C0 55.3726 9.32937 64.625 20.7969 64.625H41.4219L43.8281 67.2031L46.5781 64.625H67.2031C78.6706 64.625 88 55.3726 88 44C88 34.2292 80.9894 25.9017 71.4149 23.9327Z" fill="url(#paint0_linear)"/>
<path d="M18.2188 74.9375C16.7949 74.9375 15.6406 76.0918 15.6406 77.5156C15.6406 78.9394 16.7949 80.0938 18.2188 80.0938H36.7091C36.4229 79.2868 36.2656 78.4193 36.2656 77.5156C36.2656 76.6119 36.4229 75.7445 36.7091 74.9375H18.2188ZM41.4219 70.2247C42.2288 69.9385 43.0961 69.7812 44 69.7812C44.9039 69.7812 45.7712 69.9385 46.5781 70.2247V64.625H41.4219V70.2247ZM69.7812 74.9375H51.2909C51.5771 75.7445 51.7344 76.6119 51.7344 77.5156C51.7344 78.4193 51.5771 79.2868 51.2909 80.0938H69.7812C71.2051 80.0938 72.3594 78.9394 72.3594 77.5156C72.3594 76.0918 71.2051 74.9375 69.7812 74.9375ZM33.6875 49.1562H54.3125C55.7363 49.1562 56.8906 48.0019 56.8906 46.5781V41.4219C56.8906 39.9981 55.7363 38.8438 54.3125 38.8438C52.8887 38.8438 51.7344 39.9981 51.7344 41.4219V44H36.2656V41.4219C36.2656 39.9981 35.1113 38.8438 33.6875 38.8438C32.2637 38.8438 31.1094 39.9981 31.1094 41.4219V46.5781C31.1094 48.0019 32.2637 49.1562 33.6875 49.1562ZM42.1771 38.0885C42.6803 38.5921 43.3402 38.8438 44 38.8438C44.6598 38.8438 45.3197 38.5921 45.8229 38.0885L50.9792 32.9323C51.986 31.9254 51.986 30.2931 50.9792 29.2863C49.9725 28.2795 48.34 28.2795 47.3332 29.2863L46.5781 30.0415V20.7969C46.5781 19.3731 45.4238 18.2188 44 18.2188C42.5762 18.2188 41.4219 19.3731 41.4219 20.7969V30.0415L40.6667 29.2863C39.66 28.2795 38.0275 28.2795 37.0207 29.2863C36.0138 30.2931 36.0138 31.9254 37.0207 32.9323L42.1771 38.0885Z" fill="url(#paint1_linear)"/>
<defs>
<linearGradient id="paint0_linear" x1="44" y1="85.25" x2="44" y2="2.75" gradientUnits="userSpaceOnUse">
<stop stop-color="#00B59C"/>
<stop offset="1" stop-color="#9CFFAC"/>
</linearGradient>
<linearGradient id="paint1_linear" x1="44" y1="80.0938" x2="44" y2="18.2188" gradientUnits="userSpaceOnUse">
<stop stop-color="#C3FFE8"/>
<stop offset="0.9973" stop-color="#F0FFF4"/>
</linearGradient>
</defs>
</svg>
