<svg width="199" height="170" viewBox="0 0 199 170" fill="none" xmlns="http://www.w3.org/2000/svg">
  <path d="M170.701 85.04C170.701 102.08 165.657 118 156.931 131.28C155.009 134.32 152.928 137.04 150.686 139.76C135.075 158.24 111.699 170 85.6804 170C59.6619 170 36.2854 158.16 20.6743 139.76C18.4327 137.04 16.3512 134.32 14.4299 131.36C12.1883 127.84 10.0268 124.08 8.26552 120.16C6.90456 117.04 5.5436 113.84 4.58291 110.48C2.90172 105.44 1.78093 100.4 1.14048 95.12C0.900306 93.84 0.82025 92.56 0.740193 91.12C0.660136 89.12 0.500023 86.96 0.500023 84.88C0.500023 61.12 10.1869 39.76 25.878 24.32C27.4791 22.72 29.2404 21.2 30.9216 19.68C45.8121 7.52 64.8656 0 85.6804 0C102.332 0 117.943 4.8 131.153 13.12C131.793 13.44 132.353 13.84 132.994 14.32C133.554 14.72 134.195 15.04 134.675 15.52C137.877 17.76 141 20.24 143.802 22.96C145.483 24.56 147.164 26.16 148.605 27.92C150.446 30 152.288 32.08 153.889 34.4C154.289 34.96 154.609 35.44 155.09 36C155.49 36.56 155.81 37.04 156.29 37.6C161.094 44.72 164.776 52.56 167.338 60.88C167.738 62.4 168.219 63.76 168.539 65.28C169.9 71.52 170.701 78.16 170.701 85.04Z" fill="#DFDFE6" fill-opacity="0.48"/>
  <path d="M163.575 131.28V139.76H20.5942C18.3526 137.04 16.2711 134.32 14.3497 131.36H163.575V131.28Z" fill="#D2D2D9"/>
  <mask id="mask0_6975_50337" style="mask-type:alpha" maskUnits="userSpaceOnUse" x="0" y="0" width="86" height="170">
    <path d="M20.6743 139.76C36.2854 158.16 59.6619 170 85.6804 170V0C64.8656 0 45.8121 7.52 30.9216 19.68C29.2404 21.2 27.4791 22.72 25.878 24.32C10.1869 39.76 0.500023 61.12 0.500023 84.88C0.500023 86.96 0.660136 89.12 0.740193 91.12C0.82025 92.56 0.900306 93.84 1.14048 95.12C1.78093 100.4 2.90172 105.44 4.58291 110.48C5.5436 113.84 6.90456 117.04 8.26552 120.16C10.0268 124.08 12.1883 127.84 14.4299 131.36C16.3512 134.32 18.4327 137.04 20.6743 139.76Z" fill="#C4C4C4"/>
  </mask>
  <g mask="url(#mask0_6975_50337)">
    <path d="M37.9807 129.84C37.9807 130.56 37.4203 131.12 36.7799 131.36C36.6998 131.36 36.5397 131.36 36.4596 131.36H-5.65019C-7.89177 127.84 -10.0533 124.08 -11.8146 120.16C-9.89319 116.96 -8.7724 113.52 -8.29206 110.48C-8.05189 109.44 -7.97183 108.48 -7.89177 107.44H23.8907C23.9708 108.4 24.211 109.36 24.4511 110.48C25.652 116.24 28.7742 123.44 35.3388 128.32H36.3796C37.3403 128.32 37.9807 129.04 37.9807 129.84Z" fill="#DDDDE4"/>
    <path d="M67.8419 23.44V106.88C67.8419 108.88 66.2408 110.4 64.3194 110.4H-15.4171C-17.0182 105.6 -18.139 100.56 -18.7794 95.28C-19.0196 94 -19.0997 92.72 -19.1797 91.28C-19.2598 89.2 -19.4199 87.12 -19.4199 85.04C-19.4199 61.28 -9.73304 39.92 5.95807 24.48C7.55921 22.88 9.32046 21.36 11.0016 19.84H64.1593C66.3208 19.84 67.8419 21.6 67.8419 23.44Z" fill="#E2E2E6"/>
    <path d="M67.8419 23.44V95.28H-18.7794C-19.0196 94 -19.0997 92.72 -19.1797 91.28C-19.2598 89.2 -19.4199 87.12 -19.4199 85.04C-19.4199 61.28 -9.73304 39.92 5.95807 24.48C7.55921 22.88 9.32046 21.36 11.0016 19.84H64.1593C66.3208 19.84 67.8419 21.6 67.8419 23.44Z" fill="#D2D2D9"/>
    <path d="M63.1984 24.48V91.36H-19.0999C-19.18 89.28 -19.3401 87.2 -19.3401 85.12C-19.3401 61.36 -9.6532 40 6.03791 24.56H63.1984V24.48Z" fill="white"/>
    <path d="M7.6389 106.16C9.24003 106.16 10.5209 104.88 10.5209 103.28C10.5209 101.68 9.24003 100.4 7.6389 100.4C6.03776 100.4 4.75686 101.68 4.75686 103.28C4.75686 104.88 6.03776 106.16 7.6389 106.16Z" fill="white"/>
  </g>
  <path d="M43.4906 111.76V115.2H41.0889C39.7279 115.2 38.5271 116.4 38.5271 117.76V122.56C38.5271 123.92 39.7279 125.12 41.0889 125.12H43.4906V128.8C43.4906 130.08 44.5313 131.2 45.8923 131.2H56.5398C57.8207 131.2 58.9415 130.16 58.9415 128.8V111.6H43.4906V111.76ZM41.0889 123.36C40.7687 123.36 40.4484 123.04 40.4484 122.72V117.92C40.4484 117.6 40.7687 117.28 41.0889 117.28H43.4906V123.44H41.0889V123.36Z" fill="#AAABBB"/>
  <path d="M51.3359 91.5197C52.2965 93.9197 52.5367 96.3197 51.0957 98.1597C49.7347 100.08 48.694 102.64 50.135 104.64C51.496 106.56 51.9763 108.08 51.4159 109.04C50.8555 110 51.4159 108.96 53.2572 106.88C54.8584 105.2 51.9763 103.76 51.8963 102.4C51.8162 101.12 53.4173 98.3997 53.4173 96.6397C53.3373 94.7197 52.4567 92.2397 51.3359 91.5197Z" fill="white"/>
  <path d="M47.3333 102C47.7336 103.2 47.8937 104.4 47.2532 105.36C46.6128 106.32 46.0524 107.6 46.8529 108.56C47.5734 109.52 47.7336 110.24 47.4934 110.8C47.2532 111.36 47.4934 110.8 48.4541 109.76C49.1746 108.88 47.8136 108.16 47.7336 107.52C47.6535 106.88 48.4541 105.6 48.4541 104.64C48.374 103.6 47.9737 102.4 47.3333 102Z" fill="white"/>
  <path d="M90.1634 114C91.044 112.08 94.0061 108.4 97.0483 106.88C97.4485 106.64 97.9289 106.8 98.089 107.2C98.9696 108.72 101.131 112.56 100.331 116.32C99.2899 120.88 90.1634 114 90.1634 114Z" fill="#AAABBB"/>
  <path d="M86.4006 114.32C86.4006 114.32 82.5579 110.16 80.0762 108.64C79.4357 108.32 78.7152 108.56 78.395 109.2C75.673 114.32 75.673 120.24 76.3135 123.36C77.034 126.72 82.7981 117.44 82.7981 117.44L86.4006 114.32Z" fill="#AAABBB"/>
  <path d="M84.6393 115.68C84.6393 115.68 82.2376 113.12 80.7966 112.16C80.3963 112 79.916 112.08 79.7559 112.48C78.1547 115.68 78.0747 119.28 78.555 121.2C79.0354 123.28 82.5579 117.52 82.5579 117.52L84.6393 115.68Z" fill="#D2D2D9"/>
  <path d="M92.6452 114.24C93.1255 112.96 95.0469 110.56 96.8882 109.6C97.1283 109.52 97.3685 109.6 97.6087 109.84C98.089 110.8 99.45 113.28 98.9697 115.76C98.3292 118.8 92.6452 114.24 92.6452 114.24Z" fill="#D2D2D9"/>
  <path d="M167.739 163.76C159.573 160.32 160.774 149.6 161.574 139.68C162.295 139.68 162.935 139.68 163.656 139.68C163.656 136.88 163.656 134 163.656 131.2C163.656 131.12 159.893 131.28 159.493 131.28C157.652 131.28 156.691 130.24 155.17 129.6C155.33 129.68 154.77 134 154.689 134.48C152.048 146.08 146.684 150.16 151.727 155.52C153.248 157.12 153.969 160.56 150.446 162.08C146.924 163.44 144.843 158.32 143.642 155.84C141.56 151.52 143.321 145.12 145.563 132C145.563 132 120.665 131.92 113.54 132C113.06 134 109.057 147.92 108.497 150.8C107.616 155.12 109.057 158.24 109.377 160.56C109.698 163.04 105.535 164.72 102.412 161.92C98.4096 158.24 102.653 152.56 103.213 139.92C103.213 139.2 103.453 131.44 102.973 131.44C94.727 131.44 86.5612 131.36 78.3154 131.52C77.3547 131.52 75.9137 131.92 75.3533 131.04C70.8701 124.48 82.2382 109.68 94.8871 113.52C96.9686 114.16 99.2102 115.52 101.452 115.68C101.452 115.68 102.733 115.28 109.217 110.56C120.105 104.32 133.795 104.8 142.281 106.8C153.729 109.52 155.73 118.72 159.013 122.8C163.736 128.72 168.219 130.24 167.579 144.72C167.338 150.56 167.258 153.68 172.062 157.04C175.264 159.6 172.702 165.84 167.739 163.76Z" fill="white"/>
  <path d="M91.3642 130.08C90.4835 130.16 89.3628 130.32 88.322 130.32C88.0018 130.32 87.6015 130.32 87.2813 130.4C83.7588 130.48 80.3964 130 79.9161 127.36C79.5958 125.28 82.5579 122.64 84.1591 121.76C89.6029 118.72 95.2069 123.2 95.8473 125.92C96.3277 128.24 93.8459 129.68 91.3642 130.08Z" fill="#D2D2D9"/>
  <path d="M87.8421 127.2C88.7227 127.2 89.4432 126.88 89.4432 126.4C89.4432 125.92 88.7227 125.6 87.8421 125.6C86.9614 125.6 86.2409 125.92 86.2409 126.4C86.2409 126.88 86.9614 127.2 87.8421 127.2Z" fill="#AAABBB"/>
  <path d="M88.6425 127.2V130.32C88.1622 130.32 87.5218 130.4 87.0414 130.4V127.28L88.6425 127.2Z" fill="#AAABBB"/>
  <path d="M109.297 160.56C109.617 163.04 105.454 164.72 102.332 161.92C99.21 159.04 102.092 149.36 102.893 144.24C103.293 141.52 103.293 138.24 103.213 135.68C104.574 137.36 107.936 141.6 110.338 143.84C109.617 146.64 108.817 149.2 108.497 150.96C107.616 155.04 108.897 158.16 109.297 160.56Z" fill="#D2D2D9"/>
  <path d="M151.567 155.6C153.088 157.2 153.809 160.64 150.286 162.16C146.764 163.52 144.682 158.4 143.482 155.92C142.281 153.44 142.521 147.52 143.482 142.72C143.802 141.04 144.202 139.2 144.442 137.6C145.163 138 145.963 138.48 146.604 138.96C148.285 140.24 149.966 141.76 151.887 142.8C151.007 145.28 150.286 147.28 149.806 148.24C148.765 150.88 150.046 154 151.567 155.6Z" fill="#D2D2D9"/>
  <path d="M171.982 163.28C169.58 165.52 165.497 162.96 163.255 160.4C161.014 157.84 160.533 149.84 161.334 142.88C161.414 141.68 161.574 140.64 161.414 139.68H163.576V131.2H157.011C156.931 131.12 156.771 130.96 156.691 130.88C156.771 130.56 156.931 130.16 157.011 129.84C157.571 128.16 156.691 126.48 158.612 122.88C159.172 123.76 159.653 124.24 160.213 124.72C161.254 125.68 162.375 126.4 164.296 129.12C168.059 134.24 167.498 145.04 167.338 149.28C167.258 153.68 170.22 156.4 172.062 157.12C173.663 157.92 174.303 161.04 171.982 163.28Z" fill="#D2D2D9"/>
  <path d="M93.4458 117.76H93.3658L91.1242 117.44C90.7239 117.44 90.4837 117.04 90.4837 116.72C90.4837 116.32 90.884 116.08 91.2042 116.08L93.4458 116.4C93.8461 116.4 94.0863 116.8 94.0863 117.12C94.0863 117.6 93.7661 117.76 93.4458 117.76Z" fill="#AAABBB"/>
  <path d="M82.638 118H82.7181L84.9597 117.68C85.3599 117.68 85.6001 117.28 85.6001 116.96C85.6001 116.56 85.1998 116.32 84.8796 116.32L82.638 116.64C82.2377 116.64 81.9976 117.04 81.9976 117.36C82.1577 117.68 82.3178 117.92 82.638 118Z" fill="#AAABBB"/>
  <path d="M155.89 131.44H163.575V131.36V139.84H154.129" fill="#D2D2D9"/>
  <path d="M127.996 21.4898H85.8904V47.36H127.996V21.4898Z" fill="white"/>
  <path fill-rule="evenodd" clip-rule="evenodd" d="M84.5 20.0994H129.386V48.7505H84.5V20.0994ZM87.281 22.8803V45.9695H126.605V22.8803H87.281Z" fill="#D2D2D9"/>
  <path d="M127.996 56.2363H102.809V88.8585H127.996V56.2363Z" fill="white"/>
  <path fill-rule="evenodd" clip-rule="evenodd" d="M101.418 54.8458H129.387V90.249H101.418V54.8458ZM104.199 57.6268V87.468H126.606V57.6268H104.199Z" fill="#D2D2D9"/>
  <path d="M165.929 10.7169H135.431V56.2363H165.929V10.7169Z" fill="white"/>
  <path fill-rule="evenodd" clip-rule="evenodd" d="M134.04 9.32642H167.319V57.6268H134.04V9.32642ZM136.821 12.1074V54.8458H164.538V12.1074H136.821Z" fill="#D2D2D9"/>
  <path d="M197.11 31.7317H173.743V66.6299H197.11V31.7317Z" fill="white"/>
  <path fill-rule="evenodd" clip-rule="evenodd" d="M172.352 30.3412H198.5V68.0203H172.352V30.3412ZM175.133 33.1221V65.2393H195.719V33.1221H175.133Z" fill="#D2D2D9"/>
  <path d="M165.929 63.7468H135.431V86.4306H165.929V63.7468Z" fill="white"/>
  <path fill-rule="evenodd" clip-rule="evenodd" d="M134.04 62.3564H167.319V87.8211H134.04V62.3564ZM136.821 65.1373V85.0402H164.538V65.1373H136.821Z" fill="#D2D2D9"/>
  <path d="M159.556 33.6282C159.556 34.6145 159.404 35.6007 159.101 36.4353C157.887 39.9251 154.625 42.5045 150.68 42.5045C146.735 42.5045 143.473 40.0009 142.259 36.4353C141.955 35.5249 141.804 34.6145 141.804 33.6282C141.804 28.697 145.749 24.752 150.68 24.752C155.611 24.752 159.556 28.697 159.556 33.6282Z" fill="#E2E2E6"/>
  <path d="M155.687 75.4301C155.687 76.1129 155.611 76.7957 155.383 77.4026C154.549 79.8303 152.273 81.6511 149.542 81.6511C146.81 81.6511 144.534 79.9062 143.7 77.4026C143.472 76.7957 143.396 76.1129 143.396 75.4301C143.396 72.0162 146.203 69.2091 149.617 69.2091C153.031 69.2091 155.687 72.0162 155.687 75.4301Z" fill="url(#paint0_linear_6975_50337)"/>
  <path d="M159.144 76.713C159.144 77.1682 159.068 77.6234 158.916 78.0027C158.385 79.5959 156.868 80.7339 155.123 80.7339C153.378 80.7339 151.861 79.5959 151.33 78.0027C151.178 77.6234 151.102 77.1682 151.102 76.713C151.102 74.5129 152.923 72.6921 155.123 72.6921C157.323 72.6921 159.144 74.4371 159.144 76.713Z" fill="url(#paint1_linear_6975_50337)"/>
  <path d="M155.232 36.4353L151.514 32.8697L147.721 36.4353H155.232Z" fill="#C4C4CE"/>
  <path d="M152.349 36.3595L147.266 31.58L142.183 36.4354L152.349 36.3595Z" fill="white"/>
  <path d="M154.853 31.7316C155.649 31.7316 156.294 31.0863 156.294 30.2902C156.294 29.4941 155.649 28.8487 154.853 28.8487C154.056 28.8487 153.411 29.4941 153.411 30.2902C153.411 31.0863 154.056 31.7316 154.853 31.7316Z" fill="#C4C4CE"/>
  <path d="M159.101 36.4352C157.887 39.925 154.625 42.5044 150.68 42.5044C146.735 42.5044 143.473 40.0008 142.259 36.4352" fill="#C4C4CE"/>
  <path fill-rule="evenodd" clip-rule="evenodd" d="M89.4437 36.2834C89.4437 35.8995 89.7549 35.5882 90.1389 35.5882H123.444C123.828 35.5882 124.139 35.8995 124.139 36.2834C124.139 36.6674 123.828 36.9787 123.444 36.9787H90.1389C89.7549 36.9787 89.4437 36.6674 89.4437 36.2834Z" fill="#C4C4CE"/>
  <path fill-rule="evenodd" clip-rule="evenodd" d="M99.0028 38.7872C99.0028 38.4032 99.3141 38.0919 99.698 38.0919H114.188C114.572 38.0919 114.884 38.4032 114.884 38.7872C114.884 39.1712 114.572 39.4824 114.188 39.4824H99.698C99.3141 39.4824 99.0028 39.1712 99.0028 38.7872Z" fill="#C4C4CE"/>
  <path fill-rule="evenodd" clip-rule="evenodd" d="M103.024 41.6865C103.024 41.3025 103.335 40.9912 103.719 40.9912H110.244C110.628 40.9912 110.939 41.3025 110.939 41.6865C110.939 42.0705 110.628 42.3817 110.244 42.3817H103.719C103.335 42.3817 103.024 42.0705 103.024 41.6865Z" fill="#C4C4CE"/>
  <path d="M115.099 80.665C119.498 80.665 123.065 77.0985 123.065 72.6991C123.065 68.2996 119.498 64.7332 115.099 64.7332C110.699 64.7332 107.133 68.2996 107.133 72.6991C107.133 77.0985 110.699 80.665 115.099 80.665Z" fill="url(#paint2_linear_6975_50337)"/>
  <path d="M184.971 48.7253C187.653 48.7253 189.827 46.5515 189.827 43.8699C189.827 41.1884 187.653 39.0145 184.971 39.0145C182.29 39.0145 180.116 41.1884 180.116 43.8699C180.116 46.5515 182.29 48.7253 184.971 48.7253Z" fill="url(#paint3_linear_6975_50337)"/>
  <path d="M194.646 51.2039L187.565 44.1228L180.483 51.2039L187.565 58.285L194.646 51.2039Z" fill="url(#paint4_linear_6975_50337)"/>
  <path d="M115.099 35.3565H98.7878C99.0154 31.0321 102.581 27.6182 106.981 27.6182C111.306 27.5423 114.871 31.0321 115.099 35.3565Z" fill="#E2E2E6"/>
  <path d="M94.3373 74.9446L93.8269 72.018L105.287 70.0222L105.797 72.9488L99.6084 83.7286L107.567 82.3426L108.077 85.2692L96.1078 87.3537L95.5974 84.4271L101.786 73.6473L94.3373 74.9446Z" fill="#AAABBB"/>
  <path d="M89.9491 95.1338L90.4812 93.3938L97.2142 95.4497L96.6821 97.1897L90.4698 101.317L95.1132 102.735L94.5811 104.475L87.5 102.313L88.032 100.573L94.2443 96.4454L89.9491 95.1338Z" fill="#AAABBB"/>
  <defs>
    <linearGradient id="paint0_linear_6975_50337" x1="143.863" y1="79.2119" x2="155.299" y2="79.1831" gradientUnits="userSpaceOnUse">
      <stop stop-color="#DFDFE6"/>
      <stop offset="1" stop-color="#F5F5F5"/>
    </linearGradient>
    <linearGradient id="paint1_linear_6975_50337" x1="151.408" y1="79.1573" x2="158.89" y2="79.1383" gradientUnits="userSpaceOnUse">
      <stop stop-color="#DFDFE6"/>
      <stop offset="1" stop-color="#F5F5F5"/>
    </linearGradient>
    <linearGradient id="paint2_linear_6975_50337" x1="107.738" y1="77.5416" x2="122.562" y2="77.5038" gradientUnits="userSpaceOnUse">
      <stop stop-color="#DFDFE6"/>
      <stop offset="1" stop-color="#F5F5F5"/>
    </linearGradient>
    <linearGradient id="paint3_linear_6975_50337" x1="180.485" y1="46.8216" x2="189.52" y2="46.7985" gradientUnits="userSpaceOnUse">
      <stop stop-color="#DFDFE6"/>
      <stop offset="1" stop-color="#F5F5F5"/>
    </linearGradient>
    <linearGradient id="paint4_linear_6975_50337" x1="182.141" y1="50.0847" x2="188.746" y2="56.6567" gradientUnits="userSpaceOnUse">
      <stop stop-color="#DFDFE6"/>
      <stop offset="1" stop-color="#F5F5F5"/>
    </linearGradient>
  </defs>
</svg>
