<svg width="20" height="20" viewBox="0 0 20 20" fill="none" xmlns="http://www.w3.org/2000/svg">
<path fill-rule="evenodd" clip-rule="evenodd" d="M1.53421 0.0522658C0.656235 0.265465 0 1.09536 0 1.99255C0 2.40991 0.186112 2.94165 0.42926 3.21921L0.558726 3.36692L0.494227 3.63469C0.317609 4.36789 0.520362 5.05955 1.06456 5.58042L1.28919 5.79546V9.99258V14.1897L1.01963 14.4658C0.871412 14.6176 0.705693 14.8297 0.651391 14.937C0.431174 15.3726 0.37613 15.8716 0.494227 16.3619L0.558726 16.6297L0.42926 16.7774C0.186112 17.0549 0 17.5867 0 18.004C0 19.0821 0.924698 20.0031 2.00406 20C2.43934 19.9988 2.91184 19.8272 3.24254 19.5503C3.3745 19.4399 3.43654 19.4122 3.51366 19.4296C3.7577 19.4846 4.14032 19.4968 4.35589 19.4564C4.69217 19.3935 5.12354 19.1752 5.36622 18.9452L5.57448 18.7478H9.99924H14.424L14.6444 18.95C14.9014 19.1858 15.3137 19.3943 15.646 19.4564C15.8616 19.4968 16.2442 19.4846 16.4883 19.4296C16.5651 19.4123 16.6269 19.4394 16.755 19.5467C16.962 19.72 17.3377 19.9002 17.611 19.9573C18.9879 20.2451 20.2459 18.9845 19.9588 17.6047C19.9031 17.3371 19.7163 16.9413 19.5634 16.7668L19.4432 16.6297L19.5077 16.3619C19.6843 15.6287 19.4816 14.937 18.9374 14.4162L18.7127 14.2011V9.9983V5.79546L18.9374 5.58042C19.4816 5.05955 19.6843 4.36789 19.5077 3.63469L19.4432 3.36692L19.5634 3.22982C19.7163 3.05526 19.9031 2.65948 19.9588 2.3919C20.1733 1.3611 19.4977 0.297958 18.4747 0.0562981C17.8707 -0.086396 17.2172 0.0629924 16.756 0.449108C16.6032 0.577043 16.5777 0.585421 16.4306 0.556217C16.3429 0.538757 16.1129 0.52666 15.9195 0.529322C15.381 0.536721 14.9355 0.731991 14.554 1.1277L14.3996 1.28789H10.001H5.60234L5.44791 1.12652C5.08158 0.743774 4.58653 0.528891 4.06488 0.526229C3.88115 0.52529 3.65902 0.538757 3.57128 0.556217C3.42377 0.585538 3.39896 0.5772 3.2416 0.445467C2.78527 0.0633838 2.11962 -0.0898801 1.53421 0.0522658ZM16.525 10.0179V16.5556H10.001H3.4769V10.0179V3.48017H10.001H16.525V10.0179ZM4.64888 10.0179V15.3811H10.001H15.353V10.0179V4.65461H10.001H4.64888V10.0179ZM12.7829 6.51539C13.7323 7.06514 14.5166 7.52239 14.5257 7.53147C14.5491 7.555 12.5683 10.9995 12.5193 11.0204C12.4835 11.0357 9.13549 9.12451 9.04837 9.03905C9.01872 9.00997 10.9946 5.51586 11.0407 5.51586C11.0495 5.51586 11.8336 5.96567 12.7829 6.51539ZM11.0342 7.84771C10.7653 8.31443 10.629 8.58803 10.6532 8.61226C10.7269 8.68614 12.0463 9.43253 12.082 9.42063C12.1166 9.40904 12.9289 8.02767 12.9303 7.97795C12.9309 7.95568 11.5093 7.12093 11.4707 7.12093C11.4609 7.12093 11.2645 7.44797 11.0342 7.84771ZM10.001 12.0536V14.0893H7.96952H5.93807V12.0536V10.0179H7.96952H10.001V12.0536ZM7.11006 12.0536V12.9148H7.96952H8.82897V12.0536V11.1923H7.96952H7.11006V12.0536Z" fill="black"/>
</svg>
