<svg width="20" height="20" viewBox="0 0 20 20" fill="none" xmlns="http://www.w3.org/2000/svg">
<circle cx="10" cy="10" r="10" fill="#FF0000"/>
<path fill-rule="evenodd" clip-rule="evenodd" d="M9.61231 4.1479C9.22362 4.26047 8.9308 4.55538 8.86466 4.90085C8.80959 5.1885 8.81129 10.8704 8.86654 11.1658C8.92286 11.4668 9.19099 11.7657 9.50331 11.8758C9.81018 11.9839 10.2493 11.9757 10.5363 11.8565C10.8487 11.7267 11.0852 11.4499 11.141 11.1488C11.17 10.9927 11.1792 10.0198 11.172 7.89983L11.1616 4.87365L11.0643 4.68818C10.942 4.45508 10.8797 4.3927 10.6294 4.2521C10.4598 4.15692 10.373 4.13722 10.0776 4.12692C9.88475 4.12021 9.67536 4.12964 9.61231 4.1479ZM9.81162 13.3452C9.59038 13.3836 9.29374 13.5644 9.14876 13.7494C9.08645 13.8289 8.99455 13.994 8.94456 14.1163C8.86543 14.31 8.85569 14.3823 8.86941 14.675C8.89361 15.1918 9.09068 15.539 9.49809 15.7825C9.62791 15.8601 9.71079 15.8753 10.0029 15.8753C10.295 15.8753 10.3778 15.8601 10.5077 15.7825C10.754 15.6352 10.9105 15.4571 11.0312 15.1865C11.1269 14.972 11.1432 14.8891 11.1432 14.6188C11.1432 14.3485 11.1269 14.2656 11.0312 14.0511C10.8004 13.5337 10.322 13.2568 9.81162 13.3452Z" fill="#F8F8FA"/>
</svg>
