<svg width="15" height="12" viewBox="0 0 15 12" fill="none" xmlns="http://www.w3.org/2000/svg">
<path fill-rule="evenodd" clip-rule="evenodd" d="M4.27591 0.191087C3.69791 0.284056 3.19418 0.530029 2.80638 0.908679C2.56201 1.14726 2.24755 1.61058 2.18423 1.82543C2.15759 1.91585 2.14397 1.91782 1.55226 1.91782C0.98193 1.91782 0.93523 1.92394 0.731524 2.02554C0.190084 2.29553 0.0858922 2.96458 0.517927 3.39691C0.759757 3.63894 0.930593 3.68353 1.61644 3.68374L2.142 3.68394L2.30311 3.99796C2.59907 4.57474 3.15282 5.05626 3.77087 5.27422C4.16778 5.41417 4.80225 5.44694 5.21976 5.34908C5.93716 5.18089 6.61837 4.6494 6.94634 4.00198L7.10745 3.68394L10.2701 3.68374C13.8701 3.68353 13.7327 3.69495 14.0156 3.37329C14.4094 2.92557 14.2932 2.28613 13.7706 2.02554L13.5546 1.91782H10.3235H7.09247L7.06522 1.82543C7.0019 1.61058 6.68744 1.14726 6.44306 0.908679C5.89223 0.370865 4.99832 0.0748765 4.27591 0.191087ZM9.24185 6.6727C8.56089 6.83744 7.87504 7.38249 7.55582 8.01269L7.39471 8.33073L4.24279 8.33094C2.05861 8.33106 1.03499 8.34519 0.908885 8.37697C0.801943 8.40391 0.650969 8.48969 0.542672 8.58512C0.0836761 8.98936 0.180236 9.71426 0.729554 9.98815L0.947541 10.0969H4.17861H7.40968L7.43693 10.1892C7.49968 10.4021 7.81365 10.8664 8.05232 11.0993C8.34643 11.3863 8.82373 11.6572 9.22084 11.7627C9.5729 11.8562 10.1828 11.856 10.534 11.7624C10.9538 11.6505 11.3997 11.3964 11.7016 11.0973C11.9506 10.8506 12.2553 10.4016 12.3179 10.1892C12.3446 10.0988 12.3582 10.0969 12.9499 10.0969C13.5202 10.0969 13.5669 10.0907 13.7706 9.98914C14.2932 9.72855 14.4094 9.0891 14.0156 8.64138C13.7925 8.38769 13.5886 8.33114 12.8964 8.33094L12.3602 8.33073L12.199 8.01269C11.8751 7.37312 11.1903 6.83432 10.493 6.67036C10.1625 6.59266 9.56818 6.59377 9.24185 6.6727Z" fill="#161616"/>
</svg>
