<svg width="101" height="100" viewBox="0 0 101 100" fill="none" xmlns="http://www.w3.org/2000/svg">
<circle cx="51" cy="50" r="27" fill="url(#paint0_linear_18333_171677)" fill-opacity="0.6"/>
<path fill-rule="evenodd" clip-rule="evenodd" d="M54.6323 34.0727C54.5151 34.0902 54.3317 34.1522 54.2248 34.2105C53.851 34.4143 53.7805 34.533 53.5155 35.4042L53.2698 36.2122L52.7434 36.1795C51.7278 36.1164 50.5695 36.281 49.5011 36.6403C48.7487 36.8933 47.3541 37.7066 46.7387 38.2512C45.9265 38.9701 45.2514 39.8346 44.7461 40.8031C44.531 41.2154 44.4228 41.5535 43.7605 43.8823C42.9384 46.7727 42.8296 47.0629 42.2192 47.9943C41.4695 49.138 40.5874 49.9525 39.2837 50.7046C38.1535 51.3566 38.0017 51.52 37.7893 52.3125C37.6592 52.798 37.6503 52.8986 37.7103 53.2046C37.8409 53.8715 38.2946 54.4563 38.9118 54.7533C39.3134 54.9466 58.3476 60.0427 58.8048 60.0794C59.4619 60.1321 60.1489 59.8468 60.594 59.3363C60.7989 59.1012 60.8415 59.0097 60.9716 58.5241C61.1824 57.7373 61.1301 57.4986 60.5167 56.4485C59.9959 55.5568 59.7823 55.0759 59.574 54.3255C59.3149 53.3919 59.2259 52.4239 59.3068 51.4206C59.3427 50.9767 59.4746 50.3843 60.0152 48.2378C60.6075 45.8864 60.682 45.5437 60.7017 45.0783C60.7748 43.3527 60.4196 41.9106 59.5482 40.3955C58.6878 38.8994 57.5393 37.7976 56.0875 37.0756L55.6153 36.8407L55.8064 36.0181C56.0126 35.1311 56.0109 34.9931 55.7891 34.6295C55.5508 34.2388 55.07 34.0073 54.6323 34.0727ZM44.2464 57.5603C44.1978 57.7417 44.3196 58.6508 44.4493 59.0757C44.9849 60.8293 46.5877 62.1252 48.3774 62.2518C49.6364 62.3408 50.8126 61.9418 51.7625 61.1032C52.1005 60.8049 52.6913 60.058 52.7498 59.8551C52.7757 59.7651 52.539 59.696 48.5226 58.6198C44.8141 57.6261 44.2652 57.4901 44.2464 57.5603Z" fill="url(#paint1_linear_18333_171677)"/>
<circle cx="50.5" cy="50" r="34.5" stroke="url(#paint2_linear_18333_171677)" stroke-width="2"/>
<defs>
<linearGradient id="paint0_linear_18333_171677" x1="32.1" y1="35.6" x2="72.6" y2="70.7" gradientUnits="userSpaceOnUse">
<stop stop-color="#C4C4C4"/>
<stop offset="1" stop-color="#C4C4C4" stop-opacity="0.3"/>
</linearGradient>
<linearGradient id="paint1_linear_18333_171677" x1="55.0911" y1="34.1058" x2="47.5854" y2="62.1177" gradientUnits="userSpaceOnUse">
<stop stop-color="#C2C2C4"/>
<stop offset="1" stop-color="#C2C2C4"/>
</linearGradient>
<linearGradient id="paint2_linear_18333_171677" x1="50.5" y1="14.5" x2="77" y2="91.5" gradientUnits="userSpaceOnUse">
<stop stop-color="#D0D0D2"/>
<stop offset="1" stop-color="#E0E0E7" stop-opacity="0.6"/>
</linearGradient>
</defs>
</svg>
