<svg width="18" height="18" viewBox="0 0 18 18" fill="none" xmlns="http://www.w3.org/2000/svg">
<g clip-path="url(#clip0_17129_144849)">
<path fill-rule="evenodd" clip-rule="evenodd" d="M1.96968 13.3537C1.75023 13.441 1.53761 13.6598 1.45578 13.8826C1.39893 14.0374 1.39012 14.1447 1.39012 14.6819V15.3025H4.93711H8.48409V14.681C8.48409 14.1436 8.47528 14.036 8.41893 13.8849C8.33281 13.6541 8.12111 13.4377 7.89826 13.3527C7.72794 13.2878 7.63948 13.2859 4.9276 13.2874C2.24819 13.2889 2.12578 13.2916 1.96968 13.3537ZM0.0703125 16.3963C0.0703125 16.9777 0.0714673 16.9872 0.151316 17.0685L0.232286 17.151H4.93711H9.64192L9.7229 17.0685C9.80274 16.9872 9.8039 16.9777 9.8039 16.3963V15.8066H4.93711H0.0703125V16.3963Z" fill="#3CBCAC"/>
<g filter="url(#filter0_b_17129_144849)">
<path fill-rule="evenodd" clip-rule="evenodd" d="M5.46762 1.85746C5.3265 1.89963 5.19315 2.00085 5.12389 2.11836C5.08619 2.18232 4.99653 2.40018 4.92462 2.6025C4.8046 2.94021 4.79697 2.97686 4.83194 3.04928C4.86669 3.12123 5.0367 3.21334 5.22781 3.26373C5.27314 3.27568 5.27361 3.28546 5.23428 3.39609C5.21093 3.46181 5.20156 3.52466 5.21349 3.5358C5.23679 3.55759 8.61996 4.75376 8.69812 4.76784C8.73075 4.77374 8.75689 4.7429 8.78384 4.66668C8.80517 4.60638 8.82728 4.55244 8.83296 4.54677C8.83868 4.54113 8.91137 4.56216 8.99451 4.59356C9.18565 4.66567 9.30538 4.66648 9.36953 4.5961C9.43373 4.52568 9.66366 3.89245 9.68443 3.72891C9.7098 3.52896 9.65199 3.3702 9.50133 3.22616C9.35757 3.08875 9.59012 3.17678 6.57696 2.11906C5.7619 1.83294 5.64326 1.80495 5.46762 1.85746ZM4.4967 3.8799C4.43053 3.96342 3.41348 6.79976 3.41348 6.90078C3.41348 6.9412 3.43722 6.997 3.46623 7.02476C3.55004 7.10495 7.79829 8.59264 7.88315 8.5715C7.92169 8.56189 7.97011 8.52728 7.99073 8.4946C8.05614 8.39095 9.0564 5.56185 9.05651 5.48021C9.05657 5.43725 9.03682 5.38242 9.01262 5.35843C8.95529 5.30148 4.73356 3.8127 4.62947 3.8127C4.57897 3.8127 4.53049 3.83723 4.4967 3.8799ZM8.93388 7.15079C8.82129 7.46593 8.7343 7.72825 8.74052 7.73372C8.76331 7.75375 10.5186 8.36632 10.5276 8.35741C10.5327 8.35233 10.631 8.09123 10.746 7.77721C10.9021 7.35074 10.9461 7.20117 10.9196 7.18623C10.858 7.1514 9.21333 6.57782 9.17507 6.57782C9.15296 6.57782 9.05778 6.80392 8.93388 7.15079ZM11.4277 7.1593C11.4008 7.20243 10.8759 8.65244 10.8761 8.683C10.8762 8.70031 12.1534 9.16494 13.7142 9.71547C16.494 10.6959 16.5539 10.7156 16.6354 10.6737C16.7106 10.6351 16.7407 10.5696 16.9482 9.99296C17.0745 9.64204 17.1778 9.32931 17.1778 9.29794C17.1778 9.2666 17.1494 9.21446 17.1145 9.18206C17.0753 9.14552 16.0255 8.76151 14.3504 8.17083C12.865 7.64705 11.6027 7.20036 11.5453 7.17818C11.488 7.15601 11.435 7.14749 11.4277 7.1593ZM3.70227 7.67996C3.68657 7.72099 3.67371 7.76668 3.67371 7.78151C3.67371 7.83645 3.59342 7.836 3.44569 7.78028C3.26006 7.71023 3.19108 7.70847 3.11436 7.77185C3.04448 7.82958 2.77344 8.57485 2.77344 8.70931C2.77344 8.91275 2.87967 9.11773 3.04245 9.22848C3.09261 9.26261 3.93313 9.57255 4.91027 9.91724C6.84423 10.5995 6.85458 10.6022 7.09715 10.4856C7.28944 10.3932 7.36968 10.2693 7.52838 9.8201C7.66629 9.42969 7.67051 9.4091 7.63011 9.32484C7.59714 9.25613 7.55525 9.22633 7.43841 9.18842C7.18192 9.1053 7.18431 9.10782 7.23664 8.97797C7.26151 8.91627 7.27459 8.85859 7.26573 8.8498C7.24811 8.83231 3.90399 7.64856 3.79671 7.62181C3.74374 7.60862 3.72523 7.62002 3.70227 7.67996Z" fill="#3CBCAC"/>
</g>
</g>
<defs>
<filter id="filter0_b_17129_144849" x="-37.2266" y="-38.1641" width="94.4044" height="88.8496" filterUnits="userSpaceOnUse" color-interpolation-filters="sRGB">
<feFlood flood-opacity="0" result="BackgroundImageFix"/>
<feGaussianBlur in="BackgroundImage" stdDeviation="20"/>
<feComposite in2="SourceAlpha" operator="in" result="effect1_backgroundBlur_17129_144849"/>
<feBlend mode="normal" in="SourceGraphic" in2="effect1_backgroundBlur_17129_144849" result="shape"/>
</filter>
<clipPath id="clip0_17129_144849">
<rect width="17.1481" height="17.0182" fill="white" transform="translate(0.0625 0.927734)"/>
</clipPath>
</defs>
</svg>
