<svg width="20" height="20" viewBox="0 0 20 20" fill="none" xmlns="http://www.w3.org/2000/svg">
  <path d="M10.8484 0.751734C10.6234 0.526769 10.3182 0.400391 10 0.400391C9.68185 0.400391 9.37668 0.526769 9.15165 0.751734L0.751649 9.15173C0.533059 9.37806 0.412106 9.68118 0.41484 9.99581C0.417574 10.3104 0.543777 10.6114 0.766267 10.8339C0.988757 11.0564 1.28973 11.1826 1.60437 11.1853C1.919 11.1881 2.22213 11.0671 2.44845 10.8485L2.80005 10.4969V18.4001C2.80005 18.7184 2.92648 19.0236 3.15152 19.2487C3.37656 19.4737 3.68179 19.6001 4.00005 19.6001H6.40005C6.71831 19.6001 7.02353 19.4737 7.24858 19.2487C7.47362 19.0236 7.60005 18.7184 7.60005 18.4001V16.0001C7.60005 15.6819 7.72648 15.3766 7.95152 15.1516C8.17656 14.9266 8.48179 14.8001 8.80005 14.8001H11.2C11.5183 14.8001 11.8235 14.9266 12.0486 15.1516C12.2736 15.3766 12.4 15.6819 12.4 16.0001V18.4001C12.4 18.7184 12.5265 19.0236 12.7515 19.2487C12.9766 19.4737 13.2818 19.6001 13.6 19.6001H16C16.3183 19.6001 16.6235 19.4737 16.8486 19.2487C17.0736 19.0236 17.2 18.7184 17.2 18.4001V10.4969L17.5516 10.8485C17.778 11.0671 18.0811 11.1881 18.3957 11.1853C18.7104 11.1826 19.0113 11.0564 19.2338 10.8339C19.4563 10.6114 19.5825 10.3104 19.5853 9.99581C19.588 9.68118 19.467 9.37806 19.2484 9.15173L10.8484 0.751734Z" fill="#161616"/>
</svg>
