<svg width="14" height="14" viewBox="0 0 14 14" fill="none" xmlns="http://www.w3.org/2000/svg">
<path d="M11.3101 9.1556L10.2328 8.07827L11.3101 7.00093C11.5931 6.71793 11.8176 6.38195 11.9708 6.01219C12.1239 5.64243 12.2027 5.24611 12.2027 4.84589C12.2027 4.44566 12.1239 4.04935 11.9708 3.67958C11.8176 3.30982 11.5931 2.97384 11.3101 2.69084C11.0271 2.40783 10.6911 2.18334 10.3214 2.03018C9.95159 1.87702 9.55528 1.79819 9.15505 1.79819C8.75482 1.79819 8.35851 1.87702 7.98874 2.03018C7.61898 2.18334 7.283 2.40783 7 2.69084L5.92267 3.76817L4.84533 2.69084L5.92267 1.6135C6.78233 0.767728 7.94138 0.295909 9.14734 0.300819C10.3533 0.30573 11.5085 0.786973 12.3612 1.63972C13.214 2.49247 13.6952 3.64764 13.7001 4.8536C13.705 6.05955 13.2332 7.2186 12.3874 8.07827L11.3101 9.1556ZM9.15467 11.311L8.07733 12.3884C7.65411 12.8185 7.14991 13.1607 6.5938 13.395C6.0377 13.6293 5.4407 13.7512 4.83724 13.7537C4.23379 13.7562 3.63582 13.6391 3.07782 13.4093C2.51983 13.1795 2.01285 12.8415 1.58614 12.4148C1.15943 11.9881 0.821425 11.4811 0.591626 10.9231C0.361827 10.3651 0.244781 9.76715 0.247238 9.16369C0.249695 8.56023 0.371607 7.96324 0.605943 7.40713C0.840279 6.85103 1.1824 6.34682 1.61257 5.9236L2.68991 4.84627L3.76724 5.9236L2.68991 7.00093C2.4069 7.28394 2.18241 7.61991 2.02925 7.98968C1.87609 8.35944 1.79726 8.75575 1.79726 9.15598C1.79726 9.55621 1.87609 9.95252 2.02925 10.3223C2.18241 10.692 2.4069 11.028 2.68991 11.311C2.97291 11.594 3.30889 11.8185 3.67865 11.9717C4.04841 12.1248 4.44472 12.2037 4.84495 12.2037C5.24518 12.2037 5.64149 12.1248 6.01126 11.9717C6.38102 11.8185 6.717 11.594 7 11.311L8.07733 10.2337L9.15467 11.311ZM9.15467 3.76817L10.2328 4.84627L4.84533 10.2329L3.76724 9.1556L9.15467 3.76893V3.76817Z" fill="#161616" fill-opacity="0.8"/>
</svg>
