<svg width="12" height="12" viewBox="0 0 12 12" fill="none" xmlns="http://www.w3.org/2000/svg">
<path d="M7.39495 1.51104C7.2547 1.26661 7.05169 1.06336 6.80655 0.921977C6.56141 0.780594 6.28289 0.706116 5.99931 0.706116C5.71573 0.706116 5.43721 0.780594 5.19208 0.921977C4.94694 1.06336 4.74392 1.26661 4.60368 1.51104L0.376977 8.97939C0.24276 9.21376 0.173374 9.47913 0.175845 9.74865C0.178316 10.0182 0.252557 10.2823 0.39105 10.5142C0.531576 10.7534 0.733372 10.9516 0.975991 11.0886C1.21861 11.2256 1.49343 11.2966 1.77261 11.2943H10.226C10.5052 11.2966 10.78 11.2256 11.0226 11.0886C11.2653 10.9516 11.467 10.7534 11.6076 10.5142C11.7461 10.2823 11.8203 10.0182 11.8228 9.74865C11.8252 9.47913 11.7559 9.21376 11.6216 8.97939L7.39495 1.51104ZM5.99931 9.36922C5.90333 9.36922 5.80951 9.34099 5.72971 9.28811C5.64991 9.23523 5.58771 9.16006 5.55098 9.07212C5.51425 8.98418 5.50464 8.88741 5.52337 8.79406C5.54209 8.7007 5.58831 8.61495 5.65617 8.54764C5.72404 8.48033 5.81051 8.4345 5.90464 8.41593C5.99877 8.39736 6.09634 8.40689 6.18502 8.44331C6.27369 8.47974 6.34948 8.54143 6.4028 8.62057C6.45612 8.69971 6.48458 8.79276 6.48458 8.88795C6.48458 9.01559 6.43345 9.138 6.34245 9.22826C6.25144 9.31851 6.12801 9.36922 5.99931 9.36922ZM6.48458 6.96287C6.48458 7.09051 6.43345 7.21292 6.34245 7.30318C6.25144 7.39343 6.12801 7.44414 5.99931 7.44414C5.87061 7.44414 5.74718 7.39343 5.65617 7.30318C5.56517 7.21292 5.51404 7.09051 5.51404 6.96287V4.07525C5.51404 3.94761 5.56517 3.8252 5.65617 3.73494C5.74718 3.64468 5.87061 3.59398 5.99931 3.59398C6.12801 3.59398 6.25144 3.64468 6.34245 3.73494C6.43345 3.8252 6.48458 3.94761 6.48458 4.07525V6.96287Z" fill="#FFE562"/>
</svg>
