<svg width="16" height="16" viewBox="0 0 16 16" fill="none" xmlns="http://www.w3.org/2000/svg">
<path d="M15.5 8C15.5 9.98912 14.7098 11.8968 13.3033 13.3033C11.8968 14.7098 9.98912 15.5 8 15.5C6.01088 15.5 4.10322 14.7098 2.6967 13.3033C1.29018 11.8968 0.5 9.98912 0.5 8C0.5 6.01088 1.29018 4.10322 2.6967 2.6967C4.10322 1.29018 6.01088 0.5 8 0.5C9.98912 0.5 11.8968 1.29018 13.3033 2.6967C14.7098 4.10322 15.5 6.01088 15.5 8ZM7.25 7.25V12.5C7.25 12.6989 7.32902 12.8897 7.46967 13.0303C7.61032 13.171 7.80109 13.25 8 13.25C8.19891 13.25 8.38968 13.171 8.53033 13.0303C8.67098 12.8897 8.75 12.6989 8.75 12.5V7.25C8.75 7.05109 8.67098 6.86032 8.53033 6.71967C8.38968 6.57902 8.19891 6.5 8 6.5C7.80109 6.5 7.61032 6.57902 7.46967 6.71967C7.32902 6.86032 7.25 7.05109 7.25 7.25ZM8 3.125C7.70163 3.125 7.41548 3.24353 7.2045 3.4545C6.99353 3.66548 6.875 3.95163 6.875 4.25C6.875 4.54837 6.99353 4.83452 7.2045 5.0455C7.41548 5.25647 7.70163 5.375 8 5.375C8.29837 5.375 8.58452 5.25647 8.7955 5.0455C9.00647 4.83452 9.125 4.54837 9.125 4.25C9.125 3.95163 9.00647 3.66548 8.7955 3.4545C8.58452 3.24353 8.29837 3.125 8 3.125Z" fill="#3CBCAC"/>
</svg>
