<svg width="18" height="18" viewBox="0 0 18 18" fill="none" xmlns="http://www.w3.org/2000/svg">
<path d="M11.9295 2.25H6.07725C3.789 2.25 2.25 3.8565 2.25 6.246V11.7607C2.25 14.1435 3.789 15.75 6.07725 15.75H11.9295C14.2178 15.75 15.75 14.1435 15.75 11.7607V6.246C15.75 3.8565 14.2178 2.25 11.9295 2.25Z" fill="#F8F8FA"/>
<path fill-rule="evenodd" clip-rule="evenodd" d="M8.29491 5.93682C8.29491 6.32464 8.60951 6.64085 8.99491 6.64085C9.39158 6.64085 9.70698 6.32464 9.70698 5.93682C9.70698 5.549 9.39158 5.2328 9.00296 5.2328C8.61273 5.2328 8.29491 5.549 8.29491 5.93682ZM9.69907 8.48964C9.69907 8.10183 9.38286 7.78562 8.99504 7.78562C8.60722 7.78562 8.29102 8.10183 8.29102 8.48964V12.046C8.29102 12.4338 8.60722 12.75 8.99504 12.75C9.38286 12.75 9.69907 12.4338 9.69907 12.046V8.48964Z" fill="#161616"/>
</svg>
