<svg width="18" height="20" viewBox="0 0 18 20" fill="none" xmlns="http://www.w3.org/2000/svg">
<path
    fill-rule="evenodd"
    clip-rule="evenodd"
    d="M6.52202 0.839844V1.67969H7.36264H8.20323L8.19272 2.52809L8.18217 3.37648L7.80081 3.42734C6.65089 3.58066 5.2846 4.12012 4.28585 4.81523C4.22612 4.8568 4.13714 4.78258 3.5703 4.21844L2.92292 3.57422L2.35921 4.15371C2.04913 4.47242 1.79546 4.74508 1.79546 4.75965C1.79546 4.77422 2.05717 5.04738 2.37702 5.36672L2.95858 5.9473L2.64651 6.31848C1.60725 7.55453 0.939909 9.10402 0.741784 10.7412C0.68987 11.1698 0.690338 12.1953 0.742604 12.6182C0.926823 14.1085 1.48198 15.5023 2.35385 16.6635C3.65542 18.397 5.52393 19.5287 7.71342 19.9096C8.31217 20.0138 9.81999 20.0039 10.4283 19.8918C12.1809 19.5687 13.6722 18.792 14.9032 17.5609C16.2544 16.2097 17.0856 14.4897 17.3015 12.5977C17.3533 12.1448 17.3536 11.1655 17.3023 10.7412C17.1041 9.10402 16.4368 7.55453 15.3975 6.31848L15.0855 5.9473L15.667 5.36672C15.9869 5.04738 16.2486 4.77422 16.2486 4.75965C16.2486 4.74508 15.9949 4.47242 15.6848 4.15371L15.1211 3.57422L14.4783 4.21391L13.8355 4.85355L13.454 4.61434C12.4835 4.00578 11.2988 3.56809 10.2401 3.42691L9.86186 3.37648L9.85132 2.52809L9.84081 1.67969H10.6814H11.522V0.839844V0H9.02202H6.52202V0.839844ZM10.3333 5.13414C12.022 5.48504 13.4669 6.42676 14.4726 7.83203C14.9576 8.50957 15.4062 9.56199 15.5625 10.3885C15.8954 12.1494 15.5408 13.8831 14.5395 15.3906C14.1737 15.9414 13.4046 16.7285 12.8501 17.1195C12.1444 17.6172 11.2222 18.0128 10.3111 18.2087C9.95491 18.2854 9.78522 18.2971 9.02202 18.2977C8.25151 18.2984 8.09253 18.2876 7.73296 18.2096C6.67604 17.9803 5.64503 17.5023 4.86186 16.8786C4.36393 16.4821 3.68936 15.7199 3.36346 15.1857C2.13674 13.1747 2.02835 10.7904 3.06819 8.69141C4.04917 6.71133 5.91413 5.38047 8.16264 5.05598C8.72971 4.97414 9.73807 5.01043 10.3333 5.13414ZM9.02202 9.17969V11.6797H6.52202H4.02202L4.02225 11.8457C4.02303 12.4099 4.24436 13.2657 4.55018 13.8867C5.63803 16.096 8.17311 17.1646 10.5601 16.4201C11.7803 16.0395 12.8955 15.0852 13.4719 13.9283C13.8662 13.137 14.0019 12.5559 14.0012 11.6602C14.0007 10.9904 13.9482 10.6473 13.7592 10.0797C13.2616 8.58434 12.0283 7.37367 10.521 6.90078C10.119 6.77469 9.58124 6.67996 9.26616 6.6798L9.02202 6.67969V9.17969Z"
    fill="#FA0C58"
  />
</svg>
