<svg width="27" height="28" viewBox="0 0 27 28" fill="none" xmlns="http://www.w3.org/2000/svg">
<path fill-rule="evenodd" clip-rule="evenodd" d="M13.7731 0.0764597C12.594 0.339058 11.6101 1.37401 11.3553 2.61975C11.1499 3.62392 11.4451 4.71035 12.1353 5.49059C12.4869 5.88813 12.9053 6.16589 13.4527 6.36518C13.8467 6.50867 13.9779 6.52997 14.4622 6.52937C14.9302 6.52882 15.0862 6.50472 15.4428 6.378C16.7087 5.92821 17.525 4.83932 17.6217 3.47178C17.7332 1.89422 16.6363 0.401271 15.1247 0.0733929C14.6689 -0.025458 14.2263 -0.0244723 13.7731 0.0764597ZM5.99548 3.73531C4.93529 4.01478 4.06227 4.96369 3.85745 6.0591C3.52409 7.84181 4.87836 9.53405 6.64365 9.54062C7.49833 9.54385 8.21615 9.21094 8.79249 8.54412C9.78292 7.39805 9.74364 5.65756 8.70275 4.56911C8.36764 4.21872 7.99209 3.96489 7.59777 3.82222C7.19354 3.67595 6.38656 3.63219 5.99548 3.73531ZM21.8524 5.73259C21.3319 5.98429 21.1586 6.63419 21.4759 7.14537C21.6443 7.41673 22.0811 7.62828 22.3743 7.58042C22.8406 7.5043 23.2083 7.07121 23.2083 6.5981C23.2083 6.32712 23.041 6.00127 22.8074 5.81715C22.5567 5.61961 22.1591 5.5844 21.8524 5.73259ZM3.09219 12.0759C1.96829 12.2578 1.12145 13.1215 0.939636 14.271C0.741814 15.522 1.51222 16.7995 2.68573 17.1665C3.11212 17.2998 3.84812 17.288 4.24503 17.1414C5.29059 16.7553 5.94555 15.8027 5.94555 14.6681C5.94555 13.2777 4.94817 12.1704 3.61044 12.0756C3.41288 12.0616 3.17965 12.0617 3.09219 12.0759ZM25.1692 13.4048C24.585 13.5885 24.2433 14.0565 24.2473 14.6681C24.2521 15.4266 24.759 15.951 25.4876 15.951C26.5712 15.951 27.1487 14.6828 26.4494 13.8387C26.1301 13.4533 25.5936 13.2715 25.1692 13.4048ZM6.25182 20.4776C5.86036 20.5571 5.38309 20.8227 5.10374 21.1165C4.2374 22.0277 4.23586 23.4323 5.10019 24.3253C5.4353 24.6715 5.67929 24.8173 6.12312 24.9368C7.37715 25.2742 8.63601 24.4039 8.84645 23.054C9.03293 21.8577 8.19123 20.6716 7.01469 20.4728C6.65239 20.4115 6.57511 20.412 6.25182 20.4776ZM21.922 21.1322C21.076 21.3507 20.5492 22.1827 20.7192 23.0319C20.9771 24.3202 22.4759 24.7948 23.3698 23.8712C23.979 23.2417 23.9938 22.2366 23.403 21.6085C23.0133 21.1942 22.4203 21.0035 21.922 21.1322ZM14.0935 24.1452C12.8979 24.3988 12.2419 25.7175 12.7404 26.8652C12.9182 27.2746 13.2863 27.6576 13.6811 27.844C13.9618 27.9765 14.0795 28 14.4622 28C15.0362 28 15.4527 27.8215 15.8167 27.4195C16.9185 26.2025 16.2223 24.2852 14.6202 24.1243C14.4604 24.1082 14.2234 24.1177 14.0935 24.1452Z" fill="url(#paint0_linear_9303_72777)"/>
<defs>
<linearGradient id="paint0_linear_9303_72777" x1="25.6344" y1="4.41862" x2="3.90594" y2="23.5595" gradientUnits="userSpaceOnUse">
<stop offset="0.0733" stop-color="#F46881"/>
<stop offset="0.083" stop-color="#F36682"/>
<stop offset="0.2596" stop-color="#E74596"/>
<stop offset="0.407" stop-color="#E031A2"/>
<stop offset="0.5065" stop-color="#DD2AA6"/>
<stop offset="0.8882" stop-color="#5210E2"/>
</linearGradient>
</defs>
</svg>
