<svg width="15" height="18" viewBox="0 0 15 18" fill="none" xmlns="http://www.w3.org/2000/svg">
<path d="M7.5 2.03636C8.92422 2.03636 9.50192 2.25474 9.92786 2.64345C10.3538 3.03216 10.5931 3.55937 10.5931 4.10909V7.67273H4.4069V4.10909C4.4069 3.55937 4.64619 3.03216 5.07213 2.64345C5.49808 2.25474 6.07578 2.03636 7.5 2.03636ZM11.7287 7.67273V4.10909C11.7287 3.28451 11.3698 2.4937 10.7309 1.91063C10.092 1.32756 9.2254 1 7.5 1C5.7746 1 4.90804 1.32756 4.26912 1.91063C3.6302 2.4937 3.27126 3.28451 3.27126 4.10909V7.67273C2.66889 7.67273 2.09118 7.8911 1.66524 8.27982C1.23929 8.66853 1 9.19573 1 9.74545V14.9273C1 15.477 1.23929 16.0042 1.66524 16.3929C2.09118 16.7816 2.66889 17 3.27126 17H11.7287C12.3311 17 12.9088 16.7816 13.3348 16.3929C13.7607 16.0042 14 15.477 14 14.9273V9.74545C14 9.19573 13.7607 8.66853 13.3348 8.27982C12.9088 7.8911 12.3311 7.67273 11.7287 7.67273ZM3.27126 8.70909H11.7287C12.0299 8.70909 12.3188 8.81828 12.5317 9.01264C12.7447 9.20699 12.8644 9.47059 12.8644 9.74545V14.9273C12.8644 15.2021 12.7447 15.4657 12.5317 15.6601C12.3188 15.8544 12.0299 15.9636 11.7287 15.9636H3.27126C2.97008 15.9636 2.68122 15.8544 2.46825 15.6601C2.25528 15.4657 2.13563 15.2021 2.13563 14.9273V9.74545C2.13563 9.47059 2.25528 9.20699 2.46825 9.01264C2.68122 8.81828 2.97008 8.70909 3.27126 8.70909Z" fill="rgba(0, 0, 0, 0.26)" stroke="rgba(0, 0, 0, 0.26)" stroke-width="0.2"/>
</svg>
