<svg width="139" height="30" viewBox="0 0 139 30" fill="none" xmlns="http://www.w3.org/2000/svg">
<path fill-rule="evenodd" clip-rule="evenodd" d="M14.4361 2.98068C7.25742 2.98068 1.43795 8.69439 1.43795 15.7427C1.43795 22.7909 7.25742 28.5046 14.4361 28.5046C14.8306 28.5046 15.1504 28.8186 15.1504 29.2058C15.1504 29.5931 14.8306 29.9071 14.4361 29.9071C6.46851 29.9071 0.00952148 23.5654 0.00952148 15.7427C0.00952148 7.91983 6.46851 1.5782 14.4361 1.5782C16.1153 1.5782 17.729 1.86017 19.2298 2.37913C19.6018 2.50779 19.7973 2.9082 19.6662 3.27349C19.5351 3.63879 19.1273 3.83061 18.7553 3.70196C17.4049 3.23499 15.9515 2.98068 14.4361 2.98068ZM14.434 7.47125C9.77974 7.47125 6.00668 11.1757 6.00668 15.7454C6.00668 20.3151 9.77974 24.0197 14.434 24.0197C14.8285 24.0197 15.1483 24.3336 15.1483 24.7209C15.1483 25.1082 14.8285 25.4221 14.434 25.4221C8.99082 25.4221 4.57825 21.0898 4.57825 15.7454C4.57825 10.4012 8.99082 6.06877 14.434 6.06877C16.2216 6.06877 17.9 6.53668 19.347 7.35501C19.6887 7.54832 19.8062 7.97709 19.6093 8.31266C19.4125 8.64825 18.9758 8.76359 18.6339 8.57028C17.3982 7.87131 15.9647 7.47125 14.434 7.47125ZM19.7117 16.0417C19.7229 15.0671 19.2343 14.0771 18.247 13.5175L15.0622 11.7121C13.109 10.6049 10.6675 11.9889 10.6675 14.2032V17.8139C10.6675 20.0283 13.109 21.4123 15.0622 20.3051C15.4037 20.1114 15.5208 19.6825 15.3236 19.3472C15.1264 19.0119 14.6895 18.8969 14.348 19.0905C13.3471 19.6579 12.096 18.9487 12.096 17.8139V14.2032C12.096 13.0686 13.3471 12.3593 14.348 12.9267L17.5328 14.7321C18.0394 15.0192 18.2892 15.5186 18.2833 16.0258C18.2788 16.4131 18.595 16.7306 18.9894 16.735C19.3839 16.7394 19.7073 16.429 19.7117 16.0417Z" fill="url(#paint0_linear)"/>
<path fill-rule="evenodd" clip-rule="evenodd" d="M19.0067 0.110809C19.4012 0.110809 19.7209 0.424764 19.7209 0.812049V16.0104V16.0113C19.7195 16.9739 19.2305 17.9461 18.256 18.4984L15.0712 20.3038C13.118 21.411 10.6766 20.0271 10.6766 17.8127C10.6766 17.4254 10.9963 17.1114 11.3908 17.1114C11.7852 17.1114 12.105 17.4254 12.105 17.8127C12.105 18.9475 13.3561 19.6567 14.3569 19.0893L17.5417 17.2839C18.0421 17.0002 18.2917 16.5102 18.2925 16.0098V16.0094V0.812049C18.2925 0.424765 18.6122 0.110809 19.0067 0.110809ZM23.5776 0.849081C23.972 0.849081 24.2918 1.16304 24.2918 1.55032V15.7454C24.2918 21.0898 19.8792 25.4221 14.436 25.4221C8.99282 25.4221 4.58023 21.0898 4.58023 15.7454C4.58023 15.3582 4.9 15.0442 5.29445 15.0442C5.68889 15.0442 6.00866 15.3582 6.00866 15.7454C6.00866 20.3151 9.78172 24.0197 14.436 24.0197C19.0903 24.0197 22.8634 20.3151 22.8634 15.7454V1.55032C22.8634 1.16304 23.1832 0.849081 23.5776 0.849081ZM28.8627 2.28225C28.8627 1.89497 28.5429 1.58102 28.1485 1.58102C27.754 1.58102 27.4342 1.89497 27.4342 2.28225V15.7454C27.4342 22.7936 21.6148 28.5073 14.4361 28.5073C7.25742 28.5073 1.43795 22.7936 1.43795 15.7454C1.43795 15.3582 1.11819 15.0442 0.723738 15.0442C0.329287 15.0442 0.00952148 15.3582 0.00952148 15.7454C0.00952148 23.5683 6.46851 29.9098 14.4361 29.9098C22.4037 29.9098 28.8627 23.5683 28.8627 15.7454V2.28225Z" fill="url(#paint1_angular)"/>
<title>Logo</title>
<g clip-path="url(#clip0)">
<path d="M36.8142 22.4119H42.7107C47.9855 22.4119 50.8187 19.5917 50.8187 14.9188C50.8187 10.2047 47.9855 7.44616 42.6877 7.44616H36.8142V22.4119ZM42.2731 8.86657C46.3041 8.86657 48.1698 11.2545 48.1698 14.9188C48.1698 18.583 46.3271 20.9917 42.2963 20.9917H39.3479V8.86657H42.2731Z" fill="black"/>
<path d="M54.0153 22.4119H55.7429L57.5164 18.1713H65.0714L66.799 22.4119H69.563L63.367 7.44616H60.2343L54.0153 22.4119ZM58.0922 16.7922L61.3399 9.01069L64.5186 16.7922H58.0922Z" fill="black"/>
<path d="M85.4092 7.44616H83.6818L78.1767 20.8269L72.7408 7.44616H70.0458L76.1728 22.4119H79.3053L85.4092 7.44616Z" fill="black"/>
<path d="M89.8121 22.4119H92.3456V7.44616H89.8121V22.4119Z" fill="black"/>
<path d="M112.67 7.44616H110.136L110.228 20.4153L101.383 7.44616H98.3201V22.4119H100.854L100.762 9.44298L109.606 22.4119H112.67V7.44616Z" fill="black"/>
<path d="M131.496 17.636V17.3066H128.847C128.847 19.5711 127.35 21.1974 124.701 21.1769C121.177 21.1769 119.841 17.9861 119.841 14.9187C119.841 11.9338 121.131 8.6812 124.701 8.6812C127.304 8.6812 128.801 10.3281 128.801 12.5512H131.45V12.2014C131.45 9.23702 128.501 7.24021 124.701 7.24021C119.703 7.24021 117.169 10.678 117.169 14.9187C117.169 19.3034 119.68 22.6178 124.724 22.6178C128.525 22.6383 131.496 20.6003 131.496 17.636Z" fill="black"/>
<path d="M136.241 22.4119H138.774V7.44616H136.241V22.4119Z" fill="black"/>
</g>
<defs>
<linearGradient id="paint0_linear" x1="-5.0365" y1="6.95617" x2="19.3272" y2="5.30565" gradientUnits="userSpaceOnUse">
<stop stop-color="#FD9988"/>
<stop offset="0.105262" stop-color="#D38CB7"/>
<stop offset="0.16694" stop-color="#9B79D2"/>
<stop offset="0.38572" stop-color="#9979D3"/>
<stop offset="0.652275" stop-color="#AD80CA"/>
<stop offset="0.824115" stop-color="#6B639F"/>
<stop offset="1" stop-color="#36188B"/>
</linearGradient>
<radialGradient id="paint1_angular" cx="0" cy="0" r="1" gradientUnits="userSpaceOnUse" gradientTransform="translate(13.3661 15.7819) rotate(-76.2116) scale(20.1687 19.8445)">
<stop offset="0.00210938" stop-color="#F4E3AF"/>
<stop offset="0.162542" stop-color="#FD9988"/>
<stop offset="0.460803" stop-color="#D38CB7"/>
<stop offset="0.843132" stop-color="#7F70DE"/>
</radialGradient>
<clipPath id="clip0">
<rect width="102" height="16" fill="white" transform="translate(37 7)"/>
</clipPath>
</defs>
</svg>
