<svg width="24" height="24" viewBox="0 0 24 24" fill="none" xmlns="http://www.w3.org/2000/svg">
<g id="Icon/Log Out">
<g id="Logout">
<path id="Fill 1" fill-rule="evenodd" clip-rule="evenodd" d="M11.5094 20H7.6006C5.6454 20 4.0542 18.4088 4.0542 16.452V7.5488C4.0542 5.592 5.6454 4 7.6006 4H11.5006C13.4574 4 15.0494 5.592 15.0494 7.5488V8.2944C15.0494 8.6256 14.7806 8.8944 14.4494 8.8944C14.1182 8.8944 13.8494 8.6256 13.8494 8.2944V7.5488C13.8494 6.2528 12.7958 5.2 11.5006 5.2H7.6006C6.307 5.2 5.2542 6.2528 5.2542 7.5488V16.452C5.2542 17.7472 6.307 18.8 7.6006 18.8H11.5094C12.799 18.8 13.8494 17.7504 13.8494 16.4608V15.7064C13.8494 15.3752 14.1182 15.1064 14.4494 15.1064C14.7806 15.1064 15.0494 15.3752 15.0494 15.7064V16.4608C15.0494 18.4128 13.4606 20 11.5094 20Z" fill="#FA0C58"/>
<g id="Group 5">
<mask id="mask0" style="mask-type:alpha" maskUnits="userSpaceOnUse" x="9" y="11" width="12" height="2">
<path id="Clip 4" fill-rule="evenodd" clip-rule="evenodd" d="M9.65063 11.4H20.4834V12.6H9.65063V11.4Z" fill="white"/>
</mask>
<g mask="url(#mask0)">
<path id="Fill 3" fill-rule="evenodd" clip-rule="evenodd" d="M19.8834 12.6H10.2506C9.91943 12.6 9.65063 12.3312 9.65063 12C9.65063 11.6688 9.91943 11.4 10.2506 11.4H19.8834C20.2146 11.4 20.4834 11.6688 20.4834 12C20.4834 12.3312 20.2146 12.6 19.8834 12.6Z" fill="#FA0C58"/>
</g>
</g>
<g id="Group 8">
<mask id="mask1" style="mask-type:alpha" maskUnits="userSpaceOnUse" x="16" y="9" width="5" height="6">
<path id="Clip 7" fill-rule="evenodd" clip-rule="evenodd" d="M16.9417 9.06818H20.4835V14.9328H16.9417V9.06818Z" fill="white"/>
</mask>
<g mask="url(#mask1)">
<path id="Fill 6" fill-rule="evenodd" clip-rule="evenodd" d="M17.5415 14.9328C17.3879 14.9328 17.2335 14.8744 17.1167 14.756C16.8831 14.5208 16.8839 14.1416 17.1183 13.908L19.0335 12L17.1183 10.0928C16.8839 9.85918 16.8823 9.47998 17.1167 9.24478C17.3503 9.00958 17.7295 9.00958 17.9647 9.24318L20.3071 11.5752C20.4207 11.6872 20.4839 11.8408 20.4839 12C20.4839 12.1592 20.4207 12.3128 20.3071 12.4248L17.9647 14.7576C17.8479 14.8744 17.6943 14.9328 17.5415 14.9328Z" fill="#FA0C58"/>
</g>
</g>
</g>
</g>
</svg>
