<svg width="20" height="4" viewBox="0 0 20 4" fill="none" xmlns="http://www.w3.org/2000/svg">
<path fill-rule="evenodd" clip-rule="evenodd" d="M2.21823 0.338721C1.4448 0.545254 0.857143 1.30188 0.857143 2.09123C0.857143 2.71782 1.26145 3.38784 1.81696 3.68183C2.53122 4.05985 3.39161 3.93641 3.95723 3.37476C4.32772 3.00687 4.49985 2.59969 4.49985 2.09123C4.49985 1.58278 4.32772 1.1756 3.95723 0.807711C3.50946 0.363084 2.8216 0.17758 2.21823 0.338721ZM9.54518 0.337232C8.90781 0.507699 8.39837 1.01878 8.23145 1.65515C7.98385 2.59909 8.58804 3.59551 9.56046 3.84701C10.5111 4.09287 11.5145 3.49292 11.7678 2.52731C12.0154 1.58338 11.4112 0.586958 10.4388 0.335459C10.1865 0.270208 9.79278 0.270988 9.54518 0.337232ZM16.8743 0.332728C16.2645 0.483195 15.7087 1.02463 15.5524 1.62044C15.387 2.25106 15.5697 2.90573 16.042 3.37476C16.9131 4.23968 18.389 3.99709 18.9353 2.89924C19.212 2.34316 19.212 1.83931 18.9353 1.28323C18.5627 0.534367 17.6895 0.131657 16.8743 0.332728Z" fill="#161616" fill-opacity="0.8"/>
</svg>
