<svg width="101" height="76" viewBox="0 0 101 76" fill="none" xmlns="http://www.w3.org/2000/svg">
<path d="M46.8871 76C67.7893 76 84.735 59.0197 84.735 38C84.735 16.9803 67.7146 0 46.8871 0C25.9848 0 9.03906 16.9803 9.03906 38C9.03906 59.0197 25.9848 76 46.8871 76Z" fill="#2A2E37" fill-opacity="0.5"/>
<path d="M86.5958 25.9605C88.2862 25.9605 89.6565 24.5874 89.6565 22.8936C89.6565 21.1998 88.2862 19.8267 86.5958 19.8267C84.9055 19.8267 83.5352 21.1998 83.5352 22.8936C83.5352 24.5874 84.9055 25.9605 86.5958 25.9605Z" fill="#2A2E37"/>
<path d="M91.0746 13.9917C92.229 13.9917 93.1648 13.054 93.1648 11.8972C93.1648 10.7405 92.229 9.80273 91.0746 9.80273C89.9202 9.80273 88.9844 10.7405 88.9844 11.8972C88.9844 13.054 89.9202 13.9917 91.0746 13.9917Z" fill="#2A2E37"/>
<path d="M11.1293 13.0903C12.2837 13.0903 13.2195 12.1526 13.2195 10.9959C13.2195 9.8391 12.2837 8.90137 11.1293 8.90137C9.97489 8.90137 9.03906 9.8391 9.03906 10.9959C9.03906 12.1526 9.97489 13.0903 11.1293 13.0903Z" fill="#2A2E37"/>
<path d="M4.5381 53.4846C6.68198 53.4846 8.41994 51.7431 8.41994 49.5948C8.41994 47.4466 6.68198 45.7051 4.5381 45.7051C2.39421 45.7051 0.65625 47.4466 0.65625 49.5948C0.65625 51.7431 2.39421 53.4846 4.5381 53.4846Z" fill="#2A2E37"/>
<path fill-rule="evenodd" clip-rule="evenodd" d="M33.8463 57.7648C32.8865 58.1495 31.9565 59.1137 31.5986 60.0955C31.35 60.7778 31.3115 61.2506 31.3115 63.6183V66.353H46.8248H62.3381V63.6143C62.3381 61.2458 62.2996 60.7715 62.0531 60.1057C61.6764 59.0884 60.7505 58.1346 59.7759 57.7603C59.0309 57.4743 58.6441 57.4657 46.7832 57.4725C35.0644 57.4792 34.529 57.4912 33.8463 57.7648ZM25.5391 71.1737C25.5391 73.7356 25.5441 73.7778 25.8933 74.1361L26.2475 74.4998H46.8248H67.4021L67.7562 74.1361C68.1054 73.7778 68.1105 73.7356 68.1105 71.1737V68.5748H46.8248H25.5391V71.1737Z" fill="#484F62"/>
<path fill-rule="evenodd" clip-rule="evenodd" d="M49.1311 7.09485C48.5139 7.28071 47.9307 7.7268 47.6277 8.24464C47.4628 8.52652 47.0707 9.48663 46.7562 10.3783C46.2313 11.8666 46.1979 12.0281 46.3509 12.3473C46.5028 12.6643 47.2464 13.0703 48.0823 13.2924C48.2805 13.345 48.2826 13.3881 48.1106 13.8757C48.0084 14.1653 47.9675 14.4423 48.0196 14.4914C48.1215 14.5874 62.9184 19.859 63.2602 19.9211C63.403 19.947 63.5173 19.8111 63.6351 19.4752C63.7284 19.2095 63.8251 18.9718 63.85 18.9468C63.875 18.9219 64.1929 19.0146 64.5565 19.153C65.3925 19.4708 65.9162 19.4744 66.1967 19.1642C66.4775 18.8539 67.4832 16.0631 67.574 15.3424C67.685 14.4612 67.4321 13.7616 66.7732 13.1268C66.1444 12.5212 67.1615 12.9092 53.983 8.24772C50.4182 6.98677 49.8993 6.86344 49.1311 7.09485ZM44.8846 16.0079C44.5952 16.3759 40.147 28.8758 40.147 29.321C40.147 29.4991 40.2508 29.7451 40.3777 29.8674C40.7442 30.2208 59.3247 36.7771 59.6958 36.684C59.8644 36.6416 60.0761 36.4891 60.1663 36.3451C60.4524 35.8883 64.8272 23.4203 64.8277 23.0605C64.828 22.8712 64.7416 22.6295 64.6358 22.5238C64.385 22.2728 45.9206 15.7117 45.4653 15.7117C45.2444 15.7117 45.0324 15.8198 44.8846 16.0079ZM64.2914 30.4228C63.7989 31.8116 63.4185 32.9677 63.4457 32.9918C63.5453 33.0801 71.2223 35.7797 71.2617 35.7405C71.284 35.7181 71.7138 34.5674 72.2168 33.1835C72.8998 31.304 73.092 30.6449 72.9764 30.579C72.707 30.4255 65.5136 27.8977 65.3462 27.8977C65.2495 27.8977 64.8333 28.8941 64.2914 30.4228ZM75.1983 30.4604C75.0808 30.6504 72.7852 37.0407 72.786 37.1753C72.7864 37.2516 78.3723 39.2993 85.199 41.7255C97.3568 46.0464 97.6186 46.1329 97.9751 45.9485C98.304 45.7784 98.4356 45.4895 99.3433 42.9484C99.8957 41.4019 100.348 40.0237 100.348 39.8854C100.348 39.7473 100.223 39.5175 100.071 39.3747C99.899 39.2137 95.3079 37.5213 87.9814 34.9182C81.4846 32.6099 75.9637 30.6413 75.7128 30.5436C75.462 30.4458 75.2305 30.4083 75.1983 30.4604ZM41.41 32.7549C41.3414 32.9357 41.2852 33.1371 41.2852 33.2024C41.2852 33.4446 40.934 33.4426 40.2879 33.197C39.476 32.8883 39.1743 32.8806 38.8387 33.1599C38.5331 33.4143 37.3477 36.6987 37.3477 37.2913C37.3477 38.1879 37.8123 39.0912 38.5242 39.5793C38.7436 39.7297 42.4198 41.0957 46.6934 42.6147C55.1519 45.6213 55.1972 45.6332 56.2581 45.1194C57.0991 44.7122 57.4501 44.1663 58.1442 42.1866C58.7474 40.466 58.7658 40.3753 58.5891 40.004C58.4449 39.7012 58.2617 39.5698 57.7507 39.4028C56.6289 39.0365 56.6393 39.0475 56.8682 38.4753C56.977 38.2034 57.0342 37.9492 56.9954 37.9104C56.9184 37.8334 42.2923 32.6165 41.8231 32.4986C41.5914 32.4405 41.5105 32.4907 41.41 32.7549Z" fill="#5C6479"/>
<defs>
<filter id="filter0_b_10415_90104" x="-2.65234" y="-33" width="143" height="119" filterUnits="userSpaceOnUse" color-interpolation-filters="sRGB">
<feFlood flood-opacity="0" result="BackgroundImageFix"/>
<feGaussianBlur in="BackgroundImage" stdDeviation="20"/>
<feComposite in2="SourceAlpha" operator="in" result="effect1_backgroundBlur_10415_90104"/>
<feBlend mode="normal" in="SourceGraphic" in2="effect1_backgroundBlur_10415_90104" result="shape"/>
</filter>
</defs>
</svg>
