<svg width="343" height="209" viewBox="0 0 343 209" fill="none" xmlns="http://www.w3.org/2000/svg">
<g clip-path="url(#clip0_10415_90490)">
<mask id="mask0_10415_90490" style="mask-type:alpha" maskUnits="userSpaceOnUse" x="-1" y="0" width="345" height="210">
<path d="M342.424 163.99C342.131 167.786 341.724 171.507 341.198 175.112C340.757 178.14 340.233 181.081 339.62 183.918C339.492 184.518 339.359 185.111 339.22 185.701C337.19 194.442 334.302 202.078 330.463 207.835C330.424 207.896 330.383 207.957 330.342 208.017L326.914 208.085L310.066 208.411L274.467 209.102L245.369 209.396L243.902 209.387L188.077 209.085L20.9671 208.413L14.9988 208.389C14.9988 208.389 10.9671 199.376 7.06358 185.624C6.8984 185.042 6.73322 184.451 6.57021 183.853C4.94448 177.927 3.3709 171.203 2.15812 163.992C-0.717348 146.91 -1.57369 127.1 3.65562 108.735C13.9556 72.5681 27.2484 60.8292 43.1341 54.5924L43.5144 54.4445C57.4745 49.0533 73.4232 47.7708 91.0911 37.8514C100.102 32.7928 106.342 27.1625 112.519 21.7126C112.645 21.5996 112.773 21.4865 112.899 21.3757C117.464 17.3562 122.024 13.4454 127.675 9.95198C128.518 9.42807 129.368 8.92809 130.222 8.44766C130.222 8.44766 130.222 8.44549 130.224 8.44549C131.548 7.69985 132.882 7.00421 134.225 6.35857C134.906 6.03032 135.59 5.71511 136.277 5.41294C136.299 5.40424 136.321 5.39338 136.342 5.38251L136.344 5.38033C137.025 5.08034 137.709 4.79556 138.394 4.52383L138.396 4.52165C146.538 1.2652 154.958 -0.217378 163.36 0.063051C180.637 0.639126 197.833 8.67592 212.302 24.1256C212.428 24.2604 212.556 24.3973 212.682 24.5343C213.2 25.0908 213.715 25.6603 214.223 26.2386C214.499 26.5516 214.773 26.8668 215.047 27.1842C215.456 27.6603 215.866 28.1233 216.275 28.5777C216.297 28.6038 216.319 28.6299 216.34 28.6538C216.562 28.8994 216.781 29.1407 217.003 29.382C217.129 29.5211 217.257 29.6581 217.383 29.7929C217.66 30.0885 217.936 30.3776 218.209 30.6646C218.27 30.7276 218.331 30.7907 218.392 30.8515C219.037 31.5211 219.683 32.1646 220.329 32.7841C220.739 33.1798 221.15 33.5624 221.561 33.9406C221.648 34.021 221.735 34.1015 221.822 34.1797C222.224 34.5471 222.628 34.9058 223.032 35.2536C223.287 35.4754 223.541 35.6906 223.795 35.9058C223.849 35.9493 223.902 35.9949 223.954 36.0362C224.806 36.7449 225.653 37.4145 226.501 38.047C229.09 39.9796 231.661 41.5731 234.221 42.8817C234.347 42.9491 234.475 43.0122 234.602 43.0752C236.047 43.7991 237.486 44.4339 238.922 44.9904L239.303 45.136C245.869 47.6142 252.348 48.4642 258.748 48.6773C258.875 48.6816 259.003 48.6838 259.129 48.6881C259.766 48.7055 260.4 48.7186 261.035 48.7273L261.415 48.7338C274.391 48.8425 287.04 46.8903 299.416 51.2229C299.542 51.2663 299.67 51.312 299.796 51.3576C300.433 51.5859 301.068 51.8337 301.702 52.0989C301.828 52.1511 301.957 52.2033 302.083 52.2598C305.206 53.5967 308.312 55.375 311.4 57.7292C312.489 58.5553 313.574 59.4575 314.656 60.4357C319.54 64.84 324.38 70.8181 329.185 78.9049C339.49 96.2306 344.845 132.623 342.424 163.99Z" fill="#F7F7F7"/>
</mask>
<g mask="url(#mask0_10415_90490)">
<path d="M342.424 163.99C342.131 167.786 341.724 171.507 341.198 175.112C340.757 178.14 340.233 181.081 339.62 183.918C339.492 184.518 339.359 185.111 339.22 185.701C337.19 194.442 334.302 202.078 330.463 207.835C330.424 207.896 330.383 207.957 330.342 208.017L326.914 208.085L310.066 208.411L274.467 209.102L245.369 209.396L243.902 209.387L188.077 209.085L20.9671 208.413L14.9988 208.389C14.9988 208.389 10.9671 199.376 7.06358 185.624C6.8984 185.042 6.73322 184.451 6.57021 183.853C4.94448 177.927 3.3709 171.203 2.15812 163.992C-0.717348 146.91 -1.57369 127.1 3.65562 108.735C13.9556 72.5681 27.2484 60.8292 43.1341 54.5924L43.5144 54.4445C57.4745 49.0533 73.4232 47.7708 91.0911 37.8514C100.102 32.7928 106.342 27.1625 112.519 21.7126C112.645 21.5996 112.773 21.4865 112.899 21.3757C117.464 17.3562 122.024 13.4454 127.675 9.95198C128.518 9.42807 129.368 8.92809 130.222 8.44766C130.222 8.44766 130.222 8.44549 130.224 8.44549C131.548 7.69985 132.882 7.00421 134.225 6.35857C134.906 6.03032 135.59 5.71511 136.277 5.41294C136.299 5.40424 136.321 5.39338 136.342 5.38251L136.344 5.38033C137.025 5.08034 137.709 4.79556 138.394 4.52383L138.396 4.52165C146.538 1.2652 154.958 -0.217378 163.36 0.063051C180.637 0.639126 197.833 8.67592 212.302 24.1256C212.428 24.2604 212.556 24.3973 212.682 24.5343C213.2 25.0908 213.715 25.6603 214.223 26.2386C214.499 26.5516 214.773 26.8668 215.047 27.1842C215.456 27.6603 215.866 28.1233 216.275 28.5777C216.297 28.6038 216.319 28.6298 216.34 28.6538C216.562 28.8994 216.781 29.1407 217.003 29.382C217.129 29.5211 217.257 29.6581 217.383 29.7929C217.66 30.0885 217.936 30.3776 218.209 30.6646C218.27 30.7276 218.331 30.7907 218.392 30.8515C219.037 31.5211 219.683 32.1646 220.329 32.7841C220.739 33.1798 221.15 33.5624 221.561 33.9406C221.648 34.021 221.735 34.1015 221.822 34.1797C222.224 34.5471 222.628 34.9058 223.032 35.2536C223.287 35.4754 223.541 35.6906 223.795 35.9058C223.849 35.9493 223.902 35.9949 223.954 36.0362C224.806 36.7449 225.653 37.4145 226.501 38.047C229.09 39.9796 231.661 41.5731 234.221 42.8817C234.347 42.9491 234.475 43.0122 234.602 43.0752C236.047 43.7991 237.486 44.4339 238.922 44.9904L239.303 45.136C245.869 47.6142 252.348 48.4642 258.748 48.6773C258.875 48.6816 259.003 48.6838 259.129 48.6881C259.766 48.7055 260.4 48.7186 261.035 48.7273L261.415 48.7338C274.391 48.8425 287.04 46.8903 299.416 51.2229C299.542 51.2663 299.67 51.312 299.796 51.3576C300.433 51.5859 301.068 51.8337 301.702 52.0989C301.828 52.1511 301.957 52.2033 302.083 52.2598C305.206 53.5967 308.312 55.3749 311.4 57.7292C312.489 58.5553 313.574 59.4575 314.656 60.4357C319.54 64.84 324.38 70.8181 329.185 78.9049C339.49 96.2306 344.845 132.623 342.424 163.99Z" fill="#F7F7F7"/>
<path opacity="0.2" d="M365 163V208H-19.2369L-37.8792 207.976C-37.8792 207.976 -64.7768 188.484 -78 163H365Z" fill="#B8C0C7"/>
<path d="M42.1517 185.344C49.611 185.344 57.6071 185.129 66.1313 184.627C88.0005 183.344 103.171 180.755 103.323 180.729L103.099 178.94C102.949 178.966 87.8353 181.542 66.0357 182.82C45.927 183.998 15.853 184.283 -13.2233 178.94L-13.4624 180.725C-1.0955 183.003 17.6092 185.344 42.1517 185.344Z" fill="#E0E0E7"/>
<path d="M104.193 207.796H105.501V176.919H104.193V207.796Z" fill="#8C8C94" fill-opacity="0.5"/>
<path d="M106.057 175.842C106.057 175.057 105.516 174.42 104.847 174.42C104.177 174.42 103.636 175.057 103.636 175.842C103.636 176.627 104.177 177.264 104.847 177.264C105.516 177.264 106.057 176.627 106.057 175.842Z" fill="#8C8C94" fill-opacity="0.5"/>
<path d="M103.702 208.104H106.058V207.373H103.702V208.104Z" fill="#8C8C94" fill-opacity="0.5"/>
<path d="M103.85 177.264H105.828V176.673H103.85V177.264Z" fill="#8C8C94" fill-opacity="0.5"/>
<path d="M100.448 179.203L100.759 181.335L103.528 180.803L103.182 178.729L100.448 179.203Z" fill="#8C8C94" fill-opacity="0.5"/>
<path d="M104.523 179.54C104.493 179.316 104.391 179.116 104.234 178.981C104.221 178.968 104.208 178.957 104.193 178.948C104.193 178.946 104.191 178.946 104.191 178.946C104.041 178.833 103.865 178.79 103.689 178.822L103.213 178.909L102.404 179.053C102.389 179.055 102.374 179.059 102.358 179.064H102.356C102.354 179.064 102.354 179.064 102.352 179.064C102.348 179.064 102.339 179.066 102.332 179.07C102.169 179.12 102.028 179.233 101.928 179.394C101.811 179.579 101.765 179.807 101.793 180.029C101.848 180.453 102.161 180.757 102.515 180.757C102.552 180.757 102.589 180.751 102.628 180.744L103.31 180.622L103.493 180.59L103.915 180.516C104.019 180.496 104.112 180.453 104.195 180.39C104.195 180.39 104.197 180.39 104.197 180.388C104.43 180.214 104.567 179.885 104.523 179.54ZM104.193 180.131C104.112 180.229 104.004 180.292 103.886 180.316L103.458 180.392L103.284 180.424H103.282L102.6 180.551C102.295 180.605 102.008 180.359 101.963 180.001C101.941 179.829 101.976 179.655 102.065 179.516C102.154 179.372 102.282 179.279 102.43 179.255L103.123 179.131L103.245 179.107H103.247L103.717 179.022C103.862 178.996 104.01 179.038 104.132 179.142C104.151 179.161 104.173 179.181 104.191 179.203L104.193 179.205C104.278 179.301 104.334 179.429 104.351 179.568C104.382 179.785 104.317 179.99 104.193 180.131Z" fill="#8C8C94" fill-opacity="0.5"/>
<path d="M171.563 41.1448C149.794 41.1448 132.145 58.7966 132.145 80.5701V207.813H210.983V80.5701C210.98 58.7944 193.332 41.1448 171.563 41.1448Z" fill="#E9E9E9"/>
<path d="M171.563 47.3425C151.902 47.3425 135.962 63.2835 135.962 82.9483V208.065H207.162V82.9483C207.162 63.2835 191.224 47.3425 171.563 47.3425Z" fill="#F5F5F7"/>
<path d="M289.277 185.344C281.033 185.344 272.196 185.129 262.776 184.627C238.607 183.344 221.839 180.755 221.674 180.729L221.922 178.94C222.087 178.966 238.79 181.542 262.883 182.82C285.108 183.998 318.345 184.283 350.475 178.94L350.738 180.725C337.073 183.003 316.401 185.344 289.277 185.344Z" fill="#E0E0E7"/>
<path d="M220.711 176.918H219.266V207.796H220.711V176.918Z" fill="#8C8C94" fill-opacity="0.5"/>
<path d="M218.653 175.842C218.653 175.057 219.253 174.42 219.992 174.42C220.731 174.42 221.328 175.057 221.328 175.842C221.328 176.627 220.728 177.264 219.992 177.264C219.251 177.264 218.653 176.627 218.653 175.842Z" fill="#8C8C94" fill-opacity="0.5"/>
<path d="M221.257 207.374H218.653V208.104H221.257V207.374Z" fill="#8C8C94" fill-opacity="0.5"/>
<path d="M221.091 176.672H218.905V177.264H221.091V176.672Z" fill="#8C8C94" fill-opacity="0.5"/>
<path d="M224.851 179.203L224.508 181.335L221.448 180.803L221.828 178.729L224.851 179.203Z" fill="#8C8C94" fill-opacity="0.5"/>
<path d="M223.217 179.394C223.104 179.233 222.948 179.12 222.767 179.07C222.761 179.066 222.754 179.064 222.745 179.064C222.743 179.064 222.743 179.064 222.741 179.064H222.739C222.719 179.059 222.706 179.055 222.689 179.053L221.796 178.909L221.27 178.822C221.072 178.79 220.881 178.833 220.713 178.946C220.698 178.955 220.683 178.968 220.668 178.981C220.494 179.116 220.381 179.314 220.348 179.54C220.298 179.885 220.45 180.216 220.711 180.392C220.802 180.453 220.907 180.498 221.022 180.518L221.487 180.592L221.687 180.625L222.441 180.746C222.482 180.753 222.524 180.759 222.565 180.759C222.954 180.759 223.3 180.453 223.36 180.031C223.397 179.807 223.343 179.579 223.217 179.394ZM223.178 180.001C223.126 180.359 222.813 180.605 222.476 180.551L221.72 180.425L221.526 180.392L221.054 180.316C220.922 180.292 220.805 180.229 220.715 180.131C220.578 179.99 220.507 179.785 220.537 179.566C220.559 179.425 220.62 179.296 220.715 179.201C220.737 179.179 220.759 179.157 220.783 179.14C220.918 179.035 221.081 178.994 221.239 179.02L221.761 179.105H221.763L221.898 179.129L222.665 179.253C222.828 179.277 222.971 179.37 223.067 179.514C223.163 179.655 223.202 179.827 223.178 180.001Z" fill="#8C8C94" fill-opacity="0.5"/>
<path opacity="0.5" d="M41.1303 145.06H22.6147V150.682H41.1303V145.06Z" fill="#B8C0C7"/>
<path d="M42.8103 152.193H20.9346V143.547H42.8103V152.193ZM21.4149 151.712H42.33V144.027H21.4149V151.712Z" fill="#B8C0C7"/>
<path opacity="0.5" d="M258.466 133.249H239.95V138.871H258.466V133.249Z" fill="#B8C0C7"/>
<path d="M260.148 140.384H238.272V131.739H260.148V140.384ZM238.751 139.904H259.666V132.219H238.751V139.904Z" fill="#B8C0C7"/>
<path opacity="0.5" d="M335.591 130.906H317.075V136.528H335.591V130.906Z" fill="#B8C0C7"/>
<path d="M337.271 138.041H315.395V129.395H337.271V138.041ZM315.875 137.56H336.79V129.876H315.875V137.56Z" fill="#B8C0C7"/>
<path d="M271.974 62.64H224.741V127.482H271.974V62.64Z" fill="#F5F5F7"/>
<path d="M246.555 69.9116C246.555 69.9116 250.678 69.1616 255.271 72.442C258.168 74.5115 259.566 73.5159 260.737 76.6397C261.909 79.7636 265.188 81.6396 264.252 84.607C263.315 87.5743 265.814 86.7939 265.11 89.6829C264.408 92.572 265.58 93.9785 265.267 96.0871C264.954 98.1958 257.77 100.617 254.412 100.07C251.054 99.5219 246.916 97.7262 248.088 93.0394C249.259 88.3569 246.555 69.9116 246.555 69.9116Z" fill="#B8C0C7"/>
<path d="M239.581 73.5442C239.581 73.5442 243.26 68.0856 251 70.3116C251 70.3116 253.949 71.5355 255.017 76.5571C256.105 81.6809 252.7 85.5743 250.937 84.6113C249.807 83.9939 248.953 85.9722 248.953 85.9722L239.581 73.5442Z" fill="#B8C0C7"/>
<path d="M257.744 110.893C257.588 111.954 257.331 113.004 256.962 114.024C255.395 118.354 254.586 120.119 254.628 121.758C254.662 123.206 255.358 124.552 256.779 127.482H236.377C238.744 117.524 235.69 114.176 235.486 108.885C235.466 108.413 235.469 107.924 235.503 107.413C235.947 100.611 241.215 93.2937 241.215 93.2937C241.215 93.2937 241.235 93.2916 241.263 93.2872C241.274 93.2872 241.287 93.285 241.304 93.2829C241.337 93.2785 241.376 93.2764 241.415 93.272C241.463 93.2655 241.517 93.2611 241.563 93.2568C241.591 93.2546 241.617 93.2524 241.639 93.2503C241.726 93.2416 241.826 93.2307 241.937 93.222C242.289 93.0372 242.382 91.5568 242.38 89.996C242.38 89.9047 242.38 89.8112 242.378 89.7177C242.376 89.5743 242.374 89.433 242.371 89.2917C242.369 89.1634 242.365 89.0395 242.365 88.9156C242.363 88.8547 242.361 88.7917 242.358 88.7308C242.352 88.546 242.348 88.3612 242.339 88.1852C242.337 88.1047 242.332 88.0286 242.33 87.9504C242.328 87.9156 242.328 87.883 242.326 87.8482C242.319 87.7373 242.317 87.6308 242.311 87.5265C242.308 87.4743 242.306 87.4243 242.304 87.3721C242.302 87.3243 242.298 87.2743 242.298 87.2265C242.293 87.1526 242.289 87.083 242.287 87.0134C242.287 87.0004 242.285 86.9895 242.285 86.9765C242.28 86.8982 242.276 86.8221 242.271 86.7526C242.265 86.6091 242.254 86.4852 242.25 86.3874C242.248 86.3678 242.248 86.3482 242.245 86.3287C242.241 86.2743 242.239 86.2309 242.237 86.2004C242.237 86.1809 242.235 86.1678 242.235 86.1569C242.232 86.1417 242.232 86.1352 242.232 86.1352L248.19 84.957L248.209 84.9526L248.548 84.8852L248.924 84.8091C248.927 84.8113 248.924 84.8113 248.924 84.8113C248.922 85.207 248.931 85.5896 248.946 85.9613C249.133 90.1438 250.391 92.7046 251.157 92.9046C251.198 92.9111 251.239 92.9242 251.28 92.9351C251.28 92.9351 251.28 92.9351 251.283 92.9351C252 93.1351 252.813 93.7916 253.615 94.7894C254.656 96.0763 255.684 97.9371 256.477 100.107C257.638 103.296 258.296 107.163 257.744 110.893Z" fill="#E9E9E9"/>
<path d="M242.23 86.1352C242.23 86.1352 242.374 88.1243 242.378 89.996C245.912 89.896 247.781 86.6721 248.546 84.8831L242.23 86.1352Z" fill="#D4D5D9"/>
<path d="M249.201 84.1961C249.201 84.1961 251.052 81.2679 251.498 78.7658C251.815 76.9789 250.905 70.3551 244.25 71.3072C244.25 71.3072 242.317 71.4985 240.5 72.7246C239.055 73.7007 236.971 75.8072 239.303 81.5896L239.909 83.5418L249.201 84.1961Z" fill="#B8C0C7"/>
<path d="M241.05 87.9091C241.05 87.9091 249.414 88.046 249.42 82.8374C249.427 77.6267 250.509 74.1354 245.169 73.8268C239.829 73.5181 238.79 75.505 238.364 77.2441C237.94 78.981 238.875 87.7395 241.05 87.9091Z" fill="#E9E9E9"/>
<path d="M241.361 73.6985C241.361 73.6985 243.652 79.8114 247.164 80.7157C250.678 81.6201 252.202 80.6788 252.202 80.6788C252.202 80.6788 249.507 78.5375 248.946 74.7985C248.948 74.7963 243.087 70.7877 241.361 73.6985Z" fill="#B8C0C7"/>
<path d="M241.928 74.1942C241.928 74.1942 240.218 75.5593 239.8 76.8854C239.383 78.2115 239.196 80.944 238.401 80.8505C238.401 80.8505 236.675 76.6963 238.614 74.3442C240.67 71.8529 241.928 74.1942 241.928 74.1942Z" fill="#B8C0C7"/>
<path d="M256.825 116.865C257.373 120.452 258.233 124.158 259.031 127.48H232.406C232.937 121.552 234.154 114.906 234.421 110.302C234.443 109.924 234.46 109.559 234.469 109.209C234.069 106.804 233.932 104.715 233.975 102.922C234.091 98.0872 235.508 95.3763 236.599 94.2851C236.905 94.0481 237.216 93.9003 238.457 93.6872C239.09 93.5807 239.97 93.4546 241.213 93.2916C241.213 93.2916 241.233 93.2894 241.261 93.2851C241.272 93.2851 241.285 93.2829 241.302 93.2807C241.335 93.2764 241.374 93.2742 241.413 93.2699C241.461 93.2633 241.515 93.259 241.561 93.2546C241.589 93.2525 241.615 93.2503 241.637 93.2481C241.683 93.246 241.711 93.2459 241.709 93.2503C241.633 93.3873 241.583 93.8155 241.578 94.3611C241.563 95.4437 241.706 97.0024 242.074 97.7285C243.482 100.504 247.403 100.244 249.124 97.7067C249.172 97.6372 249.216 97.5676 249.259 97.4959C250.265 95.8155 251.135 92.8981 251.135 92.8981C251.135 92.8981 251.28 92.909 251.283 92.909C251.611 92.9416 253.176 92.8677 254.708 93.1916C256.095 93.4851 257.431 94.172 258.266 94.7829C258.266 94.7829 258.259 94.7916 258.246 94.8068C258.475 94.9698 258.646 95.1437 258.744 95.3307C259.263 96.3176 259.783 97.6959 260.289 99.3132C261.756 103.981 263.139 110.65 264.191 115.789C260.757 117.678 257.757 117.117 256.825 116.865Z" fill="#B8C0C7"/>
<path d="M268.131 127.48H231.267C231.128 123.134 231.356 115.159 234.421 110.302C234.743 109.791 235.097 109.315 235.486 108.883C236.39 107.87 237.481 107.087 238.794 106.635C239.941 106.239 241.043 105.743 242.095 105.18C245.412 103.398 248.222 100.92 250.341 98.6784C251.756 97.1828 252.867 95.7937 253.615 94.7894C254.067 94.1807 254.388 93.7133 254.562 93.4481C254.671 93.2894 254.725 93.2025 254.725 93.2025C254.725 93.2025 258.942 94.1394 261.285 96.4828C261.574 96.7719 261.904 97.5067 262.258 98.5719C264.232 104.502 267.012 120.698 268.131 127.48Z" fill="#E9E9E9"/>
<path d="M244.512 109.076V127.48H229.044C230.126 119.017 233.119 96.6198 234.732 94.7242C236.723 92.3807 241.935 93.222 241.935 93.222C241.935 93.222 241.778 93.659 241.576 94.3633C241.1 96.022 240.372 99.1675 240.822 101.635C241.039 102.826 241.533 104.063 242.091 105.18C243.18 107.359 244.512 109.076 244.512 109.076Z" fill="#E9E9E9"/>
<path d="M239.581 73.5442C239.581 73.5442 241.298 72.3985 245.169 73.8268C249.04 75.255 249.461 81.207 249.461 81.207C249.461 81.207 251.007 79.8005 251.241 78.5354C251.476 77.2702 250.296 73.0811 248.898 72.1159C246.931 70.7573 244.167 70.5703 242.432 71.0377C240.7 71.5051 239.581 73.5442 239.581 73.5442Z" fill="#E9E9E9"/>
<path d="M256.505 106.95C256.505 106.95 250.259 118.322 244.886 119.698C239.513 121.071 243.513 123.697 247.51 121.321C251.507 118.948 256.505 106.95 256.505 106.95Z" fill="#D4D5D9"/>
<path d="M257.662 112.606C257.662 112.606 254.382 118.511 252.039 120.854C249.696 123.197 253.187 123.504 254.628 121.758C256.069 120.011 257.662 112.606 257.662 112.606Z" fill="#D4D5D9"/>
<path d="M236.671 101.452C236.671 101.452 236.023 104.748 235.503 107.411C234.984 110.074 235.077 115.604 236.11 115.23C237.138 114.856 236.671 101.452 236.671 101.452Z" fill="#D4D5D9"/>
<path d="M223.147 61.6748V129.073H273.569V61.6748H223.147ZM270.383 125.887H226.334V64.8617H270.383V125.887Z" fill="#E9E9E9"/>
<path d="M232.396 21.2474V61.6748V62.29H232.958V61.6748V21.6648L232.396 21.2474Z" fill="#B8C0C7"/>
<path d="M264.726 40.2927V61.6748V62.29H265.286V61.6748V40.4883L264.726 40.2927Z" fill="#B8C0C7"/>
<path d="M95.6553 133.802L-26.877 133.662L-26.6292 66.3204H95.6553V133.802Z" fill="#E9E9E9"/>
<path d="M-27.1269 72.8637C-27.1269 72.8637 -20.0045 69.6768 -12.1323 72.1137C-4.26009 74.5506 -1.44983 76.8006 -1.44983 76.8006C-1.44983 76.8006 4.7358 72.4898 13.1688 74.9267C21.6017 77.3636 21.2279 83.3613 21.2279 83.3613C21.2279 83.3613 24.5381 82.2983 27.6635 83.4244C30.7867 84.5483 30.9128 86.4243 30.9128 86.4243C30.9128 86.4243 36.0356 79.4266 46.4073 80.9266C56.7789 82.4266 57.4027 91.6742 57.4027 91.6742C57.4027 91.6742 59.8391 88.6134 63.6818 89.6438C63.6818 89.6438 64.8055 83.457 72.3973 83.8331C72.3973 83.8331 75.4901 78.0223 82.6125 79.2397C89.7349 80.457 90.1087 84.583 90.1087 84.583C90.1087 84.583 92.8255 81.4896 96.2009 82.7092V96.3002H-27.3095C-27.3138 96.2958 -27.3138 72.6768 -27.1269 72.8637Z" fill="#E9E9E9"/>
<path d="M60.2761 95.5459C60.2761 95.5459 60.3826 95.4502 60.5935 95.2959C61.5954 94.559 64.9382 92.472 70.0545 93.0133C76.2401 93.6698 78.3005 89.733 84.2057 89.546C90.1088 89.359 91.515 85.4222 96.201 85.6091V96.2937L60.2761 95.5459Z" fill="#B8C0C7"/>
<path opacity="0.5" d="M-27.3137 76.6137C-27.3137 76.6137 -17.0051 75.4898 -10.0718 79.9875C-3.13632 84.4874 5.48356 81.1114 12.043 84.4874C18.6025 87.8612 25.5379 85.0504 30.5347 87.6743C35.5336 90.2982 39.2806 92.9242 45.0294 92.6742C50.776 92.4242 54.4013 92.5503 54.6512 95.1741C54.9012 97.798 -26.9399 95.0481 -26.9399 95.0481L-27.0638 77.3028L-27.3137 76.6137Z" fill="#B8C0C7"/>
<path d="M-27.3137 92.5481C-27.3137 92.5481 15.7923 89.5482 40.1588 93.1111C64.5231 96.6719 95.6359 94.6111 95.6359 94.6111V133.802H-26.629C-26.629 133.802 -27.594 92.2655 -27.3137 92.5481Z" fill="#F7F7F7"/>
<path opacity="0.5" d="M-26.9378 99.2958C-26.9378 99.2958 20.6672 99.2958 46.9072 105.857C73.1472 112.417 96.0118 114.667 96.0118 114.667V133.802H-26.6291C-26.6291 133.802 -27.3138 98.9219 -26.9378 99.2958Z" fill="#B8C0C7"/>
<path d="M-27.1268 106.793C-27.1268 106.793 6.23335 105.107 12.2321 111.667C18.2286 118.228 6.23553 122.165 18.2286 124.039C30.2238 125.913 57.5875 124.413 57.5875 133.786H-26.6313C-26.6291 133.789 -27.3138 106.607 -27.1268 106.793Z" fill="#B8C0C7"/>
<path d="M-32.7083 60.5509V139.478H101.874V60.5509H-32.7083ZM96.0618 133.667H-26.8986V66.3617H96.0618V133.667Z" fill="#E9E9E9"/>
<path d="M85.2532 18.7953V60.5509V60.6988H85.8161V60.5509V18.4518L85.2532 18.7953Z" fill="#B8C0C7"/>
<path d="M299.344 46.1338V59.014V66.1095V66.6943V70.3007V74.6202H298.896V70.3007V66.6943V66.1095V59.014V46.1208L299.344 46.1338Z" fill="#B8C0C7"/>
<path d="M361.807 66.1095H288.751V126.289H361.807V66.1095Z" fill="#E9E9E9"/>
<path d="M357.545 70.2986V98.1958C357.525 107.678 357.477 119.415 357.471 121.258H293.669V70.2986H357.545Z" fill="#D4D5D9"/>
<path d="M357.471 95.1111H293.669V121.261H357.471V95.1111Z" fill="#F7F7F7"/>
<path d="M329.859 79.0658C329.859 78.1093 330.635 77.3332 331.594 77.3332C332.552 77.3332 333.328 78.1093 333.328 79.0658C333.328 80.0223 332.552 80.7983 331.594 80.7983C330.635 80.7983 329.859 80.0223 329.859 79.0658Z" fill="#D4D5D9"/>
<path d="M357.544 98.198C357.525 107.68 357.477 119.417 357.471 121.261H306.275C306.964 112.798 332.743 103.07 333.626 101.5C334.519 99.9153 311.22 98.8262 310.622 96.7458C310.487 96.2741 311.398 95.7176 312.963 95.1111C318.286 93.0437 331.191 90.3699 336.401 88.2264C343.143 85.4526 357.518 85.7504 357.518 85.7504C357.531 85.7504 357.54 86.2373 357.544 87.1004C357.56 89.1482 357.555 93.3828 357.544 98.198Z" fill="#B8C0C7"/>
<path d="M305.999 81.5505C305.999 81.5505 306.936 79.8266 309.177 80.0179C309.177 80.0179 312.43 77.1462 315.897 79.6353C315.897 79.6353 319.583 79.0179 322.315 80.1701C324.137 80.9374 324.736 81.7418 324.736 81.7418L305.999 81.5505Z" fill="#E9E9E9"/>
<path opacity="0.4" d="M336.899 76.9419C336.899 76.9419 337.605 75.6441 339.292 75.7876C339.292 75.7876 341.741 73.6246 344.354 75.4985C344.354 75.4985 347.132 75.0332 349.188 75.9006C350.559 76.4789 351.011 77.0854 351.011 77.0854L336.899 76.9419Z" fill="#F8FCFF"/>
<path d="M297.742 87.3352C297.742 87.3352 298.988 85.4309 301.967 85.6439C301.967 85.6439 306.292 82.4723 310.905 85.22C310.905 85.22 315.808 84.5396 319.437 85.8091C321.859 86.6569 322.659 87.546 322.659 87.546L297.742 87.3352Z" fill="#E9E9E9"/>
<path d="M173.645 89.4525C174.167 90.896 174.673 92.3003 174.673 92.3003L164.108 91.9568L157.616 89.2503L157.14 89.0525C157.375 88.8134 157.59 88.5895 157.783 88.3851C159.496 86.5678 159.702 86.0591 159.702 86.0591C159.587 85.4004 159.5 84.783 159.433 84.1874C159.402 84.1657 159.368 84.1483 159.339 84.1222C159.339 84.1222 159.409 83.6722 158.546 80.6831C158.409 80.2027 158.246 79.6592 158.057 79.0375C157.907 78.5527 157.851 78.1158 157.851 77.7267C157.851 76.6354 158.296 75.8767 158.49 75.3398C158.566 75.1202 158.679 74.8854 158.498 74.9593C157.69 75.5376 154.086 72.3203 153.658 70.7399C153.875 70.5181 154.095 70.2986 154.312 70.0855C154.299 70.0768 154.295 70.0725 154.295 70.0725C154.295 70.0725 157.331 66.7617 158.698 66.3465C159.426 66.1247 160.865 66.0769 161.897 66.0769C162.582 66.0769 163.093 66.0986 163.093 66.0986C163.191 66.0943 163.295 66.0856 163.393 66.0813C164.047 66.0378 164.58 65.5334 164.651 64.8769C164.703 64.4139 164.749 63.8617 164.797 63.2074C164.806 63.0704 164.814 62.9248 164.823 62.7791C165.303 62.1922 169.691 63.79 169.691 63.79C169.691 63.79 169.739 63.8335 169.77 63.9269C169.77 64.0465 169.774 64.1661 169.778 64.29C169.783 64.5987 169.8 64.9204 169.835 65.2356C169.839 65.2617 169.839 65.2834 169.844 65.3095C169.896 65.7682 170.324 66.0378 170.778 66.1269C170.924 66.1573 171.069 66.1878 171.219 66.216C171.219 66.2117 171.219 66.2117 171.219 66.2073C171.219 66.2073 175.923 66.7008 176.801 67.7334C177.459 68.5051 177.881 69.5834 178.142 70.4703C178.177 70.5899 178.211 70.7094 178.24 70.8225C178.253 72.7855 176.894 75.6419 174.651 78.6136C174.603 78.6788 174.621 78.7679 174.616 78.844C174.577 79.0419 174.519 79.2636 174.432 79.5245C173.712 81.7896 172.595 85.1352 172.487 85.1526C172.46 85.8548 172.478 86.3265 172.539 86.4678C172.673 86.7787 173.171 88.1286 173.645 89.4525Z" fill="#E9E9E9"/>
<path d="M165.731 120.056C164.386 124.382 165.075 126.602 165.075 126.602C166.999 135.297 165.525 150.999 165.525 150.999H162.506C157.948 139.008 157.811 131.484 157.553 128.66C157.294 125.837 150.513 107.476 150.493 103.544C150.474 99.4414 154.56 92.8611 154.56 92.8611C154.56 92.8611 160.433 95.1263 164.056 97.3654C165.266 98.1132 166.19 98.8436 166.507 99.4632C167.344 101.111 167.966 112.872 165.731 120.056Z" fill="#E9E9E9"/>
<path d="M182.991 150.556H179.603C179.603 150.556 166.386 131.445 165.932 126.587C165.364 120.511 161.117 96.5263 161.117 96.5263L174.675 92.3046C174.675 92.3046 175.86 95.3524 176.853 98.4262C177.286 99.7653 177.681 101.111 177.927 102.211C178.47 104.637 176.942 113.804 175.899 120.321C175.384 123.532 174.986 126.1 175.012 126.902C175.091 129.328 179.548 129.643 182.991 150.556Z" fill="#E9E9E9"/>
<path d="M177.927 102.209C177.927 102.209 173.869 102.341 169.824 103.45C167.131 104.187 164.443 105.357 162.96 107.204C162.96 107.204 159.105 103.035 154.51 101.998C153.256 101.715 151.945 101.665 150.644 101.998C150.644 101.998 150.759 97.7371 156.214 90.2829C156.575 89.7895 156.962 89.2808 157.373 88.7569C157.373 88.7569 162.611 91.7764 171.198 89.9025C171.982 89.7308 172.795 89.5199 173.634 89.2612C173.634 89.2612 175.603 94.0111 176.236 95.9198C176.675 97.2502 177.927 102.209 177.927 102.209Z" fill="#E9E9E9"/>
<path d="M162.506 150.999C162.506 150.999 162.335 152.969 162.082 153.373C161.83 153.777 160.765 155.145 159.55 155.601C158.335 156.058 154.858 155.821 154.588 157.084H166.842C166.842 157.084 167.012 155.19 166.538 153.942C166.066 152.697 165.525 150.997 165.525 150.997H162.506V150.999Z" fill="#E9E9E9"/>
<path d="M182.991 150.556C182.991 150.556 184.36 152.429 184.699 153.171C185.036 153.914 187.264 157.058 186.994 157.086C186.725 157.112 180.783 157.086 180.783 157.086C180.783 157.086 180.174 155.603 180.242 154.59C180.309 153.577 179.431 151.656 179.6 150.556C179.77 149.456 182.991 150.556 182.991 150.556Z" fill="#E9E9E9"/>
<path d="M157.783 88.3851C157.722 88.6938 157.668 88.9851 157.616 89.2503L157.14 89.0525C157.375 88.8134 157.59 88.5916 157.783 88.3851Z" fill="#E9E9E9"/>
<path d="M169.779 64.29C169.779 64.3074 169.77 64.3291 169.765 64.3508C169.655 64.753 168.001 64.8269 166.99 64.6117C166.16 64.4313 165.008 63.8183 164.797 63.2074C164.745 63.0791 164.74 62.9509 164.793 62.827C164.801 62.8096 164.81 62.7922 164.823 62.7791C165.303 62.1922 169.692 63.79 169.692 63.79C169.692 63.79 169.739 63.8335 169.77 63.9269C169.8 64.0074 169.813 64.1269 169.779 64.29Z" fill="#B8C0C7"/>
<path d="M165.703 78.9962C165.703 78.9962 167.042 80.3875 169.183 80.3353C171.324 80.281 172.663 78.2462 172.447 77.6049C172.232 76.9615 170.039 78.3549 168.7 78.1397C167.364 77.9245 165.114 77.8723 165.703 78.9962Z" fill="#D4D5D9"/>
<path d="M157.896 78.0136C157.896 78.0136 158.44 79.3766 159.928 79.8788C161.415 80.381 162.886 79.2201 162.913 78.6941C162.939 78.168 161.052 78.6375 160.191 78.1419C159.326 77.6441 157.794 77.0376 157.896 78.0136Z" fill="#D4D5D9"/>
<path d="M177.964 107.911C178.405 117.137 174.328 128.232 170.255 136.852C170.255 136.852 170.25 136.856 170.25 136.86C168.922 139.667 167.594 142.21 166.425 144.343C164.178 148.43 162.506 150.999 162.506 150.999L158.155 138.645C157.083 137.36 155.692 128.258 155.692 128.258C154.408 126.33 151.98 112.624 151.98 112.624C150.126 110.696 150.502 106.841 150.502 106.841C149.698 105.663 150.233 103.95 150.233 103.95C149.911 102.507 150.644 102 150.644 102C159.722 101.228 174.673 92.3025 174.673 92.3025C179.522 97.6806 177.964 107.911 177.964 107.911Z" fill="#D4D5D9"/>
<path d="M170.361 136.395C170.361 136.395 170.322 136.562 170.254 136.849C170.254 136.849 170.25 136.854 170.25 136.858C168.922 139.664 167.594 142.208 166.425 144.34C166.416 144.267 166.407 144.186 166.399 144.106C165.755 137.786 164.043 128.256 165.075 126.6C166.103 124.945 170.361 136.395 170.361 136.395Z" fill="#B8C0C7"/>
<path d="M175.892 93.4894C175.892 93.4894 163.758 102.485 158.905 105.198C154.051 107.911 161.046 107.911 165.471 103.77C169.896 99.6284 175.892 93.4894 175.892 93.4894Z" fill="#B8C0C7"/>
<path d="M176.177 95.2024C176.177 95.2024 169.718 107.483 162.437 111.552C155.155 115.622 154.299 117.228 156.655 116.906C159.011 116.585 168.005 110.696 170.039 107.483C172.074 104.27 176.177 95.2024 176.177 95.2024Z" fill="#B8C0C7"/>
<path d="M175.892 102.057C175.892 102.057 174.036 113.909 172.039 118.048C170.039 122.189 171.467 126.615 172.324 126.33C172.324 126.33 173.68 125.367 173.68 123.974C173.68 122.582 176.927 109.802 175.892 102.057Z" fill="#B8C0C7"/>
<path d="M155.692 128.258C155.692 128.258 159.261 131.256 159.618 129.686C159.974 128.115 156.192 128.971 155.692 128.258Z" fill="#B8C0C7"/>
<path d="M151.98 112.622C151.98 112.622 153.765 112.943 154.943 112.409C156.121 111.874 156.494 110.535 155.692 110.802C154.89 111.069 153.782 112.569 151.98 112.622Z" fill="#B8C0C7"/>
<path d="M150.5 106.839C150.5 106.839 152.48 108.285 153.336 107.963C154.193 107.643 150.5 106.839 150.5 106.839Z" fill="#B8C0C7"/>
<path d="M191.491 157.171H151.448V162.097H191.491V157.171Z" fill="#D4D5D9"/>
<path d="M196.844 162.062H146.094V208.039H196.844V162.062Z" fill="#E9E9E9"/>
<path d="M180.726 169.836H162.211V175.457H180.726V169.836Z" fill="#B8C0C7"/>
<path d="M182.408 176.968H160.533V168.323H182.408V176.968ZM161.011 176.488H181.926V168.803H161.011V176.488Z" fill="#B8C0C7"/>
<path d="M188.416 144.819C188.416 144.769 189.146 143.258 188.914 143.143C188.681 143.027 188.266 143.045 188.216 143.308C188.168 143.573 188.416 144.819 188.416 144.819Z" fill="#EE805F"/>
<path d="M199.316 126.052C199.316 126.052 203.597 120.906 205.864 124.2C205.864 124.2 207.555 124.902 208.166 127.78C208.79 130.717 206.838 132.949 205.827 132.397C205.18 132.043 204.691 133.178 204.691 133.178L199.316 126.052Z" fill="#151F2C"/>
<path d="M194.004 153.434C190.6 152.179 187.323 146.354 187.323 146.354L188.396 145.601C189.289 146.91 193.313 149.421 193.313 149.421C193.404 148.319 193.539 147.319 193.702 146.412C194.819 140.256 197.373 138.432 198.059 138.045C198.17 137.982 198.233 137.958 198.233 137.958C198.233 137.958 198.231 138.004 198.227 138.088C198.216 138.273 198.194 138.647 198.159 139.158C197.892 142.971 196.849 154.484 194.004 153.434Z" fill="#EE805F"/>
<path d="M205.395 123.676C205.395 123.676 205.971 121.374 209.353 122.093C209.353 122.093 207.733 121.889 207.29 122.513C207.29 122.513 208.572 121.926 209.377 122.417C210.181 122.908 210.311 124.565 210.192 125.067C210.072 125.571 209.185 127.069 208.596 127.069C208.009 127.069 207.314 126.554 207.314 126.554L205.395 123.676Z" fill="#151F2C"/>
<path d="M210.454 159.721C208.772 155.949 207.968 154.882 207.94 153.695C207.918 152.756 208.381 151.743 209.279 149.26C209.489 148.675 209.637 148.073 209.726 147.464C210.437 142.677 207.67 137.504 205.949 137.152C205.471 137.025 204.66 135.295 204.669 132.51L204.454 132.552L200.833 133.269C200.833 133.269 200.915 134.408 200.917 135.482C200.92 136.378 200.865 137.225 200.663 137.332C200.402 137.356 200.248 137.371 200.248 137.371C200.248 137.371 197.227 141.567 196.975 145.467C196.721 149.369 199.394 151.062 196.955 158.86C194.467 166.827 211.385 161.805 210.454 159.721Z" fill="#EE805F"/>
<path d="M200.835 133.271C200.835 133.271 200.918 134.41 200.92 135.484C202.945 135.428 204.017 133.578 204.456 132.554L200.835 133.271Z" fill="#DE6B4D"/>
<path d="M204.83 132.16C204.83 132.16 205.893 130.482 206.147 129.047C206.329 128.023 205.808 124.224 201.991 124.771C201.991 124.771 200.883 124.88 199.842 125.584C199.014 126.143 197.818 127.352 199.155 130.667L199.503 131.786L204.83 132.16Z" fill="#151F2C"/>
<path d="M200.157 134.289C200.157 134.289 204.951 134.367 204.956 131.38C204.96 128.393 205.579 126.391 202.519 126.213C199.457 126.037 198.861 127.176 198.618 128.171C198.374 129.169 198.909 134.191 200.157 134.289Z" fill="#EE805F"/>
<path d="M200.335 126.141C200.335 126.141 201.648 129.645 203.663 130.165C205.677 130.682 206.551 130.143 206.551 130.143C206.551 130.143 205.006 128.915 204.684 126.771C204.684 126.769 201.324 124.471 200.335 126.141Z" fill="#151F2C"/>
<path d="M200.661 126.426C200.661 126.426 199.681 127.208 199.442 127.969C199.203 128.73 199.096 130.295 198.64 130.243C198.64 130.243 197.651 127.86 198.761 126.513C199.939 125.082 200.661 126.426 200.661 126.426Z" fill="#151F2C"/>
<path d="M204.484 195.915C203.278 200.715 201.461 204.396 201.461 204.396L199.661 204.591C199.661 204.591 200.657 200.596 200.611 195.609C200.58 192.124 200.148 188.005 198.772 184.072C194.041 170.557 204.26 171.446 204.354 175.785C204.436 179.688 204.508 182.611 204.508 182.611C206.216 186.296 205.595 191.498 204.484 195.915Z" fill="#EE805F"/>
<path d="M216.692 163.727L215.254 164.16C215.254 164.16 210.505 156.279 210.072 154.227C209.931 153.56 209.585 152.223 209.183 150.727C208.349 147.627 207.273 143.834 207.273 143.834L206.918 142.299L205.71 137.062C205.71 137.062 208.025 137.299 209.379 137.865C209.826 138.052 210.17 138.275 210.289 138.536C211.285 140.723 212.278 146.245 212.976 150.182C213.365 152.377 213.66 154.079 213.817 154.44C214.245 155.451 215.564 160.992 216.692 163.727Z" fill="#EE805F"/>
<path d="M211.315 195.148C210.805 200.609 208.551 204.141 208.551 204.141L207.796 204.691C207.796 204.691 207.081 200.844 206.575 196.266C206.092 191.916 205.432 187.311 204.684 185.905C201.717 180.331 200.824 159.292 200.824 159.292L209.846 158.845C210.752 160.371 211.148 162.873 211.244 165.718C211.48 172.899 209.794 182.261 209.542 183.616C209.542 183.616 209.542 183.618 209.542 183.62C209.522 183.724 209.553 183.829 209.6 183.922C211.391 187.474 211.652 191.542 211.315 195.148Z" fill="#EE805F"/>
<path d="M200.479 126.543C200.479 126.543 201.413 130.213 203.956 131.389C203.956 131.389 201.413 129.134 201.198 126.71C200.981 124.289 200.479 126.543 200.479 126.543Z" fill="#151F2C"/>
<path d="M211.587 162.444C211.602 162.749 213.945 189.161 213.888 189.335C213.697 189.94 195.775 192.696 195.264 188.99C194.703 184.914 196.29 150.393 196.384 146.501C196.155 145.121 196.077 143.923 196.101 142.895C196.166 140.123 196.979 138.569 197.605 137.945C197.783 137.808 197.959 137.723 198.67 137.602C199.033 137.541 199.537 137.469 200.25 137.373C200.25 137.373 200.541 137.341 200.535 137.352C200.402 137.586 199.255 139.651 199.318 140.351C199.461 141.96 202.708 141.817 204.549 140.697C205.995 139.817 206.727 137.199 206.727 137.199C206.727 137.199 208.944 137.441 210.028 138.23C210.028 138.23 210.024 138.234 210.018 138.243C210.148 138.336 210.246 138.436 210.302 138.543C211.459 140.745 213.81 148.258 214.623 152.223C214.193 155.025 211.406 156.247 210.872 156.103C211.072 159.425 211.482 160.362 211.587 162.444Z" fill="#455A64"/>
<path d="M188.396 145.601C188.396 145.454 188.52 143.31 188.14 142.86C187.759 142.41 186.979 141.771 186.736 141.791C186.49 141.81 185.534 143.082 185.821 144.058C186.108 145.034 187.323 146.353 187.323 146.353L188.396 145.601Z" fill="#EE805F"/>
<path d="M190.148 143.18L187.364 143.243C187.273 143.245 187.195 143.171 187.192 143.08L187.073 137.771C187.071 137.68 187.145 137.601 187.236 137.599L190.02 137.536C190.113 137.534 190.19 137.608 190.192 137.699L190.311 143.008C190.313 143.101 190.24 143.177 190.148 143.18Z" fill="#F1A34F"/>
<path d="M189.424 143.195L186.899 143.251C186.736 143.256 186.599 143.125 186.595 142.962L186.482 137.912C186.477 137.749 186.608 137.612 186.771 137.608L189.296 137.551C189.459 137.547 189.596 137.678 189.6 137.841L189.716 142.891C189.718 143.056 189.587 143.193 189.424 143.195Z" fill="#D86713"/>
<path d="M197.981 153.819C197.877 153.814 196.973 153.89 196.058 153.962C195.112 154.036 194.158 154.108 194.058 154.077C193.825 154.01 193.604 153.806 193.395 153.512C192.374 152.06 191.687 148.43 191.687 148.43C191.928 146.956 193.595 146.388 193.915 145.036C195.438 138.569 197.872 137.819 197.872 137.819C197.872 137.819 199.674 153.908 197.981 153.819Z" fill="#455A64"/>
<path d="M186.505 141.956C186.505 141.956 187.429 140.534 187.655 140.612C187.977 140.725 186.816 142.53 186.816 142.53C186.816 142.53 187.677 141.182 187.809 141.282C188.116 141.512 187.062 143.684 187.062 143.684L186.425 142.941L186.505 141.956Z" fill="#EE805F"/>
<path d="M185.812 143.275C185.858 143.101 186.438 139.708 186.536 140.03C186.634 140.351 186.571 142.095 186.571 142.095L185.812 143.275Z" fill="#EE805F"/>
<path d="M201.463 204.396L199.941 203.261C199.941 203.261 199.752 204.15 199.511 204.431C199.111 204.891 198.322 205.411 198.025 205.637C197.553 205.994 195.962 206.654 195.962 206.667C195.962 207.248 199.059 207.272 199.807 207.357C200.554 207.444 201.237 207.428 201.409 206.854C201.524 206.467 201.346 205.689 201.339 205.044C201.335 204.731 201.463 204.396 201.463 204.396Z" fill="#EE805F"/>
<path d="M199.318 207.867C198.122 207.807 198.459 207.83 196.801 207.974C195.143 208.115 194.53 207.609 194.432 207.376C194.345 207.17 195.123 206.937 195.962 206.667L195.992 206.683C195.992 206.683 197.094 207.178 198.451 206.944C199.557 206.752 200.661 206.204 201.424 206.068C201.491 206.315 201.559 206.57 201.559 206.833C201.556 207.576 201.45 207.976 199.318 207.867Z" fill="#151F2C"/>
<path d="M209.879 201.335L207.314 201.637C207.314 201.637 207.451 203.678 207.307 204.181C206.984 205.315 206.288 205.689 205.74 205.92C205.195 206.148 203.665 206.652 203.665 206.667C203.665 207.248 206.762 207.272 207.51 207.357C208.257 207.444 208.94 207.428 209.111 206.854C209.227 206.467 209.048 205.689 209.042 205.044C209.038 204.731 209.879 201.335 209.879 201.335Z" fill="#EE805F"/>
<path d="M207.26 207.904C206.266 207.833 206.16 207.833 204.501 207.974C202.843 208.115 202.23 207.609 202.135 207.376C202.048 207.17 202.824 206.937 203.665 206.667L203.695 206.683C203.695 206.683 204.797 207.178 206.153 206.944C207.26 206.752 208.364 206.204 209.127 206.068C209.194 206.315 209.261 206.57 209.261 206.833C209.259 207.576 208.877 208.02 207.26 207.904Z" fill="#151F2C"/>
<path d="M210.87 156.103C210.898 156.103 208.657 148.399 208.37 148.916C208.083 149.434 211.704 164.151 211.704 164.151L210.87 156.103Z" fill="#455A64"/>
<path d="M196.084 153.949L196.058 153.962C195.112 154.036 194.158 154.108 194.058 154.077C193.826 154.01 193.604 153.806 193.395 153.512C193.695 153.119 194.856 152.712 195.264 152.44C195.782 152.095 196.645 148.345 196.816 149.034C196.99 149.723 196.084 153.949 196.084 153.949Z" fill="#455A64"/>
<path d="M201.209 132.686C201.209 132.686 201.126 133.039 200.25 132.984C200.25 132.984 199.516 132.939 199.537 132.552C199.537 132.552 200.25 132.278 201.209 132.686Z" fill="white"/>
<path d="M216.562 163.555C216.562 163.555 218.298 164.71 218.564 165.197C218.829 165.684 219.448 167.475 219.448 167.475C219.448 167.475 219.005 167.542 218.564 166.766C218.12 165.992 216.662 166.057 216.175 165.638C215.688 165.218 215.123 163.986 215.123 163.986L216.562 163.555Z" fill="#EE805F"/>
<path d="M215.312 164.368C215.312 164.368 215.601 165.727 215.956 166.127C216.31 166.527 216.797 167.19 216.994 167.012C217.194 166.836 216.773 165.353 216.773 165.353L215.312 164.368Z" fill="#EE805F"/>
<path d="M218.323 165.351C218.366 165.418 219.894 167.04 219.894 167.04C219.894 167.04 219.34 167.29 219.185 167.04C219.029 166.79 218.323 165.351 218.323 165.351Z" fill="#EE805F"/>
<path d="M71.8953 137.054C71.8953 137.054 77.9222 143.145 78.22 145.606C78.5178 148.066 75.1989 151.91 75.1989 151.91L71.8953 137.054Z" fill="#455A64"/>
<path d="M68.7655 204.376C68.7655 204.376 68.5265 207.939 67.8549 207.987C67.7657 207.993 64.4621 207.976 64.4621 207.976L59.9805 207.933C59.9805 207.933 60.2674 206.837 61.5041 206.624C62.7407 206.411 64.812 205.546 65.5662 203.913C66.3595 202.198 68.7655 204.376 68.7655 204.376Z" fill="#151F2C"/>
<path d="M78.1895 204.396C78.1895 204.396 77.9678 207.865 77.2962 207.913C77.2071 207.92 73.8926 207.913 73.8926 207.913L69.6174 207.987C69.6174 207.987 69.6913 206.859 70.928 206.646C72.1647 206.433 74.236 205.567 74.9902 203.935C75.7813 202.218 78.1895 204.396 78.1895 204.396Z" fill="#151F2C"/>
<path d="M64.1621 167.081C64.1621 167.081 65.2532 174.162 69.3545 186.735C73.4558 199.309 74.0056 204.752 74.0056 204.752L78.4351 204.637C78.4351 204.637 78.5025 190.905 76.6138 184.583C74.725 178.262 76.253 161.803 76.253 161.803L64.1621 167.081Z" fill="#384152"/>
<path d="M62.0169 162.162C62.0169 162.162 61.8365 172.829 63.6535 185.929C65.4705 199.028 64.8337 204.587 64.8337 204.587L69.2523 204.744C69.2523 204.744 71.9213 191.648 71.178 185.092C70.4347 178.533 74.8446 162.605 74.8446 162.605L62.0169 162.162Z" fill="#384152"/>
<path d="M70.6261 137.219L68.2679 138.758L64.8665 138.117C64.9143 137.843 65.1403 136.704 65.349 135.673C65.362 135.612 65.375 135.552 65.3859 135.493C65.5641 134.617 65.7163 133.862 65.7163 133.862L68.8982 132.467L70.0849 131.947C70.0827 131.967 69.9914 132.921 69.9784 133.06C69.748 135.534 70.6261 137.219 70.6261 137.219Z" fill="#EE805F"/>
<path d="M76.5399 163.51C75.8509 166.627 64.4751 166.97 61.5497 164.136C61.2171 163.812 61.2041 162.312 61.3345 160.288C61.5888 156.334 62.393 150.388 62.4299 147.349C62.4473 145.882 62.6538 144.382 62.9254 143.019C63.5036 140.115 64.3795 137.838 64.3795 137.838C64.3795 137.838 69.9392 136.054 70.9781 136.362C75.9791 137.843 77.2311 160.392 76.5399 163.51Z" fill="#455A64"/>
<path d="M61.3345 160.286C61.5888 156.332 62.3929 150.386 62.4299 147.347C62.4473 145.88 62.6537 144.38 62.9254 143.017L66.2682 142.434C66.266 142.434 69.5044 155.79 61.3345 160.286Z" fill="#455A64"/>
<path d="M63.1559 154.779C63.1559 154.779 63.3819 155.325 62.9038 155.688C62.4256 156.053 62.1126 156.645 62.2213 157.077C62.33 157.51 63.3776 158.218 63.7427 158.105C64.1057 157.992 64.849 157.423 64.7686 157.195C64.6903 156.966 65.2706 155.192 64.386 154.505C63.4993 153.823 63.1559 154.779 63.1559 154.779Z" fill="#EE805F"/>
<path d="M66.9311 137.041C66.9311 137.041 63.671 137.643 61.065 141.467C58.459 145.288 56.7442 148.132 57.2202 149.512C57.6962 150.893 62.0452 155.686 62.7972 155.688C63.5493 155.69 64.7642 155.145 64.8338 153.916C64.8338 153.916 61.7736 149.308 62.3799 148.621C62.6386 148.327 66.3726 145.308 66.9029 146.677C67.7788 148.938 66.9311 137.041 66.9311 137.041Z" fill="#455A64"/>
<path d="M69.7371 133.102C69.0372 134.282 66.4334 135.299 65.3489 135.673C65.3619 135.612 65.375 135.552 65.3858 135.493C65.564 134.617 65.7162 133.862 65.7162 133.862L68.8981 132.467C69.6001 132.456 70.0261 132.615 69.7371 133.102Z" fill="#DE6B4D"/>
<path d="M64.5185 133.665C64.5185 133.665 69.6348 135.273 70.5868 132.071C71.5387 128.869 72.8406 126.919 69.6152 125.758C66.3898 124.595 65.3879 125.628 64.8097 126.619C64.2316 127.61 63.2123 133.162 64.5185 133.665Z" fill="#EE805F"/>
<path d="M65.012 126.31C65.012 126.31 65.3293 130.041 66.1009 129.88C66.8724 129.719 67.5723 129.602 67.4571 130.726C67.3419 131.849 66.2704 133.145 68.646 133.349C71.0215 133.554 74.4512 127.432 73.7992 126.271C71.9235 122.917 62.2973 122.219 65.012 126.31Z" fill="#151F2C"/>
<path d="M65.7424 136.43C65.8076 136.402 69.8436 135.221 70.2805 135.367C70.7174 135.512 70.976 136.36 70.976 136.36L64.3774 137.836C64.3774 137.836 64.8991 136.782 65.7424 136.43Z" fill="#455A64"/>
<path d="M122.669 145.356C122.669 145.356 124.203 145.625 124.508 146.84C125.197 149.601 124.96 157.16 125.642 159.505C126.325 161.851 128.277 167.686 128.568 168.901C128.568 168.901 127.768 169.41 127.301 169.225C127.025 169.116 122.423 161.177 121.937 160.001C121.45 158.827 122.669 145.356 122.669 145.356Z" fill="#EE805F"/>
<path d="M117.97 196.926C117.577 202.324 119.194 206.131 119.194 206.131L119.839 206.789C119.839 206.789 121.163 203.161 122.402 198.789C123.58 194.633 124.975 190.261 125.931 189.016C129.728 184.077 134.03 163.744 134.03 163.744L125.323 161.836C124.191 163.173 123.397 165.544 122.843 168.297C121.441 175.246 121.556 184.633 121.58 185.994C121.58 185.994 121.58 185.996 121.58 185.998C121.582 186.103 121.537 186.198 121.474 186.283C119.146 189.446 118.231 193.361 117.97 196.926Z" fill="#384152"/>
<path d="M124.623 161.603C127.029 153.91 124.393 152.236 124.643 148.386C124.893 144.536 127.875 140.397 127.875 140.397C127.875 140.397 128.027 140.382 128.283 140.358C128.483 140.254 128.537 139.417 128.535 138.532C128.533 137.471 128.451 136.347 128.451 136.347L129.424 136.154L132.024 135.639L132.237 135.597C132.234 136.189 132.269 136.73 132.332 137.219C132.443 138.104 132.639 138.815 132.856 139.317C133.076 139.83 133.315 140.128 133.502 140.178C135.199 140.525 137.931 145.632 137.229 150.356C137.14 150.956 136.996 151.549 136.788 152.127C135.901 154.577 135.445 155.577 135.466 156.503C135.495 157.675 136.288 158.727 137.946 162.449C138.861 164.505 122.165 169.462 124.623 161.603Z" fill="#EE805F"/>
<path d="M128.677 198.168C129.868 202.904 131.659 206.537 131.659 206.537L133.219 206.428C133.219 206.428 132.454 202.787 132.497 197.868C132.528 194.429 132.954 190.363 134.312 186.481C138.981 173.142 138.227 163.436 138.227 163.436L129.446 164.464L129.037 164.512C129 168.544 128.896 174.022 128.805 178.303C128.724 182.155 128.653 185.04 128.653 185.04C126.966 188.674 127.579 193.807 128.677 198.168Z" fill="#384152"/>
<path d="M139.061 165.136C139.077 165.436 139.061 165.675 139.007 165.847C138.818 166.442 138.168 166.714 136.594 166.551C135.634 166.451 135.206 164.84 135.014 163.464C134.436 165.431 133.628 166.534 132.584 166.766C131.059 167.105 123.369 168.04 122.865 164.384C122.311 160.362 123.969 153.24 124.06 149.399C123.834 148.038 123.756 146.856 123.782 145.84C123.847 143.106 124.649 141.571 125.266 140.954C125.44 140.819 125.616 140.736 126.318 140.615C126.677 140.554 127.175 140.482 127.879 140.391C127.879 140.391 128.166 140.358 128.159 140.369C128.029 140.601 126.288 143.241 126.423 143.919C126.564 144.63 132.743 143.991 133.169 143.599C133.595 143.208 134.269 140.217 134.269 140.217C134.269 140.217 136.458 140.456 137.527 141.234C137.527 141.234 137.523 141.238 137.516 141.247C137.646 141.341 137.742 141.438 137.796 141.543C138.937 143.717 140.078 149.203 140.88 153.119C138.937 154.19 137.24 153.871 136.712 153.729C137.396 158.242 138.957 163.081 139.061 165.136Z" fill="#455A64"/>
<path d="M118.674 207.972H119.67C120.004 207.92 120.25 207.822 120.591 207.778C121.111 207.711 121.35 207.924 121.398 207.972C121.404 207.978 121.406 207.983 121.406 207.983H125.638C125.745 207.83 125.642 207.478 125.542 207.22C125.475 207.044 125.327 206.911 125.147 206.857C124.699 206.726 123.812 206.611 123.004 205.876C122.547 205.463 120.802 204.361 120.802 204.361L120.793 204.359C120.754 204.359 120.572 204.415 119.778 205.087C119.368 205.433 118.668 204.598 118.668 204.598C118.668 204.598 118.537 204.707 118.437 204.909C118.359 205.067 118.3 205.287 118.346 205.559C118.409 205.939 118.205 206.65 118.044 207.128C117.946 207.42 117.861 207.624 117.861 207.624C117.861 207.624 117.818 207.865 118.674 207.972Z" fill="#151F2C"/>
<path d="M118.442 204.909C118.679 205.076 119.181 205.407 119.515 205.45C119.965 205.509 120.806 204.361 120.806 204.361L120.798 204.359C120.759 204.359 120.576 204.415 119.783 205.087C119.372 205.433 118.672 204.598 118.672 204.598C118.672 204.598 118.539 204.707 118.442 204.909Z" fill="#455A64"/>
<path d="M121.661 207.704C121.465 207.563 120.88 207.313 120.063 207.509C119.352 207.678 118.305 207.243 118.046 207.126C117.948 207.417 117.864 207.622 117.864 207.622C117.864 207.622 117.816 207.861 118.672 207.967H119.667C120.002 207.915 120.248 207.817 120.589 207.774C121.108 207.707 121.348 207.92 121.395 207.967C121.402 207.974 121.404 207.978 121.404 207.978H125.636C125.742 207.826 125.64 207.474 125.54 207.215C125.412 207.1 125.375 207.711 125.305 207.809L121.661 207.704Z" fill="#455A64"/>
<path d="M130.815 207.972H131.811C132.145 207.92 132.391 207.822 132.732 207.778C133.252 207.711 133.491 207.924 133.539 207.972C133.545 207.978 133.547 207.983 133.547 207.983H137.779C137.885 207.83 137.783 207.478 137.683 207.22C137.616 207.044 137.468 206.911 137.288 206.857C136.838 206.726 135.953 206.611 135.145 205.876C134.688 205.463 132.943 204.361 132.943 204.361L132.934 204.359C132.895 204.359 132.713 204.415 131.919 205.087C131.509 205.433 130.809 204.598 130.809 204.598C130.809 204.598 130.678 204.707 130.578 204.909C130.5 205.067 130.441 205.287 130.487 205.559C130.55 205.939 130.346 206.65 130.185 207.128C130.087 207.42 130.002 207.624 130.002 207.624C130.002 207.624 129.957 207.865 130.815 207.972Z" fill="#151F2C"/>
<path d="M130.581 204.909C130.817 205.076 131.32 205.407 131.654 205.45C132.104 205.509 132.945 204.361 132.945 204.361L132.937 204.359C132.897 204.359 132.715 204.415 131.922 205.087C131.511 205.433 130.811 204.598 130.811 204.598C130.811 204.598 130.678 204.707 130.581 204.909Z" fill="#455A64"/>
<path d="M133.802 207.704C133.606 207.563 133.021 207.313 132.204 207.509C131.493 207.678 130.446 207.243 130.187 207.126C130.089 207.417 130.005 207.622 130.005 207.622C130.005 207.622 129.957 207.861 130.813 207.967H131.809C132.143 207.915 132.389 207.817 132.73 207.774C133.25 207.707 133.489 207.92 133.536 207.967C133.543 207.974 133.545 207.978 133.545 207.978H137.777C137.883 207.826 137.781 207.474 137.681 207.215C137.553 207.1 137.516 207.711 137.447 207.809L133.802 207.704Z" fill="#455A64"/>
<path d="M127.872 140.397C127.872 140.397 124.856 140.634 123.949 141.425C122.593 142.61 121.778 151.936 121.839 152.193C121.9 152.449 122.517 153.371 124.156 153.166C125.795 152.962 125.538 143.738 125.795 143.227C126.051 142.71 127.872 140.397 127.872 140.397Z" fill="#455A64"/>
<path d="M140.098 169.829L138.622 169.973C138.622 169.973 135.523 161.438 135.497 159.368C135.488 158.695 135.408 157.336 135.301 155.81C135.084 152.649 134.764 148.771 134.764 148.771L134.714 147.217L134.541 141.917C134.541 141.917 136.738 142.586 137.94 143.393C138.338 143.66 138.627 143.941 138.692 144.217C139.239 146.523 139.148 152.058 139.076 156.005C139.035 158.205 138.998 159.912 139.079 160.29C139.303 161.349 139.526 166.966 140.098 169.829Z" fill="#EE805F"/>
<path d="M139.759 169.24C139.759 169.24 141.019 171.003 141.104 171.618C141.189 172.233 140.778 173.629 140.676 173.799C140.574 173.968 139.833 173.055 139.652 172.581C139.47 172.107 139.174 171.186 139.094 171.603C139.011 172.018 139.05 172.494 138.746 172.296C138.442 172.099 138.672 169.627 138.672 169.627L139.759 169.24Z" fill="#EE805F"/>
<path d="M140.876 153.125C140.876 153.125 137.162 155.119 134.032 153.677C130.9 152.236 134.54 141.919 134.54 141.919H137.32C137.318 141.919 139.815 144.312 140.876 153.125Z" fill="#455A64"/>
<path d="M130.335 126.904C130.335 126.904 126.312 126.38 125.038 130.582C124.064 133.793 121.95 135.489 122.011 138.882C122.071 142.275 122.734 142.275 122.008 144.093C121.282 145.91 123.039 147.727 124.856 147.727C126.673 147.727 135.721 144.845 136.042 143.136C136.364 141.428 134.816 138.282 135.362 137.006C135.908 135.732 134.593 133.789 134.91 131.067C135.101 129.441 133.704 126.554 130.335 126.904Z" fill="#151F2C"/>
<path d="M252.913 148.632C252.913 148.632 256.92 148.71 257.207 149.862C257.859 152.477 255.082 159.814 255.729 162.034C256.375 164.255 258.225 169.781 258.501 170.931C258.501 170.931 257.744 171.412 257.299 171.238C257.036 171.136 252.68 163.614 252.217 162.501C251.756 161.39 252.913 148.632 252.913 148.632Z" fill="#EE805F"/>
<path d="M254.96 198.655C255.671 203.733 257.999 206.433 257.999 206.433L258.653 207.415C258.653 207.415 259.157 203.791 259.433 199.496C259.698 195.413 260.12 191.085 260.757 189.742C263.291 184.411 263.228 164.729 263.228 164.729L254.786 164.697C254.004 166.16 253.741 168.512 253.775 171.173C253.86 177.888 255.834 186.557 256.127 187.811V187.813C256.151 187.911 256.125 188.007 256.084 188.098C254.56 191.494 254.491 195.3 254.96 198.655Z" fill="#455A64"/>
<path d="M263.939 187.581C268.361 174.949 267.646 165.753 267.646 165.753L259.331 166.727L258.944 166.773C258.909 170.592 258.811 175.779 258.725 179.835C258.648 183.483 258.581 186.216 258.581 186.216C256.981 189.659 262.652 191.257 263.939 187.581Z" fill="#455A64"/>
<path d="M258.581 186.214C258.581 186.214 254.062 187.937 252.237 202.163L253.589 202.75L263.939 187.579L258.581 186.214Z" fill="#455A64"/>
<path d="M256.923 207.935H257.866C258.181 207.885 258.416 207.793 258.74 207.75C259.233 207.685 259.459 207.887 259.505 207.935C259.511 207.941 259.513 207.943 259.513 207.943H263.521C263.621 207.8 263.526 207.465 263.43 207.22C263.367 207.052 263.228 206.926 263.054 206.876C262.628 206.752 261.791 206.644 261.024 205.948C260.591 205.559 258.94 204.513 258.94 204.513L258.931 204.511C258.894 204.511 258.722 204.565 257.97 205.2C257.581 205.528 256.918 204.737 256.918 204.737C256.918 204.737 256.794 204.839 256.701 205.033C256.627 205.185 256.573 205.391 256.614 205.648C256.675 206.009 256.482 206.68 256.327 207.135C256.234 207.411 256.155 207.604 256.155 207.604C256.155 207.604 256.11 207.833 256.923 207.935Z" fill="#151F2C"/>
<path d="M256.701 205.035C256.927 205.194 257.401 205.507 257.718 205.548C258.144 205.604 258.94 204.517 258.94 204.517L258.931 204.515C258.894 204.515 258.722 204.57 257.97 205.204C257.581 205.533 256.919 204.741 256.919 204.741C256.919 204.741 256.795 204.844 256.701 205.035Z" fill="#455A64"/>
<path d="M263.43 207.222C263.308 207.113 263.274 207.691 263.206 207.785L259.75 207.685C259.566 207.55 259.011 207.315 258.238 207.5C257.564 207.661 256.573 207.248 256.327 207.139C256.234 207.415 256.155 207.609 256.155 207.609C256.155 207.609 256.11 207.835 256.923 207.937H257.866C258.181 207.887 258.416 207.796 258.74 207.752C259.233 207.687 259.459 207.889 259.505 207.937C259.511 207.944 259.513 207.946 259.513 207.946H263.521C263.621 207.8 263.524 207.467 263.43 207.222Z" fill="#455A64"/>
<path d="M250.144 203.331L250.815 203.994C251.076 204.181 251.307 204.278 251.565 204.476C251.961 204.776 251.98 205.078 251.98 205.144C251.98 205.152 251.98 205.157 251.98 205.157L254.832 207.974C255.004 207.943 255.171 207.637 255.275 207.396C255.347 207.233 255.336 207.043 255.249 206.887C255.034 206.5 254.515 205.833 254.456 204.8C254.423 204.22 253.982 202.313 253.982 202.313L253.978 202.307C253.952 202.281 253.791 202.198 252.811 202.122C252.304 202.083 252.389 201.055 252.389 201.055C252.389 201.055 252.228 201.039 252.028 201.111C251.87 201.165 251.685 201.276 251.535 201.489C251.324 201.789 250.715 202.131 250.285 202.346C250.024 202.476 249.833 202.559 249.833 202.559C249.833 202.559 249.637 202.687 250.144 203.331Z" fill="#151F2C"/>
<path d="M252.024 201.111C252.072 201.383 252.191 201.939 252.387 202.189C252.65 202.528 253.98 202.315 253.98 202.315L253.976 202.309C253.95 202.283 253.789 202.2 252.809 202.124C252.302 202.085 252.387 201.057 252.387 201.057C252.387 201.057 252.226 201.039 252.024 201.111Z" fill="#455A64"/>
<path d="M254.721 207.639L252.335 205.139C252.298 204.913 252.067 204.357 251.387 203.944C250.796 203.585 250.379 202.594 250.283 202.344C250.022 202.474 249.831 202.557 249.831 202.557C249.831 202.557 249.64 202.687 250.146 203.328L250.818 203.991C251.078 204.178 251.309 204.276 251.567 204.474C251.963 204.774 251.983 205.076 251.983 205.141C251.983 205.15 251.983 205.154 251.983 205.154L254.834 207.972C255.006 207.941 255.173 207.635 255.277 207.393C255.264 207.235 254.832 207.622 254.721 207.639Z" fill="#455A64"/>
<path d="M253.771 167.216C254.736 159.295 254.008 154.623 254.245 150.975C254.482 147.33 257.84 143.934 257.84 143.934C257.84 143.934 257.983 143.919 258.227 143.897C258.416 143.797 258.468 143.004 258.464 142.169C258.462 141.164 258.383 140.099 258.383 140.099L259.305 139.917L261.767 139.43L261.97 139.391C261.967 139.949 262 140.465 262.059 140.928C262.163 141.767 262.35 142.438 262.554 142.914C262.763 143.399 262.989 143.682 263.165 143.73C264.773 144.06 267.36 148.897 266.695 153.371C266.61 153.94 266.475 154.501 266.277 155.049C265.438 157.371 265.006 158.316 265.025 159.195C265.052 160.303 265.667 164.249 267.238 167.775C268.11 169.716 253.4 170.26 253.771 167.216Z" fill="#384152"/>
<path d="M257.84 143.934C257.84 143.934 254.982 144.158 254.126 144.906C252.841 146.03 252.069 154.86 252.126 155.103C252.185 155.347 252.769 156.219 254.319 156.025C255.871 155.832 255.627 147.097 255.871 146.61C256.114 146.125 257.84 143.934 257.84 143.934Z" fill="#384152"/>
<path d="M269.418 171.809L268.02 171.946C268.02 171.946 265.086 163.862 265.06 161.903C265.051 161.266 264.975 159.977 264.875 158.532C264.669 155.538 264.367 151.866 264.367 151.866L264.319 150.395L264.154 145.375C264.154 145.375 266.234 146.01 267.373 146.773C267.751 147.025 268.022 147.293 268.086 147.553C268.603 149.738 268.518 154.982 268.448 158.718C268.409 160.801 268.375 162.416 268.451 162.777C268.666 163.779 268.877 169.099 269.418 171.809Z" fill="#EE805F"/>
<path d="M269.096 171.251C269.096 171.251 270.29 172.92 270.37 173.503C270.45 174.086 270.061 175.407 269.964 175.568C269.868 175.729 269.166 174.864 268.994 174.416C268.822 173.968 268.542 173.094 268.464 173.49C268.386 173.886 268.423 174.333 268.134 174.146C267.844 173.959 268.064 171.618 268.064 171.618L269.096 171.251Z" fill="#EE805F"/>
<path d="M270.155 155.988C270.155 155.988 266.636 157.875 263.671 156.51C260.707 155.145 264.151 145.373 264.151 145.373H266.784C266.786 145.375 269.15 147.64 270.155 155.988Z" fill="#384152"/>
<path d="M260.172 131.156C260.172 131.156 256.362 130.658 255.156 134.641C254.234 137.68 252.23 139.288 252.287 142.501C252.343 145.714 252.974 145.714 252.285 147.436C251.598 149.158 252.439 152.477 254.039 153.11C264.791 157.36 265.273 148.147 265.577 146.53C265.882 144.91 264.417 141.932 264.934 140.723C265.451 139.517 264.204 137.675 264.506 135.097C264.686 133.558 263.36 130.823 260.172 131.156Z" fill="#151F2C"/>
<path d="M280.479 204.533C280.479 204.533 280.705 208.059 281.387 208.109C281.478 208.115 284.847 208.109 284.847 208.109L289.148 208.074C289.148 208.074 289.118 207.037 287.86 206.822C286.601 206.604 284.495 205.726 283.73 204.065C282.926 202.317 280.479 204.533 280.479 204.533Z" fill="#151F2C"/>
<path d="M266.836 204.552C266.836 204.552 267.062 208.078 267.744 208.128C267.835 208.135 271.204 208.128 271.204 208.128L275.506 208.094C275.506 208.094 275.475 207.057 274.217 206.841C272.958 206.624 270.852 205.746 270.087 204.085C269.283 202.337 266.836 204.552 266.836 204.552Z" fill="#151F2C"/>
<path d="M277.827 165.925C277.827 165.925 277.277 173.188 274.108 186.255C270.939 199.322 270.809 204.881 270.809 204.881L266.312 205.113C266.312 205.113 265.164 191.2 266.582 184.644C267.999 178.088 265.158 161.527 265.158 161.527L277.827 165.925Z" fill="#384152"/>
<path d="M280.024 160.842C280.024 160.842 282.006 171.505 282.4 184.944C282.793 198.383 284.371 203.848 284.371 203.848L279.968 204.752C279.968 204.752 275.08 192.076 274.717 185.377C274.354 178.679 267.244 163.455 267.244 163.455L280.024 160.842Z" fill="#384152"/>
<path d="M270.952 136.26L273.349 137.825L276.807 137.173C276.759 136.895 276.527 135.736 276.318 134.688C276.305 134.628 276.292 134.565 276.281 134.504C276.101 133.612 275.947 132.845 275.947 132.845L272.713 131.426L271.506 130.897C271.509 130.917 271.602 131.886 271.615 132.03C271.845 134.547 270.952 136.26 270.952 136.26Z" fill="#EE805F"/>
<path d="M275.918 135.458C275.851 135.43 271.75 134.23 271.304 134.378C270.859 134.525 270.598 135.388 270.598 135.388L277.305 136.891C277.305 136.888 276.775 135.817 275.918 135.458Z" fill="#455A64"/>
<path d="M280.181 163.623C279.437 164.344 278.157 164.862 276.647 165.184C275.686 165.39 274.632 165.514 273.56 165.564C269.57 165.749 265.356 164.86 264.94 162.986C264.238 159.818 265.51 136.891 270.598 135.386C271.654 135.073 277.305 136.886 277.305 136.886C277.305 136.886 278.196 139.201 278.783 142.156C279.059 143.538 279.268 145.064 279.285 146.556C279.324 149.647 280.139 155.69 280.4 159.71C280.533 161.768 280.518 163.292 280.181 163.623Z" fill="#455A64"/>
<path d="M271.856 132.073C272.569 133.273 275.214 134.308 276.318 134.686C276.305 134.625 276.292 134.562 276.281 134.502C276.101 133.61 275.947 132.843 275.947 132.843L272.713 131.423C271.998 131.419 271.563 131.58 271.856 132.073Z" fill="#DE6B4D"/>
<path d="M277.164 132.647C277.164 132.647 271.963 134.282 270.996 131.028C270.026 127.773 268.705 125.791 271.985 124.61C275.264 123.428 276.281 124.478 276.87 125.487C277.455 126.491 278.492 132.136 277.164 132.647Z" fill="#EE805F"/>
<path d="M276.886 125.171C276.886 125.171 276.562 128.963 275.777 128.799C274.993 128.636 274.282 128.517 274.399 129.658C274.517 130.799 272.932 132.63 271.763 132.767C270.161 132.956 267.481 127.895 268.044 125.663C269.003 121.876 279.7 119.734 276.886 125.171Z" fill="#151F2C"/>
<path d="M279.681 165.014C279.681 165.014 277.733 166.888 275.108 167.633C272.482 168.377 276.071 171.673 277.41 171.414C278.748 171.155 279.513 169.873 279.513 169.873L279.681 165.014Z" fill="#384152"/>
<path d="M276.714 166.342C276.714 166.342 276.923 167.494 277.264 167.303C277.605 167.112 278.685 166.286 278.588 166.007C278.49 165.729 276.714 166.342 276.714 166.342Z" fill="#EE805F"/>
<path d="M272.941 168.373L272.93 167.986C277.49 167.86 279.668 164.69 279.69 164.66L279.672 165.268C279.585 165.399 277.701 168.24 272.941 168.373Z" fill="#151F2C"/>
<path d="M276.647 165.184C275.686 165.39 274.632 165.514 273.56 165.564C270.465 159.381 271.763 148.419 271.763 148.419L276.647 165.184Z" fill="#455A64"/>
<path d="M278.453 165.949L276.714 166.342C276.714 166.342 275.064 162.853 273.662 159.358C273.441 158.808 273.226 158.258 273.026 157.721H277.425C277.468 158.032 277.509 158.342 277.553 158.655C278.048 162.273 278.453 165.949 278.453 165.949Z" fill="#EE805F"/>
<path d="M277.553 158.655L273.662 159.358C272.76 157.108 271.958 154.853 271.763 153.521C271.269 150.114 272.245 139.147 273.186 138.582C274.13 138.019 276.318 138.169 276.318 138.169C276.318 138.169 276.477 149.775 276.81 152.875C276.938 154.084 277.236 156.345 277.553 158.655Z" fill="#455A64"/>
</g>
<path d="M341.128 209.359H3.69681C3.42948 209.359 3.20996 209.139 3.20996 208.872V208.398C3.20996 208.13 3.42948 207.911 3.69681 207.911H341.128C341.396 207.911 341.615 208.13 341.615 208.398V208.872C341.615 209.139 341.396 209.359 341.128 209.359Z" fill="#E0E0E7"/>
</g>
<defs>
<clipPath id="clip0_10415_90490">
<rect width="343" height="209" fill="white"/>
</clipPath>
</defs>
</svg>
