<svg width="28" height="28" viewBox="0 0 28 28" fill="none" xmlns="http://www.w3.org/2000/svg">
<path d="M14.0725 23.3742C14.7036 23.3742 15.3087 23.1318 15.7549 22.7003C16.2011 22.2688 16.4518 21.8064 16.4518 21.1961H11.6933C11.6933 21.8064 11.9439 22.2688 12.3901 22.7003C12.8363 23.1318 13.4415 23.3742 14.0725 23.3742ZM14.0725 7.15875C13.7327 7.21507 13.5145 7.25784 13.1244 7.35894C12.0489 7.57085 11.0822 8.1356 10.3878 8.95761C9.69347 9.77962 9.31413 10.8084 9.31401 11.8698C9.31401 12.5923 9.1546 14.3973 8.76797 16.1747C8.57763 17.0571 8.32067 17.9763 7.97924 18.7724H20.1658C19.8244 17.9763 19.5686 17.0583 19.3771 16.1747C18.9905 14.3973 18.8311 12.5923 18.8311 11.8698C18.8307 10.8086 18.4512 9.78009 17.7569 8.95832C17.0625 8.13655 16.096 7.57196 15.0207 7.36009C14.6762 7.26623 14.0725 7.1576 14.0725 7.1576V7.15875ZM21.6172 18.7724C21.8825 19.2867 22.1894 20.0772 22.4 20.3062H5.59998C5.95568 20.0772 6.2626 19.2867 6.52789 18.7724C7.59856 16.7016 8.01409 12.7145 8.01409 11.7021C8.01409 8.91806 10.3382 6.46231 13.0565 5.93196C13.0399 5.772 13.0581 5.61045 13.1101 5.45772C13.162 5.305 13.2464 5.16449 13.358 5.04527C13.4695 4.92605 13.6056 4.83076 13.7576 4.76554C13.9095 4.70032 14.0739 4.66663 14.2402 4.66663C14.4064 4.66663 14.5708 4.70032 14.7228 4.76554C14.8747 4.83076 15.0108 4.92605 15.1224 5.04527C15.2339 5.16449 15.3184 5.305 15.3703 5.45772C15.4222 5.61045 15.4239 5.93196 15.4239 5.93196C16.7685 6.19645 17.9896 7.03406 18.8579 8.06156C19.7261 9.08906 20.2005 10.3752 20.2007 11.7021C20.2007 12.7145 20.5465 16.7016 21.6172 18.7724Z" fill="#161616"/>
</svg>
