<svg width="13" height="12" viewBox="0 0 13 12" fill="none" xmlns="http://www.w3.org/2000/svg">
<path fill-rule="evenodd" clip-rule="evenodd" d="M3.24944 0.0466952C3.11849 0.115598 3.00811 0.228466 2.95101 0.351832C2.90499 0.451246 2.8988 0.542272 2.89827 1.13017L2.89765 1.79592L2.3981 1.80752C1.94665 1.81802 1.88029 1.82607 1.70881 1.89111C1.17989 2.0918 0.795843 2.47589 0.595181 3.00487C0.530142 3.17637 0.522093 3.24274 0.511595 3.69424L0.5 4.19384H6.5H12.5L12.4884 3.69424C12.4779 3.24274 12.4699 3.17637 12.4048 3.00487C12.2032 2.47333 11.8227 2.09278 11.2912 1.89111C11.1197 1.82607 11.0533 1.81802 10.6019 1.80752L10.1024 1.79592V1.13631C10.1024 0.60366 10.0939 0.456538 10.0586 0.372042C9.96501 0.147854 9.74761 0 9.51157 0C9.2632 0 9.08359 0.106732 8.96685 0.323686C8.91043 0.428532 8.90564 0.483108 8.89742 1.11883L8.88856 1.80138H6.5H4.11144L4.10258 1.11883C4.09436 0.483108 4.08958 0.428532 4.03315 0.323686C3.9571 0.182362 3.86882 0.0993012 3.73542 0.0435709C3.60216 -0.0121312 3.35821 -0.010555 3.24944 0.0466952ZM0.511792 8.00067L0.519532 10.5972L0.593352 10.787C0.800797 11.3203 1.17558 11.6951 1.70881 11.9025L1.89856 11.9764H6.47186H11.0452L11.2422 11.9139C11.7823 11.7428 12.2305 11.2998 12.4179 10.752L12.4805 10.569L12.4881 7.9866L12.4957 5.40415H6.49986H0.504053L0.511792 8.00067Z" fill="#1ACC97"/>
</svg>
