<svg width="20" height="20" viewBox="0 0 20 20" fill="none" xmlns="http://www.w3.org/2000/svg">
<path fill-rule="evenodd" clip-rule="evenodd" d="M9.9999 11.9123C13.0945 11.9123 15.4824 9.46093 15.4824 6.58114C15.4824 3.70135 13.0945 1.25 9.9999 1.25C6.90533 1.25 4.51745 3.70135 4.51745 6.58114C4.51745 9.46093 6.90533 11.9123 9.9999 11.9123ZM13.5087 6.58114C13.5087 8.48991 11.9377 10.0373 9.9999 10.0373C8.06206 10.0373 6.49113 8.48991 6.49113 6.58114C6.49113 4.67237 8.06206 3.125 9.9999 3.125C11.9377 3.125 13.5087 4.67237 13.5087 6.58114ZM5.72368 15.6536C5.72368 15.6567 5.7239 15.6561 5.72528 15.652C5.7368 15.6177 5.8295 15.3416 6.55533 15.0165C7.29355 14.686 8.45638 14.431 10 14.431C11.5436 14.431 12.7065 14.686 13.4447 15.0165C14.1705 15.3416 14.2632 15.6177 14.2747 15.652C14.2761 15.6561 14.2763 15.6567 14.2763 15.6536L14.2763 17.3412V17.704V17.7873V17.8072V17.8121V17.8136C14.2763 18.3313 14.7181 18.7512 15.2632 18.7512C15.8082 18.7512 16.25 18.3314 16.25 17.8137V17.8121V17.8072V17.7873V17.704V17.3412V15.6536C16.25 14.5441 15.2825 13.7666 14.2862 13.3205C13.2154 12.841 11.7466 12.556 10 12.556C8.25339 12.556 6.78465 12.841 5.71384 13.3205C4.71749 13.7666 3.75 14.5441 3.75 15.6536V15.6599V15.6662V15.6726V15.6789V15.6852V15.6916V15.6979V15.7042V15.7105V15.7169V15.7232V15.7295V15.7358V15.7422V15.7485V15.7548V15.7611V15.7675V15.7738V15.7801V15.7864V15.7927V15.799V15.8054V15.8117V15.818V15.8243V15.8306V15.8369V15.8432V15.8495V15.8558V15.8621V15.8684V15.8747V15.881V15.8873V15.8936V15.8999V15.9062V15.9125V15.9188V15.9251V15.9313V15.9376V15.9439V15.9502V15.9565V15.9627V15.969V15.9753V15.9815V15.9878V15.9941V16.0003V16.0066V16.0128V16.0191V16.0253V16.0316V16.0378V16.044V16.0503V16.0565V16.0627V16.0689V16.0752V16.0814V16.0876V16.0938V16.1V16.1062V16.1124V16.1186V16.1248V16.131V16.1372V16.1434V16.1496V16.1557V16.1619V16.1681V16.1742V16.1804V16.1866V16.1927V16.1989V16.205V16.2111V16.2173V16.2234V16.2295V16.2357V16.2418V16.2479V16.254V16.2601V16.2662V16.2723V16.2784V16.2845V16.2905V16.2966V16.3027V16.3087V16.3148V16.3209V16.3269V16.333V16.339V16.345V16.3511V16.3571V16.3631V16.3691V16.3751V16.3811V16.3871V16.3931V16.3991V16.4051V16.411V16.417V16.423V16.4289V16.4349V16.4408V16.4467V16.4527V16.4586V16.4645V16.4704V16.4763V16.4822V16.4881V16.494V16.4999V16.5058V16.5116V16.5175V16.5233V16.5292V16.535V16.5408V16.5467V16.5525V16.5583V16.5641V16.5699V16.5757V16.5815V16.5872V16.593V16.5988V16.6045V16.6103V16.616V16.6217V16.6275V16.6332V16.6389V16.6446V16.6503V16.6559V16.6616V16.6673V16.6729V16.6786V16.6842V16.6899V16.6955V16.7011V16.7067V16.7123V16.7179V16.7235V16.7291V16.7347V16.7402V16.7458V16.7513V16.7568V16.7624V16.7679V16.7734V16.7789V16.7844V16.7899V16.7953V16.8008V16.8062V16.8117V16.8171V16.8225V16.828V16.8334V16.8388V16.8441V16.8495V16.8549V16.8602V16.8656V16.8709V16.8763V16.8816V16.8869V16.8922V16.8975V16.9028V16.908V16.9133V16.9185V16.9238V16.929V16.9342V16.9394V16.9446V16.9498V16.955V16.9601V16.9653V16.9704V16.9756V16.9807V16.9858V16.9909V16.996V17.0011V17.0061V17.0112V17.0163V17.0213V17.0263V17.0313V17.0363V17.0413V17.0463V17.0513V17.0562V17.0612V17.0661V17.071V17.0759V17.0808V17.0857V17.0906V17.0954V17.1003V17.1051V17.1099V17.1148V17.1196V17.1244V17.1291V17.1339V17.1386V17.1434V17.1481V17.1528V17.1575V17.1622V17.1669V17.1716V17.1762V17.1809V17.1855V17.1901V17.1947V17.1993V17.2039V17.2084V17.213V17.2175V17.222V17.2265V17.231V17.2355V17.24V17.2444V17.2489V17.2533V17.2577V17.2621V17.2665V17.2709V17.2753V17.2796V17.2839V17.2883V17.2926V17.2968V17.3011V17.3054V17.3096V17.3139V17.3181V17.3223V17.3265V17.3307V17.3348V17.339V17.3431V17.3472V17.3513V17.3554V17.3595V17.3636V17.3676V17.3716V17.3757V17.3797V17.3836V17.3876V17.3916V17.3955V17.3994V17.4033V17.4072V17.4111V17.415V17.4188V17.4227V17.4265V17.4303V17.4341V17.4378V17.4416V17.4453V17.4491V17.4528V17.4565V17.4601V17.4638V17.4674V17.4711V17.4747V17.4783V17.4818V17.4854V17.489V17.4925V17.496V17.4995V17.503V17.5064V17.5099V17.5133V17.5167V17.5201V17.5235V17.5269V17.5302V17.5335V17.5369V17.5401V17.5434V17.5467V17.5499V17.5532V17.5564V17.5596V17.5627V17.5659V17.569V17.5721V17.5752V17.5783V17.5814V17.5845V17.5875V17.5905V17.5935V17.5965V17.5994V17.6024V17.6053V17.6082V17.6111V17.614V17.6168V17.6197V17.6225V17.6253V17.628V17.6308V17.6335V17.6363V17.639V17.6417V17.6443V17.647V17.6496V17.6522V17.6548V17.6574V17.6599V17.6624V17.665V17.6675V17.6699V17.6724V17.6748V17.6772V17.6796V17.682V17.6844V17.6867V17.689V17.6913V17.6936V17.6959V17.6981V17.7003V17.7025V17.7047V17.7069V17.709V17.7111V17.7132V17.7153V17.7174V17.7194V17.7214V17.7234V17.7254V17.7274V17.7293V17.7312V17.7331V17.735V17.7369V17.7387V17.7405V17.7423V17.7441V17.7458V17.7475V17.7493V17.7509V17.7526V17.7542V17.7559V17.7575V17.7591V17.7606V17.7621V17.7637V17.7652V17.7666V17.7681V17.7695V17.7709V17.7723V17.7737V17.775V17.7763V17.7776V17.7789V17.7802V17.7826V17.7849V17.7872V17.7894V17.7915V17.7934V17.7954V17.7972V17.7989V17.8005V17.802V17.8035V17.8048V17.8061V17.8078V17.8093V17.8105V17.8119V17.8132C3.75 18.331 4.19182 18.7512 4.73684 18.7512C5.28186 18.7512 5.72368 18.3314 5.72368 17.8137V17.8122V17.8109V17.8093V17.8078V17.8061V17.8048V17.8035V17.802V17.8005V17.7989V17.7972V17.7954V17.7934V17.7915V17.7894V17.7872V17.7849V17.7826V17.7802V17.7789V17.7776V17.7763V17.775V17.7737V17.7723V17.7709V17.7695V17.7681V17.7666V17.7652V17.7637V17.7621V17.7606V17.7591V17.7575V17.7559V17.7542V17.7526V17.7509V17.7493V17.7475V17.7458V17.7441V17.7423V17.7405V17.7387V17.7369V17.735V17.7331V17.7312V17.7293V17.7274V17.7254V17.7234V17.7214V17.7194V17.7174V17.7153V17.7132V17.7111V17.709V17.7069V17.7047V17.7025V17.7003V17.6981V17.6959V17.6936V17.6913V17.689V17.6867V17.6844V17.682V17.6796V17.6772V17.6748V17.6724V17.6699V17.6675V17.665V17.6624V17.6599V17.6574V17.6548V17.6522V17.6496V17.647V17.6443V17.6417V17.639V17.6363V17.6335V17.6308V17.628V17.6253V17.6225V17.6197V17.6168V17.614V17.6111V17.6082V17.6053V17.6024V17.5994V17.5965V17.5935V17.5905V17.5875V17.5845V17.5814V17.5783V17.5752V17.5721V17.569V17.5659V17.5627V17.5596V17.5564V17.5532V17.5499V17.5467V17.5434V17.5401V17.5369V17.5335V17.5302V17.5269V17.5235V17.5201V17.5167V17.5133V17.5099V17.5064V17.503V17.4995V17.496V17.4925V17.489V17.4854V17.4818V17.4783V17.4747V17.4711V17.4674V17.4638V17.4601V17.4565V17.4528V17.4491V17.4453V17.4416V17.4378V17.4341V17.4303V17.4265V17.4227V17.4188V17.415V17.4111V17.4072V17.4033V17.3994V17.3955V17.3916V17.3876V17.3836V17.3797V17.3757V17.3716V17.3676V17.3636V17.3595V17.3554V17.3513V17.3472V17.3431V17.339V17.3348V17.3307V17.3265V17.3223V17.3181V17.3139V17.3096V17.3054V17.3011V17.2968V17.2926V17.2883V17.2839V17.2796V17.2753V17.2709V17.2665V17.2621V17.2577V17.2533V17.2489V17.2444V17.24V17.2355V17.231V17.2265V17.222V17.2175V17.213V17.2084V17.2039V17.1993V17.1947V17.1901V17.1855V17.1809V17.1762V17.1716V17.1669V17.1622V17.1575V17.1528V17.1481V17.1434V17.1386V17.1339V17.1291V17.1244V17.1196V17.1148V17.1099V17.1051V17.1003V17.0954V17.0906V17.0857V17.0808V17.0759V17.071V17.0661V17.0612V17.0562V17.0513V17.0463V17.0413V17.0363V17.0313V17.0263V17.0213V17.0163V17.0112V17.0061V17.0011V16.996V16.9909V16.9858V16.9807V16.9756V16.9704V16.9653V16.9601V16.955V16.9498V16.9446V16.9394V16.9342V16.929V16.9238V16.9185V16.9133V16.908V16.9028V16.8975V16.8922V16.8869V16.8816V16.8763V16.8709V16.8656V16.8602V16.8549V16.8495V16.8441V16.8388V16.8334V16.828V16.8225V16.8171V16.8117V16.8062V16.8008V16.7953V16.7899V16.7844V16.7789V16.7734V16.7679V16.7624V16.7568V16.7513V16.7458V16.7402V16.7347V16.7291V16.7235V16.7179V16.7123V16.7067V16.7011V16.6955V16.6899V16.6842V16.6786V16.6729V16.6673V16.6616V16.6559V16.6503V16.6446V16.6389V16.6332V16.6275V16.6217V16.616V16.6103V16.6045V16.5988V16.593V16.5872V16.5815V16.5757V16.5699V16.5641V16.5583V16.5525V16.5467V16.5408V16.535V16.5292V16.5233V16.5175V16.5116V16.5058V16.4999V16.494V16.4881V16.4822V16.4763V16.4704V16.4645V16.4586V16.4527V16.4467V16.4408V16.4349V16.4289V16.423V16.417V16.411V16.4051V16.3991V16.3931V16.3871V16.3811V16.3751V16.3691V16.3631V16.3571V16.3511V16.345V16.339V16.333V16.3269V16.3209V16.3148V16.3087V16.3027V16.2966V16.2905V16.2845V16.2784V16.2723V16.2662V16.2601V16.254V16.2479V16.2418V16.2357V16.2295V16.2234V16.2173V16.2111V16.205V16.1989V16.1927V16.1866V16.1804V16.1742V16.1681V16.1619V16.1557V16.1496V16.1434V16.1372V16.131V16.1248V16.1186V16.1124V16.1062V16.1V16.0938V16.0876V16.0814V16.0752V16.0689V16.0627V16.0565V16.0503V16.044V16.0378V16.0316V16.0253V16.0191V16.0128V16.0066V16.0003V15.9941V15.9878V15.9815V15.9753V15.969V15.9627V15.9565V15.9502V15.9439V15.9376V15.9313V15.9251V15.9188V15.9125V15.9062V15.8999V15.8936V15.8873V15.881V15.8747V15.8684V15.8621V15.8558V15.8495V15.8432V15.8369V15.8306V15.8243V15.818V15.8117V15.8054V15.799V15.7927V15.7864V15.7801V15.7738V15.7675V15.7611V15.7548V15.7485V15.7422V15.7358V15.7295V15.7232V15.7169V15.7105V15.7042V15.6979V15.6916V15.6852V15.6789V15.6726V15.6662V15.6599V15.6536Z" fill="#161616"/>
<path d="M9.9999 10.0373C11.9377 10.0373 13.5087 8.48991 13.5087 6.58114C13.5087 4.67237 11.9377 3.125 9.9999 3.125C8.06206 3.125 6.49113 4.67237 6.49113 6.58114C6.49113 8.48991 8.06206 10.0373 9.9999 10.0373Z" fill="#161616"/>
<path d="M5.72528 15.652C5.7239 15.6561 5.72368 15.6567 5.72368 15.6536V15.6599V15.6662V15.6726V15.6789V15.6852V15.6916V15.6979V15.7042V15.7105V15.7169V15.7232V15.7295V15.7358V15.7422V15.7485V15.7548V15.7611V15.7675V15.7738V15.7801V15.7864V15.7927V15.799V15.8054V15.8117V15.818V15.8243V15.8306V15.8369V15.8432V15.8495V15.8558V15.8621V15.8684V15.8747V15.881V15.8873V15.8936V15.8999V15.9062V15.9125V15.9188V15.9251V15.9313V15.9376V15.9439V15.9502V15.9565V15.9627V15.969V15.9753V15.9815V15.9878V15.9941V16.0003V16.0066V16.0128V16.0191V16.0253V16.0316V16.0378V16.044V16.0503V16.0565V16.0627V16.0689V16.0752V16.0814V16.0876V16.0938V16.1V16.1062V16.1124V16.1186V16.1248V16.131V16.1372V16.1434V16.1496V16.1557V16.1619V16.1681V16.1742V16.1804V16.1866V16.1927V16.1989V16.205V16.2111V16.2173V16.2234V16.2295V16.2357V16.2418V16.2479V16.254V16.2601V16.2662V16.2723V16.2784V16.2845V16.2905V16.2966V16.3027V16.3087V16.3148V16.3209V16.3269V16.333V16.339V16.345V16.3511V16.3571V16.3631V16.3691V16.3751V16.3811V16.3871V16.3931V16.3991V16.4051V16.411V16.417V16.423V16.4289V16.4349V16.4408V16.4467V16.4527V16.4586V16.4645V16.4704V16.4763V16.4822V16.4881V16.494V16.4999V16.5058V16.5116V16.5175V16.5233V16.5292V16.535V16.5408V16.5467V16.5525V16.5583V16.5641V16.5699V16.5757V16.5815V16.5872V16.593V16.5988V16.6045V16.6103V16.616V16.6217V16.6275V16.6332V16.6389V16.6446V16.6503V16.6559V16.6616V16.6673V16.6729V16.6786V16.6842V16.6899V16.6955V16.7011V16.7067V16.7123V16.7179V16.7235V16.7291V16.7347V16.7402V16.7458V16.7513V16.7568V16.7624V16.7679V16.7734V16.7789V16.7844V16.7899V16.7953V16.8008V16.8062V16.8117V16.8171V16.8225V16.828V16.8334V16.8388V16.8441V16.8495V16.8549V16.8602V16.8656V16.8709V16.8763V16.8816V16.8869V16.8922V16.8975V16.9028V16.908V16.9133V16.9185V16.9238V16.929V16.9342V16.9394V16.9446V16.9498V16.955V16.9601V16.9653V16.9704V16.9756V16.9807V16.9858V16.9909V16.996V17.0011V17.0061V17.0112V17.0163V17.0213V17.0263V17.0313V17.0363V17.0413V17.0463V17.0513V17.0562V17.0612V17.0661V17.071V17.0759V17.0808V17.0857V17.0906V17.0954V17.1003V17.1051V17.1099V17.1148V17.1196V17.1244V17.1291V17.1339V17.1386V17.1434V17.1481V17.1528V17.1575V17.1622V17.1669V17.1716V17.1762V17.1809V17.1855V17.1901V17.1947V17.1993V17.2039V17.2084V17.213V17.2175V17.222V17.2265V17.231V17.2355V17.24V17.2444V17.2489V17.2533V17.2577V17.2621V17.2665V17.2709V17.2753V17.2796V17.2839V17.2883V17.2926V17.2968V17.3011V17.3054V17.3096V17.3139V17.3181V17.3223V17.3265V17.3307V17.3348V17.339V17.3431V17.3472V17.3513V17.3554V17.3595V17.3636V17.3676V17.3716V17.3757V17.3797V17.3836V17.3876V17.3916V17.3955V17.3994V17.4033V17.4072V17.4111V17.415V17.4188V17.4227V17.4265V17.4303V17.4341V17.4378V17.4416V17.4453V17.4491V17.4528V17.4565V17.4601V17.4638V17.4674V17.4711V17.4747V17.4783V17.4818V17.4854V17.489V17.4925V17.496V17.4995V17.503V17.5064V17.5099V17.5133V17.5167V17.5201V17.5235V17.5269V17.5302V17.5335V17.5369V17.5401V17.5434V17.5467V17.5499V17.5532V17.5564V17.5596V17.5627V17.5659V17.569V17.5721V17.5752V17.5783V17.5814V17.5845V17.5875V17.5905V17.5935V17.5965V17.5994V17.6024V17.6053V17.6082V17.6111V17.614V17.6168V17.6197V17.6225V17.6253V17.628V17.6308V17.6335V17.6363V17.639V17.6417V17.6443V17.647V17.6496V17.6522V17.6548V17.6574V17.6599V17.6624V17.665V17.6675V17.6699V17.6724V17.6748V17.6772V17.6796V17.682V17.6844V17.6867V17.689V17.6913V17.6936V17.6959V17.6981V17.7003V17.7025V17.7047V17.7069V17.709V17.7111V17.7132V17.7153V17.7174V17.7194V17.7214V17.7234V17.7254V17.7274V17.7293V17.7312V17.7331V17.735V17.7369V17.7387V17.7405V17.7423V17.7441V17.7458V17.7475V17.7493V17.7509V17.7526V17.7542V17.7559V17.7575V17.7591V17.7606V17.7621V17.7637V17.7652V17.7666V17.7681V17.7695V17.7709V17.7723V17.7737V17.775V17.7763V17.7776V17.7789V17.7802V17.7826V17.7849V17.7872V17.7894V17.7915V17.7934V17.7954V17.7972V17.7989V17.8005V17.802V17.8035V17.8048V17.8061V17.8078V17.8093V17.8109V17.8122V17.8137C5.72368 18.3314 5.28186 18.7512 4.73684 18.7512H15.2632C14.7181 18.7512 14.2763 18.3313 14.2763 17.8136V17.8121V17.8072V17.7873V17.704V17.3412L14.2763 15.6536C14.2763 15.6567 14.2761 15.6561 14.2747 15.652C14.2632 15.6177 14.1705 15.3416 13.4447 15.0165C12.7065 14.686 11.5436 14.431 10 14.431C8.45638 14.431 7.29355 14.686 6.55533 15.0165C5.8295 15.3416 5.7368 15.6177 5.72528 15.652Z" fill="#161616"/>
</svg>
