<svg width="12" height="14" viewBox="0 0 12 14" fill="none" xmlns="http://www.w3.org/2000/svg">
<path fill-rule="evenodd" clip-rule="evenodd" d="M6 1.52986C4.96641 1.52986 3.96112 1.97706 3.20955 2.79668C2.45604 3.61842 2.02308 4.74544 2.02308 5.93245C2.02308 6.32437 2.14974 6.82725 2.40497 7.42058C2.65655 8.0054 3.012 8.63024 3.41897 9.25231C4.23301 10.4966 5.21387 11.6706 5.86331 12.4048C5.90543 12.4524 5.95446 12.4701 6 12.4701C6.04554 12.4701 6.09457 12.4524 6.13669 12.4048C6.78613 11.6706 7.76699 10.4966 8.58103 9.25231C8.988 8.63024 9.34345 8.0054 9.59503 7.42058C9.85026 6.82725 9.97692 6.32437 9.97692 5.93245C9.97692 4.74544 9.54396 3.61842 8.79045 2.79668C8.03888 1.97706 7.03359 1.52986 6 1.52986ZM6 4.07962C4.8317 4.07962 3.88461 5.03093 3.88461 6.20443C3.88461 7.37793 4.8317 8.32923 6 8.32923C7.16829 8.32923 8.11538 7.37793 8.11538 6.20443C8.11538 5.03093 7.16829 4.07962 6 4.07962Z" fill="url(#paint0_linear_25781_575)"/>
<path fill-rule="evenodd" clip-rule="evenodd" d="M6 1.52986C4.96641 1.52986 3.96112 1.97706 3.20955 2.79668C2.45604 3.61842 2.02308 4.74544 2.02308 5.93245C2.02308 6.32437 2.14974 6.82725 2.40497 7.42058C2.65655 8.0054 3.012 8.63024 3.41897 9.25231C4.23301 10.4966 5.21387 11.6706 5.86331 12.4048C5.90543 12.4524 5.95446 12.4701 6 12.4701C6.04554 12.4701 6.09457 12.4524 6.13669 12.4048C6.78613 11.6706 7.76699 10.4966 8.58103 9.25231C8.988 8.63024 9.34345 8.0054 9.59503 7.42058C9.85026 6.82725 9.97692 6.32437 9.97692 5.93245C9.97692 4.74544 9.54396 3.61842 8.79045 2.79668C8.03888 1.97706 7.03359 1.52986 6 1.52986ZM2.08926 1.76024C3.11496 0.641665 4.52016 0 6 0C7.47984 0 8.88504 0.641665 9.91074 1.76024C10.9345 2.8767 11.5 4.37844 11.5 5.93245C11.5 6.61999 11.2877 7.34276 10.9932 8.02739C10.695 8.72052 10.2899 9.42592 9.85388 10.0925C8.98183 11.4254 7.94646 12.6622 7.27527 13.4209C6.5923 14.193 5.4077 14.193 4.72473 13.4209C4.05354 12.6622 3.01817 11.4254 2.14612 10.0925C1.71005 9.42593 1.305 8.72052 1.00683 8.02739C0.712322 7.34276 0.5 6.61999 0.5 5.93245C0.5 4.37844 1.06549 2.8767 2.08926 1.76024Z" fill="url(#paint1_linear_25781_575)"/>
<defs>
<linearGradient id="paint0_linear_25781_575" x1="10.0169" y1="14" x2="1.21802" y2="13.1356" gradientUnits="userSpaceOnUse">
<stop stop-color="#B01C63"/>
<stop offset="1" stop-color="#FA0C58"/>
</linearGradient>
<linearGradient id="paint1_linear_25781_575" x1="10.0169" y1="14" x2="1.21802" y2="13.1356" gradientUnits="userSpaceOnUse">
<stop stop-color="#B01C63"/>
<stop offset="1" stop-color="#FA0C58"/>
</linearGradient>
</defs>
</svg>
