<svg width="12" height="14" viewBox="0 0 12 14" fill="none" xmlns="http://www.w3.org/2000/svg">
  <path d="M0.15025 13.1219C0.0519648 12.9546 0.000152588 12.7646 8.01086e-05 12.5711V1.42868C-2.19345e-05 1.23514 0.0517063 1.04503 0.149991 0.87773C0.248275 0.710428 0.389603 0.571913 0.559573 0.476298C0.729543 0.380684 0.922078 0.331389 1.11756 0.333435C1.31304 0.335482 1.50448 0.388797 1.67237 0.487949L11.1267 6.05916C11.2913 6.15635 11.4276 6.2942 11.5223 6.45922C11.617 6.62423 11.6667 6.81075 11.6667 7.00053C11.6667 7.1903 11.617 7.37683 11.5223 7.54184C11.4276 7.70686 11.2913 7.84471 11.1267 7.9419L1.67237 13.5131C1.50432 13.6119 1.31284 13.6649 1.1174 13.6667C0.921968 13.6685 0.729536 13.619 0.559665 13.5233C0.389792 13.4276 0.248536 13.2891 0.15025 13.1219Z" fill="#F8F8FA"/>
</svg>
