<svg width="28" height="28" viewBox="0 0 28 28" fill="none" xmlns="http://www.w3.org/2000/svg">
<path d="M14 14C15.1139 14 16.1822 13.5575 16.9698 12.7698C17.7575 11.9822 18.2 10.9139 18.2 9.79998C18.2 8.68607 17.7575 7.61778 16.9698 6.83013C16.1822 6.04247 15.1139 5.59998 14 5.59998C12.8861 5.59998 11.8178 6.04247 11.0301 6.83013C10.2425 7.61778 9.79998 8.68607 9.79998 9.79998C9.79998 10.9139 10.2425 11.9822 11.0301 12.7698C11.8178 13.5575 12.8861 14 14 14ZM16.8 9.79998C16.8 10.5426 16.505 11.2548 15.9799 11.7799C15.4548 12.305 14.7426 12.6 14 12.6C13.2574 12.6 12.5452 12.305 12.0201 11.7799C11.495 11.2548 11.2 10.5426 11.2 9.79998C11.2 9.05737 11.495 8.34518 12.0201 7.82008C12.5452 7.29497 13.2574 6.99998 14 6.99998C14.7426 6.99998 15.4548 7.29497 15.9799 7.82008C16.505 8.34518 16.8 9.05737 16.8 9.79998ZM22.4 21C22.4 22.4 21 22.4 21 22.4H6.99998C6.99998 22.4 5.59998 22.4 5.59998 21C5.59998 19.6 6.99998 15.4 14 15.4C21 15.4 22.4 19.6 22.4 21ZM21 20.9944C20.9986 20.65 20.7844 19.614 19.8352 18.6648C18.9224 17.752 17.2046 16.8 14 16.8C10.794 16.8 9.07758 17.752 8.16478 18.6648C7.21558 19.614 7.00278 20.65 6.99998 20.9944H21Z" fill="#161616"/>
</svg>
