<svg width="72" height="24" viewBox="0 0 72 24" fill="none" xmlns="http://www.w3.org/2000/svg">
<path fill-rule="evenodd" clip-rule="evenodd" d="M67.8345 0.197754C70.135 0.197754 72 2.06273 72 4.3633V19.637C72 21.9376 70.135 23.8025 67.8345 23.8025H13.6713C11.3741 23.8025 9.17892 22.8541 7.60454 21.1813L0.754798 13.9034C-0.251599 12.8341 -0.251599 11.1662 0.754798 10.0969L7.60454 2.81901C9.17892 1.14624 11.3741 0.197754 13.6713 0.197754H67.8345ZM6.67759 12.6945C7.44444 12.6945 8.0661 12.0729 8.0661 11.306C8.0661 10.5391 7.44444 9.91748 6.67759 9.91748C5.91073 9.91748 5.28907 10.5391 5.28907 11.306C5.28907 12.0729 5.91073 12.6945 6.67759 12.6945Z" fill="#FA0C58"/>
   <text id="GT" font-family="Montserrat" font-size="12" font-style="normal" font-weight="700" fill="#F8F8FA">
        <tspan x="12" y="16">Sell NFTs</tspan>
   </text>
</svg>
