<svg width="14" height="18" viewBox="0 0 14 18" fill="none" xmlns="http://www.w3.org/2000/svg">
<path fill-rule="evenodd" clip-rule="evenodd" d="M6.97348 0C7.12435 0 7.26945 0.0723177 7.38422 0.17978L10.4848 3.30079C10.7671 3.56505 10.7671 3.9922 10.4848 4.25646C10.2026 4.52073 9.74636 4.52073 9.46411 4.25646L7.68307 2.37161V11.7509H6.23935V2.39527L4.51131 4.25646C4.22906 4.52073 3.77285 4.52073 3.4906 4.25646C3.20835 3.9922 3.20835 3.56505 3.4906 3.30079L6.56346 0.17978C6.67824 0.0723177 6.82261 0 6.97348 0ZM9.35956 5.43396V6.79245H11.9446C12.266 6.79245 12.5263 7.03164 12.5263 7.32483V16.1091C12.5263 16.4027 12.2663 16.6415 11.9446 16.6415H2.0554C1.73332 16.6415 1.47368 16.4029 1.47368 16.1091V7.32483C1.47368 7.03138 1.7336 6.79245 2.0554 6.79245H4.69186V5.43396H2.0554C0.920646 5.43396 0 6.28024 0 7.32483V16.1091C0 17.1542 0.920475 18 2.0554 18H11.9446C13.079 18 14 17.154 14 16.1091V7.32483C14 6.28039 13.0789 5.43396 11.9446 5.43396H9.35956Z" fill="#161616"/>
</svg>
