<svg width="23" height="22" viewBox="0 0 23 22" fill="none" xmlns="http://www.w3.org/2000/svg">
<path fill-rule="evenodd" clip-rule="evenodd" d="M0.587464 0.435358C-0.154254 0.776381 -0.204301 1.76013 0.498264 2.18932L0.714929 2.32166L1.94299 2.33508C3.06989 2.34741 3.17716 2.35515 3.24493 2.4291C3.30206 2.49147 3.49897 3.72734 4.11376 7.88219C4.69758 11.8278 4.93856 13.3476 5.02121 13.6045C5.30736 14.4944 6.11068 15.2238 7.04413 15.4411C7.45855 15.5375 18.3712 15.5376 18.8366 15.4411C19.7932 15.2428 20.6444 14.4631 20.9257 13.5275C21.0227 13.2052 22.6678 5.05487 22.6667 4.90251C22.6655 4.74205 22.5201 4.41424 22.3881 4.27443C22.3348 4.21797 22.2115 4.12941 22.114 4.07763L21.9369 3.98348L13.7654 3.96161L5.594 3.93974L5.49559 3.28376C5.33681 2.22509 5.2648 1.90301 5.11935 1.60091C4.93865 1.22555 4.45629 0.74625 4.08829 0.576482C3.62998 0.365037 3.36229 0.333375 2.02869 0.333025C0.843236 0.332719 0.804748 0.33543 0.587464 0.435358ZM7.81056 16.4788C6.76369 16.6098 5.83352 17.4414 5.59033 18.4637C5.49333 18.8714 5.52593 19.5354 5.66163 19.9176C6.02273 20.9344 7.00551 21.6294 8.08237 21.6294C8.79756 21.6294 9.35879 21.3926 9.89173 20.8659C10.4572 20.3072 10.6652 19.8208 10.6652 19.0572C10.6652 18.5637 10.5798 18.2064 10.3723 17.8308C10.1681 17.4612 9.99608 17.256 9.69602 17.0236C9.12818 16.5838 8.47628 16.3955 7.81056 16.4788ZM16.8657 16.4741C15.8303 16.5844 14.9351 17.3325 14.6362 18.3371C14.4533 18.9516 14.5182 19.6228 14.8192 20.23C15.0238 20.6427 15.522 21.1528 15.9217 21.359C16.9466 21.8876 18.1545 21.7246 18.9909 20.9449C19.3255 20.6329 19.5269 20.3235 19.6889 19.8729C19.8531 19.4159 19.8518 18.7847 19.6855 18.2839C19.2863 17.0813 18.1302 16.3393 16.8657 16.4741Z" fill="#161616"/>
</svg>
