<svg width="20" height="18" viewBox="0 0 20 18" fill="none" xmlns="http://www.w3.org/2000/svg">
<path fill-rule="evenodd" clip-rule="evenodd" d="M1.5999 0.599609C1.28164 0.599609 0.976418 0.726038 0.751374 0.951081C0.52633 1.17612 0.399902 1.48135 0.399902 1.79961V16.1996C0.399902 16.5179 0.52633 16.8231 0.751374 17.0481C0.976418 17.2732 1.28164 17.3996 1.5999 17.3996C1.91816 17.3996 2.22339 17.2732 2.44843 17.0481C2.67347 16.8231 2.7999 16.5179 2.7999 16.1996V1.79961C2.7999 1.48135 2.67347 1.17612 2.44843 0.951081C2.22339 0.726038 1.91816 0.599609 1.5999 0.599609ZM13.9515 11.7512C13.7329 11.9775 13.612 12.2807 13.6147 12.5953C13.6174 12.9099 13.7436 13.2109 13.9661 13.4334C14.1886 13.6559 14.4896 13.7821 14.8042 13.7848C15.1189 13.7876 15.422 13.6666 15.6483 13.448L19.2483 9.84801C19.4733 9.62298 19.5996 9.31781 19.5996 8.99961C19.5996 8.68141 19.4733 8.37624 19.2483 8.15121L15.6483 4.55121C15.5376 4.4366 15.4052 4.34518 15.2588 4.28229C15.1124 4.2194 14.9549 4.18629 14.7956 4.18491C14.6362 4.18352 14.4782 4.21389 14.3308 4.27422C14.1833 4.33456 14.0493 4.42366 13.9366 4.53634C13.824 4.64901 13.7349 4.78299 13.6745 4.93046C13.6142 5.07794 13.5838 5.23596 13.5852 5.39529C13.5866 5.55463 13.6197 5.71209 13.6826 5.85849C13.7455 6.0049 13.8369 6.13731 13.9515 6.24801L15.5031 7.79961H6.3999C6.08164 7.79961 5.77642 7.92604 5.55137 8.15108C5.32633 8.37613 5.1999 8.68135 5.1999 8.99961C5.1999 9.31787 5.32633 9.62309 5.55137 9.84814C5.77642 10.0732 6.08164 10.1996 6.3999 10.1996H15.5031L13.9515 11.7512Z" fill="#161616"/>
</svg>
