<svg width="17" height="14" viewBox="0 0 17 14" fill="none" xmlns="http://www.w3.org/2000/svg">
<path fill-rule="evenodd" clip-rule="evenodd" d="M1.88642 0.0591512C1.81977 0.0943579 1.75455 0.161446 1.7187 0.231713C1.66054 0.345705 1.66004 0.394183 1.66004 5.86075V11.3748H1.39636C1.06754 11.3748 0.932836 11.4327 0.840488 11.6137C0.715266 11.8592 0.724075 11.8764 1.5242 12.9438C2.27253 13.9422 2.32789 14 2.5351 14C2.7408 14 2.79929 13.9395 3.51016 12.9919C3.88527 12.4918 4.21309 12.0422 4.2387 11.9927C4.30127 11.8717 4.29728 11.7462 4.22651 11.6074C4.13766 11.4333 3.99876 11.3748 3.67385 11.3748H3.41017V5.86075C3.41017 0.391996 3.40967 0.345763 3.35145 0.231597C3.24659 0.0260739 3.14957 -0.00119889 2.52898 0.00028872C2.05563 0.0014263 1.9832 0.00807676 1.88642 0.0591512ZM5.51161 0.0591512C5.44496 0.0943579 5.37973 0.161446 5.34389 0.231713C5.28861 0.340046 5.28523 0.402496 5.28523 1.3116C5.28523 2.22108 5.28861 2.28309 5.34395 2.3916C5.38175 2.46572 5.4437 2.52767 5.51782 2.56547C5.63196 2.6237 5.67854 2.62419 11.0023 2.62419C16.3261 2.62419 16.3726 2.6237 16.4868 2.56547C16.5609 2.52767 16.6229 2.46572 16.6607 2.3916C16.716 2.28309 16.7194 2.22108 16.7194 1.3116C16.7194 0.402117 16.716 0.340105 16.6607 0.231597C16.6229 0.157479 16.5609 0.0955246 16.4868 0.057722C16.3726 -0.000498842 16.3274 -0.000994705 10.9962 0.00028872C5.70179 0.00157214 5.61904 0.0024472 5.51161 0.0591512ZM5.51161 4.5594C5.44496 4.59461 5.37973 4.66169 5.34389 4.73196C5.28861 4.84029 5.28523 4.90275 5.28523 5.81185C5.28523 6.72133 5.28861 6.78334 5.34395 6.89185C5.38175 6.96597 5.4437 7.02792 5.51782 7.06572C5.63155 7.12374 5.68146 7.12444 9.68971 7.12444C13.698 7.12444 13.7479 7.12374 13.8616 7.06572C13.9357 7.02792 13.9977 6.96597 14.0355 6.89185C14.0908 6.78334 14.0942 6.72133 14.0942 5.81185C14.0942 4.90237 14.0908 4.84035 14.0355 4.73185C13.9977 4.65773 13.9357 4.59577 13.8616 4.55797C13.7478 4.49992 13.6993 4.49928 9.68358 4.50054C5.69604 4.50182 5.61866 4.5029 5.51161 4.5594ZM5.51161 9.05965C5.44496 9.09486 5.37973 9.16194 5.34389 9.23221C5.28861 9.34054 5.28523 9.40299 5.28523 10.3121C5.28523 11.2216 5.28861 11.2836 5.34395 11.3921C5.38175 11.4662 5.4437 11.5282 5.51782 11.566C5.63076 11.6236 5.68437 11.6247 8.37711 11.6247C11.0699 11.6247 11.1235 11.6236 11.2364 11.566C11.3105 11.5282 11.3725 11.4662 11.4103 11.3921C11.4656 11.2836 11.469 11.2216 11.469 10.3121C11.469 9.40261 11.4656 9.3406 11.4103 9.23209C11.3725 9.15798 11.3105 9.09602 11.2364 9.05822C11.1234 9.00058 11.0712 8.99953 8.37099 9.00079C5.69032 9.00204 5.6179 9.00353 5.51161 9.05965Z" fill="black"/>
</svg>
