<svg width="18" height="18" viewBox="0 0 18 18" fill="none" xmlns="http://www.w3.org/2000/svg">
<circle cx="9.00007" cy="8.99958" r="5.78571" fill="#F8F8FA"/>
<path d="M8.9999 1.92871C7.6013 1.92871 6.23411 2.34344 5.07122 3.12046C3.90833 3.89748 3.00197 5.00189 2.46675 6.29402C1.93153 7.58615 1.79149 9.00798 2.06435 10.3797C2.3372 11.7514 3.01069 13.0114 3.99964 14.0004C4.9886 14.9893 6.24861 15.6628 7.62033 15.9357C8.99205 16.2085 10.4139 16.0685 11.706 15.5333C12.9981 14.9981 14.1026 14.0917 14.8796 12.9288C15.6566 11.7659 16.0713 10.3987 16.0713 9.00014C16.0713 8.0715 15.8884 7.15196 15.533 6.29402C15.1777 5.43607 14.6568 4.65653 14.0002 3.99988C13.3435 3.34324 12.564 2.82236 11.706 2.46699C10.8481 2.11162 9.92853 1.92871 8.9999 1.92871V1.92871ZM12.0406 7.31007L8.80897 11.5529C8.74309 11.6385 8.65849 11.7078 8.56166 11.7557C8.46482 11.8035 8.35832 11.8284 8.25033 11.8287C8.14292 11.8293 8.03679 11.8054 7.93999 11.7588C7.84319 11.7123 7.75828 11.6443 7.69168 11.56L5.96625 9.36078C5.90914 9.28742 5.86704 9.20353 5.84235 9.11389C5.81766 9.02426 5.81087 8.93064 5.82236 8.83838C5.83385 8.74612 5.8634 8.65703 5.90933 8.57619C5.95525 8.49536 6.01664 8.42436 6.09 8.36724C6.23817 8.2519 6.42608 8.20014 6.6124 8.22335C6.70466 8.23484 6.79375 8.26439 6.87459 8.31032C6.95543 8.35624 7.02643 8.41763 7.08354 8.49099L8.23618 9.96185L10.9092 6.42614C10.9658 6.35185 11.0366 6.28944 11.1173 6.24248C11.1981 6.19553 11.2873 6.16494 11.3799 6.15246C11.4725 6.13998 11.5666 6.14587 11.6569 6.16977C11.7472 6.19368 11.832 6.23513 11.9063 6.29178C11.9805 6.34843 12.0429 6.41915 12.0899 6.49992C12.1369 6.58068 12.1675 6.6699 12.1799 6.76249C12.1924 6.85508 12.1865 6.94921 12.1626 7.03953C12.1387 7.12984 12.0973 7.21456 12.0406 7.28885V7.31007Z" fill="#FA0C58"/>
</svg>
