<svg width="24" height="24" viewBox="0 0 24 24" fill="none" xmlns="http://www.w3.org/2000/svg">
<rect width="24" height="24" rx="12" fill="#FFE562"/>
<path fill-rule="evenodd" clip-rule="evenodd" d="M13.2915 10.0393C13.1635 10.0951 13.0345 10.2541 13.0096 10.3869C12.9758 10.5671 13.0204 10.7008 13.1729 10.877C13.5734 11.3397 13.6528 11.9171 13.3889 12.4485C13.2891 12.6492 13.1449 12.8023 11.6387 14.3073L9.9971 15.9473L9.37947 15.3335C8.85628 14.8135 8.74144 14.7142 8.6285 14.6843C8.38391 14.6194 8.13113 14.7441 8.0446 14.9723C7.99981 15.0903 7.99531 15.3531 8.0031 17.3915C8.01169 19.6455 8.01275 19.6795 8.07625 19.7646C8.11169 19.812 8.1795 19.8798 8.22697 19.9153C8.312 19.9788 8.346 19.9798 10.6 19.9884C12.6389 19.9962 12.9012 19.9917 13.0193 19.9469C13.2543 19.8578 13.374 19.6147 13.3071 19.3625C13.2774 19.2502 13.1771 19.1343 12.6586 18.6126L12.0452 17.9954L13.4376 16.5969C14.2099 15.8212 14.8943 15.107 14.9744 14.9931C15.1777 14.7039 15.3571 14.3135 15.4545 13.9485C15.5267 13.6778 15.538 13.5732 15.5393 13.1672C15.5405 12.7763 15.5289 12.6528 15.4692 12.4235C15.3442 11.9432 15.1669 11.5758 14.8868 11.2162C14.6845 10.9567 13.7751 10.0658 13.6739 10.0281C13.5563 9.98431 13.4078 9.98865 13.2915 10.0393Z" fill="#BEA732"/>
<path fill-rule="evenodd" clip-rule="evenodd" d="M10.9441 4.05417C10.724 4.15467 10.6194 4.38495 10.6837 4.62749C10.7135 4.73977 10.8138 4.85567 11.3324 5.37761L11.946 5.99492L10.5532 7.39323C9.7741 8.17536 9.09682 8.88205 9.01623 8.99692C8.35491 9.93936 8.25601 11.1948 8.76216 12.2211C8.95272 12.6074 9.09572 12.7873 9.68013 13.3755C10.1736 13.8722 10.2778 13.9626 10.3775 13.9805C10.5663 14.0145 10.7136 13.9706 10.8421 13.8421C11.0532 13.631 11.0448 13.375 10.818 13.113C10.4174 12.6503 10.3381 12.0729 10.602 11.5415C10.7017 11.3408 10.8459 11.1877 12.3522 9.68273L13.9938 8.0427L14.6114 8.65655C15.1346 9.17652 15.2494 9.2758 15.3624 9.30573C15.6069 9.37061 15.8597 9.24592 15.9463 9.0177C15.991 8.89967 15.9955 8.63689 15.9878 6.59852C15.9792 4.34449 15.9781 4.31049 15.9146 4.22545C15.8792 4.17799 15.8114 4.11017 15.7639 4.07474C15.6788 4.01117 15.646 4.0102 13.3752 4.00286C11.1794 3.99577 11.0668 3.99814 10.9441 4.05417Z" fill="black"/>
</svg>
