<svg width="24" height="24" xmlns="http://www.w3.org/2000/svg" fill="none">
   <path fill-rule="evenodd" d="m12.11765,24c6.6504,0 12,-5.3496 12,-12c0,-6.65039 -5.3496,-12 -12,-12c-6.6504,0 -12,5.34961 -12,12c0,6.6504 5.3496,12 12,12z M0 0z m15.3492,13.7748c0,-1.7496 -1.05,-2.3496 -3.15,-2.6004c-1.5,-0.2004 -1.8,-0.6 -1.8,-1.2996c0,-0.6996 0.5004,-1.1496 1.5,-1.1496c0.9,0 1.4004,0.3 1.65,1.05c0.0504,0.15 0.2004,0.2496 0.3504,0.2496l0.8004,0c0.2004,0 0.3504,-0.15 0.3504,-0.3504l0,-0.0504c-0.2004,-1.1004 -1.1004,-1.95 -2.25,-2.0496l0,-1.2c0,-0.2004 -0.15,-0.3504 -0.3996,-0.3996l-0.75,0c-0.2004,0 -0.3504,0.15 -0.3996,0.3996l0,1.1496c-1.5,0.2004 -2.4504,1.2 -2.4504,2.4504c0,1.65 0.9996,2.3004 3.0996,2.55c1.4004,0.2496 1.8504,0.5496 1.8504,1.35c0,0.8004 -0.6996,1.35 -1.65,1.35c-1.2996,0 -1.7496,-0.5496 -1.8996,-1.2996c-0.0504,-0.2004 -0.2004,-0.3 -0.3504,-0.3l-0.8496,0c-0.2004,0 -0.3504,0.15 -0.3504,0.3504l0,0.0504c0.2004,1.2504 0.9996,2.15039 2.6496,2.39999l0,1.2c0,0.2004 0.15,0.3504 0.3996,0.3996l0.75,0c0.2004,0 0.3504,-0.15 0.3996,-0.3996l0,-1.2c1.4988,-0.2508 2.4996,-1.30079 2.4996,-2.65079z M0 0z m9.45064,18.99965c-3.89996,-1.4004 -5.90034,-5.7505 -4.44956,-9.60007c0.75,-2.10001 2.39998,-3.69962 4.44956,-4.44962c0.2004,-0.0996 0.3,-0.2496 0.3,-0.5004l0,-0.69961c0,-0.2004 -0.0996,-0.3504 -0.3,-0.3996c-0.0504,0 -0.15,0 -0.2004,0.0504c-4.74955,1.50001 -7.34993,6.54963 -5.84994,11.3005c0.89999,2.7996 3.05037,4.95 5.84994,5.85c0.2004,0.0996 0.3996,0 0.45,-0.2004c0.0504,-0.0504 0.0504,-0.0996 0.0504,-0.2004l0,-0.6996c0,-0.1512 -0.15,-0.3504 -0.3,-0.4512zm5.29916,-15.6001c-0.2004,-0.0996 -0.3996,0 -0.45,0.2004c-0.0504,0.0504 -0.0504,0.0996 -0.0504,0.2004l0,0.69961c0,0.2004 0.15,0.3996 0.3,0.5004c3.9,1.4004 5.9003,5.75043 4.4496,9.60009c-0.75,2.1 -2.4,3.6996 -4.4496,4.4496c-0.2004,0.0996 -0.3,0.2496 -0.3,0.5004l0,0.6996c0,0.2004 0.0996,0.3504 0.3,0.3996c0.0504,0 0.15,0 0.2004,-0.0504c4.7495,-1.5 7.3499,-6.5497 5.8499,-11.30047c-0.9,-2.84882 -3.0995,-4.99923 -5.8499,-5.89923z" fill="#000" />
</svg>
