<svg width="16" height="16" viewBox="0 0 16 16" fill="none" xmlns="http://www.w3.org/2000/svg">
<path fill-rule="evenodd" clip-rule="evenodd" d="M7.52479 0.0561899C7.0893 0.175473 6.9267 0.293435 6.27867 0.95999C5.8867 1.36318 5.65882 1.57379 5.59833 1.58883C5.54831 1.60123 5.21142 1.58046 4.84969 1.54262C4.07451 1.46153 3.81781 1.45776 3.54224 1.5234C2.90851 1.67443 2.35321 2.22731 2.18689 2.87283C2.1606 2.97479 2.11636 3.3792 2.08854 3.77157C2.05987 4.17596 2.0182 4.54076 1.99234 4.61377C1.95121 4.72993 1.88482 4.78529 1.31722 5.17676C0.971032 5.41555 0.607352 5.69405 0.509073 5.79565C0.180308 6.1355 0.00286456 6.58271 6.11398e-05 7.07862C-0.00290156 7.60927 0.100188 7.85228 0.664503 8.64495C0.893683 8.96689 1.09664 9.25939 1.11547 9.29495C1.17753 9.4122 1.15179 9.56584 0.955645 10.2495C0.668326 11.2507 0.663739 11.6368 0.932453 12.1978C1.06068 12.4655 1.43685 12.8504 1.71352 12.9969C1.84567 13.0669 2.1701 13.1691 2.69415 13.3057C3.13113 13.4197 3.50351 13.534 3.53664 13.5643C3.56929 13.5942 3.73676 13.9323 3.90882 14.3157C4.08085 14.6991 4.27693 15.0966 4.34459 15.199C4.68801 15.7189 5.31678 16.0282 5.95251 15.99C6.30858 15.9686 6.47809 15.9086 7.25372 15.5294C7.60733 15.3566 7.93205 15.218 7.98837 15.216C8.05616 15.2135 8.32258 15.325 8.80072 15.5559C9.19199 15.7449 9.5976 15.9216 9.70202 15.9487C10.411 16.1322 11.2497 15.81 11.6533 15.199C11.721 15.0966 11.917 14.6991 12.0891 14.3157C12.2611 13.9323 12.4274 13.5953 12.4585 13.5668C12.4897 13.5383 12.8502 13.4283 13.2596 13.3224C14.1979 13.0796 14.3884 12.9927 14.7202 12.6562C14.9942 12.3782 15.1305 12.1325 15.2172 11.7598C15.3038 11.3875 15.2667 11.0718 15.0419 10.2655C14.846 9.5633 14.821 9.41101 14.8824 9.29495C14.9013 9.25939 15.1028 8.9683 15.3304 8.6481C15.5579 8.32787 15.7791 7.99588 15.822 7.91031C15.9466 7.66176 15.9999 7.41102 16 7.07218C16.0001 6.81264 15.9849 6.71626 15.9081 6.49109C15.8041 6.18618 15.6491 5.93235 15.4474 5.73652C15.3719 5.66323 15.0449 5.42186 14.7208 5.2001C14.3966 4.97835 14.0971 4.75988 14.0553 4.71457C13.9832 4.63663 13.976 4.58952 13.9196 3.83399C13.8708 3.17948 13.8453 2.98867 13.7782 2.774C13.5366 2.0014 12.8297 1.47618 12.0289 1.47432C11.9062 1.47406 11.5099 1.50478 11.1482 1.54262C10.7865 1.58046 10.4496 1.60133 10.3996 1.58903C10.3389 1.57408 10.1124 1.36479 9.71923 0.960279C9.1105 0.33398 8.9846 0.236113 8.60805 0.0965412C8.30767 -0.0147873 7.84657 -0.0319841 7.52479 0.0561899ZM11.189 5.49251C11.3068 5.55435 11.3919 5.63035 11.463 5.73701C11.6572 6.02861 11.6742 6.30067 11.5163 6.59379C11.4596 6.69913 10.8557 7.32929 9.5968 8.5968C7.57124 10.6362 7.6208 10.5942 7.10695 10.7035C6.70928 10.7881 6.26538 10.7056 5.91231 10.4814C5.67803 10.3327 4.58508 9.23357 4.48308 9.04414C4.1856 8.49162 4.56001 7.84871 5.17788 7.85096C5.49549 7.85212 5.59419 7.9181 6.21597 8.54473L6.77446 9.10758L8.56511 7.31815C9.85258 6.03154 10.3939 5.51122 10.4914 5.46643C10.7002 5.37069 10.9767 5.38099 11.189 5.49251Z" fill="#53B96A"/>
</svg>

