<svg width="32" height="21" viewBox="0 0 32 21" fill="none" xmlns="http://www.w3.org/2000/svg">
<path fill-rule="evenodd" clip-rule="evenodd" d="M15.4881 0.0739303C11.2125 0.415691 6.55345 3.03472 2.58748 7.32604C0.902486 9.14923 0.75 9.37648 0.75 10.0649C0.75 10.7534 0.902486 10.9806 2.58748 12.8038C6.27013 16.7886 10.4809 19.2993 14.5706 19.949C15.4901 20.0951 17.2599 20.0951 18.1794 19.949C22.2691 19.2993 26.4799 16.7886 30.1625 12.8038C31.8475 10.9806 32 10.7534 32 10.0649C32 9.37648 31.8475 9.14923 30.1625 7.32604C26.5358 3.40183 22.3137 0.857677 18.3639 0.216518C17.652 0.100916 16.1081 0.0243953 15.4881 0.0739303ZM17.6104 2.92508C19.0643 3.1778 20.3554 3.82953 21.4289 4.85275C23.9618 7.26684 24.3922 11.1624 22.4472 14.0696C19.872 17.919 14.3431 18.416 11.1297 15.0869C9.79413 13.7033 9.09666 11.9805 9.09666 10.0649C9.09666 6.53579 11.6014 3.56666 15.1211 2.92356C15.7235 2.81355 16.973 2.81428 17.6104 2.92508ZM15.3046 5.17713C13.3704 5.60052 11.8367 7.15579 11.447 9.08893C11.369 9.47573 11.3521 9.77483 11.3781 10.3045C11.4198 11.1526 11.5247 11.5636 11.8829 12.2834C12.3848 13.2915 13.1276 14.0297 14.1425 14.5287C14.9721 14.9367 15.3327 15.0153 16.375 15.0153C17.4173 15.0153 17.7779 14.9367 18.6075 14.5287C19.6223 14.0297 20.365 13.2917 20.8672 12.2834C21.2778 11.459 21.3569 11.1007 21.3569 10.0649C21.3569 9.02919 21.2778 8.6709 20.8672 7.84649C20.5419 7.19335 20.0937 6.62884 19.554 6.1922C19.1026 5.82698 18.2309 5.3777 17.6901 5.23147C17.1592 5.08791 15.8485 5.05806 15.3046 5.17713ZM15.9944 7.73769L15.9774 8.57104L15.7939 8.60884C15.3313 8.7042 14.9583 9.06547 14.8701 9.50369L14.8306 9.70025H14.0125C13.0718 9.70025 13.1123 9.73514 13.2856 9.0738C13.4241 8.54563 13.6614 8.13239 14.0458 7.75046C14.5107 7.28847 15.0579 7.02725 15.7328 6.94501C15.8337 6.93267 15.9377 6.91851 15.9638 6.91353C15.99 6.90848 16.0038 7.27942 15.9944 7.73769Z" fill="#7F38F3"/>
</svg>
