<svg width="14" height="14" viewBox="0 0 14 14" fill="none" xmlns="http://www.w3.org/2000/svg">
<path fill-rule="evenodd" clip-rule="evenodd" d="M6.78831 0.806622C6.62779 0.865156 6.50708 0.950978 6.43055 1.06099C6.39016 1.11907 6.01337 1.95167 5.59321 2.91125C4.83528 4.6423 4.82869 4.65601 4.74845 4.66863C4.70397 4.67561 3.81191 4.75633 2.7661 4.84801C0.73943 5.02567 0.754362 5.02344 0.568482 5.17648C0.388908 5.32431 0.2897 5.64107 0.352294 5.86668C0.368425 5.92478 0.419553 6.0238 0.465913 6.08673C0.512272 6.14965 1.17759 6.73472 1.94438 7.3869C2.71117 8.03905 3.3705 8.60254 3.40956 8.63907L3.48057 8.7055L3.04893 10.5458C2.76696 11.7479 2.6165 12.4389 2.61507 12.5384C2.61116 12.8079 2.75323 13.0312 3.0047 13.1511C3.18839 13.2386 3.41044 13.2453 3.58713 13.1685C3.6522 13.1403 4.30889 12.7654 5.04644 12.3356C5.78402 11.9058 6.5118 11.4817 6.66375 11.3933C6.8157 11.3048 6.95715 11.2261 6.97805 11.2182C7.00028 11.2099 7.69906 11.6022 8.65624 12.1604C9.5583 12.6864 10.3491 13.14 10.4136 13.1684C10.5888 13.2453 10.8111 13.2387 10.995 13.1511C11.2465 13.0312 11.3886 12.8079 11.3847 12.5384C11.3832 12.4389 11.2328 11.7478 10.9508 10.5458L10.5192 8.7055L10.5772 8.65136C10.609 8.62161 11.2684 8.05822 12.0423 7.39941C12.8163 6.74061 13.4875 6.15001 13.5338 6.08696C13.6401 5.9425 13.6806 5.79799 13.6628 5.62787C13.6356 5.3698 13.4579 5.13916 13.2176 5.04999C13.145 5.02308 12.4807 4.9545 11.1483 4.83636C10.0689 4.74066 9.18107 4.65771 9.17523 4.65203C9.16939 4.64634 8.81689 3.84838 8.39189 2.87876C7.96684 1.90911 7.58619 1.07526 7.54596 1.02568C7.38538 0.827944 7.0198 0.722221 6.78831 0.806622Z" fill="#7F38F3"/>
</svg>
