<svg width="19" height="18" viewBox="0 0 19 18" fill="none" xmlns="http://www.w3.org/2000/svg">
<path d="M18 15V16C18 17.1 17.1 18 16 18H2C0.89 18 0 17.1 0 16V2C0 0.9 0.89 0 2 0H16C17.1 0 18 0.9 18 2V3H9C7.89 3 7 3.9 7 5V13C7 14.1 7.89 15 9 15H18ZM9 13H19V5H9V13ZM13 10.5C12.17 10.5 11.5 9.83 11.5 9C11.5 8.17 12.17 7.5 13 7.5C13.83 7.5 14.5 8.17 14.5 9C14.5 9.83 13.83 10.5 13 10.5Z" fill="url(#paint0_linear_16591_7412)"/>
<defs>
<linearGradient id="paint0_linear_16591_7412" x1="18.1763" y1="2.84054" x2="4.09599" y2="17.0242" gradientUnits="userSpaceOnUse">
<stop offset="0.0733" stop-color="#F46881"/>
<stop offset="0.083" stop-color="#F36682"/>
<stop offset="0.2596" stop-color="#E74596"/>
<stop offset="0.407" stop-color="#E031A2"/>
<stop offset="0.5065" stop-color="#DD2AA6"/>
<stop offset="0.8882" stop-color="#5210E2"/>
</linearGradient>
</defs>
</svg>
