<svg width="25" height="24" viewBox="0 0 25 24" fill="none" xmlns="http://www.w3.org/2000/svg">
<g clip-path="url(#clip0_14244_97807)">
<circle cx="12.5" cy="12" r="12" fill="#E6C05D"/>
<path fill-rule="evenodd" clip-rule="evenodd" d="M12.0422 4.87021C11.7876 4.98053 11.5526 5.2055 11.4175 5.46834C11.3148 5.66812 11.31 5.85022 11.31 9.56899C11.31 12.9541 11.3213 13.4878 11.3972 13.6693C11.7564 14.5295 12.9305 14.6375 13.4758 13.8606L13.6472 13.6164L13.6642 9.71954C13.6759 7.01413 13.6622 5.75782 13.6194 5.61049C13.4356 4.9785 12.6468 4.60822 12.0422 4.87021ZM12.0422 15.6878C11.7841 15.7996 11.5522 16.0239 11.4115 16.2976C11.2424 16.6267 11.2862 17.1485 11.5097 17.4659C11.9809 18.1351 13.0045 18.1351 13.4757 17.4659C13.6992 17.1485 13.743 16.6267 13.5739 16.2976C13.2714 15.7092 12.6051 15.4439 12.0422 15.6878Z" fill="#161616"/>
</g>
<defs>
<clipPath id="clip0_14244_97807">
<rect width="24" height="24" fill="white" transform="translate(0.5)"/>
</clipPath>
</defs>
</svg>
