<svg width="14" height="14" viewBox="0 0 14 14" fill="none" xmlns="http://www.w3.org/2000/svg">
<circle cx="7.00065" cy="6.99967" r="6.66667" fill="#42A4FF"/>
<path fill-rule="evenodd" clip-rule="evenodd" d="M6.74414 3.09843C6.48502 3.17348 6.28981 3.37009 6.24571 3.6004C6.209 3.79217 6.21013 7.5801 6.24696 7.77703C6.28451 7.97768 6.46327 8.177 6.67148 8.25035C6.87606 8.32243 7.16878 8.31697 7.36012 8.23749C7.56843 8.15096 7.72609 7.96647 7.7633 7.76572C7.78257 7.66166 7.78875 7.01305 7.78392 5.59973L7.77703 3.58227L7.71214 3.45863C7.63057 3.30323 7.5891 3.26164 7.42219 3.16791C7.30916 3.10445 7.25128 3.09132 7.05433 3.08445C6.92577 3.07997 6.78618 3.08626 6.74414 3.09843ZM6.87702 9.23C6.72953 9.25555 6.53176 9.37612 6.43511 9.49943C6.39357 9.55242 6.33231 9.66252 6.29898 9.74406C6.24623 9.87317 6.23973 9.92135 6.24888 10.1165C6.26501 10.461 6.39639 10.6925 6.668 10.8548C6.75454 10.9066 6.80979 10.9167 7.00452 10.9167C7.19924 10.9167 7.25449 10.9066 7.34104 10.8548C7.50525 10.7567 7.60958 10.6379 7.69004 10.4575C7.75386 10.3145 7.76477 10.2592 7.76477 10.079C7.76477 9.89885 7.75386 9.84358 7.69004 9.70054C7.53618 9.35565 7.21724 9.17105 6.87702 9.23Z" fill="#F8F8FA"/>
</svg>
