<svg width="12" height="12" viewBox="0 0 12 12" fill="none" xmlns="http://www.w3.org/2000/svg">
<path d="M7.39495 1.51098C7.2547 1.26654 7.05169 1.0633 6.80655 0.921916C6.56141 0.780533 6.28289 0.706055 5.99931 0.706055C5.71573 0.706055 5.43721 0.780533 5.19208 0.921916C4.94694 1.0633 4.74392 1.26654 4.60368 1.51098L0.376977 8.97933C0.24276 9.2137 0.173374 9.47907 0.175845 9.74859C0.178316 10.0181 0.252557 10.2822 0.39105 10.5141C0.531576 10.7534 0.733372 10.9515 0.975991 11.0885C1.21861 11.2255 1.49343 11.2965 1.77261 11.2942H10.226C10.5052 11.2965 10.78 11.2255 11.0226 11.0885C11.2653 10.9515 11.467 10.7534 11.6076 10.5141C11.7461 10.2822 11.8203 10.0181 11.8228 9.74859C11.8252 9.47907 11.7559 9.2137 11.6216 8.97933L7.39495 1.51098ZM5.99931 9.36916C5.90333 9.36916 5.80951 9.34093 5.72971 9.28805C5.64991 9.23517 5.58771 9.16 5.55098 9.07206C5.51425 8.98412 5.50464 8.88735 5.52337 8.794C5.54209 8.70064 5.58831 8.61488 5.65617 8.54758C5.72404 8.48027 5.81051 8.43443 5.90464 8.41586C5.99877 8.39729 6.09634 8.40683 6.18502 8.44325C6.27369 8.47968 6.34948 8.54136 6.4028 8.62051C6.45612 8.69965 6.48458 8.7927 6.48458 8.88789C6.48458 9.01553 6.43345 9.13794 6.34245 9.2282C6.25144 9.31845 6.12801 9.36916 5.99931 9.36916ZM6.48458 6.96281C6.48458 7.09045 6.43345 7.21286 6.34245 7.30312C6.25144 7.39337 6.12801 7.44408 5.99931 7.44408C5.87061 7.44408 5.74718 7.39337 5.65617 7.30312C5.56517 7.21286 5.51404 7.09045 5.51404 6.96281V4.07519C5.51404 3.94755 5.56517 3.82513 5.65617 3.73488C5.74718 3.64462 5.87061 3.59392 5.99931 3.59392C6.12801 3.59392 6.25144 3.64462 6.34245 3.73488C6.43345 3.82513 6.48458 3.94755 6.48458 4.07519V6.96281Z" fill="#E6C05D"/>
</svg>
