<svg fill="none" height="30" viewBox="0 0 30 30" width="30" xmlns="http://www.w3.org/2000/svg">
  <path
    d="m10.0488 19.1812c-.31101.311-.31735.8632.0064 1.187.3301.3237.8823.3174 1.187.0127l3.7578-3.7578 3.7515 3.7514c.3173.3174.8632.3174 1.187-.0063.3237-.3301.3237-.8697.0063-1.187l-3.7514-3.7515 3.7514-3.7578c.3174-.3174.3238-.8633-.0063-1.187-.3238-.3238-.8697-.3238-1.187-.0064l-3.7515 3.7515-3.7578-3.7515c-.3047-.311-.8633-.3237-1.187.0064-.32375.3237-.31741.8823-.0064 1.187l3.7515 3.7578z"
    fill="#6e6e79"/>
</svg>
