<svg width="20" height="20" viewBox="0 0 20 20" fill="none" xmlns="http://www.w3.org/2000/svg">
<path fill-rule="evenodd" clip-rule="evenodd" d="M0.357016 12.2285C0.293344 12.3961 0.303655 12.5946 0.386363 12.7937C0.44078 12.9248 0.609283 13.1093 1.36231 13.8623C2.507 15.007 2.50444 15.0056 3.12073 14.8155C3.71406 14.6325 4.29385 14.7197 4.78357 15.0656C5.40776 15.5064 5.66886 16.3472 5.42104 17.1182C5.32196 17.4266 5.32149 17.6566 5.41962 17.8516C5.4651 17.942 5.79857 18.2982 6.40043 18.8991C7.2222 19.7197 7.32976 19.8162 7.4887 19.8756C7.69274 19.9517 7.89066 19.953 8.05636 19.879C8.13269 19.845 8.64127 19.3587 9.52957 18.4704L10.8862 17.1138L10.831 17.0223C10.6755 16.764 10.7799 16.332 11.0452 16.1366C11.2201 16.0078 11.5321 15.9738 11.7415 16.0608L11.8812 16.1188L15.7399 12.2601C18.4004 9.59965 19.6147 8.36527 19.6505 8.2849C19.7244 8.11919 19.7232 7.92127 19.647 7.71723C19.5877 7.55829 19.4912 7.45073 18.6706 6.62897C18.0696 6.02711 17.7135 5.69364 17.6231 5.64815C17.4251 5.54853 17.2013 5.55186 16.8481 5.65972C16.2982 5.82762 15.6891 5.72837 15.2311 5.39615C14.608 4.94425 14.338 4.08534 14.591 3.36015C14.699 3.0506 14.7034 2.88501 14.6097 2.65945C14.5551 2.52808 14.3871 2.34441 13.6265 1.5849C12.7994 0.759002 12.6917 0.662337 12.5328 0.602975C12.3287 0.5268 12.1308 0.525582 11.9651 0.599499C11.8847 0.635313 10.6503 1.84966 7.98986 4.51014L4.1312 8.3688L4.18922 8.50852C4.27617 8.71789 4.24219 9.0299 4.11336 9.20481C3.91798 9.47006 3.486 9.57449 3.22775 9.41896L3.1362 9.3638L1.77133 10.731C0.700725 11.8035 0.395776 12.1264 0.357016 12.2285ZM5.29204 10.2435C5.45095 10.1649 5.70433 10.1479 5.88035 10.204C6.06219 10.262 7.32445 11.5262 7.38384 11.7098C7.50147 12.0734 7.33659 12.472 7.01447 12.6028C6.79437 12.6921 6.66525 12.6951 6.45373 12.6156C6.30106 12.5583 6.19513 12.467 5.65705 11.9289C5.11897 11.3908 5.02764 11.2849 4.97033 11.1322C4.88931 10.9164 4.89439 10.7677 4.98974 10.5648C5.08065 10.3713 5.12137 10.328 5.29204 10.2435ZM8.47076 13.4222C8.54562 13.3852 8.68073 13.3523 8.77099 13.3491C9.08548 13.3379 9.12754 13.3667 9.85402 14.0932C10.4747 14.7139 10.5287 14.7771 10.5741 14.9362C10.6735 15.2841 10.5071 15.6541 10.1941 15.7811C9.97308 15.8708 9.84417 15.8738 9.63244 15.7943C9.47978 15.737 9.37384 15.6457 8.83576 15.1076C8.29768 14.5695 8.20635 14.4636 8.14904 14.3109C8.06802 14.0951 8.0731 13.9464 8.16845 13.7435C8.25936 13.55 8.30008 13.5067 8.47076 13.4222Z" fill="#F8F8FA"/>
</svg>
