<svg width="16" height="16" viewBox="0 0 16 16" fill="gray" xmlns="http://www.w3.org/2000/svg">
  <g id="Frame 48095420" clip-path="url(#clip0_7468_13839)">
    <path id="date 1 (Traced)" fill-rule="evenodd" clip-rule="evenodd"
          d="M4.19803 0.0271711C4.00325 0.0734681 3.83037 0.215393 3.73495 0.407297C3.65273 0.572678 3.64572 0.620747 3.64572 1.02034V1.45389L2.75275 1.46678C1.87074 1.47946 1.85625 1.48085 1.57145 1.57904C1.01877 1.76958 0.545816 2.17449 0.28279 2.68233C0.0386782 3.15368 0.0316025 3.2039 0.0148998 4.5877L0 5.82353H8H16L15.9852 4.5877C15.9687 3.21256 15.9656 3.19026 15.7256 2.70411C15.4717 2.18973 14.9914 1.77306 14.4285 1.57904C14.1438 1.48085 14.1293 1.47946 13.2472 1.46678L12.3543 1.45389V1.02034C12.3543 0.620747 12.3473 0.572678 12.265 0.407297C12.0492 -0.0268306 11.5194 -0.123379 11.1486 0.203802C10.9446 0.383705 10.8915 0.563439 10.8915 1.0739V1.45975H9.80294H8.71437V1.01546C8.71437 0.691556 8.70012 0.536949 8.66171 0.444901C8.42165 -0.130948 7.57835 -0.130948 7.33829 0.444901C7.29988 0.536949 7.28563 0.691556 7.28563 1.01546V1.45975H6.19706H5.10849V1.0828C5.10849 0.875449 5.09141 0.637793 5.07049 0.554643C5.01419 0.330488 4.80583 0.109878 4.58972 0.0455467C4.40054 -0.0107392 4.36462 -0.0124438 4.19803 0.0271711ZM0.0139473 10.6902C0.0234383 13.8236 0.0289831 14.1069 0.0843641 14.2954C0.328442 15.1256 0.925896 15.7188 1.74072 15.94C1.94789 15.9962 2.34168 16 7.98299 16C12.5654 16 14.0456 15.9902 14.1775 15.9589C14.8762 15.7931 15.4409 15.3522 15.7405 14.7386C15.9888 14.2302 15.9742 14.4706 15.9861 10.6902L15.9967 7.28949H8.00014H0.00363992L0.0139473 10.6902ZM10.4762 9.2296C10.8239 9.40885 10.9803 9.80354 10.8393 10.1458C10.7746 10.3029 7.77337 13.3298 7.58464 13.4283C7.43085 13.5086 7.16272 13.5147 6.98688 13.4419C6.81513 13.3707 5.26119 11.8232 5.17377 11.6362C5.08906 11.4551 5.0894 11.1767 5.17452 11.0094C5.29831 10.7663 5.5646 10.5968 5.82286 10.5968C6.07626 10.5968 6.16818 10.6596 6.72508 11.2129L7.27008 11.7544L8.49401 10.5272C9.24917 9.76996 9.77001 9.27405 9.85397 9.23229C10.0312 9.14409 10.308 9.1429 10.4762 9.2296Z"
          />
  </g>
  <defs>
    <clipPath id="clip0_7468_13839">
      <rect width="16" height="16" fill="white"/>
    </clipPath>
  </defs>
</svg>
