<svg width="16" height="18" viewBox="0 0 16 18" fill="none" xmlns="http://www.w3.org/2000/svg">
<path d="M8.3513 17.5C4.34335 17.5 1.22977 15.6228 0.22531 12.601L0 11.925L0.658752 11.6178C0.728411 11.5847 2.45655 10.7385 2.34905 9.0746C2.23553 7.31811 0.773551 6.49371 0.711202 6.45977L0.0688004 6.10604L0.34614 5.43839C1.66062 2.34535 4.6538 0.5 8.35173 0.5C11.258 0.5 13.8053 1.60687 15.3387 3.53646L15.7257 4.02431L12.6701 8.0306L11.9882 7.38894C11.9748 7.37678 10.5223 6.04065 8.83633 6.03311C7.21182 6.02557 6.57157 6.62112 6.54491 6.64669L5.34136 5.52179C5.45144 5.40738 6.48299 4.39187 8.84364 4.40905C10.3478 4.41576 11.6472 5.11526 12.4139 5.64459L13.6123 4.07334C12.3696 2.82858 10.4888 2.1249 8.35216 2.1249C5.5929 2.1249 3.32684 3.36924 2.16586 5.48491C2.86761 6.05784 3.89745 7.19237 4.01355 8.97234C4.13782 10.8961 2.87321 12.1056 2.05064 12.6832C3.02414 14.6668 5.37318 15.8738 8.35259 15.8738C10.4161 15.8738 12.5282 15.0922 13.8324 13.8839L12.4698 12.2221C11.7444 12.7221 10.5047 13.3718 8.88363 13.4539C6.58189 13.5692 5.22096 12.5386 5.1642 12.4946L6.19919 11.2213C6.23101 11.2439 7.1555 11.9153 8.79677 11.8311C10.7395 11.7339 11.9856 10.5197 11.9972 10.5067L12.6564 9.85331L13.2459 10.5662L16 13.9271L15.5777 14.4346C14.0285 16.2967 11.1931 17.5 8.3513 17.5Z" fill="url(#paint0_linear_22929_174545)"/>
<defs>
<linearGradient id="paint0_linear_22929_174545" x1="15.3064" y1="3.18273" x2="2.08422" y2="15.0587" gradientUnits="userSpaceOnUse">
<stop offset="0.0733" stop-color="#F46881"/>
<stop offset="0.083" stop-color="#F36682"/>
<stop offset="0.2596" stop-color="#E74596"/>
<stop offset="0.407" stop-color="#E031A2"/>
<stop offset="0.5065" stop-color="#DD2AA6"/>
<stop offset="0.8882" stop-color="#5210E2"/>
</linearGradient>
</defs>
</svg>
