<svg width="28" height="24" viewBox="0 0 28 24" fill="none" xmlns="http://www.w3.org/2000/svg">
  <g clip-path="url(#clip0_2320_46754)">
    <path d="M5.43801 0.53125L0.078125 6.38653L16.5477 9.87442L18.3429 2.38572L5.43801 0.53125Z" fill="#936C58"/>
    <path opacity="0.44" d="M5.71144 0.957031L0.351562 6.81194L16.8211 10.2998L18.6163 2.81113L5.71144 0.957031ZM16.0834 9.10179L1.70505 6.40004L5.90938 1.61868L17.362 3.39822L16.0834 9.10216V9.10179Z" fill="#4F382F"/>
    <path d="M16.5469 9.87532L18.3421 2.38662L23.6047 1.58594L27.6457 7.57951L16.5469 9.87532Z" fill="#705143"/>
    <path opacity="0.44" d="M23.5031 2.10547L18.2405 2.90615L16.4453 10.3949L27.5442 8.09904L23.5027 2.10584L23.5031 2.10547ZM19.0416 3.55401L23.2996 2.90615L26.0051 7.62079L17.8704 9.39176L19.0416 3.55401Z" fill="#4F382F"/>
    <path d="M16.5 9.92852L27.5739 7.5L27.9228 18.3532L16.5 23.2106V9.92852Z" fill="#705143"/>
    <path opacity="0.44" d="M17.7597 12.9261C17.9166 13.0107 18.1284 12.9771 18.2514 12.8485C18.3744 12.7199 18.3982 12.5067 18.3065 12.3539C18.7065 12.4735 19.1423 12.4713 19.5407 12.3468C19.3965 11.9979 19.1251 11.703 18.7893 11.5305C18.9428 11.5413 19.0841 11.4104 19.1128 11.2591C19.1415 11.1078 19.0733 10.9493 18.9637 10.8409C18.8541 10.7324 18.7084 10.6683 18.5604 10.6258C18.2406 10.5341 17.8693 10.5438 17.6072 10.7488C17.3579 10.9441 17.2546 11.2818 17.2665 11.5987C17.2796 11.9453 17.4108 12.7386 17.7593 12.9264L17.7597 12.9261Z" fill="#4F382F"/>
    <path opacity="0.44" d="M17.546 19.6062C17.6134 19.3781 17.7711 19.1216 18.0086 19.1369C18.2184 19.1507 18.3496 19.3762 18.3869 19.5831C18.6005 19.2513 18.927 18.9937 19.2994 18.8633C19.3706 19.2271 19.3289 19.6118 19.182 19.9521C19.3587 19.8708 19.5801 19.8157 19.737 19.9305C19.8753 20.0315 19.9067 20.2279 19.8824 20.3976C19.8265 20.7886 19.5488 21.1114 19.245 21.3641C18.9502 21.6094 18.6091 21.8159 18.2304 21.8755C18.104 21.8957 17.9713 21.8983 17.8513 21.8543C17.644 21.7786 17.5061 21.5736 17.452 21.3596C17.3853 21.095 17.4491 20.8553 17.4561 20.5936C17.4655 20.2511 17.4468 19.9413 17.546 19.6058V19.6062Z" fill="#4F382F"/>
    <path d="M17.7597 12.7929C17.9166 12.8775 18.1284 12.8439 18.2514 12.7153C18.3744 12.5867 18.3982 12.3735 18.3065 12.2207C18.7065 12.3404 19.1423 12.3381 19.5407 12.2136C19.3965 11.8647 19.1251 11.5699 18.7893 11.3973C18.9428 11.4081 19.0841 11.2772 19.1128 11.1259C19.1415 10.9746 19.0733 10.8161 18.9637 10.708C18.8541 10.5996 18.7084 10.5355 18.5604 10.493C18.2406 10.4013 17.8693 10.411 17.6072 10.616C17.3579 10.8113 17.2546 11.149 17.2665 11.4659C17.2796 11.8125 17.4108 12.6058 17.7593 12.7936L17.7597 12.7929Z" fill="#BA863C"/>
    <path d="M17.2956 19.6062C17.3631 19.3781 17.5208 19.1216 17.7582 19.1369C17.9681 19.1507 18.0993 19.3762 18.1369 19.5831C18.3505 19.2513 18.677 18.9937 19.0494 18.8633C19.1206 19.2271 19.0789 19.6118 18.932 19.9521C19.1087 19.8708 19.3301 19.8157 19.487 19.9305C19.6253 20.0315 19.6567 20.2279 19.6324 20.3976C19.5765 20.7886 19.2988 21.1114 18.995 21.3641C18.7002 21.6094 18.3591 21.8159 17.9804 21.8755C17.854 21.8957 17.7213 21.8983 17.6013 21.8543C17.394 21.7786 17.2561 21.5736 17.202 21.3596C17.1353 21.095 17.1991 20.8553 17.2061 20.5936C17.2155 20.2511 17.1968 19.9413 17.296 19.6058L17.2956 19.6062Z" fill="#BA863C"/>
    <path opacity="0.44" d="M26.2591 18.3464C26.0634 18.4265 25.855 18.4944 25.6441 18.4769C25.4331 18.4594 25.2187 18.3389 25.1461 18.1403C25.0734 17.9416 25.1967 17.6784 25.407 17.6538C25.0156 17.5379 24.6723 17.2669 24.4688 16.9132C24.856 16.8144 25.2747 16.8427 25.6452 16.9922C25.4502 16.8211 25.4465 16.4901 25.6105 16.2895C25.7745 16.0886 26.0679 16.02 26.318 16.0879C26.5685 16.1557 26.775 16.3421 26.9092 16.5642C27.134 16.9363 27.1657 17.4186 26.9916 17.8167C26.8175 18.2152 26.4421 18.5194 26.0161 18.607C25.9635 18.6178 25.8811 18.5876 25.908 18.5414L26.2587 18.3464H26.2591Z" fill="#4F382F"/>
    <path opacity="0.44" d="M25.6048 8.82852C25.3777 8.85647 25.1574 8.93773 24.967 9.06447C24.7914 9.18114 24.6319 9.35709 24.6251 9.56807C24.6184 9.77867 24.8387 9.99077 25.0333 9.90951C24.7981 10.267 24.6949 10.7091 24.7478 11.1336C25.1985 11.058 25.6122 10.7851 25.8593 10.4012C25.8292 10.5503 25.9447 10.7039 26.0912 10.7452C26.2377 10.7862 26.3991 10.7314 26.515 10.6327C26.631 10.5343 26.7074 10.3971 26.7678 10.2573C26.8811 9.99338 26.9437 9.70822 26.9512 9.4212C26.9549 9.27433 26.9433 9.12225 26.8759 8.99141C26.745 8.73719 26.4356 8.62574 26.1497 8.61455C25.8359 8.60188 25.5187 8.68426 25.2499 8.84753L25.6048 8.82889V8.82852Z" fill="#4F382F"/>
    <path d="M25.7063 8.58633C25.4793 8.61429 25.259 8.69555 25.0685 8.82228C24.893 8.93896 24.7334 9.1149 24.7267 9.32588C24.72 9.53649 24.9403 9.74859 25.1349 9.66733C24.8997 10.0248 24.7964 10.4669 24.8493 10.8915C25.3 10.8158 25.7138 10.5429 25.9609 10.159C25.9307 10.3081 26.0463 10.4617 26.1928 10.503C26.3393 10.5441 26.5007 10.4893 26.6166 10.3905C26.7325 10.2921 26.8093 10.1549 26.8693 10.0151C26.9826 9.7512 27.0453 9.46604 27.0527 9.17901C27.0564 9.03215 27.0449 8.88006 26.9774 8.74922C26.8462 8.495 26.5372 8.38355 26.2513 8.37237C25.9374 8.35969 25.6202 8.44207 25.3515 8.60534L25.7063 8.5867V8.58633Z" fill="#BA863C"/>
    <path d="M26.3685 18.2409C26.1728 18.3211 25.9644 18.3889 25.7534 18.3714C25.5424 18.3539 25.3281 18.2335 25.2554 18.0348C25.1827 17.8361 25.3061 17.573 25.5164 17.5484C25.125 17.4324 24.7817 17.1614 24.5781 16.8077C24.9654 16.7089 25.384 16.7372 25.7545 16.8867C25.5596 16.7156 25.5559 16.3846 25.7199 16.1841C25.8839 15.9831 26.1773 15.9146 26.4274 15.9824C26.6779 16.0502 26.8844 16.2366 27.0186 16.4588C27.2433 16.8308 27.275 17.3131 27.1009 17.7112C26.9269 18.1097 26.5515 18.4139 26.1254 18.5015C26.0729 18.5123 25.9905 18.4821 26.0173 18.4359L26.3681 18.2409H26.3685Z" fill="#BA863C"/>
    <path d="M0.523438 6.65625V16.2193L16.4804 23.4177V10.1356L0.523438 6.65625Z" fill="#936C58"/>
    <path opacity="0.44" d="M2.17773 14.7412C2.34846 14.8643 2.3738 14.9448 2.42823 15.1483C2.798 14.9056 3.10217 14.8262 3.54314 14.7931C3.51295 15.142 3.37689 15.5102 3.12528 15.7641C3.31502 15.7555 3.37876 15.7201 3.53867 15.823C3.72878 15.9452 3.80296 16.1868 3.82532 16.4116C3.85738 16.7336 3.8037 17.0795 3.59831 17.33C3.56812 17.3669 3.53233 17.4027 3.48648 17.4139C3.4548 17.4217 3.42162 17.4169 3.38919 17.4117C2.76333 17.314 2.14717 17.1545 1.55225 16.9364C1.44303 16.8962 1.32859 16.8499 1.25926 16.7564C1.19365 16.6677 1.18023 16.5525 1.16905 16.4429C1.12842 16.0478 1.00839 15.4271 1.2395 15.07C1.427 14.78 1.8512 14.506 2.17773 14.7412Z" fill="#4F382F"/>
    <path opacity="0.44" d="M13.1856 19.9302C12.9992 19.5891 12.9235 19.1884 12.9727 18.8026C13.3973 18.7254 13.8561 18.8749 14.1536 19.1873C14.1327 18.8496 14.4917 18.5454 14.8216 18.621C15.1805 18.7034 15.3569 19.1068 15.4355 19.4668C15.5216 19.8605 15.5563 20.263 15.5794 20.6653C15.5921 20.89 15.5999 21.1237 15.5119 21.3306C15.1858 22.0978 14.1543 21.8782 13.6444 21.4574C13.3268 21.1953 12.484 20.2176 13.1856 19.9302Z" fill="#4F382F"/>
    <path opacity="0.44" d="M13.3457 11.1022C13.1951 11.3963 13.3297 11.8209 13.6447 11.9208C13.3379 12.1165 13.0851 12.3964 12.9219 12.7215C13.323 12.7826 13.7431 12.7129 14.1031 12.525C14.1061 12.8001 14.2903 13.0648 14.5471 13.1636C14.8039 13.2623 15.1178 13.1889 15.3045 12.9865C15.4581 12.8199 15.5204 12.5903 15.5681 12.3685C15.6628 11.9294 15.7105 11.4302 15.4454 11.0672C15.0529 10.5293 13.6763 10.4562 13.3457 11.1022Z" fill="#4F382F"/>
    <path opacity="0.44" d="M2.15738 10.1125C2.38998 10.0968 2.59723 9.90038 2.62556 9.6689C2.84139 9.89479 3.08666 10.0927 3.35318 10.256C3.33976 9.96263 3.28534 9.67076 3.19178 9.39231C3.49893 9.3487 3.73265 9.01657 3.66928 8.71278C3.66369 8.68668 3.65586 8.65985 3.63685 8.64121C3.6171 8.62182 3.58839 8.61474 3.56155 8.60841C2.91594 8.45781 2.27032 8.30684 1.62433 8.15625C1.58818 8.63823 1.29332 10.171 2.15738 10.1125Z" fill="#4F382F"/>
    <path d="M2.02111 14.7412C2.19183 14.8643 2.21718 14.9448 2.2716 15.1483C2.64138 14.9056 2.94555 14.8262 3.38652 14.7931C3.35633 15.142 3.22027 15.5102 2.96866 15.7641C3.15839 15.7555 3.22214 15.7201 3.38205 15.823C3.57215 15.9452 3.64633 16.1868 3.6687 16.4116C3.70076 16.7336 3.64708 17.0795 3.44206 17.33C3.41187 17.3669 3.37608 17.4027 3.33023 17.4139C3.29855 17.4217 3.26537 17.4169 3.23294 17.4117C2.60708 17.314 1.99092 17.1545 1.396 16.9364C1.28678 16.8962 1.17234 16.8499 1.10301 16.7564C1.0374 16.6677 1.02398 16.5525 1.0128 16.4429C0.97217 16.0478 0.852142 15.4271 1.08325 15.07C1.27075 14.78 1.69495 14.506 2.02148 14.7412H2.02111Z" fill="#C9943F"/>
    <path d="M13.4121 19.9302C13.2257 19.5891 13.1501 19.1884 13.1993 18.8026C13.6238 18.7254 14.0827 18.8749 14.3802 19.1873C14.3593 18.8496 14.7183 18.5454 15.0481 18.621C15.4071 18.7034 15.5834 19.1068 15.6621 19.4668C15.7482 19.8605 15.7829 20.263 15.806 20.6653C15.8186 20.89 15.8265 21.1237 15.7385 21.3306C15.4123 22.0978 14.3809 21.8782 13.871 21.4574C13.5534 21.1953 12.7106 20.2176 13.4121 19.9302Z" fill="#C9943F"/>
    <path d="M13.4395 10.8991C13.2889 11.1932 13.4234 11.6178 13.7384 11.7177C13.4316 11.9134 13.1789 12.1933 13.0156 12.5183C13.4167 12.5795 13.8368 12.5098 14.1965 12.3219C14.1995 12.597 14.3836 12.8617 14.6405 12.9604C14.8973 13.0592 15.2112 12.9858 15.3975 12.7834C15.5511 12.6168 15.6134 12.3871 15.6611 12.1653C15.7558 11.7262 15.8035 11.2271 15.5384 10.864C15.1459 10.3262 13.7693 10.2531 13.4387 10.8991H13.4395Z" fill="#C9943F"/>
    <path d="M1.95388 9.77654C2.18648 9.76089 2.39373 9.56445 2.42206 9.33296C2.63789 9.55885 2.88316 9.75679 3.14968 9.92006C3.13664 9.6267 3.08184 9.33483 2.98865 9.05638C3.29581 9.01276 3.52952 8.68064 3.46616 8.37684C3.46056 8.35075 3.45274 8.32391 3.43373 8.30527C3.41397 8.28589 3.38527 8.2788 3.35843 8.27247C2.71281 8.12187 2.0672 7.97091 1.42121 7.82031C1.38505 8.30229 1.0902 9.83507 1.95425 9.77654H1.95388Z" fill="#C9943F"/>
    <path d="M27.6466 7.57812L16.5477 9.87394L16.5 23.9996L27.9228 18.9133L27.6469 7.57812H27.6466ZM26.8761 18.2155L17.6913 22.1101V10.9493L26.6461 8.76722L26.8761 18.2155Z" fill="#C6923E"/>
    <path d="M1.03906 16.4444L1.43344 16.1775V7.82961L1.03906 7.73828V16.4444Z" fill="#C6923E"/>
    <path d="M1.43344 16.1758L15.2519 21.4641V22.1101L1.03906 16.4427L1.43344 16.1758Z" fill="#FFCE55"/>
    <path d="M26.8728 18.2178L26.6428 8.76953L26.2812 8.8575L26.5772 17.996L26.8728 18.2178Z" fill="#E5AC45"/>
    <path d="M17.6953 21.5095L26.5845 17.9922L26.8801 18.214L17.6953 22.1085V21.5095Z" fill="#FFCE55"/>
    <path opacity="0.44" d="M6.23229 11.6335C5.97024 11.9522 5.3045 12.0707 4.95336 11.8541C4.94329 12.2642 5.26088 12.7238 5.58593 12.9743C5.77342 13.1189 6.12307 13.1767 6.35754 13.2072C6.59237 13.2378 6.85069 13.1618 6.99309 12.9728C6.88126 13.4134 6.97147 13.8853 7.15524 14.3009C7.33938 14.7165 7.4266 15.1989 7.6976 15.5638C8.43044 15.1844 8.93702 14.346 8.77599 13.5364C8.91503 13.9505 9.41788 14.0996 9.85251 14.1444C10.2871 14.1891 10.7378 13.9598 10.9581 13.583C10.5526 13.3929 10.1157 13.1726 9.92744 12.7663C9.80033 12.4915 9.80927 12.1762 9.82083 11.8735C9.8458 11.2167 9.93862 10.4097 9.96359 9.7529C9.96583 9.694 7.64914 9.45805 7.43518 9.41593C7.23948 9.37716 6.49993 9.12033 6.37394 9.28509C6.25615 9.43904 6.49434 11.3151 6.23229 11.6338V11.6335Z" fill="#4F382F"/>
    <path d="M6.03273 11.3154C5.75577 11.6215 5.25702 11.7478 4.91632 11.5149C4.88687 11.9238 5.14967 12.301 5.46241 12.5668C5.64282 12.72 5.85045 12.852 6.08342 12.8937C6.3164 12.9354 6.57807 12.8717 6.72941 12.6898C6.59708 13.1244 6.66418 13.6004 6.82857 14.0243C6.99258 14.4481 7.24792 14.8291 7.50139 15.2067C8.25138 14.8626 8.7218 13.9926 8.59954 13.1766C8.71882 13.5967 9.09829 13.9307 9.53031 13.9959C9.96234 14.0612 10.4234 13.8539 10.6613 13.4875C10.265 13.2784 9.83933 13.0376 9.67047 12.6227C9.55641 12.3424 9.58026 12.0274 9.60636 11.7259C9.66264 11.0709 9.71893 10.416 9.77484 9.76104C9.77969 9.70215 7.55134 9.21011 7.33962 9.15755C7.14616 9.10946 6.41965 8.81797 6.28583 8.97639C6.16096 9.12475 6.31006 11.0098 6.0331 11.3158L6.03273 11.3154Z" fill="#E5AC45"/>
    <path opacity="0.44" d="M2.00187 16.3948V8.50058L15.2482 12.0899V11.0368L1.42969 7.82812V16.176L2.00187 16.3948Z" fill="#4F382F"/>
    <path d="M0.078125 6.38672L0.265249 17.1389L16.5 24.0003L16.5477 9.87461L0.078125 6.38672ZM15.2501 22.1111L1.03723 16.4433V7.73722L15.2501 11.0372V22.1111Z" fill="#E5AC45"/>
    <path opacity="0.44" d="M1.04325 7.10008C1.04325 7.31069 0.905699 7.48141 0.736467 7.48141C0.567235 7.48141 0.429688 7.31069 0.429688 7.10008C0.429688 6.88947 0.567235 6.71875 0.736467 6.71875C0.905699 6.71875 1.04325 6.88947 1.04325 7.10008Z" fill="#4F382F"/>
    <path d="M0.61928 7.41891C0.788709 7.41891 0.926059 7.24818 0.926059 7.03758C0.926059 6.82698 0.788709 6.65625 0.61928 6.65625C0.44985 6.65625 0.3125 6.82698 0.3125 7.03758C0.3125 7.24818 0.44985 7.41891 0.61928 7.41891Z" fill="#FFCE55"/>
    <path d="M0.428133 6.87849C0.408004 6.91502 0.394585 6.95714 0.399431 6.99889C0.404276 7.04063 0.429251 7.08127 0.468391 7.09692C0.478455 7.10102 0.489265 7.10326 0.500075 7.10139C0.530641 7.09655 0.54667 7.06412 0.564935 7.03914C0.5873 7.00895 0.618985 6.98547 0.65477 6.97391C0.676389 6.96683 0.700246 6.9631 0.716275 6.94707C0.731185 6.93254 0.736031 6.90942 0.732676 6.88892C0.729321 6.86842 0.719257 6.84941 0.707328 6.83189C0.629049 6.71783 0.484419 6.77635 0.428133 6.87849Z" fill="white"/>
    <path opacity="0.44" d="M2.49564 8.79257C2.49564 8.9413 2.39873 9.0617 2.27907 9.0617C2.15942 9.0617 2.0625 8.9413 2.0625 8.79257C2.0625 8.64384 2.15942 8.52344 2.27907 8.52344C2.39873 8.52344 2.49564 8.64384 2.49564 8.79257Z" fill="#4F382F"/>
    <path d="M2.41752 8.7496C2.41752 8.89833 2.3206 9.01873 2.20095 9.01873C2.08129 9.01873 1.98438 8.89833 1.98438 8.7496C1.98438 8.60087 2.08129 8.48047 2.20095 8.48047C2.3206 8.48047 2.41752 8.60087 2.41752 8.7496Z" fill="#FFCE55"/>
    <path d="M2.06804 8.6354C2.05388 8.66112 2.04419 8.69094 2.04754 8.72039C2.0509 8.74984 2.06879 8.77854 2.096 8.78935C2.10308 8.79196 2.11091 8.79382 2.11837 8.79271C2.13999 8.78935 2.15117 8.76624 2.16421 8.74872C2.17987 8.72747 2.20224 8.71107 2.22758 8.70287C2.24287 8.69803 2.25964 8.69542 2.2712 8.68386C2.28163 8.67342 2.28499 8.65739 2.28275 8.64286C2.28052 8.62832 2.27306 8.6149 2.26486 8.6026C2.20969 8.52208 2.10756 8.56346 2.06767 8.6354H2.06804Z" fill="white"/>
    <path opacity="0.44" d="M2.65971 15.8121C2.65971 15.9608 2.56279 16.0812 2.44313 16.0812C2.32348 16.0812 2.22656 15.9608 2.22656 15.8121C2.22656 15.6634 2.32348 15.543 2.44313 15.543C2.56279 15.543 2.65971 15.6634 2.65971 15.8121Z" fill="#4F382F"/>
    <path d="M2.58158 15.7691C2.58158 15.9179 2.48466 16.0383 2.36501 16.0383C2.24535 16.0383 2.14844 15.9179 2.14844 15.7691C2.14844 15.6204 2.24535 15.5 2.36501 15.5C2.48466 15.5 2.58158 15.6204 2.58158 15.7691Z" fill="#FFCE55"/>
    <path d="M2.232 15.6549C2.21783 15.6807 2.20851 15.7105 2.21149 15.7399C2.21485 15.7694 2.23274 15.7981 2.26033 15.8089C2.26741 15.8115 2.27524 15.8134 2.28269 15.8122C2.30431 15.8089 2.31549 15.7858 2.32854 15.7683C2.3442 15.747 2.36656 15.7306 2.39191 15.7224C2.40719 15.7176 2.42397 15.7149 2.43552 15.7034C2.44596 15.693 2.44931 15.6769 2.44708 15.6624C2.44484 15.6479 2.43738 15.6344 2.42918 15.6221C2.37402 15.5416 2.27188 15.583 2.232 15.6549Z" fill="white"/>
    <path opacity="0.44" d="M14.6601 20.2567C14.6601 20.4804 14.514 20.6616 14.334 20.6616C14.1539 20.6616 14.0078 20.4804 14.0078 20.2567C14.0078 20.0331 14.1539 19.8516 14.334 19.8516C14.514 19.8516 14.6601 20.0327 14.6601 20.2567Z" fill="#4F382F"/>
    <path d="M14.543 20.1903C14.543 20.414 14.3972 20.5955 14.2168 20.5955C14.0364 20.5955 13.8906 20.4144 13.8906 20.1903C13.8906 19.9663 14.0367 19.7852 14.2168 19.7852C14.3968 19.7852 14.543 19.9663 14.543 20.1903Z" fill="#FFCE55"/>
    <path d="M14.016 20.0181C13.9944 20.0569 13.9802 20.1016 13.9855 20.146C13.9903 20.1903 14.0171 20.2336 14.0585 20.25C14.069 20.2541 14.0809 20.2567 14.0921 20.2548C14.1245 20.25 14.1416 20.2153 14.161 20.1885C14.1845 20.1564 14.2184 20.1318 14.2565 20.1191C14.2792 20.1117 14.3049 20.1076 14.3221 20.0908C14.3381 20.0752 14.3429 20.0509 14.3396 20.0289C14.3362 20.0069 14.3254 19.9868 14.3127 19.9685C14.2296 19.8474 14.076 19.9096 14.016 20.0181Z" fill="white"/>
    <path opacity="0.44" d="M14.9648 11.8388C14.9648 12.0624 14.8187 12.2436 14.6387 12.2436C14.4586 12.2436 14.3125 12.0624 14.3125 11.8388C14.3125 11.6151 14.4586 11.4336 14.6387 11.4336C14.8187 11.4336 14.9648 11.6148 14.9648 11.8388Z" fill="#4F382F"/>
    <path d="M14.8476 11.7724C14.8476 11.996 14.7019 12.1776 14.5215 12.1776C14.3411 12.1776 14.1953 11.9964 14.1953 11.7724C14.1953 11.5483 14.3414 11.3672 14.5215 11.3672C14.7015 11.3672 14.8476 11.5483 14.8476 11.7724Z" fill="#FFCE55"/>
    <path d="M14.3207 11.6002C14.2991 11.6389 14.2849 11.6836 14.2901 11.728C14.295 11.7724 14.3218 11.8156 14.3632 11.832C14.374 11.8361 14.3856 11.8387 14.3968 11.8369C14.4292 11.832 14.4463 11.7973 14.4657 11.7705C14.4892 11.7384 14.5231 11.7138 14.5611 11.7012C14.5839 11.6937 14.6096 11.6896 14.6267 11.6728C14.6424 11.6572 14.6476 11.633 14.6443 11.611C14.6409 11.589 14.6301 11.5688 14.6174 11.5506C14.5343 11.4294 14.3807 11.4917 14.3207 11.6002Z" fill="white"/>
    <path opacity="0.44" d="M18.6523 11.5185C18.6523 11.7421 18.5066 11.9237 18.3262 11.9237C18.1457 11.9237 18 11.7425 18 11.5185C18 11.2944 18.1461 11.1133 18.3262 11.1133C18.5062 11.1133 18.6523 11.2944 18.6523 11.5185Z" fill="#4F382F"/>
    <path d="M18.5351 11.4517C18.5351 11.6753 18.389 11.8569 18.209 11.8569C18.0289 11.8569 17.8828 11.6757 17.8828 11.4517C17.8828 11.2277 18.0286 11.0469 18.209 11.0469C18.3894 11.0469 18.5351 11.228 18.5351 11.4517Z" fill="#E5AC45"/>
    <path d="M18.0082 11.2798C17.9866 11.3186 17.9724 11.3633 17.9776 11.4077C17.9825 11.4521 18.0093 11.4953 18.0507 11.5117C18.0611 11.5158 18.0731 11.5184 18.0843 11.5165C18.1167 11.5117 18.1338 11.477 18.1532 11.4502C18.1767 11.4181 18.2106 11.3935 18.2486 11.3809C18.2714 11.3734 18.2971 11.3693 18.3142 11.3525C18.3299 11.3369 18.3351 11.3126 18.3318 11.2906C18.3284 11.2687 18.3176 11.2485 18.3049 11.2303C18.2218 11.1091 18.0682 11.1714 18.0082 11.2798Z" fill="#FFCE55"/>
    <path opacity="0.44" d="M18.459 20.8143C18.6391 20.8143 18.7851 20.6329 18.7851 20.4091C18.7851 20.1853 18.6391 20.0039 18.459 20.0039C18.2788 20.0039 18.1328 20.1853 18.1328 20.4091C18.1328 20.6329 18.2788 20.8143 18.459 20.8143Z" fill="#4F382F"/>
    <path d="M18.668 20.3423C18.668 20.566 18.5218 20.7475 18.3418 20.7475C18.1617 20.7475 18.0156 20.5663 18.0156 20.3423C18.0156 20.1183 18.1617 19.9375 18.3418 19.9375C18.5218 19.9375 18.668 20.1187 18.668 20.3423Z" fill="#E5AC45"/>
    <path d="M18.141 20.1705C18.1194 20.2092 18.1052 20.254 18.1105 20.2983C18.1153 20.3427 18.1421 20.3859 18.1835 20.4023C18.194 20.4064 18.2059 20.409 18.2171 20.4072C18.2495 20.4023 18.2666 20.3677 18.286 20.3408C18.3095 20.3088 18.3434 20.2842 18.3815 20.2715C18.4042 20.264 18.4299 20.2599 18.4471 20.2432C18.4627 20.2275 18.4679 20.2033 18.4646 20.1813C18.4612 20.1593 18.4504 20.1392 18.4377 20.1209C18.3546 19.9997 18.201 20.062 18.141 20.1705Z" fill="#FFCE55"/>
    <path opacity="0.44" d="M25.7781 10.0383C25.9447 10.0383 26.0797 9.87058 26.0797 9.66368C26.0797 9.45679 25.9447 9.28906 25.7781 9.28906C25.6116 9.28906 25.4766 9.45679 25.4766 9.66368C25.4766 9.87058 25.6116 10.0383 25.7781 10.0383Z" fill="#4F382F"/>
    <path d="M25.9703 9.60118C25.9703 9.80806 25.8354 9.97581 25.6687 9.97581C25.5021 9.97581 25.3672 9.80806 25.3672 9.60118C25.3672 9.3943 25.5021 9.22656 25.6687 9.22656C25.8354 9.22656 25.9703 9.3943 25.9703 9.60118Z" fill="#E5AC45"/>
    <path d="M25.4824 9.4427C25.4622 9.47885 25.4495 9.51986 25.454 9.56086C25.4585 9.60186 25.4835 9.64175 25.5219 9.65703C25.5316 9.66076 25.5424 9.663 25.5528 9.6615C25.583 9.65703 25.5987 9.62497 25.6165 9.60037C25.6385 9.57055 25.6695 9.54781 25.7049 9.53626C25.7261 9.52918 25.7496 9.52582 25.7656 9.51016C25.7802 9.49563 25.785 9.47326 25.7817 9.45313C25.7787 9.433 25.7683 9.41437 25.7567 9.39722C25.6799 9.28502 25.5379 9.3428 25.4824 9.44307V9.4427Z" fill="#FFCE55"/>
    <path opacity="0.44" d="M26.1062 17.8274C26.2728 17.8274 26.4078 17.6596 26.4078 17.4527C26.4078 17.2458 26.2728 17.0781 26.1062 17.0781C25.9397 17.0781 25.8047 17.2458 25.8047 17.4527C25.8047 17.6596 25.9397 17.8274 26.1062 17.8274Z" fill="#4F382F"/>
    <path d="M26.2984 17.3902C26.2984 17.5971 26.1635 17.7649 25.9969 17.7649C25.8302 17.7649 25.6953 17.5971 25.6953 17.3902C25.6953 17.1834 25.8302 17.0156 25.9969 17.0156C26.1635 17.0156 26.2984 17.1834 26.2984 17.3902Z" fill="#E5AC45"/>
    <path d="M25.8105 17.2318C25.7903 17.2679 25.7777 17.3089 25.7821 17.3499C25.7866 17.3909 25.8116 17.4308 25.85 17.4461C25.8597 17.4498 25.8705 17.4521 25.8809 17.4506C25.9111 17.4461 25.9268 17.414 25.9447 17.3894C25.9663 17.3596 25.9976 17.3369 26.033 17.3253C26.0543 17.3182 26.0777 17.3149 26.0938 17.2992C26.1083 17.2847 26.1132 17.2623 26.1098 17.2422C26.1068 17.2217 26.0964 17.2034 26.0848 17.1863C26.008 17.0741 25.866 17.1319 25.8105 17.2321V17.2318Z" fill="#FFCE55"/>
    <path opacity="0.44" d="M1.09793 16.7056C1.09793 16.9162 0.960387 17.0869 0.791155 17.0869C0.621923 17.0869 0.484375 16.9162 0.484375 16.7056C0.484375 16.4949 0.621923 16.3242 0.791155 16.3242C0.960387 16.3242 1.09793 16.4949 1.09793 16.7056Z" fill="#4F382F"/>
    <path d="M0.980747 16.6431C0.980747 16.8537 0.843199 17.0244 0.673967 17.0244C0.504735 17.0244 0.367188 16.8537 0.367188 16.6431C0.367188 16.4324 0.504735 16.2617 0.673967 16.2617C0.843199 16.2617 0.980747 16.4324 0.980747 16.6431Z" fill="#FFCE55"/>
    <path d="M0.482839 16.48C0.462338 16.5166 0.449291 16.5587 0.454137 16.6004C0.458983 16.6422 0.483958 16.6828 0.523097 16.6985C0.533162 16.7026 0.543971 16.7048 0.554781 16.703C0.585348 16.6981 0.601376 16.6657 0.619641 16.6407C0.641634 16.6105 0.673691 16.587 0.709476 16.5755C0.731096 16.5684 0.754952 16.5647 0.770981 16.5486C0.785891 16.5341 0.790737 16.511 0.787382 16.4905C0.784027 16.47 0.773963 16.451 0.762035 16.4335C0.684128 16.3194 0.539126 16.3779 0.482839 16.48Z" fill="white"/>
    <path opacity="0.44" d="M16.1704 10.6057C16.1704 10.8733 15.996 11.0903 15.7805 11.0903C15.5651 11.0903 15.3906 10.8733 15.3906 10.6057C15.3906 10.338 15.5651 10.1211 15.7805 10.1211C15.996 10.1211 16.1704 10.338 16.1704 10.6057Z" fill="#4F382F"/>
    <path d="M16.0298 10.5276C16.0298 10.7952 15.8554 11.0121 15.6399 11.0121C15.4245 11.0121 15.25 10.7952 15.25 10.5276C15.25 10.2599 15.4245 10.043 15.6399 10.043C15.8554 10.043 16.0298 10.2599 16.0298 10.5276Z" fill="#FFCE55"/>
    <path d="M15.3971 10.3217C15.3714 10.3683 15.3546 10.4216 15.3606 10.4745C15.3665 10.5275 15.3986 10.5793 15.4482 10.5991C15.4609 10.6039 15.4746 10.6069 15.4884 10.605C15.5272 10.5991 15.5477 10.5577 15.5708 10.5256C15.5991 10.4872 15.6394 10.4578 15.6849 10.4429C15.7121 10.4339 15.7427 10.4291 15.7632 10.4089C15.7822 10.3903 15.7881 10.3612 15.784 10.3351C15.7799 10.3087 15.7669 10.2848 15.752 10.2628C15.6528 10.1178 15.4691 10.1924 15.3971 10.3221V10.3217Z" fill="white"/>
    <path opacity="0.44" d="M8.12509 13.5853C8.12509 13.9256 7.90293 14.2018 7.62895 14.2018C7.35498 14.2018 7.13281 13.926 7.13281 13.5853C7.13281 13.2446 7.35498 12.9688 7.62895 12.9688C7.90293 12.9688 8.12509 13.2446 8.12509 13.5853Z" fill="#4F382F"/>
    <path d="M7.44145 14.1003C7.71546 14.1003 7.93759 13.8242 7.93759 13.4837C7.93759 13.1432 7.71546 12.8672 7.44145 12.8672C7.16744 12.8672 6.94531 13.1432 6.94531 13.4837C6.94531 13.8242 7.16744 14.1003 7.44145 14.1003Z" fill="#FFCE55"/>
    <path d="M7.13414 13.2229C7.10134 13.2822 7.07972 13.3501 7.08754 13.4175C7.095 13.485 7.136 13.551 7.199 13.5756C7.21503 13.5819 7.23292 13.5856 7.25007 13.583C7.29964 13.5756 7.32574 13.5226 7.35518 13.4824C7.39097 13.4332 7.44241 13.3959 7.50019 13.3769C7.53485 13.3653 7.57399 13.3594 7.60009 13.3337C7.62431 13.3098 7.63214 13.2729 7.62692 13.2397C7.62171 13.2062 7.60493 13.1756 7.58592 13.1476C7.45956 12.9631 7.22584 13.0582 7.13451 13.2229H7.13414Z" fill="white"/>
    <path opacity="0.44" d="M17.6939 10.5627C17.6939 10.8303 17.5194 11.0473 17.304 11.0473C17.0885 11.0473 16.9141 10.8303 16.9141 10.5627C16.9141 10.2951 17.0885 10.0781 17.304 10.0781C17.5194 10.0781 17.6939 10.2951 17.6939 10.5627Z" fill="#4F382F"/>
    <path d="M17.1555 10.9692C17.3709 10.9692 17.5454 10.7522 17.5454 10.4846C17.5454 10.217 17.3709 10 17.1555 10C16.9402 10 16.7656 10.217 16.7656 10.4846C16.7656 10.7522 16.9402 10.9692 17.1555 10.9692Z" fill="#FFCE55"/>
    <path d="M16.9127 10.2788C16.887 10.3254 16.8702 10.3787 16.8762 10.4316C16.8822 10.4845 16.9142 10.5363 16.9638 10.5561C16.9765 10.5609 16.9903 10.5639 17.0041 10.5621C17.0428 10.5561 17.0633 10.5147 17.0868 10.4827C17.1151 10.4443 17.1554 10.4148 17.2009 10.3999C17.2281 10.391 17.2587 10.3861 17.2792 10.366C17.2982 10.3474 17.3041 10.3183 17.3 10.2922C17.2959 10.2661 17.2829 10.2419 17.268 10.2199C17.1688 10.0749 16.9851 10.1494 16.9131 10.2788H16.9127Z" fill="white"/>
    <path opacity="0.44" d="M17.6157 22.8947C17.6157 23.1624 17.4413 23.3793 17.2258 23.3793C17.0104 23.3793 16.8359 23.1624 16.8359 22.8947C16.8359 22.6271 17.0104 22.4102 17.2258 22.4102C17.4413 22.4102 17.6157 22.6271 17.6157 22.8947Z" fill="#4F382F"/>
    <path d="M17.4751 22.8166C17.4751 23.0843 17.3007 23.3012 17.0852 23.3012C16.8698 23.3012 16.6953 23.0843 16.6953 22.8166C16.6953 22.549 16.8698 22.332 17.0852 22.332C17.3007 22.332 17.4751 22.549 17.4751 22.8166Z" fill="#FFCE55"/>
    <path d="M16.8424 22.6108C16.8167 22.6574 16.7999 22.7107 16.8059 22.7636C16.8119 22.8165 16.8439 22.8684 16.8935 22.8881C16.9062 22.8933 16.92 22.8959 16.9334 22.8941C16.9721 22.8881 16.9926 22.8467 17.0158 22.8147C17.0441 22.7763 17.0843 22.7468 17.1298 22.7319C17.157 22.723 17.1876 22.7181 17.2081 22.698C17.2271 22.6794 17.2331 22.6503 17.229 22.6242C17.2249 22.5977 17.2118 22.5739 17.1969 22.5519C17.0978 22.4069 16.914 22.4814 16.8421 22.6112L16.8424 22.6108Z" fill="white"/>
    <path opacity="0.44" d="M27.4872 18.7406C27.6614 18.7406 27.8026 18.5652 27.8026 18.3488C27.8026 18.1324 27.6614 17.957 27.4872 17.957C27.3131 17.957 27.1719 18.1324 27.1719 18.3488C27.1719 18.5652 27.3131 18.7406 27.4872 18.7406Z" fill="#4F382F"/>
    <path d="M27.6854 18.2863C27.6854 18.5029 27.5441 18.6781 27.37 18.6781C27.196 18.6781 27.0547 18.5025 27.0547 18.2863C27.0547 18.0701 27.196 17.8945 27.37 17.8945C27.5441 17.8945 27.6854 18.0701 27.6854 18.2863Z" fill="#FFCE55"/>
    <path d="M27.1714 18.1197C27.1505 18.1573 27.1368 18.2006 27.1416 18.2434C27.1464 18.2863 27.1725 18.3281 27.2124 18.3441C27.2229 18.3482 27.234 18.3504 27.2449 18.3489C27.2762 18.3441 27.2929 18.3105 27.3116 18.2848C27.3343 18.2535 27.3671 18.23 27.404 18.2177C27.426 18.2106 27.451 18.2065 27.4674 18.1901C27.4827 18.1749 27.4875 18.1518 27.4845 18.1305C27.4812 18.1093 27.4707 18.0899 27.4584 18.072C27.3783 17.9546 27.2296 18.015 27.1714 18.1197Z" fill="white"/>
    <path opacity="0.44" d="M27.5448 8.28239C27.5448 8.49897 27.4035 8.67416 27.2294 8.67416C27.0553 8.67416 26.9141 8.49859 26.9141 8.28239C26.9141 8.06619 27.0553 7.89062 27.2294 7.89062C27.4035 7.89062 27.5448 8.06619 27.5448 8.28239Z" fill="#4F382F"/>
    <path d="M27.1122 8.61166C27.2864 8.61166 27.4276 8.43626 27.4276 8.21989C27.4276 8.00353 27.2864 7.82812 27.1122 7.82812C26.9381 7.82812 26.7969 8.00353 26.7969 8.21989C26.7969 8.43626 26.9381 8.61166 27.1122 8.61166Z" fill="#FFCE55"/>
    <path d="M26.9136 8.05329C26.8927 8.09094 26.8789 8.13418 26.8838 8.17704C26.8886 8.21991 26.9147 8.26166 26.9546 8.27769C26.965 8.28179 26.9762 8.28402 26.987 8.28253C27.0184 8.27769 27.0351 8.24414 27.0538 8.21842C27.0765 8.18711 27.1093 8.16362 27.1462 8.15132C27.1682 8.14387 27.1932 8.14014 27.2096 8.12374C27.2249 8.10846 27.2297 8.08534 27.2267 8.0641C27.2234 8.04285 27.2129 8.02347 27.2006 8.00558C27.1205 7.88816 26.9718 7.94854 26.9136 8.05329Z" fill="white"/>
    <path opacity="0.44" d="M16.3267 22.9338C16.3267 23.2014 16.1522 23.4184 15.9368 23.4184C15.7213 23.4184 15.5469 23.2014 15.5469 22.9338C15.5469 22.6662 15.7213 22.4492 15.9368 22.4492C16.1522 22.4492 16.3267 22.6662 16.3267 22.9338Z" fill="#4F382F"/>
    <path d="M16.1782 22.8557C16.1782 23.1233 16.0038 23.3403 15.7883 23.3403C15.5729 23.3403 15.3984 23.1233 15.3984 22.8557C15.3984 22.588 15.5729 22.3711 15.7883 22.3711C16.0038 22.3711 16.1782 22.588 16.1782 22.8557Z" fill="#FFCE55"/>
    <path d="M15.5455 22.6495C15.5198 22.6961 15.5031 22.7494 15.509 22.8023C15.515 22.8552 15.547 22.907 15.5966 22.9268C15.6093 22.9316 15.6231 22.9346 15.6369 22.9328C15.6756 22.9268 15.6961 22.8854 15.7193 22.8537C15.7476 22.8153 15.7878 22.7859 15.8333 22.771C15.8605 22.762 15.8911 22.7572 15.9116 22.7371C15.9306 22.7184 15.9366 22.6894 15.9325 22.6633C15.9284 22.6372 15.9153 22.6129 15.9004 22.5909C15.8013 22.4459 15.6175 22.5205 15.5455 22.6502V22.6495Z" fill="white"/>
    <path d="M6.08594 8.64364V9.14388C6.08594 9.14388 6.34239 9.52148 6.82102 9.61952C7.29964 9.71755 8.15101 9.7895 8.66654 9.61952C9.18169 9.44954 9.43964 9.2285 9.43964 9.2285L9.48176 8.7372L7.40997 9.03354L7.53075 8.6921L7.52143 8.15234L6.94365 8.22242L6.08594 8.64401V8.64364Z" fill="#C9943F"/>
    <path d="M6.89594 7.99219C6.89594 7.99219 6.08668 8.35041 6.08594 8.64228C6.08519 9.0333 7.25006 9.26404 7.91133 9.19135C8.5726 9.11903 9.48139 8.73584 9.48139 8.73584L8.77762 8.50287C8.77762 8.50287 8.22296 8.77051 7.63214 8.70304C7.04132 8.63557 6.87246 8.542 7.00516 8.39737C7.13786 8.25274 7.52105 8.15098 7.52105 8.15098L6.89557 7.99256L6.89594 7.99219Z" fill="#FFCE55"/>
    <path opacity="0.44" d="M17.6953 11.9702L25.8882 9.73592L26.0551 18.2158L26.5845 17.994L26.2885 8.85547L17.6953 10.9496V11.9702Z" fill="#4F382F"/>
    <path d="M5.4375 0.53118L11.676 0L23.605 1.58497L18.3424 2.38565L5.4375 0.53118Z" fill="#B7846E"/>
    <path d="M23.6047 1.58594L18.3421 2.38662L16.5469 9.87532L27.6457 7.43935L23.6043 1.58594H23.6047ZM19.1431 3.03447L23.4011 2.38662L26.1066 7.10126L17.9719 8.87223L19.1431 3.03447Z" fill="#C6923E"/>
    <path d="M5.43801 0.53125L0.078125 6.27843L16.5477 9.87405L18.3429 2.38535L5.43801 0.53125ZM15.8104 8.676L1.43161 5.97426L5.63594 1.19289L17.0885 2.97244L15.81 8.67638L15.8104 8.676Z" fill="#E5AC45"/>
    <path d="M11.676 0L5.4375 0.53118L18.3424 2.38565L23.605 1.58497L11.676 0ZM18.1072 1.86938L7.95846 0.53118L11.6689 0.215081L20.6136 1.40977L18.1068 1.86938H18.1072Z" fill="#FFCE55"/>
    <path d="M0.078125 6.38544L16.5477 9.87334L27.6465 7.57752V7.43737L16.6137 9.59899L0.078125 6.27734V6.38544Z" fill="#845F2A"/>
    <path d="M6.09412 7.69088L6.12581 8.19C6.12581 8.19 6.40575 8.55046 6.88959 8.61793C7.37343 8.68539 8.22779 8.70291 8.73138 8.50088C9.23498 8.29884 9.58313 8.18627 9.58313 8.18627L9.53878 7.4963L7.44015 7.99617L7.53893 7.64764L7.49532 7.10938L6.92314 7.21598L6.09375 7.69125L6.09412 7.69088Z" fill="#C9943F"/>
    <path d="M6.86119 6.99219C6.86119 6.99219 6.07616 7.4011 6.09405 7.69223C6.11791 8.0825 7.29545 8.23869 7.95076 8.12463C8.60607 8.01056 9.5387 7.49765 9.5387 7.49765L8.83009 7.36457C8.83009 7.36457 8.2348 7.68477 7.641 7.65495C7.04719 7.62513 6.87274 7.54238 6.99575 7.38955C7.11876 7.23672 7.49525 7.11072 7.49525 7.11072L6.86081 6.99256L6.86119 6.99219Z" fill="#FFCE55"/>
  </g>
  <defs>
    <clipPath id="clip0_2320_46754">
      <rect width="27.8446" height="24" fill="white" transform="translate(0.078125)"/>
    </clipPath>
  </defs>
</svg>
