<svg width="21" height="20" viewBox="0 0 21 20" fill="none" xmlns="http://www.w3.org/2000/svg">
  <path fill-rule="evenodd" clip-rule="evenodd" d="M5.5 9V7C5.5 5.67392 6.02678 4.40215 6.96447 3.46447C7.90215 2.52678 9.17392 2 10.5 2C11.8261 2 13.0979 2.52678 14.0355 3.46447C14.9732 4.40215 15.5 5.67392 15.5 7V9C16.0304 9 16.5391 9.21071 16.9142 9.58579C17.2893 9.96086 17.5 10.4696 17.5 11V16C17.5 16.5304 17.2893 17.0391 16.9142 17.4142C16.5391 17.7893 16.0304 18 15.5 18H5.5C4.96957 18 4.46086 17.7893 4.08579 17.4142C3.71071 17.0391 3.5 16.5304 3.5 16V11C3.5 10.4696 3.71071 9.96086 4.08579 9.58579C4.46086 9.21071 4.96957 9 5.5 9ZM13.5 7V9H7.5V7C7.5 6.20435 7.81607 5.44129 8.37868 4.87868C8.94129 4.31607 9.70435 4 10.5 4C11.2956 4 12.0587 4.31607 12.6213 4.87868C13.1839 5.44129 13.5 6.20435 13.5 7Z" fill="#161616" fill-opacity="0.86"/>
</svg>
