<svg width="115" height="24" viewBox="0 0 115 24" fill="none" xmlns="http://www.w3.org/2000/svg">
<g clip-path="url(#clip0_24255_4191)">
<path fill-rule="evenodd" clip-rule="evenodd" d="M11.9471 2.3837C6.00608 2.3837 1.18996 6.95467 1.18996 12.5933C1.18996 18.2319 6.00608 22.8028 11.9471 22.8028C12.2735 22.8028 12.5382 23.054 12.5382 23.3638C12.5382 23.6736 12.2735 23.9248 11.9471 23.9248C5.35318 23.9248 0.0078125 18.8515 0.0078125 12.5933C0.0078125 6.33502 5.35318 1.26172 11.9471 1.26172C13.3367 1.26172 14.6722 1.4873 15.9143 1.90246C16.2221 2.00539 16.3839 2.32572 16.2754 2.61795C16.1669 2.91019 15.8294 3.06365 15.5216 2.96073C14.404 2.58715 13.2012 2.3837 11.9471 2.3837ZM11.9454 5.97616C8.09351 5.97616 4.97098 8.93976 4.97098 12.5955C4.97098 16.2513 8.09351 19.2149 11.9454 19.2149C12.2718 19.2149 12.5364 19.4661 12.5364 19.7759C12.5364 20.0857 12.2718 20.3369 11.9454 20.3369C7.44062 20.3369 3.78883 16.871 3.78883 12.5955C3.78883 8.32011 7.44062 4.85418 11.9454 4.85418C13.4247 4.85418 14.8138 5.2285 16.0113 5.88316C16.294 6.03782 16.3913 6.38083 16.2283 6.64929C16.0654 6.91776 15.704 7.01004 15.4211 6.85538C14.3984 6.29621 13.2121 5.97616 11.9454 5.97616ZM16.3131 12.8325C16.3223 12.0528 15.918 11.2608 15.1009 10.8131L12.4652 9.36886C10.8488 8.48312 8.82824 9.5903 8.82824 11.3617V14.2503C8.82824 16.0218 10.8488 17.129 12.4652 16.2433C12.7478 16.0883 12.8447 15.7452 12.6816 15.4769C12.5183 15.2086 12.1568 15.1167 11.8741 15.2715C11.0458 15.7255 10.0104 15.1581 10.0104 14.2503V11.3617C10.0104 10.454 11.0458 9.88664 11.8741 10.3405L14.5099 11.7849C14.9291 12.0146 15.1358 12.414 15.1309 12.8198C15.1273 13.1296 15.3889 13.3837 15.7153 13.3872C16.0417 13.3907 16.3094 13.1423 16.3131 12.8325Z" fill="url(#paint0_linear_24255_4191)"/>
<path fill-rule="evenodd" clip-rule="evenodd" d="M15.7296 0.0878906C16.0561 0.0878906 16.3207 0.339054 16.3207 0.648882V12.8075V12.8083C16.3196 13.5784 15.9148 14.3561 15.1083 14.798L12.4727 16.2423C10.8562 17.1281 8.8357 16.0209 8.8357 14.2494C8.8357 13.9396 9.10034 13.6884 9.42677 13.6884C9.75322 13.6884 10.0179 13.9396 10.0179 14.2494C10.0179 15.1572 11.0532 15.7246 11.8815 15.2706L14.5172 13.8264C14.9313 13.5994 15.1379 13.2074 15.1386 12.8071V12.8068V0.648882C15.1386 0.339056 15.4031 0.0878906 15.7296 0.0878906ZM19.5124 0.678508C19.8388 0.678508 20.1035 0.929672 20.1035 1.2395V12.5956C20.1035 16.8711 16.4516 20.3369 11.947 20.3369C7.44227 20.3369 3.79047 16.8711 3.79047 12.5956C3.79047 12.2858 4.0551 12.0346 4.38155 12.0346C4.70798 12.0346 4.97262 12.2858 4.97262 12.5956C4.97262 16.2514 8.09515 19.215 11.947 19.215C15.7988 19.215 18.9214 16.2514 18.9214 12.5956V1.2395C18.9214 0.929672 19.186 0.678508 19.5124 0.678508ZM23.8863 1.82505C23.8863 1.51522 23.6216 1.26406 23.2952 1.26406C22.9688 1.26406 22.7041 1.51522 22.7041 1.82505V12.5956C22.7041 18.2342 17.888 22.8051 11.9471 22.8051C6.00608 22.8051 1.18996 18.2342 1.18996 12.5956C1.18996 12.2858 0.925331 12.0346 0.598888 12.0346C0.272446 12.0346 0.0078125 12.2858 0.0078125 12.5956C0.0078125 18.8539 5.35318 23.9271 11.9471 23.9271C18.5409 23.9271 23.8863 18.8539 23.8863 12.5956V1.82505Z" fill="url(#paint1_angular_24255_4191)"/>
</g>
<g clip-path="url(#clip1_24255_4191)">
<path d="M31.8477 18.023H36.6458C40.938 18.023 43.2434 15.7315 43.2434 11.9348C43.2434 8.10456 40.938 5.86328 36.6271 5.86328H31.8477V18.023ZM36.2897 7.01737C39.5698 7.01737 41.088 8.95759 41.088 11.9348C41.088 14.912 39.5885 16.869 36.3086 16.869H33.9094V7.01737H36.2897Z" fill="black"/>
<path d="M45.8477 18.023H47.2534L48.6967 14.5774H54.8443L56.2501 18.023H58.4992L53.4574 5.86328H50.9082L45.8477 18.023ZM49.1652 13.4569L51.8079 7.13446L54.3945 13.4569H49.1652Z" fill="black"/>
<path d="M71.3922 5.86328H69.9866L65.507 16.7351L61.0837 5.86328H58.8906L63.8764 18.023H66.4254L71.3922 5.86328Z" fill="black"/>
<path d="M74.9766 18.023H77.0381V5.86328H74.9766V18.023Z" fill="black"/>
<path d="M93.5753 5.86328H91.5136L91.5886 16.4007L84.3911 5.86328H81.8984V18.023H83.9602L83.8852 7.48569L91.0825 18.023H93.5753V5.86328Z" fill="black"/>
<path d="M108.892 14.1419V13.8743H106.737C106.737 15.7142 105.519 17.0355 103.363 17.0189C100.496 17.0189 99.4085 14.4263 99.4085 11.9341C99.4085 9.50882 100.458 6.86612 103.363 6.86612C105.481 6.86612 106.7 8.2042 106.7 10.0105H108.855V9.72624C108.855 7.31773 106.456 5.69531 103.363 5.69531C99.2961 5.69531 97.2344 8.48855 97.2344 11.9341C97.2344 15.4967 99.2774 18.1896 103.382 18.1896C106.475 18.2063 108.892 16.5504 108.892 14.1419Z" fill="black"/>
<path d="M112.754 18.023H114.816V5.86328H112.754V18.023Z" fill="black"/>
</g>
<defs>
<linearGradient id="paint0_linear_24255_4191" x1="-4.16821" y1="5.5641" x2="15.9884" y2="4.1515" gradientUnits="userSpaceOnUse">
<stop stop-color="#FD9988"/>
<stop offset="0.105262" stop-color="#D38CB7"/>
<stop offset="0.16694" stop-color="#9B79D2"/>
<stop offset="0.38572" stop-color="#9979D3"/>
<stop offset="0.652275" stop-color="#AD80CA"/>
<stop offset="0.824115" stop-color="#6B639F"/>
<stop offset="1" stop-color="#36188B"/>
</linearGradient>
<radialGradient id="paint1_angular_24255_4191" cx="0" cy="0" r="1" gradientUnits="userSpaceOnUse" gradientTransform="translate(11.0616 12.6247) rotate(-75.7552) scale(16.1671 16.3904)">
<stop offset="0.00210938" stop-color="#F4E3AF"/>
<stop offset="0.162542" stop-color="#FD9988"/>
<stop offset="0.460803" stop-color="#D38CB7"/>
<stop offset="0.843132" stop-color="#7F70DE"/>
</radialGradient>
<clipPath id="clip0_24255_4191">
<rect width="24" height="24" fill="white"/>
</clipPath>
<clipPath id="clip1_24255_4191">
<rect width="83" height="13" fill="white" transform="translate(32 5.5)"/>
</clipPath>
</defs>
</svg>
