<svg width="738" height="298" viewBox="0 0 738 298" fill="none" xmlns="http://www.w3.org/2000/svg">
<path d="M541.515 2.93512C543.914 2.26636 546.164 2.09917 548.563 2.09917C550.813 2.09917 553.212 2.26636 555.462 2.60074C557.711 2.93512 560.11 3.60388 562.36 4.77421C564.609 5.94454 566.859 7.61645 568.208 10.4587L565.659 9.78992L568.358 7.44925C569.408 6.78049 570.308 5.94454 571.208 5.27578C573.157 3.93826 575.257 2.76793 577.506 1.93197C579.756 1.09602 582.005 0.427264 584.255 0.0928838C586.654 -0.0743065 588.904 -0.0743077 591.303 0.594453C591.753 0.761644 591.903 1.26321 591.753 1.59759C591.603 2.09916 591.303 2.26636 590.853 2.09917H590.703C588.754 1.5976 586.504 1.76479 584.405 2.09917C582.305 2.43355 580.206 3.2695 578.256 4.27264C576.307 5.27578 574.507 6.44611 572.707 7.78363C571.808 8.45239 570.908 9.28834 570.158 9.95711L567.759 12.2978C567.009 12.9665 566.109 12.7993 565.509 12.1306L565.359 12.2978L565.209 11.9634C564.609 10.1243 562.96 8.61959 561.16 7.61645C559.361 6.6133 557.261 5.77735 555.012 5.27578C552.912 4.77421 550.663 4.43983 548.413 4.27264C546.164 4.10545 543.914 4.10545 541.965 4.60702H541.815C541.365 4.77421 541.065 4.43983 540.915 3.93826C540.915 3.43669 541.065 2.93512 541.515 2.93512Z" fill="#AAB2C5"/>
<path d="M487.926 47.8592C489.726 47.3911 491.413 47.2741 493.213 47.2741C494.9 47.2741 496.699 47.3911 498.386 47.6252C500.074 47.8592 501.873 48.3274 503.56 49.1466C505.247 49.9658 506.934 51.1362 507.947 53.1257L506.035 52.6576L508.059 51.0191C508.846 50.551 509.521 49.9658 510.196 49.4977C511.658 48.5614 513.233 47.7422 514.92 47.157C516.607 46.5719 518.294 46.1037 519.981 45.8697C521.781 45.7526 523.468 45.7526 525.267 46.2208C525.605 46.3378 525.717 46.6889 525.605 46.923C525.492 47.2741 525.267 47.3911 524.93 47.2741H524.818C523.355 46.923 521.668 47.04 520.094 47.2741C518.519 47.5081 516.944 48.0933 515.482 48.7955C514.02 49.4977 512.671 50.3169 511.321 51.2532C510.646 51.7213 509.971 52.3065 509.409 52.7746L507.609 54.4131C507.047 54.8812 506.372 54.7642 505.922 54.2961L505.81 54.179L505.697 53.945C505.247 52.6576 504.01 51.6043 502.66 50.9021C501.311 50.1999 499.736 49.6147 498.049 49.2636C496.474 48.9125 494.787 48.6785 493.1 48.5614C491.413 48.4444 489.726 48.4444 488.264 48.7955H488.151C487.814 48.9125 487.589 48.6785 487.477 48.3274C487.477 48.2103 487.702 47.8592 487.926 47.8592Z" fill="#AAB2C5"/>
<path d="M169.99 2.93512C172.389 2.26636 174.638 2.09917 177.038 2.09917C179.287 2.09917 181.687 2.26635 183.936 2.60074C186.186 2.93512 188.585 3.60388 190.834 4.77421C193.084 5.94454 195.333 7.61645 196.683 10.4587L194.134 9.78992L196.833 7.44925C197.883 6.78049 198.783 5.94454 199.682 5.27578C201.632 3.93826 203.731 2.76793 205.981 1.93198C208.23 1.09603 210.48 0.427263 212.729 0.0928821C215.129 -0.0743081 217.378 -0.074303 219.778 0.594458C220.227 0.761648 220.377 1.26322 220.227 1.5976C220.077 2.09917 219.778 2.26636 219.328 2.09917H219.178C217.228 1.5976 214.979 1.76479 212.879 2.09917C210.78 2.43355 208.68 3.2695 206.731 4.27264C204.781 5.27578 202.982 6.44611 201.182 7.78364C200.282 8.4524 199.382 9.28835 198.633 9.95711L196.233 12.2978C195.483 12.9665 194.584 12.7993 193.984 12.1306L193.834 11.9634L193.684 11.629C193.084 9.78992 191.434 8.28521 189.635 7.28207C187.835 6.27892 185.736 5.44297 183.486 4.9414C181.387 4.43983 179.137 4.10545 176.888 3.93826C174.638 3.77107 172.389 3.77107 170.439 4.27264H170.289C169.84 4.43983 169.54 4.10545 169.39 3.60388C169.39 3.43669 169.69 2.93512 169.99 2.93512Z" fill="#AAB2C5"/>
<path d="M556.783 42.0842C559.183 41.4823 561.432 41.3318 563.832 41.3318C566.081 41.3318 568.481 41.4823 570.73 41.7832C572.98 42.0842 575.379 42.6861 577.628 43.7394C579.878 44.7927 582.127 46.2974 583.477 48.8554L580.928 48.2535L583.627 46.1469C584.677 45.545 585.577 44.7927 586.476 44.1908C588.426 42.987 590.525 41.9337 592.775 41.1813C595.024 40.429 597.274 39.8271 599.523 39.5262C601.923 39.3757 604.172 39.3757 606.572 39.9776C607.021 40.128 607.171 40.5795 607.021 40.8804C606.871 41.3318 606.571 41.4823 606.122 41.3318H605.972C604.022 40.8804 601.773 41.0309 599.673 41.3318C597.574 41.6328 595.474 42.3851 593.525 43.2879C591.575 44.1908 589.776 45.2441 587.976 46.4478C587.076 47.0497 586.176 47.8021 585.427 48.404L583.027 50.5106C582.277 51.1124 581.378 50.962 580.778 50.3601L580.628 50.2096L580.478 49.9087C579.878 48.2535 578.228 46.8993 576.429 45.9964C574.629 45.0936 572.53 44.3412 570.28 43.8898C568.181 43.4384 565.931 43.1375 563.682 42.987C561.432 42.8365 559.183 42.8365 557.233 43.2879H557.083C556.633 43.4384 556.334 43.1375 556.184 42.6861C556.184 42.5356 556.334 42.0842 556.783 42.0842Z" fill="#AAB2C5"/>
<path d="M415.248 74.0604L516.993 153.236H539.57" stroke="#D6DDE8" stroke-width="6" stroke-miterlimit="10"/>
<path d="M413.62 229.631L516.994 153.236" stroke="#D6DDE8" stroke-width="6" stroke-miterlimit="10"/>
<path d="M548.871 138.593L548.319 136.098C548.319 136.098 550.442 132.24 551.507 130.243C552.709 128.252 553.823 127.901 558.912 127.487C564.009 126.937 567.883 126.185 566.156 130.339C564.291 134.485 559.081 144.889 559.081 144.889L548.871 138.593Z" fill="url(#paint0_linear_10808_86255)"/>
<path d="M656.138 143.077L691.657 93.3404C692.398 92.2843 693.534 91.5231 694.785 91.1789C697.142 90.6199 701.168 89.6019 705.036 88.9863C710.837 88.0629 717.457 87.1832 714.801 93.3413C712.137 99.6359 695.103 141.73 695.103 141.73L656.138 143.077Z" fill="url(#paint1_linear_10808_86255)"/>
<path d="M546.726 132.59C547.136 132.612 565.173 148.775 565.173 148.775L625.901 139.96L660.221 140.967C660.221 140.967 689.167 140.045 698.043 140.518C706.92 140.991 718.728 142.99 719.758 149.344C720.789 155.699 723.311 157.203 719.486 159.601C715.797 162.006 701.149 172.182 680.952 170.831C660.756 169.481 636.84 173.684 636.84 173.684C636.84 173.684 636.705 171.075 630.15 170.726C623.595 170.376 542.605 158.528 542.605 158.528C542.605 158.528 529.207 158.088 530.733 144.885C532.394 131.689 536.886 132.203 539.761 132.219C542.78 132.106 546.726 132.59 546.726 132.59Z" fill="url(#paint2_linear_10808_86255)"/>
<path d="M544.086 146.144L556.923 146.828C556.923 146.828 549.347 157.928 546.614 160.385C543.881 162.841 538.596 166.942 533.435 166.119C528.275 165.296 529.657 162.494 531.197 159.289C532.738 156.084 534.495 151.385 534.495 151.385L544.086 146.144Z" fill="url(#paint3_linear_10808_86255)"/>
<path d="M681.94 167.734C671.556 164.715 664.62 163.798 652.413 166.708C640.207 169.618 635.425 171.965 635.425 171.965L610.844 214.342C609.333 217 611.214 220.25 614.218 220.41C620.234 220.594 629.04 219.831 634.096 214.896C642.195 206.837 681.94 167.734 681.94 167.734Z" fill="url(#paint4_linear_10808_86255)"/>
<path opacity="0.4" d="M734.656 152.466C734.613 153.285 734.569 154.105 734.533 154.788C733.02 170.319 724.718 182.202 715.295 181.7C708.33 181.329 702.549 174.173 700.212 164.051C699.331 160.033 698.874 155.763 699.121 151.12C699.129 150.983 699.143 150.71 699.15 150.574C699.689 140.468 703.03 131.745 707.827 126.522C710.884 123.125 714.688 121.136 718.648 121.347C718.921 121.362 719.058 121.369 719.331 121.384C727.769 122.381 734.173 133.267 734.947 147.004C734.716 148.772 734.758 150.554 734.656 152.466Z" fill="#D6DDE8"/>
<path fill-rule="evenodd" clip-rule="evenodd" d="M678.683 149.49C679.441 145.867 681.525 141.555 685.38 139.804L686.053 141.287C682.894 142.722 680.99 146.409 680.276 149.829L680.273 149.842C678.891 155.969 680.257 162.424 683.042 168.076C683.516 169.017 684.109 169.942 684.692 170.591L684.692 170.759C684.111 170.979 683.382 170.907 682.858 170.907C682.384 170.26 681.947 169.524 681.585 168.804L681.582 168.799C678.684 162.92 677.199 156.08 678.683 149.49Z" fill="#8C96A6"/>
<path d="M624.521 140.16L623.612 144.357L634.051 151.487L654.213 150.918C655.996 150.876 657.441 149.446 657.529 147.808L657.638 145.759L660.221 140.967L657.06 138.607C655.875 137.722 654.531 137.24 653.029 137.16L635.635 137.191C634.952 137.155 634.262 137.255 633.701 137.499L624.521 140.16Z" fill="#69768C"/>
<path fill-rule="evenodd" clip-rule="evenodd" d="M650.262 140.702L658.035 145.048L657.241 146.47L649.854 142.34L633.848 142.696L623.806 145.148L623.419 143.566L633.635 141.071L650.262 140.702Z" fill="#AAB2C5"/>
<path fill-rule="evenodd" clip-rule="evenodd" d="M651.099 137.245L650.102 145.833L651.039 150.83L649.438 151.13L648.455 145.89L649.482 137.057L651.099 137.245Z" fill="#AAB2C5"/>
<path d="M634.052 151.487L633.165 145.003L633.534 140.64L633.982 137.377" fill="white"/>
<path fill-rule="evenodd" clip-rule="evenodd" d="M634.343 140.73L634.788 137.488L633.175 137.266L632.724 140.55L632.345 145.024L633.244 151.597L634.858 151.376L633.983 144.981L634.343 140.73Z" fill="#AAB2C5"/>
<path opacity="0.6" d="M719.066 121.233L717.844 144.175L715.795 144.066L714.313 146.178L707.692 126.515C710.749 123.118 714.553 121.129 718.513 121.34C718.657 121.211 718.93 121.225 719.066 121.233Z" fill="white"/>
<path opacity="0.6" d="M734.657 152.466C734.614 153.286 734.57 154.105 734.533 154.788L725.779 154.595L725.888 152.547L723.776 151.065L734.812 146.996C734.717 148.772 734.759 150.554 734.657 152.466Z" fill="white"/>
<path opacity="0.6" d="M714.508 155.364L700.077 164.044C699.195 160.026 698.738 155.756 698.985 151.113L712.641 151.841L712.532 153.889L714.508 155.364Z" fill="white"/>
<path opacity="0.3" d="M633.316 175.551C637.442 175.223 642.258 174.795 642.258 174.795L621.377 209.425L613.571 209.42" fill="#69768C"/>
<path opacity="0.3" d="M664.728 130.935L672.375 131.343L694.888 96.936L689.289 96.6376" fill="#69768C"/>
<path d="M681.746 155.946C682.274 155.974 682.724 155.569 682.753 155.041C682.781 154.513 682.375 154.062 681.848 154.034C681.32 154.006 680.869 154.411 680.841 154.939C680.813 155.467 681.218 155.918 681.746 155.946Z" fill="#69768C"/>
<path d="M682.404 161.596C682.932 161.624 683.383 161.219 683.411 160.691C683.439 160.163 683.034 159.712 682.506 159.684C681.978 159.656 681.527 160.061 681.499 160.589C681.471 161.117 681.876 161.568 682.404 161.596Z" fill="#69768C"/>
<path d="M684.304 167.038C684.832 167.066 685.283 166.661 685.311 166.133C685.339 165.605 684.934 165.154 684.406 165.126C683.878 165.098 683.427 165.503 683.399 166.031C683.371 166.559 683.776 167.01 684.304 167.038Z" fill="#69768C"/>
<path d="M682.605 150.103C683.133 150.131 683.584 149.726 683.612 149.198C683.64 148.67 683.235 148.219 682.707 148.191C682.179 148.163 681.728 148.568 681.7 149.096C681.672 149.624 682.077 150.074 682.605 150.103Z" fill="#69768C"/>
<path d="M685.483 144.915C686.011 144.943 686.462 144.538 686.49 144.01C686.518 143.482 686.113 143.031 685.585 143.003C685.057 142.975 684.606 143.38 684.578 143.908C684.55 144.436 684.955 144.887 685.483 144.915Z" fill="#69768C"/>
<path opacity="0.6" d="M715.022 181.685L715.562 158.706L717.611 158.816L719.093 156.703L726.267 176.259C723.203 179.793 719.536 181.789 715.705 181.722C715.432 181.707 715.295 181.7 715.022 181.685Z" fill="white"/>
<path d="M715.794 144.066C714.356 145.358 708.981 153.7 715.516 162.128C722.541 158.805 727.466 156.328 727.267 152.346C727.213 148.235 715.794 144.066 715.794 144.066Z" fill="#69768C"/>
<g filter="url(#filter0_d_10808_86255)">
<path d="M408.526 264.649H106.681C101.282 264.649 96.8652 260.231 96.8652 254.832V51.8033C96.8652 46.4044 101.282 41.9872 106.681 41.9872H408.526C413.924 41.9872 418.342 46.4044 418.342 51.8033V254.669C418.505 260.231 414.088 264.649 408.526 264.649Z" fill="url(#paint5_linear_10808_86255)"/>
</g>
<path d="M264.066 126.625C264.673 128.306 265.262 129.94 265.262 129.94L252.965 129.54L245.409 126.39L244.855 126.16C245.128 125.882 245.379 125.621 245.604 125.383C247.597 123.268 247.838 122.676 247.838 122.676C247.704 121.909 247.603 121.191 247.524 120.497C247.489 120.472 247.448 120.452 247.415 120.422C247.415 120.422 247.496 119.898 246.492 116.419C246.333 115.86 246.143 115.227 245.923 114.503C245.748 113.939 245.682 113.431 245.682 112.978C245.682 111.708 246.201 110.825 246.426 110.2C246.515 109.944 246.646 109.671 246.436 109.757C245.495 110.43 241.301 106.685 240.803 104.846C241.056 104.588 241.311 104.332 241.564 104.084C241.549 104.074 241.544 104.069 241.544 104.069C241.544 104.069 245.078 100.216 246.669 99.7323C247.517 99.4742 249.191 99.4186 250.393 99.4186C251.19 99.4186 251.784 99.4439 251.784 99.4439C251.898 99.4388 252.019 99.4287 252.133 99.4236C252.895 99.373 253.514 98.786 253.598 98.0219C253.659 97.483 253.712 96.8403 253.767 96.0787C253.777 95.9193 253.788 95.7498 253.798 95.5803C254.357 94.8971 259.464 96.7568 259.464 96.7568C259.464 96.7568 259.52 96.8074 259.555 96.9162C259.555 97.0554 259.56 97.1945 259.565 97.3388C259.57 97.698 259.591 98.0725 259.631 98.4394C259.636 98.4697 259.636 98.495 259.641 98.5254C259.702 99.0593 260.2 99.373 260.729 99.4767C260.899 99.5122 261.068 99.5476 261.243 99.5805C261.243 99.5754 261.243 99.5754 261.243 99.5704C261.243 99.5704 266.717 100.145 267.739 101.347C268.505 102.245 268.996 103.5 269.3 104.532C269.34 104.671 269.381 104.81 269.413 104.942C269.429 107.227 267.848 110.551 265.237 114.01C265.181 114.086 265.201 114.19 265.196 114.278C265.151 114.508 265.083 114.767 264.981 115.07C264.144 117.707 262.844 121.601 262.717 121.621C262.687 122.438 262.707 122.987 262.778 123.152C262.935 123.513 263.514 125.085 264.066 126.625Z" fill="#E3E7EF"/>
<path d="M254.855 162.245C253.289 167.28 254.091 169.864 254.091 169.864C256.33 179.984 254.614 198.26 254.614 198.26H251.101C245.796 184.303 245.637 175.546 245.336 172.26C245.035 168.973 237.142 147.603 237.119 143.026C237.096 138.252 241.852 130.593 241.852 130.593C241.852 130.593 248.687 133.229 252.904 135.835C254.313 136.706 255.389 137.556 255.758 138.277C256.732 140.195 257.455 153.883 254.855 162.245Z" fill="#E3E7EF"/>
<path d="M274.944 197.744H271C271 197.744 255.617 175.501 255.089 169.846C254.428 162.774 249.485 134.859 249.485 134.859L265.265 129.945C265.265 129.945 266.644 133.492 267.8 137.07C268.304 138.629 268.764 140.195 269.05 141.475C269.682 144.299 267.904 154.969 266.69 162.554C266.09 166.291 265.627 169.279 265.658 170.213C265.749 173.036 270.937 173.403 274.944 197.744Z" fill="#E3E7EF"/>
<path d="M269.05 141.473C269.05 141.473 264.327 141.627 259.619 142.917C256.485 143.775 253.356 145.136 251.631 147.287C251.631 147.287 247.143 142.434 241.795 141.227C240.336 140.898 238.81 140.84 237.295 141.227C237.295 141.227 237.429 136.268 243.778 127.592C244.198 127.018 244.649 126.426 245.127 125.816C245.127 125.816 251.223 129.33 261.218 127.149C262.131 126.949 263.077 126.704 264.054 126.403C264.054 126.403 266.346 131.931 267.082 134.153C267.593 135.701 269.05 141.473 269.05 141.473Z" fill="#E3E7EF"/>
<path d="M251.102 198.26C251.102 198.26 250.902 200.552 250.609 201.023C250.316 201.493 249.076 203.085 247.662 203.616C246.248 204.147 242.2 203.872 241.887 205.342H256.149C256.149 205.342 256.346 203.138 255.795 201.686C255.246 200.236 254.616 198.257 254.616 198.257H251.102V198.26Z" fill="#E3E7EF"/>
<path d="M274.944 197.744C274.944 197.744 276.538 199.925 276.933 200.787C277.325 201.653 279.918 205.311 279.604 205.344C279.29 205.374 272.374 205.344 272.374 205.344C272.374 205.344 271.666 203.619 271.744 202.439C271.823 201.26 270.801 199.024 270.998 197.744C271.195 196.463 274.944 197.744 274.944 197.744Z" fill="#E3E7EF"/>
<path d="M245.605 125.383C245.534 125.743 245.471 126.082 245.41 126.39L244.856 126.16C245.13 125.882 245.38 125.624 245.605 125.383Z" fill="#E3E7EF"/>
<path d="M259.566 97.3387C259.566 97.359 259.556 97.3843 259.551 97.4096C259.422 97.8777 257.497 97.9637 256.32 97.7132C255.354 97.5032 254.013 96.7897 253.768 96.0787C253.707 95.9295 253.702 95.7802 253.763 95.636C253.773 95.6157 253.783 95.5955 253.798 95.5803C254.357 94.8971 259.465 96.7568 259.465 96.7568C259.465 96.7568 259.52 96.8074 259.556 96.9162C259.591 97.0098 259.606 97.149 259.566 97.3387Z" fill="#B8C0C7"/>
<path d="M254.823 114.455C254.823 114.455 256.381 116.075 258.873 116.014C261.365 115.951 262.923 113.582 262.673 112.836C262.422 112.087 259.87 113.709 258.312 113.458C256.756 113.208 254.138 113.147 254.823 114.455Z" fill="#D4D5D9"/>
<path d="M245.736 113.312C245.736 113.312 246.369 114.898 248.101 115.483C249.832 116.067 251.544 114.716 251.575 114.104C251.605 113.491 249.409 114.038 248.407 113.461C247.401 112.882 245.617 112.176 245.736 113.312Z" fill="#D4D5D9"/>
<path d="M269.093 148.109C269.607 158.847 264.861 171.761 260.12 181.793C260.12 181.793 260.115 181.798 260.115 181.803C258.57 185.07 257.024 188.03 255.663 190.512C253.047 195.269 251.102 198.26 251.102 198.26L246.038 183.881C244.791 182.385 243.172 171.792 243.172 171.792C241.677 169.547 238.851 153.595 238.851 153.595C236.693 151.35 237.131 146.864 237.131 146.864C236.195 145.493 236.817 143.499 236.817 143.499C236.443 141.819 237.295 141.23 237.295 141.23C247.862 140.331 265.263 129.943 265.263 129.943C270.907 136.202 269.093 148.109 269.093 148.109Z" fill="#D6DDE8"/>
<path d="M260.243 181.262C260.243 181.262 260.198 181.457 260.12 181.791C260.12 181.791 260.114 181.796 260.114 181.801C258.569 185.067 257.023 188.028 255.662 190.51C255.652 190.424 255.642 190.33 255.632 190.237C254.883 182.881 252.89 171.789 254.091 169.861C255.288 167.936 260.243 181.262 260.243 181.262Z" fill="#B8C0C7"/>
<path d="M266.681 131.324C266.681 131.324 252.558 141.794 246.909 144.952C241.261 148.109 249.401 148.109 254.552 143.289C259.702 138.469 266.681 131.324 266.681 131.324Z" fill="#B8C0C7"/>
<path d="M267.014 133.318C267.014 133.318 259.496 147.611 251.021 152.347C242.547 157.084 241.55 158.954 244.292 158.579C247.034 158.205 257.502 151.35 259.87 147.611C262.238 143.871 267.014 133.318 267.014 133.318Z" fill="#B8C0C7"/>
<path d="M266.681 141.295C266.681 141.295 264.521 155.09 262.196 159.907C259.869 164.727 261.531 169.879 262.528 169.547C262.528 169.547 264.106 168.426 264.106 166.805C264.106 165.185 267.886 150.31 266.681 141.295Z" fill="#B8C0C7"/>
<path d="M243.171 171.792C243.171 171.792 247.325 175.281 247.74 173.454C248.154 171.625 243.753 172.621 243.171 171.792Z" fill="#B8C0C7"/>
<path d="M238.85 153.592C238.85 153.592 240.926 153.966 242.298 153.344C243.669 152.722 244.104 151.163 243.17 151.474C242.237 151.785 240.947 153.531 238.85 153.592Z" fill="#B8C0C7"/>
<path d="M237.128 146.862C237.128 146.862 239.432 148.544 240.429 148.17C241.426 147.798 237.128 146.862 237.128 146.862Z" fill="#B8C0C7"/>
<path d="M284.838 205.443H238.231V211.176H284.838V205.443Z" fill="#AAB4C5"/>
<path d="M291.068 211.135H232V264.649H291.068V211.135Z" fill="#E3E7EF"/>
<path d="M272.308 220.184H250.758V226.727H272.308V220.184Z" fill="#B8C0C7"/>
<path d="M274.266 228.485H248.805V218.422H274.266V228.485ZM249.361 227.926H273.704V218.982H249.361V227.926Z" fill="#B8C0C7"/>
<g filter="url(#filter1_d_10808_86255)">
<path d="M588.77 210.888C588.77 218.982 582.225 225.528 574.061 225.528C573.92 225.528 572.723 225.528 563.925 225.528C557.802 225.528 548.019 225.528 532.394 225.528H524.934C515.15 225.739 507.338 217.926 507.338 208.495C507.338 198.994 515.221 191.111 525.145 191.603C533.661 164.999 572.653 168.729 575.961 196.249C583.281 197.164 588.77 203.357 588.77 210.888Z" fill="url(#paint6_linear_10808_86255)"/>
</g>
<path d="M574.061 225.528C582.155 225.528 588.77 218.983 588.77 210.889C588.77 202.795 582.155 196.249 574.061 196.249C565.967 196.249 559.351 202.795 559.351 210.889C559.351 218.983 565.967 225.528 574.061 225.528Z" fill="url(#paint7_linear_10808_86255)"/>
<path d="M550.06 225.669C564.489 225.669 576.243 213.986 576.243 199.557C576.243 185.129 564.489 173.445 550.06 173.445C535.632 173.445 523.878 185.129 523.878 199.557C523.878 213.986 535.561 225.669 550.06 225.669Z" fill="url(#paint8_linear_10808_86255)"/>
<g filter="url(#filter2_d_10808_86255)">
<path d="M692.783 254.172C692.783 259.978 688.088 264.673 682.232 264.673C682.131 264.673 681.273 264.673 674.962 264.673C670.57 264.673 663.553 264.673 652.345 264.673H646.994C639.977 264.824 634.373 259.221 634.373 252.456C634.373 245.641 640.027 239.986 647.145 240.34C653.254 221.257 681.222 223.932 683.595 243.672C688.845 244.328 692.783 248.771 692.783 254.172Z" fill="url(#paint9_linear_10808_86255)"/>
</g>
<path d="M682.232 264.673C688.037 264.673 692.783 259.978 692.783 254.173C692.783 248.367 688.037 243.672 682.232 243.672C676.426 243.672 671.681 248.367 671.681 254.173C671.681 259.978 676.426 264.673 682.232 264.673Z" fill="url(#paint10_linear_10808_86255)"/>
<path d="M665.018 264.774C675.367 264.774 683.798 256.394 683.798 246.045C683.798 235.695 675.367 227.315 665.018 227.315C654.669 227.315 646.238 235.695 646.238 246.045C646.238 256.394 654.619 264.774 665.018 264.774Z" fill="url(#paint11_linear_10808_86255)"/>
<path d="M418.394 68.9966H96.918V52.086C96.918 46.3452 101.335 41.6483 106.734 41.6483H408.578C413.977 41.6483 418.394 46.3452 418.394 52.086V68.9966Z" fill="url(#paint12_linear_10808_86255)"/>
<path d="M112.415 60.3252C115.036 60.3252 117.16 58.201 117.16 55.5807C117.16 52.9605 115.036 50.8363 112.415 50.8363C109.795 50.8363 107.671 52.9605 107.671 55.5807C107.671 58.201 109.795 60.3252 112.415 60.3252Z" fill="#A1ACBD"/>
<path d="M126.812 60.3252C129.432 60.3252 131.556 58.201 131.556 55.5807C131.556 52.9605 129.432 50.8363 126.812 50.8363C124.192 50.8363 122.067 52.9605 122.067 55.5807C122.067 58.201 124.192 60.3252 126.812 60.3252Z" fill="#A1ACBD"/>
<path d="M141.208 60.3252C143.829 60.3252 145.953 58.201 145.953 55.5807C145.953 52.9605 143.829 50.8363 141.208 50.8363C138.588 50.8363 136.464 52.9605 136.464 55.5807C136.464 58.201 138.588 60.3252 141.208 60.3252Z" fill="#A1ACBD"/>
<g filter="url(#filter3_d_10808_86255)">
<path d="M112 115.892C112 124.837 104.766 132.071 95.7424 132.071C95.5869 132.071 94.2645 132.071 84.541 132.071C77.7735 132.071 66.9611 132.071 49.6923 132.071H41.4468C30.6344 132.305 22 123.67 22 113.247C22 102.746 30.7122 94.0334 41.6802 94.5779C51.0925 65.1743 94.1867 69.297 97.8427 99.7119C105.933 100.723 112 107.568 112 115.892Z" fill="url(#paint13_linear_10808_86255)"/>
</g>
<path d="M95.7419 132.071C104.687 132.071 111.999 124.837 111.999 115.892C111.999 106.946 104.687 99.7118 95.7419 99.7118C86.7964 99.7118 79.4844 106.946 79.4844 115.892C79.4844 124.837 86.7964 132.071 95.7419 132.071Z" fill="url(#paint14_linear_10808_86255)"/>
<path d="M69.2172 132.227C85.1636 132.227 98.1541 119.314 98.1541 103.368C98.1541 87.4215 85.1636 74.5088 69.2172 74.5088C53.2708 74.5088 40.2803 87.4215 40.2803 103.368C40.2803 119.314 53.193 132.227 69.2172 132.227Z" fill="url(#paint15_linear_10808_86255)"/>
<defs>
<filter id="filter0_d_10808_86255" x="74.8652" y="30.9872" width="365.48" height="266.661" filterUnits="userSpaceOnUse" color-interpolation-filters="sRGB">
<feFlood flood-opacity="0" result="BackgroundImageFix"/>
<feColorMatrix in="SourceAlpha" type="matrix" values="0 0 0 0 0 0 0 0 0 0 0 0 0 0 0 0 0 0 127 0" result="hardAlpha"/>
<feOffset dy="11"/>
<feGaussianBlur stdDeviation="11"/>
<feColorMatrix type="matrix" values="0 0 0 0 0.397708 0 0 0 0 0.47749 0 0 0 0 0.575 0 0 0 0.27 0"/>
<feBlend mode="normal" in2="BackgroundImageFix" result="effect1_dropShadow_10808_86255"/>
<feBlend mode="normal" in="SourceGraphic" in2="effect1_dropShadow_10808_86255" result="shape"/>
</filter>
<filter id="filter1_d_10808_86255" x="485.338" y="162.508" width="125.433" height="96.0236" filterUnits="userSpaceOnUse" color-interpolation-filters="sRGB">
<feFlood flood-opacity="0" result="BackgroundImageFix"/>
<feColorMatrix in="SourceAlpha" type="matrix" values="0 0 0 0 0 0 0 0 0 0 0 0 0 0 0 0 0 0 127 0" result="hardAlpha"/>
<feOffset dy="11"/>
<feGaussianBlur stdDeviation="11"/>
<feColorMatrix type="matrix" values="0 0 0 0 0.397708 0 0 0 0 0.47749 0 0 0 0 0.575 0 0 0 0.27 0"/>
<feBlend mode="normal" in2="BackgroundImageFix" result="effect1_dropShadow_10808_86255"/>
<feBlend mode="normal" in="SourceGraphic" in2="effect1_dropShadow_10808_86255" result="shape"/>
</filter>
<filter id="filter2_d_10808_86255" x="612.373" y="216.361" width="102.41" height="81.3154" filterUnits="userSpaceOnUse" color-interpolation-filters="sRGB">
<feFlood flood-opacity="0" result="BackgroundImageFix"/>
<feColorMatrix in="SourceAlpha" type="matrix" values="0 0 0 0 0 0 0 0 0 0 0 0 0 0 0 0 0 0 127 0" result="hardAlpha"/>
<feOffset dy="11"/>
<feGaussianBlur stdDeviation="11"/>
<feColorMatrix type="matrix" values="0 0 0 0 0.397708 0 0 0 0 0.47749 0 0 0 0 0.575 0 0 0 0.27 0"/>
<feBlend mode="normal" in2="BackgroundImageFix" result="effect1_dropShadow_10808_86255"/>
<feBlend mode="normal" in="SourceGraphic" in2="effect1_dropShadow_10808_86255" result="shape"/>
</filter>
<filter id="filter3_d_10808_86255" x="0" y="63.5791" width="134" height="101.497" filterUnits="userSpaceOnUse" color-interpolation-filters="sRGB">
<feFlood flood-opacity="0" result="BackgroundImageFix"/>
<feColorMatrix in="SourceAlpha" type="matrix" values="0 0 0 0 0 0 0 0 0 0 0 0 0 0 0 0 0 0 127 0" result="hardAlpha"/>
<feOffset dy="11"/>
<feGaussianBlur stdDeviation="11"/>
<feColorMatrix type="matrix" values="0 0 0 0 0.397708 0 0 0 0 0.47749 0 0 0 0 0.575 0 0 0 0.27 0"/>
<feBlend mode="normal" in2="BackgroundImageFix" result="effect1_dropShadow_10808_86255"/>
<feBlend mode="normal" in="SourceGraphic" in2="effect1_dropShadow_10808_86255" result="shape"/>
</filter>
<linearGradient id="paint0_linear_10808_86255" x1="554.94" y1="130.477" x2="565.728" y2="133.512" gradientUnits="userSpaceOnUse">
<stop stop-color="#B0BACC"/>
<stop offset="1" stop-color="#969EAE"/>
</linearGradient>
<linearGradient id="paint1_linear_10808_86255" x1="678.48" y1="99.0447" x2="712.627" y2="108.595" gradientUnits="userSpaceOnUse">
<stop stop-color="#B0BACC"/>
<stop offset="1" stop-color="#969EAE"/>
</linearGradient>
<linearGradient id="paint2_linear_10808_86255" x1="598.562" y1="143.09" x2="645.862" y2="206.276" gradientUnits="userSpaceOnUse">
<stop stop-color="#B0BACC"/>
<stop offset="1" stop-color="#969EAE"/>
</linearGradient>
<linearGradient id="paint3_linear_10808_86255" x1="539.773" y1="150.365" x2="555.08" y2="155.709" gradientUnits="userSpaceOnUse">
<stop stop-color="#B0BACC"/>
<stop offset="1" stop-color="#969EAE"/>
</linearGradient>
<linearGradient id="paint4_linear_10808_86255" x1="636.895" y1="175.943" x2="677.627" y2="189.3" gradientUnits="userSpaceOnUse">
<stop stop-color="#B0BACC"/>
<stop offset="1" stop-color="#969EAE"/>
</linearGradient>
<linearGradient id="paint5_linear_10808_86255" x1="257.501" y1="36.8368" x2="257.501" y2="267.049" gradientUnits="userSpaceOnUse">
<stop stop-color="#FDFEFF"/>
<stop offset="0.9964" stop-color="#ECF0F5"/>
</linearGradient>
<linearGradient id="paint6_linear_10808_86255" x1="548.054" y1="195.007" x2="548.028" y2="226.093" gradientUnits="userSpaceOnUse">
<stop stop-color="white"/>
<stop offset="0.9964" stop-color="#ECF0F5"/>
</linearGradient>
<linearGradient id="paint7_linear_10808_86255" x1="557.785" y1="193.097" x2="570.825" y2="207.359" gradientUnits="userSpaceOnUse">
<stop stop-color="#BCCBE1"/>
<stop offset="0.9942" stop-color="white" stop-opacity="0"/>
</linearGradient>
<linearGradient id="paint8_linear_10808_86255" x1="521.426" y1="187.575" x2="541.979" y2="195.618" gradientUnits="userSpaceOnUse">
<stop stop-color="#E2E8F0"/>
<stop offset="0.9942" stop-color="white" stop-opacity="0"/>
</linearGradient>
<linearGradient id="paint9_linear_10808_86255" x1="663.578" y1="242.781" x2="663.559" y2="265.078" gradientUnits="userSpaceOnUse">
<stop stop-color="white"/>
<stop offset="0.9964" stop-color="#ECF0F5"/>
</linearGradient>
<linearGradient id="paint10_linear_10808_86255" x1="670.558" y1="241.411" x2="679.911" y2="251.641" gradientUnits="userSpaceOnUse">
<stop stop-color="#BCCBE1"/>
<stop offset="0.9942" stop-color="white" stop-opacity="0"/>
</linearGradient>
<linearGradient id="paint11_linear_10808_86255" x1="644.48" y1="237.45" x2="659.222" y2="243.219" gradientUnits="userSpaceOnUse">
<stop stop-color="#E2E8F0"/>
<stop offset="0.9942" stop-color="white" stop-opacity="0"/>
</linearGradient>
<linearGradient id="paint12_linear_10808_86255" x1="109.133" y1="63.6351" x2="407.991" y2="54.6776" gradientUnits="userSpaceOnUse">
<stop stop-color="#D5DDEA"/>
<stop offset="1" stop-color="#D5DDEA" stop-opacity="0"/>
</linearGradient>
<linearGradient id="paint13_linear_10808_86255" x1="67" y1="98.3391" x2="66.9707" y2="132.696" gradientUnits="userSpaceOnUse">
<stop stop-color="white"/>
<stop offset="0.9964" stop-color="#ECF0F5"/>
</linearGradient>
<linearGradient id="paint14_linear_10808_86255" x1="77.7543" y1="96.2283" x2="92.1665" y2="111.991" gradientUnits="userSpaceOnUse">
<stop stop-color="#BCCBE1"/>
<stop offset="0.9942" stop-color="white" stop-opacity="0"/>
</linearGradient>
<linearGradient id="paint15_linear_10808_86255" x1="37.5706" y1="90.1252" x2="60.2855" y2="99.0143" gradientUnits="userSpaceOnUse">
<stop stop-color="#E2E8F0"/>
<stop offset="0.9942" stop-color="white" stop-opacity="0"/>
</linearGradient>
</defs>
</svg>
