<svg width="38" height="32" viewBox="0 0 38 32" fill="none" xmlns="http://www.w3.org/2000/svg">
  <g clip-path="url(#clip0_2320_46927)">
    <path d="M17.2109 17.4677L28.8182 14.9219L29.1839 26.2978L17.2109 31.3896V17.4677Z" fill="#705143"/>
    <path opacity="0.44" d="M18.5331 20.395C18.6976 20.4837 18.9195 20.4485 19.0485 20.3137C19.1774 20.1789 19.2024 19.9554 19.1063 19.7953C19.5255 19.9207 19.9823 19.9183 20.3999 19.7878C20.2487 19.4221 19.9643 19.1131 19.6123 18.9322C19.7732 18.9435 19.9213 18.8064 19.9514 18.6477C19.9815 18.4891 19.91 18.3231 19.7955 18.2094C19.6806 18.0957 19.5279 18.0285 19.3727 17.9839C19.0375 17.8878 18.6484 17.898 18.3737 18.1129C18.1123 18.3176 18.0041 18.6716 18.0166 19.0037C18.0303 19.367 18.1678 20.1985 18.5331 20.3954V20.395Z" fill="#4F382F"/>
    <path opacity="0.44" d="M18.3094 27.392C18.3801 27.1529 18.5454 26.884 18.7943 26.9001C19.0142 26.9145 19.1518 27.1509 19.1912 27.3677C19.4151 27.02 19.7574 26.75 20.1477 26.6133C20.2223 26.9946 20.1785 27.3978 20.0246 27.7545C20.2098 27.6694 20.4419 27.6115 20.6064 27.7319C20.7513 27.8378 20.7841 28.0437 20.7587 28.2214C20.7001 28.6313 20.4091 28.9697 20.0906 29.2346C19.7816 29.4916 19.4241 29.7081 19.0271 29.7706C18.8947 29.7917 18.756 29.7944 18.6298 29.7483C18.4125 29.669 18.268 29.4541 18.2113 29.2299C18.1414 28.9525 18.2082 28.7012 18.2156 28.427C18.2254 28.0679 18.2058 27.7432 18.3098 27.3916L18.3094 27.392Z" fill="#4F382F"/>
    <path d="M18.5331 20.254C18.6976 20.3427 18.9195 20.3075 19.0485 20.1727C19.1774 20.0379 19.2024 19.8144 19.1063 19.6542C19.5255 19.7797 19.9823 19.7773 20.3999 19.6468C20.2487 19.2811 19.9643 18.9721 19.6123 18.7912C19.7732 18.8025 19.9213 18.6653 19.9514 18.5067C19.9815 18.3481 19.91 18.182 19.7955 18.0687C19.6806 17.955 19.5279 17.8878 19.3727 17.8433C19.0375 17.7472 18.6484 17.7573 18.3737 17.9722C18.1123 18.177 18.0041 18.5309 18.0166 18.863C18.0303 19.2264 18.1678 20.0578 18.5331 20.2548V20.254Z" fill="#BA863C"/>
    <path d="M18.0441 27.392C18.1149 27.1529 18.2801 26.884 18.529 26.9001C18.749 26.9145 18.8865 27.1509 18.9256 27.3677C19.1495 27.02 19.4917 26.75 19.882 26.6133C19.9567 26.9946 19.9129 27.3978 19.759 27.7545C19.9442 27.6694 20.1763 27.6115 20.3407 27.7319C20.4857 27.8378 20.5185 28.0437 20.4931 28.2214C20.4345 28.6313 20.1434 28.9697 19.825 29.2346C19.516 29.4916 19.1585 29.7081 18.7615 29.7706C18.629 29.7917 18.4899 29.7944 18.3641 29.7483C18.1469 29.669 18.0023 29.4541 17.9457 29.2299C17.8757 28.9525 17.9426 28.7012 17.95 28.427C17.9597 28.0679 17.9402 27.7432 18.0441 27.3916V27.392Z" fill="#BA863C"/>
    <path opacity="0.44" d="M27.4469 26.0736C27.2418 26.1576 27.0234 26.2287 26.8022 26.2103C26.5811 26.192 26.3564 26.0658 26.2802 25.8575C26.204 25.6493 26.3334 25.3734 26.5537 25.3477C26.1435 25.2261 25.7836 24.9421 25.5703 24.5713C25.9763 24.4678 26.415 24.4975 26.8034 24.6541C26.5991 24.4748 26.5951 24.1279 26.7671 23.9176C26.939 23.7071 27.2465 23.6352 27.5086 23.7063C27.7708 23.7774 27.9876 23.9727 28.1283 24.2056C28.3639 24.5955 28.3971 25.1011 28.2146 25.5184C28.0322 25.9361 27.6387 26.2549 27.1922 26.3467C27.1371 26.358 27.0507 26.3264 27.0788 26.2779L27.4465 26.0736H27.4469Z" fill="#4F382F"/>
    <path opacity="0.44" d="M26.7535 16.1006C26.5156 16.1299 26.2847 16.2151 26.085 16.3479C25.901 16.4702 25.7338 16.6546 25.7267 16.8758C25.7197 17.0965 25.9506 17.3188 26.1545 17.2337C25.908 17.6084 25.7998 18.0717 25.8553 18.5168C26.3276 18.4374 26.7613 18.1514 27.0204 17.749C26.9887 17.9053 27.1098 18.0663 27.2634 18.1096C27.4169 18.1526 27.5861 18.0952 27.7076 17.9916C27.8291 17.8885 27.9092 17.7447 27.9725 17.5982C28.0913 17.3216 28.1569 17.0227 28.1648 16.7218C28.1687 16.5679 28.1566 16.4085 28.0858 16.2713C27.9483 16.0049 27.6244 15.8881 27.3247 15.8763C26.9957 15.863 26.6633 15.9494 26.3816 16.1205L26.7535 16.101V16.1006Z" fill="#4F382F"/>
    <path d="M26.8629 15.8428C26.6249 15.8721 26.394 15.9573 26.1944 16.0901C26.0104 16.2124 25.8431 16.3968 25.8361 16.618C25.8291 16.8387 26.06 17.061 26.2639 16.9759C26.0174 17.3505 25.9092 17.8139 25.9646 18.2589C26.437 18.1796 26.8707 17.8936 27.1297 17.4912C27.0981 17.6475 27.2196 17.8085 27.3728 17.8518C27.5263 17.8948 27.6955 17.8374 27.817 17.7338C27.9385 17.6307 28.019 17.4869 28.0819 17.3404C28.2007 17.0638 28.2663 16.7649 28.2741 16.464C28.278 16.3101 28.2659 16.1507 28.1952 16.0135C28.0577 15.7471 27.7338 15.6302 27.4341 15.6185C27.1051 15.6052 26.7726 15.6916 26.4909 15.8627L26.8629 15.8432V15.8428Z" fill="#BA863C"/>
    <path d="M27.5563 25.9642C27.3511 26.0482 27.1327 26.1193 26.9116 26.101C26.6905 26.0826 26.4658 25.9564 26.3896 25.7482C26.3134 25.5399 26.4427 25.2641 26.6631 25.2383C26.2529 25.1168 25.893 24.8327 25.6797 24.4619C26.0856 24.3584 26.5244 24.3881 26.9128 24.5448C26.7084 24.3654 26.7045 24.0185 26.8764 23.8083C27.0483 23.5977 27.3558 23.5258 27.618 23.5969C27.8806 23.668 28.097 23.8634 28.2377 24.0962C28.4733 24.4862 28.5065 24.9917 28.324 25.409C28.1416 25.8267 27.7481 26.1455 27.3015 26.2373C27.2464 26.2487 27.1601 26.217 27.1882 26.1686L27.5559 25.9642H27.5563Z" fill="#BA863C"/>
    <path d="M0.46875 13.8203V23.844L17.1943 31.3894V17.4676L0.46875 13.8203Z" fill="#936C58"/>
    <path opacity="0.44" d="M2.19792 22.2963C2.37687 22.4252 2.40344 22.5096 2.46048 22.723C2.84807 22.4686 3.16689 22.3854 3.6291 22.3506C3.59745 22.7163 3.45484 23.1023 3.19111 23.3684C3.38998 23.3594 3.45679 23.3223 3.62441 23.4301C3.82367 23.5583 3.90142 23.8115 3.92487 24.0471C3.95847 24.3847 3.9022 24.7472 3.68731 25.0098C3.65567 25.0485 3.61816 25.086 3.5701 25.0977C3.53689 25.1059 3.50212 25.1008 3.46812 25.0954C2.81212 24.993 2.16628 24.8258 1.5427 24.5972C1.42822 24.555 1.30828 24.5066 1.2356 24.4085C1.16684 24.3155 1.15277 24.1948 1.14105 24.0799C1.09846 23.6657 0.972655 23.0152 1.2149 22.6409C1.41142 22.3369 1.85605 22.0498 2.19831 22.2963H2.19792Z" fill="#4F382F"/>
    <path opacity="0.44" d="M13.7455 27.7321C13.5501 27.3746 13.4708 26.9546 13.5224 26.5502C13.9674 26.4693 14.4484 26.626 14.7602 26.9534C14.7383 26.5994 15.1146 26.2806 15.4603 26.3599C15.8366 26.4462 16.0214 26.869 16.1038 27.2464C16.1941 27.659 16.2304 28.081 16.2546 28.5025C16.2683 28.7381 16.2761 28.9831 16.1839 29.2C15.8421 30.0041 14.761 29.7739 14.2265 29.3328C13.8936 29.0581 13.0102 28.0333 13.7455 27.7321Z" fill="#4F382F"/>
    <path opacity="0.44" d="M13.9052 18.4799C13.7473 18.7882 13.8884 19.2332 14.2185 19.3379C13.897 19.543 13.6321 19.8365 13.4609 20.1772C13.8813 20.2412 14.3217 20.1682 14.6991 19.9713C14.7022 20.2596 14.8952 20.537 15.1644 20.6405C15.4336 20.7441 15.7626 20.6671 15.958 20.455C16.1189 20.2803 16.1842 20.0396 16.2342 19.8072C16.3334 19.3469 16.3835 18.8237 16.1057 18.4432C15.6942 17.8794 14.2513 17.8028 13.9048 18.4799H13.9052Z" fill="#4F382F"/>
    <path opacity="0.44" d="M2.17897 17.4411C2.42277 17.4247 2.64001 17.2188 2.6697 16.9761C2.89592 17.2129 3.15301 17.4204 3.43237 17.5915C3.4183 17.284 3.36126 16.9781 3.26319 16.6862C3.58514 16.6405 3.83011 16.2924 3.76369 15.974C3.75783 15.9466 3.74962 15.9185 3.7297 15.8989C3.70899 15.8786 3.67891 15.8712 3.65077 15.8646C2.97406 15.7067 2.29735 15.5485 1.62025 15.3906C1.58235 15.8958 1.2733 17.5024 2.17897 17.4411Z" fill="#4F382F"/>
    <path d="M2.04167 22.2963C2.22062 22.4252 2.24719 22.5096 2.30423 22.723C2.69182 22.4686 3.01064 22.3854 3.47285 22.3506C3.4412 22.7163 3.29859 23.1023 3.03486 23.3684C3.23373 23.3594 3.30054 23.3223 3.46816 23.4301C3.66742 23.5583 3.74517 23.8115 3.76862 24.0471C3.80222 24.3847 3.74595 24.7472 3.53106 25.0098C3.49942 25.0485 3.46191 25.086 3.41385 25.0977C3.38064 25.1059 3.34587 25.1008 3.31187 25.0954C2.65587 24.993 2.01003 24.8258 1.38645 24.5972C1.27197 24.555 1.15203 24.5066 1.07935 24.4085C1.01059 24.3155 0.996522 24.1948 0.984801 24.0799C0.942213 23.6657 0.816405 23.0152 1.05865 22.6409C1.25517 22.3369 1.6998 22.0498 2.04206 22.2963H2.04167Z" fill="#C9943F"/>
    <path d="M13.9721 27.7321C13.7767 27.3746 13.6974 26.9546 13.749 26.5502C14.194 26.4693 14.675 26.626 14.9867 26.9534C14.9649 26.5994 15.3411 26.2806 15.6869 26.3599C16.0631 26.4462 16.248 26.869 16.3304 27.2464C16.4207 27.659 16.457 28.081 16.4812 28.5025C16.4949 28.7381 16.5027 28.9831 16.4105 29.2C16.0686 30.0041 14.9875 29.7739 14.453 29.3328C14.1201 29.0581 13.2367 28.0333 13.9721 27.7321Z" fill="#C9943F"/>
    <path d="M14.0067 18.269C13.8489 18.5772 13.9899 19.0223 14.3201 19.127C13.9985 19.3321 13.7336 19.6255 13.5625 19.9662C13.9829 20.0303 14.4232 19.9572 14.8007 19.7603C14.8038 20.0487 14.9968 20.3261 15.266 20.4296C15.5352 20.5331 15.8642 20.4562 16.0595 20.244C16.2205 20.0694 16.2858 19.8287 16.3358 19.5962C16.435 19.136 16.485 18.6128 16.2072 18.2322C15.7958 17.6685 14.3529 17.5919 14.0063 18.269H14.0067Z" fill="#C9943F"/>
    <path d="M1.96022 17.0934C2.20402 17.077 2.42126 16.8711 2.45095 16.6285C2.67717 16.8652 2.93426 17.0727 3.21362 17.2438C3.19955 16.9364 3.14251 16.6304 3.04444 16.3386C3.36639 16.2929 3.61136 15.9447 3.54494 15.6263C3.53908 15.5989 3.53087 15.5708 3.51095 15.5513C3.49024 15.531 3.46016 15.5235 3.43203 15.5169C2.75531 15.3591 2.0786 15.2008 1.4015 15.043C1.3636 15.5482 1.05455 17.1548 1.96022 17.0934Z" fill="#C9943F"/>
    <path d="M26.8747 0.0696428C27.0826 0.018069 27.2982 0.00322199 27.5124 0.000487018C27.8308 -0.0038108 28.1543 0.0188504 28.4532 0.128249C28.7521 0.237258 29.0264 0.44199 29.1662 0.7276C29.3038 1.00852 29.3006 1.33516 29.2866 1.64733C29.285 1.68679 29.2823 1.7286 29.2592 1.76064C29.2248 1.80948 29.1576 1.81925 29.0982 1.82472C28.874 1.84581 28.6497 1.8673 28.4258 1.8884C28.3817 1.61217 28.5415 1.31054 28.4184 1.05931C28.3098 0.83739 28.032 0.764327 27.7858 0.742447C27.5299 0.719786 27.2646 0.7276 27.0271 0.825668C26.7895 0.923737 26.5836 1.12534 26.5344 1.37735C26.5164 1.46917 26.5133 1.57622 26.4402 1.63444C26.3902 1.67429 26.3215 1.67859 26.2574 1.67937C24.7875 1.69969 26.1449 0.250151 26.8751 0.0692521L26.8747 0.0696428Z" fill="#C6923E"/>
    <path d="M0.484375 13.8211L12.5484 12.1055L28.8168 14.9225L17.2095 17.4684L0.484375 13.8211Z" fill="#4F382F"/>
    <path d="M19.3148 1.23438L12.5547 12.1075L28.8231 14.9245L36.1872 1.83998L19.3148 1.23438Z" fill="#4F382F"/>
    <path d="M28.8944 14.7891L17.2609 17.1955L17.2109 32.0014L29.1839 26.6702L28.8948 14.7891H28.8944ZM28.0868 25.9388L18.4597 30.0209V18.3227L27.8457 16.0354L28.0868 25.9388Z" fill="#C6923E"/>
    <path d="M12.7071 11.8555L0 13.5379L17.2628 17.1938L28.8962 14.7874L12.7071 11.8555ZM1.8551 13.627L12.5516 12.1059L27.2243 14.7874L17.2628 16.6698L1.8551 13.627Z" fill="#FFCE55"/>
    <path d="M1.00781 24.0786L1.42118 23.7988V15.0492L1.00781 14.9531V24.0786Z" fill="#C6923E"/>
    <path d="M1.42118 23.8008L15.9052 29.3438V30.0213L1.00781 24.0805L1.42118 23.8008Z" fill="#FFCE55"/>
    <path d="M28.0888 25.9385L27.8477 16.0352L27.4688 16.1278L27.7786 25.706L28.0888 25.9385Z" fill="#E5AC45"/>
    <path d="M18.4609 29.3903L27.7778 25.7031L28.0881 25.9356L18.4609 30.0181V29.3903Z" fill="#FFCE55"/>
    <path opacity="0.44" d="M6.45796 19.0383C6.18329 19.3723 5.48548 19.4966 5.11743 19.2696C5.10688 19.6993 5.43977 20.1811 5.78047 20.4436C5.977 20.5952 6.34348 20.6558 6.58924 20.6878C6.83539 20.7199 7.10615 20.6402 7.2554 20.4421C7.13819 20.9039 7.23274 21.3985 7.42536 21.8342C7.61837 22.2698 7.7098 22.7754 7.99384 23.1579C8.76198 22.7602 9.29296 21.8815 9.12417 21.0328C9.26991 21.4669 9.79698 21.6232 10.2525 21.6701C10.7081 21.717 11.1805 21.4767 11.4114 21.0817C10.9863 20.8824 10.5284 20.6515 10.3311 20.2256C10.1978 19.9377 10.2072 19.6071 10.2193 19.2899C10.2455 18.6014 10.3428 17.7556 10.369 17.0671C10.3713 17.0054 7.94305 16.7581 7.71878 16.7139C7.51366 16.6733 6.73849 16.4041 6.60643 16.5768C6.48297 16.7381 6.73263 18.7046 6.45796 19.0387V19.0383Z" fill="#4F382F"/>
    <path d="M6.24286 18.7038C5.95256 19.0246 5.42979 19.157 5.07268 18.9128C5.04181 19.3414 5.31726 19.7368 5.64507 20.0154C5.83417 20.176 6.0518 20.3143 6.29599 20.3581C6.54019 20.4018 6.81486 20.335 6.9731 20.1443C6.83439 20.5999 6.90511 21.0988 7.07703 21.5431C7.24894 21.9873 7.51657 22.3866 7.78226 22.7824C8.56837 22.4218 9.06145 21.5099 8.93329 20.6546C9.05832 21.0949 9.45606 21.445 9.9089 21.5134C10.3617 21.5818 10.845 21.3645 11.0943 20.9805C10.679 20.7613 10.2328 20.5089 10.0558 20.074C9.93625 19.7802 9.96125 19.45 9.9886 19.134C10.0476 18.4475 10.1066 17.761 10.1652 17.0745C10.1703 17.0128 7.83461 16.4971 7.61269 16.442C7.40991 16.3916 6.64842 16.086 6.50815 16.2521C6.37726 16.4076 6.53355 18.3834 6.24325 18.7042L6.24286 18.7038Z" fill="#E5AC45"/>
    <path opacity="0.44" d="M2.02162 24.0301V15.7552L15.9059 19.5174V18.4136L1.42188 15.0508V23.8004L2.02162 24.0301Z" fill="#4F382F"/>
    <path d="M0 13.5391L0.196137 24.8091L17.2132 32.0009L17.2632 17.1949L0 13.5391ZM15.9027 30.0208L1.0053 24.0801V14.9546L15.9027 18.4136V30.0208Z" fill="#E5AC45"/>
    <path opacity="0.44" d="M1.0103 14.2864C1.0103 14.5072 0.866125 14.6861 0.688743 14.6861C0.51136 14.6861 0.367188 14.5072 0.367188 14.2864C0.367188 14.0657 0.51136 13.8867 0.688743 13.8867C0.866125 13.8867 1.0103 14.0657 1.0103 14.2864Z" fill="#4F382F"/>
    <path d="M0.89311 14.22C0.89311 14.4408 0.748938 14.6197 0.571555 14.6197C0.394172 14.6197 0.25 14.4408 0.25 14.22C0.25 13.9993 0.394172 13.8203 0.571555 13.8203C0.748938 13.8203 0.89311 13.9993 0.89311 14.22Z" fill="#FFCE55"/>
    <path d="M0.367063 14.0517C0.345965 14.09 0.331899 14.1341 0.336978 14.1779C0.342058 14.2217 0.368235 14.2642 0.40926 14.2807C0.419809 14.285 0.43114 14.2873 0.44247 14.2853C0.474509 14.2803 0.491309 14.2463 0.510454 14.2201C0.533897 14.1885 0.567107 14.1638 0.604615 14.1517C0.627277 14.1443 0.652282 14.1404 0.669083 14.1236C0.684711 14.1084 0.68979 14.0841 0.686274 14.0626C0.682757 14.0412 0.672208 14.0212 0.659706 14.0029C0.577656 13.8833 0.42606 13.9446 0.367063 14.0517Z" fill="white"/>
    <path opacity="0.44" d="M2.53994 16.0594C2.53994 16.2153 2.43836 16.3415 2.31294 16.3415C2.18752 16.3415 2.08594 16.2153 2.08594 16.0594C2.08594 15.9035 2.18752 15.7773 2.31294 15.7773C2.43836 15.7773 2.53994 15.9035 2.53994 16.0594Z" fill="#4F382F"/>
    <path d="M2.45401 16.0126C2.45401 16.1685 2.35242 16.2947 2.227 16.2947C2.10158 16.2947 2 16.1685 2 16.0126C2 15.8567 2.10158 15.7305 2.227 15.7305C2.35242 15.7305 2.45401 15.8567 2.45401 16.0126Z" fill="#FFCE55"/>
    <path d="M2.08469 15.893C2.06984 15.92 2.05968 15.9512 2.0632 15.9821C2.06671 16.013 2.08547 16.043 2.11438 16.0544C2.12181 16.0571 2.13001 16.0591 2.13782 16.0579C2.16049 16.0544 2.17221 16.0301 2.18588 16.0118C2.20229 15.9895 2.22573 15.9723 2.2523 15.9637C2.26832 15.9586 2.2859 15.9559 2.29802 15.9438C2.30896 15.9329 2.31247 15.9161 2.31013 15.9008C2.30778 15.8856 2.29997 15.8715 2.29137 15.8586C2.23355 15.7742 2.12649 15.8176 2.08469 15.893Z" fill="white"/>
    <path opacity="0.44" d="M2.71182 23.4188C2.71182 23.5747 2.61023 23.7009 2.48482 23.7009C2.3594 23.7009 2.25781 23.5747 2.25781 23.4188C2.25781 23.2629 2.3594 23.1367 2.48482 23.1367C2.61023 23.1367 2.71182 23.2629 2.71182 23.4188Z" fill="#4F382F"/>
    <path d="M2.62588 23.3719C2.62588 23.5278 2.5243 23.654 2.39888 23.654C2.27346 23.654 2.17188 23.5278 2.17188 23.3719C2.17188 23.216 2.27346 23.0898 2.39888 23.0898C2.5243 23.0898 2.62588 23.216 2.62588 23.3719Z" fill="#FFCE55"/>
    <path d="M2.25656 23.2524C2.24172 23.2793 2.23156 23.3106 2.23507 23.3415C2.23859 23.3723 2.25734 23.4024 2.28626 23.4137C2.29368 23.4165 2.30189 23.4184 2.3097 23.4173C2.33236 23.4137 2.34408 23.3895 2.35776 23.3712C2.37417 23.3489 2.39761 23.3317 2.42418 23.3231C2.4402 23.318 2.45778 23.3153 2.46989 23.3032C2.48083 23.2922 2.48435 23.2754 2.482 23.2602C2.47966 23.245 2.47184 23.2309 2.46325 23.218C2.40542 23.1336 2.29837 23.177 2.25656 23.2524Z" fill="white"/>
    <path opacity="0.44" d="M15.2853 28.077C15.2853 28.3115 15.1321 28.5014 14.9434 28.5014C14.7547 28.5014 14.6016 28.3115 14.6016 28.077C14.6016 27.8426 14.7547 27.6523 14.9434 27.6523C15.1321 27.6523 15.2853 27.8422 15.2853 28.077Z" fill="#4F382F"/>
    <path d="M14.8184 28.4314C15.0072 28.4314 15.1603 28.2413 15.1603 28.0067C15.1603 27.7722 15.0072 27.582 14.8184 27.582C14.6296 27.582 14.4766 27.7722 14.4766 28.0067C14.4766 28.2413 14.6296 28.4314 14.8184 28.4314Z" fill="#FFCE55"/>
    <path d="M14.6035 27.8284C14.5808 27.869 14.566 27.9159 14.5714 27.9624C14.5765 28.0089 14.6047 28.0542 14.648 28.0714C14.659 28.0757 14.6715 28.0784 14.6832 28.0765C14.7172 28.0714 14.7352 28.0351 14.7555 28.0069C14.7801 27.9733 14.8156 27.9476 14.8555 27.9343C14.8793 27.9265 14.9063 27.9222 14.9243 27.9046C14.9407 27.8882 14.9461 27.8628 14.9426 27.8397C14.9391 27.8167 14.9274 27.7956 14.9145 27.7764C14.8274 27.6494 14.6664 27.7147 14.6035 27.8284Z" fill="white"/>
    <path opacity="0.44" d="M15.6056 19.2528C15.6056 19.4873 15.4525 19.6771 15.2637 19.6771C15.075 19.6771 14.9219 19.4873 14.9219 19.2528C14.9219 19.0184 15.075 18.8281 15.2637 18.8281C15.4525 18.8281 15.6056 19.018 15.6056 19.2528Z" fill="#4F382F"/>
    <path d="M15.1387 19.6072C15.3276 19.6072 15.4806 19.4171 15.4806 19.1825C15.4806 18.948 15.3276 18.7578 15.1387 18.7578C14.9499 18.7578 14.7969 18.948 14.7969 19.1825C14.7969 19.4171 14.9499 19.6072 15.1387 19.6072Z" fill="#FFCE55"/>
    <path d="M14.9238 19.0042C14.9011 19.0448 14.8863 19.0917 14.8918 19.1382C14.8968 19.1847 14.925 19.23 14.9683 19.2472C14.9793 19.2515 14.9918 19.2542 15.0035 19.2523C15.0375 19.2472 15.0555 19.2109 15.0758 19.1827C15.1004 19.1491 15.136 19.1233 15.1758 19.11C15.1996 19.1022 15.2266 19.0979 15.2446 19.0804C15.261 19.0639 15.2665 19.0385 15.2629 19.0155C15.2594 18.9924 15.2477 18.9713 15.2348 18.9522C15.1477 18.8252 14.9867 18.8905 14.9238 19.0042Z" fill="white"/>
    <path opacity="0.44" d="M19.4728 18.9169C19.4728 19.1513 19.3196 19.3416 19.1309 19.3416C18.9422 19.3416 18.7891 19.1517 18.7891 18.9169C18.7891 18.6821 18.9418 18.4922 19.1309 18.4922C19.32 18.4922 19.4728 18.6821 19.4728 18.9169Z" fill="#4F382F"/>
    <path d="M19.3478 18.8462C19.3478 19.0806 19.1946 19.2709 19.0059 19.2709C18.8172 19.2709 18.6641 19.081 18.6641 18.8462C18.6641 18.6114 18.8172 18.4219 19.0059 18.4219C19.1946 18.4219 19.3478 18.6118 19.3478 18.8462Z" fill="#E5AC45"/>
    <path d="M18.791 18.6682C18.7683 18.7089 18.7535 18.7557 18.7589 18.8022C18.764 18.8487 18.7922 18.8941 18.8355 18.9113C18.8469 18.9155 18.859 18.9183 18.8707 18.9163C18.9047 18.9113 18.9227 18.8749 18.943 18.8468C18.9676 18.8132 19.0031 18.7874 19.043 18.7741C19.0668 18.7663 19.0938 18.762 19.1118 18.7444C19.1282 18.728 19.1336 18.7026 19.1301 18.6796C19.1266 18.6565 19.1149 18.6354 19.102 18.6163C19.0149 18.4893 18.8539 18.5545 18.791 18.6682Z" fill="#FFCE55"/>
    <path opacity="0.44" d="M19.2716 28.6619C19.4604 28.6619 19.6134 28.4718 19.6134 28.2372C19.6134 28.0026 19.4604 27.8125 19.2716 27.8125C19.0827 27.8125 18.9297 28.0026 18.9297 28.2372C18.9297 28.4718 19.0827 28.6619 19.2716 28.6619Z" fill="#4F382F"/>
    <path d="M19.4884 28.1665C19.4884 28.4009 19.3353 28.5912 19.1466 28.5912C18.9578 28.5912 18.8047 28.4013 18.8047 28.1665C18.8047 27.9317 18.9578 27.7422 19.1466 27.7422C19.3353 27.7422 19.4884 27.9321 19.4884 28.1665Z" fill="#E5AC45"/>
    <path d="M18.9316 27.9885C18.909 28.0292 18.8941 28.0761 18.8996 28.1226C18.9047 28.169 18.9328 28.2144 18.9762 28.2316C18.9871 28.2359 18.9996 28.2386 19.0113 28.2366C19.0453 28.2316 19.0633 28.1952 19.0836 28.1671C19.1082 28.1335 19.1438 28.1077 19.1836 28.0944C19.2075 28.0866 19.2344 28.0823 19.2524 28.0647C19.2688 28.0483 19.2743 28.0229 19.2707 27.9999C19.2672 27.9768 19.2555 27.9557 19.2426 27.9366C19.1555 27.8096 18.9945 27.8748 18.9316 27.9885Z" fill="#FFCE55"/>
    <path opacity="0.44" d="M27.2494 16.9708C27.2494 17.1876 27.1079 17.3635 26.9333 17.3635C26.7586 17.3635 26.6172 17.1876 26.6172 16.9708C26.6172 16.7539 26.7586 16.5781 26.9333 16.5781C27.1079 16.5781 27.2494 16.7539 27.2494 16.9708Z" fill="#4F382F"/>
    <path d="M26.8161 17.301C26.9907 17.301 27.1322 17.1252 27.1322 16.9083C27.1322 16.6914 26.9907 16.5156 26.8161 16.5156C26.6415 16.5156 26.5 16.6914 26.5 16.9083C26.5 17.1252 26.6415 17.301 26.8161 17.301Z" fill="#E5AC45"/>
    <path d="M26.6166 16.7408C26.5955 16.7787 26.5822 16.8217 26.5869 16.8647C26.5916 16.9076 26.6177 16.9494 26.658 16.9655C26.6681 16.9694 26.6795 16.9717 26.6904 16.9702C26.7221 16.9655 26.7385 16.9319 26.7572 16.9061C26.7799 16.8748 26.8127 16.851 26.8498 16.8389C26.8721 16.8315 26.8967 16.8279 26.9135 16.8115C26.9288 16.7963 26.9338 16.7728 26.9307 16.7517C26.9272 16.7306 26.9166 16.7111 26.9045 16.6931C26.824 16.5755 26.6752 16.6361 26.617 16.7412L26.6166 16.7408Z" fill="#FFCE55"/>
    <path opacity="0.44" d="M27.6009 25.1309C27.6009 25.3478 27.4595 25.5236 27.2848 25.5236C27.1102 25.5236 26.9688 25.3478 26.9688 25.1309C26.9688 24.9141 27.1102 24.7383 27.2848 24.7383C27.4595 24.7383 27.6009 24.9141 27.6009 25.1309Z" fill="#4F382F"/>
    <path d="M27.4837 25.0684C27.4837 25.2853 27.3423 25.4611 27.1676 25.4611C26.993 25.4611 26.8516 25.2853 26.8516 25.0684C26.8516 24.8516 26.993 24.6758 27.1676 24.6758C27.3423 24.6758 27.4837 24.8516 27.4837 25.0684Z" fill="#E5AC45"/>
    <path d="M26.9681 24.901C26.9474 24.9389 26.9337 24.9818 26.9384 25.0248C26.9431 25.0678 26.9693 25.1096 27.0095 25.1256C27.0197 25.1295 27.031 25.1319 27.042 25.1303C27.0736 25.1256 27.09 25.092 27.1088 25.0662C27.1314 25.035 27.1643 25.0111 27.201 24.999C27.2233 24.9916 27.2479 24.9881 27.2647 24.9717C27.2799 24.9564 27.285 24.933 27.2819 24.9119C27.2787 24.8904 27.2678 24.8713 27.2557 24.8533C27.1752 24.7357 27.0263 24.7963 26.9681 24.9014V24.901Z" fill="#FFCE55"/>
    <path opacity="0.44" d="M1.06499 24.3528C1.06499 24.5736 0.920813 24.7525 0.74343 24.7525C0.566047 24.7525 0.421875 24.5736 0.421875 24.3528C0.421875 24.1321 0.566047 23.9531 0.74343 23.9531C0.920813 23.9531 1.06499 24.1321 1.06499 24.3528Z" fill="#4F382F"/>
    <path d="M0.947798 24.2864C0.947798 24.5072 0.803625 24.6861 0.626243 24.6861C0.44886 24.6861 0.304688 24.5072 0.304688 24.2864C0.304688 24.0657 0.44886 23.8867 0.626243 23.8867C0.803625 23.8867 0.947798 24.0657 0.947798 24.2864Z" fill="#FFCE55"/>
    <path d="M0.421751 24.1181C0.400652 24.1564 0.386587 24.2005 0.391666 24.2443C0.396745 24.2881 0.422923 24.3307 0.463947 24.3471C0.474497 24.3514 0.485827 24.3537 0.497158 24.3518C0.529196 24.3467 0.545997 24.3127 0.565141 24.2865C0.588584 24.2549 0.621795 24.2302 0.659303 24.2181C0.681964 24.2107 0.70697 24.2068 0.72377 24.19C0.739399 24.1748 0.744478 24.1505 0.740961 24.129C0.737445 24.1076 0.726896 24.0876 0.714393 24.0693C0.632344 23.9497 0.480748 24.0111 0.421751 24.1181Z" fill="white"/>
    <path opacity="0.44" d="M16.4634 18.469C16.6891 18.469 16.8721 18.2416 16.8721 17.961C16.8721 17.6805 16.6891 17.4531 16.4634 17.4531C16.2377 17.4531 16.0547 17.6805 16.0547 17.961C16.0547 18.2416 16.2377 18.469 16.4634 18.469Z" fill="#4F382F"/>
    <path d="M16.7236 17.879C16.7236 18.1595 16.5408 18.3869 16.3149 18.3869C16.0891 18.3869 15.9062 18.1595 15.9062 17.879C15.9062 17.5985 16.0891 17.3711 16.3149 17.3711C16.5408 17.3711 16.7236 17.5985 16.7236 17.879Z" fill="#FFCE55"/>
    <path d="M16.063 17.6643C16.036 17.7131 16.0185 17.769 16.0247 17.8245C16.031 17.88 16.0646 17.9343 16.1165 17.955C16.1298 17.9601 16.1443 17.9632 16.1583 17.9612C16.199 17.955 16.2204 17.9116 16.2451 17.878C16.2748 17.8378 16.317 17.8069 16.3646 17.7913C16.3931 17.7819 16.4252 17.7768 16.4467 17.7557C16.4666 17.7362 16.4728 17.7057 16.4685 17.6784C16.4643 17.6506 16.4506 17.6256 16.4349 17.6026C16.331 17.4506 16.1384 17.5287 16.063 17.6647V17.6643Z" fill="white"/>
    <path opacity="0.44" d="M8.4307 21.0837C8.4307 21.4405 8.19783 21.73 7.91066 21.73C7.62349 21.73 7.39062 21.4408 7.39062 21.0837C7.39062 20.7266 7.62349 20.4375 7.91066 20.4375C8.19783 20.4375 8.4307 20.7266 8.4307 21.0837Z" fill="#4F382F"/>
    <path d="M7.71535 21.6245C8.00256 21.6245 8.23538 21.3352 8.23538 20.9783C8.23538 20.6214 8.00256 20.332 7.71535 20.332C7.42814 20.332 7.19531 20.6214 7.19531 20.9783C7.19531 21.3352 7.42814 21.6245 7.71535 21.6245Z" fill="#FFCE55"/>
    <path d="M7.38646 20.7041C7.35208 20.7662 7.32942 20.8373 7.33762 20.908C7.34544 20.9788 7.38841 21.0479 7.45444 21.0737C7.47124 21.0803 7.49 21.0842 7.50797 21.0815C7.55994 21.0737 7.58729 21.0182 7.61815 20.976C7.65566 20.9244 7.70958 20.8854 7.77014 20.8654C7.80647 20.8533 7.8475 20.8471 7.87485 20.8201C7.90024 20.7951 7.90845 20.7564 7.90298 20.7217C7.89751 20.6865 7.87993 20.6545 7.86 20.6252C7.72755 20.4318 7.48258 20.5314 7.38685 20.7041H7.38646Z" fill="white"/>
    <path opacity="0.44" d="M18.458 17.9181C18.458 18.1986 18.2751 18.426 18.0493 18.426C17.8235 18.426 17.6406 18.1986 17.6406 17.9181C17.6406 17.6375 17.8235 17.4102 18.0493 17.4102C18.2751 17.4102 18.458 17.6375 18.458 17.9181Z" fill="#4F382F"/>
    <path d="M17.9009 18.344C18.1266 18.344 18.3096 18.1166 18.3096 17.836C18.3096 17.5555 18.1266 17.3281 17.9009 17.3281C17.6752 17.3281 17.4922 17.5555 17.4922 17.836C17.4922 18.1166 17.6752 18.344 17.9009 18.344Z" fill="#FFCE55"/>
    <path d="M17.6489 17.6214C17.622 17.6702 17.6044 17.7261 17.6106 17.7816C17.6169 17.837 17.6505 17.8913 17.7025 17.9121C17.7157 17.9171 17.7302 17.9203 17.7447 17.9183C17.7853 17.9121 17.8068 17.8687 17.831 17.8351C17.8607 17.7948 17.9029 17.764 17.9506 17.7483C17.9791 17.739 18.0111 17.7339 18.0326 17.7128C18.0525 17.6933 18.0588 17.6628 18.0545 17.6354C18.0502 17.6081 18.0365 17.5827 18.0209 17.5596C17.917 17.4076 17.7243 17.4858 17.6489 17.6214Z" fill="white"/>
    <path opacity="0.44" d="M17.9712 31.3479C18.1969 31.3479 18.3799 31.1205 18.3799 30.84C18.3799 30.5594 18.1969 30.332 17.9712 30.332C17.7455 30.332 17.5625 30.5594 17.5625 30.84C17.5625 31.1205 17.7455 31.3479 17.9712 31.3479Z" fill="#4F382F"/>
    <path d="M18.2314 30.7579C18.2314 31.0385 18.0486 31.2658 17.8227 31.2658C17.5969 31.2658 17.4141 31.0385 17.4141 30.7579C17.4141 30.4774 17.5969 30.25 17.8227 30.25C18.0486 30.25 18.2314 30.4774 18.2314 30.7579Z" fill="#FFCE55"/>
    <path d="M17.5708 30.5432C17.5438 30.5921 17.5263 30.6479 17.5325 30.7034C17.5388 30.7589 17.5724 30.8132 17.6243 30.8339C17.6376 30.8394 17.6521 30.8421 17.6665 30.8402C17.7072 30.8339 17.7287 30.7905 17.7529 30.7569C17.7826 30.7167 17.8248 30.6858 17.8724 30.6702C17.901 30.6608 17.933 30.6557 17.9545 30.6346C17.9744 30.6151 17.9807 30.5846 17.9764 30.5573C17.9721 30.5295 17.9584 30.5045 17.9428 30.4815C17.8388 30.3295 17.6462 30.4076 17.5708 30.5436V30.5432Z" fill="white"/>
    <path opacity="0.44" d="M28.7368 26.4892C28.9193 26.4892 29.0673 26.3054 29.0673 26.0786C29.0673 25.8518 28.9193 25.668 28.7368 25.668C28.5542 25.668 28.4062 25.8518 28.4062 26.0786C28.4062 26.3054 28.5542 26.4892 28.7368 26.4892Z" fill="#4F382F"/>
    <path d="M28.9423 26.0122C28.9423 26.2392 28.7943 26.4228 28.6118 26.4228C28.4293 26.4228 28.2812 26.2388 28.2812 26.0122C28.2812 25.7856 28.4293 25.6016 28.6118 25.6016C28.7943 25.6016 28.9423 25.7856 28.9423 26.0122Z" fill="#FFCE55"/>
    <path d="M28.4073 25.8399C28.3854 25.8794 28.3709 25.9247 28.376 25.9696C28.3811 26.0146 28.4084 26.0583 28.4503 26.0751C28.4612 26.0794 28.4729 26.0818 28.4842 26.0802C28.5171 26.0751 28.5346 26.04 28.5542 26.013C28.578 25.9802 28.6124 25.9556 28.6511 25.9427C28.6741 25.9353 28.7003 25.931 28.7175 25.9138C28.7335 25.8978 28.7386 25.8735 28.7355 25.8513C28.732 25.829 28.721 25.8087 28.7081 25.7899C28.6241 25.6668 28.4682 25.7301 28.4073 25.8399Z" fill="white"/>
    <path opacity="0.44" d="M28.7939 15.5278C28.7939 15.7548 28.6458 15.9385 28.4634 15.9385C28.2809 15.9385 28.1328 15.7544 28.1328 15.5278C28.1328 15.3012 28.2809 15.1172 28.4634 15.1172C28.6458 15.1172 28.7939 15.3012 28.7939 15.5278Z" fill="#4F382F"/>
    <path d="M28.6689 15.4614C28.6689 15.6884 28.5208 15.8721 28.3384 15.8721C28.1559 15.8721 28.0078 15.688 28.0078 15.4614C28.0078 15.2348 28.1559 15.0508 28.3384 15.0508C28.5208 15.0508 28.6689 15.2348 28.6689 15.4614Z" fill="#FFCE55"/>
    <path d="M28.1338 15.2891C28.112 15.3286 28.0975 15.3739 28.1026 15.4189C28.1077 15.4638 28.135 15.5076 28.1768 15.5244C28.1878 15.5287 28.1995 15.531 28.2108 15.5294C28.2436 15.5244 28.2612 15.4892 28.2807 15.4622C28.3046 15.4294 28.339 15.4048 28.3776 15.3919C28.4007 15.3841 28.4269 15.3802 28.4441 15.363C28.4601 15.347 28.4652 15.3227 28.462 15.3005C28.4585 15.2782 28.4476 15.2579 28.4347 15.2391C28.3507 15.1161 28.1948 15.1794 28.1338 15.2891Z" fill="white"/>
    <path opacity="0.44" d="M16.6118 31.3908C16.8375 31.3908 17.0205 31.1634 17.0205 30.8829C17.0205 30.6024 16.8375 30.375 16.6118 30.375C16.3861 30.375 16.2031 30.6024 16.2031 30.8829C16.2031 31.1634 16.3861 31.3908 16.6118 31.3908Z" fill="#4F382F"/>
    <path d="M16.4634 31.3088C16.6891 31.3088 16.8721 31.0814 16.8721 30.8009C16.8721 30.5204 16.6891 30.293 16.4634 30.293C16.2377 30.293 16.0547 30.5204 16.0547 30.8009C16.0547 31.0814 16.2377 31.3088 16.4634 31.3088Z" fill="#FFCE55"/>
    <path d="M16.2114 30.5858C16.1845 30.6346 16.1669 30.6905 16.1731 30.746C16.1794 30.8015 16.213 30.8558 16.265 30.8765C16.2782 30.8816 16.2927 30.8847 16.3072 30.8827C16.3478 30.8765 16.3693 30.8331 16.3935 30.7999C16.4232 30.7597 16.4654 30.7288 16.5131 30.7132C16.5416 30.7038 16.5736 30.6987 16.5951 30.6776C16.615 30.6581 16.6213 30.6276 16.617 30.6002C16.6127 30.5729 16.599 30.5475 16.5834 30.5245C16.4795 30.3725 16.2868 30.4506 16.2114 30.5866V30.5858Z" fill="white"/>
    <path d="M36.1864 1.83984L38.0043 7.83139L34.2012 14.5262L28.8984 14.7888L36.1864 1.83984Z" fill="#705143"/>
    <path d="M19.6103 1.83594L20.9922 6.39084L17.6716 12.2355L13.6484 11.649L19.6103 1.83594Z" fill="#705143"/>
    <path opacity="0.44" d="M35.6864 1.83984L28.3984 14.7888L33.7012 14.5262L37.5043 7.83139L35.6864 1.83984ZM33.3792 13.5209L30.1918 13.7831L35.4437 4.0669L36.5666 7.50789L33.3792 13.5209Z" fill="#4F382F"/>
    <path d="M36.1864 1.83984L28.8984 14.7888L34.2012 14.5262L38.0043 7.83139L36.1864 1.83984ZM33.8792 13.5209L30.6918 13.7831L35.9437 4.0669L37.0666 7.50789L33.8792 13.5209Z" fill="#C6923E"/>
    <path d="M19.3144 1.23438L12.5547 12.1075L28.8231 14.9245L36.1868 1.83998L19.314 1.23438H19.3144ZM28.5488 13.8231L13.6514 11.6507L19.6832 1.83998L34.8092 2.37408L28.5484 13.8231H28.5488Z" fill="#FFCE55"/>
    <path d="M20.9925 6.39062L32.2567 7.03569L28.5461 13.8212L17.6719 12.2353L20.9925 6.39062Z" fill="#936C58"/>
    <path d="M26.3203 0.0696428C26.5282 0.018069 26.7439 0.00322199 26.958 0.000487018C27.2764 -0.0038108 27.5999 0.0188504 27.8988 0.128249C28.1977 0.237258 28.472 0.44199 28.6119 0.7276C28.7494 1.00852 28.7463 1.33516 28.7322 1.64733C28.7306 1.68679 28.7279 1.7286 28.7049 1.76064C28.6705 1.80948 28.6033 1.81925 28.5439 1.82472C28.3196 1.84581 28.0953 1.8673 27.8715 1.8884C27.8273 1.61217 27.9871 1.31054 27.864 1.05931C27.7554 0.83739 27.4776 0.764327 27.2315 0.742447C26.9756 0.719786 26.7103 0.7276 26.4727 0.825668C26.2352 0.923737 26.0293 1.12534 25.98 1.37735C25.9621 1.46917 25.9589 1.57622 25.8859 1.63444C25.8359 1.67429 25.7671 1.67859 25.703 1.67937C25.2025 1.6864 25.0361 1.66492 25.0474 1.43869C25.0888 0.613122 25.8394 0.18881 26.3207 0.0696428H26.3203Z" fill="#FFCE55"/>
    <path d="M6.30469 15.9056V16.4299C6.30469 16.4299 6.5735 16.8257 7.07517 16.9285C7.57684 17.0312 8.46923 17.1066 9.00958 16.9285C9.54954 16.7503 9.81991 16.5186 9.81991 16.5186L9.86406 16.0037L7.69249 16.3143L7.81908 15.9564L7.80931 15.3906L7.20371 15.4641L6.30469 15.906V15.9056Z" fill="#C9943F"/>
    <path d="M7.1537 15.2227C7.1537 15.2227 6.30547 15.5981 6.30469 15.9041C6.30391 16.3139 7.52488 16.5558 8.218 16.4796C8.91112 16.4038 9.86367 16.0021 9.86367 16.0021L9.12601 15.7579C9.12601 15.7579 8.54463 16.0385 7.92536 15.9677C7.30608 15.897 7.12909 15.799 7.26818 15.6474C7.40727 15.4958 7.80892 15.3891 7.80892 15.3891L7.15331 15.223L7.1537 15.2227Z" fill="#FFCE55"/>
    <path opacity="0.44" d="M18.4609 19.3894L27.0484 17.0475L27.2234 25.9357L27.7778 25.7033L27.468 16.125L18.4609 18.3196V19.3894Z" fill="#4F382F"/>
  </g>
  <defs>
    <clipPath id="clip0_2320_46927">
      <rect width="38.0021" height="32" fill="white"/>
    </clipPath>
  </defs>
</svg>
