<svg width="18" height="21" viewBox="0 0 18 21" fill="none" xmlns="http://www.w3.org/2000/svg">
<path fill-rule="evenodd" clip-rule="evenodd" d="M8.69125 0.725323C8.61727 0.757639 8.50762 0.831067 8.44763 0.888491C8.2378 1.08928 8.21236 1.18019 8.19164 1.80264L8.17242 2.37991L7.82062 2.45147C7.14193 2.58953 6.40946 2.90332 5.77046 3.32978C5.32039 3.63011 4.54689 4.41422 4.23828 4.88292C3.83099 5.50157 3.53948 6.19218 3.37792 6.92138C3.30913 7.23183 3.29756 7.47435 3.27235 9.13002C3.24106 11.185 3.2207 11.3959 2.98346 12.1192C2.69211 13.0075 2.25568 13.7017 1.53114 14.4293C0.903052 15.0601 0.832031 15.1948 0.832031 15.7559C0.832031 16.0998 0.843868 16.1678 0.93718 16.3593C1.14052 16.7768 1.54178 17.0828 1.99981 17.1697C2.29788 17.2263 15.7079 17.2236 16.015 17.1669C16.4562 17.0854 16.8576 16.7753 17.0602 16.3593C17.1535 16.1678 17.1654 16.0998 17.1654 15.7559C17.1654 15.1988 17.089 15.0504 16.5008 14.4653C16.0013 13.9685 15.7762 13.6885 15.5071 13.2297C15.1724 12.6589 14.9433 12.0351 14.8198 11.358C14.7652 11.0584 14.7475 10.6438 14.7249 9.13002C14.7 7.47183 14.6886 7.23229 14.6196 6.92138C14.3637 5.76847 13.8762 4.87869 13.0365 4.03205C12.2074 3.19602 11.2583 2.67149 10.1768 2.45147L9.82497 2.37991L9.80576 1.80264C9.78504 1.18019 9.7596 1.08936 9.54977 0.888414C9.32433 0.672509 8.96745 0.6047 8.69125 0.725323ZM6.00105 18.0797C6.00105 18.2082 6.24121 18.7872 6.40135 19.0449C7.06233 20.1085 8.34417 20.6809 9.54296 20.4477C10.3863 20.2837 11.0892 19.8119 11.5659 19.0898C11.7356 18.8329 11.9924 18.2349 11.9951 18.0905C11.9963 18.0265 11.8285 18.0227 8.9987 18.0227C6.38583 18.0227 6.00105 18.03 6.00105 18.0797Z" fill="#FA0C58"/>
</svg>
