<svg width="15" height="19" viewBox="0 0 15 19" fill="none" xmlns="http://www.w3.org/2000/svg">
<path fill-rule="evenodd" clip-rule="evenodd" d="M7.25962 0.463867C7.41049 0.463867 7.55558 0.536185 7.67036 0.643648L10.771 3.76465C11.0532 4.02892 11.0532 4.45606 10.771 4.72033C10.4887 4.98459 10.0325 4.98459 9.75025 4.72033L7.96921 2.83548L7.96921 12.2148H6.52548L6.52548 2.85914L4.79745 4.72033C4.5152 4.98459 4.05898 4.98459 3.77673 4.72033C3.49448 4.45606 3.49448 4.02892 3.77673 3.76465L6.8496 0.643648C6.96437 0.536185 7.10875 0.463867 7.25962 0.463867ZM9.64569 5.89783V7.25632H12.2307C12.5522 7.25632 12.8124 7.49551 12.8124 7.7887L12.8124 16.573C12.8124 16.8665 12.5524 17.1054 12.2307 17.1054H2.34153C2.01945 17.1054 1.75982 16.8668 1.75982 16.573L1.75982 7.7887C1.75982 7.49524 2.01974 7.25632 2.34153 7.25632H4.97799V5.89783H2.34153C1.20678 5.89783 0.286133 6.74411 0.286133 7.7887L0.286133 16.573C0.286133 17.618 1.20661 18.4639 2.34153 18.4639H12.2307C13.3652 18.4639 14.2861 17.6179 14.2861 16.573L14.2861 7.7887C14.2861 6.74426 13.365 5.89783 12.2307 5.89783H9.64569Z" fill="#F8F8FA"/>
</svg>
