<svg width="24" height="24" viewBox="0 0 24 24" fill="none" xmlns="http://www.w3.org/2000/svg">
  <rect width="12" height="12" fill="white" x="6" y="6"/>
  <path d="M12.0007 0.333344C9.69321 0.333344 7.43758 1.01758 5.519 2.29953C3.60043 3.58148 2.10508 5.40356 1.22206 7.53537C0.339039 9.66717 0.108 12.0129 0.558161 14.2761C1.00832 16.5392 2.11946 18.618 3.75108 20.2496C5.38269 21.8812 7.46149 22.9923 9.7246 23.4425C11.9877 23.8927 14.3335 23.6616 16.4653 22.7786C18.5971 21.8956 20.4192 20.4002 21.7011 18.4817C22.9831 16.5631 23.6673 14.3075 23.6673 12C23.6673 10.4679 23.3656 8.95083 22.7792 7.53537C22.1929 6.1199 21.3336 4.83378 20.2502 3.75043C19.1669 2.66708 17.8808 1.80772 16.4653 1.22142C15.0498 0.635111 13.5327 0.333344 12.0007 0.333344ZM17.0173 9.21167L11.6857 16.2117C11.577 16.3529 11.4374 16.4673 11.2776 16.5461C11.1179 16.625 10.9422 16.6662 10.764 16.6667C10.5868 16.6676 10.4117 16.6282 10.252 16.5514C10.0923 16.4746 9.95219 16.3624 9.84232 16.2233L6.99566 12.595C6.90143 12.474 6.83197 12.3356 6.79124 12.1877C6.7505 12.0398 6.7393 11.8854 6.75826 11.7331C6.77721 11.5809 6.82597 11.4339 6.90173 11.3006C6.9775 11.1672 7.07879 11.0501 7.19982 10.9558C7.44426 10.7655 7.75429 10.6802 8.06169 10.7184C8.2139 10.7374 8.36089 10.7862 8.49426 10.8619C8.62762 10.9377 8.74476 11.039 8.83899 11.16L10.7407 13.5867L15.1507 7.75334C15.2441 7.63077 15.3608 7.52782 15.494 7.45034C15.6273 7.37287 15.7745 7.3224 15.9272 7.30182C16.08 7.28123 16.2353 7.29094 16.3843 7.33038C16.5333 7.36982 16.6731 7.43822 16.7957 7.53168C16.9182 7.62513 17.0212 7.74182 17.0987 7.87506C17.1761 8.00831 17.2266 8.15551 17.2472 8.30827C17.2678 8.46102 17.2581 8.61633 17.2186 8.76533C17.1792 8.91433 17.1108 9.05411 17.0173 9.17667V9.21167Z" fill="#1ACC97"/>
</svg>
