<svg width="16" height="17" viewBox="0 0 16 17" fill="none" xmlns="http://www.w3.org/2000/svg">
  <path fill-rule="evenodd" clip-rule="evenodd" d="M3.05866 5.44993C3.35538 5.43015 3.61196 5.65465 3.63174 5.95138L3.96196 10.9046C4.02647 11.8723 4.07244 12.5456 4.17336 13.0522C4.27125 13.5436 4.4079 13.8037 4.60419 13.9873C4.80049 14.171 5.06912 14.29 5.56594 14.355C6.07812 14.422 6.753 14.4231 7.72283 14.4231H8.27806C9.2479 14.4231 9.92277 14.422 10.435 14.355C10.9318 14.29 11.2004 14.171 11.3967 13.9873C11.593 13.8037 11.7296 13.5436 11.8275 13.0522C11.9285 12.5456 11.9744 11.8723 12.0389 10.9046L12.3692 5.95138C12.3889 5.65465 12.6455 5.43015 12.9422 5.44993C13.239 5.46971 13.4635 5.72629 13.4437 6.02302L13.111 11.014C13.0496 11.9349 13 12.6788 12.8837 13.2626C12.7628 13.8695 12.5572 14.3764 12.1324 14.7737C11.7077 15.1711 11.1882 15.3426 10.5746 15.4228C9.98446 15.5 9.23891 15.5 8.31593 15.5H7.68497C6.76198 15.5 6.01644 15.5 5.42626 15.4228C4.81266 15.3426 4.29319 15.1711 3.86846 14.7737C3.44373 14.3764 3.23809 13.8695 3.11719 13.2626C3.0009 12.6788 2.95132 11.9349 2.88994 11.014L2.55721 6.02302C2.53743 5.72629 2.76193 5.46971 3.05866 5.44993Z" fill="#FF4F59"/>
  <path fill-rule="evenodd" clip-rule="evenodd" d="M6.81961 1.50003L6.7866 1.50001C6.63124 1.49991 6.49589 1.49983 6.36808 1.52024C5.86315 1.60087 5.42621 1.9158 5.19004 2.36932C5.13027 2.48412 5.08754 2.61256 5.03851 2.75997L5.02809 2.79129L4.95838 3.0004C4.94475 3.0413 4.94095 3.05257 4.93764 3.06171C4.81192 3.40928 4.48595 3.64422 4.11646 3.65358C4.10675 3.65383 4.09485 3.65387 4.05174 3.65387H1.89784C1.60045 3.65387 1.35938 3.89495 1.35938 4.19233C1.35938 4.48971 1.60045 4.73079 1.89784 4.73079L4.05789 4.73079L4.0699 4.73079H11.931L11.943 4.73079L14.103 4.73079C14.4004 4.73079 14.6415 4.48971 14.6415 4.19233C14.6415 3.89495 14.4004 3.65387 14.103 3.65387H11.9492C11.906 3.65387 11.8941 3.65383 11.8844 3.65358C11.5149 3.64422 11.189 3.40926 11.0632 3.06169C11.06 3.05262 11.0561 3.0411 11.0425 3.0004L10.9728 2.79129L10.9624 2.75996C10.9133 2.61254 10.8706 2.48411 10.8109 2.36932C10.5747 1.9158 10.1377 1.60087 9.63281 1.52024C9.505 1.49983 9.36966 1.49991 9.2143 1.50001L9.18128 1.50003H6.81961ZM5.95034 3.42803C5.92215 3.50597 5.88938 3.58134 5.8524 3.65387H10.1485C10.1115 3.58134 10.0787 3.50598 10.0506 3.42805L10.0228 3.34667L9.95115 3.13184C9.88569 2.93547 9.87063 2.89542 9.85568 2.86671C9.77695 2.71554 9.63131 2.61056 9.463 2.58369C9.43103 2.57858 9.38828 2.57695 9.18128 2.57695H6.81961C6.61262 2.57695 6.56987 2.57858 6.5379 2.58369C6.36959 2.61056 6.22394 2.71554 6.14522 2.86671C6.13027 2.89542 6.1152 2.93547 6.04974 3.13184L5.97809 3.3468C5.9673 3.37917 5.9589 3.40437 5.95034 3.42803Z" fill="#FF4F59"/>
</svg>
