<svg width="15" height="14" viewBox="0 0 15 14" fill="none" xmlns="http://www.w3.org/2000/svg">
<g clip-path="url(#clip0_19998_227310)">
<path fill-rule="evenodd" clip-rule="evenodd" d="M4.27591 1.18913C3.69791 1.2821 3.19418 1.52808 2.80638 1.90673C2.56201 2.14531 2.24755 2.60863 2.18423 2.82348C2.15759 2.9139 2.14397 2.91587 1.55226 2.91587C0.98193 2.91587 0.93523 2.92199 0.731524 3.02358C0.190084 3.29358 0.0858922 3.96263 0.517927 4.39495C0.759757 4.63698 0.930593 4.68158 1.61644 4.68178L2.142 4.68199L2.30311 4.99601C2.59907 5.57279 3.15282 6.0543 3.77087 6.27227C4.16778 6.41222 4.80225 6.44499 5.21976 6.34713C5.93716 6.17893 6.61837 5.64744 6.94634 5.00003L7.10745 4.68199L10.2701 4.68178C13.8701 4.68158 13.7327 4.69299 14.0156 4.37134C14.4094 3.92362 14.2932 3.28417 13.7706 3.02358L13.5546 2.91587H10.3235H7.09247L7.06522 2.82348C7.0019 2.60863 6.68744 2.14531 6.44306 1.90673C5.89223 1.36891 4.99832 1.07292 4.27591 1.18913ZM9.24185 7.67074C8.56089 7.83549 7.87504 8.38053 7.55582 9.01074L7.39471 9.32878L4.24279 9.32899C2.05861 9.32911 1.03499 9.34324 0.908885 9.37502C0.801943 9.40196 0.650969 9.48774 0.542672 9.58317C0.0836761 9.9874 0.180236 10.7123 0.729554 10.9862L0.947541 11.0949H4.17861H7.40968L7.43693 11.1873C7.49968 11.4001 7.81365 11.8644 8.05232 12.0973C8.34643 12.3843 8.82373 12.6553 9.22084 12.7607C9.5729 12.8542 10.1828 12.854 10.534 12.7604C10.9538 12.6485 11.3997 12.3945 11.7016 12.0953C11.9506 11.8486 12.2553 11.3997 12.3179 11.1873C12.3446 11.0969 12.3582 11.0949 12.9499 11.0949C13.5202 11.0949 13.5669 11.0888 13.7706 10.9872C14.2932 10.7266 14.4094 10.0871 14.0156 9.63943C13.7925 9.38574 13.5886 9.32919 12.8964 9.32899L12.3602 9.32878L12.199 9.01074C11.8751 8.37117 11.1903 7.83237 10.493 7.6684C10.1625 7.59071 9.56818 7.59182 9.24185 7.67074Z" fill="#161616"/>
</g>
<defs>
<clipPath id="clip0_19998_227310">
<rect width="14" height="14" fill="white" transform="translate(0.25)"/>
</clipPath>
</defs>
</svg>
