<svg width="24" height="24" viewBox="0 0 24 24" fill="none" xmlns="http://www.w3.org/2000/svg">
<g clip-path="url(#clip0_21558_140898)">
<path d="M15.2995 13.8986C15.2995 12.149 14.2495 11.549 12.1495 11.2982C10.6495 11.0978 10.3495 10.6982 10.3495 9.99863C10.3495 9.29903 10.8499 8.84903 11.8495 8.84903C12.7495 8.84903 13.2499 9.14903 13.4995 9.89903C13.5499 10.049 13.6999 10.1486 13.8499 10.1486H14.6503C14.8507 10.1486 15.0007 9.99863 15.0007 9.79823V9.74783C14.8003 8.64743 13.9003 7.79783 12.7507 7.69823V6.49823C12.7507 6.29783 12.6007 6.14783 12.3511 6.09863H11.6011C11.4007 6.09863 11.2507 6.24863 11.2015 6.49823V7.64783C9.70153 7.84823 8.75114 8.84783 8.75114 10.0982C8.75114 11.7482 9.75073 12.3986 11.8507 12.6482C13.2511 12.8978 13.7011 13.1978 13.7011 13.9982C13.7011 14.7986 13.0015 15.3482 12.0511 15.3482C10.7515 15.3482 10.3015 14.7986 10.1515 14.0486C10.1011 13.8482 9.95114 13.7486 9.80114 13.7486H8.95153C8.75113 13.7486 8.60114 13.8986 8.60114 14.099V14.1494C8.80154 15.3998 9.60073 16.2998 11.2507 16.5494V17.7494C11.2507 17.9498 11.4007 18.0998 11.6503 18.149H12.4003C12.6007 18.149 12.7507 17.999 12.7999 17.7494V16.5494C14.2987 16.2986 15.2995 15.2486 15.2995 13.8986Z" fill="url(#paint0_linear_21558_140898)"/>
<path d="M9.44932 19.1493C5.54936 17.7489 3.54897 13.3988 4.99976 9.54923C5.74975 7.44922 7.39974 5.84961 9.44932 5.09961C9.64972 5.00001 9.74932 4.85001 9.74932 4.59921V3.8996C9.74932 3.6992 9.64972 3.5492 9.44932 3.5C9.39892 3.5 9.29932 3.5 9.24892 3.5504C4.49937 5.05041 1.89899 10.1 3.39898 14.8509C4.29897 17.6505 6.44935 19.8009 9.24892 20.7009C9.44932 20.8005 9.64852 20.7009 9.69892 20.5005C9.74932 20.4501 9.74932 20.4009 9.74932 20.3001V19.6005C9.74932 19.4493 9.59932 19.2501 9.44932 19.1493ZM14.7485 3.5492C14.5481 3.4496 14.3489 3.5492 14.2985 3.7496C14.2481 3.8 14.2481 3.8492 14.2481 3.95V4.64961C14.2481 4.85001 14.3981 5.04921 14.5481 5.15001C18.448 6.55041 20.4484 10.9004 18.9976 14.7501C18.2476 16.8501 16.5977 18.4497 14.5481 19.1997C14.3477 19.2993 14.2481 19.4493 14.2481 19.7001V20.3997C14.2481 20.6001 14.3477 20.7501 14.5481 20.7993C14.5985 20.7993 14.6981 20.7993 14.7485 20.7489C19.498 19.2489 22.0984 14.1993 20.5984 9.44843C19.6984 6.59961 17.4988 4.4492 14.7485 3.5492Z" fill="url(#paint1_linear_21558_140898)"/>
</g>
<defs>
<linearGradient id="paint0_linear_21558_140898" x1="15.0091" y1="8.00028" x2="7.20433" y2="12.1405" gradientUnits="userSpaceOnUse">
<stop offset="0.0733" stop-color="#F46881"/>
<stop offset="0.083" stop-color="#F36682"/>
<stop offset="0.2596" stop-color="#E74596"/>
<stop offset="0.407" stop-color="#E031A2"/>
<stop offset="0.5065" stop-color="#DD2AA6"/>
<stop offset="0.8882" stop-color="#5210E2"/>
</linearGradient>
<linearGradient id="paint1_linear_21558_140898" x1="20.2403" y1="6.22996" x2="6.7079" y2="19.7033" gradientUnits="userSpaceOnUse">
<stop offset="0.0733" stop-color="#F46881"/>
<stop offset="0.083" stop-color="#F36682"/>
<stop offset="0.2596" stop-color="#E74596"/>
<stop offset="0.407" stop-color="#E031A2"/>
<stop offset="0.5065" stop-color="#DD2AA6"/>
<stop offset="0.8882" stop-color="#5210E2"/>
</linearGradient>
<clipPath id="clip0_21558_140898">
<rect width="24" height="24" fill=""/>
</clipPath>
</defs>
</svg>
