<svg width="76" height="75" viewBox="0 0 76 75" fill="none" xmlns="http://www.w3.org/2000/svg">
<g clip-path="url(#clip0_7150_74371)">
<path opacity="0.5" fill-rule="evenodd" clip-rule="evenodd" d="M34.6476 33.2898C36.7682 38.814 37.8285 41.5762 40.0664 43.1491C40.2459 43.2753 40.43 43.3948 40.6183 43.5075C42.9655 44.9122 45.9201 44.7574 51.8292 44.4477C57.7384 44.138 60.693 43.9832 62.8805 42.3408C63.0559 42.209 63.2265 42.0709 63.3919 41.9266C65.4532 40.1284 66.2189 37.2706 67.7504 31.555C69.2819 25.8393 70.0477 22.9815 69.1617 20.3936C69.0906 20.186 69.0119 19.981 68.9258 19.7792C67.8526 17.2631 65.3713 15.6517 60.4086 12.429C55.446 9.20619 52.9647 7.5948 50.2296 7.63772C50.0102 7.64117 49.791 7.65265 49.5724 7.67216C46.8478 7.91537 44.5486 9.77729 39.95 13.5011C35.3514 17.225 33.0521 19.0869 32.2478 21.7014C32.1832 21.9111 32.1264 22.1232 32.0774 22.3371C31.4668 25.0035 32.5271 27.7656 34.6476 33.2898Z" fill="url(#paint0_linear_7150_74371)"/>
</g>
<g filter="url(#filter0_b_7150_74371)">
<path fill-rule="evenodd" clip-rule="evenodd" d="M5.19446 20.1697C4.94331 19.1651 3.92531 18.5543 2.92069 18.8054C1.91607 19.0566 1.30527 20.0746 1.55643 21.0792L4.18579 31.5967L6.63281 41.8067C7.6733 46.1481 8.49229 49.5654 9.46415 52.2201C10.4611 54.9432 11.6836 57.0573 13.645 58.6784C13.8143 58.8183 13.9867 58.9543 14.1622 59.0863C16.1959 60.6159 18.5367 61.3121 21.4172 61.6468C24.2252 61.9732 27.7392 61.9732 32.2035 61.9731H33.6871C37.5497 61.9732 40.5904 61.9732 43.04 61.7255C45.5489 61.4717 47.6134 60.9452 49.4712 59.782C50.3524 59.2303 51.1711 58.5846 51.9131 57.8562C53.4772 56.3207 54.4704 54.4358 55.3019 52.0551C56.1137 49.7307 56.8224 46.7738 57.7226 43.0177L57.7749 42.7995C58.3177 40.5348 58.7652 38.668 58.938 37.1558C59.1174 35.5863 59.0442 34.0919 58.2607 32.7275C57.9257 32.1439 57.5067 31.6126 57.0173 31.1508C55.873 30.0709 54.4368 29.6514 52.8687 29.46C51.3578 29.2757 49.4384 29.2757 47.1094 29.2758L7.47098 29.2758L5.19446 20.1697Z" fill="#8C8C94" fill-opacity="0.4"/>
<path d="M24.4281 70.6245C25.8814 70.6245 27.0596 69.4463 27.0596 67.9929C27.0596 66.5395 25.8814 65.3613 24.4281 65.3613C22.9747 65.3613 21.7965 66.5395 21.7965 67.9929C21.7965 69.4463 22.9747 70.6245 24.4281 70.6245Z" fill="#8C8C94" fill-opacity="0.4"/>
<path d="M40.2175 70.6245C41.6709 70.6245 42.8491 69.4463 42.8491 67.9929C42.8491 66.5395 41.6709 65.3613 40.2175 65.3613C38.7642 65.3613 37.586 66.5395 37.586 67.9929C37.586 69.4463 38.7642 70.6245 40.2175 70.6245Z" fill="#8C8C94" fill-opacity="0.4"/>
</g>
<path d="M24.0005 50.624C24.0005 49.5885 24.84 48.749 25.8755 48.749H40.8755C41.911 48.749 42.7505 49.5885 42.7505 50.624C42.7505 51.6596 41.911 52.499 40.8755 52.499H25.8755C24.84 52.499 24.0005 51.6596 24.0005 50.624Z" fill="#F8F8FA"/>
<defs>
<filter id="filter0_b_7150_74371" x="-22.5" y="-5.25098" width="105.519" height="99.875" filterUnits="userSpaceOnUse" color-interpolation-filters="sRGB">
<feFlood flood-opacity="0" result="BackgroundImageFix"/>
<feGaussianBlur in="BackgroundImageFix" stdDeviation="12"/>
<feComposite in2="SourceAlpha" operator="in" result="effect1_backgroundBlur_7150_74371"/>
<feBlend mode="normal" in="SourceGraphic" in2="effect1_backgroundBlur_7150_74371" result="shape"/>
</filter>
<linearGradient id="paint0_linear_7150_74371" x1="55.0638" y1="30.4949" x2="36.6294" y2="16.1608" gradientUnits="userSpaceOnUse">
<stop stop-color="#9A9A9E"/>
<stop offset="1" stop-color="#E0E0E7"/>
</linearGradient>
<clipPath id="clip0_7150_74371">
<rect width="43.082" height="43.082" fill="white" transform="translate(23.1138 41.8955) rotate(-75)"/>
</clipPath>
</defs>
</svg>
