<svg width="16" height="16" viewBox="0 0 16 16" fill="none" xmlns="http://www.w3.org/2000/svg">
<path fill-rule="evenodd" clip-rule="evenodd" d="M2.88522 1.04709C1.87195 0.957087 1.02456 1.80448 1.11456 2.81774L1.33875 5.34175L0.348398 7.6727C-0.0491796 8.60845 0.495834 9.67718 1.48721 9.90584L3.95672 10.4754L5.86865 12.1402C6.6362 12.8085 7.82043 12.6216 8.34313 11.7497L9.64518 9.5777L11.8172 8.27566C12.6891 7.75295 12.876 6.56872 12.2077 5.80118L10.5429 3.88924L9.97331 1.41974C9.74466 0.428359 8.67592 -0.116651 7.74017 0.280927L5.40922 1.27128L2.88522 1.04709ZM2.74252 2.67504L5.26652 2.89924C5.53389 2.92298 5.80291 2.88053 6.04983 2.77562L8.38077 1.78527L8.95034 4.25477C9.01068 4.51636 9.13449 4.75915 9.31084 4.96168L10.9756 6.87361L8.80364 8.17566C8.57356 8.31358 8.38106 8.50609 8.24313 8.73616L6.94109 10.9082L5.02915 9.24336C4.82662 9.06701 4.58384 8.9432 4.32224 8.88287L1.85274 8.3133L2.84309 5.98236C2.948 5.73544 2.99046 5.46642 2.96671 5.19905L2.74252 2.67504ZM12.457 11.2345C12.1377 10.9152 11.6203 10.9149 11.3013 11.2338C10.9824 11.5528 10.9827 12.0702 11.302 12.3895L14.5726 15.6601C14.892 15.9795 15.4094 15.9798 15.7283 15.6608C16.0473 15.3419 16.0469 14.8245 15.7276 14.5051L12.457 11.2345Z" fill="#454545"/>
</svg>
