<svg width="18" height="17" viewBox="0 0 18 17" fill="none" xmlns="http://www.w3.org/2000/svg">
<path fill-rule="evenodd" clip-rule="evenodd" d="M0.666748 3.6047C0.666748 5.1579 1.72906 6.46298 3.16675 6.83301V10.3764C1.72906 10.7464 0.666748 12.0515 0.666748 13.6047C0.666748 15.4456 2.15913 16.938 4.00008 16.938C5.55328 16.938 6.85836 15.8757 7.2284 14.438H10.7718C11.1418 15.8757 12.4469 16.938 14.0001 16.938C15.841 16.938 17.3334 15.4456 17.3334 13.6047C17.3334 12.0515 16.2711 10.7464 14.8334 10.3764V6.83301C16.2711 6.46298 17.3334 5.1579 17.3334 3.6047C17.3334 1.76375 15.841 0.271362 14.0001 0.271362C12.4469 0.271362 11.1418 1.33367 10.7718 2.77136H7.2284C6.85836 1.33367 5.55328 0.271362 4.00008 0.271362C2.15913 0.271362 0.666748 1.76375 0.666748 3.6047ZM5.66675 3.6047C5.66675 2.68422 4.92056 1.93803 4.00008 1.93803C3.07961 1.93803 2.33341 2.68422 2.33341 3.6047C2.33341 4.52517 3.07961 5.27136 4.00008 5.27136C4.92056 5.27136 5.66675 4.52517 5.66675 3.6047ZM7.2284 4.43803H10.7718C11.0732 5.60937 11.9954 6.53153 13.1667 6.83301V10.3764C11.9954 10.6779 11.0732 11.6 10.7718 12.7714H7.2284C6.92692 11.6 6.00475 10.6779 4.83342 10.3764V6.83301C6.00475 6.53153 6.92692 5.60937 7.2284 4.43803ZM12.3334 3.6047C12.3334 4.52517 13.0796 5.27136 14.0001 5.27136C14.9206 5.27136 15.6667 4.52517 15.6667 3.6047C15.6667 2.68422 14.9206 1.93803 14.0001 1.93803C13.0796 1.93803 12.3334 2.68422 12.3334 3.6047ZM4.00008 11.938C4.92056 11.938 5.66675 12.6842 5.66675 13.6047C5.66675 14.5252 4.92056 15.2714 4.00008 15.2714C3.07961 15.2714 2.33341 14.5252 2.33341 13.6047C2.33341 12.6842 3.07961 11.938 4.00008 11.938ZM14.0001 15.2714C13.0796 15.2714 12.3334 14.5252 12.3334 13.6047C12.3334 12.6842 13.0796 11.938 14.0001 11.938C14.9206 11.938 15.6667 12.6842 15.6667 13.6047C15.6667 14.5252 14.9206 15.2714 14.0001 15.2714Z" fill="#454545"/>
</svg>
