<svg width="18" height="17" viewBox="0 0 18 17" fill="none" xmlns="http://www.w3.org/2000/svg">
<path fill-rule="evenodd" clip-rule="evenodd" d="M0.666748 1.1047C0.666748 0.644458 1.04398 0.271362 1.50931 0.271362H3.30625C4.14485 0.271362 4.85585 0.881245 4.97444 1.70233L5.24922 3.6047H15.6477C16.7111 3.6047 17.5087 4.56691 17.3001 5.59822L15.952 12.2649C15.7945 13.0439 15.1029 13.6047 14.2996 13.6047H6.45288C5.61428 13.6047 4.90329 12.9948 4.78469 12.1737L3.68437 4.55588L3.30625 1.93803H1.50931C1.04398 1.93803 0.666748 1.56493 0.666748 1.1047ZM5.48995 5.27136L6.45288 11.938L14.2996 11.938L15.6477 5.27136H5.48995ZM7.40727 15.688C7.40727 16.3784 6.84142 16.938 6.14342 16.938C5.44542 16.938 4.87957 16.3784 4.87957 15.688C4.87957 14.9977 5.44542 14.438 6.14342 14.438C6.84142 14.438 7.40727 14.9977 7.40727 15.688ZM14.5691 16.938C15.2671 16.938 15.8329 16.3784 15.8329 15.688C15.8329 14.9977 15.2671 14.438 14.5691 14.438C13.8711 14.438 13.3052 14.9977 13.3052 15.688C13.3052 16.3784 13.8711 16.938 14.5691 16.938Z" fill="#454545"/>
</svg>
