<svg xmlns="http://www.w3.org/2000/svg" width="28" height="24" fill="none">
  <g clip-path="url(#a)">
    <path fill="#936C58" d="M5.438.531.078 6.386l16.47 3.488 1.794-7.488L5.438.53Z"/>
    <path fill="#4F382F"
          d="M5.713.957.353 6.812l16.47 3.488 1.794-7.489L5.713.957Zm10.372 8.145L1.706 6.4l4.205-4.781 11.452 1.78-1.278 5.703Z"
          opacity=".44"/>
    <path fill="#705143" d="m16.547 9.874 1.795-7.488 5.263-.801 4.041 5.994-11.099 2.295Z"/>
    <path fill="#4F382F"
          d="m23.506 2.105-5.263.8-1.795 7.49 11.099-2.296-4.041-5.994Zm-4.462 1.448 4.258-.647 2.706 4.714-8.135 1.771 1.171-5.838Z"
          opacity=".44"/>
    <path fill="#705143" d="M16.5 9.928 27.573 7.5l.35 10.853L16.5 23.21V9.928Z"/>
    <path fill="#4F382F"
          d="M17.76 12.927a.423.423 0 0 0 .49-.078.422.422 0 0 0 .056-.494c.4.12.836.117 1.234-.007a1.624 1.624 0 0 0-.751-.817c.153.011.294-.12.323-.271a.481.481 0 0 0-.149-.418.927.927 0 0 0-.403-.215c-.32-.092-.691-.082-.953.123-.25.195-.353.533-.341.85.013.346.144 1.14.493 1.327ZM17.545 19.605c.067-.228.225-.484.462-.47.21.015.341.24.379.447.213-.332.54-.59.912-.72.071.364.03.749-.117 1.09.177-.082.398-.137.555-.023.138.102.17.298.145.468-.056.39-.333.713-.637.966-.295.245-.636.452-1.015.512a.758.758 0 0 1-.379-.022c-.207-.075-.345-.28-.4-.494-.066-.265-.002-.505.005-.766.01-.343-.01-.653.09-.988Z"
          opacity=".44"/>
    <path fill="#BA863C"
          d="M17.76 12.794a.423.423 0 0 0 .49-.077.422.422 0 0 0 .056-.495c.4.12.836.117 1.234-.007a1.624 1.624 0 0 0-.751-.816c.153.01.294-.12.323-.272a.48.48 0 0 0-.149-.418.929.929 0 0 0-.403-.215c-.32-.091-.691-.082-.953.123-.25.196-.353.533-.341.85.013.347.144 1.14.493 1.328ZM17.293 19.605c.068-.228.225-.484.463-.47.21.015.34.24.378.447.214-.332.54-.59.913-.72.071.364.03.749-.117 1.09.176-.082.398-.137.555-.023.138.102.17.298.145.468-.056.39-.334.713-.637.966-.295.245-.636.452-1.015.512a.758.758 0 0 1-.38-.022c-.206-.075-.344-.28-.398-.494-.067-.265-.003-.505.004-.766.009-.343-.01-.653.09-.988Z"/>
    <path fill="#4F382F"
          d="M26.26 18.346c-.196.08-.404.148-.615.13-.21-.017-.425-.137-.498-.336-.073-.199.05-.462.261-.487a1.629 1.629 0 0 1-.938-.74c.387-.099.806-.07 1.176.079-.195-.171-.198-.502-.034-.703.164-.2.457-.27.707-.202.25.068.457.255.591.477.225.372.257.854.083 1.252-.174.399-.55.703-.976.79-.052.011-.135-.019-.108-.065l.35-.195h.001ZM25.604 8.83c-.227.027-.448.109-.638.235-.176.117-.335.293-.342.504-.007.21.214.423.408.342-.235.357-.338.8-.285 1.224.45-.076.864-.349 1.111-.733-.03.15.086.303.232.344a.475.475 0 0 0 .424-.112.999.999 0 0 0 .253-.376c.113-.264.176-.549.183-.836a.885.885 0 0 0-.075-.43c-.131-.254-.44-.365-.726-.376a1.62 1.62 0 0 0-.9.233l.355-.02Z"
          opacity=".44"/>
    <path fill="#BA863C"
          d="M25.71 8.586c-.228.028-.448.109-.639.236-.175.116-.335.292-.341.503-.007.21.213.423.408.342-.235.357-.339.8-.286 1.224.45-.076.865-.349 1.112-.733-.03.15.085.303.232.344a.475.475 0 0 0 .423-.112.997.997 0 0 0 .253-.376c.114-.263.176-.549.184-.836a.884.884 0 0 0-.076-.43c-.13-.254-.44-.365-.726-.376a1.62 1.62 0 0 0-.9.233l.355-.019ZM26.366 18.241c-.196.08-.404.148-.615.13-.211-.017-.425-.137-.498-.336-.073-.198.05-.462.26-.486a1.628 1.628 0 0 1-.937-.741 1.91 1.91 0 0 1 1.176.079c-.195-.171-.199-.502-.034-.703.163-.2.457-.27.707-.201.25.068.457.254.591.476.225.372.257.855.083 1.253-.175.398-.55.702-.976.79-.053.01-.135-.02-.108-.066l.35-.195h.001Z"/>
    <path fill="#936C58" d="M.523 6.657v9.563L16.48 23.42V10.136L.523 6.657Z"/>
    <path fill="#4F382F"
          d="M2.174 14.742c.17.123.196.204.25.407.37-.242.675-.322 1.115-.355-.03.349-.166.717-.417.971.19-.008.253-.044.413.059.19.122.264.364.287.589.032.322-.022.668-.227.918-.03.037-.066.073-.112.084a.246.246 0 0 1-.097-.002 9.677 9.677 0 0 1-1.837-.476c-.11-.04-.224-.086-.293-.18-.066-.088-.08-.204-.09-.313-.041-.395-.161-1.016.07-1.373.187-.29.612-.564.938-.329ZM13.188 19.93a1.875 1.875 0 0 1-.213-1.128c.425-.078.884.072 1.181.384-.02-.337.338-.642.668-.566.36.082.536.486.614.846.086.393.121.796.144 1.198.013.225.02.459-.067.666-.327.767-1.358.547-1.868.126-.317-.262-1.16-1.24-.459-1.527ZM13.342 11.102c-.15.294-.016.719.3.819-.308.196-.56.475-.724.8.402.062.822-.008 1.182-.196a.71.71 0 0 0 .444.639.71.71 0 0 0 .757-.178c.154-.166.216-.396.264-.618.094-.439.142-.938-.123-1.3-.393-.539-1.77-.612-2.1.034ZM2.156 10.11a.522.522 0 0 0 .468-.443c.216.226.461.424.728.587a3.172 3.172 0 0 0-.162-.863.593.593 0 0 0 .478-.68.137.137 0 0 0-.033-.072.155.155 0 0 0-.075-.032l-1.937-.453c-.036.482-.331 2.015.533 1.957Z"
          opacity=".44"/>
    <path fill="#C9943F"
          d="M2.022 14.742c.171.123.196.204.25.407.37-.242.675-.322 1.116-.355-.03.349-.166.717-.418.971.19-.008.253-.044.413.059.19.122.265.364.287.589.032.322-.022.668-.227.918-.03.037-.066.073-.112.084a.246.246 0 0 1-.097-.002 9.677 9.677 0 0 1-1.837-.476c-.109-.04-.223-.086-.293-.18-.065-.088-.079-.204-.09-.313-.04-.395-.16-1.016.07-1.373.188-.29.612-.564.939-.329ZM13.408 19.93a1.876 1.876 0 0 1-.213-1.128c.425-.078.884.072 1.181.384-.02-.337.338-.642.668-.566.36.082.536.486.614.846.086.393.121.796.144 1.198.013.225.02.459-.067.666-.326.767-1.358.547-1.868.126-.318-.262-1.16-1.24-.459-1.527ZM13.443 10.9c-.151.295-.016.72.299.82-.307.195-.56.475-.723.8a1.94 1.94 0 0 0 1.18-.197.71.71 0 0 0 .445.639.71.71 0 0 0 .757-.177c.153-.167.216-.396.263-.618.095-.44.143-.938-.123-1.301-.392-.538-1.769-.611-2.1.035h.002ZM1.952 9.777a.522.522 0 0 0 .468-.443c.216.226.46.424.727.587a3.172 3.172 0 0 0-.16-.864.593.593 0 0 0 .477-.68.137.137 0 0 0-.033-.07.155.155 0 0 0-.075-.034L1.42 7.821c-.036.482-.331 2.015.533 1.956Z"/>
    <path fill="#C6923E"
          d="M27.646 7.579 16.547 9.874 16.5 24l11.422-5.086-.276-11.335Zm-.77 10.637L17.69 22.11V10.95l8.955-2.182.23 9.448ZM1.037 16.443l.394-.267V7.828l-.394-.091v8.706Z"/>
    <path fill="#FFCE55" d="m1.431 16.176 13.819 5.289v.645L1.037 16.444l.394-.267Z"/>
    <path fill="#E5AC45" d="m26.876 18.216-.23-9.448-.362.088.296 9.138.296.222Z"/>
    <path fill="#FFCE55" d="m17.691 21.512 8.89-3.518.295.222-9.185 3.894v-.598Z"/>
    <path fill="#4F382F"
          d="M6.235 11.633c-.262.318-.928.437-1.279.22-.01.41.308.87.633 1.12.187.145.537.203.772.233.234.031.493-.045.635-.234-.112.44-.022.912.162 1.328.184.416.272.898.543 1.263.732-.38 1.239-1.218 1.078-2.027.139.414.642.563 1.076.607.435.045.886-.184 1.106-.56-.405-.19-.842-.411-1.03-.818-.128-.274-.119-.59-.107-.892.025-.657.118-1.464.143-2.12.002-.06-2.315-.296-2.529-.338-.196-.039-.935-.295-1.061-.13-.118.153.12 2.03-.142 2.348Z"
          opacity=".44"/>
    <path fill="#E5AC45"
          d="M6.032 11.314c-.276.306-.775.433-1.116.2-.03.409.233.786.546 1.052.18.153.388.285.621.327.233.041.495-.022.646-.204-.132.434-.065.91.1 1.334.163.424.419.805.672 1.183.75-.345 1.22-1.214 1.098-2.03.12.42.5.754.931.819.432.065.893-.142 1.131-.509-.396-.209-.822-.45-.99-.864-.115-.28-.091-.596-.065-.897l.169-1.965c.004-.059-2.224-.551-2.436-.604-.193-.048-.92-.34-1.053-.18-.125.148.024 2.033-.253 2.339Z"/>
    <path fill="#4F382F" d="M2.003 16.395V8.501L15.25 12.09v-1.053L1.43 7.828v8.348l.572.219Z" opacity=".44"/>
    <path fill="#E5AC45"
          d="M.078 6.386.265 17.14 16.5 24l.047-14.126L.077 6.386ZM15.25 22.111 1.037 16.443V7.737l14.213 3.3v11.074Z"/>
    <path fill="#4F382F"
          d="M1.04 7.1c0 .21-.137.382-.306.382-.17 0-.307-.171-.307-.382 0-.21.138-.381.307-.381.17 0 .307.17.307.381Z"
          opacity=".44"/>
    <path fill="#FFCE55"
          d="M.62 7.42c.17 0 .307-.171.307-.382 0-.21-.137-.381-.307-.381-.169 0-.306.17-.306.381 0 .21.137.381.306.381Z"/>
    <path fill="#fff"
          d="M.428 6.877a.205.205 0 0 0-.028.12.12.12 0 0 0 .069.098c.01.005.02.007.031.005.031-.005.047-.037.065-.062a.183.183 0 0 1 .09-.066c.022-.007.046-.01.062-.026a.067.067 0 0 0 .016-.059.145.145 0 0 0-.025-.057c-.079-.114-.223-.055-.28.047Z"/>
    <path fill="#4F382F"
          d="M2.499 8.793c0 .148-.097.269-.217.269s-.216-.12-.216-.27c0-.148.097-.269.216-.269.12 0 .217.12.217.27Z"
          opacity=".44"/>
    <path fill="#FFCE55"
          d="M2.418 8.749c0 .149-.097.27-.216.27-.12 0-.217-.121-.217-.27 0-.149.097-.27.217-.27s.216.121.216.27Z"/>
    <path fill="#fff"
          d="M2.066 8.635a.146.146 0 0 0-.02.085c.003.03.021.058.048.07a.046.046 0 0 0 .023.003c.021-.004.032-.027.046-.044a.128.128 0 0 1 .063-.046c.015-.005.032-.008.044-.02a.048.048 0 0 0 .011-.04.103.103 0 0 0-.018-.04c-.055-.081-.157-.04-.197.032Z"/>
    <path fill="#4F382F"
          d="M2.665 15.81c0 .15-.097.27-.217.27s-.217-.12-.217-.27c0-.148.097-.268.217-.268s.217.12.217.269Z"
          opacity=".44"/>
    <path fill="#FFCE55"
          d="M2.584 15.767c0 .149-.097.27-.216.27-.12 0-.217-.121-.217-.27 0-.149.097-.269.217-.269s.216.12.216.27Z"/>
    <path fill="#fff"
          d="M2.232 15.654a.148.148 0 0 0-.02.085c.003.029.021.058.049.068a.047.047 0 0 0 .022.004c.022-.004.033-.027.046-.044a.129.129 0 0 1 .063-.046c.015-.005.032-.007.044-.019a.048.048 0 0 0 .011-.041.103.103 0 0 0-.018-.04c-.055-.08-.157-.04-.197.033Z"/>
    <path fill="#4F382F"
          d="M14.666 20.257c0 .224-.147.405-.327.405-.18 0-.326-.181-.326-.405 0-.224.146-.405.326-.405.18 0 .327.181.327.405Z"
          opacity=".44"/>
    <path fill="#FFCE55"
          d="M14.545 20.191c0 .224-.146.405-.326.405-.18 0-.326-.18-.326-.405 0-.224.146-.405.326-.405.18 0 .326.181.326.405Z"/>
    <path fill="#fff"
          d="M14.015 20.02a.216.216 0 0 0-.03.128.126.126 0 0 0 .073.104c.01.004.022.006.033.004.033-.004.05-.04.07-.066a.196.196 0 0 1 .095-.07c.022-.007.048-.01.065-.028a.071.071 0 0 0 .018-.061.146.146 0 0 0-.027-.06c-.083-.122-.237-.06-.297.049Z"/>
    <path fill="#4F382F"
          d="M14.969 11.838c0 .224-.146.405-.326.405-.18 0-.326-.181-.326-.405 0-.224.146-.405.326-.405.18 0 .326.181.326.405Z"
          opacity=".44"/>
    <path fill="#FFCE55"
          d="M14.848 11.772c0 .224-.146.405-.326.405-.18 0-.326-.18-.326-.405 0-.224.146-.405.326-.405.18 0 .326.181.326.405Z"/>
    <path fill="#fff"
          d="M14.319 11.601a.215.215 0 0 0-.031.128.126.126 0 0 0 .073.104c.01.004.022.006.034.005.032-.005.05-.04.069-.067a.196.196 0 0 1 .095-.069c.023-.008.048-.012.066-.028a.073.073 0 0 0 .017-.062.148.148 0 0 0-.027-.06c-.083-.122-.236-.06-.296.049Z"/>
    <path fill="#4F382F"
          d="M18.654 11.518c0 .224-.145.405-.326.405-.18 0-.326-.18-.326-.405 0-.224.146-.405.326-.405.18 0 .326.181.326.405Z"
          opacity=".44"/>
    <path fill="#E5AC45"
          d="M18.534 11.452c0 .224-.146.405-.326.405-.18 0-.327-.18-.327-.405 0-.224.146-.405.326-.405.18 0 .327.182.327.405Z"/>
    <path fill="#FFCE55"
          d="M18.004 11.281a.215.215 0 0 0-.03.128.126.126 0 0 0 .073.104c.01.004.022.007.033.005.033-.005.05-.04.069-.067a.195.195 0 0 1 .095-.069c.023-.007.049-.011.066-.028a.072.072 0 0 0 .018-.062.146.146 0 0 0-.027-.06c-.083-.122-.237-.06-.297.05Z"/>
    <path fill="#4F382F"
          d="M18.463 20.814c.18 0 .326-.181.326-.405 0-.224-.146-.405-.326-.405-.18 0-.326.181-.326.405 0 .224.146.405.326.405Z"
          opacity=".44"/>
    <path fill="#E5AC45"
          d="M18.669 20.343c0 .224-.146.405-.327.405-.18 0-.326-.181-.326-.405 0-.224.146-.405.326-.405.18 0 .327.181.327.405Z"/>
    <path fill="#FFCE55"
          d="M18.139 20.171a.215.215 0 0 0-.03.128.126.126 0 0 0 .072.104c.01.004.023.007.034.005.032-.005.05-.04.069-.066a.196.196 0 0 1 .095-.07c.023-.007.049-.011.066-.028a.073.073 0 0 0 .017-.062.148.148 0 0 0-.026-.06c-.084-.121-.237-.06-.297.05Z"/>
    <path fill="#4F382F"
          d="M25.776 10.036c.167 0 .302-.168.302-.375s-.135-.374-.302-.374c-.166 0-.301.167-.301.374s.135.375.301.375Z"
          opacity=".44"/>
    <path fill="#E5AC45"
          d="M25.966 9.6c0 .207-.135.375-.302.375-.166 0-.301-.168-.301-.375s.135-.375.302-.375c.166 0 .301.168.301.375Z"/>
    <path fill="#FFCE55"
          d="M25.476 9.442a.202.202 0 0 0-.028.118c.004.04.03.08.068.096.01.004.02.006.03.004.03-.004.047-.036.064-.06a.18.18 0 0 1 .089-.065c.021-.007.044-.01.06-.026a.066.066 0 0 0 .017-.057.14.14 0 0 0-.025-.056c-.077-.112-.22-.054-.275.046Z"/>
    <path fill="#4F382F"
          d="M26.107 17.824c.166 0 .302-.168.302-.375 0-.206-.136-.374-.302-.374-.167 0-.302.168-.302.375 0 .206.135.374.302.374Z"
          opacity=".44"/>
    <path fill="#E5AC45"
          d="M26.297 17.388c0 .207-.135.375-.302.375-.167 0-.301-.168-.301-.375s.134-.374.301-.374c.167 0 .302.168.302.374Z"/>
    <path fill="#FFCE55"
          d="M25.807 17.23a.201.201 0 0 0-.028.119c.004.04.029.08.067.096.01.003.02.006.031.004.03-.004.046-.036.064-.061a.177.177 0 0 1 .088-.064c.022-.007.045-.01.061-.026a.066.066 0 0 0 .016-.057.138.138 0 0 0-.025-.056c-.076-.112-.218-.055-.274.046Z"/>
    <path fill="#4F382F"
          d="M1.098 16.704c0 .211-.138.382-.307.382-.17 0-.307-.171-.307-.382 0-.21.138-.38.307-.38.169 0 .307.17.307.38Z"
          opacity=".44"/>
    <path fill="#FFCE55"
          d="M.984 16.642c0 .211-.138.382-.307.382-.17 0-.307-.17-.307-.382 0-.21.138-.38.307-.38.17 0 .307.17.307.38Z"/>
    <path fill="#fff"
          d="M.485 16.481a.202.202 0 0 0-.028.12c.005.042.03.083.069.099.01.004.02.006.031.004.031-.005.047-.037.065-.062a.182.182 0 0 1 .09-.066c.022-.007.046-.01.062-.026a.067.067 0 0 0 .016-.059.145.145 0 0 0-.025-.056c-.078-.115-.223-.056-.28.046Z"/>
    <path fill="#4F382F"
          d="M16.174 10.605c0 .268-.174.484-.39.484-.215 0-.39-.216-.39-.484s.175-.485.39-.485c.216 0 .39.217.39.485Z"
          opacity=".44"/>
    <path fill="#FFCE55"
          d="M16.03 10.526c0 .268-.175.485-.39.485-.216 0-.39-.217-.39-.485s.175-.485.39-.485c.215 0 .39.217.39.485Z"/>
    <path fill="#fff"
          d="M15.396 10.321a.26.26 0 0 0-.036.153.151.151 0 0 0 .087.125.082.082 0 0 0 .04.006c.04-.006.06-.048.083-.08a.233.233 0 0 1 .114-.083c.027-.008.058-.013.078-.034a.085.085 0 0 0 .021-.073.18.18 0 0 0-.032-.073c-.1-.145-.283-.07-.355.06Z"/>
    <path fill="#4F382F"
          d="M8.118 13.586c0 .34-.222.616-.496.616s-.496-.275-.496-.616c0-.34.222-.617.496-.617s.496.276.496.617Z"
          opacity=".44"/>
    <path fill="#FFCE55"
          d="M7.439 14.102c.274 0 .496-.276.496-.616 0-.34-.222-.617-.496-.617s-.497.276-.497.617c0 .34.223.616.497.616Z"/>
    <path fill="#fff"
          d="M7.128 13.225a.33.33 0 0 0-.046.195c.007.067.048.133.111.158a.1.1 0 0 0 .051.007c.05-.007.076-.06.105-.1a.294.294 0 0 1 .145-.106c.035-.012.074-.018.1-.043a.109.109 0 0 0 .027-.094.23.23 0 0 0-.04-.092c-.127-.185-.36-.09-.452.075Z"/>
    <path fill="#4F382F"
          d="M17.691 10.565c0 .268-.174.485-.39.485-.215 0-.39-.217-.39-.485 0-.267.175-.484.39-.484.216 0 .39.217.39.484Z"
          opacity=".44"/>
    <path fill="#FFCE55"
          d="M17.157 10.971c.215 0 .39-.217.39-.485 0-.267-.175-.484-.39-.484-.216 0-.39.217-.39.484 0 .268.174.485.39.485Z"/>
    <path fill="#fff"
          d="M16.913 10.282a.26.26 0 0 0-.037.153.151.151 0 0 0 .088.124.084.084 0 0 0 .04.006c.039-.006.06-.047.083-.08a.233.233 0 0 1 .114-.082c.027-.009.058-.014.078-.034a.085.085 0 0 0 .021-.074.183.183 0 0 0-.032-.072c-.099-.145-.283-.07-.355.059Z"/>
    <path fill="#4F382F"
          d="M17.619 22.895c0 .267-.174.484-.39.484-.215 0-.39-.217-.39-.484 0-.268.175-.485.39-.485.216 0 .39.217.39.485Z"
          opacity=".44"/>
    <path fill="#FFCE55"
          d="M17.475 22.816c0 .267-.175.484-.39.484-.216 0-.39-.217-.39-.484 0-.268.174-.485.39-.485.215 0 .39.217.39.485Z"/>
    <path fill="#fff"
          d="M16.841 22.61a.261.261 0 0 0-.037.154.152.152 0 0 0 .088.124.077.077 0 0 0 .04.006c.039-.006.06-.047.082-.08a.233.233 0 0 1 .114-.082c.028-.009.058-.014.079-.034a.085.085 0 0 0 .02-.074.18.18 0 0 0-.032-.072c-.099-.145-.282-.07-.354.06v-.001Z"/>
    <path fill="#4F382F"
          d="M27.488 18.743c.175 0 .316-.176.316-.392 0-.216-.141-.392-.316-.392-.174 0-.315.175-.315.392 0 .216.141.392.315.392Z"
          opacity=".44"/>
    <path fill="#FFCE55"
          d="M27.687 18.287c0 .217-.141.392-.315.392-.174 0-.316-.176-.316-.392 0-.216.142-.392.316-.392.174 0 .315.176.315.392Z"/>
    <path fill="#fff"
          d="M27.175 18.121a.21.21 0 0 0-.03.124.123.123 0 0 0 .07.1c.011.005.022.007.033.006.031-.005.048-.039.067-.065a.188.188 0 0 1 .092-.067c.022-.007.047-.01.064-.027a.07.07 0 0 0 .017-.06.146.146 0 0 0-.026-.059c-.08-.117-.23-.056-.287.048Z"/>
    <path fill="#4F382F"
          d="M27.547 8.284c0 .217-.141.392-.315.392-.174 0-.316-.176-.316-.392 0-.216.142-.392.316-.392.174 0 .315.176.315.392Z"
          opacity=".44"/>
    <path fill="#FFCE55"
          d="M27.114 8.612c.175 0 .316-.175.316-.392 0-.216-.141-.391-.316-.391-.174 0-.315.175-.315.391 0 .217.141.392.316.392Z"/>
    <path fill="#fff"
          d="M26.917 8.055a.211.211 0 0 0-.03.123.123.123 0 0 0 .071.1c.01.005.022.007.033.006.031-.005.048-.039.067-.064a.188.188 0 0 1 .092-.067c.022-.008.047-.012.063-.028a.07.07 0 0 0 .017-.06.146.146 0 0 0-.026-.058c-.08-.118-.229-.057-.287.048Z"/>
    <path fill="#4F382F"
          d="M16.319 22.934c0 .267-.175.485-.39.485-.216 0-.39-.218-.39-.485 0-.268.174-.485.39-.485.215 0 .39.217.39.485Z"
          opacity=".44"/>
    <path fill="#FFCE55"
          d="M16.174 22.855c0 .268-.174.485-.39.485-.215 0-.39-.217-.39-.485 0-.267.175-.484.39-.484.216 0 .39.217.39.484Z"/>
    <path fill="#fff"
          d="M15.54 22.65a.26.26 0 0 0-.036.153.151.151 0 0 0 .088.125.083.083 0 0 0 .04.005c.039-.005.059-.047.082-.078a.233.233 0 0 1 .114-.083c.027-.01.058-.014.079-.034a.085.085 0 0 0 .02-.074.183.183 0 0 0-.032-.072c-.099-.145-.283-.07-.355.059Z"/>
    <path fill="#C9943F"
          d="M6.09 8.642v.5s.256.377.735.476c.478.098 1.33.17 1.845 0 .515-.17.773-.392.773-.392l.042-.49-2.071.296.12-.342-.009-.54-.578.07-.857.422Z"/>
    <path fill="#FFCE55"
          d="M6.9 7.992s-.81.358-.81.65c-.002.39 1.163.621 1.825.549.66-.073 1.57-.456 1.57-.456l-.704-.233s-.555.268-1.146.2c-.59-.067-.76-.16-.627-.305s.516-.247.516-.247L6.9 7.992Z"/>
    <path fill="#4F382F" d="m17.691 11.97 8.193-2.234.167 8.48.53-.222-.297-9.138-8.593 2.094v1.02Z" opacity=".44"/>
    <path fill="#B7846E" d="M5.438.531 11.676 0l11.929 1.585-5.263.8L5.438.532Z"/>
    <path fill="#C6923E"
          d="m23.605 1.585-5.263.8-1.795 7.49 11.1-2.437-4.042-5.853Zm-4.462 1.449 4.258-.648L26.107 7.1l-8.135 1.771 1.171-5.838Z"/>
    <path fill="#E5AC45"
          d="M5.438.531.078 6.278l16.47 3.596 1.794-7.489L5.438.531ZM15.81 8.676 1.43 5.974l4.205-4.781 11.452 1.78-1.278 5.703Z"/>
    <path fill="#FFCE55"
          d="M11.676 0 5.438.531l12.904 1.855 5.263-.801L11.676 0Zm6.431 1.87L7.96.53l3.71-.316 8.945 1.195-2.507.46Z"/>
    <path fill="#845F2A" d="m.078 6.386 16.47 3.488L27.645 7.58v-.14L16.613 9.6.078 6.278v.108Z"/>
    <path fill="#C9943F"
          d="m6.09 7.692.032.499s.28.36.763.428c.484.067 1.339.085 1.842-.117.504-.202.852-.315.852-.315l-.044-.69-2.1.5.1-.348-.044-.539-.572.107-.83.475Z"/>
    <path fill="#FFCE55"
          d="M6.857 6.991s-.785.41-.767.7c.024.39 1.201.547 1.857.433.655-.114 1.588-.627 1.588-.627l-.709-.133s-.595.32-1.19.29c-.593-.03-.767-.112-.644-.265.123-.153.5-.279.5-.279l-.635-.118Z"/>
  </g>
  <defs>
    <clipPath id="a">
      <path fill="#fff" d="M.078 0h27.845v24H.078z"/>
    </clipPath>
  </defs>
</svg>
