<svg xmlns="http://www.w3.org/2000/svg" width="38" height="32" fill="none">
  <g clip-path="url(#a)">
    <path fill="#705143" d="m17.212 17.47 11.607-2.547.366 11.376-11.973 5.092V17.469Z"/>
    <path fill="#4F382F" d="M18.532 20.393a.443.443 0 0 0 .515-.08.443.443 0 0 0 .058-.52c.42.126.876.124 1.294-.007a1.703 1.703 0 0 0-.788-.855c.161.011.31-.126.34-.285a.505.505 0 0 0-.157-.438.97.97 0 0 0-.422-.225c-.336-.097-.725-.087-1 .128-.26.205-.37.56-.357.891.014.364.152 1.195.517 1.392ZM18.307 27.394c.071-.24.236-.508.485-.492.22.014.358.25.397.468.224-.348.566-.618.957-.755.074.382.03.785-.123 1.142.185-.086.417-.144.581-.023.145.106.178.312.153.49-.059.41-.35.748-.669 1.012-.309.258-.666.474-1.063.537a.795.795 0 0 1-.397-.023c-.218-.079-.362-.294-.419-.518-.07-.278-.003-.529.005-.803.01-.36-.01-.684.094-1.035Z" opacity=".44"/>
    <path fill="#BA863C" d="M18.532 20.255a.443.443 0 0 0 .515-.081.443.443 0 0 0 .058-.519c.42.125.876.123 1.294-.007a1.703 1.703 0 0 0-.788-.856c.161.011.31-.126.34-.284a.504.504 0 0 0-.157-.438.97.97 0 0 0-.422-.226c-.336-.096-.725-.086-1 .13-.26.204-.37.558-.357.89.014.363.152 1.195.517 1.392v-.001ZM18.044 27.394c.07-.24.236-.508.484-.492.22.014.358.25.397.468.224-.348.566-.618.956-.755.075.382.031.785-.123 1.142.186-.086.418-.144.582-.023.145.106.178.312.152.49-.058.41-.35.748-.668 1.012-.309.258-.666.474-1.063.537a.795.795 0 0 1-.397-.023c-.218-.079-.362-.294-.419-.518-.07-.278-.003-.529.004-.803.01-.36-.01-.684.095-1.035Z"/>
    <path fill="#4F382F" d="M27.442 26.074c-.205.084-.423.155-.644.136-.221-.018-.446-.144-.522-.352-.076-.209.053-.485.273-.51a1.707 1.707 0 0 1-.983-.777 2.002 2.002 0 0 1 1.233.083c-.204-.18-.208-.526-.036-.736.172-.21.48-.283.741-.212.262.072.48.267.62.5.236.39.269.895.086 1.313a1.454 1.454 0 0 1-1.022.828c-.055.011-.142-.02-.113-.069l.367-.204ZM26.755 16.099c-.238.03-.47.114-.67.247-.183.122-.35.307-.357.528-.007.22.223.443.427.358a1.924 1.924 0 0 0-.299 1.283c.473-.08.906-.365 1.165-.768-.031.157.09.317.243.36a.498.498 0 0 0 .445-.117c.121-.103.201-.247.265-.394.118-.276.184-.575.192-.876a.927.927 0 0 0-.08-.45c-.137-.267-.46-.384-.76-.395a1.697 1.697 0 0 0-.944.244l.372-.02Z" opacity=".44"/>
    <path fill="#BA863C" d="M26.865 15.844c-.237.029-.468.114-.668.247-.184.122-.351.307-.358.528-.007.22.224.443.428.358a1.924 1.924 0 0 0-.3 1.283c.473-.08.906-.365 1.165-.768-.031.156.09.317.243.36a.498.498 0 0 0 .445-.117c.121-.103.201-.247.264-.394.12-.276.185-.575.193-.876a.926.926 0 0 0-.08-.45c-.137-.267-.46-.384-.76-.396a1.699 1.699 0 0 0-.944.245l.372-.02ZM27.553 25.964c-.205.084-.423.155-.644.137-.221-.019-.446-.145-.522-.353-.076-.208.053-.484.273-.51a1.707 1.707 0 0 1-.983-.776 2.001 2.001 0 0 1 1.233.082c-.204-.179-.208-.526-.036-.736.172-.21.479-.282.741-.211.263.07.48.266.62.499.236.39.269.895.086 1.313a1.455 1.455 0 0 1-1.022.828c-.055.011-.142-.02-.114-.069l.368-.204Z"/>
    <path fill="#936C58" d="M.465 13.822v10.024l16.726 7.545V17.469L.465 13.822Z"/>
    <path fill="#4F382F" d="M2.196 22.297c.18.129.206.213.263.426.387-.254.706-.337 1.168-.372-.031.366-.174.752-.438 1.018.2-.01.266-.046.434.061.199.129.277.382.3.617.034.338-.022.7-.237.963-.032.039-.07.076-.118.088a.256.256 0 0 1-.101-.002 10.136 10.136 0 0 1-1.926-.498c-.114-.043-.234-.091-.307-.19-.069-.092-.083-.213-.095-.328-.042-.414-.168-1.064.074-1.439.197-.304.641-.59.984-.344ZM13.741 27.733a1.966 1.966 0 0 1-.223-1.181c.445-.081.926.075 1.238.403-.022-.354.354-.673.7-.594.376.087.56.51.643.887.09.412.127.834.151 1.256.014.235.022.48-.07.697-.342.804-1.423.574-1.958.133-.333-.274-1.216-1.3-.481-1.6ZM13.902 18.481c-.157.309-.016.754.314.858a2.142 2.142 0 0 0-.758.84c.42.064.86-.01 1.238-.206a.744.744 0 0 0 .466.669c.269.104.598.027.793-.186.161-.174.226-.415.276-.647.1-.46.15-.984-.128-1.364-.412-.564-1.854-.64-2.201.036ZM2.177 17.442a.547.547 0 0 0 .49-.465c.227.236.484.444.764.615a3.325 3.325 0 0 0-.17-.905.621.621 0 0 0 .5-.712.144.144 0 0 0-.033-.075.162.162 0 0 0-.079-.035l-2.03-.474c-.038.505-.347 2.112.558 2.05Z" opacity=".44"/>
    <path fill="#C9943F" d="M2.037 22.297c.18.129.206.213.263.426.387-.254.706-.337 1.168-.372-.031.366-.174.752-.438 1.018.2-.01.266-.046.434.061.2.129.277.382.3.617.034.338-.022.7-.237.963-.032.039-.07.076-.118.088a.256.256 0 0 1-.101-.002 10.135 10.135 0 0 1-1.926-.498c-.114-.043-.234-.091-.307-.19-.069-.092-.083-.213-.095-.328-.042-.414-.168-1.064.074-1.439.197-.304.641-.59.984-.344ZM13.972 27.733a1.965 1.965 0 0 1-.223-1.181c.444-.081.925.075 1.237.403-.022-.354.355-.673.7-.594.377.087.561.51.644.887.09.412.127.834.15 1.256.014.235.022.48-.07.697-.342.804-1.423.574-1.957.133-.333-.274-1.217-1.3-.481-1.6ZM14.008 18.27c-.158.308-.017.753.313.858a2.142 2.142 0 0 0-.758.84c.42.063.861-.01 1.238-.207a.745.745 0 0 0 .466.67c.269.103.598.026.793-.186.161-.175.227-.415.277-.648.099-.46.149-.983-.129-1.364-.411-.564-1.854-.64-2.2.037ZM1.963 17.093a.547.547 0 0 0 .49-.465c.227.237.484.444.763.615a3.325 3.325 0 0 0-.169-.905.621.621 0 0 0 .5-.712.144.144 0 0 0-.033-.075.162.162 0 0 0-.08-.035l-2.03-.474c-.038.506-.347 2.112.56 2.05Z"/>
    <path fill="#C6923E" d="M26.878.07c.207-.052.423-.067.637-.07.319-.004.642.019.941.128.299.11.573.314.713.6.138.28.134.607.12.92-.001.039-.004.08-.027.113-.034.048-.102.058-.16.064-.225.02-.45.042-.673.063-.044-.276.115-.578-.008-.829-.108-.222-.386-.295-.632-.317-.256-.022-.522-.014-.76.084-.237.098-.443.3-.492.551-.018.092-.02.2-.094.257-.05.04-.119.044-.183.045-1.47.02-.112-1.429.618-1.61Z"/>
    <path fill="#4F382F" d="m.487 13.822 12.064-1.716 16.268 2.817-11.607 2.546L.487 13.822Z"/>
    <path fill="#4F382F" d="m19.31 1.233-6.76 10.873 16.269 2.817L36.183 1.84l-16.872-.606Z"/>
    <path fill="#C6923E" d="m28.895 14.788-11.633 2.406L17.212 32l11.973-5.331-.29-11.881Zm-.807 11.15L18.46 30.02V18.32l9.386-2.287.242 9.903Z"/>
    <path fill="#FFCE55" d="M12.706 11.856 0 13.538l17.263 3.656 11.633-2.406-16.189-2.932ZM1.854 13.627l10.697-1.52 14.672 2.68-9.961 1.883-15.408-3.043Z"/>
    <path fill="#C6923E" d="m1.004 24.08.414-.28v-8.75l-.414-.096v9.125Z"/>
    <path fill="#FFCE55" d="m1.418 23.8 14.484 5.542v.678L1.004 24.08l.414-.28Z"/>
    <path fill="#E5AC45" d="m28.088 25.937-.241-9.903-.38.093.31 9.578.311.232Z"/>
    <path fill="#FFCE55" d="m18.46 29.392 9.318-3.687.31.232-9.627 4.083v-.628Z"/>
    <path fill="#4F382F" d="M6.453 19.037c-.275.334-.972.458-1.34.231-.011.43.322.912.663 1.174.196.152.563.212.808.245.247.032.517-.048.667-.246-.118.462-.023.956.17 1.392.193.436.284.941.568 1.324.768-.398 1.3-1.277 1.13-2.125.146.434.673.59 1.129.637.455.047.928-.194 1.159-.589-.426-.199-.883-.43-1.08-.856-.134-.288-.125-.618-.113-.935.027-.689.124-1.535.15-2.223.002-.062-2.426-.31-2.65-.353-.205-.041-.98-.31-1.112-.137-.124.16.126 2.127-.149 2.461Z" opacity=".44"/>
    <path fill="#E5AC45" d="M6.24 18.704c-.29.32-.813.453-1.17.209-.03.428.245.824.573 1.102.189.16.407.3.65.343.245.044.52-.023.678-.214-.139.456-.068.955.104 1.399.172.444.44.844.705 1.24.786-.361 1.28-1.273 1.151-2.129.125.44.523.79.976.86.452.068.936-.15 1.185-.534-.415-.219-.862-.471-1.039-.906-.119-.294-.094-.624-.067-.94l.177-2.06c.005-.061-2.33-.577-2.553-.632-.202-.05-.964-.356-1.104-.19-.131.155.025 2.131-.265 2.452Z"/>
    <path fill="#4F382F" d="M2.017 24.03v-8.276l13.885 3.762v-1.103L1.418 15.05v8.75l.6.23Z" opacity=".44"/>
    <path fill="#E5AC45" d="m-.001 13.538.196 11.27L17.212 32l.05-14.806L0 13.538ZM15.902 30.02 1.004 24.08v-9.126l14.898 3.459V30.02Z"/>
    <path fill="#4F382F" d="M1.009 14.286c0 .221-.145.4-.322.4-.177 0-.322-.179-.322-.4 0-.22.145-.4.322-.4.177 0 .322.18.322.4Z" opacity=".44"/>
    <path fill="#FFCE55" d="M.89 14.222c0 .22-.145.4-.322.4-.178 0-.322-.18-.322-.4 0-.221.144-.4.322-.4.177 0 .321.179.321.4Z"/>
    <path fill="#fff" d="M.367 14.052a.215.215 0 0 0-.03.127.125.125 0 0 0 .072.102.06.06 0 0 0 .033.005c.032-.005.049-.04.068-.065a.192.192 0 0 1 .094-.069c.023-.007.048-.011.065-.028a.07.07 0 0 0 .017-.06.152.152 0 0 0-.027-.06c-.082-.12-.233-.059-.292.048Z"/>
    <path fill="#4F382F" d="M2.537 16.06c0 .157-.102.283-.227.283-.126 0-.227-.127-.227-.282 0-.156.101-.283.227-.283.125 0 .227.127.227.283Z" opacity=".44"/>
    <path fill="#FFCE55" d="M2.452 16.015c0 .155-.101.282-.227.282-.125 0-.227-.127-.227-.282 0-.156.102-.283.227-.283.126 0 .227.127.227.283Z"/>
    <path fill="#fff" d="M2.083 15.895a.153.153 0 0 0-.021.09c.003.03.022.06.051.072a.05.05 0 0 0 .024.003c.022-.003.034-.028.048-.046a.135.135 0 0 1 .066-.048c.016-.005.034-.008.046-.02a.05.05 0 0 0 .012-.043.108.108 0 0 0-.019-.042c-.058-.085-.165-.041-.207.034Z"/>
    <path fill="#4F382F" d="M2.71 23.417c0 .156-.101.282-.227.282-.125 0-.227-.126-.227-.282 0-.156.102-.282.227-.282.126 0 .227.126.227.282Z" opacity=".44"/>
    <path fill="#FFCE55" d="M2.626 23.37c0 .157-.101.283-.227.283-.125 0-.227-.126-.227-.282 0-.156.102-.282.227-.282.126 0 .227.126.227.282Z"/>
    <path fill="#fff" d="M2.257 23.252a.153.153 0 0 0-.021.089c.003.03.022.06.051.072a.05.05 0 0 0 .023.003c.023-.003.035-.027.048-.046a.135.135 0 0 1 .067-.048c.016-.005.033-.008.046-.02a.05.05 0 0 0 .012-.043.108.108 0 0 0-.02-.042c-.057-.084-.164-.04-.206.035Z"/>
    <path fill="#4F382F" d="M15.29 28.077c0 .234-.154.424-.342.424-.19 0-.342-.19-.342-.424 0-.235.153-.425.342-.425.188 0 .341.19.341.425Z" opacity=".44"/>
    <path fill="#FFCE55" d="M14.821 28.432c.189 0 .342-.19.342-.424 0-.235-.153-.425-.342-.425-.189 0-.342.19-.342.425 0 .234.153.424.342.424Z"/>
    <path fill="#fff" d="M14.608 27.828a.226.226 0 0 0-.032.134.132.132 0 0 0 .076.11c.011.004.024.006.035.005.034-.006.052-.042.073-.07a.205.205 0 0 1 .1-.073c.024-.008.05-.012.068-.03a.076.076 0 0 0 .019-.064.16.16 0 0 0-.028-.064c-.088-.127-.248-.061-.311.052Z"/>
    <path fill="#4F382F" d="M15.607 19.253c0 .234-.153.424-.341.424-.19 0-.342-.19-.342-.424 0-.235.153-.425.342-.425.188 0 .341.19.341.425Z" opacity=".44"/>
    <path fill="#FFCE55" d="M15.139 19.608c.189 0 .342-.19.342-.425 0-.234-.153-.424-.342-.424-.189 0-.342.19-.342.424 0 .235.153.425.342.425Z"/>
    <path fill="#fff" d="M14.926 19.004a.225.225 0 0 0-.032.134.132.132 0 0 0 .076.109.069.069 0 0 0 .035.005c.034-.005.052-.041.073-.07a.204.204 0 0 1 .1-.072c.023-.008.05-.012.068-.03a.076.076 0 0 0 .019-.065.16.16 0 0 0-.028-.063c-.087-.127-.248-.062-.311.052Z"/>
    <path fill="#4F382F" d="M19.47 18.917c0 .235-.153.425-.341.425-.19 0-.342-.19-.342-.425 0-.234.152-.424.342-.424.189 0 .341.19.341.424Z" opacity=".44"/>
    <path fill="#E5AC45" d="M19.344 18.848c0 .234-.153.425-.342.425-.189 0-.342-.19-.342-.425s.153-.424.342-.424c.189 0 .342.19.342.424Z"/>
    <path fill="#FFCE55" d="M18.789 18.669a.226.226 0 0 0-.032.134.132.132 0 0 0 .076.109.069.069 0 0 0 .035.005c.034-.005.052-.042.073-.07a.206.206 0 0 1 .1-.073c.023-.007.05-.012.068-.03a.076.076 0 0 0 .019-.064.159.159 0 0 0-.028-.063c-.088-.127-.248-.062-.311.052Z"/>
    <path fill="#4F382F" d="M19.27 28.66c.189 0 .342-.19.342-.424 0-.235-.153-.425-.342-.425-.189 0-.342.19-.342.425 0 .234.153.425.342.425Z" opacity=".44"/>
    <path fill="#E5AC45" d="M19.485 28.167c0 .234-.153.424-.342.424-.188 0-.341-.19-.341-.424 0-.235.153-.425.341-.425.19 0 .342.19.342.425Z"/>
    <path fill="#FFCE55" d="M18.93 27.987a.226.226 0 0 0-.032.134.132.132 0 0 0 .077.11.068.068 0 0 0 .035.004c.034-.005.052-.04.072-.069a.205.205 0 0 1 .1-.073c.024-.008.05-.012.069-.03a.076.076 0 0 0 .018-.064.16.16 0 0 0-.028-.064c-.087-.127-.248-.061-.31.052Z"/>
    <path fill="#4F382F" d="M27.251 16.97c0 .217-.141.393-.316.393-.174 0-.316-.176-.316-.392 0-.217.142-.393.316-.393.175 0 .316.176.316.393Z" opacity=".44"/>
    <path fill="#E5AC45" d="M26.818 17.3c.175 0 .316-.177.316-.393 0-.217-.141-.393-.316-.393-.174 0-.316.176-.316.393 0 .216.142.392.316.392Z"/>
    <path fill="#FFCE55" d="M26.62 16.74a.21.21 0 0 0-.029.125c.005.043.031.084.071.1.01.004.022.007.033.005.031-.005.048-.038.067-.064a.186.186 0 0 1 .092-.067c.022-.008.047-.011.064-.027a.07.07 0 0 0 .017-.06.152.152 0 0 0-.026-.059c-.08-.117-.23-.057-.288.048Z"/>
    <path fill="#4F382F" d="M27.598 25.134c0 .217-.142.393-.316.393-.175 0-.317-.176-.317-.393 0-.216.142-.392.317-.392.174 0 .316.176.316.392Z" opacity=".44"/>
    <path fill="#E5AC45" d="M27.48 25.07c0 .217-.14.393-.315.393s-.316-.176-.316-.393c0-.216.141-.392.316-.392.174 0 .316.175.316.392Z"/>
    <path fill="#FFCE55" d="M26.967 24.904a.214.214 0 0 0-.03.124c.005.043.032.085.072.101.01.004.021.006.032.005.032-.005.048-.039.067-.064a.187.187 0 0 1 .092-.068c.023-.007.047-.01.064-.027a.07.07 0 0 0 .017-.06.143.143 0 0 0-.026-.058c-.08-.118-.23-.057-.288.048Z"/>
    <path fill="#4F382F" d="M1.068 24.353c0 .221-.144.4-.322.4-.177 0-.321-.179-.321-.4 0-.22.144-.4.321-.4.178 0 .322.18.322.4Z" opacity=".44"/>
    <path fill="#FFCE55" d="M.949 24.288c0 .22-.144.4-.322.4-.177 0-.321-.18-.321-.4 0-.22.144-.4.321-.4.178 0 .322.18.322.4Z"/>
    <path fill="#fff" d="M.426 24.12a.215.215 0 0 0-.03.126.125.125 0 0 0 .073.102.06.06 0 0 0 .033.005c.032-.005.049-.04.068-.065a.192.192 0 0 1 .094-.069c.023-.007.048-.011.064-.028a.07.07 0 0 0 .018-.06.152.152 0 0 0-.027-.06c-.082-.12-.234-.059-.293.048Z"/>
    <path fill="#4F382F" d="M16.462 18.468c.226 0 .409-.227.409-.508 0-.28-.183-.508-.409-.508-.226 0-.409.228-.409.508s.183.508.409.508Z" opacity=".44"/>
    <path fill="#FFCE55" d="M16.72 17.877c0 .28-.183.508-.41.508-.225 0-.408-.227-.408-.508 0-.28.183-.508.409-.508.226 0 .408.228.408.508Z"/>
    <path fill="#fff" d="M16.055 17.663a.273.273 0 0 0-.038.16c.006.055.04.11.092.13a.086.086 0 0 0 .042.006c.04-.006.062-.05.086-.083a.244.244 0 0 1 .12-.087c.028-.009.06-.014.082-.035a.09.09 0 0 0 .022-.078.19.19 0 0 0-.034-.075c-.104-.152-.296-.074-.372.062Z"/>
    <path fill="#4F382F" d="M8.427 21.085c0 .356-.233.646-.52.646-.287 0-.52-.29-.52-.646 0-.357.233-.646.52-.646.287 0 .52.289.52.646Z" opacity=".44"/>
    <path fill="#FFCE55" d="M7.714 21.625c.288 0 .52-.289.52-.646 0-.357-.232-.646-.52-.646-.287 0-.52.29-.52.646 0 .357.233.646.52.646Z"/>
    <path fill="#fff" d="M7.39 20.706a.346.346 0 0 0-.05.204c.008.07.051.14.117.166.017.006.036.01.054.008.052-.008.08-.064.11-.106a.308.308 0 0 1 .152-.11c.036-.013.077-.019.105-.046a.114.114 0 0 0 .028-.098.241.241 0 0 0-.043-.097c-.133-.193-.378-.094-.473.08Z"/>
    <path fill="#4F382F" d="M18.46 17.919c0 .28-.182.508-.408.508-.226 0-.409-.228-.409-.508s.183-.508.41-.508c.225 0 .408.227.408.508Z" opacity=".44"/>
    <path fill="#FFCE55" d="M17.9 18.344c.226 0 .41-.228.41-.508s-.184-.508-.41-.508c-.225 0-.408.227-.408.508 0 .28.183.508.409.508Z"/>
    <path fill="#fff" d="M17.645 17.621a.273.273 0 0 0-.038.16c.006.056.04.11.092.13a.086.086 0 0 0 .042.007c.04-.006.062-.05.086-.083a.245.245 0 0 1 .12-.087c.028-.01.06-.014.082-.036a.09.09 0 0 0 .022-.077.193.193 0 0 0-.034-.076c-.104-.152-.296-.074-.372.062Z"/>
    <path fill="#4F382F" d="M17.976 31.35c.226 0 .41-.228.41-.509 0-.28-.184-.507-.41-.507-.225 0-.408.227-.408.508 0 .28.183.508.408.508Z" opacity=".44"/>
    <path fill="#FFCE55" d="M18.234 30.759c0 .28-.183.508-.409.508-.226 0-.409-.228-.409-.508s.183-.508.41-.508c.225 0 .408.227.408.508Z"/>
    <path fill="#fff" d="M17.57 30.544a.273.273 0 0 0-.039.16c.007.056.04.11.092.13a.081.081 0 0 0 .042.007c.041-.006.063-.05.087-.083a.244.244 0 0 1 .12-.087c.028-.01.06-.014.081-.035a.09.09 0 0 0 .022-.078.189.189 0 0 0-.033-.075c-.104-.152-.297-.074-.372.062Z"/>
    <path fill="#4F382F" d="M28.73 26.49c.182 0 .33-.184.33-.411 0-.227-.148-.41-.33-.41-.183 0-.33.183-.33.41 0 .227.147.41.33.41Z" opacity=".44"/>
    <path fill="#FFCE55" d="M28.938 26.012c0 .227-.148.41-.33.41-.183 0-.331-.183-.331-.41 0-.227.148-.41.33-.41.183 0 .331.183.331.41Z"/>
    <path fill="#fff" d="M28.4 25.838a.221.221 0 0 0-.03.13.129.129 0 0 0 .074.106c.01.004.023.006.034.005.033-.005.05-.04.07-.067a.197.197 0 0 1 .097-.07c.023-.008.049-.012.066-.03a.074.074 0 0 0 .018-.062.151.151 0 0 0-.027-.062c-.084-.123-.24-.06-.301.05Z"/>
    <path fill="#4F382F" d="M28.791 15.527c0 .227-.148.41-.33.41-.183 0-.33-.183-.33-.41 0-.226.147-.41.33-.41.182 0 .33.184.33.41Z" opacity=".44"/>
    <path fill="#FFCE55" d="M28.669 15.46c0 .227-.149.411-.331.411-.183 0-.33-.184-.33-.41 0-.227.148-.411.33-.411.182 0 .33.184.33.41Z"/>
    <path fill="#fff" d="M28.131 15.287a.221.221 0 0 0-.031.13.129.129 0 0 0 .074.105c.011.004.023.006.034.005.033-.005.05-.04.07-.067a.197.197 0 0 1 .097-.07c.023-.008.05-.012.067-.03a.074.074 0 0 0 .017-.062.154.154 0 0 0-.027-.062c-.084-.123-.24-.06-.3.05Z"/>
    <path fill="#4F382F" d="M16.613 31.39c.226 0 .41-.227.41-.507s-.184-.508-.41-.508c-.225 0-.408.227-.408.508 0 .28.183.508.409.508Z" opacity=".44"/>
    <path fill="#FFCE55" d="M16.462 31.308c.226 0 .409-.227.409-.508 0-.28-.183-.508-.409-.508-.226 0-.409.228-.409.508s.183.508.409.508Z"/>
    <path fill="#fff" d="M16.206 30.586a.273.273 0 0 0-.038.16c.006.055.04.11.092.13a.087.087 0 0 0 .042.007c.04-.007.062-.05.087-.083a.244.244 0 0 1 .12-.087c.028-.01.06-.015.081-.036a.09.09 0 0 0 .022-.077.191.191 0 0 0-.034-.076c-.104-.152-.296-.074-.372.062Z"/>
    <path fill="#705143" d="m36.183 1.839 1.818 5.991-3.803 6.695-5.303.263 7.288-12.95ZM19.61 1.836l1.381 4.555-3.32 5.845-4.024-.587 5.962-9.813Z"/>
    <path fill="#4F382F" d="M35.687 1.839 28.4 14.788l5.303-.263 3.803-6.695-1.818-5.991Zm-2.307 11.68-3.187.263 5.252-9.716 1.123 3.44-3.188 6.014Z" opacity=".44"/>
    <path fill="#C6923E" d="m36.183 1.839-7.288 12.949 5.303-.263L38 7.83 36.183 1.84Zm-2.307 11.68-3.187.263 5.252-9.716 1.122 3.44-3.187 6.014Z"/>
    <path fill="#FFCE55" d="m19.31 1.233-6.76 10.873 16.27 2.817L36.182 1.84 19.31 1.233Zm9.235 12.589-14.897-2.173 6.032-9.81 15.125.534-6.26 11.449Z"/>
    <path fill="#936C58" d="m20.991 6.391 11.264.645-3.71 6.786-10.875-1.586 3.321-5.845Z"/>
    <path fill="#FFCE55" d="M26.316.07c.208-.052.424-.067.638-.07.318-.004.642.019.94.128.3.11.574.314.714.6.137.28.134.607.12.92-.002.039-.004.08-.027.113-.035.048-.102.058-.161.064-.225.02-.449.042-.673.063-.044-.276.116-.578-.007-.829-.109-.222-.387-.295-.633-.317-.256-.022-.521-.014-.759.084-.237.098-.443.3-.492.551-.018.092-.021.2-.094.257-.05.04-.12.044-.183.045-.5.007-.667-.014-.656-.24.042-.826.792-1.25 1.274-1.37Z"/>
    <path fill="#C9943F" d="M6.3 15.902v.524s.27.396.77.499c.503.103 1.395.178 1.935 0s.81-.41.81-.41L9.86 16l-2.172.31.127-.357-.01-.566-.606.073-.899.442Z"/>
    <path fill="#FFCE55" d="M7.149 15.22s-.848.376-.849.682c0 .41 1.22.652 1.913.576C8.906 16.402 9.86 16 9.86 16l-.738-.244s-.581.28-1.2.21c-.62-.07-.797-.169-.658-.32.14-.152.541-.259.541-.259l-.655-.166Z"/>
    <path fill="#4F382F" d="m18.46 19.391 8.588-2.342.175 8.888.555-.232-.31-9.578-9.007 2.194v1.07Z" opacity=".44"/>
  </g>
  <defs>
    <clipPath id="a">
      <path fill="#fff" d="M-.001 0h38.002v32H-.001z"/>
    </clipPath>
  </defs>
</svg>
