<svg xmlns="http://www.w3.org/2000/svg" width="9" height="10" fill="none">
  <path fill="#fff" fill-rule="evenodd"
        d="M4.186.814c0-.173.14-.314.314-.314A4.5 4.5 0 1 1 0 5a.314.314 0 0 1 .628 0A3.872 3.872 0 1 0 4.5 1.128a.314.314 0 0 1-.314-.314ZM4.5 3.43c.173 0 .314.14.314.314v1.36h1.36a.314.314 0 1 1 0 .629H4.5a.314.314 0 0 1-.314-.314V3.744c0-.173.14-.314.314-.314ZM3.286.98a.314.314 0 0 1-.18.406c-.06.023-.118.047-.175.073a.314.314 0 1 1-.255-.574c.067-.03.135-.058.204-.084a.314.314 0 0 1 .406.18Zm-1.445.772a.314.314 0 0 1-.01.444c-.047.043-.092.088-.135.134a.314.314 0 1 1-.455-.433c.05-.053.103-.105.156-.156a.314.314 0 0 1 .444.01ZM.8 3.016c.158.07.23.256.16.415-.027.057-.05.116-.074.175a.314.314 0 0 1-.585-.226c.026-.069.054-.137.084-.204a.314.314 0 0 1 .415-.16Z"
        clip-rule="evenodd"/>
</svg>
