<svg xmlns="http://www.w3.org/2000/svg" width="11" height="9" fill="none">
  <path fill="#fff"
        d="M6.504 8.001h-.35.35ZM6.507 7l.35.001V7h-.35Zm-5.432.914-.247.248.247-.248Zm0-6.828L.828.838l.247.248Zm-.098 2.54-.171.306.17-.305Zm-.472-.631-.35-.015.35.015Zm.472 2.378-.171-.305.17.305Zm-.472.632.35-.014-.35.014Zm9.519-2.378.17.305-.17-.305Zm.47-.632.35-.015-.35.015Zm-.569-1.91.247-.247-.247.248Zm.098 4.288-.17.306.17-.306Zm.472.632.35.015-.35-.015Zm-.57 1.91.247.247-.247-.248Zm.547-2.249.305-.171-.305.171Zm0-2.332.305.171-.305-.171ZM.528 5.666l-.305-.171.305.171Zm0-2.332.306-.17v-.001l-.306.171ZM6.507 2h.35v-.001L6.507 2ZM6.503.75h-.35.35Zm1.26-.24.01-.35-.01.35Zm.254 7.972.015.35-.015-.35ZM6.43 8.427l-.247-.248.247.248ZM7.15 4v1h.7V4h-.7Zm-.3 1V4h-.7v1h.7Zm.15.15A.15.15 0 0 1 6.85 5h-.7c0 .47.38.85.85.85v-.7ZM7.15 5a.15.15 0 0 1-.15.15v.7c.47 0 .85-.38.85-.85h-.7ZM7 3.85a.15.15 0 0 1 .15.15h.7A.85.85 0 0 0 7 3.15v.7Zm0-.7a.85.85 0 0 0-.85.85h.7A.15.15 0 0 1 7 3.85v-.7Zm-.146 4.852.003-1.001-.7-.002L6.154 8l.7.002Zm.154-1.152A.15.15 0 0 1 7.16 7h.7a.85.85 0 0 0-.85-.85v.7Zm0-.7a.85.85 0 0 0-.851.85h.7a.15.15 0 0 1 .151-.15v-.7ZM4.498.85h1.755v-.7H4.498v.7Zm1.506 7.3H4.498v.7h1.506v-.7Zm-1.506 0c-.956 0-1.637 0-2.154-.07-.507-.068-.804-.196-1.022-.414l-.494.496c.37.369.838.533 1.423.612.575.077 1.311.076 2.247.076v-.7Zm0-8c-.936 0-1.672 0-2.247.076C1.666.305 1.197.47.828.838l.494.496c.218-.218.515-.346 1.022-.414C2.861.85 3.542.85 4.498.85v-.7ZM.806 3.932a.65.65 0 0 1 .334.568h.7c0-.507-.28-.948-.693-1.179l-.341.611Zm.049-.923c.039-.928.166-1.375.467-1.675L.828.838C.32 1.344.195 2.042.156 2.98l.699.03ZM1.14 4.5a.65.65 0 0 1-.334.568l.341.61A1.35 1.35 0 0 0 1.84 4.5h-.7ZM.156 6.02c.039.938.164 1.636.672 2.142l.494-.496c-.301-.3-.428-.747-.467-1.675l-.7.029ZM9.86 4.5a.65.65 0 0 1 .334-.568l-.341-.61A1.35 1.35 0 0 0 9.16 4.5h.7Zm.984-1.52c-.039-.938-.164-1.636-.672-2.142l-.494.496c.301.3.428.747.467 1.675l.7-.029Zm-.65 2.088A.65.65 0 0 1 9.86 4.5h-.7c0 .507.28.948.693 1.179l.341-.611Zm-.049.923c-.039.928-.166 1.375-.467 1.675l.494.496c.508-.506.633-1.204.672-2.142l-.699-.03Zm-.292-.312c.142.079.235.131.298.171.032.02.046.031.052.035.008.007-.015-.009-.037-.048l.611-.342a.535.535 0 0 0-.128-.149 1.207 1.207 0 0 0-.124-.088c-.083-.052-.197-.115-.33-.19l-.342.61Zm.991.341c.004-.086.008-.173.005-.246a.615.615 0 0 0-.072-.279l-.61.342c-.023-.04-.019-.067-.018-.032v.069c0 .032-.002.07-.004.117l.7.029Zm-.65-2.088c.134-.075.248-.138.33-.19.043-.027.086-.056.125-.088a.535.535 0 0 0 .128-.149l-.61-.342c.021-.04.044-.055.036-.048a.552.552 0 0 1-.052.035c-.063.04-.156.092-.298.171l.341.611Zm-.049-.923c.002.048.004.085.004.117v.07c-.001.034-.005.007.017-.033l.611.342a.615.615 0 0 0 .072-.279c.003-.073-.001-.16-.005-.246l-.699.03ZM.805 5.068c-.133.075-.247.138-.33.19a1.2 1.2 0 0 0-.124.088.535.535 0 0 0-.128.149l.61.342c-.021.04-.044.055-.036.048A.55.55 0 0 1 .85 5.85c.063-.04.156-.092.298-.171l-.341-.611Zm.05.923a7.612 7.612 0 0 1-.004-.186c.001-.035.005-.008-.017.032l-.611-.342a.615.615 0 0 0-.072.279c-.003.073.001.16.005.246l.699-.03Zm.292-2.67A7.54 7.54 0 0 1 .85 3.15a.55.55 0 0 1-.052-.035c-.008-.007.015.009.037.048l-.611.342c.039.07.092.119.128.149a1.2 1.2 0 0 0 .124.088c.083.052.197.115.33.19l.342-.61ZM.156 2.98c-.004.086-.008.173-.005.246a.615.615 0 0 0 .072.279l.61-.342c.023.04.019.067.018.032v-.069c0-.032.002-.07.004-.117l-.7-.029Zm6.7-.981L6.854.749l-.7.001.004 1.251.7-.002Zm.152.151A.15.15 0 0 1 6.857 2h-.7c0 .47.382.85.851.85v-.7ZM7.16 2a.15.15 0 0 1-.15.15v.7a.85.85 0 0 0 .85-.85h-.7Zm0-1.242V2h.7V.758h-.7Zm.596.101c1.093.029 1.594.146 1.923.475l.494-.496C9.624.291 8.847.188 7.772.16l-.017.7Zm.104-.1a.102.102 0 0 1-.104.1l.018-.7a.598.598 0 0 0-.614.6h.7ZM6.253.85a.1.1 0 0 1-.1-.1l.7-.002a.6.6 0 0 0-.6-.598v.7Zm1.779 7.982c.937-.04 1.634-.165 2.14-.67l-.494-.496c-.3.3-.748.427-1.676.466l.03.7ZM7.159 7v.988h.7V7h-.7ZM6.154 8c0 .06 0 .107-.002.147a.787.787 0 0 1-.005.08c-.002.016-.003.013.002.002a.158.158 0 0 1 .034-.05l.494.496a.595.595 0 0 0 .164-.352c.013-.097.013-.213.013-.32L6.154 8Zm-.15.85c.108 0 .224 0 .32-.012a.595.595 0 0 0 .353-.163l-.494-.496a.158.158 0 0 1 .05-.034c.01-.004.013-.003-.002-.001a.787.787 0 0 1-.08.005l-.147.001v.7Zm1.998-.718c-.06.003-.107.005-.147.005a.74.74 0 0 1-.079-.001c-.014-.002-.01-.003.002.002a.156.156 0 0 1 .05.033l-.484.505a.591.591 0 0 0 .364.156c.099.01.216.004.324 0l-.03-.7Zm-.843-.144c0 .11 0 .23.013.328.016.11.054.247.172.36l.485-.505a.158.158 0 0 1 .035.05c.005.012.004.015.002 0a.783.783 0 0 1-.006-.083 6.142 6.142 0 0 1 0-.15h-.7Z"/>
</svg>
