<svg width="14" height="17" viewBox="0 0 14 17" fill="none" xmlns="http://www.w3.org/2000/svg">
<path fill-rule="evenodd" clip-rule="evenodd" d="M5.01644 1.03516V1.70703H5.68894H6.36141L6.353 2.38575L6.34457 3.06447L6.03947 3.10516C5.11954 3.22781 4.0265 3.65938 3.2275 4.21547C3.17972 4.24872 3.10854 4.18934 2.65507 3.73803L2.13716 3.22266L1.68619 3.68625C1.43813 3.94122 1.23519 4.15934 1.23519 4.171C1.23519 4.18266 1.44457 4.40119 1.70044 4.65666L2.16569 5.12113L1.91604 5.41806C1.08463 6.40691 0.550755 7.6465 0.392255 8.95622C0.350724 9.29916 0.351099 10.1195 0.392911 10.4578C0.540286 11.6501 0.984411 12.7652 1.68191 13.6941C2.72316 15.0809 4.21797 15.9863 5.96957 16.291C6.44857 16.3743 7.65482 16.3664 8.14144 16.2767C9.54354 16.0183 10.7366 15.3968 11.7214 14.412C12.8024 13.331 13.4673 11.9551 13.6401 10.4414C13.6814 10.0791 13.6817 9.29569 13.6406 8.95622C13.4821 7.6465 12.9483 6.40691 12.1168 5.41806L11.8672 5.12113L12.3324 4.65666C12.5883 4.40119 12.7977 4.18266 12.7977 4.171C12.7977 4.15934 12.5948 3.94122 12.3467 3.68625L11.8957 3.22266L11.3815 3.73441L10.8673 4.24613L10.562 4.05475C9.78563 3.56791 8.83788 3.21775 7.99094 3.10481L7.68832 3.06447L7.67988 2.38575L7.67147 1.70703H8.34394H9.01644V1.03516V0.363281H7.01644H5.01644V1.03516ZM8.06547 4.47059C9.41644 4.75131 10.5723 5.50469 11.3769 6.62891C11.7649 7.17094 12.1238 8.01288 12.2488 8.67406C12.5151 10.0828 12.2315 11.4698 11.4304 12.6758C11.1378 13.1164 10.5225 13.7461 10.0789 14.0589C9.51438 14.4571 8.7766 14.7736 8.04769 14.9303C7.76275 14.9916 7.627 15.0009 7.01644 15.0015C6.40004 15.002 6.27285 14.9933 5.98519 14.9309C5.13966 14.7475 4.31485 14.3651 3.68832 13.8662C3.28997 13.5489 2.75032 12.9392 2.4896 12.5118C1.50822 10.9031 1.4215 8.99556 2.25338 7.31641C3.03816 5.73234 4.53013 4.66766 6.32894 4.40806C6.7826 4.34259 7.58929 4.37163 8.06547 4.47059ZM7.01644 7.70703V9.70703H5.01644H3.01644L3.01663 9.83984C3.01725 10.2912 3.19432 10.9758 3.43897 11.4727C4.30925 13.2401 6.33732 14.0949 8.24688 13.4994C9.22304 13.1949 10.1152 12.4314 10.5764 11.5059C10.8918 10.8729 11.0003 10.408 10.9998 9.69141C10.9994 9.15559 10.9573 8.88113 10.8062 8.42703C10.4081 7.23075 9.42147 6.26222 8.21563 5.88391C7.89404 5.78303 7.46382 5.70725 7.21175 5.70713L7.01644 5.70703V7.70703Z" fill="#FA0C58"/>
</svg>
