<svg width="44" height="44" viewBox="0 0 44 44" fill="none" xmlns="http://www.w3.org/2000/svg">
<path d="M22 41.3823C32.7412 41.3823 41.3815 32.742 41.3815 22.0007C41.3815 11.2595 32.7412 2.61914 22 2.61914C11.2587 2.61914 2.61844 11.2595 2.61844 22.0007C2.61844 32.742 11.2587 41.3823 22 41.3823Z" fill="#F8F8FA"/>
<path d="M27.3301 25.0687C27.3301 22.2429 25.6342 21.2738 22.2424 20.8687C19.8198 20.5451 19.3352 19.8997 19.3352 18.7697C19.3352 17.6398 20.1434 16.913 21.7579 16.913C23.2115 16.913 24.0197 17.3975 24.4229 18.6088C24.5043 18.8511 24.7465 19.012 24.9888 19.012H26.2816C26.6052 19.012 26.8475 18.7697 26.8475 18.446V18.3646C26.5238 16.5873 25.0702 15.2151 23.2135 15.0543V13.1161C23.2135 12.7924 22.9712 12.5502 22.5681 12.4707H21.3567C21.033 12.4707 20.7908 12.713 20.7113 13.1161V14.9729C18.2886 15.2965 16.7536 16.911 16.7536 18.9306C16.7536 21.5955 18.3681 22.646 21.7598 23.0492C24.0217 23.4523 24.7485 23.9368 24.7485 25.2296C24.7485 26.5223 23.6185 27.41 22.0835 27.41C19.9845 27.41 19.2577 26.5223 19.0154 25.311C18.934 24.9873 18.6917 24.8264 18.4495 24.8264H17.0773C16.7536 24.8264 16.5113 25.0687 16.5113 25.3924V25.4738C16.835 27.4933 18.1258 28.947 20.7908 29.3501V31.2882C20.7908 31.6119 21.033 31.8542 21.4362 31.9337H22.6475C22.9712 31.9337 23.2135 31.6914 23.2929 31.2882V29.3501C25.7137 28.945 27.3301 27.2491 27.3301 25.0687Z" fill="url(#paint0_linear_9303_72218)"/>
<path d="M17.8814 33.5471C11.5825 31.2853 8.35157 24.2594 10.6948 18.0418C11.9061 14.65 14.5711 12.0664 17.8814 10.8551C18.2051 10.6942 18.3659 10.4519 18.3659 10.0468V8.91689C18.3659 8.59322 18.2051 8.35095 17.8814 8.27148C17.8 8.27148 17.6391 8.27148 17.5577 8.35289C9.88658 10.7756 5.68664 18.9314 8.10931 26.6046C9.56291 31.1263 13.0361 34.5995 17.5577 36.0531C17.8814 36.214 18.2031 36.0531 18.2845 35.7295C18.3659 35.6481 18.3659 35.5686 18.3659 35.4058V34.2758C18.3659 34.0316 18.1237 33.7099 17.8814 33.5471ZM26.4402 8.35095C26.1165 8.19008 25.7948 8.35095 25.7134 8.67462C25.632 8.75603 25.632 8.83549 25.632 8.9983V10.1282C25.632 10.4519 25.8743 10.7737 26.1165 10.9365C32.4155 13.1983 35.6464 20.2241 33.3032 26.4418C32.0918 29.8336 29.4269 32.4171 26.1165 33.6285C25.7929 33.7894 25.632 34.0316 25.632 34.4367V35.5667C25.632 35.8903 25.7929 36.1326 26.1165 36.2121C26.1979 36.2121 26.3588 36.2121 26.4402 36.1307C34.1114 33.708 38.3113 25.5522 35.8886 17.879C34.435 13.2778 30.8824 9.80457 26.4402 8.35095Z" fill="url(#paint1_linear_9303_72218)"/>
<defs>
<linearGradient id="paint0_linear_9303_72218" x1="26.8611" y1="15.5421" x2="14.2553" y2="22.2292" gradientUnits="userSpaceOnUse">
<stop offset="0.0733" stop-color="#F46881"/>
<stop offset="0.083" stop-color="#F36682"/>
<stop offset="0.2596" stop-color="#E74596"/>
<stop offset="0.407" stop-color="#E031A2"/>
<stop offset="0.5065" stop-color="#DD2AA6"/>
<stop offset="0.8882" stop-color="#5210E2"/>
</linearGradient>
<linearGradient id="paint1_linear_9303_72218" x1="35.3103" y1="12.6807" x2="13.4537" y2="34.4419" gradientUnits="userSpaceOnUse">
<stop offset="0.0733" stop-color="#F46881"/>
<stop offset="0.083" stop-color="#F36682"/>
<stop offset="0.2596" stop-color="#E74596"/>
<stop offset="0.407" stop-color="#E031A2"/>
<stop offset="0.5065" stop-color="#DD2AA6"/>
<stop offset="0.8882" stop-color="#5210E2"/>
</linearGradient>
</defs>
</svg>
