<svg width="194" height="148" viewBox="0 0 194 148" fill="none" xmlns="http://www.w3.org/2000/svg">
<path d="M143.297 99.6556H68.082C68.082 99.6556 72.2402 98.3103 65.0245 99.6556C57.6865 101.001 57.6865 100.756 58.298 96.1089C58.9095 91.4615 63.3123 86.6918 66.7367 81.5552C66.3698 76.6632 67.9597 71.5266 73.7078 66.7569C73.7078 66.6346 73.7078 66.5123 73.7078 66.39C70.8949 38.3833 85.6932 47.5558 98.0455 42.9084L96.4556 41.8077L114.556 33.9805C114.556 33.9805 119.693 35.3258 124.462 38.0164C128.009 40.0955 131.311 42.7861 131.8 46.2105C132.412 50.1241 131.8 55.2607 130.944 60.0304C130.21 64.3109 129.354 68.2245 129.11 70.7928C129.11 71.282 128.987 71.6489 128.987 72.0158C129.844 76.0517 135.469 82.0444 134.736 85.958C136.692 88.0371 139.138 94.2744 139.505 96.965C139.994 99.6556 143.297 99.6556 143.297 99.6556Z" fill="#DDE3EE"/>
<path opacity="0.1" d="M130.945 60.0308C130.211 64.3113 129.355 68.2249 129.11 70.9155C127.276 74.2176 123.973 76.2967 119.448 78.865C118.47 79.4765 117.247 79.9657 116.146 80.3326C114.556 80.8218 112.966 81.311 111.377 81.5556C106.485 82.534 101.47 82.7786 96.4559 81.8002C92.2977 80.9441 88.1395 79.5988 84.3482 77.3974C83.1252 76.6636 81.7799 75.8075 80.6792 74.8291C77.3771 72.0162 74.8088 69.5702 73.4635 66.635C72.2405 64.189 71.9959 61.3761 72.6074 57.5848C74.075 49.513 76.0318 43.398 76.0318 43.398C76.1541 42.7865 77.1325 41.9304 77.4994 41.4412C78.1109 40.8297 78.4778 40.0959 79.0893 39.4844C80.0677 38.2614 81.2907 36.9161 82.2691 35.6931C84.7151 33.2471 87.4057 31.2903 90.5855 30.0673C95.7221 28.2328 101.226 28.4774 106.485 29.2112C110.276 29.7004 114.312 30.5565 117.736 32.5133C120.304 33.9809 122.384 35.8154 124.218 38.1391C124.585 38.506 124.83 38.9952 125.196 39.3621C127.276 42.4196 128.743 45.844 130.455 49.1461C130.578 49.1461 130.945 53.6712 130.945 60.0308Z" fill="#AAB2C5"/>
<path d="M28.2109 99.7773H187.323" stroke="#D6DCE8" stroke-width="1.5905" stroke-miterlimit="10" stroke-linecap="round" stroke-linejoin="round"/>
<path d="M9.5 99.7773H19.6509" stroke="#D6DCE8" stroke-width="1.5905" stroke-miterlimit="10" stroke-linecap="round" stroke-linejoin="round"/>
<path d="M120.058 69.2029C119.079 69.8144 117.856 70.3036 116.756 70.6705C115.288 71.1597 113.576 71.6489 111.986 71.8935C107.094 72.8719 102.08 73.1165 97.0653 72.0158C92.9071 71.1597 88.7489 69.8144 84.9576 67.613C83.6123 66.8792 82.3893 66.0231 81.2886 65.0447C75.0513 59.7858 71.7492 55.8722 73.2168 47.8004C74.6844 39.7286 76.5189 33.7359 76.5189 33.7359C76.6412 33.1244 77.6196 32.2683 77.9865 31.7791C78.598 31.1676 78.9649 30.4338 79.5764 29.8223C80.5548 28.5993 81.6555 27.254 82.7562 26.031C85.2022 23.585 87.8928 21.6282 91.0726 20.4052C96.2092 18.5707 101.713 18.8153 106.972 19.5491C110.885 20.0383 114.799 20.8944 118.223 22.8512C121.281 24.5634 123.604 26.8871 125.561 29.7C127.64 32.7575 129.108 36.1819 130.82 39.6063C130.82 39.6063 131.432 45.9659 131.187 54.16C131.187 62.3541 127.151 65.2893 120.058 69.2029Z" fill="#EAEEF9"/>
<path d="M93.6419 48.4118C92.4189 49.2679 90.5844 52.57 85.4478 49.8794C78.2321 45.9658 80.0666 36.1818 84.5917 33.4912C92.6635 28.7215 100.002 32.1459 100.368 39.6062C100.735 47.5557 96.2102 46.8219 93.6419 48.4118Z" fill="#BFC8D6"/>
<path d="M134.369 95.1309C133.39 96.3539 133.635 98.1884 134.98 99.1668C135.714 99.656 136.448 100.145 136.815 101.368C137.671 103.814 145.498 109.562 149.534 108.339C153.692 107.116 158.217 104.059 157.116 99.0445C156.138 94.0302 151.735 91.5842 149.534 91.4619C147.332 91.2173 139.627 90.3612 137.059 92.318C136.081 93.1741 135.102 94.2748 134.369 95.1309Z" fill="#EAEEF9"/>
<path d="M70.037 95.1307C71.0154 96.3537 70.7708 98.1882 69.4255 99.1666C68.6917 99.6558 67.9579 100.145 67.591 101.368C66.7349 103.814 58.9077 109.562 54.8718 108.339C50.8359 107.116 46.1885 104.059 47.2892 99.0443C48.2676 94.03 52.6704 91.584 54.8718 91.4617C57.0732 91.3394 64.7781 90.3609 67.3464 92.3177C68.4471 93.1739 69.4255 94.2746 70.037 95.1307Z" fill="#EAEEF9"/>
<path d="M89.4833 46.8214C92.6631 47.1883 95.476 44.8646 95.8429 41.6848C96.2098 38.505 93.8861 35.6921 90.7063 35.3252C87.5265 34.9583 84.7136 37.282 84.3467 40.4618C83.9798 43.6416 86.3035 46.4545 89.4833 46.8214Z" fill="white"/>
<path d="M95.11 42.2964C94.8654 44.7424 92.664 46.5769 90.218 46.3323C87.772 46.0877 85.9374 43.8863 86.182 41.4403C86.5489 41.8072 87.0381 42.1741 87.5273 42.2964C88.628 42.4187 89.6065 41.6849 89.7288 40.4619C89.8511 39.3612 89.1172 38.3828 88.0165 38.2605C88.8726 37.649 89.9734 37.4044 91.0741 37.5267C93.6424 37.649 95.3546 39.7281 95.11 42.2964Z" fill="#989FB0"/>
<path d="M117.37 49.757C120.55 50.1239 123.363 47.8002 123.73 44.6204C124.097 41.4406 121.773 38.6277 118.593 38.2608C115.413 37.8939 112.6 40.2176 112.233 43.3974C111.867 46.6995 114.19 49.5124 117.37 49.757Z" fill="white"/>
<path d="M112.721 44.1314C112.477 46.5774 114.311 48.7788 116.757 49.0234C119.203 49.268 121.404 47.4335 121.649 44.9875C121.282 45.3544 120.671 45.599 120.181 45.4767C119.081 45.3544 118.225 44.376 118.347 43.2753C118.469 42.1746 119.448 41.4408 120.548 41.4408C119.815 40.707 118.836 40.2178 117.735 40.0955C115.289 39.8509 113.088 41.5631 112.721 44.1314Z" fill="#989FB0"/>
<path d="M93.0304 27.3771C90.9513 27.744 89.1168 28.1109 87.6492 29.0893C86.1816 30.0677 84.714 31.6576 83.9802 33.4921C83.9802 33.6144 83.8579 33.6144 83.7356 33.6144C83.6133 33.6144 83.6133 33.4921 83.6133 33.4921C83.7356 32.5137 84.2248 31.413 84.8363 30.5569C85.3255 29.5785 86.1816 28.8447 87.16 28.2332C88.1384 27.6217 88.9945 27.1325 90.0952 26.7656C91.1959 26.6433 92.2966 26.521 93.275 27.0102C93.1527 27.0102 93.3973 27.2548 93.0304 27.3771C93.1527 27.3771 93.1527 27.3771 93.0304 27.3771Z" fill="#989FB0"/>
<path d="M118.101 31.7788C119.935 32.5126 121.525 33.2464 122.871 34.4694C124.094 35.6924 125.072 37.5269 125.439 39.3614C125.439 39.4837 125.561 39.4837 125.684 39.4837C125.806 39.4837 125.806 39.3614 125.806 39.3614C125.928 38.383 125.561 37.2823 125.317 36.4262C124.95 35.4478 124.461 34.4694 123.604 33.7356C122.871 33.0018 122.137 32.268 121.158 31.7788C120.18 31.4119 119.079 31.1673 118.101 31.2896C117.979 31.4119 117.979 31.5342 118.101 31.7788C118.101 31.7788 117.856 31.7788 118.101 31.7788Z" fill="#989FB0"/>
<path d="M128.988 26.3981C126.787 23.4629 123.607 24.319 124.83 27.7434C126.787 33.1246 130.456 35.6929 131.434 55.7501C131.679 59.2968 143.542 51.7142 143.542 39.1173C143.542 36.7936 140.729 35.9375 140.729 35.9375C139.017 35.4483 132.535 30.9232 128.988 26.3981Z" fill="#989FB0"/>
<path d="M28.2121 35.9376C28.2121 35.9376 15.2482 32.1463 17.3273 36.4268C19.4065 40.7073 25.1546 49.2683 34.3271 51.3474C43.4996 53.3042 37.9961 45.2324 38.1184 45.3547L28.2121 35.9376Z" fill="#EEEEEE"/>
<g filter="url(#filter0_d_13214_101534)">
<path d="M14.5161 27.6211C17.8182 31.2901 31.6381 36.6713 42.8897 36.1821C44.4796 47.9229 45.7026 51.4696 47.7817 52.9372C42.1559 54.4048 26.9907 53.1818 24.9116 41.8079C14.2715 42.2971 14.5161 27.6211 14.5161 27.6211Z" fill="url(#paint0_linear_13214_101534)"/>
</g>
<g filter="url(#filter1_d_13214_101534)">
<path d="M160.664 71.0378C164.333 68.5917 170.937 57.2178 171.916 47.4338C182.311 47.4338 185.491 46.9446 187.203 45.2324C187.692 50.369 186.714 62.9659 177.908 70.4263C168.124 71.4047 160.664 71.0378 160.664 71.0378Z" fill="url(#paint1_linear_13214_101534)"/>
</g>
<path d="M117.124 65.0451C117.124 65.1674 117.124 65.4121 117.124 65.5344V65.6566C117.124 65.7789 117.124 65.9012 117.001 66.0235C116.268 67.9803 113.088 70.3041 109.786 70.6709C106.484 71.0379 103.059 69.6925 101.592 64.189C98.0449 67.6134 94.6205 68.1027 91.8076 67.3689C88.1386 66.3905 85.6926 63.4552 85.5703 62.5991C85.5703 62.2322 85.5703 61.8653 85.6926 61.4984C86.5487 53.5489 94.2536 47.9231 102.937 48.9015C111.62 50.0022 117.98 57.2179 117.124 65.0451Z" fill="#BFC8D6"/>
<path d="M102.935 50.123C102.202 50.0007 101.346 50.0007 100.612 50.123C99.6334 50.3676 98.1658 50.6122 97.9212 51.8352C97.7989 53.4251 101.223 55.2596 102.202 55.3819C103.18 55.5042 106.971 54.5258 107.216 52.9359C107.338 51.346 105.993 50.7345 104.77 50.3676C104.158 50.2453 103.425 50.0007 102.935 50.123Z" fill="#989FB0"/>
<path fill-rule="evenodd" clip-rule="evenodd" d="M101.923 58.314C101.866 56.6836 101.668 54.9785 101.504 53.9099L102.492 53.7578C102.661 54.8558 102.864 56.6008 102.923 58.2787C102.952 59.1175 102.947 59.9495 102.88 60.6804C102.816 61.3981 102.689 62.0709 102.445 62.5574L101.551 62.1102C101.708 61.7967 101.822 61.2779 101.884 60.5904C101.945 59.9161 101.952 59.1294 101.923 58.314Z" fill="#989FB0"/>
<path d="M82.5125 25.7863L82.3902 27.1316C81.7787 27.7431 81.2895 28.4769 80.678 29.2107C77.4982 33.4912 74.563 39.117 73.7069 46.2104C73.4623 45.3543 70.894 36.1818 70.4048 34.4696C70.2825 34.1027 70.1602 33.8581 70.1602 33.8581V31.2898L72.4839 26.1532L78.4766 23.0957L82.5125 25.7863Z" fill="#6F788D"/>
<path d="M87.8955 21.9941C86.1833 23.2171 84.2265 24.9293 82.392 27.1307C81.7805 27.7422 81.2913 28.476 80.6798 29.2098C80.4352 25.7854 76.3993 25.2962 76.3993 25.2962C75.9101 28.3537 73.2195 31.7781 70.2843 34.4687C67.8383 36.6701 65.1477 38.26 63.4355 38.3823C62.9463 38.3823 62.5793 38.0154 62.8239 37.5262C64.047 34.3464 63.6801 29.699 64.047 27.3753C64.5362 24.807 71.8742 20.8934 75.6655 19.4258C78.6007 18.3251 86.3056 19.915 87.8955 21.9941Z" fill="#989FB0"/>
<path d="M101.111 122.969C133.433 122.969 159.636 96.7653 159.636 64.3282C159.636 31.8911 133.317 5.6875 101.111 5.6875C68.7896 5.6875 42.5859 31.8911 42.5859 64.3282C42.5859 96.7653 68.7896 122.969 101.111 122.969Z" fill="#EAEEF9"/>
<path d="M167.069 45.7488C169.683 45.7488 171.802 43.6299 171.802 41.016C171.802 38.4022 169.683 36.2832 167.069 36.2832C164.455 36.2832 162.336 38.4022 162.336 41.016C162.336 43.6299 164.455 45.7488 167.069 45.7488Z" fill="#F1F3F9"/>
<path d="M173.994 27.2788C175.779 27.2788 177.226 25.8317 177.226 24.0466C177.226 22.2615 175.779 20.8145 173.994 20.8145C172.209 20.8145 170.762 22.2615 170.762 24.0466C170.762 25.8317 172.209 27.2788 173.994 27.2788Z" fill="#EAEEF9"/>
<path d="M45.24 25.8882C47.0251 25.8882 48.4721 24.4411 48.4721 22.656C48.4721 20.8709 47.0251 19.4238 45.24 19.4238C43.4549 19.4238 42.0078 20.8709 42.0078 22.656C42.0078 24.4411 43.4549 25.8882 45.24 25.8882Z" fill="#EAEEF9"/>
<path d="M25.5026 88.2239C28.8177 88.2239 31.5052 85.5365 31.5052 82.2213C31.5052 78.9062 28.8177 76.2188 25.5026 76.2188C22.1875 76.2188 19.5 78.9062 19.5 82.2213C19.5 85.5365 22.1875 88.2239 25.5026 88.2239Z" fill="#EAEEF9"/>
<g filter="url(#filter2_d_13214_101534)">
<path d="M135.858 102.704L77.5961 114.656C76.7444 114.788 75.9632 114.345 75.831 113.494L58.0642 26.5234C57.9321 25.6717 58.3746 24.8904 59.2263 24.7583L117.488 12.8063C118.339 12.6742 119.121 13.1167 119.253 13.9684L137.115 100.935C137.243 101.691 136.709 102.572 135.858 102.704Z" fill="url(#paint2_linear_13214_101534)"/>
</g>
<path d="M74.0972 68.4527L96.8936 63.7685" stroke="#D5DDEA" stroke-width="2" stroke-miterlimit="10" stroke-linecap="round" stroke-linejoin="round"/>
<path d="M103.687 62.3903L108.694 61.362" stroke="#D5DDEA" stroke-width="2" stroke-miterlimit="10" stroke-linecap="round" stroke-linejoin="round"/>
<path d="M114.773 60.1071L119.78 59.0788" stroke="#D5DDEA" stroke-width="2" stroke-miterlimit="10" stroke-linecap="round" stroke-linejoin="round"/>
<path d="M75.3589 74.6207L98.1554 69.9365" stroke="#D5DDEA" stroke-width="2" stroke-miterlimit="10" stroke-linecap="round" stroke-linejoin="round"/>
<path d="M104.945 68.4702L109.955 67.5319" stroke="#D5DDEA" stroke-width="2" stroke-miterlimit="10" stroke-linecap="round" stroke-linejoin="round"/>
<path d="M115.945 66.2809L120.952 65.2526" stroke="#D5DDEA" stroke-width="2" stroke-miterlimit="10" stroke-linecap="round" stroke-linejoin="round"/>
<path d="M76.6089 80.6988L99.4054 76.0146" stroke="#D5DDEA" stroke-width="2" stroke-miterlimit="10" stroke-linecap="round" stroke-linejoin="round"/>
<path d="M106.203 74.6383L111.209 73.61" stroke="#D5DDEA" stroke-width="2" stroke-miterlimit="10" stroke-linecap="round" stroke-linejoin="round"/>
<path d="M117.199 72.359L122.205 71.3307" stroke="#D5DDEA" stroke-width="2" stroke-miterlimit="10" stroke-linecap="round" stroke-linejoin="round"/>
<path d="M77.8667 86.7787L100.667 82.1845" stroke="#D5DDEA" stroke-width="2" stroke-miterlimit="10" stroke-linecap="round" stroke-linejoin="round"/>
<path d="M81.4061 103.942L87.8411 102.581" stroke="#D5DDEA" stroke-width="2" stroke-miterlimit="10" stroke-linecap="round" stroke-linejoin="round"/>
<path d="M80.492 99.4724L91.9371 97.1733" stroke="#D5DDEA" stroke-width="2" stroke-miterlimit="10" stroke-linecap="round" stroke-linejoin="round"/>
<path d="M115.656 95.0642L127.011 92.769" stroke="#D5DDEA" stroke-width="2" stroke-miterlimit="10" stroke-linecap="round" stroke-linejoin="round"/>
<path d="M107.457 80.7184L112.463 79.6901" stroke="#D5DDEA" stroke-width="2" stroke-miterlimit="10" stroke-linecap="round" stroke-linejoin="round"/>
<path d="M118.457 78.529L123.463 77.5006" stroke="#D5DDEA" stroke-width="2" stroke-miterlimit="10" stroke-linecap="round" stroke-linejoin="round"/>
<path d="M82.8191 39.6311C84.7564 39.112 86.0322 37.364 86.1468 35.312C86.192 34.8605 85.8496 34.5128 85.4182 34.4526C84.9868 34.3925 84.6653 34.7423 84.6201 35.1938C84.5622 36.5275 83.6415 37.741 82.4016 38.0732C81.1617 38.4054 79.7796 37.8969 79.0407 36.6888C78.7758 36.3203 78.3224 36.1782 77.9789 36.446C77.6354 36.7138 77.5128 37.1861 77.7776 37.5545C78.9248 39.3563 80.8818 40.1502 82.8191 39.6311Z" fill="#989FB0"/>
<path d="M100.831 35.842C102.768 35.3229 104.044 33.575 104.159 31.5229C104.204 31.0714 103.861 30.7237 103.43 30.6636C102.999 30.6034 102.677 30.9532 102.632 31.4047C102.574 32.7385 101.653 33.9519 100.413 34.2841C99.1735 34.6163 97.7914 34.1078 97.0524 32.8997C96.7875 32.5313 96.3342 32.3891 95.9906 32.6569C95.6471 32.9247 95.5245 33.397 95.7893 33.7655C96.9366 35.5673 98.8935 36.3611 100.831 35.842Z" fill="#989FB0"/>
<path d="M98.2172 43.2473L97.0955 43.5479C95.5915 41.7314 92.8811 41.6253 91.174 43.1925C90.4899 43.7457 89.9846 44.6209 89.8475 45.49L88.7258 45.7905C88.9582 42.8614 91.6946 40.6485 94.5606 40.9903C95.9073 41.1843 97.3064 41.9192 98.2172 43.2473Z" fill="#989FB0"/>
<circle opacity="0.4" cx="106.106" cy="42.3493" r="3.06774" transform="rotate(-11.8756 106.106 42.3493)" fill="#D5DDEA"/>
<circle opacity="0.4" cx="80.3756" cy="47.7614" r="3.06774" transform="rotate(-11.8756 80.3756 47.7614)" fill="#D5DDEA"/>
<defs>
<filter id="filter0_d_13214_101534" x="0.515625" y="17.6211" width="53.2656" height="45.8164" filterUnits="userSpaceOnUse" color-interpolation-filters="sRGB">
<feFlood flood-opacity="0" result="BackgroundImageFix"/>
<feColorMatrix in="SourceAlpha" type="matrix" values="0 0 0 0 0 0 0 0 0 0 0 0 0 0 0 0 0 0 127 0" result="hardAlpha"/>
<feOffset dx="-4"/>
<feGaussianBlur stdDeviation="5"/>
<feColorMatrix type="matrix" values="0 0 0 0 0.397708 0 0 0 0 0.47749 0 0 0 0 0.575 0 0 0 0.15 0"/>
<feBlend mode="normal" in2="BackgroundImageFix" result="effect1_dropShadow_13214_101534"/>
<feBlend mode="normal" in="SourceGraphic" in2="effect1_dropShadow_13214_101534" result="shape"/>
</filter>
<filter id="filter1_d_13214_101534" x="146.664" y="35.2324" width="46.6406" height="45.873" filterUnits="userSpaceOnUse" color-interpolation-filters="sRGB">
<feFlood flood-opacity="0" result="BackgroundImageFix"/>
<feColorMatrix in="SourceAlpha" type="matrix" values="0 0 0 0 0 0 0 0 0 0 0 0 0 0 0 0 0 0 127 0" result="hardAlpha"/>
<feOffset dx="-4"/>
<feGaussianBlur stdDeviation="5"/>
<feColorMatrix type="matrix" values="0 0 0 0 0.397708 0 0 0 0 0.47749 0 0 0 0 0.575 0 0 0 0.15 0"/>
<feBlend mode="normal" in2="BackgroundImageFix" result="effect1_dropShadow_13214_101534"/>
<feBlend mode="normal" in="SourceGraphic" in2="effect1_dropShadow_13214_101534" result="shape"/>
</filter>
<filter id="filter2_d_13214_101534" x="36.043" y="1.7832" width="123.09" height="145.896" filterUnits="userSpaceOnUse" color-interpolation-filters="sRGB">
<feFlood flood-opacity="0" result="BackgroundImageFix"/>
<feColorMatrix in="SourceAlpha" type="matrix" values="0 0 0 0 0 0 0 0 0 0 0 0 0 0 0 0 0 0 127 0" result="hardAlpha"/>
<feOffset dy="11"/>
<feGaussianBlur stdDeviation="11"/>
<feColorMatrix type="matrix" values="0 0 0 0 0.397708 0 0 0 0 0.47749 0 0 0 0 0.575 0 0 0 0.27 0"/>
<feBlend mode="normal" in2="BackgroundImageFix" result="effect1_dropShadow_13214_101534"/>
<feBlend mode="normal" in="SourceGraphic" in2="effect1_dropShadow_13214_101534" result="shape"/>
</filter>
<linearGradient id="paint0_linear_13214_101534" x1="31.1378" y1="27.024" x2="31.1378" y2="53.7151" gradientUnits="userSpaceOnUse">
<stop stop-color="#FDFEFF"/>
<stop offset="0.9964" stop-color="#ECF0F5"/>
</linearGradient>
<linearGradient id="paint1_linear_13214_101534" x1="173.976" y1="44.634" x2="173.976" y2="71.3841" gradientUnits="userSpaceOnUse">
<stop stop-color="#FDFEFF"/>
<stop offset="0.9964" stop-color="#ECF0F5"/>
</linearGradient>
<linearGradient id="paint2_linear_13214_101534" x1="95.3014" y1="11.4377" x2="99.773" y2="114.788" gradientUnits="userSpaceOnUse">
<stop stop-color="#FDFEFF"/>
<stop offset="0.9964" stop-color="#ECF0F5"/>
</linearGradient>
</defs>
</svg>
