<svg width="20" height="21" viewBox="0 0 20 21" fill="none" xmlns="http://www.w3.org/2000/svg">
<g clip-path="url(#clip0_20591_259876)">
<path d="M9.99792 20.9984C15.5388 20.9984 19.9958 16.5404 19.9958 10.9984C19.9958 5.45635 15.5388 0.998352 9.99792 0.998352C4.45707 0.998352 0 5.45635 0 10.9984C0 16.5404 4.45707 20.9984 9.99792 20.9984Z" fill="#4689D1" stroke="#E0E0E7" stroke-width="0.470002"/>
<path d="M12.7683 12.5765C12.7683 11.1185 11.8935 10.6185 10.1439 10.4095C8.89413 10.2425 8.64418 9.90946 8.64418 9.32647C8.64418 8.74347 9.06109 8.36847 9.89391 8.36847C10.6438 8.36847 11.0607 8.61847 11.2686 9.24347C11.3106 9.36846 11.4356 9.45146 11.5606 9.45146H12.2274C12.3944 9.45146 12.5193 9.32646 12.5193 9.15947V9.11747C12.3524 8.20047 11.6025 7.49247 10.6448 7.40947V6.40948C10.6448 6.24248 10.5198 6.11748 10.3118 6.07648H9.68696C9.51999 6.07648 9.39502 6.20148 9.35403 6.40948V7.36747C8.1043 7.53447 7.31247 8.36747 7.31247 9.40946C7.31247 10.7845 8.14529 11.3265 9.89491 11.5345C11.0617 11.7425 11.4366 11.9925 11.4366 12.6595C11.4366 13.3265 10.8537 13.7844 10.0619 13.7844C8.97911 13.7844 8.60419 13.3265 8.47922 12.7015C8.43723 12.5345 8.31226 12.4515 8.18728 12.4515H7.47944C7.31247 12.4515 7.1875 12.5765 7.1875 12.7435V12.7855C7.35446 13.8274 8.02032 14.5774 9.39502 14.7854V15.7854C9.39502 15.9524 9.51999 16.0774 9.72795 16.1184H10.3528C10.5198 16.1184 10.6448 15.9934 10.6857 15.7854V14.7854C11.9345 14.5764 12.7683 13.7014 12.7683 12.5765Z" fill="white"/>
<path fill-rule="evenodd" clip-rule="evenodd" d="M4.18679 8.54124C2.97803 11.7492 4.6447 15.3742 7.89405 16.5412C8.01903 16.6252 8.144 16.7912 8.144 16.9172V17.5002C8.144 17.5842 8.144 17.6252 8.10201 17.6672C8.06002 17.8342 7.89405 17.9172 7.72709 17.8342C5.39455 17.0842 3.60291 15.2922 2.85306 12.9592C1.60331 9.00024 3.76988 4.79224 7.72709 3.54224C7.76908 3.50024 7.85206 3.50024 7.89405 3.50024C8.06102 3.54124 8.144 3.66624 8.144 3.83324V4.41624C8.144 4.62524 8.06102 4.75024 7.89405 4.83324C6.18639 5.45824 4.81167 6.79124 4.18679 8.54124ZM11.9312 3.70711C11.9731 3.54011 12.1391 3.45711 12.3061 3.54011C14.5976 4.29011 16.4303 6.08211 17.1801 8.45611C18.4299 12.4151 16.2633 16.6231 12.3061 17.8731C12.2641 17.9151 12.1811 17.9151 12.1391 17.9151C11.9721 17.8741 11.8892 17.7491 11.8892 17.5821V16.9991C11.8892 16.7901 11.9721 16.6651 12.1391 16.5821C13.8468 15.9571 15.2215 14.6241 15.8464 12.8741C17.0551 9.66611 15.3885 6.04111 12.1391 4.87411C12.0141 4.79011 11.8892 4.62411 11.8892 4.45711V3.87411C11.8892 3.79011 11.8892 3.74911 11.9312 3.70711Z" fill="white"/>
</g>
<defs>
<clipPath id="clip0_20591_259876">
<rect width="19.9958" height="20" fill="white" transform="translate(0 0.998352)"/>
</clipPath>
</defs>
</svg>
