<svg width="47" height="47" viewBox="0 0 47 47" xmlns="http://www.w3.org/2000/svg">
<path d="M33.376 13.704C31.4175 12.8155 29.3785 12.1693 27.259 11.8193C26.9907 12.304 26.6956 12.9232 26.4809 13.4347C24.2273 13.0847 21.9468 13.0847 19.6931 13.4347C19.4517 12.8693 19.1834 12.3309 18.8882 11.8193C16.7687 12.1693 14.7029 12.8155 12.7712 13.7309C8.90775 19.5193 7.86141 25.1463 8.37117 30.7193C10.6517 32.4155 13.1736 33.7078 15.8834 34.5155C16.5004 33.6809 17.037 32.8193 17.4931 31.9039C16.6078 31.5809 15.776 31.177 14.9712 30.6924C15.1858 30.5309 15.3736 30.3693 15.5882 30.2078C20.337 32.4693 25.8639 32.4693 30.6126 30.2078C30.8273 30.3693 31.0151 30.5309 31.2297 30.6924C30.4248 31.177 29.5663 31.5809 28.6809 31.9039C29.137 32.8193 29.6736 33.6809 30.2907 34.5155C33.0004 33.6809 35.5492 32.4155 37.8029 30.7193C38.3931 24.2578 36.7297 18.6578 33.376 13.704ZM18.137 27.2732C16.6614 27.2732 15.4809 25.927 15.4809 24.2847C15.4809 22.6424 16.6614 21.2693 18.137 21.2693C19.6395 21.2693 20.8199 22.6155 20.8199 24.2847C20.7931 25.927 19.6395 27.2732 18.137 27.2732ZM28.0102 27.2732C26.5346 27.2732 25.3541 25.927 25.3541 24.2847C25.3541 22.6424 26.5346 21.2693 28.0102 21.2693C29.5126 21.2693 30.6931 22.6155 30.6663 24.2847C30.6395 25.9539 29.4858 27.2732 28.0102 27.2732Z" />
</svg>
