<svg width="14" height="14" viewBox="0 0 14 14" fill="none" xmlns="http://www.w3.org/2000/svg">
  <path fill-rule="evenodd" clip-rule="evenodd" d="M0.468491 4.31809C0.468491 2.23045 2.16085 0.538086 4.24849 0.538086H9.75516C11.8428 0.538086 13.5352 2.23045 13.5352 4.31809V9.63654C13.5352 11.7242 11.8428 13.4165 9.75516 13.4165H4.24849C2.16085 13.4165 0.468491 11.7242 0.468491 9.63654V4.31809ZM7.01121 9.17333C8.20841 9.17333 9.17893 8.20281 9.17893 7.00561C9.17893 5.80841 8.20841 4.83789 7.01121 4.83789C5.81401 4.83789 4.84349 5.80841 4.84349 7.00561C4.84349 8.20281 5.81401 9.17333 7.01121 9.17333ZM7.01121 10.34C8.85274 10.34 10.3456 8.84714 10.3456 7.00561C10.3456 5.16408 8.85274 3.67122 7.01121 3.67122C5.16968 3.67122 3.67682 5.16408 3.67682 7.00561C3.67682 8.84714 5.16968 10.34 7.01121 10.34ZM10.4891 4.33257C10.914 4.33257 11.2584 3.98814 11.2584 3.56326C11.2584 3.13838 10.914 2.79395 10.4891 2.79395C10.0642 2.79395 9.71979 3.13838 9.71979 3.56326C9.71979 3.98814 10.0642 4.33257 10.4891 4.33257Z" fill="#161616"/>
</svg>
