<svg width="12" height="10" viewBox="0 0 12 10" fill="#000" xmlns="http://www.w3.org/2000/svg">
<path d="M10.29 2.91101C10.2968 3.00365 10.2968 3.09632 10.2968 3.18896C10.2968 6.01468 8.06968 9.27058 3.99909 9.27058C2.74502 9.27058 1.58005 8.91983 0.600098 8.31103C0.778277 8.33087 0.94958 8.33749 1.13462 8.33749C2.16937 8.33749 3.12193 8 3.88259 7.42426C2.90949 7.4044 2.09401 6.78896 1.81304 5.9419C1.9501 5.96174 2.08715 5.97498 2.23107 5.97498C2.4298 5.97498 2.62854 5.9485 2.81356 5.9022C1.79935 5.70365 1.03866 4.84337 1.03866 3.8044V3.77794C1.33332 3.93676 1.67599 4.03602 2.03916 4.04924C1.44297 3.66541 1.05237 3.01027 1.05237 2.26909C1.05237 1.87204 1.162 1.50807 1.35389 1.19042C2.44349 2.48748 4.08132 3.33452 5.91785 3.42718C5.8836 3.26836 5.86303 3.10294 5.86303 2.93749C5.86303 1.75954 6.84984 0.799988 8.07649 0.799988C8.7138 0.799988 9.28943 1.05808 9.69376 1.47499C10.194 1.38234 10.6737 1.20366 11.0986 0.958812C10.9341 1.45515 10.5846 1.87206 10.1255 2.13675C10.5709 2.09045 11.0026 1.9713 11.4001 1.80588C11.0986 2.22939 10.7217 2.60658 10.29 2.91101Z"/>
</svg>
