<svg width="14" height="10" viewBox="0 0 14 10" fill="none" xmlns="http://www.w3.org/2000/svg">
<path d="M13.5216 1.65029C13.3677 1.07943 12.9144 0.629836 12.3388 0.477261C11.2955 0.200012 7.112 0.200012 7.112 0.200012C7.112 0.200012 2.92851 0.200012 1.88519 0.477261C1.3096 0.629861 0.856266 1.07943 0.702404 1.65029C0.422852 2.68501 0.422852 4.84386 0.422852 4.84386C0.422852 4.84386 0.422852 7.00271 0.702404 8.03743C0.856266 8.60829 1.3096 9.03916 1.88519 9.19173C2.92851 9.46898 7.112 9.46898 7.112 9.46898C7.112 9.46898 11.2955 9.46898 12.3388 9.19173C12.9144 9.03916 13.3677 8.60829 13.5216 8.03743C13.8012 7.00271 13.8012 4.84386 13.8012 4.84386C13.8012 4.84386 13.8012 2.68501 13.5216 1.65029ZM5.74376 6.80393V2.88379L9.24035 4.84391L5.74376 6.80393Z" fill="#161616"/>
</svg>
