<svg width="18" height="18" viewBox="0 0 18 18" fill="none" xmlns="http://www.w3.org/2000/svg">
<path d="M11.9295 2.25H6.07725C3.789 2.25 2.25 3.8565 2.25 6.246V11.7607C2.25 14.1435 3.789 15.75 6.07725 15.75H11.9295C14.2178 15.75 15.75 14.1435 15.75 11.7607V6.246C15.75 3.8565 14.2178 2.25 11.9295 2.25Z" fill="#F8F8FA"/>
<path fill-rule="evenodd" clip-rule="evenodd" d="M8.29586 5.93693C8.29586 6.32475 8.61046 6.64096 8.99586 6.64096C9.39253 6.64096 9.70793 6.32475 9.70793 5.93693C9.70793 5.54912 9.39253 5.23291 9.0039 5.23291C8.61367 5.23291 8.29586 5.54912 8.29586 5.93693ZM9.70001 8.48976C9.70001 8.10194 9.3838 7.78573 8.99599 7.78573C8.60817 7.78573 8.29196 8.10194 8.29196 8.48976V12.0461C8.29196 12.4339 8.60817 12.7501 8.99599 12.7501C9.3838 12.7501 9.70001 12.4339 9.70001 12.0461V8.48976Z" fill="#161616"/>
</svg>
