<svg width="40" height="40" viewBox="0 0 40 40" fill="none" xmlns="http://www.w3.org/2000/svg">
<circle cx="20" cy="20" r="20" fill="#CB1451"/>
<path d="M15.1505 26.1225C15.0522 25.9552 15.0004 25.7652 15.0003 25.5717V14.4293C15.0002 14.2357 15.052 14.0456 15.1502 13.8783C15.2485 13.711 15.3898 13.5725 15.5598 13.4769C15.7298 13.3813 15.9223 13.332 16.1178 13.334C16.3133 13.3361 16.5047 13.3894 16.6726 13.4886L26.1269 19.0598C26.2915 19.157 26.4279 19.2948 26.5225 19.4598C26.6172 19.6248 26.667 19.8114 26.667 20.0011C26.667 20.1909 26.6172 20.3774 26.5225 20.5425C26.4279 20.7075 26.2915 20.8453 26.1269 20.9425L16.6726 26.5137C16.5046 26.6125 16.3131 26.6655 16.1176 26.6673C15.9222 26.6691 15.7298 26.6196 15.5599 26.5239C15.39 26.4282 15.2488 26.2897 15.1505 26.1225Z" fill="#F8F8FA"/>
</svg>
