<svg width="40" height="40" viewBox="0 0 40 40" fill="none" xmlns="http://www.w3.org/2000/svg">
<circle cx="20" cy="20" r="20" fill="#018153"/>
<path d="M15.1502 26.1217C15.0519 25.9545 15.0001 25.7645 15 25.571V14.4286C14.9999 14.235 15.0516 14.0449 15.1499 13.8776C15.2482 13.7103 15.3895 13.5718 15.5595 13.4762C15.7295 13.3806 15.922 13.3313 16.1175 13.3333C16.313 13.3354 16.5044 13.3887 16.6723 13.4878L26.1266 19.059C26.2912 19.1562 26.4276 19.2941 26.5222 19.4591C26.6169 19.6241 26.6667 19.8106 26.6667 20.0004C26.6667 20.1902 26.6169 20.3767 26.5222 20.5417C26.4276 20.7067 26.2912 20.8446 26.1266 20.9418L16.6723 26.513C16.5043 26.6118 16.3128 26.6647 16.1173 26.6665C15.9219 26.6683 15.7295 26.6189 15.5596 26.5232C15.3897 26.4275 15.2485 26.289 15.1502 26.1217Z" fill="#F8F8FA"/>
</svg>
