<svg width="16" height="12" viewBox="0 0 16 12" fill="none" xmlns="http://www.w3.org/2000/svg">
<path fill-rule="evenodd" clip-rule="evenodd" d="M2.07804 0.154348C1.80191 0.186985 1.47098 0.297745 1.19697 0.44917C0.923212 0.600501 0.519202 1.00095 0.350815 1.2879C0.186804 1.56735 0.0662414 1.90835 0.109002 1.97188C0.135509 2.01123 7.88525 6.72957 7.98772 6.76871C8.0297 6.78473 15.8475 2.042 15.8941 1.97222C15.9161 1.93921 15.904 1.86423 15.8526 1.71563C15.7364 1.37943 15.5502 1.09479 15.2565 0.804381C15.0335 0.58398 14.9371 0.514133 14.6908 0.394785C14.1095 0.113124 14.7484 0.138636 8.1422 0.133254C4.92731 0.130609 2.19845 0.14013 2.07804 0.154348ZM5.637e-06 6.59852C0.00059954 9.97056 -0.00108839 9.92995 0.156984 10.3531C0.421458 11.061 1.08232 11.6335 1.83914 11.8103C2.06463 11.863 2.4131 11.8661 8.00153 11.8661C13.59 11.8661 13.9384 11.863 14.1639 11.8103C14.9423 11.6284 15.6024 11.0433 15.8612 10.3058C16.0046 9.89741 16.006 9.85734 15.9968 6.57061L15.988 3.45296L12.2683 5.70939C10.2224 6.95044 8.48178 8.00008 8.4002 8.04192C8.1888 8.15035 7.93596 8.17011 7.72021 8.09506C7.62431 8.06171 5.88965 7.02672 3.79733 5.75453C1.7343 4.50011 0.0358274 3.46767 0.0229178 3.46017C0.0100082 3.45268 -0.000275685 4.86493 5.637e-06 6.59852Z" fill="#161616" fill-opacity="0.8"/>
</svg>
