<svg width="28" height="28" viewBox="0 0 28 28" fill="none" xmlns="http://www.w3.org/2000/svg">
<path d="M14.385 8.48459C15.2426 8.48459 16.3176 7.90481 16.9578 7.13176C17.5376 6.43119 17.9603 5.4528 17.9603 4.47442C17.9603 4.34155 17.9483 4.20869 17.9241 4.09998C16.9699 4.13621 15.8224 4.74015 15.1339 5.54944C14.5903 6.16546 14.0951 7.13176 14.0951 8.12223C14.0951 8.26717 14.1193 8.41212 14.1313 8.46043C14.1917 8.47251 14.2884 8.48459 14.385 8.48459ZM11.3653 23.1C12.5369 23.1 13.0563 22.3149 14.5179 22.3149C16.0036 22.3149 16.3297 23.0758 17.6342 23.0758C18.9146 23.0758 19.7722 21.8921 20.5814 20.7325C21.4874 19.4039 21.8618 18.0993 21.886 18.0389C21.8014 18.0148 19.3494 17.0122 19.3494 14.1979C19.3494 11.758 21.282 10.6588 21.3907 10.5742C20.1104 8.73825 18.1657 8.68993 17.6342 8.68993C16.1968 8.68993 15.0252 9.55961 14.2884 9.55961C13.4912 9.55961 12.4403 8.73825 11.1962 8.73825C8.82874 8.73825 6.42505 10.695 6.42505 14.3911C6.42505 16.6861 7.31888 19.114 8.41806 20.6842C9.3602 22.0129 10.1816 23.1 11.3653 23.1Z" fill="black"/>
</svg>
