<svg width="23" height="18" viewBox="0 0 23 18" fill="none" xmlns="http://www.w3.org/2000/svg">
<path d="M19.9139 3.13388C19.4553 2.35833 18.7462 1.76002 17.9014 1.44682C17.0243 1.1216 16.1266 0.861871 15.2083 0.675598C14.834 0.599655 14.4571 0.78129 14.2904 1.12498C14.1093 1.49847 13.7102 1.72218 13.2977 1.67605C12.0709 1.53886 10.8365 1.53853 9.60964 1.67506C9.19129 1.72161 8.78561 1.49077 8.59606 1.11492C8.42341 0.772605 8.04551 0.599409 7.66974 0.675499C6.75036 0.861668 5.84732 1.12198 4.97252 1.45247C4.12806 1.77151 3.42586 2.38064 2.96924 3.15936C1.16813 6.23104 0.397934 9.24501 0.315986 12.2305C0.272761 13.8052 1.10049 15.2801 2.47803 16.0443C3.34968 16.5278 4.2582 16.9389 5.19937 17.2711C5.69979 17.4477 6.25544 17.2637 6.54433 16.8185C6.63758 16.6749 6.7278 16.5298 6.81501 16.3831C7.06117 15.9691 6.8501 15.4475 6.41302 15.245C6.17714 15.1358 5.94565 15.0181 5.7175 14.8921C5.54256 14.7955 5.52592 14.5493 5.68269 14.4253C5.76467 14.3605 5.8774 14.349 5.97239 14.3925C9.45189 15.989 13.4667 15.989 16.9462 14.3925C17.0412 14.349 17.1539 14.3605 17.2359 14.4253C17.3926 14.5493 17.3759 14.7954 17.2006 14.8913C16.9697 15.0175 16.7337 15.1354 16.4938 15.2448C16.0518 15.4465 15.8389 15.9724 16.0874 16.3898C16.1725 16.5327 16.2604 16.6741 16.3512 16.8141C16.6412 17.2613 17.2005 17.4434 17.7023 17.264C18.6498 16.9254 19.567 16.5144 20.4431 16.031C21.8088 15.2775 22.6234 13.8151 22.58 12.256C22.4869 8.91216 21.5447 5.89188 19.9139 3.13388ZM7.73218 12.1246C6.62412 12.1246 5.73767 11.1173 5.73767 9.88838C5.73767 8.65945 6.62412 7.63197 7.73218 7.63197C8.86038 7.63197 9.74683 8.6393 9.74683 9.88838C9.72669 11.1173 8.86038 12.1246 7.73218 12.1246ZM15.1461 12.1246C14.038 12.1246 13.1516 11.1173 13.1516 9.88838C13.1516 8.65945 14.038 7.63197 15.1461 7.63197C16.2743 7.63197 17.1607 8.6393 17.1406 9.88838C17.1205 11.1375 16.2542 12.1246 15.1461 12.1246Z" fill="#717178"/>
</svg>
