<svg width="27" height="21" viewBox="0 0 27 21" fill="none" xmlns="http://www.w3.org/2000/svg">
<path d="M23.6864 5.16028C23.7031 5.38674 23.7031 5.61325 23.7031 5.8397C23.7031 12.747 18.259 20.7059 8.30866 20.7059C5.24315 20.7059 2.39545 19.8485 0 18.3603C0.43555 18.4088 0.854291 18.425 1.3066 18.425C3.83601 18.425 6.16448 17.6 8.02388 16.1927C5.64519 16.1441 3.65177 14.6397 2.96496 12.5691C3.30001 12.6176 3.63502 12.65 3.98683 12.65C4.4726 12.65 4.95842 12.5852 5.41068 12.4721C2.93149 11.9867 1.07204 9.88382 1.07204 7.34411V7.27943C1.79232 7.66767 2.62996 7.91031 3.51771 7.94262C2.06034 7.00437 1.10556 5.40292 1.10556 3.59114C1.10556 2.62057 1.37353 1.73086 1.84259 0.954388C4.50606 4.12497 8.50965 6.19553 12.999 6.42204C12.9152 6.0338 12.8649 5.62943 12.8649 5.22501C12.8649 2.34556 15.2772 0 18.2756 0C19.8335 0 21.2406 0.630881 22.2289 1.65C23.4517 1.42354 24.6243 0.986753 25.663 0.388238C25.2609 1.6015 24.4066 2.62062 23.2843 3.26763C24.3731 3.15445 25.4285 2.86321 26.4 2.45884C25.6631 3.49409 24.7417 4.41612 23.6864 5.16028Z" fill="#717178"/>
</svg>
