<svg width="25" height="24" viewBox="0 0 25 24" fill="none" xmlns="http://www.w3.org/2000/svg">
<path d="M22.6251 5.96017C21.908 6.26954 21.1275 6.4922 20.3236 6.57892C21.1582 6.08306 21.7832 5.2997 22.0814 4.37579C21.2982 4.8417 20.4402 5.16841 19.5455 5.34142C19.1715 4.94163 18.7192 4.62315 18.2168 4.40581C17.7144 4.18847 17.1726 4.07693 16.6251 4.07813C14.4103 4.07813 12.6291 5.87345 12.6291 8.07657C12.6291 8.38595 12.6666 8.69532 12.7275 8.99298C9.41108 8.81954 6.45327 7.23517 4.48687 4.80938C4.12857 5.42137 3.9408 6.1182 3.94311 6.82735C3.94311 8.21485 4.64858 9.43829 5.72436 10.1578C5.09039 10.1329 4.47126 9.9586 3.91733 9.64923V9.69845C3.91733 11.6414 5.29077 13.2516 7.12124 13.6219C6.77755 13.7112 6.42399 13.7568 6.0689 13.7578C5.80874 13.7578 5.56265 13.732 5.31421 13.6969C5.82046 15.2813 7.29468 16.432 9.05015 16.4695C7.67671 17.5453 5.9564 18.1781 4.08843 18.1781C3.75327 18.1781 3.4439 18.1664 3.1228 18.1289C4.89468 19.2656 6.99702 19.9219 9.26108 19.9219C16.6111 19.9219 20.633 13.8328 20.633 8.54767C20.633 8.37423 20.633 8.20079 20.6212 8.02735C21.3994 7.45782 22.0814 6.75235 22.6251 5.96017Z" fill="#41ABE1"/>
</svg>
