<svg width="16" height="17" viewBox="0 0 16 17" fill="none" xmlns="http://www.w3.org/2000/svg">
<g clip-path="url(#clip0_19132_182033)">
<path d="M8.23719 16.8184C4.284 16.8184 1.21297 14.9612 0.222231 11.9717L0 11.3029L0.649751 10.999C0.718457 10.9662 2.42298 10.1291 2.31695 8.483C2.20499 6.74527 0.762981 5.92968 0.701484 5.8961L0.0678603 5.54615L0.341411 4.88563C1.63793 1.82563 4.59021 0 8.23761 0C11.1042 0 13.6167 1.09505 15.1291 3.00402L15.5108 3.48666L12.497 7.45015L11.8244 6.81534C11.8112 6.80332 10.3786 5.48146 8.71559 5.474C7.11328 5.46654 6.48177 6.05573 6.45548 6.08102L5.26837 4.96815C5.37695 4.85495 6.3944 3.85029 8.7228 3.86729C10.2064 3.87393 11.488 4.56595 12.2442 5.08963L13.4263 3.53517C12.2006 2.30371 10.3455 1.60754 8.23804 1.60754C5.51648 1.60754 3.28138 2.83859 2.13627 4.93166C2.82843 5.49846 3.8442 6.62088 3.95871 8.38183C4.08128 10.285 2.83395 11.4816 2.02262 12.053C2.98281 14.0155 5.29976 15.2096 8.23846 15.2096C10.2738 15.2096 12.3571 14.4363 13.6434 13.2409L12.2994 11.5969C11.5839 12.0916 10.3612 12.7342 8.76224 12.8155C6.49195 12.9295 5.14962 11.91 5.09364 11.8664L6.11449 10.6068C6.14587 10.6291 7.05772 11.2934 8.67657 11.21C10.5927 11.1139 11.8218 9.91266 11.8333 9.89981L12.4834 9.25339L13.0649 9.95868L15.7814 13.2836L15.3649 13.7858C13.8368 15.628 11.0402 16.8184 8.23719 16.8184Z" fill="url(#paint0_linear_19132_182033)"/>
</g>
<defs>
<linearGradient id="paint0_linear_19132_182033" x1="15.0972" y1="2.65407" x2="2.0206" y2="14.3639" gradientUnits="userSpaceOnUse">
<stop offset="0.0733" stop-color="#F46881"/>
<stop offset="0.083" stop-color="#F36682"/>
<stop offset="0.2596" stop-color="#E74596"/>
<stop offset="0.407" stop-color="#E031A2"/>
<stop offset="0.5065" stop-color="#DD2AA6"/>
<stop offset="0.8882" stop-color="#5210E2"/>
</linearGradient>
<clipPath id="clip0_19132_182033">
<rect width="15.6923" height="17" fill="white"/>
</clipPath>
</defs>
</svg>
