<svg width="18" height="19" viewBox="0 0 18 19" fill="none" xmlns="http://www.w3.org/2000/svg">
<path fill-rule="evenodd" clip-rule="evenodd" d="M8.96031 1.88775C4.50456 1.88775 0.892471 5.50643 0.892471 9.97035C0.892471 14.4342 4.50456 18.0529 8.96031 18.0529C9.20513 18.0529 9.40362 18.2517 9.40362 18.497C9.40362 18.7423 9.20513 18.9411 8.96031 18.9411C4.01489 18.9411 0.00585938 14.9247 0.00585938 9.97035C0.00585938 5.01588 4.01489 0.999512 8.96031 0.999512C10.0025 0.999512 11.0041 1.17809 11.9357 1.50677C12.1666 1.58825 12.2879 1.84185 12.2066 2.07319C12.1252 2.30455 11.8721 2.42604 11.6412 2.34456C10.803 2.04881 9.90087 1.88775 8.96031 1.88775ZM8.95901 4.73178C6.07013 4.73178 3.72824 7.07796 3.72824 9.97208C3.72824 12.8662 6.07013 15.2124 8.95901 15.2124C9.20383 15.2124 9.40232 15.4113 9.40232 15.6566C9.40232 15.9018 9.20383 16.1007 8.95901 16.1007C5.58046 16.1007 2.84162 13.3569 2.84162 9.97208C2.84162 6.5874 5.58046 3.84354 8.95901 3.84354C10.0685 3.84354 11.1103 4.13988 12.0084 4.65816C12.2205 4.78059 12.2934 5.05214 12.1713 5.26467C12.0491 5.47721 11.778 5.55026 11.5658 5.42783C10.7988 4.98515 9.9091 4.73178 8.95901 4.73178ZM12.2348 10.1597C12.2417 9.54246 11.9385 8.91546 11.3257 8.56106L9.34889 7.41767C8.13657 6.71645 6.62118 7.59297 6.62118 8.99536V11.2821C6.62118 12.6846 8.13657 13.5611 9.34889 12.8599C9.56088 12.7372 9.63354 12.4656 9.51117 12.2532C9.38872 12.0408 9.11758 11.968 8.90558 12.0906C8.28433 12.45 7.5078 12.0008 7.5078 11.2821V8.99536C7.5078 8.27674 8.28433 7.82757 8.90558 8.1869L10.8824 9.33033C11.1968 9.51218 11.3518 9.82841 11.3482 10.1497C11.3454 10.3949 11.5417 10.596 11.7865 10.5988C12.0313 10.6016 12.232 10.405 12.2348 10.1597Z" fill="url(#paint0_linear_19132_182029)"/>
<path fill-rule="evenodd" clip-rule="evenodd" d="M11.7972 0.0701904C12.042 0.0701904 12.2405 0.269028 12.2405 0.514309V10.1399V10.1405C12.2397 10.7502 11.9361 11.3659 11.3312 11.7157L9.35451 12.8591C8.14216 13.5603 6.62677 12.6838 6.62677 11.2814C6.62677 11.0361 6.82525 10.8373 7.07008 10.8373C7.31491 10.8373 7.51339 11.0361 7.51339 11.2814C7.51339 12.0001 8.28993 12.4492 8.91112 12.0899L10.8879 10.9465C11.1985 10.7668 11.3534 10.4565 11.3539 10.1396V10.1393V0.514309C11.3539 0.269029 11.5523 0.0701904 11.7972 0.0701904ZM14.6343 0.537762C14.8791 0.537762 15.0776 0.736601 15.0776 0.981882V9.97211C15.0776 13.3569 12.3387 16.1007 8.96023 16.1007C5.5817 16.1007 2.84285 13.3569 2.84285 9.97211C2.84285 9.72684 3.04133 9.52799 3.28616 9.52799C3.53099 9.52799 3.72946 9.72684 3.72946 9.97211C3.72946 12.8663 6.07136 15.2125 8.96023 15.2125C11.8491 15.2125 14.191 12.8663 14.191 9.97211V0.981882C14.191 0.736601 14.3895 0.537762 14.6343 0.537762ZM17.9147 1.44544C17.9147 1.20016 17.7162 1.00132 17.4714 1.00132C17.2266 1.00132 17.0281 1.20016 17.0281 1.44544V9.97211C17.0281 14.436 13.416 18.0547 8.96031 18.0547C4.50456 18.0547 0.892471 14.436 0.892471 9.97211C0.892471 9.72684 0.693998 9.52799 0.449166 9.52799C0.204335 9.52799 0.00585938 9.72684 0.00585938 9.97211C0.00585938 14.9266 4.01489 18.9429 8.96031 18.9429C13.9057 18.9429 17.9147 14.9266 17.9147 9.97211V1.44544Z" fill="url(#paint1_angular_19132_182029)"/>
<defs>
<linearGradient id="paint0_linear_19132_182029" x1="-3.12616" y1="4.40556" x2="11.9989" y2="3.40137" gradientUnits="userSpaceOnUse">
<stop stop-color="#FD9988"/>
<stop offset="0.105262" stop-color="#D38CB7"/>
<stop offset="0.16694" stop-color="#9B79D2"/>
<stop offset="0.38572" stop-color="#9979D3"/>
<stop offset="0.652275" stop-color="#AD80CA"/>
<stop offset="0.824115" stop-color="#6B639F"/>
<stop offset="1" stop-color="#36188B"/>
</linearGradient>
<radialGradient id="paint1_angular_19132_182029" cx="0" cy="0" r="1" gradientUnits="userSpaceOnUse" gradientTransform="translate(8.29616 9.99519) rotate(-76.4766) scale(12.7592 12.3311)">
<stop offset="0.00210938" stop-color="#F4E3AF"/>
<stop offset="0.162542" stop-color="#FD9988"/>
<stop offset="0.460803" stop-color="#D38CB7"/>
<stop offset="0.843132" stop-color="#7F70DE"/>
</radialGradient>
</defs>
</svg>
