<svg width="30" height="30" viewBox="0 0 30 30" fill="none" xmlns="http://www.w3.org/2000/svg">
<g filter="url(#filter0_b_109_107)">
<rect width="30" height="30" rx="15" fill="#161616" fill-opacity="0.7"/>
<path fill-rule="evenodd" clip-rule="evenodd" d="M10.2292 8.05387C8.15481 8.37634 6.53855 9.90305 6.08166 11.9716C5.97128 12.4714 5.97308 13.4283 6.08536 13.9521C6.19901 14.4821 6.30723 14.7884 6.56468 15.3085C6.94216 16.0711 7.40736 16.6272 8.62544 17.7717C9.87003 18.9413 11.2296 20.1277 13.3258 21.8734C13.9851 22.4226 14.5707 22.8959 14.6271 22.9254C14.7704 23.0003 15.103 23.0245 15.2629 22.9717C15.4067 22.9242 15.5525 22.8104 16.7957 21.7752C19.447 19.5675 21.6498 17.5904 22.463 16.6884C22.9504 16.1477 23.2063 15.7827 23.455 15.2732C23.6877 14.7966 23.8066 14.4531 23.9174 13.9367C24.0196 13.4603 24.0286 12.4981 23.9351 12.0496C23.6083 10.4838 22.6432 9.21361 21.2618 8.53115C19.9048 7.86077 18.359 7.82346 16.9787 8.42781C16.3734 8.69279 15.9467 8.99335 15.3439 9.57935L15.0011 9.91264L14.622 9.54461C14.0463 8.98574 13.5868 8.66841 12.9668 8.40146C12.1451 8.0477 11.1125 7.91657 10.2292 8.05387ZM11.5512 9.64033C12.0725 9.72971 12.5117 9.90478 12.9397 10.1939C13.056 10.2723 13.468 10.6484 13.8554 11.0295C14.3863 11.5517 14.5945 11.734 14.7007 11.7697C14.8968 11.8357 15.2033 11.8272 15.3522 11.7517C15.42 11.7173 15.7766 11.3925 16.1446 11.03C16.5127 10.6675 16.9194 10.2963 17.0484 10.2053C17.3583 9.98652 17.7499 9.80884 18.1655 9.69829C18.4547 9.62141 18.579 9.6082 19.015 9.6082C19.4555 9.6082 19.574 9.62106 19.8778 9.70167C21.501 10.1324 22.5621 11.6469 22.3933 13.2921C22.325 13.9578 22.0626 14.6343 21.6638 15.1722C21.3091 15.6509 20.267 16.6691 18.8731 17.899C17.5314 19.083 15.0583 21.1745 15 21.1745C14.983 21.1745 14.5679 20.8388 14.0776 20.4285C11.0003 17.853 8.89782 15.9299 8.34732 15.1872C7.72081 14.3419 7.46706 13.3115 7.64407 12.3314C7.9659 10.5492 9.73712 9.32928 11.5512 9.64033Z" fill="#F8F8FA"/>
</g>
<defs>
<filter id="filter0_b_109_107" x="-22" y="-22" width="74" height="74" filterUnits="userSpaceOnUse" color-interpolation-filters="sRGB">
<feFlood flood-opacity="0" result="BackgroundImageFix"/>
<feGaussianBlur in="BackgroundImageFix" stdDeviation="11"/>
<feComposite in2="SourceAlpha" operator="in" result="effect1_backgroundBlur_109_107"/>
<feBlend mode="normal" in="SourceGraphic" in2="effect1_backgroundBlur_109_107" result="shape"/>
</filter>
</defs>
</svg>
