<svg width="20" height="15" viewBox="0 0 20 15" fill="none" xmlns="http://www.w3.org/2000/svg">
<rect width="20" height="15" rx="2" fill="white"/>
<mask id="mask0_24147_186281" style="mask-type:alpha" maskUnits="userSpaceOnUse" x="0" y="0" width="20" height="15">
<rect width="20" height="15" rx="2" fill="white"/>
</mask>
<g mask="url(#mask0_24147_186281)">
<path fill-rule="evenodd" clip-rule="evenodd" d="M20 0H0V1H20V0ZM20 2.00012H0V3.00012H20V2.00012ZM0 4H20V5H0V4ZM20 6H0V7H20V6ZM0 7.99988H20V8.99988H0V7.99988ZM20 10H0V11H20V10ZM0 12.0001H20V13.0001H0V12.0001ZM20 14H0V15H20V14Z" fill="#D02F44"/>
<rect width="8.57143" height="7" fill="#46467F"/>
<g filter="url(#filter0_d_24147_186281)">
<path fill-rule="evenodd" clip-rule="evenodd" d="M1.90551 1.50006C1.90551 1.7762 1.69231 2.00006 1.42932 2.00006C1.16632 2.00006 0.953125 1.7762 0.953125 1.50006C0.953125 1.22392 1.16632 1.00006 1.42932 1.00006C1.69231 1.00006 1.90551 1.22392 1.90551 1.50006ZM3.81027 1.50006C3.81027 1.7762 3.59707 2.00006 3.33408 2.00006C3.07108 2.00006 2.85789 1.7762 2.85789 1.50006C2.85789 1.22392 3.07108 1.00006 3.33408 1.00006C3.59707 1.00006 3.81027 1.22392 3.81027 1.50006ZM5.23884 2.00006C5.50183 2.00006 5.71503 1.7762 5.71503 1.50006C5.71503 1.22392 5.50183 1.00006 5.23884 1.00006C4.97585 1.00006 4.76265 1.22392 4.76265 1.50006C4.76265 1.7762 4.97585 2.00006 5.23884 2.00006ZM7.61979 1.50006C7.61979 1.7762 7.40659 2.00006 7.1436 2.00006C6.88061 2.00006 6.66741 1.7762 6.66741 1.50006C6.66741 1.22392 6.88061 1.00006 7.1436 1.00006C7.40659 1.00006 7.61979 1.22392 7.61979 1.50006ZM2.38177 3.00012C2.64476 3.00012 2.85796 2.77627 2.85796 2.50012C2.85796 2.22398 2.64476 2.00012 2.38177 2.00012C2.11878 2.00012 1.90558 2.22398 1.90558 2.50012C1.90558 2.77627 2.11878 3.00012 2.38177 3.00012ZM4.76271 2.50012C4.76271 2.77627 4.54952 3.00012 4.28652 3.00012C4.02353 3.00012 3.81033 2.77627 3.81033 2.50012C3.81033 2.22398 4.02353 2.00012 4.28652 2.00012C4.54952 2.00012 4.76271 2.22398 4.76271 2.50012ZM6.19122 3.00006C6.45421 3.00006 6.66741 2.7762 6.66741 2.50006C6.66741 2.22392 6.45421 2.00006 6.19122 2.00006C5.92823 2.00006 5.71503 2.22392 5.71503 2.50006C5.71503 2.7762 5.92823 3.00006 6.19122 3.00006ZM7.61979 3.50018C7.61979 3.77633 7.40659 4.00018 7.1436 4.00018C6.88061 4.00018 6.66741 3.77633 6.66741 3.50018C6.66741 3.22404 6.88061 3.00018 7.1436 3.00018C7.40659 3.00018 7.61979 3.22404 7.61979 3.50018ZM5.23878 4.00018C5.50177 4.00018 5.71497 3.77633 5.71497 3.50018C5.71497 3.22404 5.50177 3.00018 5.23878 3.00018C4.97579 3.00018 4.76259 3.22404 4.76259 3.50018C4.76259 3.77633 4.97579 4.00018 5.23878 4.00018ZM3.81026 3.50018C3.81026 3.77633 3.59706 4.00018 3.33407 4.00018C3.07108 4.00018 2.85788 3.77633 2.85788 3.50018C2.85788 3.22404 3.07108 3.00018 3.33407 3.00018C3.59706 3.00018 3.81026 3.22404 3.81026 3.50018ZM1.42932 4.00018C1.69231 4.00018 1.90551 3.77633 1.90551 3.50018C1.90551 3.22404 1.69231 3.00018 1.42932 3.00018C1.16632 3.00018 0.953125 3.22404 0.953125 3.50018C0.953125 3.77633 1.16632 4.00018 1.42932 4.00018ZM2.85783 4.49994C2.85783 4.77608 2.64463 4.99994 2.38164 4.99994C2.11865 4.99994 1.90545 4.77608 1.90545 4.49994C1.90545 4.2238 2.11865 3.99994 2.38164 3.99994C2.64463 3.99994 2.85783 4.2238 2.85783 4.49994ZM4.28652 4.99994C4.54952 4.99994 4.76271 4.77608 4.76271 4.49994C4.76271 4.2238 4.54952 3.99994 4.28652 3.99994C4.02353 3.99994 3.81033 4.2238 3.81033 4.49994C3.81033 4.77608 4.02353 4.99994 4.28652 4.99994ZM6.66747 4.49994C6.66747 4.77608 6.45427 4.99994 6.19128 4.99994C5.92829 4.99994 5.71509 4.77608 5.71509 4.49994C5.71509 4.2238 5.92829 3.99994 6.19128 3.99994C6.45427 3.99994 6.66747 4.2238 6.66747 4.49994ZM7.1436 6.00006C7.40659 6.00006 7.61979 5.7762 7.61979 5.50006C7.61979 5.22392 7.40659 5.00006 7.1436 5.00006C6.88061 5.00006 6.66741 5.22392 6.66741 5.50006C6.66741 5.7762 6.88061 6.00006 7.1436 6.00006ZM5.71503 5.50006C5.71503 5.7762 5.50183 6.00006 5.23884 6.00006C4.97585 6.00006 4.76265 5.7762 4.76265 5.50006C4.76265 5.22392 4.97585 5.00006 5.23884 5.00006C5.50183 5.00006 5.71503 5.22392 5.71503 5.50006ZM3.33408 6.00006C3.59707 6.00006 3.81027 5.7762 3.81027 5.50006C3.81027 5.22392 3.59707 5.00006 3.33408 5.00006C3.07108 5.00006 2.85789 5.22392 2.85789 5.50006C2.85789 5.7762 3.07108 6.00006 3.33408 6.00006ZM1.90551 5.50006C1.90551 5.7762 1.69231 6.00006 1.42932 6.00006C1.16632 6.00006 0.953125 5.7762 0.953125 5.50006C0.953125 5.22392 1.16632 5.00006 1.42932 5.00006C1.69231 5.00006 1.90551 5.22392 1.90551 5.50006Z" fill="url(#paint0_linear_24147_186281)"/>
</g>
</g>
<defs>
<filter id="filter0_d_24147_186281" x="0.953125" y="1.00006" width="6.66602" height="6" filterUnits="userSpaceOnUse" color-interpolation-filters="sRGB">
<feFlood flood-opacity="0" result="BackgroundImageFix"/>
<feColorMatrix in="SourceAlpha" type="matrix" values="0 0 0 0 0 0 0 0 0 0 0 0 0 0 0 0 0 0 127 0" result="hardAlpha"/>
<feOffset dy="1"/>
<feColorMatrix type="matrix" values="0 0 0 0 0 0 0 0 0 0 0 0 0 0 0 0 0 0 0.06 0"/>
<feBlend mode="normal" in2="BackgroundImageFix" result="effect1_dropShadow_24147_186281"/>
<feBlend mode="normal" in="SourceGraphic" in2="effect1_dropShadow_24147_186281" result="shape"/>
</filter>
<linearGradient id="paint0_linear_24147_186281" x1="0.953125" y1="1.00006" x2="0.953125" y2="6.00006" gradientUnits="userSpaceOnUse">
<stop stop-color="white"/>
<stop offset="1" stop-color="#F0F0F0"/>
</linearGradient>
</defs>
</svg>
