<svg width="101" height="100" viewBox="0 0 101 100" fill="none" xmlns="http://www.w3.org/2000/svg">
<g clip-path="url(#clip0_2241_15812)">
<path opacity="0.5" fill-rule="evenodd" clip-rule="evenodd" d="M49.1535 39.2888C51.274 44.8131 52.3343 47.5752 54.5723 49.1481C54.7518 49.2743 54.9359 49.3938 55.1242 49.5065C57.4714 50.9112 60.426 50.7564 66.3351 50.4467C72.2443 50.137 75.1988 49.9822 77.3863 48.3398C77.5618 48.2081 77.7324 48.0699 77.8977 47.9257C79.959 46.1274 80.7248 43.2696 82.2563 37.554C83.7878 31.8384 84.5535 28.9805 83.6675 26.3926C83.5964 26.185 83.5178 25.9801 83.4317 25.7782C82.3584 23.2621 79.8771 21.6507 74.9145 18.428C69.9519 15.2052 67.4706 13.5938 64.7355 13.6367C64.5161 13.6402 64.2969 13.6517 64.0783 13.6712C61.3537 13.9144 59.0544 15.7763 54.4559 19.5002C49.8573 23.224 47.558 25.0859 46.7536 27.7004C46.6891 27.9102 46.6323 28.1222 46.5833 28.3361C45.9727 31.0025 47.0329 33.7646 49.1535 39.2888Z" fill="url(#paint0_linear_2241_15812)"/>
</g>
<g filter="url(#filter0_b_2241_15812)">
<path fill-rule="evenodd" clip-rule="evenodd" d="M19.6945 26.1707C19.4433 25.1661 18.4253 24.5553 17.4207 24.8064C16.4161 25.0576 15.8053 26.0756 16.0564 27.0802L18.6858 37.5976L21.1328 47.8076C22.1733 52.1491 22.9923 55.5663 23.9642 58.2211C24.9611 60.9442 26.1836 63.0583 28.145 64.6794C28.3143 64.8193 28.4867 64.9553 28.6622 65.0873C30.6959 66.6169 33.0367 67.313 35.9172 67.6478C38.7252 67.9742 42.2392 67.9741 46.7035 67.9741H48.1871C52.0497 67.9741 55.0904 67.9742 57.54 67.7264C60.0489 67.4727 62.1134 66.9462 63.9712 65.783C64.8524 65.2313 65.6711 64.5856 66.4131 63.8572C67.9772 62.3217 68.9704 60.4368 69.8019 58.0561C70.6137 55.7317 71.3224 52.7748 72.2226 49.0186L72.2749 48.8005C72.8177 46.5358 73.2652 44.6689 73.438 43.1568C73.6174 41.5873 73.5442 40.0929 72.7607 38.7284C72.4257 38.1448 72.0067 37.6136 71.5173 37.1517C70.373 36.0718 68.9368 35.6524 67.3687 35.461C65.8578 35.2767 63.9384 35.2767 61.6094 35.2768L21.971 35.2768L19.6945 26.1707Z" fill="#8C8C94" fill-opacity="0.4"/>
<path d="M38.9281 76.6254C40.3814 76.6254 41.5596 75.4472 41.5596 73.9939C41.5596 72.5405 40.3814 71.3623 38.9281 71.3623C37.4747 71.3623 36.2965 72.5405 36.2965 73.9939C36.2965 75.4472 37.4747 76.6254 38.9281 76.6254Z" fill="#8C8C94" fill-opacity="0.4"/>
<path d="M54.7175 76.6254C56.1709 76.6254 57.3491 75.4472 57.3491 73.9939C57.3491 72.5405 56.1709 71.3623 54.7175 71.3623C53.2642 71.3623 52.086 72.5405 52.086 73.9939C52.086 75.4472 53.2642 76.6254 54.7175 76.6254Z" fill="#8C8C94" fill-opacity="0.4"/>
</g>
<path d="M38.5 56.625C38.5 55.5895 39.3395 54.75 40.375 54.75H55.375C56.4105 54.75 57.25 55.5895 57.25 56.625C57.25 57.6605 56.4105 58.5 55.375 58.5H40.375C39.3395 58.5 38.5 57.6605 38.5 56.625Z" fill="#F8F8FA"/>
<defs>
<filter id="filter0_b_2241_15812" x="-8" y="0.75" width="105.516" height="99.875" filterUnits="userSpaceOnUse" color-interpolation-filters="sRGB">
<feFlood flood-opacity="0" result="BackgroundImageFix"/>
<feGaussianBlur in="BackgroundImageFix" stdDeviation="12"/>
<feComposite in2="SourceAlpha" operator="in" result="effect1_backgroundBlur_2241_15812"/>
<feBlend mode="normal" in="SourceGraphic" in2="effect1_backgroundBlur_2241_15812" result="shape"/>
</filter>
<linearGradient id="paint0_linear_2241_15812" x1="69.5696" y1="36.4939" x2="51.1353" y2="22.1598" gradientUnits="userSpaceOnUse">
<stop stop-color="#9A9A9E"/>
<stop offset="1" stop-color="#E0E0E7"/>
</linearGradient>
<clipPath id="clip0_2241_15812">
<rect width="43.082" height="43.082" fill="white" transform="translate(37.6172 47.8945) rotate(-75)"/>
</clipPath>
</defs>
</svg>
