<svg width="18" height="17" viewBox="0 0 18 17" fill="none" xmlns="http://www.w3.org/2000/svg">
<path fill-rule="evenodd" clip-rule="evenodd" d="M0.666016 1.10479C0.666016 0.64455 1.04324 0.271454 1.50858 0.271454H3.30552C4.14412 0.271454 4.85511 0.881337 4.97371 1.70242L5.24849 3.60479H15.647C16.7104 3.60479 17.5079 4.567 17.2994 5.59832L15.9513 12.265C15.7937 13.044 15.1021 13.6048 14.2989 13.6048H6.45215C5.61355 13.6048 4.90256 12.9949 4.78396 12.1738L3.68364 4.55597L3.30552 1.93812H1.50858C1.04324 1.93812 0.666016 1.56502 0.666016 1.10479ZM5.48922 5.27145L6.45215 11.9381L14.2989 11.9381L15.647 5.27145H5.48922ZM7.40654 15.6881C7.40654 16.3785 6.84069 16.9381 6.14269 16.9381C5.44468 16.9381 4.87884 16.3785 4.87884 15.6881C4.87884 14.9978 5.44468 14.4381 6.14269 14.4381C6.84069 14.4381 7.40654 14.9978 7.40654 15.6881ZM14.5683 16.9381C15.2663 16.9381 15.8322 16.3785 15.8322 15.6881C15.8322 14.9978 15.2663 14.4381 14.5683 14.4381C13.8703 14.4381 13.3045 14.9978 13.3045 15.6881C13.3045 16.3785 13.8703 16.9381 14.5683 16.9381Z" fill="#454545"/>
</svg>
