<svg width="18" height="18" viewBox="0 0 18 18" fill="none" xmlns="http://www.w3.org/2000/svg">
<path fill-rule="evenodd" clip-rule="evenodd" d="M0.253563 2.32092C0.253563 1.06805 1.26901 0.0523987 2.52162 0.0523987H15.4819C16.7346 0.0523987 17.75 1.06805 17.75 2.32092V15.2839C17.75 16.5367 16.7346 17.5524 15.4819 17.5524H2.52162C1.26901 17.5524 0.253563 16.5367 0.253563 15.2839V7.17225C0.248805 7.1167 0.24882 7.06088 0.253563 7.00546V2.32092ZM2.19761 9.69718V15.2839C2.19761 15.4629 2.34267 15.608 2.52162 15.608H15.4819C15.6609 15.608 15.806 15.4629 15.806 15.2839V13.2257C15.6946 13.2132 15.5835 13.1812 15.4775 13.1279L12.5615 11.6625C12.4759 11.6195 12.3757 11.6165 12.2877 11.6544L7.70301 13.6313C6.79557 14.0226 5.73929 13.7812 5.0918 13.0345L2.19761 9.69718ZM15.806 11.1169L13.4343 9.925C12.8352 9.62396 12.1337 9.6034 11.5181 9.86885L6.9334 11.8457C6.80377 11.9016 6.65287 11.8671 6.56037 11.7605L2.19761 6.72965V2.32092C2.19761 2.14194 2.34267 1.99684 2.52162 1.99684H15.4819C15.6609 1.99684 15.806 2.14194 15.806 2.32092V11.1169ZM12.1766 6.85798C12.632 6.85798 13.0011 6.48875 13.0011 6.03328C13.0011 5.57781 12.632 5.20857 12.1766 5.20857C11.7212 5.20857 11.3521 5.57781 11.3521 6.03328C11.3521 6.48875 11.7212 6.85798 12.1766 6.85798ZM12.1766 8.80242C13.7057 8.80242 14.9452 7.56263 14.9452 6.03328C14.9452 4.50392 13.7057 3.26413 12.1766 3.26413C10.6476 3.26413 9.40803 4.50392 9.40803 6.03328C9.40803 7.56263 10.6476 8.80242 12.1766 8.80242Z" fill="#454545"/>
</svg>
