<svg width="16" height="16" viewBox="0 0 16 16" fill="none" xmlns="http://www.w3.org/2000/svg">
<path fill-rule="evenodd" clip-rule="evenodd" d="M2.88448 1.04709C1.87122 0.957087 1.02383 1.80448 1.11383 2.81774L1.33802 5.34175L0.347666 7.6727C-0.049912 8.60845 0.495101 9.67718 1.48648 9.90584L3.95598 10.4754L5.86792 12.1402C6.63546 12.8085 7.81969 12.6216 8.3424 11.7497L9.64444 9.5777L11.8164 8.27566C12.6884 7.75295 12.8753 6.56872 12.2069 5.80118L10.5421 3.88924L9.97258 1.41974C9.74392 0.428359 8.67519 -0.116651 7.73944 0.280927L5.40849 1.27128L2.88448 1.04709ZM2.74178 2.67504L5.26579 2.89924C5.53316 2.92298 5.80218 2.88053 6.0491 2.77562L8.38004 1.78527L8.94961 4.25477C9.00994 4.51636 9.13375 4.75915 9.3101 4.96168L10.9749 6.87361L8.8029 8.17566C8.57283 8.31358 8.38032 8.50609 8.2424 8.73616L6.94035 10.9082L5.02842 9.24336C4.82589 9.06701 4.5831 8.9432 4.32151 8.88287L1.85201 8.3133L2.84236 5.98236C2.94727 5.73544 2.98972 5.46642 2.96598 5.19905L2.74178 2.67504ZM12.4562 11.2345C12.1369 10.9152 11.6195 10.9149 11.3006 11.2338C10.9816 11.5528 10.9819 12.0702 11.3013 12.3895L14.5719 15.6601C14.8912 15.9795 15.4086 15.9798 15.7276 15.6608C16.0465 15.3419 16.0462 14.8245 15.7269 14.5051L12.4562 11.2345Z" fill="#454545"/>
</svg>
