<svg width="18" height="17" viewBox="0 0 18 17" fill="none" xmlns="http://www.w3.org/2000/svg">
<path fill-rule="evenodd" clip-rule="evenodd" d="M0.666016 3.60479C0.666016 5.15799 1.72833 6.46307 3.16602 6.83311V10.3765C1.72833 10.7465 0.666016 12.0516 0.666016 13.6048C0.666016 15.4457 2.1584 16.9381 3.99935 16.9381C5.55255 16.9381 6.85763 15.8758 7.22767 14.4381H10.771C11.1411 15.8758 12.4461 16.9381 13.9993 16.9381C15.8403 16.9381 17.3327 15.4457 17.3327 13.6048C17.3327 12.0516 16.2704 10.7465 14.8327 10.3765V6.83311C16.2704 6.46307 17.3327 5.15799 17.3327 3.60479C17.3327 1.76384 15.8403 0.271454 13.9993 0.271454C12.4461 0.271454 11.1411 1.33376 10.771 2.77145H7.22767C6.85763 1.33376 5.55255 0.271454 3.99935 0.271454C2.1584 0.271454 0.666016 1.76384 0.666016 3.60479ZM5.66602 3.60479C5.66602 2.68431 4.91982 1.93812 3.99935 1.93812C3.07887 1.93812 2.33268 2.68431 2.33268 3.60479C2.33268 4.52526 3.07887 5.27145 3.99935 5.27145C4.91982 5.27145 5.66602 4.52526 5.66602 3.60479ZM7.22767 4.43812H10.771C11.0725 5.60946 11.9947 6.53162 13.166 6.83311V10.3765C11.9947 10.678 11.0725 11.6001 10.771 12.7715H7.22767C6.92619 11.6001 6.00402 10.678 4.83268 10.3765V6.83311C6.00402 6.53162 6.92619 5.60946 7.22767 4.43812ZM12.3327 3.60479C12.3327 4.52526 13.0789 5.27145 13.9993 5.27145C14.9198 5.27145 15.666 4.52526 15.666 3.60479C15.666 2.68431 14.9198 1.93812 13.9993 1.93812C13.0789 1.93812 12.3327 2.68431 12.3327 3.60479ZM3.99935 11.9381C4.91982 11.9381 5.66602 12.6843 5.66602 13.6048C5.66602 14.5253 4.91982 15.2715 3.99935 15.2715C3.07887 15.2715 2.33268 14.5253 2.33268 13.6048C2.33268 12.6843 3.07887 11.9381 3.99935 11.9381ZM13.9993 15.2715C13.0789 15.2715 12.3327 14.5253 12.3327 13.6048C12.3327 12.6843 13.0789 11.9381 13.9993 11.9381C14.9198 11.9381 15.666 12.6843 15.666 13.6048C15.666 14.5253 14.9198 15.2715 13.9993 15.2715Z" fill="#454545"/>
</svg>
