<svg width="18" height="18" viewBox="0 0 18 18" fill="none" xmlns="http://www.w3.org/2000/svg">
<path fill-rule="evenodd" clip-rule="evenodd" d="M4.0208 9.47809C4.51786 9.47809 4.9208 9.88104 4.9208 10.3781V14.3139C4.9208 14.9214 5.41329 15.4139 6.0208 15.4139H12.0208C12.6283 15.4139 13.1208 14.9214 13.1208 14.3139V10.3781C13.1208 9.88104 13.5237 9.47809 14.0208 9.47809C14.5179 9.47809 14.9208 9.88104 14.9208 10.3781V14.3139C14.9208 15.9155 13.6224 17.2139 12.0208 17.2139H6.0208C4.41918 17.2139 3.1208 15.9155 3.1208 14.3139V10.3781C3.1208 9.88104 3.52375 9.47809 4.0208 9.47809Z" fill="#454545"/>
<path fill-rule="evenodd" clip-rule="evenodd" d="M9.06089 2.11449L16.4245 9.47809C16.776 9.82957 17.3458 9.82957 17.6973 9.47809C18.0488 9.12662 18.0488 8.55677 17.6973 8.2053L10.0508 0.558854C9.50411 0.0121219 8.61768 0.0121185 8.07094 0.558854L0.424493 8.2053C0.0730207 8.55677 0.0730207 9.12662 0.424493 9.47809C0.775964 9.82957 1.34581 9.82957 1.69728 9.47809L9.06089 2.11449Z" fill="#454545"/>
</svg>
