<svg width="24" height="17" viewBox="0 0 24 17" fill="none" xmlns="http://www.w3.org/2000/svg">
<path fill-rule="evenodd" clip-rule="evenodd" d="M0.964073 0.0713939C0.612219 0.197723 0.360752 0.405577 0.172574 0.72566C0.0252531 0.97625 0 1.08873 0 1.4941C0 1.91338 0.0222455 2.00499 0.189619 2.27576C0.307175 2.46588 0.495916 2.65462 0.686036 2.77218L0.992773 2.9618H12H23.0072L23.314 2.77218C23.5041 2.65462 23.6928 2.46588 23.8104 2.27576C23.9782 2.00424 24 1.91388 24 1.48921C24 1.06454 23.9782 0.974182 23.8104 0.702663C23.6928 0.512543 23.5041 0.323801 23.314 0.206245L23.0072 0.0166262L12.0989 0.00334175C3.29051 -0.00737365 1.14699 0.00572286 0.964073 0.0713939ZM0.964073 7.08967C0.612219 7.216 0.360752 7.42385 0.172574 7.74394C0.0252531 7.99453 0 8.10701 0 8.51238C0 8.93165 0.0222455 9.02327 0.189619 9.29404C0.307175 9.48416 0.495916 9.6729 0.686036 9.79045L0.992773 9.98007H12H23.0072L23.314 9.79045C23.5041 9.6729 23.6928 9.48416 23.8104 9.29404C23.9782 9.02252 24 8.93216 24 8.50749C24 8.08282 23.9782 7.99246 23.8104 7.72094C23.6928 7.53082 23.5041 7.34208 23.314 7.22452L23.0072 7.0349L12.0989 7.02162C3.29051 7.0109 1.14699 7.024 0.964073 7.08967ZM0.964073 14.1079C0.612219 14.2343 0.360752 14.4421 0.172574 14.7622C0.0252531 15.0128 0 15.1253 0 15.5307C0 15.9499 0.0222455 16.0415 0.189619 16.3123C0.307175 16.5024 0.495916 16.6912 0.686036 16.8087L0.992773 16.9984H12H23.0072L23.314 16.8087C23.5041 16.6912 23.6928 16.5024 23.8104 16.3123C23.9782 16.0408 24 15.9504 24 15.5258C24 15.1011 23.9782 15.0107 23.8104 14.7392C23.6928 14.5491 23.5041 14.3604 23.314 14.2428L23.0072 14.0532L12.0989 14.0399C3.29051 14.0292 1.14699 14.0423 0.964073 14.1079Z" fill="black"/>
</svg>
