<svg width="14" height="18" viewBox="0 0 14 18" fill="none" xmlns="http://www.w3.org/2000/svg">
<path fill-rule="evenodd" clip-rule="evenodd" d="M6.9999 10.9117C10.0945 10.9117 12.4824 8.46035 12.4824 5.58056C12.4824 2.70077 10.0945 0.24942 6.9999 0.24942C3.90533 0.24942 1.51745 2.70077 1.51745 5.58056C1.51745 8.46035 3.90533 10.9117 6.9999 10.9117ZM10.5087 5.58056C10.5087 7.48933 8.93774 9.0367 6.9999 9.0367C5.06206 9.0367 3.49113 7.48933 3.49113 5.58056C3.49113 3.67179 5.06206 2.12442 6.9999 2.12442C8.93774 2.12442 10.5087 3.67179 10.5087 5.58056ZM2.72368 14.653C2.72368 14.6562 2.7239 14.6555 2.72528 14.6514C2.7368 14.6171 2.8295 14.341 3.55533 14.016C4.29355 13.6854 5.45638 13.4304 7 13.4304C8.54363 13.4304 9.70646 13.6854 10.4447 14.016C11.1705 14.341 11.2632 14.6171 11.2747 14.6514C11.2761 14.6555 11.2763 14.6562 11.2763 14.653L11.2763 16.3406V16.7034V16.7867V16.8066V16.8115V16.8127V16.813V16.8131V16.8131C11.2763 17.3309 11.7181 17.7506 12.2632 17.7506C12.8082 17.7506 13.25 17.3309 13.25 16.8131V16.8131V16.813V16.8127V16.8115V16.8066V16.7867V16.7034V16.3406V14.653C13.25 13.5435 12.2825 12.7661 11.2862 12.3199C10.2154 11.8404 8.74661 11.5554 7 11.5554C5.25339 11.5554 3.78465 11.8404 2.71384 12.3199C1.71749 12.7661 0.75 13.5435 0.75 14.653V14.6593V14.6657V14.672V14.6783V14.6846V14.691V14.6973V14.7036V14.71V14.7163V14.7226V14.7289V14.7353V14.7416V14.7479V14.7542V14.7605V14.7669V14.7732V14.7795V14.7858V14.7921V14.7985V14.8048V14.8111V14.8174V14.8237V14.83V14.8363V14.8426V14.8489V14.8553V14.8616V14.8679V14.8742V14.8805V14.8867V14.893V14.8993V14.9056V14.9119V14.9182V14.9245V14.9308V14.937V14.9433V14.9496V14.9559V14.9622V14.9684V14.9747V14.981V14.9872V14.9935V14.9997V15.006V15.0122V15.0185V15.0247V15.031V15.0372V15.0434V15.0497V15.0559V15.0621V15.0684V15.0746V15.0808V15.087V15.0932V15.0994V15.1056V15.1118V15.118V15.1242V15.1304V15.1366V15.1428V15.149V15.1552V15.1613V15.1675V15.1737V15.1798V15.186V15.1921V15.1983V15.2044V15.2106V15.2167V15.2228V15.229V15.2351V15.2412V15.2473V15.2534V15.2595V15.2656V15.2717V15.2778V15.2839V15.29V15.296V15.3021V15.3082V15.3142V15.3203V15.3263V15.3324V15.3384V15.3444V15.3505V15.3565V15.3625V15.3685V15.3745V15.3805V15.3865V15.3925V15.3985V15.4045V15.4105V15.4164V15.4224V15.4283V15.4343V15.4402V15.4462V15.4521V15.458V15.4639V15.4698V15.4757V15.4816V15.4875V15.4934V15.4993V15.5052V15.511V15.5169V15.5227V15.5286V15.5344V15.5403V15.5461V15.5519V15.5577V15.5635V15.5693V15.5751V15.5809V15.5867V15.5924V15.5982V15.6039V15.6097V15.6154V15.6212V15.6269V15.6326V15.6383V15.644V15.6497V15.6554V15.661V15.6667V15.6724V15.678V15.6837V15.6893V15.6949V15.7005V15.7062V15.7118V15.7173V15.7229V15.7285V15.7341V15.7396V15.7452V15.7507V15.7563V15.7618V15.7673V15.7728V15.7783V15.7838V15.7893V15.7947V15.8002V15.8057V15.8111V15.8165V15.822V15.8274V15.8328V15.8382V15.8436V15.8489V15.8543V15.8597V15.865V15.8703V15.8757V15.881V15.8863V15.8916V15.8969V15.9022V15.9074V15.9127V15.9179V15.9232V15.9284V15.9336V15.9388V15.944V15.9492V15.9544V15.9596V15.9647V15.9699V15.975V15.9801V15.9852V15.9903V15.9954V16.0005V16.0056V16.0106V16.0157V16.0207V16.0257V16.0307V16.0357V16.0407V16.0457V16.0507V16.0556V16.0606V16.0655V16.0704V16.0753V16.0802V16.0851V16.09V16.0949V16.0997V16.1045V16.1094V16.1142V16.119V16.1238V16.1285V16.1333V16.1381V16.1428V16.1475V16.1522V16.157V16.1616V16.1663V16.171V16.1756V16.1803V16.1849V16.1895V16.1941V16.1987V16.2033V16.2078V16.2124V16.2169V16.2214V16.226V16.2305V16.2349V16.2394V16.2439V16.2483V16.2527V16.2571V16.2616V16.2659V16.2703V16.2747V16.279V16.2834V16.2877V16.292V16.2963V16.3005V16.3048V16.3091V16.3133V16.3175V16.3217V16.3259V16.3301V16.3343V16.3384V16.3425V16.3467V16.3508V16.3548V16.3589V16.363V16.367V16.3711V16.3751V16.3791V16.3831V16.387V16.391V16.3949V16.3989V16.4028V16.4067V16.4105V16.4144V16.4183V16.4221V16.4259V16.4297V16.4335V16.4373V16.441V16.4448V16.4485V16.4522V16.4559V16.4596V16.4632V16.4669V16.4705V16.4741V16.4777V16.4813V16.4848V16.4884V16.4919V16.4954V16.4989V16.5024V16.5059V16.5093V16.5127V16.5161V16.5195V16.5229V16.5263V16.5296V16.533V16.5363V16.5396V16.5428V16.5461V16.5493V16.5526V16.5558V16.559V16.5621V16.5653V16.5684V16.5716V16.5747V16.5778V16.5808V16.5839V16.5869V16.5899V16.5929V16.5959V16.5989V16.6018V16.6047V16.6076V16.6105V16.6134V16.6162V16.6191V16.6219V16.6247V16.6275V16.6302V16.633V16.6357V16.6384V16.6411V16.6437V16.6464V16.649V16.6516V16.6542V16.6568V16.6593V16.6619V16.6644V16.6669V16.6694V16.6718V16.6742V16.6767V16.6791V16.6814V16.6838V16.6861V16.6885V16.6908V16.693V16.6953V16.6975V16.6998V16.702V16.7041V16.7063V16.7084V16.7106V16.7127V16.7147V16.7168V16.7188V16.7209V16.7229V16.7248V16.7268V16.7287V16.7306V16.7325V16.7344V16.7363V16.7381V16.7399V16.7417V16.7435V16.7452V16.747V16.7487V16.7504V16.752V16.7537V16.7553V16.7569V16.7585V16.76V16.7616V16.7631V16.7646V16.766V16.7675V16.7689V16.7703V16.7717V16.7731V16.7744V16.7757V16.777V16.7783V16.7796V16.7808V16.782V16.7832V16.7844V16.7855V16.7866V16.7877V16.7888V16.7899V16.7909V16.7919V16.7929V16.7938V16.7948V16.7957V16.7966V16.7975V16.7983V16.7991V16.7999V16.8007V16.8015V16.8022V16.8029V16.8036V16.8042V16.8049V16.8055V16.8061V16.8067V16.8072V16.8077V16.8082V16.8087V16.8091V16.8096V16.81V16.8103V16.8107V16.811V16.8113V16.8116V16.8119V16.8121V16.8123V16.8125V16.8127V16.8128V16.8129V16.813V16.813V16.8131C0.75 17.3309 1.19182 17.7506 1.73684 17.7506C2.28186 17.7506 2.72368 17.3309 2.72368 16.8131V16.813V16.813V16.8129V16.8128V16.8127V16.8125V16.8123V16.8121V16.8119V16.8116V16.8113V16.811V16.8107V16.8103V16.81V16.8096V16.8091V16.8087V16.8082V16.8077V16.8072V16.8067V16.8061V16.8055V16.8049V16.8042V16.8036V16.8029V16.8022V16.8015V16.8007V16.7999V16.7991V16.7983V16.7975V16.7966V16.7957V16.7948V16.7938V16.7929V16.7919V16.7909V16.7899V16.7888V16.7877V16.7866V16.7855V16.7844V16.7832V16.782V16.7808V16.7796V16.7783V16.777V16.7757V16.7744V16.7731V16.7717V16.7703V16.7689V16.7675V16.766V16.7646V16.7631V16.7616V16.76V16.7585V16.7569V16.7553V16.7537V16.752V16.7504V16.7487V16.747V16.7452V16.7435V16.7417V16.7399V16.7381V16.7363V16.7344V16.7325V16.7306V16.7287V16.7268V16.7248V16.7229V16.7209V16.7188V16.7168V16.7147V16.7127V16.7106V16.7084V16.7063V16.7041V16.702V16.6998V16.6975V16.6953V16.693V16.6908V16.6885V16.6861V16.6838V16.6814V16.6791V16.6767V16.6742V16.6718V16.6694V16.6669V16.6644V16.6619V16.6593V16.6568V16.6542V16.6516V16.649V16.6464V16.6437V16.6411V16.6384V16.6357V16.633V16.6302V16.6275V16.6247V16.6219V16.6191V16.6162V16.6134V16.6105V16.6076V16.6047V16.6018V16.5989V16.5959V16.5929V16.5899V16.5869V16.5839V16.5808V16.5778V16.5747V16.5716V16.5684V16.5653V16.5621V16.559V16.5558V16.5526V16.5493V16.5461V16.5428V16.5396V16.5363V16.533V16.5296V16.5263V16.5229V16.5195V16.5161V16.5127V16.5093V16.5059V16.5024V16.4989V16.4954V16.4919V16.4884V16.4848V16.4813V16.4777V16.4741V16.4705V16.4669V16.4632V16.4596V16.4559V16.4522V16.4485V16.4448V16.441V16.4373V16.4335V16.4297V16.4259V16.4221V16.4183V16.4144V16.4105V16.4067V16.4028V16.3989V16.3949V16.391V16.387V16.3831V16.3791V16.3751V16.3711V16.367V16.363V16.3589V16.3548V16.3508V16.3467V16.3425V16.3384V16.3343V16.3301V16.3259V16.3217V16.3175V16.3133V16.3091V16.3048V16.3005V16.2963V16.292V16.2877V16.2834V16.279V16.2747V16.2703V16.2659V16.2616V16.2571V16.2527V16.2483V16.2439V16.2394V16.2349V16.2305V16.226V16.2214V16.2169V16.2124V16.2078V16.2033V16.1987V16.1941V16.1895V16.1849V16.1803V16.1756V16.171V16.1663V16.1616V16.157V16.1522V16.1475V16.1428V16.1381V16.1333V16.1285V16.1238V16.119V16.1142V16.1094V16.1045V16.0997V16.0949V16.09V16.0851V16.0802V16.0753V16.0704V16.0655V16.0606V16.0556V16.0507V16.0457V16.0407V16.0357V16.0307V16.0257V16.0207V16.0157V16.0106V16.0056V16.0005V15.9954V15.9903V15.9852V15.9801V15.975V15.9699V15.9647V15.9596V15.9544V15.9492V15.944V15.9388V15.9336V15.9284V15.9232V15.9179V15.9127V15.9074V15.9022V15.8969V15.8916V15.8863V15.881V15.8757V15.8703V15.865V15.8597V15.8543V15.8489V15.8436V15.8382V15.8328V15.8274V15.822V15.8165V15.8111V15.8057V15.8002V15.7947V15.7893V15.7838V15.7783V15.7728V15.7673V15.7618V15.7563V15.7507V15.7452V15.7396V15.7341V15.7285V15.7229V15.7173V15.7118V15.7062V15.7005V15.6949V15.6893V15.6837V15.678V15.6724V15.6667V15.661V15.6554V15.6497V15.644V15.6383V15.6326V15.6269V15.6212V15.6154V15.6097V15.6039V15.5982V15.5924V15.5867V15.5809V15.5751V15.5693V15.5635V15.5577V15.5519V15.5461V15.5403V15.5344V15.5286V15.5227V15.5169V15.511V15.5052V15.4993V15.4934V15.4875V15.4816V15.4757V15.4698V15.4639V15.458V15.4521V15.4462V15.4402V15.4343V15.4283V15.4224V15.4164V15.4105V15.4045V15.3985V15.3925V15.3865V15.3805V15.3745V15.3685V15.3625V15.3565V15.3505V15.3444V15.3384V15.3324V15.3263V15.3203V15.3142V15.3082V15.3021V15.296V15.29V15.2839V15.2778V15.2717V15.2656V15.2595V15.2534V15.2473V15.2412V15.2351V15.229V15.2228V15.2167V15.2106V15.2044V15.1983V15.1921V15.186V15.1798V15.1737V15.1675V15.1613V15.1552V15.149V15.1428V15.1366V15.1304V15.1242V15.118V15.1118V15.1056V15.0994V15.0932V15.087V15.0808V15.0746V15.0684V15.0621V15.0559V15.0497V15.0434V15.0372V15.031V15.0247V15.0185V15.0122V15.006V14.9997V14.9935V14.9872V14.981V14.9747V14.9684V14.9622V14.9559V14.9496V14.9433V14.937V14.9308V14.9245V14.9182V14.9119V14.9056V14.8993V14.893V14.8867V14.8805V14.8742V14.8679V14.8616V14.8553V14.8489V14.8426V14.8363V14.83V14.8237V14.8174V14.8111V14.8048V14.7985V14.7921V14.7858V14.7795V14.7732V14.7669V14.7605V14.7542V14.7479V14.7416V14.7353V14.7289V14.7226V14.7163V14.71V14.7036V14.6973V14.691V14.6846V14.6783V14.672V14.6657V14.6593V14.653Z" fill="#454545"/>
</svg>
