<svg width="14" height="15" viewBox="0 0 14 15" fill="none" xmlns="http://www.w3.org/2000/svg">
<path fill-rule="evenodd" clip-rule="evenodd" d="M3.73045 0.93811C4.19713 0.93811 4.57546 1.31059 4.57546 1.77006C4.57546 2.22953 4.19713 2.60201 3.73045 2.60201H2.024L2.024 12.6075H3.73045C4.19713 12.6075 4.57546 12.98 4.57546 13.4395C4.57546 13.899 4.19713 14.2714 3.73045 14.2714H2.024C1.09063 14.2714 0.333984 13.5265 0.333984 12.6075V2.60201C0.333984 1.68306 1.09063 0.93811 2.024 0.93811H3.73045ZM9.19479 10.3133L11.1323 8.40569H4.49952C4.03284 8.40569 3.65451 8.03321 3.65451 7.57374C3.65451 7.11426 4.03284 6.74179 4.49952 6.74179H11.1323L9.19479 4.83422C8.86479 4.50933 8.86479 3.98256 9.19479 3.65767C9.52478 3.33277 10.0598 3.33277 10.3898 3.65767L13.1723 6.39719C13.8323 7.04698 13.8323 8.1005 13.1723 8.75029L10.3898 11.4898C10.0598 11.8147 9.52478 11.8147 9.19479 11.4898C8.86479 11.1649 8.86479 10.6381 9.19479 10.3133Z" fill="#454545"/>
</svg>
