<svg width="36" height="36" viewBox="0 0 36 36" fill="none" xmlns="http://www.w3.org/2000/svg">
<g filter="url(#filter0_b_23452_204968)">
<rect width="36" height="36" rx="18" fill="#1ACC97" fill-opacity="0.07"/>
<g clip-path="url(#clip0_23452_204968)">
<path fill-rule="evenodd" clip-rule="evenodd" d="M14.7494 12.0467C14.6185 12.1156 14.5081 12.2285 14.451 12.3518C14.405 12.4512 14.3988 12.5423 14.3983 13.1302L14.3976 13.7959L13.8981 13.8075C13.4467 13.818 13.3803 13.8261 13.2088 13.8911C12.6799 14.0918 12.2958 14.4759 12.0952 15.0049C12.0301 15.1764 12.0221 15.2427 12.0116 15.6942L12 16.1938H18H24L23.9884 15.6942C23.9779 15.2427 23.9699 15.1764 23.9048 15.0049C23.7032 14.4733 23.3227 14.0928 22.7912 13.8911C22.6197 13.8261 22.5533 13.818 22.1019 13.8075L21.6024 13.7959V13.1363C21.6024 12.6037 21.5939 12.4565 21.5586 12.372C21.465 12.1479 21.2476 12 21.0116 12C20.7632 12 20.5836 12.1067 20.4669 12.3237C20.4104 12.4285 20.4056 12.4831 20.3974 13.1188L20.3886 13.8014H18H15.6114L15.6026 13.1188C15.5944 12.4831 15.5896 12.4285 15.5331 12.3237C15.4571 12.1824 15.3688 12.0993 15.2354 12.0436C15.1022 11.9879 14.8582 11.9894 14.7494 12.0467ZM12.0118 20.0007L12.0195 22.5972L12.0934 22.787C12.3008 23.3203 12.6756 23.6951 13.2088 23.9025L13.3986 23.9764H17.9719H22.5452L22.7422 23.9139C23.2823 23.7428 23.7305 23.2998 23.9179 22.752L23.9805 22.569L23.9881 19.9866L23.9957 17.4041H17.9999H12.0041L12.0118 20.0007Z" fill="#1ACC97"/>
</g>
</g>
<defs>
<filter id="filter0_b_23452_204968" x="-30" y="-30" width="96" height="96" filterUnits="userSpaceOnUse" color-interpolation-filters="sRGB">
<feFlood flood-opacity="0" result="BackgroundImageFix"/>
<feGaussianBlur in="BackgroundImageFix" stdDeviation="15"/>
<feComposite in2="SourceAlpha" operator="in" result="effect1_backgroundBlur_23452_204968"/>
<feBlend mode="normal" in="SourceGraphic" in2="effect1_backgroundBlur_23452_204968" result="shape"/>
</filter>
<clipPath id="clip0_23452_204968">
<rect width="12" height="12" fill="white" transform="translate(12 12)"/>
</clipPath>
</defs>
</svg>
