<svg width="108" height="36" viewBox="0 0 108 36" fill="none" xmlns="http://www.w3.org/2000/svg">
<path d="M0 9.45C0 6.51457 0 5.04685 0.479559 3.88909C1.11897 2.34542 2.34542 1.11897 3.88909 0.479559C5.04685 0 6.51457 0 9.45 0H98.55C101.485 0 102.953 0 104.111 0.479559C105.655 1.11897 106.881 2.34542 107.52 3.88909C108 5.04685 108 6.51457 108 9.45V26.55C108 29.4854 108 30.9531 107.52 32.1109C106.881 33.6546 105.655 34.881 104.111 35.5204C102.953 36 101.485 36 98.55 36H9.45C6.51457 36 5.04685 36 3.88909 35.5204C2.34542 34.881 1.11897 33.6546 0.479559 32.1109C0 30.9531 0 29.4854 0 26.55V9.45Z" fill="black"/>
<path d="M73.373 17.2808V19.3427H72.0806V20.6949H73.373V25.2894C73.373 26.8583 74.0827 27.4858 75.8682 27.4858C76.182 27.4858 76.4808 27.4484 76.7423 27.4036V26.0664C76.5182 26.0888 76.3762 26.1037 76.1297 26.1037C75.3303 26.1037 74.9792 25.7302 74.9792 24.8785V20.6949H76.7423V19.3427H74.9792V17.2808H73.373Z" fill="white"/>
<path d="M81.2908 27.5979C83.6665 27.5979 85.1232 26.0066 85.1232 23.3694C85.1232 20.7472 83.659 19.1485 81.2908 19.1485C78.9151 19.1485 77.4508 20.7472 77.4508 23.3694C77.4508 26.0066 78.9076 27.5979 81.2908 27.5979ZM81.2908 26.171C79.8937 26.171 79.1093 25.1475 79.1093 23.3694C79.1093 21.6064 79.8937 20.5754 81.2908 20.5754C82.6803 20.5754 83.4722 21.6064 83.4722 23.3694C83.4722 25.14 82.6803 26.171 81.2908 26.171Z" fill="white"/>
<path d="M86.3697 27.441H87.9759V22.6373C87.9759 21.4943 88.835 20.7248 90.0527 20.7248C90.3366 20.7248 90.8147 20.7771 90.9492 20.8219V19.2381C90.7774 19.1933 90.4711 19.1709 90.232 19.1709C89.1712 19.1709 88.2672 19.7536 88.0356 20.553H87.9161V19.3054H86.3697V27.441Z" fill="white"/>
<path d="M94.9374 20.5156C96.1252 20.5156 96.9021 21.3449 96.9395 22.6224H92.8306C92.9203 21.3524 93.7495 20.5156 94.9374 20.5156ZM96.932 25.2446C96.6332 25.8796 95.9683 26.2307 94.9971 26.2307C93.7122 26.2307 92.8829 25.3268 92.8306 23.8999V23.8102H98.5756V23.2499C98.5756 20.6949 97.2085 19.1485 94.9448 19.1485C92.6513 19.1485 91.1945 20.7995 91.1945 23.3993C91.1945 25.9991 92.6214 27.5979 94.9523 27.5979C96.8125 27.5979 98.1124 26.7014 98.4785 25.2446H96.932Z" fill="white"/>
<path d="M62.8398 24.4366C62.9637 26.4344 64.6285 27.712 67.1063 27.712C69.7544 27.712 71.4115 26.3724 71.4115 24.2353C71.4115 22.555 70.4668 21.6259 68.1748 21.0916L66.9437 20.7896C65.488 20.4489 64.8995 19.9921 64.8995 19.1945C64.8995 18.1879 65.8132 17.5297 67.1837 17.5297C68.4846 17.5297 69.3828 18.1724 69.5454 19.2023H71.2334C71.1327 17.3207 69.4757 15.9966 67.2069 15.9966C64.7678 15.9966 63.1418 17.3207 63.1418 19.3107C63.1418 20.9522 64.0632 21.9278 66.0842 22.4002L67.5244 22.7486C69.0033 23.0971 69.6538 23.6081 69.6538 24.4599C69.6538 25.451 68.6317 26.1711 67.2379 26.1711C65.7435 26.1711 64.7059 25.4974 64.5588 24.4366H62.8398Z" fill="white"/>
<path d="M46.2012 19.1709C45.0955 19.1709 44.1393 19.7237 43.6462 20.6501H43.5267V19.3054H41.9802V30.1454H43.5864V26.2083H43.7134C44.1393 27.0674 45.0582 27.5755 46.2161 27.5755C48.2706 27.5755 49.578 25.9543 49.578 23.3694C49.578 20.7846 48.2706 19.1709 46.2012 19.1709ZM45.7455 26.1336C44.4008 26.1336 43.5566 25.0728 43.5566 23.3769C43.5566 21.6736 44.4008 20.6128 45.753 20.6128C47.1126 20.6128 47.9269 21.6512 47.9269 23.3694C47.9269 25.0952 47.1126 26.1336 45.7455 26.1336Z" fill="white"/>
<path d="M55.1983 19.1709C54.0926 19.1709 53.1364 19.7237 52.6433 20.6501H52.5238V19.3054H50.9774V30.1454H52.5836V26.2083H52.7106C53.1364 27.0674 54.0553 27.5755 55.2133 27.5755C57.2677 27.5755 58.5751 25.9543 58.5751 23.3694C58.5751 20.7846 57.2677 19.1709 55.1983 19.1709ZM54.7426 26.1336C53.3979 26.1336 52.5537 25.0728 52.5537 23.3769C52.5537 21.6736 53.3979 20.6128 54.7501 20.6128C56.1097 20.6128 56.924 21.6512 56.924 23.3694C56.924 25.0952 56.1097 26.1336 54.7426 26.1336Z" fill="white"/>
<path d="M39.0984 27.441H40.9413L36.9071 16.2676H35.041L31.0068 27.441H32.7878L33.8176 24.4753H38.0763L39.0984 27.441ZM35.885 18.2963H36.0167L37.635 23.0196H34.259L35.885 18.2963Z" fill="white"/>
<path d="M32.0864 7.83984V13.23H34.0325C35.6387 13.23 36.5688 12.2401 36.5688 10.5181C36.5688 8.82224 35.6313 7.83984 34.0325 7.83984H32.0864ZM32.9231 8.60185H33.9392C35.056 8.60185 35.7172 9.31157 35.7172 10.5293C35.7172 11.7657 35.0672 12.4679 33.9392 12.4679H32.9231V8.60185Z" fill="white"/>
<path d="M39.4174 13.3084C40.6053 13.3084 41.3337 12.5128 41.3337 11.1942C41.3337 9.88308 40.6015 9.08371 39.4174 9.08371C38.2296 9.08371 37.4975 9.88308 37.4975 11.1942C37.4975 12.5128 38.2258 13.3084 39.4174 13.3084ZM39.4174 12.5949C38.7189 12.5949 38.3267 12.0832 38.3267 11.1942C38.3267 10.3126 38.7189 9.79716 39.4174 9.79716C40.1122 9.79716 40.5081 10.3126 40.5081 11.1942C40.5081 12.0795 40.1122 12.5949 39.4174 12.5949Z" fill="white"/>
<path d="M47.5366 9.16216H46.7335L46.0088 12.2662H45.9453L45.1086 9.16216H44.3391L43.5024 12.2662H43.4426L42.7142 9.16216H41.8999L43.0205 13.23H43.8461L44.6828 10.2342H44.7463L45.5867 13.23H46.4197L47.5366 9.16216Z" fill="white"/>
<path d="M48.4615 13.23H49.2646V10.8505C49.2646 10.2155 49.6418 9.81958 50.2358 9.81958C50.8297 9.81958 51.1136 10.1446 51.1136 10.7982V13.23H51.9167V10.5965C51.9167 9.62907 51.4161 9.08371 50.5084 9.08371C49.8958 9.08371 49.4924 9.35639 49.2944 9.80837H49.2347V9.16216H48.4615V13.23Z" fill="white"/>
<path d="M53.1814 13.23H53.9845V7.57463H53.1814V13.23Z" fill="white"/>
<path d="M57.005 13.3084C58.1928 13.3084 58.9212 12.5128 58.9212 11.1942C58.9212 9.88308 58.1891 9.08371 57.005 9.08371C55.8171 9.08371 55.085 9.88308 55.085 11.1942C55.085 12.5128 55.8134 13.3084 57.005 13.3084ZM57.005 12.5949C56.3064 12.5949 55.9142 12.0832 55.9142 11.1942C55.9142 10.3126 56.3064 9.79716 57.005 9.79716C57.6997 9.79716 58.0957 10.3126 58.0957 11.1942C58.0957 12.0795 57.6997 12.5949 57.005 12.5949Z" fill="white"/>
<path d="M61.3141 12.6211C60.877 12.6211 60.5595 12.4082 60.5595 12.0421C60.5595 11.6835 60.8135 11.493 61.3738 11.4557L62.3674 11.3922V11.7321C62.3674 12.2363 61.9192 12.6211 61.3141 12.6211ZM61.1086 13.2972C61.6428 13.2972 62.0873 13.0656 62.3301 12.6584H62.3936V13.23H63.1668V10.4509C63.1668 9.59172 62.5915 9.08371 61.5718 9.08371C60.6492 9.08371 59.9917 9.53195 59.9096 10.2305H60.6865C60.7762 9.94284 61.0862 9.77849 61.5344 9.77849C62.0835 9.77849 62.3674 10.0213 62.3674 10.4509V10.802L61.2655 10.8655C60.298 10.9252 59.7527 11.3473 59.7527 12.0795C59.7527 12.8228 60.3242 13.2972 61.1086 13.2972Z" fill="white"/>
<path d="M65.8921 13.2972C66.4524 13.2972 66.9268 13.032 67.1696 12.5875H67.2331V13.23H68.0026V7.57463H67.1995V9.80837H67.1397C66.9193 9.36013 66.4487 9.09492 65.8921 9.09492C64.8649 9.09492 64.2037 9.90923 64.2037 11.1942C64.2037 12.4829 64.8574 13.2972 65.8921 13.2972ZM66.12 9.81584C66.7923 9.81584 67.2144 10.35 67.2144 11.1979C67.2144 12.0496 66.7961 12.5763 66.12 12.5763C65.4401 12.5763 65.033 12.0571 65.033 11.1942C65.033 10.3388 65.4439 9.81584 66.12 9.81584Z" fill="white"/>
<path d="M73.2104 13.3084C74.3982 13.3084 75.1266 12.5128 75.1266 11.1942C75.1266 9.88308 74.3945 9.08371 73.2104 9.08371C72.0226 9.08371 71.2904 9.88308 71.2904 11.1942C71.2904 12.5128 72.0188 13.3084 73.2104 13.3084ZM73.2104 12.5949C72.5119 12.5949 72.1197 12.0832 72.1197 11.1942C72.1197 10.3126 72.5119 9.79716 73.2104 9.79716C73.9052 9.79716 74.3011 10.3126 74.3011 11.1942C74.3011 12.0795 73.9052 12.5949 73.2104 12.5949Z" fill="white"/>
<path d="M76.1897 13.23H76.9928V10.8505C76.9928 10.2155 77.3701 9.81958 77.964 9.81958C78.5579 9.81958 78.8418 10.1446 78.8418 10.7982V13.23H79.6449V10.5965C79.6449 9.62907 79.1444 9.08371 78.2367 9.08371C77.6241 9.08371 77.2207 9.35639 77.0227 9.80837H76.9629V9.16216H76.1897V13.23Z" fill="white"/>
<path d="M83.3437 8.14987V9.18083H82.6974V9.85693H83.3437V12.1542C83.3437 12.9386 83.6985 13.2524 84.5913 13.2524C84.7482 13.2524 84.8976 13.2337 85.0283 13.2113V12.5426C84.9162 12.5539 84.8453 12.5613 84.722 12.5613C84.3223 12.5613 84.1468 12.3746 84.1468 11.9487V9.85693H85.0283V9.18083H84.1468V8.14987H83.3437Z" fill="white"/>
<path d="M86.1063 13.23H86.9094V10.8543C86.9094 10.2379 87.2755 9.82331 87.9329 9.82331C88.5007 9.82331 88.8033 10.152 88.8033 10.802V13.23H89.6064V10.604C89.6064 9.63654 89.0722 9.08745 88.2056 9.08745C87.593 9.08745 87.1634 9.36013 86.9655 9.81584H86.902V7.57463H86.1063V13.23Z" fill="white"/>
<path d="M92.5035 9.76728C93.0974 9.76728 93.4859 10.1819 93.5046 10.8207H91.4501C91.4949 10.1856 91.9096 9.76728 92.5035 9.76728ZM93.5008 12.1318C93.3514 12.4493 93.019 12.6248 92.5334 12.6248C91.8909 12.6248 91.4763 12.1728 91.4501 11.4594V11.4146H94.3226V11.1344C94.3226 9.85693 93.639 9.08371 92.5072 9.08371C91.3605 9.08371 90.6321 9.90923 90.6321 11.2091C90.6321 12.509 91.3455 13.3084 92.511 13.3084C93.4411 13.3084 94.091 12.8602 94.274 12.1318H93.5008Z" fill="white"/>
<path d="M22.2922 18.2707C22.3117 16.7578 23.1242 15.3263 24.4131 14.5339C23.6 13.3726 22.238 12.6363 20.821 12.592C19.3097 12.4333 17.8446 13.4963 17.0744 13.4963C16.2894 13.4963 15.1036 12.6077 13.8268 12.634C12.1625 12.6878 10.6109 13.634 9.80116 15.0891C8.06056 18.1027 9.35889 22.5316 11.0262 24.9676C11.8605 26.1604 12.8354 27.4928 14.1111 27.4455C15.3595 27.3937 15.8257 26.6495 17.3326 26.6495C18.8255 26.6495 19.2629 27.4455 20.5645 27.4155C21.904 27.3937 22.748 26.2174 23.5529 25.0133C24.1523 24.1633 24.6135 23.224 24.9195 22.23C23.3453 21.5642 22.294 19.98 22.2922 18.2707Z" fill="white"/>
<path d="M19.8337 10.99C20.5641 10.1132 20.9239 8.98623 20.8368 7.84842C19.7209 7.96562 18.6902 8.49892 17.9499 9.34207C17.2261 10.1659 16.8494 11.273 16.9206 12.3673C18.0369 12.3788 19.1342 11.86 19.8337 10.99Z" fill="white"/>
<path d="M3.88909 35.5204L3.54468 36.3519L3.88909 35.5204ZM107.52 32.1109L108.352 32.4553L107.52 32.1109ZM104.111 35.5204L103.766 34.6889L104.111 35.5204ZM107.52 3.88909L108.352 3.54468L107.52 3.88909ZM3.88909 0.479559L3.54468 -0.351933L3.88909 0.479559ZM0.479559 3.88909L-0.351933 3.54468L0.479559 3.88909ZM9.45 0.9H98.55V-0.9H9.45V0.9ZM107.1 9.45V26.55H108.9V9.45H107.1ZM98.55 35.1H9.45V36.9H98.55V35.1ZM0.9 26.55V9.45H-0.9V26.55H0.9ZM9.45 35.1C7.96997 35.1 6.90502 35.0995 6.06418 35.0421C5.23143 34.9853 4.68445 34.8757 4.23351 34.6889L3.54468 36.3519C4.2515 36.6447 5.01725 36.7749 5.94165 36.838C6.85797 36.9005 7.9946 36.9 9.45 36.9V35.1ZM-0.9 26.55C-0.9 28.0054 -0.900487 29.142 -0.837968 30.0583C-0.774896 30.9827 -0.644707 31.7485 -0.351933 32.4553L1.31105 31.7665C1.12427 31.3156 1.01468 30.7686 0.957857 29.9358C0.900487 29.095 0.9 28.03 0.9 26.55H-0.9ZM4.23351 34.6889C2.91036 34.1409 1.85912 33.0896 1.31105 31.7665L-0.351933 32.4553C0.378824 34.2195 1.78048 35.6212 3.54468 36.3519L4.23351 34.6889ZM107.1 26.55C107.1 28.03 107.1 29.095 107.042 29.9358C106.985 30.7686 106.876 31.3156 106.689 31.7665L108.352 32.4553C108.645 31.7485 108.775 30.9827 108.838 30.0583C108.9 29.142 108.9 28.0054 108.9 26.55H107.1ZM98.55 36.9C100.005 36.9 101.142 36.9005 102.058 36.838C102.983 36.7749 103.748 36.6447 104.455 36.3519L103.766 34.6889C103.316 34.8757 102.769 34.9853 101.936 35.0421C101.095 35.0995 100.03 35.1 98.55 35.1V36.9ZM106.689 31.7665C106.141 33.0896 105.09 34.1409 103.766 34.6889L104.455 36.3519C106.22 35.6212 107.621 34.2195 108.352 32.4553L106.689 31.7665ZM98.55 0.9C100.03 0.9 101.095 0.900487 101.936 0.957857C102.769 1.01468 103.316 1.12427 103.766 1.31105L104.455 -0.351933C103.748 -0.644707 102.983 -0.774896 102.058 -0.837968C101.142 -0.900487 100.005 -0.9 98.55 -0.9V0.9ZM108.9 9.45C108.9 7.9946 108.9 6.85797 108.838 5.94166C108.775 5.01725 108.645 4.2515 108.352 3.54468L106.689 4.23351C106.876 4.68445 106.985 5.23143 107.042 6.06418C107.1 6.90502 107.1 7.96997 107.1 9.45H108.9ZM103.766 1.31105C105.09 1.85912 106.141 2.91036 106.689 4.23351L108.352 3.54468C107.621 1.78048 106.22 0.378824 104.455 -0.351933L103.766 1.31105ZM9.45 -0.9C7.9946 -0.9 6.85797 -0.900487 5.94166 -0.837968C5.01725 -0.774896 4.2515 -0.644707 3.54468 -0.351933L4.23351 1.31105C4.68445 1.12427 5.23143 1.01468 6.06418 0.957857C6.90502 0.900487 7.96997 0.9 9.45 0.9V-0.9ZM0.9 9.45C0.9 7.96997 0.900487 6.90502 0.957857 6.06418C1.01468 5.23143 1.12427 4.68445 1.31105 4.23351L-0.351933 3.54468C-0.644707 4.2515 -0.774896 5.01725 -0.837968 5.94166C-0.900487 6.85797 -0.9 7.9946 -0.9 9.45H0.9ZM3.54468 -0.351933C1.78048 0.378824 0.378824 1.78048 -0.351933 3.54468L1.31105 4.23351C1.85912 2.91036 2.91036 1.85912 4.23351 1.31105L3.54468 -0.351933Z" fill="#A6A6A6"/>
</svg>
