<svg width="11" height="16" viewBox="0 0 11 16" fill="none" xmlns="http://www.w3.org/2000/svg">
<path
    fill-rule="evenodd"
    clip-rule="evenodd"
    d="M2.63287 9.53676C2.40655 9.31817 2.10343 9.19721 1.78879 9.19995C1.47416 9.20268 1.17318 9.32888 0.950691 9.55137C0.728201 9.77386 0.601999 10.0748 0.599265 10.3895C0.59653 10.7041 0.717483 11.0072 0.936073 11.2336L4.53607 14.8336C4.76111 15.0585 5.06628 15.1849 5.38447 15.1849C5.70267 15.1849 6.00784 15.0585 6.23287 14.8336L9.83287 11.2336C9.94748 11.1229 10.0389 10.9904 10.1018 10.844C10.1647 10.6976 10.1978 10.5402 10.1992 10.3808C10.2006 10.2215 10.1702 10.0635 10.1099 9.91601C10.0495 9.76854 9.96042 9.63455 9.84775 9.52188C9.73508 9.40921 9.60109 9.32011 9.45362 9.25977C9.30614 9.19943 9.14813 9.16907 8.98879 9.17045C8.82946 9.17184 8.67199 9.20494 8.52559 9.26783C8.37918 9.33072 8.24677 9.42214 8.13607 9.53676L6.58447 11.0884L6.58447 1.98516C6.58447 1.6669 6.45804 1.36167 6.233 1.13663C6.00796 0.911584 5.70273 0.785156 5.38447 0.785156C5.06621 0.785156 4.76099 0.911584 4.53594 1.13663C4.3109 1.36167 4.18447 1.6669 4.18447 1.98516L4.18447 11.0884L2.63287 9.53676Z"
    fill="white"
  />
</svg>
