<svg width="36" height="36" viewBox="0 0 36 36" fill="none" xmlns="http://www.w3.org/2000/svg">
    <circle cx="18" cy="18" r="18" fill="#e0e0e0" />
    <path fill-rule="evenodd" clip-rule="evenodd" d="M27.6004 18.0004C27.6004 20.5465 26.589 22.9883 24.7886 24.7886C22.9883 26.589 20.5465 27.6004 18.0004 27.6004C15.4543 27.6004 13.0125 26.589 11.2122 24.7886C9.41182 22.9883 8.40039 20.5465 8.40039 18.0004C8.40039 15.4543 9.41182 13.0125 11.2122 11.2122C13.0125 9.41182 15.4543 8.40039 18.0004 8.40039C20.5465 8.40039 22.9883 9.41182 24.7886 11.2122C26.589 13.0125 27.6004 15.4543 27.6004 18.0004ZM20.4004 14.4004C20.4004 15.0369 20.1475 15.6474 19.6974 16.0974C19.2474 16.5475 18.6369 16.8004 18.0004 16.8004C17.3639 16.8004 16.7534 16.5475 16.3033 16.0974C15.8532 15.6474 15.6004 15.0369 15.6004 14.4004C15.6004 13.7639 15.8532 13.1534 16.3033 12.7033C16.7534 12.2532 17.3639 12.0004 18.0004 12.0004C18.6369 12.0004 19.2474 12.2532 19.6974 12.7033C20.1475 13.1534 20.4004 13.7639 20.4004 14.4004ZM18.0004 19.2004C16.8515 19.2002 15.7267 19.5298 14.7597 20.1501C13.7927 20.7704 13.024 21.6553 12.5452 22.6996C13.2204 23.4851 14.0575 24.1153 14.9991 24.547C15.9407 24.9786 16.9646 25.2015 18.0004 25.2004C19.0362 25.2015 20.06 24.9786 21.0017 24.547C21.9433 24.1153 22.7804 23.4851 23.4556 22.6996C22.9767 21.6553 22.2081 20.7704 21.2411 20.1501C20.2741 19.5298 19.1493 19.2002 18.0004 19.2004Z" fill="#161616" />
</svg>