<svg width="30" height="30" viewBox="0 0 30 30" fill="none" xmlns="http://www.w3.org/2000/svg">
<g filter="url(#filter0_b_527:7196)">
<path d="M0 15C0 6.71573 6.71573 0 15 0C23.2843 0 30 6.71573 30 15C30 23.2843 23.2843 30 15 30C6.71573 30 0 23.2843 0 15Z" fill="#E0E0E7" fill-opacity=".2"/>
<path d="M10.0488 19.1811C9.73779 19.4921 9.73145 20.0444 10.0552 20.3681C10.3853 20.6918 10.9375 20.6855 11.2422 20.3808L15 16.623L18.7515 20.3745C19.0688 20.6918 19.6147 20.6918 19.9385 20.3681C20.2622 20.038 20.2622 19.4985 19.9448 19.1811L16.1934 15.4296L19.9448 11.6718C20.2622 11.3544 20.2686 10.8085 19.9385 10.4848C19.6147 10.1611 19.0688 10.1611 18.7515 10.4785L15 14.2299L11.2422 10.4785C10.9375 10.1674 10.3789 10.1547 10.0552 10.4848C9.73145 10.8085 9.73779 11.3671 10.0488 11.6718L13.8003 15.4296L10.0488 19.1811Z" fill="#E0E0E7" />
</g>
<defs>
<filter id="filter0_b_527:7196" x="-54.3656" y="-54.3656" width="138.731" height="138.731" color-interpolation-filters="sRGB">
<feFlood flood-opacity="0" result="BackgroundImageFix"/>
<feGaussianBlur in="BackgroundImage" stdDeviation="27.1828"/>
<feComposite in2="SourceAlpha" operator="in" result="effect1_backgroundBlur_527:7196"/>
<feBlend in="SourceGraphic" in2="effect1_backgroundBlur_527:7196" result="shape"/>
</filter>
</defs>
</svg>
