<svg width="16" height="16" viewBox="0 0 16 16" fill="#000" xmlns="http://www.w3.org/2000/svg">
<circle cx="8" cy="8" r="8"/>
<path d="M7.6671 8.38893L7.6671 11.9445H4.5C4.22386 11.9445 3.99731 11.7203 4.02001 11.4451C4.08107 10.7049 4.29963 9.85794 4.91122 9.30015C5.66667 8.61117 6.84198 8.38893 7.6671 8.38893ZM10.0935 11.3545C10.0352 11.3239 9.96562 11.3239 9.90735 11.3545L9.21615 11.7179C9.06943 11.795 8.89795 11.6704 8.92596 11.5071L9.05789 10.7376C9.06901 10.6727 9.04751 10.6065 9.0004 10.5606L8.44126 10.0153C8.3226 9.89963 8.38809 9.69809 8.5521 9.67423L9.32511 9.56179C9.39024 9.55231 9.44654 9.51139 9.47567 9.45237L9.82113 8.75227C9.89448 8.60363 10.1064 8.6036 10.1798 8.75222L10.5256 9.45242C10.5547 9.51142 10.611 9.55231 10.6761 9.56178L11.4488 9.67422C11.6128 9.69808 11.6783 9.89961 11.5596 10.0153L11.0004 10.5606C10.9533 10.6066 10.9318 10.6727 10.9429 10.7376L11.0746 11.5071C11.1026 11.6705 10.9311 11.795 10.7844 11.7179L10.0935 11.3545ZM7.6671 8.00004C6.37793 8.00004 5.33376 6.95587 5.33376 5.66671C5.33376 4.37754 6.37793 3.33337 7.6671 3.33337C8.95626 3.33337 10.0004 4.37754 10.0004 5.66671C10.0004 6.95587 8.95626 8.00004 7.6671 8.00004Z" fill="#F8F8FA"/>
</svg>
