<svg width="16" height="12" viewBox="0 0 16 12" fill="none" xmlns="http://www.w3.org/2000/svg">
<path fill-rule="evenodd" clip-rule="evenodd" d="M7.62436 0.695549C7.41002 0.794972 7.26724 0.929269 7.16074 1.13162C7.09203 1.26216 7.07819 1.32972 7.07744 1.53858C7.07653 1.79149 7.11723 1.92325 7.26702 2.15237L7.32036 2.23395L6.26866 3.62775C5.64629 4.45253 5.15021 5.0799 5.05348 5.16452C4.50768 5.64197 3.6614 5.70596 3.0673 5.31472C2.96525 5.24751 2.58096 4.89004 2.21335 4.5204L1.545 3.84826L1.65465 3.70457C2.02386 3.22088 1.87851 2.53954 1.34781 2.26622C1.1721 2.17572 0.825367 2.15647 0.61713 2.22562C0.403884 2.29646 0.170978 2.50952 0.0773776 2.71942C-0.0254577 2.94994 -0.0258333 3.29342 0.0765011 3.5025C0.164999 3.68328 0.358242 3.88197 0.512948 3.95115L0.627805 4.00253L1.14433 6.08512C1.42842 7.23052 1.6849 8.20741 1.71426 8.25599C1.83556 8.45653 1.35019 8.44282 8.00703 8.43377C13.7284 8.42601 14.0629 8.42256 14.1589 8.37013C14.2147 8.33964 14.2834 8.27947 14.3116 8.23643C14.3398 8.19338 14.5974 7.22013 14.8841 6.07366L15.4052 3.98916L15.5081 3.93597C15.6619 3.85643 15.8427 3.6676 15.9239 3.50162C16.0258 3.29345 16.0253 2.9495 15.9227 2.71942C15.8291 2.50952 15.5961 2.29646 15.3829 2.22562C15.1747 2.15647 14.8279 2.17572 14.6522 2.26622C14.1095 2.54574 13.9704 3.26966 14.3698 3.73631L14.4782 3.86297L13.767 4.56356C13.0161 5.30313 12.8824 5.40334 12.4982 5.51422C12.2809 5.57695 11.8893 5.584 11.6578 5.5294C11.4367 5.47725 11.117 5.31403 10.9448 5.16549C10.8686 5.09969 10.3299 4.40829 9.7479 3.62909L8.68965 2.21231L8.77887 2.07163C8.90168 1.87801 8.95092 1.68208 8.93129 1.46542C8.88759 0.983645 8.48436 0.615723 8.00002 0.615723C7.84775 0.615723 7.75321 0.63582 7.62436 0.695549ZM2.02148 9.46651C1.96156 9.49659 1.87983 9.57016 1.83985 9.62998C1.76848 9.73682 1.76735 9.75103 1.77662 10.4356L1.78607 11.1325L1.904 11.2503L2.02189 11.3682L7.99554 11.3763L13.9692 11.3843L14.0759 11.313C14.2723 11.1818 14.2921 11.0993 14.2922 10.4122C14.2922 9.83944 14.2877 9.79185 14.2218 9.66323C14.178 9.57789 14.11 9.50423 14.0423 9.46876C13.9378 9.41407 13.6827 9.41166 8.03182 9.41173C2.4759 9.41176 2.12403 9.41495 2.02148 9.46651Z" fill="#FA0C58"/>
</svg>
