<svg width="96" height="80" viewBox="0 0 96 80" fill="none" xmlns="http://www.w3.org/2000/svg">
<path fill-rule="evenodd" clip-rule="evenodd" d="M44.6964 0.745459C42.9396 0.990731 42.5929 1.09035 42.2312 1.45378C41.7923 1.89451 41.8351 2.99415 42.3078 3.42373C42.6691 3.75229 42.8793 3.75886 45.3612 3.51957C47.4795 3.31534 48.4783 3.31175 50.2263 3.50223C59.7002 4.53453 67.5268 10.9927 70.3993 20.1481C70.9427 21.8795 71.0623 21.9385 73.5934 21.7197C77.4469 21.3868 80.5108 21.9552 83.5714 23.5709C87.4509 25.619 90.5519 29.6302 91.7234 34.1156C92.2216 36.023 92.3178 39.6559 91.9188 41.4878C90.7887 46.6759 87.4895 50.8752 82.7751 53.1255C80.0816 54.4113 79.2046 54.5828 74.7925 54.6868L70.8755 54.7793V54.0785C70.8755 53.066 70.3904 50.7001 69.8055 48.8599C67.5192 41.6657 61.1224 35.6359 53.7203 33.6974C51.0831 33.0068 46.6555 32.8217 44.0023 33.2912C37.9378 34.3639 32.4882 37.814 28.9661 42.8103C26.9684 45.6444 25.233 50.2044 24.9314 53.413L24.803 54.7781L20.9164 54.686C17.6772 54.6091 16.7839 54.5209 15.5529 54.156C9.57869 52.3851 5.15323 47.6066 3.82048 41.4878C3.42144 39.6559 3.51763 36.023 4.01583 34.1156C4.89045 30.7671 7.06371 27.3191 9.54855 25.3374C13.1904 22.4332 17.175 21.2903 22.1572 21.7207C24.7277 21.9429 24.7729 21.916 25.4674 19.7699C26.158 17.6356 26.9222 16.044 28.2313 14.0139C29.4958 12.0527 29.6103 11.656 29.1164 10.9479C28.7087 10.3629 27.6008 10.3453 27.034 10.9148C26.0037 11.9499 24.0928 15.362 23.2791 17.62L22.8333 18.8572L20.4274 18.8428C16.7996 18.8209 14.3806 19.3648 11.3557 20.8821C1.86973 25.6403 -1.96749 37.2904 2.79691 46.8674C4.66455 50.6216 8.19477 54.0728 11.889 55.7554C14.7764 57.0708 16.2837 57.3703 20.6886 57.5038L24.7439 57.6267L24.9978 59.4199C26.2393 68.187 32.3498 75.4975 40.7382 78.2515C45.7453 79.8953 51.4938 79.7277 56.2761 77.7988C58.1035 77.0616 60.7557 75.5947 61.479 74.9213C62.3893 74.0739 61.8455 72.4706 60.6478 72.4706C60.3676 72.4706 59.7381 72.7471 59.249 73.085C53.3841 77.1391 45.264 77.6548 38.7908 74.3847C31.8036 70.8547 27.6336 64.0004 27.6429 56.0606C27.6605 40.9849 43.5689 31.1955 56.9926 37.9997C61.1684 40.1163 64.8069 43.9781 66.5197 48.1113C67.7465 51.0721 67.972 52.305 67.9865 56.1324C67.9982 59.1864 67.9427 59.8294 67.5397 61.3128C67.047 63.1253 65.8735 65.8062 64.9174 67.3031C64.2213 68.3932 64.1983 68.6612 64.7419 69.3553C65.3204 70.0944 66.1833 70.0631 66.9145 69.2766C67.6795 68.454 69.3536 64.9715 69.9765 62.9067C70.2575 61.9753 70.6018 60.4062 70.7414 59.4199L70.9953 57.6267L75.1499 57.5054C80.0067 57.3635 81.2976 57.0909 84.4609 55.5388C93.1688 51.2662 97.347 41.1498 94.2138 31.9239C91.9866 25.3651 86.6048 20.6229 79.7195 19.1518C78.8601 18.9683 77.2634 18.8512 75.6155 18.8508L72.9183 18.8502L72.2989 17.218C69.2207 9.10604 61.544 2.7437 52.7736 1.03536C50.8072 0.65241 46.4756 0.496799 44.6964 0.745459ZM34.1851 4.4365C33.367 4.94258 32.4969 5.54451 32.2514 5.77384C31.7318 6.2596 31.6751 7.04184 32.114 7.67106C32.6429 8.42979 33.4737 8.24569 35.5194 6.91691C37.581 5.57778 37.891 5.07429 37.2157 4.16154C36.5904 3.31633 35.8937 3.3795 34.1851 4.4365ZM43.3706 41.9873C42.4406 42.3638 42.2528 43.5338 43.0017 44.2862L43.4884 44.7753H47.8696H52.2509L52.7376 44.2862C53.5013 43.5189 53.3635 42.5699 52.4169 42.0781C51.976 41.849 50.9945 41.7894 47.83 41.7992C45.6156 41.8061 43.609 41.8908 43.3706 41.9873ZM43.3874 47.4508C43.0491 47.5986 42.7145 47.8714 42.6437 48.0571C42.5727 48.2426 42.5148 50.4493 42.5148 52.9608V57.5271H39.9276C37.445 57.5271 37.3206 57.5468 36.8536 58.0162C36.2949 58.5773 36.2524 58.9224 36.6483 59.6789C36.8032 59.9748 39.2422 62.5256 42.0686 65.3475C46.729 70.0005 47.2691 70.4781 47.8696 70.4781C48.4702 70.4781 49.0102 70.0005 53.6707 65.3475C56.497 62.5256 58.9361 59.9748 59.0909 59.6789C59.4868 58.9224 59.4444 58.5773 58.8857 58.0162C58.4186 57.5468 58.2943 57.5271 55.8116 57.5271H53.2244V52.9313C53.2244 50.3146 53.1408 48.1786 53.0303 47.971C52.6796 47.3129 51.7136 47.1661 47.7905 47.174C45.0613 47.1796 43.8303 47.2571 43.3874 47.4508ZM50.4479 54.7928C50.4479 60.5405 50.3549 60.3165 52.7399 60.3165C53.661 60.3165 54.4144 60.3849 54.4144 60.4682C54.4144 60.5516 52.9408 62.0982 51.14 63.905L47.8657 67.1899L44.5953 63.8344C42.7964 61.9888 41.3248 60.4423 41.3248 60.3976C41.3248 60.353 42.0783 60.3165 42.9993 60.3165C45.3844 60.3165 45.2914 60.5405 45.2914 54.7928V50.155H47.8696H50.4479V54.7928Z" fill="#6E6E79"/>
</svg>
