<svg width="120" height="120" viewBox="0 0 120 120" fill="none" xmlns="http://www.w3.org/2000/svg">
<path opacity="0.5" d="M69.1081 53.3165C61.1545 45.363 57.1777 41.3862 57.1777 36.4444C57.1777 31.5027 61.1545 27.5259 69.1081 19.5724L69.7501 18.9304C77.7037 10.9768 81.6805 7 86.6222 7C91.5639 7 95.5407 10.9768 103.494 18.9304L104.136 19.5723C112.09 27.5259 116.067 31.5027 116.067 36.4444C116.067 41.3862 112.09 45.363 104.136 53.3165L103.494 53.9585C95.5407 61.9121 91.5639 65.8889 86.6222 65.8889C81.6805 65.8889 77.7037 61.9121 69.7501 53.9585L69.1081 53.3165Z" fill="url(#paint0_linear_4586_27256)"/>
<g filter="url(#filter0_b_4586_27256)">
<path d="M78.7709 49.1514L45.4005 59.1625V92.3051C45.4005 100.436 38.8091 107.027 30.6783 107.027C22.5474 107.027 15.9561 100.436 15.9561 92.3051C15.9561 84.1743 22.5474 77.5829 30.6783 77.5829C33.9926 77.5829 37.0511 78.6781 39.5116 80.5263V43.2648C39.5116 38.4445 42.7071 34.2082 47.3419 32.8839L55.3593 30.5933L73.3448 25.0593C78.9674 23.3292 84.6598 27.5335 84.6598 33.4162V80.5273C84.6598 88.6582 78.0684 95.2496 69.9375 95.2496C61.8067 95.2496 55.2153 88.6582 55.2153 80.5273C55.2153 72.3965 61.8067 65.8051 69.9375 65.8051C73.2518 65.8051 76.3103 66.9003 78.7709 68.7485V49.1514Z" fill="#8f8f93" fill-opacity="1"/>
</g>
<defs>
<filter id="filter0_b_4586_27256" x="-8.04395" y="0.666656" width="116.704" height="130.361" filterUnits="userSpaceOnUse" color-interpolation-filters="sRGB">
<feFlood flood-opacity="0" result="BackgroundImageFix"/>
<feGaussianBlur in="BackgroundImage" stdDeviation="12"/>
<feComposite in2="SourceAlpha" operator="in" result="effect1_backgroundBlur_4586_27256"/>
<feBlend mode="normal" in="SourceGraphic" in2="effect1_backgroundBlur_4586_27256" result="shape"/>
</filter>
<linearGradient id="paint0_linear_4586_27256" x1="83.0888" y1="45.8667" x2="97.8111" y2="11.7111" gradientUnits="userSpaceOnUse">
<stop stop-color="#9A9A9E"/>
<stop offset="1" stop-color="#E0E0E7"/>
</linearGradient>
</defs>
</svg>
