<svg width="120" height="120" viewBox="0 0 86 80" fill="none" xmlns="http://www.w3.org/2000/svg">
<path opacity="0.5" d="M45.6296 39.3254C38.8765 32.5723 35.5 29.1958 35.5 25C35.5 20.8042 38.8765 17.4277 45.6296 10.6746L46.1746 10.1296C52.9277 3.37652 56.3042 0 60.5 0C64.6958 0 68.0723 3.37652 74.8254 10.1296L75.3704 10.6746C82.1235 17.4277 85.5 20.8042 85.5 25C85.5 29.1958 82.1235 32.5723 75.3704 39.3254L74.8254 39.8704C68.0723 46.6235 64.6958 50 60.5 50C56.3042 50 52.9277 46.6235 46.1746 39.8704L45.6296 39.3254Z" fill="url(#paint0_linear_4910_29861)"/>
<g>
<path fill-rule="evenodd" clip-rule="evenodd" d="M40.5 5C29.9145 5 21.3333 13.5812 21.3333 24.1667V27.8791C21.3333 28.1017 21.3624 28.3176 21.4171 28.5231C16.6301 30.2821 12.8989 34.1439 11.3157 39.0164C10.5 41.5269 10.5 44.6291 10.5 50.8333C10.5 57.0376 10.5 60.1397 11.3157 62.6503C12.9644 67.7243 16.9424 71.7023 22.0164 73.3509C24.5269 74.1667 27.629 74.1667 33.8333 74.1667H47.1667C53.3709 74.1667 56.4731 74.1667 58.9836 73.3509C64.0576 71.7023 68.0356 67.7243 69.6843 62.6503C70.5 60.1397 70.5 57.0376 70.5 50.8333C70.5 44.6291 70.5 41.5269 69.6843 39.0164C68.1011 34.1439 64.3699 30.2821 59.5829 28.5231C59.6376 28.3176 59.6667 28.1017 59.6667 27.8791V24.1667C59.6667 13.5812 51.0855 5 40.5 5ZM47.1667 27.5C50.3843 27.5 52.7676 27.5 54.6667 27.6138V24.1667C54.6667 16.3426 48.324 10 40.5 10C32.676 10 26.3333 16.3426 26.3333 24.1667V27.6138C28.2324 27.5 30.6157 27.5 33.8333 27.5H47.1667Z" fill="#8C8C94" fill-opacity="1"/>
</g>
<path fill-rule="evenodd" clip-rule="evenodd" d="M40.4997 35C35.4371 35 31.333 39.1041 31.333 44.1667C31.333 48.3626 34.1522 51.9001 37.9997 52.9883V64.1667C37.9997 65.5474 39.119 66.6667 40.4997 66.6667C41.8804 66.6667 42.9997 65.5474 42.9997 64.1667V52.9883C46.8472 51.9001 49.6663 48.3626 49.6663 44.1667C49.6663 39.1041 45.5623 35 40.4997 35ZM36.333 44.1667C36.333 41.8655 38.1985 40 40.4997 40C42.8009 40 44.6663 41.8655 44.6663 44.1667C44.6663 46.4679 42.8009 48.3333 40.4997 48.3333C38.1985 48.3333 36.333 46.4679 36.333 44.1667Z" fill="#F8F8FA"/>
<defs>
<linearGradient id="paint0_linear_4910_29861" x1="57.5" y1="33" x2="70" y2="4" gradientUnits="userSpaceOnUse">
<stop stop-color="#9A9A9E"/>
<stop offset="1" stop-color="#E0E0E7"/>
</linearGradient>
</defs>
</svg>
