<svg width="120" height="120" viewBox="0 0 120 120" fill="none" xmlns="http://www.w3.org/2000/svg">
<circle opacity="0.5" cx="86.8176" cy="43.6774" r="31.1828" fill="url(#paint0_linear_4586_27248)"/>
<g filter="url(#filter0_b_4586_27248)">
<g filter="url(#filter1_b_4586_27248)">
<path fill-rule="evenodd" clip-rule="evenodd" d="M39.5585 23.5125H39.2795C33.5763 23.5125 29.1049 23.5125 25.5112 23.8061C21.8518 24.1051 18.8287 24.724 16.0924 26.1182C11.5941 28.4103 7.93678 32.0675 5.64475 36.5659C4.25053 39.3022 3.63163 42.3253 3.33265 45.9847C3.03903 49.5784 3.03904 54.0497 3.03906 59.7529V60.032C3.03904 65.7352 3.03903 70.2066 3.33265 73.8003C3.63163 77.4596 4.25053 80.4827 5.64475 83.2191C7.93678 87.7174 11.5941 91.3747 16.0924 93.6667C18.8287 95.0609 21.8518 95.6798 25.5112 95.9788C29.1046 96.2724 33.5755 96.2724 39.278 96.2724H39.5586C45.2611 96.2724 49.7334 96.2724 53.3268 95.9788C56.9862 95.6798 60.0093 95.0609 62.7456 93.6667C67.2439 91.3747 70.9012 87.7174 73.1932 83.2191C73.4012 82.8108 73.592 82.3961 73.7672 81.9737C78.6179 84.0929 82.5902 85.8132 85.8147 86.688C89.2443 87.6184 92.5853 87.81 95.5718 85.8558C98.5584 83.9016 99.7205 80.7634 100.241 77.2481C100.745 73.8442 100.745 69.3544 100.745 63.843V55.9419C100.745 50.4306 100.745 45.9407 100.241 42.5368C99.7205 39.0216 98.5584 35.8834 95.5718 33.9291C92.5853 31.9749 89.2443 32.1666 85.8147 33.097C82.5902 33.9717 78.6179 35.692 73.7672 37.8113C73.592 37.3888 73.4012 36.9741 73.1932 36.5659C70.9012 32.0675 67.2439 28.4103 62.7456 26.1182C60.0093 24.724 56.9862 24.1051 53.3268 23.8061C49.7331 23.5125 45.2617 23.5125 39.5585 23.5125Z" fill="#8f8f93" fill-opacity="1"/>
</g>
<path fill-rule="evenodd" clip-rule="evenodd" d="M39.608 41.6398C41.5591 42.599 43.9253 44.0553 46.8233 45.8388L47.0978 46.0078C49.9987 47.793 52.3642 49.2488 54.1164 50.5684C55.8954 51.9082 57.4377 53.3878 58.2656 55.37C59.4696 58.2528 59.4696 61.5322 58.2656 64.4149C57.4377 66.3971 55.8954 67.8768 54.1164 69.2166C52.3642 70.5362 49.9987 71.9919 47.0978 73.7771L46.8232 73.9462C43.9252 75.7297 41.559 77.186 39.608 78.1451C37.6475 79.1089 35.6061 79.8358 33.4576 79.5951C30.3522 79.2472 27.5952 77.518 25.8324 74.9318C24.6361 73.1766 24.2174 71.0463 24.0224 68.7809C23.8281 66.5222 23.8281 63.6274 23.8281 60.0418V59.7431C23.8281 56.1575 23.8281 53.2627 24.0224 51.0041C24.2174 48.7386 24.6361 46.6083 25.8324 44.8531C27.5952 42.267 30.3522 40.5378 33.4576 40.1899C35.6061 39.9491 37.6475 40.6761 39.608 41.6398ZM34.1519 46.3876C34.4783 46.3511 35.1824 46.4136 36.8566 47.2367C38.5093 48.0491 40.6228 49.3458 43.6935 51.2356C46.7628 53.1246 48.8749 54.4283 50.3646 55.5502C51.8547 56.6724 52.3266 57.3325 52.5108 57.7737C53.0725 59.1184 53.0725 60.6666 52.5108 62.0113C52.3266 62.4524 51.8547 63.1125 50.3646 64.2348C48.8749 65.3566 46.7628 66.6604 43.6935 68.5493C40.6228 70.4391 38.5093 71.7358 36.8566 72.5483C35.1824 73.3713 34.4783 73.4339 34.1519 73.3973C32.9399 73.2615 31.7748 72.5769 30.9858 71.4193C30.7194 71.0284 30.4067 70.2296 30.236 68.2461C30.0674 66.2872 30.0647 63.6625 30.0647 59.8925C30.0647 56.1224 30.0674 53.4977 30.236 51.5388C30.4067 49.5554 30.7194 48.7565 30.9858 48.3656C31.7748 47.208 32.9399 46.5234 34.1519 46.3876Z" fill="#F8F8FA"/>
</g>
<defs>
<filter id="filter0_b_4586_27248" x="-20.9609" y="-0.487457" width="145.706" height="120.76" filterUnits="userSpaceOnUse" color-interpolation-filters="sRGB">
<feFlood flood-opacity="0" result="BackgroundImageFix"/>
<feGaussianBlur in="BackgroundImage" stdDeviation="12"/>
<feComposite in2="SourceAlpha" operator="in" result="effect1_backgroundBlur_4586_27248"/>
<feBlend mode="normal" in="SourceGraphic" in2="effect1_backgroundBlur_4586_27248" result="shape"/>
</filter>
<filter id="filter1_b_4586_27248" x="-20.9609" y="-0.487457" width="145.706" height="120.76" filterUnits="userSpaceOnUse" color-interpolation-filters="sRGB">
<feFlood flood-opacity="0" result="BackgroundImageFix"/>
<feGaussianBlur in="BackgroundImage" stdDeviation="12"/>
<feComposite in2="SourceAlpha" operator="in" result="effect1_backgroundBlur_4586_27248"/>
<feBlend mode="normal" in="SourceGraphic" in2="effect1_backgroundBlur_4586_27248" result="shape"/>
</filter>
<linearGradient id="paint0_linear_4586_27248" x1="83.0756" y1="53.6559" x2="98.667" y2="17.4839" gradientUnits="userSpaceOnUse">
<stop stop-color="#9A9A9E"/>
<stop offset="1" stop-color="#E0E0E7"/>
</linearGradient>
</defs>
</svg>
