<svg width="14" height="16" viewBox="0 0 14 16" fill="none" xmlns="http://www.w3.org/2000/svg">
<mask id="path-1-inside-1" fill="white">
<path d="M11.3491 5.18072C11.9903 5.75812 12.5034 6.45946 12.8563 7.24085C13.2182 8.04023 13.4 8.88789 13.4 9.76058C13.4018 10.5965 13.2304 11.424 12.8963 12.1927C12.5745 12.9348 12.1127 13.6037 11.5236 14.1759C10.9401 14.7469 10.249 15.2007 9.48908 15.5118C8.69999 15.8355 7.86363 16 6.99999 16C6.13636 16 5.29999 15.8355 4.5109 15.51C3.74909 15.197 3.06545 14.7464 2.47636 14.1741C1.89283 13.6065 1.42666 12.933 1.10363 12.1909C0.769089 11.4201 0.599998 10.6029 0.599998 9.75879C0.600526 8.80144 0.825769 7.85713 1.25818 6.99943C1.69166 6.14915 2.3151 5.40634 3.08181 4.82663C3.40016 4.58449 3.68985 4.30795 3.94545 4.00222C4.31272 3.56229 4.59999 3.0723 4.79999 2.54475C4.96363 2.11376 5.03272 1.59515 5.00545 1.00859L4.96545 0.150197C4.95999 0.0375332 5.08545 -0.0375757 5.18363 0.0196502L5.93454 0.45421C6.96363 1.05151 7.78726 1.90811 8.37999 3.00613C9.09635 4.32769 9.42362 5.54195 9.35635 6.61852C9.35453 6.65071 9.36726 6.6829 9.39272 6.70436C9.41999 6.72939 9.4509 6.73297 9.4709 6.73118C9.4909 6.72939 9.51999 6.72224 9.54544 6.69542C9.92908 6.27516 10.2 5.84776 10.3473 5.42929L10.5836 4.76225C10.5918 4.73997 10.6053 4.71999 10.6232 4.70407C10.641 4.68815 10.6625 4.67678 10.6859 4.67095C10.7092 4.66512 10.7336 4.66502 10.757 4.67065C10.7804 4.67628 10.802 4.68747 10.82 4.70324L11.3491 5.18072Z"/>
</mask>
<path d="M11.3491 5.18072C11.9903 5.75812 12.5034 6.45946 12.8563 7.24085C13.2182 8.04023 13.4 8.88789 13.4 9.76058C13.4018 10.5965 13.2304 11.424 12.8963 12.1927C12.5745 12.9348 12.1127 13.6037 11.5236 14.1759C10.9401 14.7469 10.249 15.2007 9.48908 15.5118C8.69999 15.8355 7.86363 16 6.99999 16C6.13636 16 5.29999 15.8355 4.5109 15.51C3.74909 15.197 3.06545 14.7464 2.47636 14.1741C1.89283 13.6065 1.42666 12.933 1.10363 12.1909C0.769089 11.4201 0.599998 10.6029 0.599998 9.75879C0.600526 8.80144 0.825769 7.85713 1.25818 6.99943C1.69166 6.14915 2.3151 5.40634 3.08181 4.82663C3.40016 4.58449 3.68985 4.30795 3.94545 4.00222C4.31272 3.56229 4.59999 3.0723 4.79999 2.54475C4.96363 2.11376 5.03272 1.59515 5.00545 1.00859L4.96545 0.150197C4.95999 0.0375332 5.08545 -0.0375757 5.18363 0.0196502L5.93454 0.45421C6.96363 1.05151 7.78726 1.90811 8.37999 3.00613C9.09635 4.32769 9.42362 5.54195 9.35635 6.61852C9.35453 6.65071 9.36726 6.6829 9.39272 6.70436C9.41999 6.72939 9.4509 6.73297 9.4709 6.73118C9.4909 6.72939 9.51999 6.72224 9.54544 6.69542C9.92908 6.27516 10.2 5.84776 10.3473 5.42929L10.5836 4.76225C10.5918 4.73997 10.6053 4.71999 10.6232 4.70407C10.641 4.68815 10.6625 4.67678 10.6859 4.67095C10.7092 4.66512 10.7336 4.66502 10.757 4.67065C10.7804 4.67628 10.802 4.68747 10.82 4.70324L11.3491 5.18072Z" fill="#FA0C58"/>
<path d="M12.8563 7.24085L11.945 7.65252L11.9453 7.6532L12.8563 7.24085ZM11.3491 5.18072L10.6791 5.92311L10.6799 5.92381L11.3491 5.18072ZM10.82 4.70324L11.49 3.96078L11.4797 3.95171L10.82 4.70324ZM10.757 4.67065L10.9911 3.69842L10.991 3.69842L10.757 4.67065ZM10.6232 4.70407L11.2893 5.44993L11.2893 5.44992L10.6232 4.70407ZM10.5836 4.76225L9.64431 4.41905L9.64105 4.42825L10.5836 4.76225ZM10.3473 5.42929L9.40468 5.09529L9.40397 5.09732L10.3473 5.42929ZM9.54544 6.69542L10.2708 7.38376L10.2775 7.37675L10.284 7.36962L9.54544 6.69542ZM9.4709 6.73118L9.55995 7.72721H9.55995L9.4709 6.73118ZM9.39272 6.70436L10.069 5.96769L10.0534 5.95342L10.0373 5.93981L9.39272 6.70436ZM9.35635 6.61852L8.35828 6.55615L8.35794 6.56214L9.35635 6.61852ZM8.37999 3.00613L7.50001 3.48115L7.50084 3.48268L8.37999 3.00613ZM5.93454 0.45421L6.43652 -0.410667L6.43542 -0.411305L5.93454 0.45421ZM5.18363 0.0196502L4.68006 0.883612L4.68275 0.885165L5.18363 0.0196502ZM4.96545 0.150197L5.96437 0.103649L5.96428 0.101839L4.96545 0.150197ZM5.00545 1.00859L6.00437 0.962141L6.00436 0.962039L5.00545 1.00859ZM4.79999 2.54475L3.86511 2.18979L3.86493 2.19026L4.79999 2.54475ZM3.94545 4.00222L4.71266 4.64361L4.7131 4.64309L3.94545 4.00222ZM3.08181 4.82663L3.68492 5.6243L3.68721 5.62256L3.08181 4.82663ZM1.25818 6.99943L0.367265 6.54524L0.36524 6.54925L1.25818 6.99943ZM0.599998 9.75879L-0.400002 9.75824V9.75879H0.599998ZM1.10363 12.1909L0.186316 12.5891L0.186737 12.59L1.10363 12.1909ZM2.47636 14.1741L1.77907 14.8909L1.77957 14.8914L2.47636 14.1741ZM4.5109 15.51L4.89221 14.5856L4.89089 14.585L4.5109 15.51ZM9.48908 15.5118L9.1102 14.5863L9.10957 14.5866L9.48908 15.5118ZM11.5236 14.1759L10.8268 13.4586L10.8242 13.4612L11.5236 14.1759ZM12.8963 12.1927L11.9792 11.7941L11.9789 11.7948L12.8963 12.1927ZM13.4 9.76058H12.4L12.4 9.7627L13.4 9.76058ZM13.7677 6.82918C13.3574 5.92094 12.7615 5.10697 12.0183 4.43762L10.6799 5.92381C11.219 6.40928 11.6493 6.99798 11.945 7.65252L13.7677 6.82918ZM12.019 4.43833L11.49 3.96085L10.15 5.44563L10.6791 5.92311L12.019 4.43833ZM11.4797 3.95171C11.339 3.82822 11.1711 3.74176 10.9911 3.69842L10.523 5.64288C10.3897 5.61081 10.265 5.54671 10.1603 5.45477L11.4797 3.95171ZM10.991 3.69842C10.811 3.6551 10.6232 3.65589 10.4436 3.70073L10.9281 5.64117C10.7952 5.67436 10.6562 5.67494 10.523 5.64288L10.991 3.69842ZM10.4436 3.70073C10.2639 3.74559 10.0967 3.83351 9.95706 3.95822L11.2893 5.44992C11.1853 5.54279 11.0611 5.60796 10.9281 5.64117L10.4436 3.70073ZM9.95708 3.9582C9.81737 4.08297 9.70944 4.24093 9.64435 4.41907L11.5229 5.10543C11.4741 5.239 11.3933 5.357 11.2893 5.44993L9.95708 3.9582ZM9.64105 4.42825L9.40469 5.09529L11.2898 5.76329L11.5262 5.09625L9.64105 4.42825ZM9.40397 5.09732C9.31207 5.35845 9.12485 5.67291 8.80689 6.02122L10.284 7.36962C10.7333 6.87741 11.0879 6.33707 11.2905 5.76127L9.40397 5.09732ZM8.82006 6.00708C9.01448 5.80219 9.24755 5.74716 9.38184 5.73516L9.55995 7.72721C9.73424 7.71163 10.0255 7.6423 10.2708 7.38376L8.82006 6.00708ZM9.38185 5.73516C9.55734 5.71947 9.83366 5.75168 10.069 5.96769L8.71646 7.44103C9.00632 7.70711 9.34446 7.74648 9.55995 7.72721L9.38185 5.73516ZM10.0373 5.93981C10.2667 6.13326 10.3696 6.41234 10.3548 6.6749L8.35794 6.56214C8.33948 6.88908 8.46778 7.23253 8.74815 7.4689L10.0373 5.93981ZM10.3544 6.68089C10.4371 5.35778 10.0316 3.9546 9.25914 2.52958L7.50084 3.48268C8.16113 4.70079 8.41017 5.72613 8.3583 6.55615L10.3544 6.68089ZM9.25996 2.53111C8.58322 1.27744 7.63159 0.282967 6.43652 -0.410667L5.43255 1.31909C6.29566 1.82004 6.99131 2.53878 7.50002 3.48115L9.25996 2.53111ZM6.43542 -0.411305L5.68451 -0.845864L4.68275 0.885165L5.43365 1.31972L6.43542 -0.411305ZM5.68719 -0.844307C4.91919 -1.29195 3.92193 -0.72442 3.96662 0.198555L5.96428 0.101839C5.99805 0.799486 5.25171 1.2168 4.68007 0.883608L5.68719 -0.844307ZM3.96653 0.196745L4.00653 1.05513L6.00436 0.962039L5.96436 0.103649L3.96653 0.196745ZM4.00653 1.05503C4.02914 1.54145 3.96863 1.91714 3.86511 2.18979L5.73488 2.8997C5.95863 2.31039 6.0363 1.64886 6.00437 0.962141L4.00653 1.05503ZM3.86493 2.19026C3.70502 2.61207 3.47484 3.00555 3.1778 3.36135L4.7131 4.64309C5.15061 4.11904 5.49497 3.53253 5.73505 2.89924L3.86493 2.19026ZM3.17823 3.36083C2.97081 3.60895 2.73544 3.83369 2.47642 4.0307L3.68721 5.62256C4.06488 5.33529 4.4089 5.00696 4.71266 4.64361L3.17823 3.36083ZM2.47871 4.02897C1.5922 4.69925 0.869974 5.55918 0.367274 6.54524L2.14909 7.45362C2.51334 6.73912 3.03799 6.11343 3.68492 5.62429L2.47871 4.02897ZM0.36524 6.54925C-0.137236 7.54593 -0.399387 8.64417 -0.400001 9.75824L1.6 9.75934C1.60044 8.95871 1.78877 8.16833 2.15112 7.44961L0.36524 6.54925ZM-0.400002 9.75879C-0.400002 10.739 -0.203095 11.6919 0.186317 12.5891L2.02095 11.7927C1.74127 11.1484 1.6 10.4667 1.6 9.75879H-0.400002ZM0.186737 12.59C0.561944 13.452 1.10295 14.2332 1.77907 14.8909L3.17365 13.4573C2.68271 12.9798 2.29138 12.414 2.02053 11.7918L0.186737 12.59ZM1.77957 14.8914C2.45898 15.5514 3.24984 16.073 4.13092 16.435L4.89089 14.585C4.24833 14.321 3.67192 13.9414 3.17315 13.4569L1.77957 14.8914ZM4.1296 16.4345C5.04121 16.8105 6.00726 17 6.99999 17V15C6.26545 15 5.55878 14.8605 4.89221 14.5856L4.1296 16.4345ZM6.99999 17C7.99269 17 8.95805 16.8105 9.86859 16.437L9.10957 14.5866C8.44193 14.8605 7.73457 15 6.99999 15V17ZM9.86796 16.4372C10.7466 16.0775 11.5467 15.5525 12.223 14.8907L10.8242 13.4612C10.3335 13.9414 9.75142 14.3238 9.1102 14.5863L9.86796 16.4372ZM12.2204 14.8932C12.9026 14.2305 13.4397 13.4533 13.8138 12.5905L11.9789 11.7948C11.7094 12.4163 11.3228 12.9768 10.8268 13.4586L12.2204 14.8932ZM13.8135 12.5913C14.2023 11.6965 14.402 10.7326 14.4 9.75847L12.4 9.7627C12.4015 10.4604 12.2585 11.1515 11.9792 11.7941L13.8135 12.5913ZM14.4 9.76058C14.4 8.74611 14.188 7.75784 13.7674 6.8285L11.9453 7.6532C12.2483 8.32262 12.4 9.02966 12.4 9.76058H14.4Z" fill="#FA0C58" mask="url(#path-1-inside-1)"/>
</svg>
