<svg width="121" height="36" viewBox="0 0 121 36" fill="none" xmlns="http://www.w3.org/2000/svg">
<path d="M0 4.51852C0 2.02301 2.02301 0 4.51852 0H116.481C118.977 0 121 2.02301 121 4.51852V31.4815C121 33.977 118.977 36 116.481 36H4.51851C2.023 36 0 33.977 0 31.4815V4.51852Z" fill="black"/>
<path d="M61.5748 19.576C59.4493 19.576 57.7169 21.1861 57.7169 23.4037C57.7169 25.6078 59.4493 27.2314 61.5748 27.2314C63.7012 27.2314 65.4336 25.6078 65.4336 23.4037C65.4327 21.1861 63.7003 19.576 61.5748 19.576ZM61.5748 25.7248C60.4099 25.7248 59.4059 24.7681 59.4059 23.4046C59.4059 22.0267 60.4108 21.0844 61.5748 21.0844C62.7397 21.0844 63.7437 22.0267 63.7437 23.4046C63.7437 24.7672 62.7397 25.7248 61.5748 25.7248ZM53.1577 19.576C51.0322 19.576 49.2998 21.1861 49.2998 23.4037C49.2998 25.6078 51.0322 27.2314 53.1577 27.2314C55.2841 27.2314 57.0165 25.6078 57.0165 23.4037C57.0165 21.1861 55.2841 19.576 53.1577 19.576ZM53.1577 25.7248C51.9928 25.7248 50.9888 24.7681 50.9888 23.4046C50.9888 22.0267 51.9937 21.0844 53.1577 21.0844C54.3226 21.0844 55.3266 22.0267 55.3266 23.4046C55.3275 24.7672 54.3226 25.7248 53.1577 25.7248ZM43.1465 20.7514V22.375H47.0487C46.9321 23.2885 46.6266 23.9554 46.1603 24.4189C45.5928 24.9841 44.7045 25.6078 43.1465 25.6078C40.7444 25.6078 38.8665 23.6791 38.8665 21.2869C38.8665 18.8947 40.7444 16.966 43.1465 16.966C44.4424 16.966 45.3886 17.4736 46.0871 18.1261L47.2375 16.9804C46.2615 16.0525 44.9665 15.3424 43.1465 15.3424C39.8561 15.3424 37.0898 18.01 37.0898 21.2869C37.0898 24.5638 39.8561 27.2314 43.1465 27.2314C44.9222 27.2314 46.2624 26.6509 47.3098 25.5637C48.387 24.4909 48.7223 22.9825 48.7223 21.7648C48.7223 21.3886 48.6934 21.0403 48.6347 20.7505H43.1465V20.7514ZM84.0915 22.0123C83.7716 21.1573 82.7956 19.576 80.8011 19.576C78.8211 19.576 77.1754 21.1276 77.1754 23.4037C77.1754 25.5493 78.8066 27.2314 80.99 27.2314C82.7513 27.2314 83.7707 26.1586 84.1936 25.5349L82.8832 24.6646C82.4467 25.3027 81.8494 25.723 80.99 25.723C80.1314 25.723 79.5196 25.3315 79.1265 24.5629L84.2659 22.4461L84.0915 22.0123ZM78.85 23.2885C78.8066 21.8089 80.0004 21.0556 80.8598 21.0556C81.5295 21.0556 82.097 21.3895 82.2868 21.8674L78.85 23.2885ZM74.6722 27.0001H76.3603V15.7492H74.6722V27.0001ZM71.905 20.4319H71.8472C71.4685 19.9819 70.7402 19.576 69.8238 19.576C67.9016 19.576 66.1403 21.2581 66.1403 23.419C66.1403 25.5646 67.9016 27.2323 69.8238 27.2323C70.7411 27.2323 71.4685 26.8264 71.8472 26.3629H71.905V26.9137C71.905 28.378 71.1188 29.161 69.8527 29.161C68.8189 29.161 68.1782 28.4221 67.9161 27.7984L66.4458 28.4077C66.8678 29.422 67.9884 30.6694 69.8527 30.6694C71.8327 30.6694 73.5073 29.5093 73.5073 26.6815V19.8091H71.9059V20.4319H71.905ZM69.9693 25.7248C68.8044 25.7248 67.8293 24.7528 67.8293 23.419C67.8293 22.0699 68.8044 21.0844 69.9693 21.0844C71.1188 21.0844 72.0216 22.0699 72.0216 23.419C72.0216 24.7528 71.1188 25.7248 69.9693 25.7248ZM92.0025 15.7492H87.962V27.0001H89.6474V22.7377H92.0016C93.8705 22.7377 95.7086 21.3904 95.7086 19.2439C95.7086 17.0974 93.8714 15.7492 92.0025 15.7492ZM92.0459 21.1717H89.6474V17.3152H92.0459C93.3065 17.3152 94.0223 18.3547 94.0223 19.2439C94.0223 20.1151 93.3065 21.1717 92.0459 21.1717ZM102.467 19.5562C101.246 19.5562 99.9822 20.0917 99.459 21.2788L100.955 21.9007C101.275 21.2788 101.872 21.0754 102.496 21.0754C103.368 21.0754 104.255 21.5965 104.269 22.5226V22.6387C103.964 22.465 103.31 22.2049 102.511 22.2049C100.898 22.2049 99.2547 23.0878 99.2547 24.7375C99.2547 26.2432 100.578 27.2125 102.06 27.2125C103.193 27.2125 103.818 26.7058 104.211 26.1118H104.268V26.9803H105.897V22.6666C105.898 20.6704 104.4 19.5562 102.467 19.5562ZM102.263 25.7221C101.712 25.7221 100.941 25.4467 100.941 24.7663C100.941 23.8978 101.901 23.5648 102.729 23.5648C103.47 23.5648 103.819 23.7241 104.269 23.941C104.138 24.9841 103.237 25.7221 102.263 25.7221ZM111.827 19.8019L109.894 24.6799H109.836L107.83 19.8019H106.014L109.022 26.6194L107.307 30.412H109.065L113.702 19.8019H111.827ZM96.6394 27.0001H98.3248V15.7492H96.6394V27.0001Z" fill="white"/>
<path d="M42.8515 9.21864C42.8515 9.97284 42.6274 10.5731 42.1782 11.0213C41.6685 11.5541 41.0034 11.8205 40.1865 11.8205C39.4039 11.8205 38.7378 11.5505 38.1911 11.0105C37.6435 10.4696 37.3696 9.80004 37.3696 9.00084C37.3696 8.20074 37.6435 7.53114 38.1911 6.99114C38.7378 6.45024 39.4039 6.18024 40.1865 6.18024C40.5751 6.18024 40.9465 6.25584 41.2989 6.40614C41.6523 6.55734 41.9351 6.75804 42.1466 7.00914L41.6704 7.48434C41.3116 7.05684 40.8173 6.84354 40.1856 6.84354C39.6144 6.84354 39.121 7.04334 38.7044 7.44294C38.2878 7.84254 38.0799 8.36184 38.0799 8.99994C38.0799 9.63804 38.2878 10.1573 38.7044 10.5569C39.121 10.9565 39.6144 11.1563 40.1856 11.1563C40.791 11.1563 41.2962 10.9556 41.7002 10.5533C41.9623 10.2914 42.1141 9.92694 42.1547 9.45984H40.1856V8.81094H42.8126C42.8397 8.95224 42.8515 9.08814 42.8515 9.21864Z" fill="white"/>
<path d="M47.0177 6.96329H44.5487V8.67509H46.7755V9.32399H44.5487V11.0358H47.0177V11.7H43.852V6.29999H47.0177V6.96329Z" fill="white"/>
<path d="M49.9555 11.7H49.2587V6.96329H47.7441V6.29999H51.4701V6.96329H49.9555V11.7Z" fill="white"/>
<path d="M54.1658 11.7V6.29999H54.8626V11.7H54.1658Z" fill="white"/>
<path d="M57.9525 11.7H57.2557V6.96329H55.7411V6.29999H59.4671V6.96329H57.9525V11.7Z" fill="white"/>
<path d="M66.5203 11.0025C65.9871 11.5479 65.3247 11.8206 64.5321 11.8206C63.7396 11.8206 63.0772 11.5479 62.5449 11.0025C62.0117 10.4571 61.746 9.78928 61.746 8.99998C61.746 8.21068 62.0117 7.54288 62.5449 6.99748C63.0772 6.45208 63.7396 6.17848 64.5321 6.17848C65.3202 6.17848 65.9817 6.45298 66.5167 7.00108C67.0517 7.54918 67.3192 8.21518 67.3192 8.99998C67.3192 9.78928 67.0526 10.4571 66.5203 11.0025ZM63.0591 10.5498C63.4603 10.9548 63.9511 11.1564 64.5321 11.1564C65.1132 11.1564 65.6048 10.9539 66.0052 10.5498C66.4064 10.1448 66.608 9.62818 66.608 8.99998C66.608 8.37178 66.4064 7.85518 66.0052 7.45018C65.6048 7.04518 65.1132 6.84358 64.5321 6.84358C63.9511 6.84358 63.4603 7.04608 63.0591 7.45018C62.6588 7.85518 62.4572 8.37178 62.4572 8.99998C62.4572 9.62818 62.6588 10.1448 63.0591 10.5498Z" fill="white"/>
<path d="M68.297 11.7V6.29999H69.1447L71.7799 10.5003H71.8097L71.7799 9.45989V6.29999H72.4766V11.7H71.7491L68.9919 7.29539H68.9621L68.9919 8.33579V11.7H68.297Z" fill="white"/>
<path d="M42.8515 9.21864C42.8515 9.97284 42.6274 10.5731 42.1782 11.0213C41.6685 11.5541 41.0034 11.8205 40.1865 11.8205C39.4039 11.8205 38.7378 11.5505 38.1911 11.0105C37.6435 10.4696 37.3696 9.80004 37.3696 9.00084C37.3696 8.20074 37.6435 7.53114 38.1911 6.99114C38.7378 6.45024 39.4039 6.18024 40.1865 6.18024C40.5751 6.18024 40.9465 6.25584 41.2989 6.40614C41.6523 6.55734 41.9351 6.75804 42.1466 7.00914L41.6704 7.48434C41.3116 7.05684 40.8173 6.84354 40.1856 6.84354C39.6144 6.84354 39.121 7.04334 38.7044 7.44294C38.2878 7.84254 38.0799 8.36184 38.0799 8.99994C38.0799 9.63804 38.2878 10.1573 38.7044 10.5569C39.121 10.9565 39.6144 11.1563 40.1856 11.1563C40.791 11.1563 41.2962 10.9556 41.7002 10.5533C41.9623 10.2914 42.1141 9.92694 42.1547 9.45984H40.1856V8.81094H42.8126C42.8397 8.95224 42.8515 9.08814 42.8515 9.21864Z" stroke="white" stroke-width="0.180741" stroke-miterlimit="10"/>
<path d="M47.0177 6.96329H44.5487V8.67509H46.7755V9.32399H44.5487V11.0358H47.0177V11.7H43.852V6.29999H47.0177V6.96329Z" stroke="white" stroke-width="0.180741" stroke-miterlimit="10"/>
<path d="M49.9555 11.7H49.2587V6.96329H47.7441V6.29999H51.4701V6.96329H49.9555V11.7Z" stroke="white" stroke-width="0.180741" stroke-miterlimit="10"/>
<path d="M54.1658 11.7V6.29999H54.8626V11.7H54.1658Z" stroke="white" stroke-width="0.180741" stroke-miterlimit="10"/>
<path d="M57.9525 11.7H57.2557V6.96329H55.7411V6.29999H59.4671V6.96329H57.9525V11.7Z" stroke="white" stroke-width="0.180741" stroke-miterlimit="10"/>
<path d="M66.5203 11.0025C65.9871 11.5479 65.3247 11.8206 64.5321 11.8206C63.7396 11.8206 63.0772 11.5479 62.5449 11.0025C62.0117 10.4571 61.746 9.78928 61.746 8.99998C61.746 8.21068 62.0117 7.54288 62.5449 6.99748C63.0772 6.45208 63.7396 6.17848 64.5321 6.17848C65.3202 6.17848 65.9817 6.45298 66.5167 7.00108C67.0517 7.54918 67.3192 8.21518 67.3192 8.99998C67.3192 9.78928 67.0526 10.4571 66.5203 11.0025ZM63.0591 10.5498C63.4603 10.9548 63.9511 11.1564 64.5321 11.1564C65.1132 11.1564 65.6048 10.9539 66.0052 10.5498C66.4064 10.1448 66.608 9.62818 66.608 8.99998C66.608 8.37178 66.4064 7.85518 66.0052 7.45018C65.6048 7.04518 65.1132 6.84358 64.5321 6.84358C63.9511 6.84358 63.4603 7.04608 63.0591 7.45018C62.6588 7.85518 62.4572 8.37178 62.4572 8.99998C62.4572 9.62818 62.6588 10.1448 63.0591 10.5498Z" stroke="white" stroke-width="0.180741" stroke-miterlimit="10"/>
<path d="M68.297 11.7V6.29999H69.1447L71.7799 10.5003H71.8097L71.7799 9.45989V6.29999H72.4766V11.7H71.7491L68.9919 7.29539H68.9621L68.9919 8.33579V11.7H68.297Z" stroke="white" stroke-width="0.180741" stroke-miterlimit="10"/>
<g filter="url(#filter0_ii)">
<path d="M9.43013 6.78422C9.16716 7.06142 9.01172 7.49162 9.01172 8.04872V27.9531C9.01172 28.5111 9.16716 28.9404 9.43013 29.2176L9.49701 29.2824L20.693 18.1323V18.0009V17.8695L9.49701 6.71852L9.43013 6.78422Z" fill="url(#paint0_linear)"/>
<path d="M24.4243 21.8502L20.6929 18.1323V18.0009V17.8695L24.4252 14.1525L24.5092 14.2002L28.931 16.7022C30.1935 17.4168 30.1935 18.5859 28.931 19.3014L24.5092 21.8034L24.4243 21.8502Z" fill="url(#paint1_linear)"/>
<g filter="url(#filter1_i)">
<path d="M24.5094 21.8025L20.6921 18.0009L9.43018 29.2176C9.84588 29.6568 10.5336 29.7108 11.3081 29.2734L24.5094 21.8025Z" fill="url(#paint2_linear)"/>
</g>
<path d="M24.5094 14.1993L11.3081 6.72932C10.5336 6.29102 9.84588 6.34592 9.43018 6.78512L20.693 18.0018L24.5094 14.1993Z" fill="url(#paint3_linear)"/>
</g>
<path d="M4.51852 0.903704H116.481V-0.903704H4.51852V0.903704ZM120.096 4.51852V31.4815H121.904V4.51852H120.096ZM116.481 35.0963H4.51851V36.9037H116.481V35.0963ZM0.903704 31.4815V4.51852H-0.903704V31.4815H0.903704ZM4.51851 35.0963C2.52211 35.0963 0.903704 33.4779 0.903704 31.4815H-0.903704C-0.903704 34.4761 1.5239 36.9037 4.51851 36.9037V35.0963ZM120.096 31.4815C120.096 33.4779 118.478 35.0963 116.481 35.0963V36.9037C119.476 36.9037 121.904 34.4761 121.904 31.4815H120.096ZM116.481 0.903704C118.478 0.903704 120.096 2.52211 120.096 4.51852H121.904C121.904 1.52391 119.476 -0.903704 116.481 -0.903704V0.903704ZM4.51852 -0.903704C1.52391 -0.903704 -0.903704 1.52391 -0.903704 4.51852H0.903704C0.903704 2.52211 2.52211 0.903704 4.51852 0.903704V-0.903704Z" fill="#A6A6A6"/>
<defs>
<filter id="filter0_ii" x="9.01172" y="6.42685" width="20.8662" height="23.1487" filterUnits="userSpaceOnUse" color-interpolation-filters="sRGB">
<feFlood flood-opacity="0" result="BackgroundImageFix"/>
<feBlend mode="normal" in="SourceGraphic" in2="BackgroundImageFix" result="shape"/>
<feColorMatrix in="SourceAlpha" type="matrix" values="0 0 0 0 0 0 0 0 0 0 0 0 0 0 0 0 0 0 127 0" result="hardAlpha"/>
<feOffset dy="-0.135556"/>
<feComposite in2="hardAlpha" operator="arithmetic" k2="-1" k3="1"/>
<feColorMatrix type="matrix" values="0 0 0 0 0 0 0 0 0 0 0 0 0 0 0 0 0 0 0.12 0"/>
<feBlend mode="normal" in2="shape" result="effect1_innerShadow"/>
<feColorMatrix in="SourceAlpha" type="matrix" values="0 0 0 0 0 0 0 0 0 0 0 0 0 0 0 0 0 0 127 0" result="hardAlpha"/>
<feOffset dy="0.135556"/>
<feComposite in2="hardAlpha" operator="arithmetic" k2="-1" k3="1"/>
<feColorMatrix type="matrix" values="0 0 0 0 1 0 0 0 0 1 0 0 0 0 1 0 0 0 0.25 0"/>
<feBlend mode="normal" in2="effect1_innerShadow" result="effect2_innerShadow"/>
</filter>
<filter id="filter1_i" x="9.43018" y="18.0009" width="15.0791" height="11.5746" filterUnits="userSpaceOnUse" color-interpolation-filters="sRGB">
<feFlood flood-opacity="0" result="BackgroundImageFix"/>
<feBlend mode="normal" in="SourceGraphic" in2="BackgroundImageFix" result="shape"/>
<feColorMatrix in="SourceAlpha" type="matrix" values="0 0 0 0 0 0 0 0 0 0 0 0 0 0 0 0 0 0 127 0" result="hardAlpha"/>
<feOffset dy="-0.135556"/>
<feComposite in2="hardAlpha" operator="arithmetic" k2="-1" k3="1"/>
<feColorMatrix type="matrix" values="0 0 0 0 0 0 0 0 0 0 0 0 0 0 0 0 0 0 0.08 0"/>
<feBlend mode="normal" in2="shape" result="effect1_innerShadow"/>
</filter>
<linearGradient id="paint0_linear" x1="19.7005" y1="7.83812" x2="4.59687" y2="23.0039" gradientUnits="userSpaceOnUse">
<stop stop-color="#00A0FF"/>
<stop offset="0.0066" stop-color="#00A1FF"/>
<stop offset="0.2601" stop-color="#00BEFF"/>
<stop offset="0.5122" stop-color="#00D2FF"/>
<stop offset="0.7604" stop-color="#00DFFF"/>
<stop offset="1" stop-color="#00E3FF"/>
</linearGradient>
<linearGradient id="paint1_linear" x1="30.5744" y1="18.0009" x2="8.7085" y2="18.0009" gradientUnits="userSpaceOnUse">
<stop stop-color="#FFE000"/>
<stop offset="0.4087" stop-color="#FFBD00"/>
<stop offset="0.7754" stop-color="#FFA500"/>
<stop offset="1" stop-color="#FF9C00"/>
</linearGradient>
<linearGradient id="paint2_linear" x1="22.4364" y1="20.0654" x2="1.95389" y2="40.6322" gradientUnits="userSpaceOnUse">
<stop stop-color="#FF3A44"/>
<stop offset="1" stop-color="#C31162"/>
</linearGradient>
<linearGradient id="paint3_linear" x1="6.59381" y1="0.159137" x2="15.7398" y2="9.34277" gradientUnits="userSpaceOnUse">
<stop stop-color="#32A071"/>
<stop offset="0.0685" stop-color="#2DA771"/>
<stop offset="0.4762" stop-color="#15CF74"/>
<stop offset="0.8009" stop-color="#06E775"/>
<stop offset="1" stop-color="#00F076"/>
</linearGradient>
</defs>
</svg>
