<svg width="18" height="18" viewBox="0 0 18 18" fill="none" xmlns="http://www.w3.org/2000/svg">
<path fill-rule="evenodd" clip-rule="evenodd" d="M8.12949 0.0215489C6.46424 0.192462 4.90414 0.806016 3.53684 1.82773C3.10491 2.1505 2.14482 3.11123 1.82227 3.54344C0.856298 4.8379 0.277266 6.25417 0.0441957 7.89261C-0.0147319 8.307 -0.0147319 9.69741 0.0441957 10.1118C0.277266 11.7502 0.856298 13.1665 1.82227 14.461C2.14753 14.8968 3.10611 15.8548 3.54595 16.1836C4.82631 17.1406 6.25423 17.7241 7.88308 17.956C8.29962 18.0153 9.68375 18.0145 10.1184 17.9547C11.7828 17.7259 13.2762 17.0933 14.6066 16.0535C14.7421 15.9475 15.0907 15.6215 15.3812 15.3288C16.1522 14.5523 16.5854 13.9488 17.0679 12.9789C17.9907 11.1237 18.2344 9.04623 17.7718 6.97675C17.5117 5.81297 16.9248 4.56086 16.1675 3.55384C15.8363 3.11341 15.0894 2.34205 14.6575 1.99434C13.3756 0.962346 11.8856 0.312721 10.2416 0.0691383C9.81111 0.00534527 8.56163 -0.0227997 8.12949 0.0215489ZM9.90718 3.30994C11.0042 3.56349 11.8149 4.18345 12.2494 5.10121C12.4398 5.50338 12.5121 5.84478 12.5119 6.33952C12.5115 6.85903 12.4311 7.23107 12.2298 7.64332C12.0303 8.05204 11.7319 8.40573 10.967 9.14039C10.5246 9.56531 10.2732 9.83387 10.2254 9.93268C10.1857 10.0149 10.1365 10.2156 10.1163 10.3788C10.0509 10.9052 9.83463 11.237 9.4253 11.4387C8.99397 11.6511 8.48936 11.5761 8.12309 11.2449C7.95236 11.0906 7.80961 10.8348 7.75688 10.5887C7.67979 10.229 7.82757 9.45925 8.06447 8.98646C8.3118 8.49284 8.53963 8.2276 9.42358 7.404C9.69002 7.15573 9.95009 6.88083 10.0015 6.79305C10.2438 6.37929 10.0137 5.79807 9.51024 5.55238C8.85538 5.23281 8.15097 5.49355 7.91504 6.14282C7.76614 6.5526 7.67444 6.71696 7.50776 6.87301C7.24083 7.12286 7.06721 7.18803 6.66862 7.18806C6.35445 7.1881 6.32072 7.18077 6.11152 7.06728C5.86708 6.93465 5.69076 6.75162 5.56875 6.50388C5.50207 6.36851 5.48954 6.28623 5.49046 5.99044C5.49141 5.67774 5.50419 5.60655 5.60419 5.35638C6.00489 4.35426 6.75029 3.66906 7.75111 3.38282C7.9205 3.33438 8.15413 3.28003 8.2703 3.26199C8.57265 3.21511 9.63098 3.24611 9.90718 3.30994ZM9.49662 12.367C10.2448 12.7372 10.4403 13.7361 9.88539 14.3537C9.78425 14.4662 9.64137 14.5724 9.49201 14.646C9.27932 14.7508 9.22771 14.7615 8.93913 14.7615C8.65055 14.7615 8.59894 14.7508 8.38625 14.646C7.93198 14.4222 7.67796 14.0152 7.67796 13.511C7.67796 12.9465 8.00213 12.4998 8.56402 12.29C8.64731 12.2589 8.79829 12.2461 8.99193 12.2536C9.23585 12.2632 9.32913 12.2842 9.49662 12.367Z" fill="black"/>
</svg>
