<svg width="28" height="28" viewBox="0 0 28 28" fill="#42A4FF" xmlns="http://www.w3.org/2000/svg">
<path fill-rule="evenodd" clip-rule="evenodd" d="M19.1034 21.292H19.8329V21.292C19.9287 21.292 20.0235 21.3107 20.1119 21.3473C20.2004 21.3839 20.2808 21.4375 20.3486 21.5051C20.4163 21.5728 20.4701 21.6531 20.5068 21.7415C20.5435 21.8299 20.5624 21.9247 20.5625 22.0205C20.5625 22.1162 20.5437 22.211 20.5072 22.2995C20.4706 22.3879 20.417 22.4683 20.3493 22.5361C20.2817 22.6038 20.2014 22.6576 20.113 22.6943C20.0245 22.731 19.9298 22.7499 19.834 22.75H8.16703C7.97383 22.75 7.78854 22.6732 7.65192 22.5366C7.51531 22.4 7.43856 22.2147 7.43856 22.0215C7.43856 21.8283 7.51531 21.643 7.65192 21.5064C7.78854 21.3698 7.97383 21.293 8.16703 21.293H8.8969V18.9066C8.89699 18.3188 9.02057 17.7376 9.25963 17.2006C9.49868 16.6636 9.84787 16.1829 10.2846 15.7895L11.5193 14.6783C11.6143 14.5929 11.6904 14.4884 11.7424 14.3717C11.7944 14.2549 11.8213 14.1286 11.8213 14.0008C11.8213 13.873 11.7944 13.7466 11.7424 13.6298C11.6904 13.5131 11.6143 13.4086 11.5193 13.3232L10.2842 12.2132C9.84761 11.8197 9.49847 11.3389 9.25942 10.8019C9.02037 10.265 8.89675 9.68377 8.89656 9.09599V6.7093H8.16703C7.97355 6.7093 7.78799 6.63244 7.65117 6.49563C7.51436 6.35882 7.4375 6.17326 7.4375 5.97977C7.4375 5.78629 7.51436 5.60073 7.65117 5.46392C7.78799 5.32711 7.97355 5.25024 8.16703 5.25024H19.833C20.0263 5.25024 20.2118 5.32705 20.3485 5.46376C20.4852 5.60047 20.562 5.78589 20.562 5.97923C20.562 6.17256 20.4852 6.35798 20.3485 6.49469C20.2118 6.63141 20.0263 6.70821 19.833 6.70821H19.1035V9.09463C19.1034 9.68242 18.9798 10.2636 18.7407 10.8006C18.5017 11.3376 18.1525 11.8184 17.7158 12.2118L16.481 13.3232C16.386 13.4086 16.3099 13.5131 16.2579 13.6298C16.2059 13.7466 16.179 13.873 16.179 14.0008C16.179 14.1286 16.2059 14.2549 16.2579 14.3717C16.3099 14.4884 16.386 14.5929 16.481 14.6783L17.7157 15.7884C18.1523 16.1818 18.5015 16.6626 18.7405 17.1996C18.9796 17.7366 19.1032 18.3178 19.1034 18.9055V21.292ZM11.2348 18.2106C11.134 18.4541 11.0824 18.7151 11.083 18.9787V21.2909H16.916V18.9787C16.9167 18.7151 16.8652 18.454 16.7643 18.2105C16.6635 17.967 16.5154 17.7459 16.3285 17.56L14.3862 15.6176C14.2836 15.5151 14.1445 15.4575 13.9995 15.4575C13.8545 15.4575 13.7154 15.5151 13.6128 15.6176L11.6705 17.56C11.4837 17.7459 11.3357 17.9671 11.2348 18.2106Z"/>
</svg>
