<svg width="14" height="14" viewBox="0 0 14 14" fill="none" xmlns="http://www.w3.org/2000/svg">
<path d="M13.6667 7.00001C13.6667 8.76812 12.9643 10.4638 11.714 11.7141C10.4638 12.9643 8.76811 13.6667 7 13.6667C5.23189 13.6667 3.5362 12.9643 2.28596 11.7141C1.03571 10.4638 0.333336 8.76812 0.333336 7.00001C0.333336 5.2319 1.03571 3.53621 2.28596 2.28596C3.5362 1.03572 5.23189 0.333344 7 0.333344C8.76811 0.333344 10.4638 1.03572 11.714 2.28596C12.9643 3.53621 13.6667 5.2319 13.6667 7.00001ZM6.33334 6.33334V11C6.33334 11.1768 6.40357 11.3464 6.5286 11.4714C6.65362 11.5964 6.82319 11.6667 7 11.6667C7.17681 11.6667 7.34638 11.5964 7.47141 11.4714C7.59643 11.3464 7.66667 11.1768 7.66667 11V6.33334C7.66667 6.15653 7.59643 5.98696 7.47141 5.86194C7.34638 5.73691 7.17681 5.66668 7 5.66668C6.82319 5.66668 6.65362 5.73691 6.5286 5.86194C6.40357 5.98696 6.33334 6.15653 6.33334 6.33334ZM7 2.66668C6.73479 2.66668 6.48043 2.77203 6.2929 2.95957C6.10536 3.14711 6 3.40146 6 3.66668C6 3.93189 6.10536 4.18625 6.2929 4.37378C6.48043 4.56132 6.73479 4.66668 7 4.66668C7.26522 4.66668 7.51957 4.56132 7.70711 4.37378C7.89465 4.18625 8 3.93189 8 3.66668C8 3.40146 7.89465 3.14711 7.70711 2.95957C7.51957 2.77203 7.26522 2.66668 7 2.66668Z" fill="#F8F8FA"/>
</svg>
