<svg width="38" height="50" viewBox="0 0 38 50" fill="currentColor" xmlns="http://www.w3.org/2000/svg">
    <path d="M32.8125 18.75H31.25V12.5C31.25 5.60625 25.6437 0 18.75 0C11.8562 0 6.25 5.60625 6.25 12.5V18.75H4.6875C2.10417 18.75 0 20.8521 0 23.4375V45.3125C0 47.8979 2.10417 50 4.6875 50H32.8125C35.3958 50 37.5 47.8979 37.5 45.3125V23.4375C37.5 20.8521 35.3958 18.75 32.8125 18.75ZM10.4167 12.5C10.4167 7.90417 14.1542 4.16667 18.75 4.16667C23.3458 4.16667 27.0833 7.90417 27.0833 12.5V18.75H10.4167V12.5ZM20.8333 34.8375V39.5833C20.8333 40.7333 19.9021 41.6667 18.75 41.6667C17.5979 41.6667 16.6667 40.7333 16.6667 39.5833V34.8375C15.4271 34.1146 14.5833 32.7854 14.5833 31.25C14.5833 28.9521 16.4521 27.0833 18.75 27.0833C21.0479 27.0833 22.9167 28.9521 22.9167 31.25C22.9167 32.7854 22.0729 34.1146 20.8333 34.8375Z"/>
</svg>
