<svg width="18" height="20" viewBox="0 0 18 20" fill="#000" xmlns="http://www.w3.org/2000/svg">
<path fill-rule="evenodd" clip-rule="evenodd" d="M2.99961 8.80002V6.40002C2.99961 4.80873 3.63175 3.2826 4.75697 2.15738C5.88219 1.03217 7.40831 0.400024 8.99961 0.400024C10.5909 0.400024 12.117 1.03217 13.2423 2.15738C14.3675 3.2826 14.9996 4.80873 14.9996 6.40002V8.80002C15.6361 8.80002 16.2466 9.05288 16.6967 9.50297C17.1468 9.95306 17.3996 10.5635 17.3996 11.2V17.2C17.3996 17.8365 17.1468 18.447 16.6967 18.8971C16.2466 19.3472 15.6361 19.6 14.9996 19.6H2.99961C2.36309 19.6 1.75264 19.3472 1.30255 18.8971C0.852466 18.447 0.599609 17.8365 0.599609 17.2V11.2C0.599609 10.5635 0.852466 9.95306 1.30255 9.50297C1.75264 9.05288 2.36309 8.80002 2.99961 8.80002ZM12.5996 6.40002V8.80002H5.39961V6.40002C5.39961 5.44524 5.77889 4.52957 6.45403 3.85444C7.12916 3.17931 8.04483 2.80002 8.99961 2.80002C9.95439 2.80002 10.8701 3.17931 11.5452 3.85444C12.2203 4.52957 12.5996 5.44524 12.5996 6.40002Z"/>
</svg>
