<svg width="11" height="10" viewBox="0 0 11 10" fill="none" xmlns="http://www.w3.org/2000/svg">
<path d="M6.8181 0.76021C6.68565 0.529351 6.49391 0.337398 6.26239 0.203869C6.03087 0.0703408 5.76782 0 5.5 0C5.23218 0 4.96913 0.0703408 4.73761 0.203869C4.50609 0.337398 4.31435 0.529351 4.1819 0.76021L0.190018 7.81365C0.0632577 8.03499 -0.00227377 8.28563 6.02364e-05 8.54017C0.00239424 8.79472 0.0725108 9.04413 0.203309 9.26315C0.336029 9.48912 0.526613 9.67628 0.755753 9.80567C0.984894 9.93506 1.24445 10.0021 1.50812 9.99995H9.49188C9.75555 10.0021 10.0151 9.93506 10.2442 9.80567C10.4734 9.67628 10.664 9.48912 10.7967 9.26315C10.9275 9.04413 10.9976 8.79472 10.9999 8.54017C11.0023 8.28563 10.9367 8.03499 10.81 7.81365L6.8181 0.76021ZM5.5 8.18182C5.40935 8.18182 5.32074 8.15516 5.24538 8.10522C5.17001 8.05527 5.11126 7.98428 5.07658 7.90123C5.04189 7.81817 5.03281 7.72678 5.0505 7.63861C5.06818 7.55044 5.11183 7.46945 5.17593 7.40588C5.24002 7.34232 5.32168 7.29903 5.41059 7.28149C5.49949 7.26395 5.59164 7.27295 5.67539 7.30735C5.75913 7.34176 5.83071 7.40001 5.88107 7.47476C5.93143 7.54951 5.95831 7.63739 5.95831 7.72729C5.95831 7.84784 5.91002 7.96345 5.82407 8.04869C5.73812 8.13393 5.62155 8.18182 5.5 8.18182ZM5.95831 5.90916C5.95831 6.02971 5.91002 6.14532 5.82407 6.23056C5.73812 6.3158 5.62155 6.36369 5.5 6.36369C5.37845 6.36369 5.26188 6.3158 5.17593 6.23056C5.08998 6.14532 5.04169 6.02971 5.04169 5.90916V3.18196C5.04169 3.06141 5.08998 2.9458 5.17593 2.86056C5.26188 2.77532 5.37845 2.72743 5.5 2.72743C5.62155 2.72743 5.73812 2.77532 5.82407 2.86056C5.91002 2.9458 5.95831 3.06141 5.95831 3.18196V5.90916Z" fill="#6E6E79"/>
</svg>
