<svg width="17" height="14" viewBox="0 0 17 14" fill="none" xmlns="http://www.w3.org/2000/svg">
<path fill-rule="evenodd" clip-rule="evenodd" d="M7.57633 0.409702C5.59933 0.675014 3.80233 1.85064 2.72974 3.58045C2.1033 4.59073 1.74693 5.83614 1.74693 7.01501V7.41967H1.24646H0.746019L0.634019 7.52229C0.491675 7.65273 0.458644 7.85054 0.554582 7.99779C0.651925 8.14711 2.89549 10.7058 2.92414 10.7001C2.95802 10.6934 5.20505 8.12004 5.28374 7.99779C5.3788 7.85014 5.34546 7.65232 5.20358 7.52229L5.09158 7.41967H4.50858H3.92555L3.94408 6.92748C3.98905 5.73151 4.42533 4.73636 5.27658 3.88808C6.14139 3.02626 7.13061 2.59586 8.34068 2.55486C8.77768 2.54004 8.91505 2.54742 9.24158 2.60326C10.0555 2.74248 10.7519 3.05751 11.3851 3.57289L11.6329 3.77461L11.7394 3.65183C11.7979 3.58429 12.1188 3.20939 12.4525 2.81873L13.0591 2.10842L12.8327 1.91861C12.2848 1.4593 11.4162 0.960514 10.7755 0.737264C10.3784 0.59892 9.7803 0.458046 9.36252 0.404483C8.90174 0.345358 8.03677 0.347889 7.57633 0.409702ZM12.9028 5.45129C12.2595 6.19017 11.7135 6.83198 11.6896 6.87754C11.6184 7.01351 11.6612 7.19873 11.7914 7.31807L11.9023 7.41967H12.4828H13.0633L13.0436 7.56811C12.8912 8.71611 12.4867 9.55748 11.7171 10.3275C11.011 11.034 10.2198 11.443 9.2313 11.6127C8.91749 11.6665 8.77471 11.6742 8.3563 11.6596C7.43818 11.6278 6.69574 11.393 5.96852 10.9047C5.71496 10.7344 5.70377 10.7302 5.64949 10.7849C5.61855 10.816 5.29861 11.1861 4.93855 11.6072C4.33018 12.3187 4.28736 12.3767 4.33299 12.4277C4.41646 12.5212 5.05949 12.9395 5.37193 13.1037C7.24439 14.0875 9.57058 14.1127 11.4813 13.1699C12.2021 12.8142 12.7611 12.4041 13.3413 11.8054C14.2004 10.9189 14.744 9.95401 15.0419 8.78707C15.1385 8.40848 15.2469 7.73367 15.2469 7.51054V7.41967H15.7474H16.2478L16.3598 7.31704C16.5018 7.18689 16.5351 6.98907 16.4398 6.84154C16.3962 6.77411 14.2877 4.33736 14.0943 4.13098C14.0824 4.11829 13.5462 4.71242 12.9028 5.45129Z" fill="#E0E0E7"/>
</svg>
