<svg width="98" height="97" viewBox="0 0 98 97" fill="none" xmlns="http://www.w3.org/2000/svg">
<path opacity="0.5" d="M32.3907 17.7236C32.3907 17.7236 2.05853 44.3089 0.533684 67.0131C-0.986013 89.7173 28.1922 89.3462 43.3531 83.1869C58.5191 77.0277 32.3907 17.7236 32.3907 17.7236Z" fill="url(#paint0_linear_12303_95385)"/>
<path opacity="0.5" d="M24.6941 46.6797C24.6941 46.6797 6.2259 62.2196 6.74105 72.5743C7.2562 82.9291 15.6686 82.558 15.715 85.5783C15.7562 88.5987 23.2104 99.2781 43.358 96.2114C68.2862 92.4179 68.8426 76.4142 69.131 65.3688C69.4195 54.3233 24.6941 46.6797 24.6941 46.6797Z" fill="url(#paint1_linear_12303_95385)"/>
<path d="M79.3945 8.50254C79.3945 8.50254 81.3367 1.13206 89.5791 1.46192C89.5791 1.46192 88.8012 8.76025 80.3424 8.7654L79.3945 8.50254Z" fill="url(#paint2_radial_12303_95385)"/>
<path d="M89.5791 1.46191L79.3945 8.50253L80.6567 8.518C80.6567 8.518 87.8173 8.55408 89.5791 1.46191Z" fill="#BDE0FF"/>
<path d="M57.9483 33.0522C53.0647 31.3668 25.4989 46.8294 25.4989 46.8294C25.4062 46.8088 25.3135 46.7933 25.2105 46.7778C25.0405 46.7418 24.8653 46.7108 24.6953 46.6799L38.4859 68.4512L51.0608 72.7962L74.2889 64.4979C74.2889 64.4979 73.5059 64.4412 73.2689 63.8433C73.2741 63.8485 62.3168 34.5573 57.9483 33.0522Z" fill="url(#paint3_linear_12303_95385)"/>
<path d="M30.0991 41.732L32.3915 17.7238C32.546 16.1002 34.0091 14.9251 35.6266 15.1209L61.1472 18.2444C62.7339 18.4402 63.8621 19.8834 63.6715 21.4709L60.7815 45.1028C60.5909 46.68 59.1639 47.8036 57.5875 47.6335L32.6697 44.8864C31.0933 44.7163 29.9497 43.3092 30.0991 41.732Z" fill="url(#paint4_linear_12303_95385)"/>
<path d="M61.6815 22.0487L58.9821 44.1086C58.8585 45.1394 57.9209 45.8765 56.8906 45.7631L33.7036 43.2066C32.6733 43.0932 31.9264 42.1758 32.0242 41.1449L32.5033 36.1351L34.1673 18.7345C34.2703 17.6728 35.2285 16.9048 36.2845 17.0336L60.033 19.9406C61.0685 20.0643 61.8103 21.0075 61.6815 22.0487Z" fill="url(#paint5_linear_12303_95385)"/>
<path d="M59.2603 41.8401L58.9821 44.1131C58.8585 45.144 57.9209 45.881 56.8906 45.7676L33.7036 43.2112C32.6733 43.0978 31.9264 42.1803 32.0242 41.1495L32.5033 36.1396C32.5033 36.1396 34.6876 33.5883 36.8564 31.2844V31.2792C38.6388 29.367 40.4109 27.6249 40.9209 27.6094C41.3073 27.5991 42.2036 28.831 43.203 30.4494L43.2082 30.4546C45.1039 33.5213 47.3912 37.959 47.3912 37.959C47.3912 37.959 47.9218 37.2993 48.6482 36.4643L48.6533 36.4592C49.9361 34.9851 51.8112 32.9646 52.4706 32.9904C52.9703 33.011 54.7785 35.3923 56.5094 37.8405H56.5145C57.5603 39.3094 58.5803 40.8248 59.2603 41.8401Z" fill="url(#paint6_linear_12303_95385)"/>
<path d="M54.1463 28.4909C53.9711 29.9392 52.6523 30.97 51.2048 30.7896C49.7572 30.6144 48.7269 29.2949 48.9072 27.8466C49.0824 26.3983 50.4011 25.3674 51.8487 25.5478C53.2963 25.7282 54.3266 27.0477 54.1463 28.4909Z" fill="white"/>
<path d="M35.5078 43.3551C35.5078 43.3551 45.4142 32.6396 46.6711 32.6602C47.9281 32.6756 53.8575 45.4426 53.8575 45.4426L35.5078 43.3551Z" fill="url(#paint7_linear_12303_95385)"/>
<path d="M53.5898 19.1465L61.1162 26.6871L61.9662 19.7238L53.5898 19.1465Z" fill="url(#paint8_linear_12303_95385)"/>
<path d="M33.4091 50.1442C33.4091 50.1442 24.9916 43.9231 26.5473 31.084C26.5473 31.084 36.33 33.7951 37.2213 49.4071C37.2213 49.4071 36.1961 51.2884 35.7634 51.51C35.4337 51.6698 33.4091 50.1442 33.4091 50.1442Z" fill="url(#paint9_linear_12303_95385)"/>
<path d="M27.0297 31.9453L35.4781 50.9694L33.1084 49.3974C33.1084 49.4025 25.1494 42.0887 27.0297 31.9453Z" fill="#BDE0FF"/>
<path d="M28.8989 63.7093L37.2908 37.1395C37.8574 35.3407 39.7944 34.3665 41.5717 34.985L69.6474 44.6904C71.3938 45.2934 72.321 47.2004 71.7183 48.9477L62.7392 74.9454C62.1417 76.6772 60.2614 77.605 58.5201 77.0277L31.0317 67.8945C29.2956 67.3224 28.3477 65.4566 28.8989 63.7093Z" fill="url(#paint10_linear_12303_95385)"/>
<path d="M69.3343 49.1069L60.9528 73.3779C60.5613 74.5119 59.3301 75.12 58.1916 74.7386L32.6143 66.2394C31.481 65.8631 30.8576 64.6416 31.2131 63.5025L32.9646 57.9566L39.0486 38.7006C39.4195 37.5254 40.6867 36.8863 41.851 37.2883L67.9795 46.3185C69.1231 46.7153 69.731 47.9626 69.3343 49.1069Z" fill="url(#paint11_linear_12303_95385)"/>
<path d="M61.817 70.8843L60.9567 73.3841C60.5652 74.518 59.334 75.1262 58.1955 74.7448L32.6182 66.2456C31.4849 65.8693 30.8616 64.6478 31.217 63.5087L32.9685 57.9628C32.9685 57.9628 36.0543 55.6125 39.0576 53.5302V53.525C41.5355 51.7984 43.9567 50.2573 44.5337 50.3604C44.9716 50.4428 45.6825 52.0509 46.4243 54.1229V54.1332C47.8255 58.0556 49.3349 63.6221 49.3349 63.6221C49.3349 63.6221 50.0922 63.0036 51.1173 62.2356L51.1225 62.2304C52.9255 60.8749 55.5373 59.0452 56.2688 59.2307C56.8303 59.375 58.2985 62.5036 59.6585 65.6838H59.6637C60.5034 67.6166 61.2916 69.57 61.817 70.8843Z" fill="url(#paint12_linear_12303_95385)"/>
<path d="M59.415 53.8523C59.569 52.1742 58.3341 50.689 56.6569 50.535C54.9796 50.381 53.4952 51.6165 53.3412 53.2945C53.1873 54.9726 54.4222 56.4579 56.0994 56.6119C57.7766 56.7659 59.2611 55.5304 59.415 53.8523Z" fill="white"/>
<path d="M34.6133 66.8527C34.6133 66.8527 48.3936 57.1422 49.8102 57.467C51.2269 57.7917 54.8381 73.6459 54.8381 73.6459L34.6133 66.8527Z" fill="url(#paint13_linear_12303_95385)"/>
<path d="M60.8945 43.876L67.5709 54.2153L70.2136 46.551L60.8945 43.876Z" fill="url(#paint14_linear_12303_95385)"/>
<path d="M74.2879 64.5029C74.2879 64.5029 68.4976 79.7129 62.8206 89.1347C62.8206 89.1347 39.2679 82.4807 18.4609 74.4814C18.4609 74.4814 20.0167 59.0394 24.6891 46.6797L38.4797 68.451L51.0546 72.7959L74.2879 64.5029Z" fill="url(#paint15_linear_12303_95385)"/>
<path d="M24.6953 46.6797L25.4989 46.8292L38.7641 67.6418L51.1999 71.9455L73.2741 63.8483L74.2889 64.5029L51.0608 72.8011L38.4859 68.451L24.6953 46.6797Z" fill="#FF69CF"/>
<path opacity="0.5" d="M19.4922 74.229L38.4858 68.4512L51.0607 72.7961L62.8267 89.1298C62.8267 89.1349 26.0964 77.4452 19.4922 74.229Z" fill="url(#paint16_linear_12303_95385)"/>
<path d="M38.764 67.6416L38.1201 67.8735L19.4922 74.2287L38.4858 68.4508L38.764 67.6416Z" fill="#A90C77"/>
<path d="M51.1977 71.9453L51.7025 72.569L62.8247 89.1345L51.0586 72.8009L51.1977 71.9453Z" fill="#A90C77"/>
<path opacity="0.5" d="M28.6803 71.4355C28.6803 71.4355 22.8694 74.1209 22.617 76.0537L18.4648 74.4868L28.6803 71.4355Z" fill="url(#paint17_linear_12303_95385)"/>
<path opacity="0.5" d="M56.5469 80.4141C56.5469 80.4141 59.6275 85.2435 59.169 88.0732L62.8317 89.1349L56.5469 80.4141Z" fill="url(#paint18_linear_12303_95385)"/>
<path d="M92.9004 32.7695L91.731 35.1714C91.731 35.1714 81.0622 39.939 73.7161 45.8766L67.8125 38.7123L67.457 35.2745L92.9004 32.7695Z" fill="url(#paint19_radial_12303_95385)"/>
<path d="M67.4609 35.279C67.4609 35.279 76.6873 26.7952 85.4294 22.6357L92.8991 32.7689C92.8991 32.7689 80.7209 37.7633 73.8952 43.0721L67.4609 35.279Z" fill="url(#paint20_radial_12303_95385)"/>
<path d="M77.9239 35.6964C78.0476 35.8768 78.1351 36.0469 78.1918 36.2067C78.2485 36.3665 78.2794 36.5159 78.2845 36.6551C78.2897 36.7943 78.2794 36.9179 78.2485 37.0313C78.2176 37.1447 78.1763 37.2478 78.1197 37.3354C78.0682 37.4231 78.0115 37.5004 77.9497 37.5674C77.8879 37.6292 77.8312 37.6808 77.7797 37.7168C77.7539 37.7375 77.7127 37.7581 77.6663 37.789C77.6148 37.8199 77.5582 37.8457 77.486 37.8766C77.4191 37.9076 77.3366 37.9385 77.2491 37.9642C77.1615 37.9952 77.0636 38.0158 76.9554 38.0364L76.4042 37.155C76.6154 37.1757 76.7854 37.1705 76.9194 37.1344C77.0533 37.0983 77.1512 37.0571 77.2233 37.0107C77.3624 36.9128 77.4345 36.7891 77.4345 36.6396C77.4345 36.4902 77.3779 36.3304 77.2697 36.1706C77.1924 36.0624 77.0842 35.9593 76.94 35.8613C76.7957 35.7634 76.6 35.6809 76.3579 35.6191C76.1879 35.5727 76.0179 35.5263 75.8376 35.4799C75.6573 35.4284 75.4821 35.3665 75.307 35.2892C75.1318 35.2119 74.9669 35.114 74.8124 34.9954C74.6527 34.8769 74.5136 34.7274 74.39 34.5522C74.2354 34.3254 74.1324 34.1089 74.0809 33.8976C74.0294 33.6914 74.0191 33.4956 74.0448 33.3152C74.0757 33.1348 74.1376 32.9698 74.2354 32.8255C74.3333 32.6812 74.4569 32.5575 74.6012 32.4544C74.73 32.3668 74.8742 32.2895 75.0339 32.2328C75.1936 32.1761 75.3636 32.1349 75.5491 32.1143L76.0745 33.0162C75.9663 32.9802 75.8633 32.9647 75.7654 32.9647C75.6676 32.9647 75.5851 32.975 75.5079 32.9956C75.4306 33.0162 75.3688 33.0369 75.3121 33.0678C75.2554 33.0936 75.2142 33.1193 75.1782 33.1451C75.1112 33.1915 75.0648 33.2482 75.0288 33.3203C74.9979 33.3925 74.9773 33.4698 74.9773 33.5523C74.9773 33.6347 74.9927 33.7224 75.0185 33.8151C75.0494 33.9079 75.0906 33.9955 75.1472 34.078C75.2348 34.2069 75.343 34.3048 75.4718 34.3718C75.6006 34.4388 75.7397 34.4955 75.8942 34.5367C76.0488 34.5831 76.2085 34.6243 76.3785 34.6656C76.5485 34.7068 76.7236 34.7687 76.8988 34.8408C77.0739 34.9181 77.2491 35.0264 77.4242 35.1604C77.6045 35.2892 77.7694 35.4696 77.9239 35.6964Z" fill="white"/>
<path d="M80.5322 35.717C80.4137 35.5675 80.2952 35.4181 80.1767 35.2686C80.0582 35.1191 79.9346 34.9645 79.8109 34.815C79.7079 34.8769 79.6049 34.9387 79.507 34.9954C79.4091 35.0521 79.3112 35.114 79.2185 35.181L79.1722 35.2119C79.2752 35.382 79.3731 35.5521 79.4709 35.717C79.5688 35.8819 79.6719 36.0469 79.7749 36.2067L78.9146 36.7788C78.4973 35.8716 78.0697 34.98 77.6319 34.0986C77.194 33.2172 76.7303 32.341 76.2461 31.4648L77.2815 30.7793C77.9255 31.5267 78.5797 32.2586 79.2494 32.975C79.9191 33.6914 80.6146 34.3975 81.3358 35.0934L80.5322 35.717ZM77.3588 31.9545C77.6009 32.4029 77.8431 32.8461 78.0903 33.2894C78.3325 33.7327 78.5849 34.1759 78.8425 34.6192C78.894 34.5934 78.9455 34.5573 78.9919 34.5264C79.0434 34.4903 79.0949 34.4594 79.1464 34.4233L79.3679 34.2738C79.0382 33.8821 78.7085 33.4904 78.3737 33.109C78.0388 32.7224 77.6988 32.341 77.3588 31.9545Z" fill="white"/>
<path d="M83.3522 33.7376C83.2234 33.8201 83.0946 33.9025 82.9761 33.9799C82.8576 34.0572 82.7391 34.1396 82.6206 34.2221C82.4455 34.3458 82.2703 34.4644 82.1055 34.5932C81.9355 34.7169 81.7655 34.8458 81.5903 34.9849C81.3225 34.5468 81.0494 34.119 80.7764 33.7015C80.5034 33.2789 80.2252 32.8562 79.9315 32.4336C79.6534 32.0316 79.3752 31.6347 79.0918 31.243C78.8085 30.8513 78.5149 30.4647 78.2109 30.0781C78.2367 30.0627 78.2624 30.0472 78.2934 30.0266C78.3191 30.0111 78.35 29.9905 78.3861 29.9647C78.4221 29.939 78.4634 29.9132 78.5097 29.8823C78.5818 29.8307 78.6591 29.774 78.7415 29.7122C78.824 29.6503 78.9064 29.5885 78.9888 29.5215C79.1846 29.8668 79.4009 30.2276 79.6328 30.5936C79.8697 30.9595 80.1118 31.3306 80.3591 31.7017C80.6115 32.0728 80.8588 32.4388 81.1112 32.8099C81.3637 33.1758 81.6006 33.5314 81.8273 33.8768C82.0076 33.7428 82.1828 33.6088 82.3476 33.4747C82.5125 33.3407 82.6876 33.1913 82.8628 33.0263L83.3522 33.7376Z" fill="white"/>
<path d="M83.7544 30.7794C83.6823 30.8206 83.6051 30.867 83.5329 30.9186C83.4608 30.965 83.3835 31.0165 83.3114 31.0629C83.2702 31.0887 83.229 31.1196 83.1878 31.1557C83.1466 31.1866 83.1002 31.2175 83.059 31.2484L83.8781 32.47C84.0584 32.336 84.2335 32.202 84.3984 32.068C84.5632 31.9339 84.7384 31.7845 84.9135 31.6195L85.4029 32.3308C85.2741 32.4133 85.1505 32.4958 85.0269 32.5731C84.9084 32.6504 84.7899 32.7328 84.6714 32.8153C84.4963 32.939 84.3211 33.0576 84.1563 33.1864C83.9863 33.3101 83.8163 33.439 83.6411 33.5781C83.3732 33.14 83.1002 32.7122 82.8272 32.2947C82.5541 31.8721 82.276 31.4495 81.9823 31.0268C81.7041 30.6248 81.426 30.2279 81.1426 29.8362C80.8593 29.4445 80.5657 29.0579 80.2617 28.6714C80.5451 28.5064 80.8026 28.3415 81.0448 28.1766C81.1993 28.0683 81.3487 27.9601 81.4981 27.8467C81.6475 27.7333 81.802 27.6096 81.9669 27.4756L82.5026 28.259C82.3429 28.3312 82.1935 28.4085 82.0493 28.491C81.9051 28.5734 81.7608 28.661 81.6269 28.7538L81.4929 28.8466C81.6629 29.1455 81.8432 29.4393 82.0287 29.7228C82.2141 30.0063 82.3996 30.2949 82.5902 30.5836C82.652 30.5475 82.7138 30.5062 82.7705 30.465C82.8323 30.4238 82.8941 30.3825 82.956 30.3362C83.0075 30.3001 83.059 30.264 83.1157 30.2279C83.1723 30.1918 83.2238 30.1506 83.2754 30.1094L83.7544 30.7794Z" fill="white"/>
<path d="M73.7227 45.8805L73.903 43.0766C73.903 43.0766 84.412 35.1804 92.9069 32.7734L91.7375 35.1753C91.7324 35.1701 81.5221 39.6027 73.7227 45.8805Z" fill="#6E4298"/>
<path d="M69.2649 0.400391C67.4155 5.16801 66.4522 8.19352 65.7773 13.0436L78.3367 17.3834C80.6807 13.6054 82.051 10.4614 83.4058 5.28656C78.3728 3.0548 74.9882 1.85903 69.2649 0.400391Z" fill="url(#paint21_linear_12303_95385)"/>
<path d="M65.7812 13.043L66.8373 14.1717L77.367 17.8106L78.3355 17.3828L65.7812 13.043Z" fill="url(#paint22_linear_12303_95385)"/>
<path d="M76.8997 6.63703C76.5855 6.95659 76.2403 7.31222 75.8591 7.71425C75.4831 8.11628 75.0812 8.55438 74.6537 9.02857C74.2261 9.50275 73.7831 10.013 73.3194 10.5542C72.8558 11.0954 72.3767 11.6675 71.8822 12.2654C71.774 12.1984 71.6658 12.1314 71.5628 12.0695C71.4752 12.018 71.3773 11.9665 71.2743 11.9098C71.1712 11.8582 71.0785 11.817 70.9961 11.7964C71.2743 11.5387 71.5679 11.25 71.8822 10.9305C72.1964 10.6109 72.5158 10.281 72.8403 9.93571C73.1649 9.59037 73.4843 9.24504 73.7985 8.8894C74.1128 8.53377 74.4116 8.19359 74.6949 7.86372C74.9782 7.53385 75.2306 7.2246 75.4625 6.93597C75.6943 6.64734 75.8849 6.39478 76.0394 6.1783L76.8997 6.63703ZM74.5558 7.29161C74.4476 7.60086 74.324 7.85857 74.1849 8.06474C74.0458 8.26575 73.8964 8.42553 73.7367 8.53377C73.577 8.64716 73.4173 8.70901 73.2473 8.72963C73.0773 8.75024 72.9125 8.73478 72.7528 8.67808C72.5931 8.62139 72.4488 8.53377 72.3303 8.41522C72.2067 8.29667 72.1191 8.14205 72.0625 7.96165C72.0058 7.78126 71.9852 7.56478 72.0006 7.31223C72.0161 7.06482 72.0779 6.78134 72.1861 6.46694C72.2994 6.13707 72.4282 5.86905 72.5673 5.66289C72.7064 5.45672 72.8558 5.30209 73.0155 5.19901C73.17 5.09592 73.3349 5.03923 73.4997 5.02892C73.6697 5.01861 73.8294 5.03923 73.9943 5.09593C74.154 5.15262 74.2982 5.24024 74.4167 5.35364C74.5403 5.47218 74.6279 5.62165 74.6846 5.80205C74.7412 5.98245 74.7619 6.19892 74.7516 6.44632C74.7309 6.69372 74.6691 6.9772 74.5558 7.29161ZM73.7573 7.01328C73.9119 6.57002 73.984 6.235 73.9788 6.00821C73.9737 5.78658 73.917 5.65258 73.8088 5.6165C73.7522 5.59588 73.6903 5.60104 73.6285 5.62681C73.5667 5.65258 73.4997 5.70927 73.4328 5.79689C73.3658 5.88451 73.2937 6.00822 73.2164 6.16284C73.1391 6.31747 73.0619 6.51333 72.9846 6.74526C72.83 7.19368 72.7579 7.5287 72.7631 7.75549C72.7682 7.98742 72.8249 8.12143 72.9382 8.15751C73.0516 8.19874 73.1752 8.12659 73.3194 7.94619C73.4585 7.76579 73.6028 7.45654 73.7573 7.01328ZM75.7561 12.0541C75.6479 12.3633 75.5243 12.621 75.38 12.8272C75.2409 13.0334 75.0864 13.188 74.9319 13.2962C74.7722 13.4045 74.6125 13.4663 74.4425 13.4869C74.2725 13.5076 74.1076 13.4869 73.9479 13.4302C73.7882 13.3735 73.644 13.2859 73.5255 13.1674C73.4019 13.0488 73.3143 12.8994 73.2576 12.7138C73.2009 12.5334 73.1803 12.3169 73.1958 12.0695C73.2112 11.8221 73.2731 11.5387 73.3812 11.2243C73.4946 10.8995 73.6234 10.6315 73.7625 10.4254C73.9016 10.2192 74.0509 10.0646 74.2106 9.96148C74.3652 9.85839 74.53 9.8017 74.6949 9.78623C74.8597 9.77593 75.0246 9.79654 75.1894 9.84808C75.3491 9.90478 75.4934 9.9924 75.617 10.1109C75.7406 10.2295 75.8282 10.379 75.89 10.5594C75.9467 10.7398 75.9673 10.9562 75.957 11.2036C75.9261 11.4562 75.8643 11.7397 75.7561 12.0541ZM74.9525 11.7757C75.107 11.3325 75.1791 11.0026 75.174 10.7758C75.1688 10.5491 75.1122 10.4202 74.9988 10.379C74.9422 10.3583 74.8803 10.3635 74.8185 10.3893C74.7567 10.415 74.6897 10.4769 74.6228 10.5645C74.5558 10.6521 74.4837 10.7707 74.4064 10.9253C74.3343 11.0799 74.257 11.2706 74.1746 11.5077C74.02 11.9561 73.9428 12.2963 73.9531 12.5231C73.9582 12.7499 74.02 12.8787 74.1282 12.92C74.2415 12.9612 74.3652 12.8891 74.5094 12.7138C74.6485 12.5334 74.7979 12.219 74.9525 11.7757Z" fill="white"/>
<path d="M27.6016 7.45599C28.1013 12.5483 28.6061 15.6821 30.1928 20.3105L43.3549 18.5169C43.7413 14.0843 43.5507 10.6619 42.4225 5.43555C36.9207 5.71387 33.3661 6.17259 27.6016 7.45599Z" fill="url(#paint23_linear_12303_95385)"/>
<path d="M30.1914 20.3112L31.6441 20.837L42.6787 19.3319L43.3535 18.5176L30.1914 20.3112Z" fill="url(#paint24_linear_12303_95385)"/>
<path d="M35.437 11.2287C35.4834 11.5534 35.4885 11.842 35.4525 12.0843C35.4164 12.3265 35.3546 12.5378 35.2619 12.7079C35.1691 12.878 35.0558 13.012 34.9116 13.1048C34.7725 13.2027 34.6179 13.2594 34.4479 13.2801C34.2779 13.3007 34.1131 13.2904 33.9482 13.2388C33.7834 13.1873 33.6391 13.0945 33.5052 12.9553C33.3713 12.8162 33.2579 12.6358 33.1549 12.4038C33.057 12.1771 32.9849 11.8936 32.9385 11.5637C32.8922 11.2184 32.887 10.9194 32.9179 10.672C32.954 10.4246 33.0158 10.2185 33.1085 10.0587C33.2013 9.89375 33.3197 9.77005 33.464 9.68758C33.6082 9.60512 33.7628 9.54842 33.9328 9.52265C34.1028 9.50203 34.2676 9.51234 34.4273 9.56388C34.587 9.61543 34.7364 9.7082 34.8703 9.84221C35.0043 9.97622 35.1176 10.1618 35.2206 10.3834C35.3237 10.6205 35.3958 10.8988 35.437 11.2287ZM34.6025 11.3421C34.5406 10.873 34.4531 10.5432 34.3449 10.3473C34.2367 10.1515 34.1285 10.0587 34.0152 10.0741C33.9534 10.0845 33.9019 10.1154 33.8606 10.1618C33.8143 10.2133 33.7834 10.2958 33.7628 10.404C33.7422 10.5123 33.7319 10.6566 33.7319 10.8267C33.737 10.9967 33.7525 11.2081 33.7885 11.4555C33.8503 11.9245 33.9379 12.2595 34.0461 12.4605C34.1543 12.6615 34.2676 12.7543 34.381 12.7389C34.4994 12.7234 34.5819 12.6049 34.6282 12.3781C34.6694 12.1513 34.6643 11.806 34.6025 11.3421ZM37.2349 9.5845C37.0958 10.0071 36.9464 10.4865 36.7919 11.0122C36.6373 11.5379 36.4776 12.1101 36.3076 12.7286C36.1428 13.3419 35.9728 13.9965 35.8028 14.6923C35.6328 15.3881 35.4628 16.1097 35.2928 16.8674C35.164 16.8571 35.0403 16.8467 34.9219 16.8364C34.8188 16.8313 34.7106 16.8261 34.5922 16.8261C34.4788 16.8261 34.3758 16.8313 34.2934 16.8467C34.4273 16.4911 34.5613 16.1045 34.6952 15.6767C34.8343 15.249 34.9682 14.8108 35.1022 14.3573C35.2361 13.9037 35.3649 13.4501 35.4834 12.9914C35.607 12.5327 35.7203 12.0946 35.8182 11.6719C35.9213 11.2493 36.0088 10.8576 36.0861 10.4968C36.1634 10.136 36.22 9.82159 36.2561 9.55873L37.2349 9.5845ZM38.6567 14.9345C38.7031 15.2593 38.7082 15.5479 38.6722 15.7953C38.6361 16.0427 38.5743 16.2489 38.4816 16.419C38.3888 16.589 38.2703 16.7179 38.1313 16.8107C37.987 16.9034 37.8325 16.9601 37.6625 16.9859C37.4925 17.0065 37.3276 16.9962 37.1628 16.9447C36.9979 16.8931 36.8537 16.8004 36.7197 16.6664C36.5858 16.5323 36.4725 16.3468 36.3694 16.12C36.2716 15.8932 36.1994 15.6097 36.1531 15.2799C36.1067 14.9397 36.1016 14.6459 36.1325 14.3985C36.1685 14.1511 36.2303 13.9449 36.3231 13.7852C36.4158 13.6254 36.5343 13.4965 36.6785 13.4089C36.8228 13.3213 36.9773 13.2646 37.1473 13.244C37.3173 13.2234 37.4822 13.2337 37.647 13.2852C37.8119 13.3367 37.9561 13.4295 38.09 13.5635C38.224 13.6975 38.3373 13.8779 38.4352 14.1047C38.5382 14.3264 38.6103 14.6047 38.6567 14.9345ZM37.8119 15.0531C37.75 14.5892 37.6625 14.2593 37.5594 14.0583C37.4564 13.8625 37.3431 13.7697 37.2246 13.7852C37.1628 13.7955 37.1113 13.8264 37.07 13.8779C37.0237 13.9295 36.9928 14.0119 36.9722 14.1202C36.9516 14.2284 36.9413 14.3676 36.9413 14.5377C36.9464 14.7078 36.9619 14.9139 36.9979 15.1613C37.0597 15.6355 37.1473 15.9654 37.2555 16.1664C37.3637 16.3674 37.4719 16.455 37.5903 16.4396C37.7088 16.4241 37.7913 16.3056 37.8376 16.0839C37.884 15.8623 37.8737 15.517 37.8119 15.0531Z" fill="white"/>
<path d="M73.5586 52.8032C73.5586 52.8032 78.6174 44.5461 88.5289 47.9634C88.5289 47.9634 84.9125 56.5606 74.6198 53.468L73.5586 52.8032Z" fill="url(#paint25_radial_12303_95385)"/>
<path d="M88.525 47.9629L73.5547 52.8027L75.0847 53.282C75.0847 53.282 83.7856 55.9519 88.525 47.9629Z" fill="#BDE0FF"/>
<path d="M72.9453 60.2921L76.5823 57.0811L77.3808 58.5397L74.259 60.7457L72.9453 60.2921Z" fill="#9A7DF8"/>
<path d="M29.5579 28.1454L30.7067 26.8001L28.5224 23.7334L26.4258 24.4034L29.5579 28.1454Z" fill="#4F31E0"/>
<path d="M65.4883 25.4136L68.4195 24.4395L69.1304 25.7383L65.514 26.2073L65.4883 25.4136Z" fill="#FF1D9C"/>
<path d="M89.9691 16.0799L97.0731 14.915L96.8413 17.6519H89.8867L89.9691 16.0799Z" fill="#6877FF"/>
<path opacity="0.5" d="M31.875 23.1297L40.5656 21.8514L40.6429 19.6094L32.1017 20.7742L31.875 23.1297Z" fill="#B975B6"/>
<defs>
<linearGradient id="paint0_linear_12303_95385" x1="0.479696" y1="52.255" x2="48.0875" y2="52.255" gradientUnits="userSpaceOnUse">
<stop offset="0.1349" stop-color="white" stop-opacity="0.3"/>
<stop offset="1" stop-color="#BF7CFF"/>
</linearGradient>
<linearGradient id="paint1_linear_12303_95385" x1="10.2504" y1="82.9691" x2="66.314" y2="58.0209" gradientUnits="userSpaceOnUse">
<stop offset="0.1349" stop-color="white" stop-opacity="0.5"/>
<stop offset="1" stop-color="#F468A9"/>
</linearGradient>
<radialGradient id="paint2_radial_12303_95385" cx="0" cy="0" r="1" gradientUnits="userSpaceOnUse" gradientTransform="translate(85.6217 1.39536) rotate(12.6806) scale(6.42301 6.42601)">
<stop stop-color="#3996F7"/>
<stop offset="1" stop-color="#6840D5"/>
</radialGradient>
<linearGradient id="paint3_linear_12303_95385" x1="44.3526" y1="70.4808" x2="57.3595" y2="32.8462" gradientUnits="userSpaceOnUse">
<stop stop-color="#BA0065"/>
<stop offset="1" stop-color="#63004A"/>
</linearGradient>
<linearGradient id="paint4_linear_12303_95385" x1="44.756" y1="46.3703" x2="48.3912" y2="16.6873" gradientUnits="userSpaceOnUse">
<stop stop-color="#D1BBFF"/>
<stop offset="1" stop-color="#DACFFF"/>
</linearGradient>
<linearGradient id="paint5_linear_12303_95385" x1="44.9645" y1="44.5828" x2="48.1612" y2="18.4808" gradientUnits="userSpaceOnUse">
<stop stop-color="#D1BBFF"/>
<stop offset="1" stop-color="white"/>
</linearGradient>
<linearGradient id="paint6_linear_12303_95385" x1="45.1946" y1="44.6104" x2="47.1846" y2="28.3616" gradientUnits="userSpaceOnUse">
<stop stop-color="#E1BDFF"/>
<stop offset="1" stop-color="#B17FFF"/>
</linearGradient>
<linearGradient id="paint7_linear_12303_95385" x1="44.6712" y1="44.4801" x2="46.127" y2="32.5932" gradientUnits="userSpaceOnUse">
<stop stop-color="#CF95FF"/>
<stop offset="1" stop-color="#9552FF"/>
</linearGradient>
<linearGradient id="paint8_linear_12303_95385" x1="56.9548" y1="26.1769" x2="57.8078" y2="19.2122" gradientUnits="userSpaceOnUse">
<stop stop-color="#D1BBFF"/>
<stop offset="1" stop-color="#DACFFF"/>
</linearGradient>
<linearGradient id="paint9_linear_12303_95385" x1="30.2903" y1="50.7" x2="33.1238" y2="32.0848" gradientUnits="userSpaceOnUse">
<stop stop-color="#1C257B"/>
<stop offset="1" stop-color="#6A2C9A"/>
</linearGradient>
<linearGradient id="paint10_linear_12303_95385" x1="44.3327" y1="72.4938" x2="55.6178" y2="39.8412" gradientUnits="userSpaceOnUse">
<stop stop-color="#D1BBFF"/>
<stop offset="1" stop-color="#DACFFF"/>
</linearGradient>
<linearGradient id="paint11_linear_12303_95385" x1="45.0032" y1="70.5241" x2="54.9268" y2="41.8106" gradientUnits="userSpaceOnUse">
<stop stop-color="#744FD8"/>
<stop offset="1" stop-color="#3996F7"/>
</linearGradient>
<linearGradient id="paint12_linear_12303_95385" x1="45.255" y1="70.6125" x2="51.4325" y2="52.738" gradientUnits="userSpaceOnUse">
<stop stop-color="#CC8BA1"/>
<stop offset="1" stop-color="#C4C9FF"/>
</linearGradient>
<linearGradient id="paint13_linear_12303_95385" x1="44.6952" y1="70.3378" x2="49.2144" y2="57.2616" gradientUnits="userSpaceOnUse">
<stop stop-color="#1C257B"/>
<stop offset="1" stop-color="#6A2C9A"/>
</linearGradient>
<linearGradient id="paint14_linear_12303_95385" x1="62.9929" y1="52.631" x2="65.6408" y2="44.9695" gradientUnits="userSpaceOnUse">
<stop stop-color="#D1BBFF"/>
<stop offset="1" stop-color="#DACFFF"/>
</linearGradient>
<linearGradient id="paint15_linear_12303_95385" x1="40.27" y1="82.2585" x2="49.5925" y2="55.2843" gradientUnits="userSpaceOnUse">
<stop stop-color="#B31A8F"/>
<stop offset="0.00896716" stop-color="#B51A8F"/>
<stop offset="0.1486" stop-color="#D01789"/>
<stop offset="0.3008" stop-color="#E41484"/>
<stop offset="0.4721" stop-color="#F31281"/>
<stop offset="0.6764" stop-color="#FB117F"/>
<stop offset="1" stop-color="#FE117E"/>
</linearGradient>
<linearGradient id="paint16_linear_12303_95385" x1="41.0259" y1="82.0674" x2="44.9581" y2="70.6896" gradientUnits="userSpaceOnUse">
<stop/>
<stop offset="1" stop-color="#C14547"/>
</linearGradient>
<linearGradient id="paint17_linear_12303_95385" x1="22.5174" y1="76.0147" x2="24.5896" y2="70.019" gradientUnits="userSpaceOnUse">
<stop stop-color="#CC8BA1"/>
<stop offset="1" stop-color="white"/>
</linearGradient>
<linearGradient id="paint18_linear_12303_95385" x1="58.6123" y1="87.8812" x2="60.6974" y2="81.848" gradientUnits="userSpaceOnUse">
<stop stop-color="#CC8BA1"/>
<stop offset="1" stop-color="white"/>
</linearGradient>
<radialGradient id="paint19_radial_12303_95385" cx="0" cy="0" r="1" gradientUnits="userSpaceOnUse" gradientTransform="translate(79.0776 38.2094) rotate(14.7745) scale(10.5026 10.5074)">
<stop stop-color="#A157FF"/>
<stop offset="1" stop-color="#63399A"/>
</radialGradient>
<radialGradient id="paint20_radial_12303_95385" cx="0" cy="0" r="1" gradientUnits="userSpaceOnUse" gradientTransform="translate(75.5444 26.1478) rotate(14.7745) scale(13.4251 13.4312)">
<stop stop-color="#FF81FF"/>
<stop offset="1" stop-color="#9552FF"/>
</radialGradient>
<linearGradient id="paint21_linear_12303_95385" x1="72.1124" y1="15.2336" x2="76.5054" y2="2.52276" gradientUnits="userSpaceOnUse">
<stop stop-color="#744FD8"/>
<stop offset="1" stop-color="#3996F7"/>
</linearGradient>
<linearGradient id="paint22_linear_12303_95385" x1="71.8249" y1="15.8933" x2="72.0595" y2="15.2146" gradientUnits="userSpaceOnUse">
<stop stop-color="#1C257B"/>
<stop offset="1" stop-color="#482C83"/>
</linearGradient>
<linearGradient id="paint23_linear_12303_95385" x1="36.8292" y1="19.4073" x2="35.0113" y2="6.08146" gradientUnits="userSpaceOnUse">
<stop stop-color="#B31A8F"/>
<stop offset="0.00896716" stop-color="#B51A8F"/>
<stop offset="0.1486" stop-color="#D01789"/>
<stop offset="0.3008" stop-color="#E41484"/>
<stop offset="0.4721" stop-color="#F31281"/>
<stop offset="0.6764" stop-color="#FB117F"/>
<stop offset="1" stop-color="#FE117E"/>
</linearGradient>
<linearGradient id="paint24_linear_12303_95385" x1="31.1659" y1="17.4898" x2="42.374" y2="21.3593" gradientUnits="userSpaceOnUse">
<stop stop-color="#BA0065"/>
<stop offset="1" stop-color="#63004A"/>
</linearGradient>
<radialGradient id="paint25_radial_12303_95385" cx="0" cy="0" r="1" gradientUnits="userSpaceOnUse" gradientTransform="translate(83.7337 46.4369) rotate(29.4257) scale(8.16131 8.1635)">
<stop stop-color="#3996F7"/>
<stop offset="1" stop-color="#6840D5"/>
</radialGradient>
</defs>
</svg>
