<svg width="190" height="92" viewBox="0 0 190 92" fill="none" xmlns="http://www.w3.org/2000/svg">
<rect x="21.2109" y="23.748" width="158.361" height="52.0328" rx="5" fill="#C6E3E0" fill-opacity="0.35"/>
<rect opacity="0.3" x="29.8281" y="31.9668" width="158.361" height="52.0328" rx="5" fill="#D9E6E6"/>
<g filter="url(#filter0_d_14233_96988)">
<path d="M20.3984 20.8C20.3984 18.149 22.534 16 25.1684 16H164.628C167.263 16 169.398 18.149 169.398 20.8V63.2C169.398 65.851 167.263 68 164.628 68H25.1684C22.534 68 20.3984 65.851 20.3984 63.2V20.8Z" fill="#F8F8FA"/>
</g>
<path d="M62.2969 54H169.297V63.3333C169.297 65.9107 167.168 68 164.541 68H62.2969V54Z" fill="#3CBCAC" fill-opacity="0.6"/>
<g clip-path="url(#clip0_14233_96988)">
<path d="M10.5 22C10.5 18.6863 13.1863 16 16.5 16H62.5V68H16.5C13.1863 68 10.5 65.3137 10.5 62V22Z" fill="#C6E3E0"/>
<g opacity="0.45" filter="url(#filter1_d_14233_96988)">
<path d="M43.9914 43.3221L36.5156 31.4404L40.3873 41.5144L43.9914 43.3221Z" fill="#54DECD"/>
<path d="M36.5149 31.4404L29.0391 43.3221L32.6427 41.5144L36.5149 31.4404Z" fill="#76FFEE"/>
<path d="M40.3873 45.1294L36.5156 55.2039L43.9914 43.3223L40.3873 45.1294Z" fill="#3CBCAC"/>
<path d="M29.0391 43.3223L36.5149 55.2039L32.6427 45.1294L29.0391 43.3223Z" fill="#3CBCAC"/>
<path d="M40.3828 45.1285L43.987 43.3214L40.3828 41.5137V45.1285Z" fill="#4CD3C2"/>
<path d="M40.3845 41.5144L36.5128 31.4404L32.6406 41.5144H40.3845Z" fill="#68F5E4"/>
<path d="M32.6406 45.1289L36.5128 55.2034L40.3845 45.1289H32.6406Z" fill="#4CD3C2"/>
<path d="M32.6427 41.5137L29.0391 43.3214L32.6427 45.1285V41.5137Z" fill="#72F7E6"/>
<path d="M40.3845 41.5137H32.6406V45.1285H40.3845V41.5137Z" fill="#54EAD7"/>
<ellipse cx="36.3996" cy="42.0679" rx="11.5714" ry="11.602" fill="#F8F8FA"/>
<path d="M36.4007 27.8877C33.6035 27.8877 30.8691 28.7194 28.5433 30.2775C26.2175 31.8356 24.4048 34.0503 23.3344 36.6414C22.2639 39.2325 21.9839 42.0837 22.5296 44.8344C23.0753 47.5851 24.4223 50.1118 26.4002 52.0949C28.3781 54.0781 30.8981 55.4286 33.6415 55.9758C36.385 56.5229 39.2286 56.2421 41.8129 55.1688C44.3972 54.0955 46.606 52.278 48.16 49.9461C49.7141 47.6142 50.5435 44.8726 50.5435 42.068C50.5435 40.2058 50.1777 38.3618 49.467 36.6414C48.7562 34.921 47.7145 33.3578 46.4012 32.041C45.0879 30.7242 43.5288 29.6797 41.8129 28.9671C40.097 28.2545 38.2579 27.8877 36.4007 27.8877ZM42.4821 38.6789L36.0188 47.187C35.8871 47.3586 35.7179 47.4977 35.5242 47.5936C35.3305 47.6894 35.1175 47.7395 34.9015 47.7401C34.6867 47.7412 34.4745 47.6933 34.2809 47.5999C34.0873 47.5066 33.9174 47.3702 33.7842 47.2012L30.3334 42.7912C30.2192 42.644 30.135 42.4758 30.0856 42.2961C30.0362 42.1163 30.0226 41.9286 30.0456 41.7436C30.0686 41.5586 30.1277 41.3799 30.2195 41.2178C30.3114 41.0557 30.4342 40.9133 30.5809 40.7988C30.8772 40.5675 31.253 40.4637 31.6257 40.5103C31.8102 40.5333 31.9884 40.5926 32.1501 40.6847C32.3117 40.7768 32.4537 40.8999 32.568 41.047L34.8732 43.9965L40.2192 36.9063C40.3325 36.7574 40.474 36.6322 40.6355 36.5381C40.797 36.4439 40.9755 36.3826 41.1607 36.3575C41.3458 36.3325 41.5341 36.3443 41.7147 36.3923C41.8954 36.4402 42.0648 36.5233 42.2134 36.6369C42.362 36.7505 42.4868 36.8923 42.5807 37.0543C42.6746 37.2162 42.7358 37.3952 42.7607 37.5808C42.7857 37.7665 42.7739 37.9553 42.7261 38.1364C42.6783 38.3175 42.5954 38.4874 42.4821 38.6363V38.6789Z" fill="#3CBCAC"/>
</g>
</g>
<path opacity="0.5" d="M68.5156 24.5024C68.5156 23.4612 69.2266 22.6172 70.1036 22.6172H149.501C150.378 22.6172 151.089 23.4612 151.089 24.5024V26.3877C151.089 27.4289 150.378 28.2729 149.501 28.2729H70.1036C69.2266 28.2729 68.5156 27.4289 68.5156 26.3877V24.5024Z" fill="#E0E0E7"/>
<path opacity="0.5" d="M68.5156 33.1742C68.5156 32.3413 69.2261 31.666 70.1026 31.666H120.093C120.969 31.666 121.68 32.3413 121.68 33.1742V34.6824C121.68 35.5154 120.969 36.1906 120.093 36.1906H70.1026C69.2261 36.1906 68.5156 35.5154 68.5156 34.6824V33.1742Z" fill="#E0E0E7"/>
<defs>
<filter id="filter0_d_14233_96988" x="0.398438" y="0" width="189" height="92" filterUnits="userSpaceOnUse" color-interpolation-filters="sRGB">
<feFlood flood-opacity="0" result="BackgroundImageFix"/>
<feColorMatrix in="SourceAlpha" type="matrix" values="0 0 0 0 0 0 0 0 0 0 0 0 0 0 0 0 0 0 127 0" result="hardAlpha"/>
<feOffset dy="4"/>
<feGaussianBlur stdDeviation="10"/>
<feComposite in2="hardAlpha" operator="out"/>
<feColorMatrix type="matrix" values="0 0 0 0 0 0 0 0 0 0 0 0 0 0 0 0 0 0 0.12 0"/>
<feBlend mode="normal" in2="BackgroundImageFix" result="effect1_dropShadow_14233_96988"/>
<feBlend mode="normal" in="SourceGraphic" in2="effect1_dropShadow_14233_96988" result="shape"/>
</filter>
<filter id="filter1_d_14233_96988" x="12.3984" y="18.0205" width="48" height="48.0957" filterUnits="userSpaceOnUse" color-interpolation-filters="sRGB">
<feFlood flood-opacity="0" result="BackgroundImageFix"/>
<feColorMatrix in="SourceAlpha" type="matrix" values="0 0 0 0 0 0 0 0 0 0 0 0 0 0 0 0 0 0 127 0" result="hardAlpha"/>
<feOffset/>
<feGaussianBlur stdDeviation="3"/>
<feComposite in2="hardAlpha" operator="out"/>
<feColorMatrix type="matrix" values="0 0 0 0 0.235294 0 0 0 0 0.737255 0 0 0 0 0.67451 0 0 0 0.8 0"/>
<feBlend mode="normal" in2="BackgroundImageFix" result="effect1_dropShadow_14233_96988"/>
<feBlend mode="normal" in="SourceGraphic" in2="effect1_dropShadow_14233_96988" result="shape"/>
</filter>
<clipPath id="clip0_14233_96988">
<rect width="51.4766" height="52" fill="white" transform="translate(10.8125 16)"/>
</clipPath>
</defs>
</svg>
