<svg width="18" height="18" viewBox="0 0 18 18" fill="none" xmlns="http://www.w3.org/2000/svg">
<path fill-rule="evenodd" clip-rule="evenodd" d="M0.321314 11.0056C0.264009 11.1565 0.27329 11.3351 0.347727 11.5143C0.396702 11.6323 0.548355 11.7984 1.22607 12.4761C2.2563 13.5063 2.25399 13.5051 2.80865 13.334C3.34265 13.1693 3.86446 13.2478 4.30521 13.559C4.86698 13.9557 5.10197 14.7125 4.87893 15.4064C4.78976 15.6839 4.78934 15.891 4.87765 16.0665C4.91859 16.1478 5.21872 16.4683 5.76039 17.0092C6.49998 17.7477 6.59678 17.8346 6.73983 17.888C6.92346 17.9566 7.10159 17.9577 7.25073 17.8911C7.31942 17.8605 7.77714 17.4229 8.57662 16.6234L9.79758 15.4024L9.74794 15.32C9.60796 15.0876 9.70195 14.6988 9.94067 14.523C10.0981 14.407 10.3789 14.3764 10.5673 14.4547L10.6931 14.5069L14.1659 11.0341C16.5603 8.63969 17.6532 7.52875 17.6855 7.45641C17.752 7.30727 17.7509 7.12914 17.6823 6.94551C17.6289 6.80246 17.542 6.70566 16.8035 5.96607C16.2627 5.4244 15.9421 5.12427 15.8608 5.08333C15.6826 4.99368 15.4811 4.99667 15.1633 5.09375C14.6684 5.24486 14.1202 5.15553 13.708 4.85654C13.1472 4.44982 12.9042 3.67681 13.1319 3.02413C13.2291 2.74554 13.2331 2.59651 13.1487 2.3935C13.0996 2.27527 12.9484 2.10996 12.2639 1.42641C11.5195 0.683102 11.4226 0.596103 11.2795 0.542677C11.0959 0.47412 10.9177 0.473024 10.7686 0.539549C10.6963 0.571782 9.58531 1.66469 7.19088 4.05913L3.71808 7.53192L3.7703 7.65767C3.84856 7.8461 3.81797 8.12691 3.70203 8.28433C3.52618 8.52305 3.1374 8.61704 2.90497 8.47706L2.82258 8.42742L1.59419 9.65793C0.630652 10.6232 0.356198 10.9137 0.321314 11.0056ZM4.76284 9.21918C4.90586 9.14842 5.1339 9.13312 5.29232 9.18362C5.45597 9.23581 6.59201 10.3736 6.64545 10.5388C6.75132 10.8661 6.60293 11.2248 6.31302 11.3425C6.11493 11.4229 5.99873 11.4256 5.80836 11.354C5.67096 11.3025 5.57562 11.2203 5.09134 10.736C4.60707 10.2517 4.52488 10.1564 4.4733 10.019C4.40037 9.82479 4.40495 9.69096 4.49076 9.50832C4.57259 9.33413 4.60923 9.29519 4.76284 9.21918ZM7.62368 12.08C7.69105 12.0467 7.81266 12.017 7.89389 12.0142C8.17693 12.0041 8.21479 12.0301 8.86861 12.6839C9.42724 13.2425 9.47581 13.2994 9.51672 13.4426C9.60615 13.7557 9.45636 14.0887 9.1747 14.203C8.97577 14.2837 8.85976 14.2864 8.6692 14.2149C8.5318 14.1633 8.43646 14.0811 7.95218 13.5968C7.46791 13.1126 7.38572 13.0172 7.33414 12.8798C7.26121 12.6856 7.26579 12.5518 7.3516 12.3692C7.43343 12.195 7.47007 12.156 7.62368 12.08Z" fill="#1ACC97"/>
</svg>
