<svg width="13" height="14" viewBox="0 0 13 14" fill="none" xmlns="http://www.w3.org/2000/svg">
<path d="M12.4783 5.55671C12.3638 5.56785 12.249 5.57366 12.1341 5.5742C10.8734 5.57435 9.69755 4.93891 9.00696 3.88418V9.6391C9.00696 11.9882 7.1026 13.8926 4.75348 13.8926C2.40436 13.8926 0.5 11.9882 0.5 9.6391C0.5 7.28998 2.40436 5.38562 4.75348 5.38562C4.84229 5.38562 4.92908 5.39359 5.01637 5.39911V7.49515C4.92908 7.48469 4.84326 7.46871 4.75348 7.46871C3.55454 7.46871 2.58259 8.44066 2.58259 9.6396C2.58259 10.8385 3.55454 11.8105 4.75348 11.8105C5.95264 11.8105 7.01166 10.8657 7.01166 9.66655L7.03259 -0.107422H9.03787C9.22696 1.69081 10.6769 3.0954 12.4802 3.22721V5.55671" fill="black" fill-opacity="0.8"/>
</svg>
