<svg width="18" height="20" viewBox="0 0 18 20" fill="#000" xmlns="http://www.w3.org/2000/svg">
<path d="M8.99998 0.399902C7.40868 0.399902 5.88255 1.03204 4.75734 2.15726C3.63212 3.28248 2.99998 4.8086 2.99998 6.3999V8.7999C2.36346 8.7999 1.75301 9.05276 1.30292 9.50285C0.852832 9.95293 0.599976 10.5634 0.599976 11.1999V17.1999C0.599976 17.8364 0.852832 18.4469 1.30292 18.897C1.75301 19.347 2.36346 19.5999 2.99998 19.5999H15C15.6365 19.5999 16.2469 19.347 16.697 18.897C17.1471 18.4469 17.4 17.8364 17.4 17.1999V11.1999C17.4 10.5634 17.1471 9.95293 16.697 9.50285C16.2469 9.05276 15.6365 8.7999 15 8.7999H5.39998V6.3999C5.39968 5.52347 5.71911 4.67703 6.29837 4.01932C6.87764 3.36161 7.67693 2.9378 8.54638 2.82737C9.41583 2.71694 10.2957 2.92748 11.021 3.4195C11.7463 3.91152 12.2672 4.65123 12.486 5.4999C12.5655 5.80814 12.7643 6.07214 13.0385 6.23383C13.1743 6.3139 13.3245 6.36643 13.4806 6.38844C13.6367 6.41045 13.7956 6.4015 13.9482 6.3621C14.1008 6.32271 14.2442 6.25363 14.3701 6.15883C14.496 6.06403 14.602 5.94535 14.6821 5.80957C14.7622 5.67379 14.8147 5.52357 14.8367 5.36749C14.8587 5.21141 14.8498 5.05252 14.8104 4.8999C14.4774 3.61202 13.7261 2.47122 12.6744 1.65671C11.6227 0.842191 10.3302 0.400109 8.99998 0.399902Z"/>
</svg>
