<svg width="19" height="18" viewBox="0 0 19 18" fill="none" xmlns="http://www.w3.org/2000/svg">
<circle cx="9.44196" cy="9.00007" r="5.78571" fill="#F8F8FA"/>
<path d="M9.44252 1.92871C8.04393 1.92871 6.67674 2.34344 5.51385 3.12046C4.35096 3.89748 3.4446 5.00189 2.90938 6.29402C2.37416 7.58615 2.23412 9.00798 2.50697 10.3797C2.77983 11.7514 3.45331 13.0114 4.44227 14.0004C5.43123 14.9893 6.69124 15.6628 8.06296 15.9357C9.43468 16.2085 10.8565 16.0685 12.1486 15.5333C13.4408 14.9981 14.5452 14.0917 15.3222 12.9288C16.0992 11.7659 16.514 10.3987 16.514 9.00014C16.514 8.0715 16.331 7.15196 15.9757 6.29402C15.6203 5.43607 15.0994 4.65653 14.4428 3.99988C13.7861 3.34324 13.0066 2.82236 12.1486 2.46699C11.2907 2.11162 10.3712 1.92871 9.44252 1.92871ZM12.4832 7.31007L9.2516 11.5529C9.18572 11.6385 9.10112 11.7078 9.00428 11.7557C8.90745 11.8035 8.80095 11.8284 8.69295 11.8287C8.58554 11.8293 8.47941 11.8054 8.38262 11.7588C8.28582 11.7123 8.2009 11.6443 8.13431 11.56L6.40888 9.36078C6.35177 9.28742 6.30967 9.20353 6.28498 9.11389C6.26029 9.02426 6.2535 8.93064 6.26499 8.83838C6.27648 8.74612 6.30603 8.65703 6.35195 8.57619C6.39787 8.49536 6.45927 8.42436 6.53263 8.36724C6.68079 8.2519 6.8687 8.20014 7.05503 8.22335C7.14729 8.23484 7.23638 8.26439 7.31722 8.31032C7.39805 8.35624 7.46906 8.41763 7.52617 8.49099L8.67881 9.96185L11.3518 6.42614C11.4085 6.35185 11.4792 6.28944 11.5599 6.24248C11.6407 6.19553 11.7299 6.16494 11.8225 6.15246C11.9151 6.13998 12.0092 6.14587 12.0996 6.16977C12.1899 6.19368 12.2746 6.23513 12.3489 6.29178C12.4232 6.34843 12.4856 6.41915 12.5325 6.49992C12.5795 6.58068 12.6101 6.6699 12.6226 6.76249C12.635 6.85508 12.6292 6.94921 12.6052 7.03953C12.5813 7.12984 12.5399 7.21456 12.4832 7.28885V7.31007Z" fill="#1ACC97"/>
</svg>
