<svg width="100" height="76" viewBox="0 0 100 76" fill="none" xmlns="http://www.w3.org/2000/svg">
<path d="M46.3851 76C67.2873 76 84.2331 59.0197 84.2331 38C84.2331 16.9803 67.2127 0 46.3851 0C25.4829 0 8.53711 16.9803 8.53711 38C8.53711 59.0197 25.4829 76 46.3851 76Z" fill="url(#paint0_linear_24114_195033)"/>
<path d="M86.0939 25.9605C87.7843 25.9605 89.1546 24.5874 89.1546 22.8936C89.1546 21.1998 87.7843 19.8267 86.0939 19.8267C84.4035 19.8267 83.0332 21.1998 83.0332 22.8936C83.0332 24.5874 84.4035 25.9605 86.0939 25.9605Z" fill="url(#paint1_linear_24114_195033)"/>
<path d="M90.5726 13.9917C91.727 13.9917 92.6629 13.054 92.6629 11.8972C92.6629 10.7405 91.727 9.80273 90.5726 9.80273C89.4182 9.80273 88.4824 10.7405 88.4824 11.8972C88.4824 13.054 89.4182 13.9917 90.5726 13.9917Z" fill="url(#paint2_linear_24114_195033)"/>
<path d="M10.6273 13.0903C11.7817 13.0903 12.7176 12.1526 12.7176 10.9959C12.7176 9.8391 11.7817 8.90137 10.6273 8.90137C9.47293 8.90137 8.53711 9.8391 8.53711 10.9959C8.53711 12.1526 9.47293 13.0903 10.6273 13.0903Z" fill="url(#paint3_linear_24114_195033)"/>
<path d="M4.03614 53.4846C6.18003 53.4846 7.91799 51.7431 7.91799 49.5948C7.91799 47.4466 6.18003 45.7051 4.03614 45.7051C1.89226 45.7051 0.154297 47.4466 0.154297 49.5948C0.154297 51.7431 1.89226 53.4846 4.03614 53.4846Z" fill="url(#paint4_linear_24114_195033)"/>
<path fill-rule="evenodd" clip-rule="evenodd" d="M33.3443 57.7648C32.3845 58.1495 31.4546 59.1137 31.0967 60.0955C30.848 60.7778 30.8095 61.2506 30.8095 63.6183V66.353H46.3228H61.8361V63.6143C61.8361 61.2458 61.7976 60.7715 61.5511 60.1057C61.1745 59.0884 60.2486 58.1346 59.2739 57.7603C58.529 57.4743 58.1421 57.4657 46.2813 57.4725C34.5624 57.4792 34.027 57.4912 33.3443 57.7648ZM25.0371 71.1737C25.0371 73.7356 25.0422 73.7778 25.3914 74.1361L25.7455 74.4998H46.3228H66.9001L67.2543 74.1361C67.6035 73.7778 67.6085 73.7356 67.6085 71.1737V68.5748H46.3228H25.0371V71.1737Z" fill="#D5DDEA"/>
<g filter="url(#filter0_b_24114_195033)">
<path fill-rule="evenodd" clip-rule="evenodd" d="M48.6292 7.09485C48.012 7.28071 47.4287 7.7268 47.1258 8.24464C46.9609 8.52652 46.5687 9.48663 46.2542 10.3783C45.7293 11.8666 45.696 12.0281 45.8489 12.3473C46.0009 12.6643 46.7445 13.0703 47.5803 13.2924C47.7785 13.345 47.7806 13.3881 47.6086 13.8757C47.5065 14.1653 47.4655 14.4423 47.5177 14.4914C47.6196 14.5874 62.4164 19.859 62.7583 19.9211C62.901 19.947 63.0153 19.8111 63.1332 19.4752C63.2265 19.2095 63.3232 18.9718 63.348 18.9468C63.373 18.9219 63.691 19.0146 64.0546 19.153C64.8906 19.4708 65.4142 19.4744 65.6948 19.1642C65.9756 18.8539 66.9812 16.0631 67.072 15.3424C67.183 14.4612 66.9302 13.7616 66.2713 13.1268C65.6425 12.5212 66.6596 12.9092 53.481 8.24772C49.9162 6.98677 49.3973 6.86344 48.6292 7.09485ZM44.3827 16.0079C44.0933 16.3759 39.645 28.8758 39.645 29.321C39.645 29.4991 39.7489 29.7451 39.8757 29.8674C40.2423 30.2208 58.8227 36.7771 59.1938 36.684C59.3624 36.6416 59.5742 36.4891 59.6644 36.3451C59.9505 35.8883 64.3253 23.4203 64.3258 23.0605C64.326 22.8712 64.2396 22.6295 64.1338 22.5238C63.883 22.2728 45.4186 15.7117 44.9634 15.7117C44.7425 15.7117 44.5305 15.8198 44.3827 16.0079ZM63.7894 30.4228C63.297 31.8116 62.9165 32.9677 62.9437 32.9918C63.0434 33.0801 70.7204 35.7797 70.7598 35.7405C70.782 35.7181 71.2118 34.5674 71.7149 33.1835C72.3979 31.304 72.5901 30.6449 72.4744 30.579C72.2051 30.4255 65.0116 27.8977 64.8443 27.8977C64.7476 27.8977 64.3313 28.8941 63.7894 30.4228ZM74.6964 30.4604C74.5789 30.6504 72.2832 37.0407 72.2841 37.1753C72.2844 37.2516 77.8704 39.2993 84.697 41.7255C96.8548 46.0464 97.1166 46.1329 97.4731 45.9485C97.802 45.7784 97.9337 45.4895 98.8414 42.9484C99.3938 41.4019 99.8457 40.0237 99.8457 39.8854C99.8457 39.7473 99.7212 39.5175 99.5688 39.3747C99.3971 39.2137 94.806 37.5213 87.4795 34.9182C80.9826 32.6099 75.4618 30.6413 75.2109 30.5436C74.9601 30.4458 74.7285 30.4083 74.6964 30.4604ZM40.9081 32.7549C40.8394 32.9357 40.7832 33.1371 40.7832 33.2024C40.7832 33.4446 40.432 33.4426 39.7859 33.197C38.974 32.8883 38.6723 32.8806 38.3368 33.1599C38.0311 33.4143 36.8457 36.6987 36.8457 37.2913C36.8457 38.1879 37.3103 39.0912 38.0223 39.5793C38.2417 39.7297 41.9178 41.0957 46.1915 42.6147C54.65 45.6213 54.6953 45.6332 55.7562 45.1194C56.5972 44.7122 56.9481 44.1663 57.6422 42.1866C58.2454 40.466 58.2639 40.3753 58.0872 40.004C57.943 39.7012 57.7597 39.5698 57.2487 39.4028C56.1269 39.0365 56.1374 39.0475 56.3662 38.4753C56.475 38.2034 56.5322 37.9492 56.4935 37.9104C56.4164 37.8334 41.7903 32.6165 41.3212 32.4986C41.0895 32.4405 41.0085 32.4907 40.9081 32.7549Z" fill="#C2C9DB"/>
</g>
<defs>
<filter id="filter0_b_24114_195033" x="-3.1543" y="-33" width="143" height="119" filterUnits="userSpaceOnUse" color-interpolation-filters="sRGB">
<feFlood flood-opacity="0" result="BackgroundImageFix"/>
<feGaussianBlur in="BackgroundImageFix" stdDeviation="20"/>
<feComposite in2="SourceAlpha" operator="in" result="effect1_backgroundBlur_24114_195033"/>
<feBlend mode="normal" in="SourceGraphic" in2="effect1_backgroundBlur_24114_195033" result="shape"/>
</filter>
<linearGradient id="paint0_linear_24114_195033" x1="38" y1="41.5" x2="84.5" y2="-12" gradientUnits="userSpaceOnUse">
<stop stop-color="#EAEEF9"/>
<stop offset="1" stop-color="#E9EDF8" stop-opacity="0"/>
</linearGradient>
<linearGradient id="paint1_linear_24114_195033" x1="85" y1="26.0005" x2="89" y2="19.0005" gradientUnits="userSpaceOnUse">
<stop stop-color="#D5DDEA"/>
<stop offset="1" stop-color="#D5DDEA" stop-opacity="0"/>
</linearGradient>
<linearGradient id="paint2_linear_24114_195033" x1="89" y1="13.5" x2="92.5" y2="10" gradientUnits="userSpaceOnUse">
<stop stop-color="#D5DDEA"/>
<stop offset="1" stop-color="#D5DDEA" stop-opacity="0"/>
</linearGradient>
<linearGradient id="paint3_linear_24114_195033" x1="9.5" y1="12.999" x2="12" y2="8.99902" gradientUnits="userSpaceOnUse">
<stop stop-color="#D5DDEA"/>
<stop offset="1" stop-color="#D5DDEA" stop-opacity="0"/>
</linearGradient>
<linearGradient id="paint4_linear_24114_195033" x1="1" y1="52.5" x2="7.5" y2="46.5" gradientUnits="userSpaceOnUse">
<stop stop-color="#D5DDEA"/>
<stop offset="1" stop-color="#D5DDEA" stop-opacity="0"/>
</linearGradient>
</defs>
</svg>
