<svg width="16" height="14" viewBox="0 0 11 14" fill="none" xmlns="http://www.w3.org/2000/svg">
<path fill-rule="evenodd" clip-rule="evenodd" d="M9.52524 12.8336H10.1089V12.8336C10.1855 12.8336 10.2613 12.8486 10.3321 12.8778C10.4029 12.9071 10.4672 12.95 10.5214 13.0041C10.5756 13.0582 10.6186 13.1225 10.6479 13.1932C10.6773 13.264 10.6924 13.3398 10.6925 13.4164C10.6926 13.493 10.6775 13.5688 10.6483 13.6396C10.619 13.7104 10.5761 13.7747 10.522 13.8289C10.4679 13.8831 10.4036 13.9261 10.3329 13.9554C10.2622 13.9848 10.1863 13.9999 10.1097 14H0.776015C0.621451 14 0.473217 13.9386 0.363924 13.8293C0.254631 13.72 0.193231 13.5718 0.193231 13.4172C0.193231 13.2627 0.254631 13.1144 0.363924 13.0051C0.473217 12.8958 0.621451 12.8344 0.776015 12.8344H1.35992V10.9253C1.36 10.455 1.45886 9.99005 1.6501 9.56045C1.84135 9.13086 2.12071 8.74623 2.47009 8.43149L3.45787 7.54259C3.53391 7.47424 3.59472 7.39065 3.63634 7.29726C3.67797 7.20387 3.69948 7.10277 3.69948 7.00052C3.69948 6.89827 3.67797 6.79717 3.63634 6.70378C3.59472 6.61039 3.53391 6.5268 3.45787 6.45845L2.46982 5.57042C2.1205 5.25563 1.84118 4.871 1.64994 4.44141C1.4587 4.01183 1.3598 3.54687 1.35965 3.07665V1.16726H0.776015C0.621226 1.16726 0.472777 1.10577 0.363325 0.996322C0.253873 0.88687 0.192383 0.73842 0.192383 0.583632C0.192383 0.428843 0.253873 0.280394 0.363325 0.170942C0.472777 0.06149 0.621226 0 0.776015 0H10.1089C10.2636 0 10.4119 0.0614435 10.5213 0.170814C10.6307 0.280184 10.6921 0.428522 10.6921 0.583194C10.6921 0.737867 10.6307 0.886205 10.5213 0.995575C10.4119 1.10495 10.2636 1.16639 10.1089 1.16639H9.5253V3.07555C9.52522 3.54579 9.42636 4.01077 9.23511 4.44037C9.04387 4.86996 8.76451 5.25459 8.41513 5.56933L7.4273 6.45845C7.35126 6.5268 7.29045 6.61039 7.24882 6.70378C7.20719 6.79717 7.18568 6.89827 7.18568 7.00052C7.18568 7.10277 7.20719 7.20387 7.24882 7.29726C7.29045 7.39065 7.35126 7.47424 7.4273 7.54259L8.41507 8.43061C8.76438 8.74541 9.0437 9.13005 9.23494 9.55963C9.42618 9.98921 9.52508 10.4542 9.52524 10.9244V12.8336ZM3.23084 10.3705C3.15017 10.5653 3.10889 10.7741 3.10938 10.985V12.8348H7.77586V10.985C7.77643 10.7741 7.73519 10.5653 7.65451 10.3704C7.57384 10.1756 7.45534 9.99873 7.30587 9.85L5.75196 8.29609C5.66992 8.21406 5.55865 8.16797 5.44262 8.16797C5.3266 8.16797 5.21532 8.21406 5.13328 8.29609L3.57937 9.85C3.42996 9.99878 3.3115 10.1757 3.23084 10.3705Z" fill="#42A4FF"/>
</svg>
