<svg width="16" height="16" viewBox="0 0 16 16" fill="none" xmlns="http://www.w3.org/2000/svg">
<g clip-path="url(#clip0_24114_193345)">
<circle cx="8" cy="8" r="8" fill="#3CBCAC"/>
<g clip-path="url(#clip1_24114_193345)">
<path d="M7.6671 8.38954L7.6671 11.9451H4.5C4.22386 11.9451 3.99731 11.7209 4.02001 11.4457C4.08107 10.7055 4.29963 9.85855 4.91122 9.30076C5.66667 8.61178 6.84198 8.38954 7.6671 8.38954ZM10.0935 11.3552C10.0352 11.3245 9.96562 11.3245 9.90735 11.3551L9.21615 11.7185C9.06943 11.7956 8.89795 11.671 8.92596 11.5077L9.05789 10.7382C9.06901 10.6733 9.04751 10.6072 9.0004 10.5612L8.44126 10.0159C8.3226 9.90024 8.38809 9.6987 8.5521 9.67484L9.32511 9.5624C9.39024 9.55292 9.44654 9.51201 9.47567 9.45298L9.82113 8.75288C9.89448 8.60424 10.1064 8.60421 10.1798 8.75284L10.5256 9.45303C10.5547 9.51203 10.611 9.55292 10.6761 9.56239L11.4488 9.67483C11.6128 9.69869 11.6783 9.90023 11.5596 10.0159L11.0004 10.5612C10.9533 10.6072 10.9318 10.6733 10.9429 10.7382L11.0746 11.5077C11.1026 11.6711 10.9311 11.7956 10.7844 11.7185L10.0935 11.3552ZM7.6671 8.00065C6.37793 8.00065 5.33376 6.95648 5.33376 5.66732C5.33376 4.37815 6.37793 3.33398 7.6671 3.33398C8.95626 3.33398 10.0004 4.37815 10.0004 5.66732C10.0004 6.95648 8.95626 8.00065 7.6671 8.00065Z" fill="#F8F8FA"/>
</g>
</g>
<defs>
<clipPath id="clip0_24114_193345">
<rect width="16" height="16" fill="white"/>
</clipPath>
<clipPath id="clip1_24114_193345">
<rect width="8.72727" height="8.72727" fill="white" transform="translate(3.33301 3.33398)"/>
</clipPath>
</defs>
</svg>
