<svg width="17" height="14" viewBox="0 0 17 14" fill="none" xmlns="http://www.w3.org/2000/svg">
<path fill-rule="evenodd" clip-rule="evenodd" d="M1.38593 0.0591512C1.31928 0.0943579 1.25406 0.161446 1.21821 0.231713C1.16005 0.345705 1.15955 0.394183 1.15955 5.86075V11.3748H0.895868C0.567049 11.3748 0.432348 11.4327 0.339999 11.6137C0.214778 11.8592 0.223587 11.8764 1.02371 12.9438C1.77204 13.9422 1.8274 14 2.03462 14C2.24031 14 2.2988 13.9395 3.00967 12.9919C3.38478 12.4918 3.71261 12.0422 3.73822 11.9927C3.80078 11.8717 3.79679 11.7462 3.72602 11.6074C3.63718 11.4333 3.49827 11.3748 3.17336 11.3748H2.90968V5.86075C2.90968 0.391996 2.90918 0.345763 2.85096 0.231597C2.7461 0.0260739 2.64908 -0.00119889 2.02849 0.00028872C1.55514 0.0014263 1.48271 0.00807676 1.38593 0.0591512ZM5.01112 0.0591512C4.94447 0.0943579 4.87925 0.161446 4.8434 0.231713C4.78812 0.340046 4.78474 0.402496 4.78474 1.3116C4.78474 2.22108 4.78812 2.28309 4.84346 2.3916C4.88126 2.46572 4.94321 2.52767 5.01733 2.56547C5.13147 2.6237 5.17805 2.62419 10.5018 2.62419C15.8256 2.62419 15.8722 2.6237 15.9863 2.56547C16.0604 2.52767 16.1224 2.46572 16.1602 2.3916C16.2155 2.28309 16.2189 2.22108 16.2189 1.3116C16.2189 0.402117 16.2155 0.340105 16.1602 0.231597C16.1224 0.157479 16.0604 0.0955246 15.9863 0.057722C15.8721 -0.000498842 15.8269 -0.000994705 10.4957 0.00028872C5.2013 0.00157214 5.11855 0.0024472 5.01112 0.0591512ZM5.01112 4.5594C4.94447 4.59461 4.87925 4.66169 4.8434 4.73196C4.78812 4.84029 4.78474 4.90275 4.78474 5.81185C4.78474 6.72133 4.78812 6.78334 4.84346 6.89185C4.88126 6.96597 4.94321 7.02792 5.01733 7.06572C5.13106 7.12374 5.18097 7.12444 9.18922 7.12444C13.1975 7.12444 13.2474 7.12374 13.3611 7.06572C13.4352 7.02792 13.4972 6.96597 13.535 6.89185C13.5903 6.78334 13.5937 6.72133 13.5937 5.81185C13.5937 4.90237 13.5903 4.84035 13.535 4.73185C13.4972 4.65773 13.4352 4.59577 13.3611 4.55797C13.2473 4.49992 13.1988 4.49928 9.18309 4.50054C5.19555 4.50182 5.11817 4.5029 5.01112 4.5594ZM5.01112 9.05965C4.94447 9.09486 4.87925 9.16194 4.8434 9.23221C4.78812 9.34054 4.78474 9.40299 4.78474 10.3121C4.78474 11.2216 4.78812 11.2836 4.84346 11.3921C4.88126 11.4662 4.94321 11.5282 5.01733 11.566C5.13027 11.6236 5.18389 11.6247 7.87663 11.6247C10.5694 11.6247 10.623 11.6236 10.7359 11.566C10.81 11.5282 10.872 11.4662 10.9098 11.3921C10.9651 11.2836 10.9685 11.2216 10.9685 10.3121C10.9685 9.40261 10.9651 9.3406 10.9098 9.23209C10.872 9.15798 10.81 9.09602 10.7359 9.05822C10.6229 9.00058 10.5707 8.99953 7.8705 9.00079C5.18984 9.00204 5.11741 9.00353 5.01112 9.05965Z" fill="black"/>
</svg>
