<svg width="25" height="24" viewBox="0 0 25 24" fill="none" xmlns="http://www.w3.org/2000/svg">
<path d="M6.50036 14.5726C9.81427 14.5726 12.5007 11.9059 12.5007 8.61639C12.5007 5.32686 9.81427 2.66016 6.50036 2.66016C3.18645 2.66016 0.5 5.32686 0.5 8.61639C0.5 11.9059 3.18645 14.5726 6.50036 14.5726Z" fill="#FFE14D"/>
<path d="M12.5004 8.61639C12.5004 5.33211 9.8086 2.66016 6.5 2.66016V14.5726C9.8086 14.5726 12.5004 11.9007 12.5004 8.61639Z" fill="#FFBB33"/>
<path d="M6.49637 13.1501C3.97621 13.1501 1.92578 11.1148 1.92578 8.61315C1.92578 6.11153 3.97621 4.07617 6.49637 4.07617C9.01652 4.07617 11.0669 6.11153 11.0669 8.61315C11.0669 11.1148 9.01652 13.1501 6.49637 13.1501Z" fill="#FFBB33"/>
<path d="M11.0706 8.61315C11.0706 6.11153 9.02015 4.07617 6.5 4.07617V13.1501C9.02015 13.1501 11.0706 11.1148 11.0706 8.61315Z" fill="#E68A2E"/>
<path fill-rule="evenodd" clip-rule="evenodd" d="M6.85169 8.29289V6.91304C7.25605 7.01153 7.55485 7.26979 7.55485 7.56665C7.55485 7.75955 7.71211 7.91564 7.90643 7.91564C8.10077 7.91564 8.25802 7.75955 8.25802 7.56665C8.25802 6.89233 7.65328 6.32854 6.85169 6.1989V5.82166C6.85169 5.62875 6.69444 5.47266 6.5001 5.47266C6.30577 5.47266 6.14852 5.62875 6.14852 5.82166V6.1989C5.34693 6.32854 4.74219 6.89233 4.74219 7.56665C4.74219 8.24095 5.34693 8.80475 6.14852 8.9344V10.3142C5.74415 10.2158 5.44535 9.95749 5.44535 9.66063C5.44535 9.46773 5.2881 9.31164 5.09377 9.31164C4.89944 9.31164 4.74219 9.46773 4.74219 9.66063C4.74219 10.3349 5.34693 10.8987 6.14852 11.0284V11.409C6.14852 11.6019 6.30577 11.758 6.5001 11.758C6.69444 11.758 6.85169 11.6019 6.85169 11.409V11.0284C7.65328 10.8987 8.25802 10.3349 8.25802 9.66063C8.25802 8.98633 7.65328 8.42251 6.85169 8.29289ZM5.44811 7.56962C5.44811 7.27276 5.74691 7.0145 6.15127 6.91602V8.22322C5.74691 8.12471 5.44811 7.86645 5.44811 7.56962ZM7.55362 9.66337C7.55362 9.36652 7.25482 9.10826 6.85045 9.00977V10.317C7.25482 10.2185 7.55362 9.96023 7.55362 9.66337Z" fill="#FFE14D"/>
<path fill-rule="evenodd" clip-rule="evenodd" d="M6.8594 11.0284V11.409C6.8594 11.6019 6.70215 11.758 6.50781 11.758V5.47266C6.70215 5.47266 6.8594 5.62875 6.8594 5.82166V6.1989C7.66099 6.32854 8.26573 6.89233 8.26573 7.56665C8.26573 7.75955 8.10848 7.91564 7.91414 7.91564C7.71982 7.91564 7.56256 7.75955 7.56256 7.56665C7.56256 7.26979 7.26376 7.01153 6.8594 6.91304V8.29289C7.66099 8.42253 8.26573 8.98633 8.26573 9.66063C8.26573 10.3349 7.66099 10.8987 6.8594 11.0284ZM7.56534 9.66337C7.56534 9.36651 7.26653 9.10825 6.86217 9.00977V10.317C7.26653 10.2185 7.56534 9.96023 7.56534 9.66337Z" fill="#FFBB33"/>
<path d="M17.8311 14.574C21.526 14.574 24.4982 11.6237 24.4982 7.95593C24.4982 4.28821 21.526 1.33789 17.8311 1.33789C14.1362 1.33789 11.1641 4.28821 11.1641 7.95593C11.1641 11.6237 14.1362 14.574 17.8311 14.574Z" fill="#2775CA" stroke="white" stroke-width="0.470002"/>
<path d="M19.6708 9.00485C19.6708 8.03994 19.0874 7.70904 17.9207 7.57072C17.0873 7.4602 16.9206 7.23982 16.9206 6.85399C16.9206 6.46816 17.1986 6.21998 17.754 6.21998C18.254 6.21998 18.532 6.38543 18.6707 6.79906C18.6987 6.88178 18.7821 6.93671 18.8654 6.93671H19.3101C19.4214 6.93671 19.5048 6.85399 19.5048 6.74347V6.71567C19.3934 6.1088 18.8934 5.64024 18.2547 5.58531V4.92351C18.2547 4.81298 18.1714 4.73026 18.0327 4.70312H17.616C17.5046 4.70312 17.4213 4.78585 17.394 4.92351V5.55751C16.5606 5.66804 16.0326 6.21932 16.0326 6.90892C16.0326 7.8189 16.5879 8.1776 17.7547 8.31525C18.5327 8.45291 18.7827 8.61836 18.7827 9.05978C18.7827 9.5012 18.394 9.80431 17.866 9.80431C17.144 9.80431 16.8939 9.5012 16.8106 9.08758C16.7826 8.97706 16.6993 8.92213 16.6159 8.92213H16.1439C16.0326 8.92213 15.9492 9.00485 15.9492 9.11537V9.14317C16.0606 9.83277 16.5046 10.3291 17.4213 10.4668V11.1286C17.4213 11.2391 17.5046 11.3218 17.6433 11.349H18.06C18.1714 11.349 18.2547 11.2662 18.282 11.1286V10.4668C19.1147 10.3285 19.6708 9.74938 19.6708 9.00485Z" fill="white"/>
<path fill-rule="evenodd" clip-rule="evenodd" d="M13.9416 6.60569C13.1355 8.72875 14.2469 11.1278 16.4137 11.9001C16.497 11.9557 16.5804 12.0656 16.5804 12.149V12.5348C16.5804 12.5904 16.5804 12.6175 16.5524 12.6453C16.5244 12.7558 16.4137 12.8108 16.3024 12.7558C14.7469 12.2595 13.5522 11.0735 13.0522 9.52954C12.2188 6.90945 13.6635 4.12458 16.3024 3.29733C16.3304 3.26953 16.3857 3.26953 16.4137 3.26953C16.525 3.29667 16.5804 3.37939 16.5804 3.48991V3.87574C16.5804 4.01406 16.525 4.09679 16.4137 4.15172C15.275 4.56534 14.3582 5.44753 13.9416 6.60569ZM19.11 3.40745C19.138 3.29693 19.2487 3.242 19.36 3.29693C20.8881 3.79328 22.1102 4.97923 22.6102 6.55036C23.4436 9.17044 21.9989 11.9553 19.36 12.7826C19.332 12.8104 19.2767 12.8104 19.2487 12.8104C19.1374 12.7832 19.082 12.7005 19.082 12.59V12.2041C19.082 12.0658 19.1374 11.9831 19.2487 11.9282C20.3874 11.5145 21.3042 10.6324 21.7209 9.47421C22.5269 7.35114 21.4155 4.9521 19.2487 4.17977C19.1654 4.12418 19.082 4.01432 19.082 3.9038V3.51797C19.082 3.46238 19.082 3.43524 19.11 3.40745Z" fill="white"/>
<path d="M20.266 15.8987C20.266 20.1533 16.7909 23.6053 12.5005 23.6053C8.21008 23.6053 4.735 20.1533 4.735 15.8987C4.735 11.644 8.21008 8.19203 12.5005 8.19203C16.7909 8.19203 20.266 11.644 20.266 15.8987Z" fill="#E4E2E2" stroke="white" stroke-width="0.470002"/>
<path d="M12.6242 21.0615C10.195 21.0615 8.30786 19.8923 7.69906 18.01L7.5625 17.589L7.96177 17.3977C8.00399 17.377 9.0514 16.8499 8.98625 15.8136C8.91745 14.7195 8.03135 14.206 7.99356 14.1848L7.6042 13.9645L7.77229 13.5487C8.569 11.6221 10.3832 10.4727 12.6245 10.4727C14.386 10.4727 15.9299 11.1621 16.8592 12.364L17.0938 12.6679L15.2418 15.1633L14.8285 14.7636C14.8204 14.756 13.9401 13.9238 12.9182 13.9191C11.9336 13.9144 11.5455 14.2853 11.5293 14.3013L10.7999 13.6006C10.8666 13.5293 11.4918 12.8968 12.9226 12.9075C13.8342 12.9117 14.6218 13.3474 15.0865 13.6771L15.8128 12.6984C15.0597 11.9231 13.9197 11.4848 12.6247 11.4848C10.9523 11.4848 9.57889 12.2598 8.87522 13.5776C9.30055 13.9345 9.92473 14.6412 9.9951 15.7499C10.0704 16.9481 9.30395 17.7015 8.80538 18.0612C9.39542 19.2968 10.8192 20.0486 12.625 20.0486C13.8757 20.0486 15.1559 19.5618 15.9463 18.8092L15.1204 17.7741C14.6807 18.0855 13.9293 18.4901 12.9468 18.5413C11.5518 18.6131 10.7269 17.9712 10.6925 17.9437L11.3198 17.1507C11.3391 17.1648 11.8994 17.583 12.8942 17.5305C14.0717 17.47 14.8269 16.7137 14.834 16.7056L15.2335 16.2986L15.5908 16.7426L17.26 18.836L17.0041 19.1522C16.0651 20.312 14.3466 21.0615 12.6242 21.0615Z" fill="url(#paint0_linear_19398_201254)"/>
<defs>
<linearGradient id="paint0_linear_19398_201254" x1="13.4393" y1="7.78198" x2="4.8696" y2="14.4628" gradientUnits="userSpaceOnUse">
<stop offset="0.0733" stop-color="#F46881"/>
<stop offset="0.083" stop-color="#F36682"/>
<stop offset="0.2596" stop-color="#E74596"/>
<stop offset="0.407" stop-color="#E031A2"/>
<stop offset="0.5065" stop-color="#DD2AA6"/>
<stop offset="0.8882" stop-color="#5210E2"/>
</linearGradient>
</defs>
</svg>
