<svg width="22" height="23" viewBox="0 0 22 23" fill="none" xmlns="http://www.w3.org/2000/svg">
  <path d="M9.0303 8.46967C8.73741 8.17678 8.26253 8.17678 7.96964 8.46967C7.67675 8.76256 7.67675 9.23744 7.96964 9.53033L9.93932 11.5L7.96966 13.4697C7.67677 13.7626 7.67677 14.2374 7.96966 14.5303C8.26255 14.8232 8.73743 14.8232 9.03032 14.5303L11 12.5607L12.9696 14.5303C13.2625 14.8232 13.7374 14.8232 14.0303 14.5303C14.3232 14.2374 14.3232 13.7625 14.0303 13.4697L12.0606 11.5L14.0303 9.53035C14.3232 9.23746 14.3232 8.76258 14.0303 8.46969C13.7374 8.1768 13.2625 8.1768 12.9696 8.46969L11 10.4394L9.0303 8.46967Z" fill="#FF4F59"/>
  <path fill-rule="evenodd" clip-rule="evenodd" d="M11.0574 0.75H10.9426C8.63424 0.749988 6.82519 0.749978 5.41371 0.939747C3.96897 1.13399 2.82895 1.53933 1.93414 2.43414C1.03933 3.32895 0.633987 4.46897 0.439747 5.91371C0.249978 7.32519 0.249988 9.13422 0.25 11.4426V11.5574C0.249988 13.8658 0.249978 15.6748 0.439747 17.0863C0.633987 18.531 1.03933 19.6711 1.93414 20.5659C2.82895 21.4607 3.96897 21.866 5.41371 22.0603C6.82519 22.25 8.63423 22.25 10.9426 22.25H11.0574C13.3658 22.25 15.1748 22.25 16.5863 22.0603C18.031 21.866 19.1711 21.4607 20.0659 20.5659C20.9607 19.6711 21.366 18.531 21.5603 17.0863C21.75 15.6748 21.75 13.8658 21.75 11.5574V11.4426C21.75 9.13423 21.75 7.32519 21.5603 5.91371C21.366 4.46897 20.9607 3.32895 20.0659 2.43414C19.1711 1.53933 18.031 1.13399 16.5863 0.939747C15.1748 0.749978 13.3658 0.749988 11.0574 0.75ZM2.9948 3.4948C3.56445 2.92514 4.33517 2.59825 5.61358 2.42637C6.91356 2.25159 8.62177 2.25 11 2.25C13.3782 2.25 15.0864 2.25159 16.3864 2.42637C17.6648 2.59825 18.4355 2.92514 19.0052 3.4948C19.5749 4.06445 19.9018 4.83517 20.0736 6.11358C20.2484 7.41356 20.25 9.12177 20.25 11.5C20.25 13.8782 20.2484 15.5864 20.0736 16.8864C19.9018 18.1648 19.5749 18.9355 19.0052 19.5052C18.4355 20.0749 17.6648 20.4018 16.3864 20.5736C15.0864 20.7484 13.3782 20.75 11 20.75C8.62177 20.75 6.91356 20.7484 5.61358 20.5736C4.33517 20.4018 3.56445 20.0749 2.9948 19.5052C2.42514 18.9355 2.09825 18.1648 1.92637 16.8864C1.75159 15.5864 1.75 13.8782 1.75 11.5C1.75 9.12177 1.75159 7.41356 1.92637 6.11358C2.09825 4.83517 2.42514 4.06445 2.9948 3.4948Z" fill="#FF4F59"/>
</svg>
