<svg width="25" height="25" viewBox="0 0 25 25" fill="none" xmlns="http://www.w3.org/2000/svg">
  <path fill-rule="evenodd" clip-rule="evenodd" d="M12.5 3.25C7.39137 3.25 3.25 7.39137 3.25 12.5C3.25 17.6086 7.39137 21.75 12.5 21.75C17.6086 21.75 21.75 17.6086 21.75 12.5C21.75 7.39137 17.6086 3.25 12.5 3.25ZM1.75 12.5C1.75 6.56294 6.56294 1.75 12.5 1.75C18.4371 1.75 23.25 6.56294 23.25 12.5C23.25 18.4371 18.4371 23.25 12.5 23.25C6.56294 23.25 1.75 18.4371 1.75 12.5ZM12.5 8.25C11.8787 8.25 11.375 8.75368 11.375 9.375C11.375 9.78921 11.0392 10.125 10.625 10.125C10.2108 10.125 9.875 9.78921 9.875 9.375C9.875 7.92525 11.0503 6.75 12.5 6.75C13.9497 6.75 15.125 7.92525 15.125 9.375C15.125 10.3383 14.6056 11.1796 13.8353 11.6354C13.6385 11.7518 13.4761 11.8789 13.3703 12.0036C13.2675 12.1246 13.25 12.2036 13.25 12.25V13.5C13.25 13.9142 12.9142 14.25 12.5 14.25C12.0858 14.25 11.75 13.9142 11.75 13.5V12.25C11.75 11.7441 11.9715 11.3336 12.2266 11.033C12.4786 10.736 12.7929 10.5092 13.0715 10.3444C13.4044 10.1474 13.625 9.78655 13.625 9.375C13.625 8.75368 13.1213 8.25 12.5 8.25ZM12.5 17.5C13.0523 17.5 13.5 17.0523 13.5 16.5C13.5 15.9477 13.0523 15.5 12.5 15.5C11.9477 15.5 11.5 15.9477 11.5 16.5C11.5 17.0523 11.9477 17.5 12.5 17.5Z" fill="#1D1B20"/>
</svg>
