<svg width="19" height="20" viewBox="0 0 19 20" fill="none" xmlns="http://www.w3.org/2000/svg">
<path d="M9.49986 0.571289C7.63507 0.571289 5.81215 1.12427 4.26163 2.16029C2.71111 3.19631 1.50263 4.66885 0.789 6.3917C0.0753743 8.11455 -0.111343 10.0103 0.252461 11.8393C0.616264 13.6682 1.51425 15.3483 2.83286 16.6669C4.15147 17.9855 5.83148 18.8835 7.66044 19.2473C9.4894 19.6111 11.3852 19.4243 13.108 18.7107C14.8309 17.9971 16.3034 16.7886 17.3394 15.2381C18.3755 13.6876 18.9284 11.8647 18.9284 9.99986C18.9284 8.76168 18.6846 7.53563 18.2107 6.3917C17.7369 5.24777 17.0424 4.20838 16.1669 3.33285C15.2913 2.45733 14.2519 1.76283 13.108 1.289C11.9641 0.815166 10.738 0.571289 9.49986 0.571289ZM13.5541 7.74643L9.24529 13.4036C9.15746 13.5177 9.04466 13.6101 8.91554 13.6739C8.78643 13.7376 8.64443 13.7709 8.50043 13.7713C8.35722 13.7721 8.21571 13.7402 8.08665 13.6781C7.95759 13.616 7.84437 13.5254 7.75558 13.413L5.45501 10.4807C5.37886 10.3829 5.32272 10.271 5.2898 10.1515C5.25688 10.032 5.24783 9.9072 5.26315 9.78419C5.27847 9.66117 5.31787 9.54239 5.3791 9.4346C5.44033 9.32682 5.52219 9.23215 5.62001 9.156C5.81755 9.00221 6.0681 8.9332 6.31654 8.96414C6.43955 8.97947 6.55834 9.01887 6.66612 9.0801C6.7739 9.14132 6.86857 9.22318 6.94472 9.321L8.48158 11.2821L12.0456 6.56786C12.1211 6.4688 12.2154 6.3856 12.3231 6.32299C12.4308 6.26038 12.5497 6.21959 12.6732 6.20295C12.7966 6.18632 12.9222 6.19416 13.0426 6.22604C13.163 6.25791 13.276 6.31319 13.375 6.38872C13.4741 6.46424 13.5573 6.55854 13.6199 6.66623C13.6825 6.77392 13.7233 6.89288 13.7399 7.01633C13.7565 7.13978 13.7487 7.26529 13.7168 7.38571C13.685 7.50613 13.6297 7.61909 13.5541 7.71814V7.74643Z" fill="#3CBCAC"/>
</svg>
