<svg width="16" height="16" viewBox="0 0 16 16" fill="none" xmlns="http://www.w3.org/2000/svg">
<g clip-path="url(#clip0_23476_196037)">
<path d="M8 16C12.4113 16 16 12.4113 16 8C16 3.58867 12.4113 3.13731e-07 8 6.99382e-07C3.58866 1.08503e-06 -1.08503e-06 3.58867 -6.99382e-07 8C-3.13731e-07 12.4113 3.58867 16 8 16Z" fill="#2196F3"/>
<path d="M8 16C12.4113 16 16 12.4113 16 8C16 3.58867 12.4113 3.13731e-07 8 6.99382e-07L8 16Z" fill="#1D83D4"/>
<path d="M8.84145 3.47299L13.1748 7.63966C13.2728 7.73433 13.3281 7.86433 13.3281 8.00033C13.3281 8.13633 13.2728 8.26633 13.1748 8.361L8.84145 12.5277C8.52478 12.833 7.99478 12.607 7.99478 12.167L7.99478 10.0003L4.16144 10.0003C3.70211 10.0003 3.32811 9.62633 3.32811 9.167L3.32811 6.83366C3.32811 6.37433 3.70211 6.00033 4.16144 6.00033L7.99478 6.00033L7.99478 3.83366C7.99478 3.39099 8.52678 3.17032 8.84145 3.47299Z" fill="white"/>
<path d="M3.33592 8L13.3359 8C13.3359 7.864 13.2806 7.734 13.1826 7.63933L8.84926 3.47268C8.74926 3.37601 8.6266 3.33268 8.5066 3.33268C8.24993 3.33335 8.0026 3.53201 8.0026 3.83335L8.0026 6.00001L4.16926 6.00001C3.70992 6.00001 3.33592 6.37401 3.33592 6.83334L3.33592 8Z" fill="#DEDEDE"/>
</g>
<defs>
<clipPath id="clip0_23476_196037">
<rect width="16" height="16" fill="white" transform="translate(16 16) rotate(180)"/>
</clipPath>
</defs>
</svg>
