<svg width="52" height="30" viewBox="0 0 52 30" fill="none" xmlns="http://www.w3.org/2000/svg">
<g filter="url(#filter0_dd_19900_216406)">
<path d="M25.7599 14C25.7599 20.4977 20.4937 25.765 13.9975 25.765C7.50128 25.765 2.235 20.4977 2.235 14C2.235 7.50232 7.50128 2.235 13.9975 2.235C20.4937 2.235 25.7599 7.50232 25.7599 14Z" fill="#F5F5F7" stroke="#E0E0E7" stroke-width="0.470002"/>
<path d="M14.1842 21.728C10.5414 21.728 7.71149 19.9611 6.79853 17.1167L6.59375 16.4804L7.19249 16.1913C7.2558 16.1601 8.8265 15.3636 8.7288 13.7975C8.62562 12.1442 7.29683 11.3682 7.24016 11.3363L6.65628 11.0033L6.90836 10.3749C8.10309 7.46352 10.8236 5.72656 14.1846 5.72656C16.8262 5.72656 19.1414 6.76842 20.535 8.58467L20.8868 9.04386L18.1096 12.8148L17.4898 12.2109C17.4777 12.1994 16.1575 10.9418 14.6251 10.9347C13.1486 10.9276 12.5666 11.4881 12.5424 11.5122L11.4485 10.4534C11.5486 10.3457 12.4861 9.38983 14.6317 9.40601C15.9988 9.41232 17.1798 10.0707 17.8767 10.569L18.9659 9.09001C17.8365 7.91837 16.127 7.25602 14.185 7.25602C11.6771 7.25602 9.61751 8.42727 8.5623 10.4187C9.20012 10.9579 10.1361 12.0258 10.2417 13.7012C10.3546 15.512 9.20521 16.6505 8.45757 17.1941C9.34239 19.0612 11.4774 20.1974 14.1854 20.1974C16.0609 20.1974 17.9807 19.4617 19.166 18.3243L17.9275 16.7602C17.2682 17.2308 16.1414 17.8422 14.6681 17.9196C12.576 18.028 11.3391 17.058 11.2875 17.0166L12.2282 15.8181C12.2571 15.8394 13.0974 16.4714 14.5891 16.3921C16.3548 16.3006 17.4874 15.1577 17.498 15.1455L18.0971 14.5305L18.633 15.2015L21.1361 18.3649L20.7524 18.8427C19.3442 20.5954 16.7672 21.728 14.1842 21.728Z" fill="url(#paint0_linear_19900_216406)"/>
</g>
<g filter="url(#filter1_dd_19900_216406)">
<path d="M25.9936 26C32.6426 26 37.9911 20.6504 37.9911 14C37.9911 7.3496 32.6426 2 25.9936 2C19.3446 2 13.9961 7.3496 13.9961 14C13.9961 20.6504 19.3446 26 25.9936 26Z" fill="#2775CA" stroke="white" stroke-width="0.470002"/>
<path d="M29.318 15.8937C29.318 14.1441 28.2683 13.5441 26.1687 13.2933C24.669 13.0929 24.3691 12.6933 24.3691 11.9937C24.3691 11.2941 24.8694 10.8441 25.8688 10.8441C26.7686 10.8441 27.2689 11.1441 27.5184 11.8941C27.5688 12.0441 27.7188 12.1437 27.8688 12.1437H28.669C28.8693 12.1437 29.0193 11.9937 29.0193 11.7933V11.7429C28.8189 10.6425 27.9191 9.79294 26.7698 9.69334V8.49335C26.7698 8.29295 26.6198 8.14295 26.3703 8.09375H25.6204C25.4201 8.09375 25.2701 8.24375 25.2209 8.49335V9.64294C23.7213 9.84334 22.7711 10.8429 22.7711 12.0933C22.7711 13.7433 23.7704 14.3937 25.87 14.6433C27.2701 14.8929 27.72 15.1929 27.72 15.9933C27.72 16.7937 27.0205 17.3433 26.0703 17.3433C24.771 17.3433 24.3211 16.7937 24.1712 16.0437C24.1208 15.8433 23.9708 15.7437 23.8208 15.7437H22.9714C22.7711 15.7437 22.6211 15.8937 22.6211 16.0941V16.1445C22.8215 17.3949 23.6205 18.2949 25.2701 18.5445V19.7445C25.2701 19.9449 25.4201 20.0949 25.6696 20.1441H26.4195C26.6198 20.1441 26.7698 19.9941 26.819 19.7445V18.5445C28.3175 18.2937 29.318 17.2437 29.318 15.8937Z" fill="white"/>
<path fill-rule="evenodd" clip-rule="evenodd" d="M18.9974 11.5492C17.5469 15.3988 19.5469 19.7488 23.4461 21.1492C23.5961 21.25 23.746 21.4492 23.746 21.6004V22.3C23.746 22.4008 23.746 22.45 23.6957 22.5004C23.6453 22.7008 23.4461 22.8004 23.2457 22.7008C20.4467 21.8008 18.2967 19.6504 17.3969 16.8508C15.8972 12.1 18.4971 7.0504 23.2457 5.5504C23.2961 5.5 23.3957 5.5 23.4461 5.5C23.6465 5.5492 23.746 5.6992 23.746 5.8996V6.5992C23.746 6.85 23.6465 7 23.4461 7.0996C21.3969 7.8496 19.7472 9.44919 18.9974 11.5492ZM28.2887 5.74726C28.3391 5.54686 28.5382 5.44726 28.7386 5.54686C31.4884 6.44686 33.6876 8.59726 34.5874 11.4461C36.0871 16.1969 33.4872 21.2465 28.7386 22.7465C28.6882 22.7969 28.5886 22.7969 28.5382 22.7969C28.3379 22.7477 28.2383 22.5977 28.2383 22.3973V21.6977C28.2383 21.4469 28.3379 21.2969 28.5382 21.1973C30.5874 20.4473 32.2371 18.8477 32.9869 16.7477C34.4374 12.8981 32.4374 8.54806 28.5382 7.14766C28.3883 7.04686 28.2383 6.84766 28.2383 6.64726V5.94766C28.2383 5.84686 28.2383 5.79766 28.2887 5.74726Z" fill="white"/>
</g>
<g filter="url(#filter2_dd_19900_216406)">
<path d="M37.9883 26C44.6157 26 49.9883 20.6274 49.9883 14C49.9883 7.37258 44.6157 2 37.9883 2C31.3609 2 25.9883 7.37258 25.9883 14C25.9883 20.6274 31.3609 26 37.9883 26Z" fill="#FFE14D"/>
<path d="M49.9882 14C49.9882 7.38317 44.6051 2 37.9883 2V26C44.6051 26 49.9882 20.6168 49.9882 14Z" fill="#FFE14D"/>
<path d="M37.9961 23.1406C32.9561 23.1406 28.8555 19.04 28.8555 14C28.8555 8.96 32.9561 4.85938 37.9961 4.85938C43.0361 4.85938 47.1366 8.96 47.1366 14C47.1366 19.04 43.0361 23.1406 37.9961 23.1406Z" fill="#FFBB33"/>
<path d="M47.1289 14C47.1289 8.96 43.0283 4.85938 37.9883 4.85938V23.1406C43.0283 23.1406 47.1289 19.04 47.1289 14Z" fill="#FFBB33"/>
<path fill-rule="evenodd" clip-rule="evenodd" d="M38.7148 13.346V10.566C39.5235 10.7644 40.1211 11.2847 40.1211 11.8828C40.1211 12.2714 40.4356 12.5859 40.8242 12.5859C41.2128 12.5859 41.5273 12.2714 41.5273 11.8828C41.5273 10.5243 40.3179 9.38841 38.7148 9.12722V8.36719C38.7148 7.97855 38.4004 7.66406 38.0117 7.66406C37.6231 7.66406 37.3086 7.97855 37.3086 8.36719V9.12722C35.7055 9.38841 34.4961 10.5243 34.4961 11.8828C34.4961 13.2413 35.7055 14.3772 37.3086 14.6384V17.4183C36.4999 17.2199 35.9023 16.6996 35.9023 16.1015C35.9023 15.7129 35.5879 15.3984 35.1992 15.3984C34.8106 15.3984 34.4961 15.7129 34.4961 16.1015C34.4961 17.4601 35.7055 18.5959 37.3086 18.8571V19.624C37.3086 20.0126 37.6231 20.327 38.0117 20.327C38.4004 20.327 38.7148 20.0126 38.7148 19.624V18.8571C40.3179 18.5959 41.5273 17.4601 41.5273 16.1015C41.5273 14.743 40.3179 13.6071 38.7148 13.346ZM35.8845 11.8839C35.8845 11.2855 36.482 10.7649 37.2907 10.5664V13.2014C36.482 13.0028 35.8845 12.4822 35.8845 11.8839ZM40.1266 16.1027C40.1266 15.5043 39.5291 14.9837 38.7204 14.7852V17.4202C39.5291 17.2217 40.1266 16.7011 40.1266 16.1027Z" fill="#FFF1AA"/>
<path fill-rule="evenodd" clip-rule="evenodd" d="M38.6914 18.8571V19.624C38.6914 20.0126 38.3769 20.327 37.9883 20.327V7.66406C38.3769 7.66406 38.6914 7.97855 38.6914 8.36719V9.12722C40.2944 9.38841 41.5038 10.5243 41.5038 11.8828C41.5038 12.2714 41.1893 12.5859 40.8007 12.5859C40.4121 12.5859 40.0976 12.2714 40.0976 11.8828C40.0976 11.2847 39.5001 10.7644 38.6914 10.566V13.346C40.2944 13.6071 41.5038 14.743 41.5038 16.1015C41.5038 17.4601 40.2944 18.5959 38.6914 18.8571ZM40.0798 16.1027C40.0798 15.5043 39.4822 14.9837 38.6735 14.7852V17.4202C39.4822 17.2217 40.0798 16.7011 40.0798 16.1027Z" fill="#FFF1AA"/>
</g>
<defs>
<filter id="filter0_dd_19900_216406" x="0" y="1" width="27.9961" height="28" filterUnits="userSpaceOnUse" color-interpolation-filters="sRGB">
<feFlood flood-opacity="0" result="BackgroundImageFix"/>
<feColorMatrix in="SourceAlpha" type="matrix" values="0 0 0 0 0 0 0 0 0 0 0 0 0 0 0 0 0 0 127 0" result="hardAlpha"/>
<feMorphology radius="1" operator="dilate" in="SourceAlpha" result="effect1_dropShadow_19900_216406"/>
<feOffset/>
<feColorMatrix type="matrix" values="0 0 0 0 0 0 0 0 0 0 0 0 0 0 0 0 0 0 0.05 0"/>
<feBlend mode="normal" in2="BackgroundImageFix" result="effect1_dropShadow_19900_216406"/>
<feColorMatrix in="SourceAlpha" type="matrix" values="0 0 0 0 0 0 0 0 0 0 0 0 0 0 0 0 0 0 127 0" result="hardAlpha"/>
<feOffset dy="1"/>
<feGaussianBlur stdDeviation="1"/>
<feColorMatrix type="matrix" values="0 0 0 0 0 0 0 0 0 0 0 0 0 0 0 0 0 0 0.12 0"/>
<feBlend mode="normal" in2="effect1_dropShadow_19900_216406" result="effect2_dropShadow_19900_216406"/>
<feBlend mode="normal" in="SourceGraphic" in2="effect2_dropShadow_19900_216406" result="shape"/>
</filter>
<filter id="filter1_dd_19900_216406" x="11.7617" y="0.765625" width="28.4648" height="28.4688" filterUnits="userSpaceOnUse" color-interpolation-filters="sRGB">
<feFlood flood-opacity="0" result="BackgroundImageFix"/>
<feColorMatrix in="SourceAlpha" type="matrix" values="0 0 0 0 0 0 0 0 0 0 0 0 0 0 0 0 0 0 127 0" result="hardAlpha"/>
<feMorphology radius="1" operator="dilate" in="SourceAlpha" result="effect1_dropShadow_19900_216406"/>
<feOffset/>
<feColorMatrix type="matrix" values="0 0 0 0 0 0 0 0 0 0 0 0 0 0 0 0 0 0 0.05 0"/>
<feBlend mode="normal" in2="BackgroundImageFix" result="effect1_dropShadow_19900_216406"/>
<feColorMatrix in="SourceAlpha" type="matrix" values="0 0 0 0 0 0 0 0 0 0 0 0 0 0 0 0 0 0 127 0" result="hardAlpha"/>
<feOffset dy="1"/>
<feGaussianBlur stdDeviation="1"/>
<feColorMatrix type="matrix" values="0 0 0 0 0 0 0 0 0 0 0 0 0 0 0 0 0 0 0.12 0"/>
<feBlend mode="normal" in2="effect1_dropShadow_19900_216406" result="effect2_dropShadow_19900_216406"/>
<feBlend mode="normal" in="SourceGraphic" in2="effect2_dropShadow_19900_216406" result="shape"/>
</filter>
<filter id="filter2_dd_19900_216406" x="23.9883" y="1" width="28" height="28" filterUnits="userSpaceOnUse" color-interpolation-filters="sRGB">
<feFlood flood-opacity="0" result="BackgroundImageFix"/>
<feColorMatrix in="SourceAlpha" type="matrix" values="0 0 0 0 0 0 0 0 0 0 0 0 0 0 0 0 0 0 127 0" result="hardAlpha"/>
<feMorphology radius="1" operator="dilate" in="SourceAlpha" result="effect1_dropShadow_19900_216406"/>
<feOffset/>
<feColorMatrix type="matrix" values="0 0 0 0 0 0 0 0 0 0 0 0 0 0 0 0 0 0 0.05 0"/>
<feBlend mode="normal" in2="BackgroundImageFix" result="effect1_dropShadow_19900_216406"/>
<feColorMatrix in="SourceAlpha" type="matrix" values="0 0 0 0 0 0 0 0 0 0 0 0 0 0 0 0 0 0 127 0" result="hardAlpha"/>
<feOffset dy="1"/>
<feGaussianBlur stdDeviation="1"/>
<feColorMatrix type="matrix" values="0 0 0 0 0 0 0 0 0 0 0 0 0 0 0 0 0 0 0.12 0"/>
<feBlend mode="normal" in2="effect1_dropShadow_19900_216406" result="effect2_dropShadow_19900_216406"/>
<feBlend mode="normal" in="SourceGraphic" in2="effect2_dropShadow_19900_216406" result="shape"/>
</filter>
<linearGradient id="paint0_linear_19900_216406" x1="15.4066" y1="1.66053" x2="2.481" y2="11.66" gradientUnits="userSpaceOnUse">
<stop offset="0.0733" stop-color="#F46881"/>
<stop offset="0.083" stop-color="#F36682"/>
<stop offset="0.2596" stop-color="#E74596"/>
<stop offset="0.407" stop-color="#E031A2"/>
<stop offset="0.5065" stop-color="#DD2AA6"/>
<stop offset="0.8882" stop-color="#5210E2"/>
</linearGradient>
</defs>
</svg>
