<svg width="18" height="17" viewBox="0 0 18 17" fill="none" xmlns="http://www.w3.org/2000/svg">
<path fill-rule="evenodd" clip-rule="evenodd" d="M2.33268 8.60482C2.33268 4.92292 5.31745 1.93815 8.99935 1.93815C12.6812 1.93815 15.666 4.92292 15.666 8.60482C15.666 12.2867 12.6812 15.2715 8.99935 15.2715C5.31745 15.2715 2.33268 12.2867 2.33268 8.60482ZM8.99935 0.271484C4.39698 0.271484 0.666016 4.00245 0.666016 8.60482C0.666016 13.2072 4.39698 16.9382 8.99935 16.9382C13.6017 16.9382 17.3327 13.2072 17.3327 8.60482C17.3327 4.00245 13.6017 0.271484 8.99935 0.271484ZM6.4645 4.6364C6.96886 4.07981 7.80672 3.4538 8.99934 3.45381C10.1859 3.45381 11.1151 4.0595 11.6528 4.94157C12.178 5.80314 12.3211 6.90297 12.063 7.95968C11.8367 8.88633 11.0813 9.62807 10.5384 10.0758C10.2464 10.3166 9.96768 10.5108 9.7625 10.6446C9.65935 10.7119 9.57338 10.7648 9.5118 10.8017C9.48097 10.8202 9.45616 10.8348 9.43824 10.8451L9.41663 10.8575L9.40988 10.8613L9.40757 10.8626L9.40667 10.8631L9.40629 10.8633C9.40612 10.8634 9.40596 10.8635 8.99934 10.1361L9.40596 10.8635C9.00423 11.0881 8.49652 10.9445 8.27194 10.5427C8.04757 10.1414 8.19074 9.63418 8.59168 9.40932L8.59182 9.40924L8.59218 9.40903L8.59239 9.40892L8.59243 9.40889L8.59272 9.40873L8.5932 9.40845L8.60414 9.40217C8.61479 9.39602 8.63194 9.386 8.65475 9.37232C8.70044 9.34493 8.76842 9.30312 8.85198 9.24862C9.02021 9.13889 9.24595 8.98138 9.47804 8.78998C9.98344 8.37317 10.3551 7.92784 10.4439 7.56428C10.6087 6.88967 10.4997 6.25209 10.2297 5.80907C9.97209 5.38655 9.5628 5.12048 8.99933 5.12047C8.44195 5.12047 8.01872 5.4033 7.69952 5.75555C7.54139 5.93005 7.42292 6.10755 7.34439 6.24173C7.30561 6.30799 7.27789 6.36142 7.26105 6.39554C7.25266 6.41253 7.24707 6.42454 7.24425 6.43071L7.24228 6.43508C7.06081 6.85562 6.57349 7.05113 6.15137 6.87182C5.72777 6.69187 5.53024 6.2026 5.71019 5.779L6.47718 6.10482C5.71019 5.779 5.71032 5.77869 5.71045 5.77837L5.71074 5.77769L5.71138 5.77621L5.71287 5.77274L5.71678 5.76378L5.72831 5.7381C5.73766 5.71765 5.75037 5.6906 5.76651 5.65789C5.79873 5.5926 5.84501 5.50403 5.90596 5.39988C6.0269 5.19325 6.21084 4.91632 6.4645 4.6364ZM9.83268 13.189C9.83268 13.6489 9.45958 14.0218 8.99934 14.0218C8.53911 14.0218 8.16601 13.6489 8.16601 13.189C8.16601 12.729 8.53911 12.3562 8.99934 12.3562C9.45958 12.3562 9.83268 12.729 9.83268 13.189Z" fill="#454545"/>
</svg>
