<svg width="16" height="15" viewBox="0 0 16 15" fill="none" xmlns="http://www.w3.org/2000/svg">
<path d="M6.75436 3.87134V0C6.34303 0 6.25431 0.0806529 5.98816 0.500048C5.81072 0.782333 5.35906 1.31464 4.98 1.70178C4.60093 2.08084 4.03636 2.5567 3.72988 2.76639C3.42339 2.96803 2.91528 3.24225 2.60074 3.37129C2.29425 3.50033 1.85873 3.64551 1.6329 3.70197C1.41514 3.75842 0.955417 3.83101 0.62474 3.86327C0.132758 3.9036 0.019844 3.93586 0.0037134 4.05684C-0.0204825 4.17782 0.0601704 4.19395 0.648936 4.21814L1.31029 4.23428C1.39094 12.7512 1.39901 12.8722 1.56838 13.3077C1.68129 13.59 1.87486 13.8723 2.10875 14.0981C2.35878 14.3239 2.633 14.4853 2.93948 14.582C3.31048 14.6869 3.69761 14.7191 4.73804 14.7191C5.7462 14.7111 6.19785 14.6788 6.59305 14.574C6.8834 14.4933 7.31086 14.3401 7.54476 14.2352C7.77059 14.1223 8.15772 13.8562 8.38355 13.6384C8.61744 13.4206 8.90779 13.0496 9.02877 12.8157C9.14975 12.5738 9.29492 12.1625 9.35945 11.8963C9.43203 11.6301 9.50462 11.2591 9.52882 11.0736C9.56914 10.7752 9.55301 10.7268 9.4401 10.7268C9.32719 10.7268 9.27879 10.8155 9.23847 11.1059C9.20621 11.3237 9.10136 11.7108 9.01264 11.977C8.91586 12.2431 8.75455 12.6141 8.6497 12.8077C8.53679 12.9932 8.32709 13.2351 8.18998 13.3481C8.0448 13.461 7.77865 13.5739 7.60121 13.5981C7.41571 13.6303 7.19795 13.6142 7.10117 13.5577C6.98825 13.5094 6.8834 13.3481 6.83501 13.1706C6.78662 12.9851 6.75436 11.1462 6.75436 8.53307V4.19395C9.14975 4.19395 9.2546 4.18588 9.2304 4.04877C9.21427 3.92779 9.08523 3.91166 7.98028 3.89553L6.75436 3.87134Z" fill="#454545"/>
<path d="M14.3357 0.250024C13.997 0.104849 13.7228 0.0483917 13.2066 0.0322611C12.8275 0.0161306 12.3839 0.0403264 12.2146 0.0806529C12.0533 0.129045 11.7468 0.250024 11.529 0.354873C11.3193 0.459721 10.9967 0.709745 10.8112 0.903312C10.6257 1.08881 10.3918 1.43562 10.295 1.65338C10.1902 1.89534 10.1015 2.28248 10.0773 2.62122C10.0611 2.97609 10.0934 3.38742 10.174 3.73423C10.2466 4.03264 10.416 4.50043 10.5531 4.78272C10.6983 5.05693 11.1096 5.71829 11.4726 6.2506C11.8436 6.78291 12.2791 7.50878 12.4485 7.86365C12.6178 8.22659 12.7872 8.74277 12.8356 9.05732C12.9082 9.48478 12.9566 9.59769 13.0695 9.59769C13.1663 9.59769 13.2066 9.53317 13.2066 9.37993C13.2066 9.25088 13.263 8.93634 13.3276 8.67018C13.4002 8.40403 13.5857 7.92818 13.7389 7.6217C13.9002 7.31522 14.2954 6.67806 14.618 6.21027C14.9326 5.74248 15.3278 5.10533 15.481 4.79885C15.6342 4.49236 15.8036 4.07297 15.852 3.87134C15.9004 3.66971 15.9569 3.34709 15.9891 3.14546C16.0133 2.94383 15.9972 2.56476 15.9407 2.29861C15.8923 2.03245 15.7552 1.63725 15.6423 1.41949C15.5213 1.20173 15.2794 0.895247 15.1019 0.742006C14.9245 0.580701 14.5777 0.362938 14.3357 0.250024Z" fill="#454545"/>
<path d="M14.2147 10.1945C13.9889 10.13 13.5373 10.0574 13.2066 10.0413C12.8275 10.0171 12.4081 10.0493 12.0774 10.1219C11.7871 10.1945 11.408 10.3316 11.2306 10.4365C11.0532 10.5413 10.8031 10.7349 10.6741 10.8559C10.5531 10.9849 10.3757 11.2349 10.287 11.4124C10.1902 11.5898 10.1015 11.9366 10.0773 12.1786C10.0531 12.4609 10.0853 12.7835 10.166 13.0658C10.2386 13.3077 10.3999 13.6384 10.5289 13.7916C10.658 13.9449 10.9725 14.1868 11.2387 14.332C11.4967 14.4691 11.9484 14.6304 12.2388 14.6869C12.5372 14.7433 13.013 14.7675 13.3276 14.7353C13.634 14.7111 14.1099 14.6143 14.3761 14.5256C14.6422 14.4288 14.989 14.2514 15.1423 14.1223C15.2955 14.0013 15.5294 13.7352 15.6504 13.5416C15.8197 13.2755 15.8923 13.0496 15.9246 12.6222C15.9569 12.2592 15.9327 11.9447 15.8681 11.735C15.8117 11.5576 15.6665 11.2753 15.5536 11.0978C15.4407 10.9285 15.1826 10.6865 14.981 10.5575C14.7793 10.4204 14.4325 10.259 14.2147 10.1945Z" fill="#454545"/>
</svg>
