<svg width="16" height="19" viewBox="0 0 16 19" fill="none" xmlns="http://www.w3.org/2000/svg">
<path fill-rule="evenodd" clip-rule="evenodd" d="M13.8036 12.3333H2.19737C2.40558 10.9711 2.89949 8.40394 3.88525 6.18617C4.91628 3.86654 6.29432 2.33332 8.08716 2.33332C9.87601 2.33332 11.2255 3.86256 12.2185 6.18605C13.1679 8.40718 13.6188 10.9768 13.8036 12.3333ZM8.08716 0.666656C5.17466 0.666656 3.39338 3.14221 2.33787 5.51692C1.2491 7.96645 0.729209 10.7436 0.518756 12.137C0.365048 13.1546 1.17765 14 2.16578 14H13.8326C14.8076 14 15.6211 13.1744 15.4851 12.1628C15.2986 10.7755 14.825 7.99427 13.7754 5.53856C12.7581 3.15846 11.0108 0.666656 8.08716 0.666656ZM3.93068 16.1743C4.11309 15.7509 4.60925 15.5535 5.03857 15.7332L5.04118 15.7343L5.05482 15.7399C5.06749 15.7451 5.08717 15.7531 5.11325 15.7635C5.16543 15.7844 5.24302 15.8148 5.34103 15.8516C5.53756 15.9253 5.81358 16.0238 6.1298 16.122C6.78462 16.3253 7.52706 16.5002 8.08736 16.5002C8.64766 16.5002 9.39009 16.3253 10.0449 16.122C10.3611 16.0238 10.6372 15.9253 10.8337 15.8516C10.9317 15.8148 11.0093 15.7844 11.0615 15.7635C11.0875 15.7531 11.1072 15.7451 11.1199 15.7399L11.1335 15.7343L11.1363 15.7332C11.5657 15.5533 12.0616 15.7508 12.244 16.1743C12.4265 16.5979 12.2261 17.0873 11.7967 17.2673C11.7968 17.2672 11.7969 17.2672 11.4665 16.5002L11.7967 17.2673L11.7939 17.2684L11.788 17.2709L11.7678 17.2792C11.7507 17.2862 11.7263 17.2961 11.6953 17.3085C11.6333 17.3332 11.5447 17.3679 11.4346 17.4093C11.2149 17.4917 10.9069 17.6016 10.5522 17.7118C9.86523 17.9251 8.91808 18.1669 8.08736 18.1669C7.25663 18.1669 6.30948 17.9251 5.62247 17.7118C5.26778 17.6016 4.95983 17.4917 4.74011 17.4093C4.63 17.3679 4.5414 17.3332 4.47942 17.3085C4.44842 17.2961 4.42403 17.2862 4.40689 17.2792L4.38669 17.2709L4.38081 17.2684L4.37781 17.2672L4.70819 16.5002C4.37781 17.2672 4.3777 17.2671 4.37781 17.2672C3.94841 17.0872 3.74822 16.5979 3.93068 16.1743Z" fill="#454545"/>
</svg>
