<svg width="12" height="12" viewBox="0 0 12 12" fill="none" xmlns="http://www.w3.org/2000/svg">
<path fill-rule="evenodd" clip-rule="evenodd" d="M5.64359 0.0421424C5.31698 0.131605 5.19503 0.220076 4.709 0.719992C4.41502 1.02239 4.24412 1.18035 4.19875 1.19162C4.16123 1.20092 3.90857 1.18535 3.63727 1.15697C3.05588 1.09615 2.86336 1.09332 2.65668 1.14255C2.18138 1.25582 1.76491 1.67048 1.64017 2.15462C1.62045 2.23109 1.58727 2.5344 1.56641 2.82868C1.5449 3.13197 1.51365 3.40557 1.49425 3.46033C1.46341 3.54745 1.41361 3.58896 0.987916 3.88257C0.728274 4.06166 0.455514 4.27053 0.381805 4.34674C0.135231 4.60162 0.00214842 4.93703 4.58548e-05 5.30896C-0.00217617 5.70695 0.0751408 5.88921 0.498377 6.48371C0.670262 6.72516 0.822483 6.94454 0.836604 6.97121C0.883147 7.05915 0.863841 7.17438 0.716733 7.6871C0.501245 8.43804 0.497804 8.72758 0.69934 9.14832C0.795508 9.34913 1.07763 9.63778 1.28514 9.74768C1.38425 9.80016 1.62757 9.8768 2.02061 9.9793C2.34835 10.0648 2.62763 10.1505 2.65248 10.1732C2.67697 10.1956 2.80257 10.4492 2.93162 10.7368C3.06064 11.0243 3.2077 11.3224 3.25845 11.3992C3.51601 11.7891 3.98758 12.0211 4.46439 11.9925C4.73144 11.9764 4.85857 11.9314 5.44029 11.6471C5.7055 11.5175 5.94904 11.4135 5.99128 11.412C6.04212 11.4101 6.24194 11.4937 6.60054 11.6669C6.894 11.8087 7.1982 11.9412 7.27652 11.9615C7.80825 12.0991 8.43725 11.8575 8.73997 11.3992C8.79072 11.3224 8.93778 11.0243 9.0668 10.7368C9.19585 10.4492 9.32052 10.1965 9.34389 10.1751C9.36728 10.1537 9.63763 10.0712 9.9447 9.99177C10.6485 9.80968 10.7913 9.74454 11.0402 9.49212C11.2457 9.28368 11.3478 9.09937 11.4129 8.81984C11.4778 8.54059 11.4501 8.30382 11.2814 7.69915C11.1345 7.17248 11.1157 7.05826 11.1618 6.97121C11.1759 6.94454 11.3271 6.72623 11.4978 6.48607C11.6684 6.2459 11.8344 5.99691 11.8665 5.93273C11.96 5.74632 11.9999 5.55827 12 5.30413C12.0001 5.10948 11.9887 5.03719 11.9311 4.86832C11.8531 4.63964 11.7368 4.44927 11.5855 4.30239C11.5289 4.24742 11.2837 4.06639 11.0406 3.90008C10.7975 3.73376 10.5729 3.56991 10.5415 3.53593C10.4874 3.47748 10.482 3.44214 10.4397 2.87549C10.4031 2.38461 10.384 2.2415 10.3337 2.0805C10.1524 1.50105 9.62224 1.10714 9.02165 1.10574C8.92966 1.10554 8.63243 1.12859 8.36115 1.15697C8.08985 1.18535 7.83719 1.201 7.79967 1.19177C7.75416 1.18056 7.58431 1.02359 7.28942 0.72021C6.83288 0.250485 6.73845 0.177084 6.45604 0.0724059C6.23076 -0.0110905 5.88493 -0.0239881 5.64359 0.0421424ZM8.39174 4.11939C8.48007 4.16576 8.54393 4.22276 8.59722 4.30275C8.74291 4.52146 8.75562 4.7255 8.63726 4.94534C8.59473 5.02434 8.1418 5.49697 7.1976 6.4476C5.67843 7.97713 5.7156 7.94568 5.33021 8.02766C5.03196 8.09108 4.69904 8.0292 4.43423 7.86107C4.25853 7.74951 3.43881 6.92517 3.36231 6.78311C3.1392 6.36872 3.42001 5.88653 3.88341 5.88822C4.12162 5.88909 4.19564 5.93858 4.66198 6.40854L5.08084 6.83069L6.42383 5.48861C7.38944 4.52366 7.7954 4.13342 7.86858 4.09982C8.02513 4.02802 8.23249 4.03574 8.39174 4.11939Z" fill="#FA0C58"/>
</svg>
