<svg width="36" height="37" viewBox="0 0 36 37" fill="none" xmlns="http://www.w3.org/2000/svg">
<g clip-path="url(#clip0_18728_177138)">
<path d="M18 36.2793C27.9408 36.2793 36 28.236 36 18.2793C36 8.32261 27.9053 0.279297 18 0.279297C8.05917 0.279297 0 8.32261 0 18.2793C0 28.236 8.05917 36.2793 18 36.2793Z" fill="#3CBCAC" fill-opacity="0.07"/>
<g clip-path="url(#clip1_18728_177138)">
<path fill-rule="evenodd" clip-rule="evenodd" d="M11.4705 22.1955C11.251 22.2828 11.0384 22.5016 10.9566 22.7244C10.8997 22.8792 10.8909 22.9865 10.8909 23.5237V24.1443H14.4379H17.9849V23.5228C17.9849 22.9854 17.9761 22.8778 17.9197 22.7267C17.8336 22.4959 17.6219 22.2795 17.399 22.1945C17.2287 22.1296 17.1403 22.1277 14.4284 22.1292C11.749 22.1307 11.6266 22.1334 11.4705 22.1955ZM9.57109 25.2381C9.57109 25.8194 9.57225 25.829 9.65209 25.9103L9.73306 25.9928H14.4379H19.1427L19.2237 25.9103C19.3035 25.829 19.3047 25.8194 19.3047 25.2381V24.6484H14.4379H9.57109V25.2381Z" fill="#3CBCAC"/>
<g filter="url(#filter0_b_18728_177138)">
<path fill-rule="evenodd" clip-rule="evenodd" d="M14.9653 10.6993C14.8242 10.7414 14.6908 10.8427 14.6215 10.9602C14.5838 11.0241 14.4942 11.242 14.4223 11.4443C14.3022 11.782 14.2946 11.8187 14.3296 11.8911C14.3643 11.963 14.5344 12.0551 14.7255 12.1055C14.7708 12.1175 14.7713 12.1273 14.7319 12.2379C14.7086 12.3036 14.6992 12.3665 14.7111 12.3776C14.7344 12.3994 18.1176 13.5956 18.1958 13.6096C18.2284 13.6155 18.2545 13.5847 18.2815 13.5085C18.3028 13.4482 18.3249 13.3942 18.3306 13.3886C18.3363 13.3829 18.409 13.404 18.4922 13.4354C18.6833 13.5075 18.803 13.5083 18.8672 13.4379C18.9314 13.3675 19.1613 12.7342 19.1821 12.5707C19.2075 12.3708 19.1496 12.212 18.999 12.068C18.8552 11.9305 19.0878 12.0186 16.0746 10.9609C15.2596 10.6747 15.1409 10.6467 14.9653 10.6993ZM13.9944 12.7217C13.9282 12.8052 12.9111 15.6416 12.9111 15.7426C12.9111 15.783 12.9349 15.8388 12.9639 15.8666C13.0477 15.9467 17.2959 17.4344 17.3808 17.4133C17.4193 17.4037 17.4678 17.3691 17.4884 17.3364C17.5538 17.2328 18.5541 14.4036 18.5542 14.322C18.5542 14.279 18.5345 14.2242 18.5103 14.2002C18.4529 14.1433 14.2312 12.6545 14.1271 12.6545C14.0766 12.6545 14.0281 12.679 13.9944 12.7217ZM18.4315 15.9926C18.3189 16.3077 18.232 16.57 18.2382 16.5755C18.261 16.5955 20.0162 17.2081 20.0252 17.1992C20.0303 17.1941 20.1286 16.933 20.2436 16.619C20.3998 16.1925 20.4437 16.043 20.4173 16.028C20.3557 15.9932 18.711 15.4196 18.6727 15.4196C18.6506 15.4196 18.5554 15.6457 18.4315 15.9926ZM20.9253 16.0011C20.8985 16.0442 20.3736 17.4942 20.3738 17.5248C20.3738 17.5421 21.651 18.0067 23.2119 18.5573C25.9916 19.5377 26.0515 19.5573 26.133 19.5155C26.2082 19.4769 26.2383 19.4114 26.4459 18.8348C26.5722 18.4838 26.6755 18.1711 26.6755 18.1397C26.6755 18.1084 26.647 18.0563 26.6122 18.0239C26.5729 17.9873 25.5232 17.6033 23.8481 17.0126C22.3626 16.4889 21.1003 16.0422 21.0429 16.02C20.9856 15.9978 20.9327 15.9893 20.9253 16.0011ZM13.1999 16.5218C13.1842 16.5628 13.1714 16.6085 13.1714 16.6233C13.1714 16.6782 13.0911 16.6778 12.9433 16.6221C12.7577 16.552 12.6887 16.5503 12.612 16.6136C12.5421 16.6714 12.2711 17.4166 12.2711 17.5511C12.2711 17.7545 12.3773 17.9595 12.5401 18.0703C12.5903 18.1044 13.4308 18.4143 14.4079 18.759C16.3419 19.4413 16.3522 19.4439 16.5948 19.3274C16.7871 19.235 16.8673 19.1111 17.026 18.6619C17.1639 18.2715 17.1682 18.2509 17.1278 18.1666C17.0948 18.0979 17.0529 18.0681 16.9361 18.0302C16.6796 17.9471 16.682 17.9496 16.7343 17.8198C16.7592 17.7581 16.7722 17.7004 16.7634 17.6916C16.7458 17.6741 13.4016 16.4904 13.2944 16.4636C13.2414 16.4504 13.2229 16.4618 13.1999 16.5218Z" fill="#3CBCAC"/>
</g>
</g>
</g>
<defs>
<filter id="filter0_b_18728_177138" x="-27.7289" y="-29.3223" width="94.4044" height="88.8496" filterUnits="userSpaceOnUse" color-interpolation-filters="sRGB">
<feFlood flood-opacity="0" result="BackgroundImageFix"/>
<feGaussianBlur in="BackgroundImageFix" stdDeviation="20"/>
<feComposite in2="SourceAlpha" operator="in" result="effect1_backgroundBlur_18728_177138"/>
<feBlend mode="normal" in="SourceGraphic" in2="effect1_backgroundBlur_18728_177138" result="shape"/>
</filter>
<clipPath id="clip0_18728_177138">
<rect width="36" height="36" fill="white" transform="translate(0 0.279297)"/>
</clipPath>
<clipPath id="clip1_18728_177138">
<rect width="17.1481" height="17.0182" fill="white" transform="translate(9.56335 9.76953)"/>
</clipPath>
</defs>
</svg>
