<svg width="36" height="37" viewBox="0 0 36 37" fill="none" xmlns="http://www.w3.org/2000/svg">
<g clip-path="url(#clip0_18728_177147)">
<path d="M18 36.2793C27.9408 36.2793 36 28.236 36 18.2793C36 8.32261 27.9053 0.279297 18 0.279297C8.05917 0.279297 0 8.32261 0 18.2793C0 28.236 8.05917 36.2793 18 36.2793Z" fill="#FA0C58" fill-opacity="0.03"/>
<path fill-rule="evenodd" clip-rule="evenodd" d="M11.5626 12.1202C11.1202 12.319 11.0903 12.8925 11.5094 13.1427L11.6387 13.2198L12.3712 13.2277C13.0434 13.2349 13.1074 13.2394 13.1478 13.2825C13.1819 13.3188 13.2993 14.0393 13.6661 16.4614C14.0143 18.7615 14.158 19.6475 14.2073 19.7972C14.378 20.316 14.8572 20.7412 15.414 20.8679C15.6612 20.9241 22.1706 20.9241 22.4482 20.8679C23.0188 20.7523 23.5265 20.2977 23.6944 19.7523C23.7522 19.5644 24.7335 14.8132 24.7328 14.7244C24.7321 14.6308 24.6454 14.4397 24.5666 14.3582C24.5349 14.3253 24.4613 14.2737 24.4032 14.2435L24.2975 14.1886L19.4233 14.1759L14.549 14.1631L14.4903 13.7807C14.3956 13.1635 14.3526 12.9758 14.2659 12.7997C14.1581 12.5809 13.8704 12.3014 13.6509 12.2025C13.3775 12.0792 13.2178 12.0608 12.4223 12.0606C11.7152 12.0604 11.6922 12.062 11.5626 12.1202ZM15.8712 21.4728C15.2467 21.5492 14.6919 22.0339 14.5468 22.6299C14.489 22.8676 14.5084 23.2547 14.5894 23.4775C14.8047 24.0702 15.391 24.4754 16.0333 24.4754C16.4599 24.4754 16.7947 24.3373 17.1126 24.0303C17.4499 23.7046 17.5739 23.421 17.5739 22.9759C17.5739 22.6882 17.523 22.4799 17.3992 22.2609C17.2774 22.0455 17.1748 21.9259 16.9959 21.7904C16.6571 21.534 16.2683 21.4242 15.8712 21.4728ZM21.2726 21.4701C20.6549 21.5344 20.1209 21.9705 19.9426 22.5561C19.8336 22.9143 19.8723 23.3056 20.0518 23.6596C20.1739 23.9001 20.471 24.1976 20.7095 24.3178C21.3208 24.6259 22.0413 24.5309 22.5402 24.0763C22.7398 23.8945 22.86 23.7141 22.9566 23.4514C23.0545 23.185 23.0538 22.817 22.9546 22.5251C22.7164 21.8241 22.0268 21.3915 21.2726 21.4701Z" fill="#FA0C58"/>
</g>
<defs>
<clipPath id="clip0_18728_177147">
<rect width="36" height="36" fill="white" transform="translate(0 0.279297)"/>
</clipPath>
</defs>
</svg>
