<svg width="36" height="37" viewBox="0 0 36 37" fill="none" xmlns="http://www.w3.org/2000/svg">
<g clip-path="url(#clip0_18728_177131)">
<path d="M18 36.2793C27.9408 36.2793 36 28.236 36 18.2793C36 8.32261 27.9053 0.279297 18 0.279297C8.05917 0.279297 0 8.32261 0 18.2793C0 28.236 8.05917 36.2793 18 36.2793Z" fill="#7F38F3" fill-opacity="0.07"/>
<path fill-rule="evenodd" clip-rule="evenodd" d="M17.0929 12.5834C14.5275 12.7885 11.7321 14.3599 9.35249 16.9347C8.34149 18.0286 8.25 18.165 8.25 18.578C8.25 18.9911 8.34149 19.1274 9.35249 20.2214C11.5621 22.6122 14.0885 24.1187 16.5424 24.5085C17.0941 24.5961 18.1559 24.5961 18.7076 24.5085C21.1615 24.1187 23.6879 22.6122 25.8975 20.2214C26.9085 19.1274 27 18.9911 27 18.578C27 18.165 26.9085 18.0286 25.8975 16.9347C23.7215 14.5802 21.1882 13.0537 18.8183 12.669C18.3912 12.5996 17.4648 12.5537 17.0929 12.5834ZM18.3663 14.2941C19.2386 14.4457 20.0132 14.8368 20.6574 15.4507C22.1771 16.8992 22.4353 19.2365 21.2683 20.9808C19.7232 23.2905 16.4059 23.5886 14.4778 21.5912C13.6765 20.761 13.258 19.7274 13.258 18.578C13.258 16.4605 14.7608 14.6791 16.8727 14.2932C17.2341 14.2272 17.9838 14.2276 18.3663 14.2941ZM16.9828 15.6453C15.8223 15.8994 14.902 16.8325 14.6682 17.9924C14.6214 18.2245 14.6112 18.404 14.6269 18.7218C14.6519 19.2306 14.7148 19.4772 14.9298 19.9091C15.2309 20.514 15.6766 20.9569 16.2855 21.2563C16.7833 21.5011 16.9996 21.5483 17.625 21.5483C18.2504 21.5483 18.4667 21.5011 18.9645 21.2563C19.5734 20.9569 20.019 20.5141 20.3203 19.9091C20.5667 19.4144 20.6141 19.1995 20.6141 18.578C20.6141 17.9566 20.5667 17.7416 20.3203 17.247C20.1251 16.8551 19.8562 16.5164 19.5324 16.2544C19.2615 16.0352 18.7385 15.7657 18.414 15.6779C18.0955 15.5918 17.3091 15.5739 16.9828 15.6453ZM17.3967 17.1817L17.3865 17.6817L17.2764 17.7044C16.9988 17.7616 16.775 17.9783 16.7221 18.2413L16.6983 18.3592H16.2075C15.6431 18.3592 15.6674 18.3801 15.7714 17.9833C15.8544 17.6664 15.9969 17.4185 16.2275 17.1893C16.5064 16.9121 16.8347 16.7554 17.2397 16.7061C17.3002 16.6987 17.3626 16.6902 17.3783 16.6872C17.394 16.6842 17.4023 16.9067 17.3967 17.1817Z" fill="#7F38F3"/>
</g>
<defs>
<clipPath id="clip0_18728_177131">
<rect width="36" height="36" fill="white" transform="translate(0 0.279297)"/>
</clipPath>
</defs>
</svg>
